<svg width="40" height="40" viewBox="0 0 40 40" fill="none" xmlns="http://www.w3.org/2000/svg">
<rect width="40" height="40" fill="#DEDCD9"/>
<path d="M28.051 25.5104C27.8046 24.3316 27.2908 23.2251 26.5493 22.2761C25.8078 21.3272 24.8584 20.5611 23.7741 20.037C24.51 19.2927 25.0093 18.3475 25.2095 17.3203C25.4096 16.293 25.3015 15.2294 24.8988 14.2634C24.4961 13.2974 23.8168 12.472 22.9463 11.891C22.0758 11.31 21.0529 10.9993 20.0063 10.9981C18.9597 10.9968 17.9361 11.305 17.0642 11.884C16.1923 12.4629 15.511 13.2867 15.106 14.2517C14.701 15.2168 14.5904 16.2801 14.7881 17.3078C14.9858 18.3356 15.4829 19.282 16.217 20.028C15.1358 20.5574 14.1894 21.3263 13.45 22.2763C12.7105 23.2263 12.1973 24.3323 11.9494 25.5104C11.894 25.8056 11.9021 26.1092 11.9729 26.4011C12.0437 26.6929 12.1757 26.9665 12.3602 27.2035C12.54 27.438 12.7686 27.6307 13.0301 27.7682C13.2917 27.9057 13.58 27.9848 13.8752 27.9999H26.1252C26.4203 27.9848 26.7086 27.9057 26.9702 27.7682C27.2318 27.6307 27.4604 27.438 27.6402 27.2035C27.8246 26.9664 27.9566 26.6929 28.0274 26.4011C28.0982 26.1092 28.1063 25.8056 28.051 25.5104ZM13.9235 25.9999C14.0766 25.0994 14.4515 24.2512 15.0145 23.5319C15.5775 22.8126 16.3108 22.2448 17.1481 21.8799C17.43 21.7358 17.6738 21.527 17.8596 21.2707C18.0453 21.0143 18.1678 20.7176 18.217 20.4049C18.2671 20.0906 18.2426 19.769 18.1455 19.466C18.0484 19.163 17.8813 18.887 17.6579 18.6605C17.1895 18.1909 16.8728 17.5917 16.7485 16.9402C16.6242 16.2887 16.6981 15.615 16.9606 15.0059C17.2231 14.3969 17.6623 13.8806 18.2213 13.5237C18.7802 13.1668 19.4334 12.9856 20.0964 13.0037C20.744 13.0219 21.372 13.23 21.9022 13.6022C22.4325 13.9744 22.8416 14.4943 23.0787 15.0972C23.3158 15.7001 23.3705 16.3595 23.2358 16.9932C23.1011 17.6269 22.7831 18.207 22.3214 18.6614C22.1009 18.8758 21.9356 19.1405 21.8399 19.4327C21.7441 19.725 21.7206 20.0361 21.7714 20.3394C21.8207 20.662 21.9438 20.9687 22.1311 21.2359C22.3184 21.503 22.5649 21.7232 22.8514 21.8794C23.6888 22.2445 24.4221 22.8124 24.9852 23.5317C25.5483 24.2511 25.9235 25.0993 26.0768 25.9999H13.9235Z" fill="#3F3E3B"/>
</svg>
