<svg width="92" height="64" viewBox="0 0 92 64" fill="none" xmlns="http://www.w3.org/2000/svg">
<g clip-path="url(#clip0_7416_2969)">
<path d="M59.712 3.58142C59.712 2.42029 58.7705 1.48071 57.6098 1.48071H42.207L52.061 14.0786L59.3472 4.76316C59.5771 4.42576 59.712 4.01996 59.712 3.58142" fill="white"/>
<path d="M72.7418 13.9505V13.9438L64.4063 3.32267C63.6333 2.24977 62.389 1.54143 60.9775 1.49212V1.48071C60.9775 1.48071 63.2986 2.86954 61.6394 4.96489H61.6408L53.9018 14.8609L53.892 14.8485L43.4401 28.2161L59.8084 28.2219L61.0306 28.1802C62.3564 28.1243 63.5275 27.4884 64.3005 26.5177L64.3163 26.5101L72.7031 15.7877V15.7767C72.9076 15.5177 73.0358 15.1947 73.0358 14.8404C73.0358 14.5055 72.9247 14.2017 72.7418 13.9505" fill="white"/>
<path d="M31.3823 39.5239C31.3823 40.6853 32.323 41.6248 33.4847 41.6248L48.8843 41.6237L39.0334 29.0259L31.7458 38.3426H31.7465C31.5152 38.6801 31.3823 39.0859 31.3823 39.5239" fill="white"/>
<path d="M18.3523 29.1539V29.1619L26.6864 39.7829C27.4596 40.8548 28.703 41.5631 30.1165 41.6137V41.6248C30.1165 41.6248 27.7932 40.235 29.4536 38.1398L37.1921 28.2437L37.2006 28.2559L47.6548 14.8895L31.2844 14.8838L30.0634 14.9256C28.7378 14.9804 27.5651 15.6169 26.7933 16.5867L26.7777 16.5956L18.39 27.3177V27.3277C18.1853 27.588 18.0567 27.9096 18.0567 28.264C18.0567 28.5992 18.1693 28.903 18.3523 29.1539" fill="white"/>
<path d="M43.5411 49.797C42.8493 49.8059 42.2661 49.8913 41.687 50.0644C40.7551 50.3511 40.0465 50.861 39.508 51.5726C38.6145 52.7536 38.6279 54.1598 38.6279 54.1598V63.9704H41.2492C41.4146 63.9704 41.5523 63.8305 41.5557 63.6638V54.3385C41.5523 54.1538 41.5768 53.5077 41.944 53.1825C42.233 52.9207 42.6275 52.7928 43.0079 52.7373C43.43 52.6795 43.8243 52.7061 44.0226 52.7303L44.0859 52.7326C44.2779 52.7326 44.445 52.6307 44.5367 52.4775L45.8803 50.1677C45.1308 49.9102 44.3862 49.7847 43.5411 49.797" fill="white"/>
<path d="M35.7828 49.797C35.0891 49.8059 34.5054 49.8913 33.9297 50.0644C32.9979 50.3511 32.2898 50.861 31.749 51.5726C30.8548 52.7536 30.8696 54.1598 30.8696 54.1598V63.9704H33.4924C33.6585 63.9704 33.7955 63.8305 33.7955 63.6638V54.3385C33.7955 54.1538 33.8206 53.5077 34.1852 53.1825C34.4755 52.9207 34.8667 52.7928 35.2496 52.7373C35.672 52.6795 36.0638 52.7061 36.2623 52.7303L36.3304 52.7326C36.5211 52.7326 36.6845 52.6307 36.7799 52.4775L38.122 50.1677C37.3737 49.9102 36.6277 49.7847 35.7828 49.797" fill="white"/>
<path d="M12.6943 60.3407C12.5955 60.2099 12.4392 60.1255 12.26 60.1255C12.1607 60.1255 12.0651 60.154 11.9841 60.2009L11.9771 60.2065C11.0802 60.7417 10.0329 61.0513 8.91718 61.0513C5.62471 61.0513 2.94814 58.3734 2.94814 55.0833C2.94814 51.7902 5.62471 49.1129 8.91718 49.1129C10.0317 49.1129 11.0778 49.4206 11.9714 49.9547C12.0527 50.0059 12.1537 50.0381 12.2595 50.0381C12.4334 50.0381 12.5893 49.9547 12.6887 49.8295L14.1859 47.8921C12.7069 46.8061 10.8858 46.1653 8.91718 46.1653C4.00075 46.1653 0 50.1647 0 55.0833C0 59.9979 4.00075 63.9993 8.91718 63.9993C10.8878 63.9993 12.7098 63.3588 14.1859 62.2719L12.6943 60.3407V60.3407Z" fill="white"/>
<path d="M52.6656 49.5876C48.6994 49.5876 45.4672 52.8167 45.4672 56.7862C45.4672 60.7131 48.7007 63.9421 52.6686 63.9853L52.8828 63.9863C54.4485 63.9863 55.7019 63.7691 57.3609 62.6951L57.6297 62.5187L56.1404 60.5879C56.0431 60.4587 55.8886 60.3779 55.7189 60.3779L55.4534 60.4477C55.0814 60.6434 53.9256 61.1652 52.6656 61.1652C50.7657 61.1663 49.1489 59.9484 48.5436 58.2538H58.3934L59.5329 58.2485C59.7013 58.2485 59.8382 58.114 59.8382 57.9462L59.8558 57.1081C59.8614 57.0001 59.8648 56.8915 59.8648 56.7862C59.8648 52.8167 56.6347 49.5876 52.6656 49.5876V49.5876ZM52.6656 52.411C54.5983 52.411 56.2371 53.6694 56.8178 55.4038H48.5147C49.0954 53.6694 50.7358 52.411 52.6656 52.411Z" fill="white"/>
<path d="M61.8463 63.9994C61.6826 63.9994 61.5467 63.8685 61.544 63.705L61.5417 50.3568C61.544 50.197 61.6752 50.0638 61.834 50.0571H64.1648C64.3302 50.0571 64.4654 50.1933 64.4654 50.3611V63.6984C64.4654 63.8628 64.3302 63.9994 64.1648 63.9994H61.8463V63.9994Z" fill="white"/>
<path d="M21.9481 63.9996C17.9331 63.9996 14.6635 60.7297 14.6635 56.7147C14.6635 52.6997 17.9331 49.4302 21.9481 49.4302C25.9651 49.4302 29.2343 52.6977 29.2343 56.7147C29.2343 60.7317 25.9651 63.9996 21.9481 63.9996V63.9996ZM21.9481 52.3692C19.5542 52.3692 17.6047 54.3176 17.6047 56.7147C17.6047 59.1099 19.5542 61.0573 21.9481 61.0573C24.3419 61.0573 26.2903 59.1099 26.2903 56.7147C26.2903 54.3176 24.3429 52.3692 21.9481 52.3692Z" fill="white"/>
<path d="M73.1336 63.9794C69.1568 63.9794 65.9235 60.746 65.9235 56.7722C65.9235 52.7984 69.1568 49.5651 73.1336 49.5651C77.1077 49.5651 80.3434 52.7974 80.3434 56.7722C80.3434 60.747 77.1077 63.9794 73.1336 63.9794ZM73.1336 52.4732C70.7637 52.4732 68.8349 54.4029 68.8349 56.7722C68.8349 59.1415 70.7637 61.0716 73.1336 61.0716C75.5035 61.0716 77.4333 59.1418 77.4333 56.7722C77.4333 54.4026 75.5032 52.4732 73.1336 52.4732Z" fill="white"/>
<path d="M88.5385 55.6859C88.0323 55.4574 87.3918 55.3106 86.6935 55.1342C85.6607 54.8777 84.6979 54.8222 84.3391 54.2648C84.0086 53.7519 84.187 53.1466 84.6358 52.839C85.652 52.1383 87.0343 52.4181 87.7957 52.7712C87.9256 52.8303 88.49 53.1579 88.49 53.1579L88.7651 53.2366C88.9435 53.2366 89.0973 53.1499 89.1933 53.0157L90.647 51.1291L90.4015 50.9384C90.2587 50.8324 90.062 50.6929 89.8491 50.5737C89.4169 50.3252 88.1057 49.5691 86.1948 49.5691L86.0228 49.5714C81.8337 49.6711 81.2517 52.628 81.2517 53.6741C81.2517 55.2617 82.0709 56.3988 83.2977 57.1081C84.2804 57.6755 86.1414 57.9845 87.0888 58.2708C87.5838 58.4197 87.9479 58.7615 88.0831 59.0957C88.1435 59.2412 88.1764 59.3957 88.1811 59.5588C88.199 60.1016 87.906 60.7344 87.0918 60.9866C86.1912 61.263 84.7671 61.1474 83.4787 60.1385L83.2446 59.973L83.0522 59.9385C82.8695 59.9385 82.7236 60.0375 82.6147 60.1793L81.1859 62.0237C81.1859 62.0237 81.6835 62.4356 81.85 62.5622C82.6625 63.1718 84.1182 64 86.0327 64H86.1035C90.1318 63.9877 91.0935 61.1255 91.0935 59.5535C91.0935 57.9466 90.1099 56.3909 88.5385 55.6859" fill="white"/>
</g>
<defs>
<clipPath id="clip0_7416_2969">
<rect width="92" height="64" fill="white"/>
</clipPath>
</defs>
</svg>
