<svg width="147" height="32" viewBox="0 0 147 32" fill="none" xmlns="http://www.w3.org/2000/svg">
<path d="M93.3023 14.9502C92.5332 14.9605 91.8864 15.0576 91.2464 15.2505C90.2137 15.5657 89.4252 16.1327 88.8296 16.9215C87.8357 18.2327 87.8507 19.7929 87.8507 19.7929V30.6818H90.7599C90.944 30.6818 91.0973 30.5276 91.0982 30.3426V19.9926C91.0973 19.7875 91.1259 19.0718 91.5319 18.7078C91.8537 18.4187 92.2893 18.2779 92.7122 18.2156C93.1802 18.1494 93.6183 18.18 93.8374 18.2083C93.8374 18.2083 93.8857 18.2117 93.9108 18.2117C94.1223 18.2117 94.3067 18.096 94.4087 17.9275L95.9015 15.3634C95.0688 15.0759 94.2409 14.937 93.3023 14.9502" fill="#00416B"/>
<path d="M84.7649 14.9502C83.9965 14.9605 83.3481 15.0576 82.7107 15.2505C81.6754 15.5657 80.8878 16.1327 80.2904 16.9215C79.2962 18.2327 79.3127 19.7929 79.3127 19.7929V30.6818H82.2232C82.4073 30.6818 82.5593 30.5276 82.5606 30.3426V19.9926C82.5593 19.7875 82.5889 19.0718 82.9927 18.7078C83.3154 18.4187 83.7497 18.2779 84.1745 18.2156C84.6444 18.1494 85.0775 18.18 85.3001 18.2083C85.3001 18.2083 85.3478 18.2117 85.3745 18.2117C85.5827 18.2117 85.7706 18.096 85.873 17.9275L87.3632 15.3634C86.5321 15.0759 85.7051 14.937 84.7649 14.9502" fill="#00416B"/>
<path d="M59.4172 26.654C59.3048 26.51 59.1317 26.4149 58.9332 26.4149C58.8224 26.4149 58.7185 26.4454 58.6276 26.4979L58.6171 26.5058C57.6243 27.1007 56.4635 27.4438 55.2223 27.4438C51.5694 27.4438 48.5972 24.4697 48.5972 20.8161C48.5972 17.1647 51.5694 14.1927 55.2223 14.1927C56.4595 14.1927 57.6175 14.5337 58.6117 15.1257C58.703 15.185 58.8139 15.2185 58.9309 15.2185C59.125 15.2185 59.2975 15.1269 59.4095 14.9891L61.0687 12.8367C59.4285 11.6304 57.4075 10.9214 55.2223 10.9214C49.7661 10.9214 45.3253 15.3595 45.3253 20.8161C45.3253 26.2726 49.7661 30.7146 55.2223 30.7146C57.4095 30.7146 59.4309 30.0027 61.0709 28.798L59.4172 26.654V26.654Z" fill="#00416B"/>
<path d="M103.432 17.8518C105.574 17.8518 107.397 19.2469 108.04 21.1788H98.8248C99.4661 19.2469 101.288 17.8518 103.432 17.8518V17.8518ZM103.432 14.7195C99.0264 14.7195 95.444 18.3017 95.444 22.7085C95.444 27.066 99.0299 30.6526 103.436 30.6977C103.514 30.6977 103.671 30.699 103.671 30.699C105.411 30.699 106.802 30.4602 108.644 29.2656L108.943 29.0701C108.943 29.0701 107.306 26.9503 107.288 26.9293C107.179 26.7866 107.009 26.6937 106.82 26.6937C106.712 26.6937 106.613 26.723 106.525 26.7748C106.112 26.9891 104.829 27.5665 103.432 27.5675C101.325 27.5687 99.5278 26.2184 98.8572 24.3383H109.788L111.052 24.3332C111.241 24.3332 111.393 24.1829 111.393 23.9946L111.412 23.0671C111.418 22.9451 111.42 22.8255 111.42 22.7085C111.42 18.3017 107.837 14.7195 103.432 14.7195V14.7195Z" fill="#00416B"/>
<path d="M113.622 30.7136C113.439 30.7136 113.29 30.5692 113.283 30.3883V15.573C113.285 15.3953 113.429 15.2482 113.608 15.2401H116.194C116.379 15.2401 116.529 15.3921 116.529 15.5779V30.3791C116.529 30.5651 116.379 30.7136 116.194 30.7136H113.622Z" fill="#00416B"/>
<path d="M69.6844 17.8079C67.0268 17.8079 64.8643 19.9693 64.8643 22.6287C64.8643 25.288 67.0268 27.4495 69.6844 27.4495C72.3447 27.4495 74.5071 25.2877 74.5071 22.6287C74.5071 19.9696 72.3447 17.8079 69.6844 17.8079V17.8079ZM69.6844 30.7136C65.227 30.7136 61.5997 27.087 61.5997 22.6287C61.5997 18.1703 65.227 14.5419 69.6844 14.5419C74.1418 14.5419 77.7735 18.1707 77.7735 22.6287C77.7735 27.0867 74.1431 30.7136 69.6844 30.7136Z" fill="#00416B"/>
<path d="M126.147 17.9234C123.519 17.9234 121.377 20.0632 121.377 22.6939C121.377 25.3246 123.519 27.4635 126.147 27.4635C128.779 27.4635 130.921 25.3247 130.921 22.6939C130.921 20.0632 128.779 17.9234 126.147 17.9234ZM126.147 30.6926C121.735 30.6926 118.148 27.103 118.148 22.6939C118.148 18.2807 121.735 14.6931 126.147 14.6931C130.562 14.6931 134.15 18.2807 134.15 22.6939C134.15 27.103 130.562 30.6926 126.147 30.6926Z" fill="#00416B"/>
<path d="M143.241 21.4678C142.679 21.2144 141.966 21.0503 141.186 20.8551C140.039 20.5699 138.971 20.5067 138.571 19.8876C138.203 19.3175 138.402 18.6447 138.9 18.3016C140.031 17.5227 141.565 17.8349 142.414 18.225C142.561 18.2921 143.187 18.6562 143.187 18.6562C143.276 18.7099 143.383 18.7446 143.494 18.7446C143.692 18.7446 143.865 18.6466 143.97 18.4959C143.982 18.4829 145.588 16.4016 145.588 16.4016L145.316 16.1869C145.155 16.0709 144.935 15.9152 144.699 15.7816C144.22 15.5065 142.761 14.666 140.633 14.666C140.572 14.666 140.508 14.667 140.443 14.6681C135.783 14.7781 135.139 18.0686 135.139 19.2313C135.139 20.9969 136.047 22.2614 137.414 23.0515C138.506 23.6833 140.575 24.0251 141.629 24.3424C142.178 24.5087 142.586 24.8884 142.734 25.2594C142.8 25.4244 142.839 25.5961 142.845 25.7758C142.863 26.3805 142.538 27.0857 141.632 27.3645C140.63 27.6726 139.046 27.5433 137.614 26.4212C137.567 26.3846 137.411 26.2574 137.354 26.2361C137.287 26.211 137.215 26.1983 137.138 26.1983C136.934 26.1983 136.775 26.3086 136.656 26.4667C136.634 26.494 135.065 28.5181 135.065 28.5181C135.065 28.5181 135.618 28.9775 135.802 29.1165C136.705 29.7947 138.325 30.7167 140.454 30.7167H140.533C145.014 30.7018 146.083 27.52 146.083 25.7694C146.083 23.9809 144.987 22.2513 143.241 21.4678" fill="#00416B"/>
<path fill-rule="evenodd" clip-rule="evenodd" d="M18.9349 1.02466H32.685C33.7411 1.02466 34.6807 1.52114 35.2848 2.29297L41.4992 10.2465C41.6442 10.4327 41.7303 10.6669 41.7303 10.9214C41.7303 11.1761 41.6442 11.4104 41.4984 11.597L35.2848 19.55C34.6807 20.3217 33.7411 20.8177 32.685 20.8177H18.9349L26.6669 10.9214L18.9349 1.02466Z" fill="#0083CA"/>
<path fill-rule="evenodd" clip-rule="evenodd" d="M26.6669 10.9214L32.3162 3.68988C32.5352 3.40992 32.6661 3.05715 32.6661 2.67419C32.6661 1.76357 31.9274 1.02479 31.0171 1.02479L18.9349 1.02466L26.6669 10.9214Z" fill="#00416B"/>
<path fill-rule="evenodd" clip-rule="evenodd" d="M23.8825 30.7143H10.1319C9.07582 30.7143 8.13593 30.2183 7.53213 29.4463L1.31808 21.4927C1.17326 21.3067 1.08691 21.0724 1.08691 20.8177C1.08691 20.563 1.17342 20.3283 1.31873 20.142L7.53213 12.1892C8.13593 11.4176 9.07582 10.9214 10.1319 10.9214H23.8825L16.1507 20.8177L23.8825 30.7143V30.7143Z" fill="#0083CA"/>
<path fill-rule="evenodd" clip-rule="evenodd" d="M16.1507 20.8176L10.5007 28.0495C10.2819 28.3293 10.1514 28.6819 10.1514 29.0647C10.1514 29.9756 10.8899 30.7142 11.8006 30.7142H23.8825L16.1507 20.8176V20.8176Z" fill="#00416B"/>
</svg>
