<svg width="92" height="64" viewBox="0 0 92 64" fill="none" xmlns="http://www.w3.org/2000/svg">
<path d="M43.3531 49.7313C42.6582 49.741 42.0736 49.8289 41.4957 50.0026C40.562 50.2878 39.849 50.7998 39.3112 51.513C38.4136 52.6977 38.4272 54.1076 38.4272 54.1076V63.9471H41.0554C41.2221 63.9471 41.3601 63.8077 41.3616 63.6404V54.2882C41.3601 54.1029 41.3865 53.4558 41.7538 53.1267C42.0439 52.8657 42.4375 52.7386 42.8202 52.6821C43.2427 52.622 43.6392 52.6499 43.8364 52.6755C43.8364 52.6755 43.8805 52.6788 43.9028 52.6788C44.0941 52.6788 44.2604 52.5739 44.3527 52.4222L45.7015 50.1049C44.95 49.8452 44.2015 49.7197 43.3531 49.7313Z" fill="#00416B"/>
<path d="M35.6387 49.7313C34.9441 49.741 34.3585 49.8289 33.7823 50.0026C32.8474 50.2878 32.1354 50.7998 31.595 51.513C30.697 52.6977 30.7116 54.1076 30.7116 54.1076V63.9471H33.3413C33.5078 63.9471 33.6453 63.8077 33.6461 63.6404V54.2882C33.6453 54.1029 33.6724 53.4558 34.0368 53.1267C34.3293 52.8657 34.7214 52.7386 35.105 52.6821C35.5295 52.622 35.9208 52.6499 36.1225 52.6755C36.1225 52.6755 36.1651 52.6788 36.1895 52.6788C36.3781 52.6788 36.5472 52.5739 36.6391 52.4222L37.9864 50.1049C37.2351 49.8452 36.4882 49.7197 35.6387 49.7313Z" fill="#00416B"/>
<path d="M12.7333 60.3078C12.6322 60.177 12.4755 60.0916 12.2963 60.0916C12.1962 60.0916 12.1026 60.1192 12.0201 60.1663L12.0106 60.1736C11.1135 60.7112 10.0649 61.021 8.94311 61.021C5.64281 61.021 2.95662 58.3338 2.95662 55.0317C2.95662 51.7326 5.64281 49.0471 8.94311 49.0471C10.0606 49.0471 11.1077 49.3552 12.0061 49.8901C12.0883 49.9439 12.1884 49.9738 12.2949 49.9738C12.4702 49.9738 12.6254 49.8911 12.7267 49.7666L14.226 47.8218C12.7438 46.7318 10.9176 46.0909 8.94311 46.0909C4.01268 46.0909 0 50.1016 0 55.0317C0 59.9645 4.01268 63.9768 8.94311 63.9768C10.9194 63.9768 12.7459 63.3336 14.2278 62.2445L12.7333 60.3078V60.3078Z" fill="#00416B"/>
<path d="M52.5065 52.3541C54.4426 52.3541 56.0888 53.6145 56.6709 55.36H48.3434C48.9228 53.6145 50.5691 52.3541 52.5065 52.3541ZM52.5065 49.5234C48.5257 49.5234 45.2882 52.7605 45.2882 56.7426C45.2882 60.6799 48.528 63.9209 52.5105 63.9617C52.5809 63.9617 52.7223 63.9627 52.7223 63.9627C54.2948 63.9627 55.5516 63.7469 57.2161 62.6678L57.4861 62.4908C57.4861 62.4908 56.0062 60.5753 55.9909 60.5567C55.8923 60.4275 55.7385 60.3435 55.5679 60.3435C55.4699 60.3435 55.3806 60.3701 55.3013 60.4166C54.9277 60.6105 53.7689 61.1321 52.5065 61.1331C50.6023 61.1338 48.9783 59.9142 48.373 58.2152H58.2497L59.3923 58.2109C59.563 58.2109 59.7001 58.0744 59.7001 57.9047L59.7177 57.0663C59.7227 56.9564 59.7246 56.8482 59.7246 56.7426C59.7246 52.7605 56.4873 49.5234 52.5065 49.5234V49.5234Z" fill="#00416B"/>
<path d="M61.7143 63.9759C61.549 63.9759 61.4145 63.846 61.4085 63.682V50.2946C61.4102 50.1343 61.5403 50.0011 61.7017 49.9941H64.0389C64.2062 49.9941 64.342 50.1313 64.342 50.2989V63.6737C64.342 63.8417 64.2062 63.9759 64.0389 63.9759H61.7143V63.9759Z" fill="#00416B"/>
<path d="M22.0118 52.314C19.6097 52.314 17.6556 54.2671 17.6556 56.6704C17.6556 59.0737 19.6097 61.0267 22.0118 61.0267C24.4139 61.0267 26.3695 59.073 26.3695 56.6704C26.3695 54.2677 24.4151 52.314 22.0118 52.314ZM22.0118 63.9758C17.9832 63.9758 14.706 60.6986 14.706 56.6704C14.706 52.6421 17.9832 49.3625 22.0118 49.3625C26.0404 49.3625 29.3206 52.6414 29.3206 56.6704C29.3206 60.6993 26.0409 63.9758 22.0118 63.9758Z" fill="#00416B"/>
<path d="M73.0324 52.4183C70.6573 52.4183 68.7222 54.3521 68.7222 56.7291C68.7222 59.1062 70.6573 61.039 73.0324 61.039C75.4108 61.039 77.3469 59.1062 77.3469 56.7291C77.3469 54.3521 75.4108 52.4183 73.0324 52.4183V52.4183ZM73.0324 63.9566C69.0449 63.9566 65.8039 60.7133 65.8039 56.7291C65.8039 52.7414 69.0449 49.4994 73.0324 49.4994C77.0198 49.4994 80.2641 52.7414 80.2641 56.7291C80.2641 60.7133 77.0218 63.9566 73.0324 63.9566Z" fill="#00416B"/>
<path d="M88.4787 55.6214C87.9717 55.3922 87.3269 55.2445 86.6223 55.0675C85.5853 54.8102 84.6208 54.7534 84.2588 54.1933C83.9265 53.6783 84.1064 53.0703 84.556 52.7605C85.5787 52.0566 86.9653 52.3385 87.7316 52.6908C87.8644 52.7522 88.4306 53.0806 88.4306 53.0806C88.5109 53.1294 88.6072 53.1606 88.7075 53.1606C88.8871 53.1606 89.0422 53.072 89.1375 52.9362C89.1488 52.9242 90.5998 51.0436 90.5998 51.0436L90.3534 50.8493C90.2089 50.7447 90.01 50.6043 89.7966 50.4834C89.3636 50.2347 88.0447 49.4753 86.1226 49.4753C86.0671 49.4753 86.0093 49.476 85.9502 49.4773C81.7393 49.5766 81.1576 52.5493 81.1576 53.6006C81.1576 55.196 81.9784 56.3385 83.2136 57.0524C84.2011 57.6232 86.0698 57.9323 87.0224 58.2192C87.5194 58.3693 87.8867 58.7123 88.0215 59.0476C88.0802 59.1967 88.1151 59.3515 88.1204 59.5145C88.1374 60.0607 87.8442 60.6979 87.0247 60.9499C86.1192 61.2281 84.6885 61.1116 83.3942 60.0979C83.3517 60.0643 83.2109 59.9494 83.1594 59.9305C83.099 59.9076 83.0346 59.896 82.9649 59.896C82.7796 59.896 82.6352 59.9956 82.5283 60.138C82.5093 60.1633 81.0905 61.9925 81.0905 61.9925C81.0905 61.9925 81.5906 62.4072 81.7563 62.5327C82.5728 63.146 84.0367 63.9787 85.9599 63.9787H86.0316C90.0814 63.9658 91.048 61.0903 91.048 59.5085C91.048 57.8922 90.0572 56.3293 88.4787 55.6214" fill="#00416B"/>
<path fill-rule="evenodd" clip-rule="evenodd" d="M42.1785 1.48865H60.7709C62.1983 1.48865 63.4687 2.15985 64.2855 3.20313L72.6874 13.9568C72.8833 14.209 73.0005 14.5254 73.0005 14.8694C73.0005 15.2142 72.8833 15.5312 72.6868 15.783L64.2855 26.5355C63.4687 27.5793 62.1983 28.2503 60.7709 28.2503H42.1785L52.6327 14.8694L42.1785 1.48865Z" fill="#0083CA"/>
<path fill-rule="evenodd" clip-rule="evenodd" d="M52.6327 14.8694L60.2719 5.0921C60.5677 4.71323 60.7444 4.23658 60.7444 3.71912C60.7444 2.48758 59.7463 1.48899 58.5147 1.48899L42.1785 1.48865L52.6327 14.8694V14.8694Z" fill="#00416B"/>
<path fill-rule="evenodd" clip-rule="evenodd" d="M48.8688 41.6305H30.277C28.8496 41.6305 27.5786 40.9601 26.7626 39.9166L18.3599 29.1629C18.1642 28.9109 18.0474 28.5943 18.0474 28.2504C18.0474 27.9061 18.1642 27.5887 18.3614 27.3367L26.7626 16.5838C27.5786 15.5404 28.8496 14.8695 30.277 14.8695H48.8688L38.4144 28.2504L48.8688 41.6305V41.6305Z" fill="#FFD400"/>
<path fill-rule="evenodd" clip-rule="evenodd" d="M38.4144 28.2504L30.7753 38.0275C30.4793 38.406 30.3033 38.8825 30.3033 39.4005C30.3033 40.632 31.3018 41.6305 32.5326 41.6305H48.8687L38.4144 28.2504V28.2504Z" fill="#CD992B"/>
</svg>
