<svg width="147" height="32" viewBox="0 0 147 32" fill="none" xmlns="http://www.w3.org/2000/svg">
<g clip-path="url(#clip0_7416_2624)">
<path d="M42.7537 10.062L36.3656 1.82744C35.6909 0.893488 34.6999 0.27067 33.573 0.0724494L33.5349 0.0670587L31.2688 0.00204586H31.2208C31.2208 0.00204586 31.1603 0 31.1357 0L16.741 0.00204586L24.5099 9.94703L10.8738 9.94499L9.95989 9.97558C8.78193 10.0278 7.66833 10.5558 6.88471 11.4268L6.85187 11.4461L0.473633 19.6073L0.246737 19.9697C0.0840426 20.2821 0 20.6287 0 20.9804C0 21.3121 0.076119 21.6381 0.216601 21.9372L6.60738 30.1759C7.18691 30.9785 8.00321 31.5544 8.93859 31.8234L11.7704 31.9981C11.7983 31.9991 11.8363 32 11.8363 32L26.2306 31.9991L18.4608 22.0552H32.0867L33.0113 22.0244C34.1809 21.974 35.2894 21.4529 36.0735 20.5881L36.1052 20.5707L42.4989 12.3961L42.6149 12.237L42.7258 12.0325C42.8865 11.7203 42.972 11.3724 42.972 11.0208C42.972 10.689 42.8962 10.3628 42.7537 10.062" fill="white"/>
<path d="M11.4297 30.7674H10.1195C9.61709 30.7639 9.12187 30.6485 8.67013 30.4297C8.2184 30.2108 7.82163 29.8941 7.50894 29.5027L1.31515 21.5983C1.16696 21.4016 1.08685 21.1623 1.08685 20.9165C1.08685 20.6706 1.16696 20.4314 1.31515 20.2347L7.54865 12.3303C7.85157 11.9193 8.24765 11.5851 8.7047 11.3551C9.16175 11.125 9.66687 11.0055 10.179 11.0064H23.9463L16.1346 20.7683L10.3775 27.9415L11.4297 30.7674Z" fill="url(#paint0_linear_7416_2624)"/>
<path d="M16.1842 20.8869L16.1247 20.7881L10.3776 27.9416C10.0849 28.3233 9.93721 28.7958 9.96067 29.2754C9.9803 29.4962 10.0444 29.7108 10.1492 29.9064C10.2539 30.102 10.3972 30.2745 10.5705 30.4138C10.7437 30.553 10.9433 30.6561 11.1575 30.7169C11.3716 30.7776 11.5959 30.7948 11.8168 30.7674H23.9165L16.1842 20.8869Z" fill="url(#paint1_linear_7416_2624)"/>
<path d="M32.4926 3.92192L31.5 1.12573H32.8102C33.3118 1.12563 33.8068 1.2395 34.2574 1.45867C34.7081 1.67784 35.1026 1.99652 35.4108 2.39044L41.6443 10.2948C41.7925 10.4915 41.8726 10.7307 41.8726 10.9766C41.8726 11.2224 41.7925 11.4617 41.6443 11.6583L35.381 19.5627C35.0751 19.9779 34.6743 20.3145 34.2117 20.5448C33.7491 20.775 33.238 20.8922 32.7209 20.8867H18.9635L26.7852 11.1149L32.4926 3.92192Z" fill="url(#paint2_linear_7416_2624)"/>
<path d="M26.7256 11.0064L26.7851 11.1052L32.4926 3.932C32.7888 3.55159 32.94 3.079 32.9194 2.59813C32.8976 2.37526 32.8305 2.15913 32.7222 1.9629C32.6138 1.76667 32.4665 1.59444 32.2891 1.45671C32.1117 1.31898 31.9081 1.21863 31.6905 1.16176C31.4729 1.1049 31.246 1.09271 31.0235 1.12594H18.9635L26.7256 11.0064Z" fill="url(#paint3_linear_7416_2624)"/>
<path d="M32.8201 3.78359C33.0503 3.50519 33.1765 3.15608 33.1774 2.79554C33.1787 2.57755 33.1369 2.36144 33.0543 2.15955C32.9717 1.95767 32.85 1.77395 32.696 1.61889C32.5421 1.46383 32.359 1.34048 32.1572 1.25586C31.9554 1.17124 31.7388 1.12703 31.5198 1.12573H31.093C31.3094 1.12831 31.5231 1.17329 31.722 1.25811C31.921 1.34293 32.1011 1.46592 32.2523 1.62006C32.4035 1.7742 32.5226 1.95648 32.603 2.15647C32.6834 2.35647 32.7235 2.57026 32.7208 2.78566C32.725 3.14708 32.5982 3.49789 32.3635 3.77371L26.7256 11.0062L18.9932 20.8867L32.8201 3.78359Z" fill="#14B9ED"/>
<path d="M10.0897 28.07C9.86304 28.3503 9.73724 28.6982 9.73237 29.058C9.72575 29.2793 9.76365 29.4997 9.84386 29.7061C9.92407 29.9126 10.045 30.101 10.1994 30.2603C10.3539 30.4196 10.5388 30.5465 10.7432 30.6336C10.9477 30.7207 11.1676 30.7661 11.39 30.7674H11.8168C11.3754 30.757 10.9558 30.5738 10.6492 30.2575C10.3426 29.9412 10.1737 29.5173 10.179 29.0778C10.1819 28.7159 10.3118 28.3664 10.5463 28.0897L16.1842 20.8869L23.9166 11.0063L10.0897 28.07Z" fill="#FFD400"/>
<path d="M93.3332 15.0248C92.5645 15.0357 91.9181 15.1324 91.2785 15.3249C90.2466 15.64 89.4579 16.2064 88.8629 16.9954C87.8697 18.3054 87.8843 19.8648 87.8843 19.8648V30.7474H90.7923C90.9763 30.7474 91.1288 30.5929 91.1301 30.4083V20.0646C91.1288 19.8597 91.1583 19.1442 91.5636 18.7805C91.8848 18.491 92.3206 18.3505 92.7433 18.2883C93.2111 18.2224 93.6493 18.2528 93.8675 18.281C93.8675 18.281 93.916 18.2842 93.9411 18.2842C94.1526 18.2842 94.3365 18.1691 94.439 18.001L95.9308 15.438C95.0986 15.151 94.2709 15.0117 93.3332 15.0248Z" fill="white"/>
<path d="M84.8005 15.0248C84.0327 15.0357 83.3848 15.1324 82.7471 15.3249C81.7132 15.64 80.9255 16.2064 80.3284 16.9954C79.3351 18.3054 79.3513 19.8648 79.3513 19.8648V30.7474H82.2603C82.4442 30.7474 82.5965 30.5929 82.5974 30.4083V20.0646C82.5965 19.8597 82.626 19.1442 83.0293 18.7805C83.3525 18.491 83.7857 18.3505 84.2103 18.2883C84.6803 18.2224 85.1129 18.2528 85.3355 18.281C85.3355 18.281 85.3827 18.2842 85.4097 18.2842C85.6184 18.2842 85.8061 18.1691 85.9079 18.001L87.3975 15.438C86.5669 15.151 85.7401 15.0117 84.8005 15.0248Z" fill="white"/>
<path d="M59.468 26.7217C59.3555 26.578 59.1824 26.4829 58.9845 26.4829C58.8735 26.4829 58.7696 26.5133 58.6788 26.5659L58.6682 26.5736C57.6762 27.1685 56.5163 27.511 55.2755 27.511C51.6254 27.511 48.6548 24.5389 48.6548 20.8871C48.6548 17.2383 51.6254 14.2675 55.2755 14.2675C56.512 14.2675 57.6695 14.6086 58.6629 15.2002C58.7546 15.2595 58.8651 15.293 58.9821 15.293C59.1761 15.293 59.3486 15.2013 59.4605 15.064L61.1189 12.9126C59.4795 11.7072 57.4596 10.9984 55.2755 10.9984C49.8219 10.9984 45.384 15.4341 45.384 20.8871C45.384 26.3402 49.8219 30.78 55.2755 30.78C57.4615 30.78 59.4816 30.0686 61.1207 28.8645L59.468 26.7217V26.7217Z" fill="white"/>
<path d="M103.457 17.9252C105.598 17.9252 107.419 19.3193 108.062 21.25H98.8524C99.493 19.3193 101.314 17.9252 103.457 17.9252V17.9252ZM103.457 14.7942C99.0535 14.7942 95.4728 18.3746 95.4728 22.7789C95.4728 27.1337 99.0567 30.7182 103.461 30.7632C103.539 30.7632 103.695 30.7645 103.695 30.7645C105.434 30.7645 106.824 30.526 108.666 29.3317L108.964 29.1363C108.964 29.1363 107.328 27.0182 107.31 26.997C107.201 26.8543 107.031 26.7614 106.842 26.7614C106.734 26.7614 106.635 26.7912 106.548 26.8425C106.135 27.0566 104.853 27.6341 103.457 27.6347C101.351 27.636 99.5546 26.2866 98.8845 24.4076H109.809L111.072 24.4026C111.262 24.4026 111.413 24.2522 111.413 24.0642L111.432 23.1372C111.438 23.0151 111.44 22.8956 111.44 22.7789C111.44 18.3746 107.859 14.7942 103.457 14.7942V14.7942Z" fill="white"/>
<path d="M113.641 30.779C113.458 30.779 113.309 30.6351 113.302 30.454V15.6474C113.304 15.4698 113.448 15.3228 113.626 15.3151H116.211C116.397 15.3151 116.546 15.467 116.546 15.6528V30.4448C116.546 30.631 116.397 30.779 116.211 30.779H113.641V30.779Z" fill="white"/>
<path d="M69.7289 17.8808C67.0728 17.8808 64.9114 20.0414 64.9114 22.6989C64.9114 25.3565 67.0728 27.5171 69.7289 27.5171C72.3879 27.5171 74.5486 25.3565 74.5486 22.6989C74.5486 20.0414 72.3879 17.8808 69.7289 17.8808ZM69.7289 30.779C65.2741 30.779 61.6493 27.1546 61.6493 22.6989C61.6493 18.2433 65.2741 14.6171 69.7289 14.6171C74.1838 14.6171 77.8132 18.2436 77.8132 22.6989C77.8132 27.1543 74.1855 30.779 69.7289 30.779Z" fill="white"/>
<path d="M126.158 17.9966C123.532 17.9966 121.391 20.1353 121.391 22.764C121.391 25.3926 123.532 27.531 126.158 27.531C128.789 27.531 130.93 25.3936 130.93 22.764C130.93 20.1343 128.789 17.9966 126.158 17.9966V17.9966ZM126.158 30.7578C121.748 30.7578 118.164 27.1704 118.164 22.764C118.164 18.3537 121.748 14.7682 126.158 14.7682C130.571 14.7682 134.157 18.3537 134.157 22.764C134.157 27.1704 130.571 30.7578 126.158 30.7578V30.7578Z" fill="white"/>
<path d="M143.242 21.5386C142.681 21.2855 141.968 21.1219 141.189 20.9262C140.042 20.6414 138.975 20.5786 138.575 19.9593C138.207 19.39 138.406 18.7174 138.903 18.3746C140.034 17.596 141.567 17.9081 142.415 18.2978C142.562 18.365 143.188 18.7288 143.188 18.7288C143.278 18.7827 143.384 18.8173 143.495 18.8173C143.693 18.8173 143.866 18.7196 143.971 18.5689C143.982 18.5553 145.588 16.4756 145.588 16.4756L145.316 16.2609C145.155 16.1452 144.935 15.9898 144.699 15.8561C144.22 15.5811 142.763 14.7412 140.636 14.7412C140.575 14.7412 140.511 14.7422 140.445 14.7433C135.789 14.8532 135.145 18.1412 135.145 19.3037C135.145 21.0682 136.053 22.3323 137.418 23.1213C138.511 23.7527 140.577 24.0946 141.631 24.4117C142.18 24.5779 142.587 24.9572 142.736 25.3279C142.802 25.4931 142.84 25.6644 142.846 25.8442C142.864 26.4487 142.539 27.1536 141.634 27.4317C140.633 27.74 139.05 27.6106 137.618 26.4896C137.571 26.4528 137.415 26.3256 137.358 26.3047C137.292 26.2793 137.22 26.2666 137.143 26.2666C136.939 26.2666 136.779 26.3767 136.661 26.5346C136.64 26.5622 135.071 28.5852 135.071 28.5852C135.071 28.5852 135.623 29.044 135.807 29.1829C136.71 29.8603 138.329 30.7822 140.456 30.7822H140.536C145.014 30.7676 146.083 27.5875 146.083 25.8379C146.083 24.0502 144.987 22.3215 143.242 21.5386" fill="white"/>
</g>
<defs>
<linearGradient id="paint0_linear_7416_2624" x1="23.5394" y1="10.5123" x2="4.40937" y2="25.5171" gradientUnits="userSpaceOnUse">
<stop stop-color="#FFDC04"/>
<stop offset="0.9" stop-color="#D29E01"/>
<stop offset="1" stop-color="#FFDC04"/>
</linearGradient>
<linearGradient id="paint1_linear_7416_2624" x1="23.9165" y1="25.7481" x2="9.96067" y2="25.7481" gradientUnits="userSpaceOnUse">
<stop stop-color="#D29E01"/>
<stop offset="1" stop-color="#AB5917"/>
</linearGradient>
<linearGradient id="paint2_linear_7416_2624" x1="19.3208" y1="21.3314" x2="38.4609" y2="6.35628" gradientUnits="userSpaceOnUse">
<stop stop-color="#00537E"/>
<stop offset="0.9" stop-color="#1CA9E1"/>
<stop offset="1" stop-color="#107BBF"/>
</linearGradient>
<linearGradient id="paint3_linear_7416_2624" x1="31.0334" y1="-0.237572" x2="22.9027" y2="6.14191" gradientUnits="userSpaceOnUse">
<stop stop-color="#15263F"/>
<stop offset="1" stop-color="#054168"/>
</linearGradient>
<clipPath id="clip0_7416_2624">
<rect width="147" height="32" fill="white"/>
</clipPath>
</defs>
</svg>
