<svg width="92" height="64" viewBox="0 0 92 64" fill="none" xmlns="http://www.w3.org/2000/svg">
<g clip-path="url(#clip0_7416_2844)">
<path d="M43.375 49.746C42.6797 49.7556 42.0945 49.8436 41.5163 50.0174C40.5825 50.3027 39.8694 50.815 39.3314 51.5286C38.4325 52.7139 38.4462 54.1244 38.4462 54.1244V63.9689H41.0761C41.2427 63.9689 41.3809 63.8294 41.3824 63.662V54.3051C41.3809 54.1194 41.4077 53.4723 41.7744 53.1431C42.0651 52.8817 42.4589 52.7547 42.8413 52.6983C43.2648 52.6381 43.6612 52.6661 43.859 52.6916C43.859 52.6916 43.9024 52.6949 43.9244 52.6949C44.1166 52.6949 44.2832 52.59 44.3751 52.4382L45.7248 50.1197C44.9721 49.8599 44.2234 49.7343 43.375 49.746" fill="#00416B"/>
<path d="M35.6566 49.746C34.9623 49.7556 34.3756 49.8436 33.7989 50.0174C32.8637 50.3027 32.1517 50.815 31.6107 51.5286C30.7129 52.7139 30.727 54.1244 30.727 54.1244V63.9689H33.3587C33.5252 63.9689 33.6622 63.8294 33.6635 63.662V54.3051C33.6622 54.1194 33.6893 53.4723 34.0545 53.1431C34.3462 52.8817 34.7385 52.7547 35.1226 52.6983C35.5478 52.6381 35.9386 52.6661 36.1403 52.6916C36.1403 52.6916 36.183 52.6949 36.2075 52.6949C36.3962 52.6949 36.5661 52.59 36.6582 52.4382L38.0061 50.1197C37.2543 49.8599 36.5065 49.7343 35.6566 49.746" fill="#00416B"/>
<path d="M12.74 60.3276C12.6392 60.1967 12.4822 60.1113 12.3029 60.1113C12.2023 60.1113 12.1085 60.1389 12.0269 60.1861L12.0165 60.1934C11.1192 60.7312 10.0701 61.0412 8.9479 61.0412C5.64581 61.0412 2.95828 58.3526 2.95828 55.0489C2.95828 51.7481 5.64581 49.0609 8.9479 49.0609C10.0663 49.0609 11.1139 49.3695 12.012 49.9047C12.0944 49.9585 12.1952 49.9884 12.301 49.9884C12.4762 49.9884 12.6326 49.9057 12.7334 49.7811L14.2338 47.8354C12.7507 46.7448 10.9237 46.1036 8.9479 46.1036C4.01469 46.1036 0 50.1163 0 55.0489C0 59.9841 4.01469 63.9985 8.9479 63.9985C10.9255 63.9985 12.753 63.355 14.2356 62.2653L12.74 60.3276V60.3276Z" fill="#00416B"/>
<path d="M52.5333 52.3698C54.4698 52.3698 56.1175 53.6308 56.6992 55.3772H48.3675C48.9479 53.6308 50.5943 52.3698 52.5333 52.3698V52.3698ZM52.5333 49.5377C48.5502 49.5377 45.3108 52.7764 45.3108 56.7605C45.3108 60.6998 48.5529 63.9424 52.5363 63.9832C52.6071 63.9832 52.7493 63.9843 52.7493 63.9843C54.3219 63.9843 55.5797 63.7683 57.2453 62.6887L57.5151 62.5116C57.5151 62.5116 56.0351 60.5951 56.0188 60.5765C55.9202 60.4473 55.7663 60.3632 55.5953 60.3632C55.4983 60.3632 55.4089 60.3898 55.3289 60.4363C54.9558 60.6303 53.7964 61.1522 52.5333 61.1532C50.6279 61.1539 49.0037 59.9337 48.3968 58.2338H58.2795L59.4219 58.2295C59.5933 58.2295 59.7309 58.0929 59.7309 57.9232L59.7475 57.0844C59.7535 56.9744 59.7551 56.8661 59.7551 56.7605C59.7551 52.7764 56.5151 49.5377 52.5333 49.5377V49.5377Z" fill="#00416B"/>
<path d="M61.745 63.9974C61.5806 63.9974 61.4457 63.8675 61.4394 63.7034V50.3093C61.4411 50.1489 61.5713 50.0156 61.7331 50.0087H64.0708C64.2385 50.0087 64.3738 50.1459 64.3738 50.3136V63.6951C64.3738 63.8632 64.2385 63.9974 64.0708 63.9974H61.745V63.9974Z" fill="#00416B"/>
<path d="M22.0226 52.3298C19.62 52.3298 17.6649 54.2838 17.6649 56.6883C17.6649 59.0928 19.62 61.0468 22.0226 61.0468C24.4273 61.0468 26.3826 59.0921 26.3826 56.6883C26.3826 54.2845 24.4273 52.3298 22.0226 52.3298ZM22.0226 63.9974C17.9925 63.9974 14.7137 60.7186 14.7137 56.6883C14.7137 52.658 17.9925 49.3768 22.0226 49.3768C26.0528 49.3768 29.3359 52.6574 29.3359 56.6883C29.3359 60.7193 26.0541 63.9974 22.0226 63.9974Z" fill="#00416B"/>
<path d="M73.0695 52.4342C70.6929 52.4342 68.7568 54.3689 68.7568 56.7472C68.7568 59.1254 70.6929 61.0592 73.0695 61.0592C75.4494 61.0592 77.3852 59.1254 77.3852 56.7472C77.3852 54.3689 75.4494 52.4342 73.0695 52.4342ZM73.0695 63.9783C69.0801 63.9783 65.8374 60.7329 65.8374 56.7472C65.8374 52.7574 69.0801 49.5138 73.0695 49.5138C77.059 49.5138 80.3049 52.7574 80.3049 56.7472C80.3049 60.7329 77.0599 63.9783 73.0695 63.9783Z" fill="#00416B"/>
<path d="M88.5236 55.6386C88.0153 55.4094 87.3712 55.2616 86.6656 55.0845C85.6284 54.827 84.6631 54.7702 84.3013 54.2098C83.9688 53.6945 84.1491 53.0863 84.5979 52.7763C85.6218 52.0721 87.0084 52.3541 87.7752 52.7066C87.908 52.768 88.4748 53.0966 88.4748 53.0966C88.5555 53.1454 88.6518 53.1766 88.7525 53.1766C88.9315 53.1766 89.087 53.0879 89.182 52.9521C89.193 52.9401 90.6454 51.0585 90.6454 51.0585L90.3989 50.8642C90.2541 50.7595 90.055 50.619 89.8411 50.4981C89.4079 50.2493 88.0891 49.4895 86.1656 49.4895C86.1105 49.4895 86.0527 49.4902 85.9932 49.4912C81.7805 49.5908 81.1982 52.565 81.1982 53.6168C81.1982 55.213 82.0201 56.3561 83.2549 57.0704C84.2431 57.6415 86.1131 57.9507 87.0662 58.2378C87.5628 58.3879 87.9303 58.7311 88.0651 59.0666C88.125 59.2158 88.1592 59.3706 88.1651 59.5337C88.1814 60.0802 87.8877 60.7176 87.0689 60.9698C86.1626 61.2482 84.7312 61.1316 83.4359 60.1174C83.393 60.0838 83.2522 59.9688 83.2007 59.9499C83.1403 59.927 83.0761 59.9154 83.0064 59.9154C82.821 59.9154 82.6771 60.015 82.5698 60.1575C82.5502 60.1828 81.1314 62.0129 81.1314 62.0129C81.1314 62.0129 81.6317 62.4278 81.7978 62.5534C82.614 63.167 84.0794 64.0001 86.0035 64.0001H86.0749C90.1268 63.9872 91.0935 61.1103 91.0935 59.5274C91.0935 57.9105 90.1022 56.3468 88.5236 55.6386" fill="#00416B"/>
<path fill-rule="evenodd" clip-rule="evenodd" d="M42.1998 1.47888H60.8012C62.229 1.47888 63.5004 2.15042 64.3172 3.19422L72.7243 13.9533C72.9196 14.2056 73.0369 14.5222 73.0369 14.8664C73.0369 15.2114 72.9197 15.5284 72.723 15.7804L64.3172 26.5383C63.5004 27.5826 62.229 28.2538 60.8012 28.2538H42.1998L52.6596 14.8664L42.1998 1.47888Z" fill="#0083CA"/>
<path fill-rule="evenodd" clip-rule="evenodd" d="M52.6596 14.8664L60.3026 5.08414C60.5982 4.70508 60.7753 4.22819 60.7753 3.71047C60.7753 2.47832 59.7757 1.47922 58.5442 1.47922L42.1998 1.47888L52.6596 14.8664Z" fill="#00416B"/>
<path fill-rule="evenodd" clip-rule="evenodd" d="M48.8937 41.6409H30.292C28.8642 41.6409 27.593 40.9702 26.7761 39.9257L18.3694 29.167C18.174 28.9149 18.0566 28.5981 18.0566 28.2539C18.0566 27.9096 18.174 27.592 18.3707 27.3399L26.7761 16.5816C27.593 15.5377 28.8642 14.8665 30.292 14.8665H48.8937L38.4343 28.2539L48.8937 41.6409V41.6409Z" fill="#0083CA"/>
<path fill-rule="evenodd" clip-rule="evenodd" d="M38.4343 28.2539L30.7915 38.0361C30.4953 38.4148 30.3182 38.8916 30.3182 39.4098C30.3182 40.6419 31.3177 41.6409 32.5497 41.6409H48.8937L38.4343 28.2539Z" fill="#00416B"/>
</g>
<defs>
<clipPath id="clip0_7416_2844">
<rect width="92" height="64" fill="white"/>
</clipPath>
</defs>
</svg>
