<svg width="282" height="43" viewBox="0 0 282 43" fill="none" xmlns="http://www.w3.org/2000/svg">
<g clip-path="url(#clip0_2386_109)">
<path d="M151.084 22.4035C150.487 22.1354 149.734 21.9605 148.905 21.7535C147.323 21.3584 145.927 21.3555 145.918 19.9745C145.915 19.7883 146.09 19.0473 147.065 18.778C147.348 18.7023 147.655 18.6621 147.9 18.6448C147.937 18.6425 148.116 18.6283 148.31 18.6317C148.439 18.6331 148.65 18.6411 148.76 18.651C149.505 18.7196 150.035 18.9061 150.598 19.1828C150.712 19.2349 151.028 19.4212 151.028 19.4212C151.123 19.4779 151.235 19.5156 151.354 19.5156C151.562 19.5156 151.746 19.4138 151.859 19.2545C151.869 19.2381 153.572 17.0336 153.572 17.0336L153.281 16.8048C153.114 16.6818 152.879 16.5185 152.631 16.3754C152.121 16.0825 150.576 15.1925 148.32 15.1925C148.255 15.1925 148.188 15.1936 148.118 15.1936C143.176 15.3112 142.494 18.7978 142.494 20.0332C142.494 21.9043 143.457 23.2463 144.906 24.0813C146.164 24.8084 148.643 25.1792 149.637 25.5349C150.11 25.7064 150.388 26.0296 150.548 26.4245C150.616 26.5971 150.66 26.7779 150.663 26.9687C150.685 27.6122 150.366 28.439 149.378 28.6548C148.942 28.75 148.583 28.7718 148.288 28.773C147.654 28.7772 147.229 28.6774 146.789 28.5451C146.38 28.4257 145.988 28.2426 145.658 28.0354C145.215 27.7587 144.99 27.5515 144.972 27.5354C144.868 27.4583 144.75 27.4203 144.616 27.4203C144.395 27.4203 144.229 27.5342 144.102 27.7015C144.081 27.7329 142.415 29.8773 142.415 29.8773C142.415 29.8773 143.002 30.3646 143.196 30.5131C144.155 31.2309 145.871 32.2083 148.13 32.2083H148.214C152.965 32.1932 154.098 28.8209 154.098 26.9625C154.098 25.0672 152.936 23.2355 151.084 22.4035Z" fill="black"/>
<path d="M98.0206 15.4581C97.204 15.4703 96.5174 15.5714 95.836 15.7781C94.7393 16.112 93.9019 16.7132 93.2681 17.5529C92.2127 18.9452 92.2289 20.6041 92.2289 20.6041V32.1734H95.3181C95.5145 32.1734 95.6772 32.0087 95.6789 31.8111V20.8175C95.6772 20.5976 95.7081 19.837 96.1393 19.4504C96.4823 19.1411 96.9423 18.9931 97.3939 18.9277C97.8917 18.8574 98.3568 18.8897 98.5887 18.9183C98.5887 18.9183 98.6397 18.9234 98.6669 18.9234C98.8929 18.9234 99.0876 18.7998 99.1964 18.6232L100.781 15.898C99.8958 15.5924 99.0198 15.4445 98.0206 15.4581Z" fill="black"/>
<path d="M88.9509 15.4581C88.1334 15.4703 87.444 15.5714 86.7674 15.7781C85.6673 16.112 84.8313 16.7132 84.1955 17.5529C83.1402 18.9452 83.1566 20.6041 83.1566 20.6041V32.1734H86.2481C86.4442 32.1734 86.6069 32.0087 86.6084 31.8111V20.8175C86.6069 20.5976 86.6361 19.837 87.067 19.4504C87.412 19.1411 87.8718 18.9931 88.3219 18.9277C88.8219 18.8574 89.282 18.8897 89.5181 18.9183C89.5181 18.9183 89.5694 18.9234 89.5975 18.9234C89.8211 18.9234 90.0173 18.7998 90.1278 18.6232L91.7107 15.898C90.8266 15.5924 89.9501 15.4445 88.9509 15.4581Z" fill="black"/>
<path d="M62.019 27.8934C61.9 27.738 61.7152 27.6394 61.5062 27.6394C61.3878 27.6394 61.2747 27.6723 61.1794 27.7281L61.1695 27.7352C60.1156 28.3659 58.8808 28.7307 57.5618 28.7307C53.6815 28.7307 50.5243 25.5729 50.5243 21.6909C50.5243 17.8089 53.6815 14.6519 57.5618 14.6519C58.8768 14.6519 60.1088 15.0153 61.1618 15.6451C61.2599 15.7058 61.3793 15.7438 61.5026 15.7438C61.7101 15.7438 61.8926 15.6466 62.0117 15.4969L63.7731 13.213C62.0318 11.9315 59.8854 11.1766 57.5618 11.1766C51.765 11.1766 47.0464 15.8929 47.0464 21.6909C47.0464 27.4889 51.765 32.2049 57.5618 32.2049C59.8854 32.2049 62.0332 31.4503 63.7765 30.1702L62.019 27.8934Z" fill="black"/>
<path d="M108.782 18.5405C111.058 18.5405 112.994 20.0247 113.68 22.0736H103.888C104.571 20.0247 106.505 18.5405 108.782 18.5405ZM108.782 15.2123C104.103 15.2123 100.297 19.0189 100.297 23.7006C100.297 28.3302 104.106 32.14 108.787 32.1879C108.87 32.1879 109.036 32.1898 109.036 32.1898C110.885 32.1898 112.364 31.9381 114.321 30.6679L114.637 30.461C114.637 30.461 112.897 28.208 112.878 28.1839C112.765 28.0323 112.584 27.9353 112.382 27.9353C112.268 27.9353 112.162 27.9668 112.069 28.0204C111.63 28.2503 110.267 28.8628 108.782 28.864C106.544 28.8654 104.634 27.431 103.921 25.432H115.536L116.88 25.4255C117.079 25.4255 117.24 25.2657 117.24 25.0664L117.261 24.0813C117.267 23.9524 117.27 23.8254 117.27 23.7006C117.27 19.0189 113.462 15.2123 108.782 15.2123Z" fill="black"/>
<path d="M119.609 32.206C119.416 32.206 119.257 32.0532 119.251 31.8602V16.1211C119.252 15.9312 119.403 15.7753 119.595 15.7665H122.34C122.539 15.7665 122.698 15.9266 122.698 16.1253V31.8514C122.698 32.0467 122.539 32.206 122.34 32.206H119.609Z" fill="black"/>
<path d="M72.9281 18.494C70.1045 18.494 67.8061 20.7914 67.8061 23.6165C67.8061 26.4395 70.1045 28.7381 72.9281 28.7381C75.7534 28.7381 78.0494 26.4395 78.0494 23.6165C78.0494 20.7914 75.7534 18.494 72.9281 18.494ZM72.9281 32.206C68.1922 32.206 64.3394 28.3523 64.3394 23.6165C64.3394 18.8807 68.1922 15.0249 72.9281 15.0249C77.664 15.0249 81.5219 18.8789 81.5219 23.6165C81.5219 28.3541 77.6656 32.206 72.9281 32.206Z" fill="black"/>
<path d="M132.919 18.6176C130.122 18.6176 127.85 20.8912 127.85 23.6856C127.85 26.48 130.122 28.7537 132.919 28.7537C135.715 28.7537 137.988 26.48 137.988 23.6856C137.988 20.8912 135.714 18.6176 132.919 18.6176ZM132.919 32.1833C128.231 32.1833 124.419 28.3702 124.419 23.6856C124.419 18.9974 128.231 15.1842 132.919 15.1842C137.606 15.1842 141.42 18.9974 141.42 23.6856C141.42 28.3702 137.607 32.1833 132.919 32.1833Z" fill="black"/>
<path d="M32.7451 2.3033C32.7451 1.3897 32.0052 0.650696 31.0931 0.650696L18.9866 0.651896L26.7311 10.5632L32.4588 3.232C32.6399 2.9678 32.7451 2.6491 32.7451 2.3033Z" fill="black"/>
<path d="M42.9885 10.4606V10.4566L36.4368 2.10009C35.8282 1.25539 34.8514 0.698091 33.7405 0.658891V0.650391C33.7405 0.650391 35.5652 1.74549 34.2618 3.39299L28.1781 11.1783L28.1718 11.1684L19.9536 21.6832L32.8232 21.6909L33.7819 21.6571C34.8214 21.6115 35.7443 21.1126 36.3532 20.349L36.3648 20.3413L42.9593 11.9057V11.898C43.1195 11.6945 43.2193 11.4414 43.2193 11.163C43.2193 10.8997 43.1325 10.6599 42.9885 10.4606Z" fill="black"/>
<path d="M10.4741 30.5812C10.4741 31.4945 11.2151 32.2355 12.1276 32.2355L24.2338 32.2332L16.4895 22.3233L10.7616 29.6526C10.581 29.9173 10.4741 30.2362 10.4741 30.5812Z" fill="black"/>
<path d="M0.2313 22.4228V22.4293L6.7839 30.7853C7.3922 31.6311 8.369 32.1879 9.4796 32.2247V32.2355C9.4796 32.2355 7.6541 31.1399 8.9586 29.4924L8.9575 29.491L15.0421 21.707L15.0497 21.7167L23.2662 11.2007L10.3972 11.195L9.4371 11.2282C8.3971 11.2727 7.4753 11.7727 6.8664 12.5367L6.8567 12.5421L0.2611 20.9783V20.9856C0.1006 21.1897 0 21.442 0 21.7232C0 21.9846 0.0882 22.2263 0.2313 22.4228Z" fill="black"/>
<path d="M198.166 39.4627C198.166 39.5925 198.157 39.7147 198.139 39.8292C198.12 39.9437 198.088 40.0549 198.042 40.1623C197.997 40.27 197.939 40.3624 197.87 40.4398C197.8 40.5172 197.71 40.5793 197.601 40.626C197.491 40.6725 197.365 40.696 197.224 40.696C197.085 40.696 196.961 40.6731 196.852 40.6272C196.743 40.5812 196.654 40.5203 196.584 40.4446C196.515 40.3686 196.456 40.2771 196.41 40.1694C196.364 40.0619 196.33 39.9503 196.312 39.834C196.293 39.7178 196.283 39.5939 196.283 39.4627V37.7151H195.738V39.4627C195.738 39.6478 195.754 39.8221 195.786 39.9857C195.819 40.1492 195.872 40.3057 195.946 40.4551C196.021 40.6045 196.114 40.7323 196.226 40.8381C196.339 40.9441 196.479 41.0288 196.65 41.092C196.819 41.1553 197.011 41.1867 197.224 41.1867C197.482 41.1867 197.709 41.1417 197.904 41.0518C198.099 40.9617 198.255 40.8364 198.371 40.6759C198.487 40.5152 198.574 40.3335 198.631 40.1303C198.688 39.9273 198.716 39.7048 198.716 39.4627V37.7151H198.166V39.4627ZM202.811 40.2074L200.857 37.7151H200.411V41.1632H200.954V38.7251L202.882 41.1632H203.358V37.7197H202.811V40.2074ZM205.105 41.1632H205.648V37.7151H205.105V41.1632ZM208.393 37.7151L207.042 41.1632H207.62L207.981 40.2263H209.311L209.674 41.1632H210.248L208.908 37.7151H208.393ZM208.078 39.8233L208.649 38.3127L209.204 39.8233H208.078ZM208.099 37.2562C208.104 37.2364 208.113 37.2111 208.128 37.1802C208.142 37.1496 208.166 37.1235 208.201 37.102C208.236 37.0807 208.279 37.07 208.329 37.07C208.386 37.07 208.447 37.0873 208.511 37.1221C208.575 37.157 208.645 37.1919 208.72 37.2264C208.796 37.2613 208.876 37.2789 208.96 37.2789C209.041 37.2789 209.115 37.2619 209.182 37.2279C209.249 37.1938 209.302 37.153 209.342 37.1057C209.381 37.0583 209.415 37.0068 209.443 36.9515C209.47 36.8962 209.489 36.8489 209.499 36.8092C209.51 36.7698 209.515 36.7397 209.515 36.719H209.209C209.209 36.727 209.208 36.738 209.206 36.7522C209.203 36.7667 209.196 36.7859 209.185 36.8103C209.174 36.835 209.16 36.8574 209.141 36.8781C209.123 36.8988 209.097 36.9166 209.063 36.9325C209.029 36.9484 208.99 36.9563 208.946 36.9563C208.881 36.9563 208.815 36.9384 208.749 36.9027C208.683 36.8673 208.613 36.8319 208.54 36.7961C208.467 36.7607 208.391 36.7429 208.31 36.7429C208.234 36.7429 208.165 36.759 208.103 36.7913C208.04 36.8239 207.99 36.8633 207.953 36.9101C207.916 36.9569 207.885 37.0073 207.859 37.0617C207.832 37.1165 207.815 37.1641 207.805 37.2052C207.796 37.2463 207.791 37.2789 207.791 37.3024H208.092C208.092 37.2914 208.094 37.276 208.099 37.2562ZM214.151 38.2427C214.011 38.0774 213.836 37.9445 213.628 37.8433C213.419 37.7421 213.195 37.6913 212.956 37.6913C212.724 37.6913 212.505 37.7395 212.297 37.8359C212.09 37.9326 211.914 38.0607 211.768 38.2203C211.623 38.3799 211.508 38.5661 211.423 38.7787C211.339 38.9913 211.296 39.2115 211.296 39.4392C211.296 39.6146 211.322 39.7881 211.372 39.9596C211.423 40.1311 211.497 40.2904 211.594 40.4375C211.691 40.5846 211.806 40.7142 211.938 40.8264C212.07 40.9387 212.223 41.0266 212.397 41.0909C212.571 41.1547 212.754 41.1867 212.947 41.1867C213.179 41.1867 213.399 41.1391 213.606 41.0433C213.813 40.9478 213.989 40.8199 214.133 40.6603C214.276 40.5007 214.391 40.3148 214.475 40.103C214.56 39.8913 214.602 39.6716 214.602 39.4437C214.602 39.2271 214.562 39.0143 214.481 38.8048C214.401 38.5953 214.29 38.4079 214.151 38.2427ZM213.97 39.8967C213.92 40.0455 213.85 40.1793 213.76 40.2986C213.67 40.418 213.555 40.5141 213.414 40.5869C213.274 40.6595 213.119 40.696 212.952 40.696C212.734 40.696 212.539 40.636 212.368 40.5158C212.198 40.3956 212.069 40.2405 211.981 40.0509C211.893 39.8612 211.849 39.6571 211.849 39.4392C211.849 39.2827 211.874 39.1299 211.925 38.9814C211.976 38.8328 212.047 38.6993 212.138 38.5806C212.23 38.4621 212.347 38.3668 212.488 38.2948C212.63 38.2228 212.784 38.1871 212.952 38.1871C213.113 38.1871 213.263 38.2214 213.401 38.29C213.539 38.3589 213.655 38.4513 213.748 38.5675C213.84 38.6837 213.913 38.8175 213.966 38.9683C214.019 39.1194 214.045 39.2762 214.045 39.4392C214.045 39.5956 214.02 39.7481 213.97 39.8967ZM218.845 39.6288H220.384V39.1758H218.845V38.1965H220.624V37.7151H218.302V41.1632H220.666V40.6816H218.845V39.6288ZM226.747 39.4712C226.87 39.2821 226.932 39.0707 226.932 38.8368C226.932 38.6993 226.905 38.5633 226.851 38.4289C226.797 38.2945 226.725 38.1743 226.633 38.0683C226.541 37.9626 226.428 37.8773 226.293 37.8124C226.158 37.7474 226.015 37.7151 225.865 37.7151H224.364V41.1632H224.906V39.963H225.708L226.457 41.1632H227.069L226.258 39.8516C226.461 39.787 226.623 39.66 226.747 39.4712ZM225.86 39.4817H224.906V38.1965H225.829C225.975 38.1965 226.103 38.2594 226.213 38.385C226.324 38.5108 226.379 38.6613 226.379 38.8368C226.379 39.0154 226.33 39.1676 226.232 39.2932C226.134 39.419 226.01 39.4817 225.86 39.4817ZM229.086 39.6288H230.625V39.1758H229.086V38.1965H230.865V37.7151H228.543V41.1632H230.908V40.6816H229.086V39.6288ZM234.494 40.4577C234.389 40.5452 234.28 40.6079 234.167 40.645C234.054 40.6822 233.938 40.7006 233.819 40.7006C233.611 40.7006 233.42 40.6419 233.248 40.524C233.076 40.4063 232.942 40.251 232.848 40.058C232.754 39.8652 232.707 39.6571 232.707 39.4343C232.707 39.3127 232.722 39.1926 232.751 39.0741C232.78 38.9553 232.826 38.8422 232.887 38.7348C232.949 38.6273 233.023 38.5332 233.108 38.4527C233.193 38.3719 233.296 38.3076 233.416 38.2594C233.536 38.2112 233.666 38.1871 233.805 38.1871C233.892 38.1871 233.977 38.1965 234.06 38.2154C234.143 38.2344 234.226 38.2639 234.308 38.3045C234.39 38.3447 234.466 38.4014 234.535 38.4751C234.605 38.5485 234.663 38.6353 234.709 38.7348L235.136 38.4479C235.02 38.2203 234.848 38.038 234.62 37.9014C234.391 37.7645 234.126 37.6961 233.824 37.6961C233.62 37.6961 233.428 37.729 233.248 37.7945C233.068 37.86 232.912 37.949 232.781 38.0612C232.65 38.1735 232.536 38.3028 232.44 38.449C232.345 38.5953 232.273 38.7509 232.226 38.9162C232.178 39.0814 232.155 39.2478 232.155 39.4154C232.155 39.6336 232.196 39.8491 232.278 40.0617C232.36 40.2743 232.472 40.4645 232.614 40.632C232.755 40.7995 232.93 40.9347 233.138 41.0373C233.345 41.1402 233.567 41.1915 233.8 41.1915C233.985 41.1915 234.17 41.1615 234.353 41.1014C234.536 41.0413 234.705 40.9489 234.858 40.8239C235.011 40.6992 235.122 40.5546 235.19 40.3899L234.737 40.1339C234.68 40.2618 234.599 40.3698 234.494 40.4577ZM239.256 38.2427C239.116 38.0774 238.942 37.9445 238.733 37.8433C238.525 37.7421 238.301 37.6913 238.062 37.6913C237.83 37.6913 237.61 37.7395 237.403 37.8359C237.196 37.9326 237.02 38.0607 236.874 38.2203C236.729 38.3799 236.614 38.5661 236.529 38.7787C236.445 38.9913 236.402 39.2115 236.402 39.4392C236.402 39.6146 236.428 39.7881 236.478 39.9596C236.529 40.1311 236.603 40.2904 236.7 40.4375C236.797 40.5846 236.912 40.7142 237.044 40.8264C237.176 40.9387 237.329 41.0266 237.502 41.0909C237.676 41.1547 237.86 41.1867 238.053 41.1867C238.285 41.1867 238.505 41.1391 238.712 41.0433C238.919 40.9478 239.094 40.8199 239.239 40.6603C239.382 40.5007 239.497 40.3148 239.581 40.103C239.666 39.8913 239.708 39.6716 239.708 39.4437C239.708 39.2271 239.668 39.0143 239.587 38.8048C239.507 38.5953 239.396 38.4079 239.256 38.2427ZM239.076 39.8967C239.026 40.0455 238.956 40.1793 238.866 40.2986C238.776 40.418 238.661 40.5141 238.52 40.5869C238.379 40.6595 238.225 40.696 238.057 40.696C237.839 40.696 237.645 40.636 237.474 40.5158C237.303 40.3956 237.174 40.2405 237.087 40.0509C236.999 39.8612 236.955 39.6571 236.955 39.4392C236.955 39.2827 236.98 39.1299 237.031 38.9814C237.081 38.8328 237.152 38.6993 237.244 38.5806C237.336 38.4621 237.452 38.3668 237.594 38.2948C237.735 38.2228 237.89 38.1871 238.057 38.1871C238.219 38.1871 238.368 38.2214 238.507 38.29C238.645 38.3589 238.76 38.4513 238.853 38.5675C238.946 38.6837 239.018 38.8175 239.071 38.9683C239.124 39.1194 239.151 39.2762 239.151 39.4392C239.151 39.5956 239.126 39.7481 239.076 39.8967ZM243.643 40.2074L241.689 37.7151H241.244V41.1632H241.787V38.7251L243.715 41.1632H244.191V37.7197H243.643V40.2074ZM248.165 39.6325C248.105 39.5653 248.025 39.5044 247.925 39.4497C247.826 39.3952 247.722 39.3502 247.615 39.3144C247.507 39.279 247.377 39.243 247.226 39.2067C247.131 39.1829 247.054 39.1636 246.996 39.1486C246.937 39.1336 246.874 39.1154 246.807 39.0942C246.74 39.0726 246.687 39.0525 246.648 39.0335C246.61 39.0145 246.57 38.9916 246.531 38.9649C246.491 38.938 246.462 38.9099 246.442 38.8807C246.422 38.8513 246.406 38.8178 246.393 38.7798C246.381 38.7418 246.374 38.6993 246.374 38.6517C246.374 38.5 246.43 38.3827 246.542 38.2996C246.653 38.2166 246.821 38.1752 247.045 38.1752C247.235 38.1752 247.419 38.2132 247.598 38.2889C247.777 38.3648 247.903 38.4439 247.977 38.5261L248.224 38.0802C247.872 37.8209 247.484 37.6913 247.06 37.6913C246.881 37.6913 246.716 37.7143 246.564 37.7602C246.412 37.8058 246.28 37.8725 246.168 37.9595C246.056 38.0462 245.968 38.1568 245.903 38.29C245.84 38.4238 245.807 38.5735 245.807 38.7396C245.807 38.8722 245.828 38.9873 245.869 39.0846C245.91 39.1818 245.976 39.266 246.067 39.3371C246.158 39.4083 246.263 39.4684 246.381 39.5174C246.5 39.5664 246.65 39.6146 246.832 39.662C246.949 39.692 247.042 39.7164 247.111 39.7354C247.179 39.7544 247.255 39.7782 247.338 39.8065C247.421 39.8352 247.485 39.8629 247.531 39.8896C247.576 39.9165 247.619 39.9486 247.662 39.9857C247.705 40.0228 247.735 40.0642 247.752 40.1101C247.77 40.156 247.778 40.2074 247.778 40.2643C247.778 40.4066 247.72 40.5158 247.604 40.5914C247.488 40.6674 247.322 40.7054 247.107 40.7054C246.868 40.7054 246.637 40.6575 246.411 40.562C246.186 40.4662 246.023 40.3672 245.924 40.2643L245.675 40.7315C245.871 40.8817 246.091 40.9965 246.336 41.0765C246.581 41.1564 246.835 41.1961 247.098 41.1961C247.24 41.1961 247.373 41.1847 247.496 41.1618C247.619 41.1391 247.735 41.102 247.842 41.0504C247.95 40.9991 248.041 40.9353 248.117 40.8596C248.193 40.7836 248.253 40.6904 248.296 40.5798C248.34 40.469 248.362 40.3448 248.362 40.2074C248.362 40.084 248.344 39.9743 248.308 39.8777C248.273 39.7813 248.225 39.6997 248.165 39.6325ZM249.56 38.1965H250.71V41.1632H251.261V38.1965H252.406V37.7151H249.56V38.1965ZM256.221 39.4712C256.344 39.2821 256.406 39.0707 256.406 38.8368C256.406 38.6993 256.379 38.5633 256.325 38.4289C256.271 38.2945 256.199 38.1743 256.107 38.0683C256.015 37.9626 255.902 37.8773 255.767 37.8124C255.631 37.7474 255.489 37.7151 255.339 37.7151H253.838V41.1632H254.38V39.963H255.182L255.932 41.1632H256.543L255.732 39.8516C255.935 39.787 256.097 39.66 256.221 39.4712ZM255.334 39.4817H254.38V38.1965H255.303C255.449 38.1965 255.577 38.2594 255.687 38.385C255.798 38.5108 255.853 38.6613 255.853 38.8368C255.853 39.0154 255.804 39.1676 255.706 39.2932C255.608 39.419 255.484 39.4817 255.334 39.4817ZM260.391 39.4627C260.391 39.5925 260.382 39.7147 260.364 39.8292C260.345 39.9437 260.313 40.0549 260.267 40.1623C260.222 40.27 260.164 40.3624 260.095 40.4398C260.025 40.5172 259.935 40.5793 259.825 40.626C259.716 40.6725 259.59 40.696 259.449 40.696C259.311 40.696 259.186 40.6731 259.077 40.6272C258.968 40.5812 258.879 40.5203 258.809 40.4446C258.74 40.3686 258.681 40.2771 258.635 40.1694C258.589 40.0619 258.555 39.9503 258.537 39.834C258.518 39.7178 258.508 39.5939 258.508 39.4627V37.7151H257.963V39.4627C257.963 39.6478 257.979 39.8221 258.011 39.9857C258.044 40.1492 258.097 40.3057 258.171 40.4551C258.246 40.6045 258.339 40.7323 258.451 40.8381C258.563 40.9441 258.704 41.0288 258.875 41.092C259.044 41.1553 259.236 41.1867 259.449 41.1867C259.707 41.1867 259.934 41.1417 260.129 41.0518C260.324 40.9617 260.48 40.8364 260.596 40.6759C260.712 40.5152 260.799 40.3335 260.856 40.1303C260.913 39.9273 260.941 39.7048 260.941 39.4627V37.7151H260.391V39.4627ZM264.757 40.4577C264.652 40.5452 264.543 40.6079 264.43 40.645C264.316 40.6822 264.201 40.7006 264.082 40.7006C263.874 40.7006 263.683 40.6419 263.511 40.524C263.339 40.4063 263.205 40.251 263.111 40.058C263.017 39.8652 262.97 39.6571 262.97 39.4343C262.97 39.3127 262.985 39.1926 263.014 39.0741C263.043 38.9553 263.089 38.8422 263.15 38.7348C263.212 38.6273 263.286 38.5332 263.371 38.4527C263.456 38.3719 263.559 38.3076 263.679 38.2594C263.799 38.2112 263.929 38.1871 264.068 38.1871C264.155 38.1871 264.24 38.1965 264.323 38.2154C264.406 38.2344 264.489 38.2639 264.571 38.3045C264.653 38.3447 264.729 38.4014 264.798 38.4751C264.868 38.5485 264.926 38.6353 264.972 38.7348L265.398 38.4479C265.283 38.2203 265.111 38.038 264.883 37.9014C264.654 37.7645 264.389 37.6961 264.087 37.6961C263.883 37.6961 263.691 37.729 263.511 37.7945C263.33 37.86 263.175 37.949 263.043 38.0612C262.912 38.1735 262.799 38.3028 262.703 38.449C262.608 38.5953 262.536 38.7509 262.489 38.9162C262.441 39.0814 262.418 39.2478 262.418 39.4154C262.418 39.624 262.455 39.8303 262.53 40.0342C262.605 40.2383 262.708 40.4225 262.84 40.5869C262.971 40.7513 263.132 40.888 263.325 40.9971C263.517 41.1062 263.723 41.1694 263.942 41.1867C264.116 41.3007 264.203 41.4209 264.203 41.5473C264.203 41.6216 264.178 41.678 264.126 41.7168C264.075 41.7554 264.003 41.7749 263.911 41.7749C263.806 41.7749 263.691 41.7409 263.568 41.6729L263.433 41.9597C263.614 42.053 263.805 42.0998 264.004 42.0998C264.172 42.0998 264.302 42.0587 264.395 41.9765C264.489 41.8943 264.535 41.7834 264.535 41.6445C264.535 41.4722 264.452 41.3163 264.286 41.1774C264.542 41.1408 264.779 41.0538 264.995 40.9152C265.212 40.7771 265.364 40.6017 265.453 40.3899L265 40.1339C264.943 40.2618 264.862 40.3698 264.757 40.4577ZM267.874 37.7151L266.523 41.1632H267.101L267.462 40.2263H268.792L269.155 41.1632H269.729L268.389 37.7151H267.874ZM267.559 39.8233L268.131 38.3127L268.685 39.8233H267.559ZM267.58 37.2562C267.585 37.2364 267.594 37.2111 267.609 37.1802C267.623 37.1496 267.647 37.1235 267.682 37.102C267.717 37.0807 267.76 37.07 267.81 37.07C267.867 37.07 267.928 37.0873 267.992 37.1221C268.056 37.157 268.126 37.1919 268.202 37.2264C268.278 37.2613 268.357 37.2789 268.441 37.2789C268.522 37.2789 268.596 37.2619 268.663 37.2279C268.73 37.1938 268.783 37.153 268.823 37.1057C268.862 37.0583 268.896 37.0068 268.924 36.9515C268.951 36.8962 268.97 36.8489 268.981 36.8092C268.991 36.7698 268.996 36.7397 268.996 36.719H268.69C268.69 36.727 268.689 36.738 268.687 36.7522C268.684 36.7667 268.677 36.7859 268.667 36.8103C268.655 36.835 268.641 36.8574 268.623 36.8781C268.604 36.8988 268.578 36.9166 268.544 36.9325C268.51 36.9484 268.471 36.9563 268.427 36.9563C268.362 36.9563 268.297 36.9384 268.23 36.9027C268.164 36.8673 268.094 36.8319 268.021 36.7961C267.949 36.7607 267.872 36.7429 267.791 36.7429C267.716 36.7429 267.646 36.759 267.584 36.7913C267.521 36.8239 267.471 36.8633 267.435 36.9101C267.397 36.9569 267.366 37.0073 267.34 37.0617C267.314 37.1165 267.296 37.1641 267.286 37.2052C267.277 37.2463 267.272 37.2789 267.272 37.3024H267.573C267.573 37.2914 267.575 37.276 267.58 37.2562ZM273.963 38.8048C273.882 38.5953 273.772 38.4079 273.632 38.2427C273.492 38.0774 273.317 37.9445 273.109 37.8433C272.9 37.7421 272.676 37.6913 272.438 37.6913C272.205 37.6913 271.985 37.7395 271.778 37.8359C271.571 37.9326 271.395 38.0607 271.249 38.2203C271.104 38.3799 270.989 38.5661 270.904 38.7787C270.82 38.9913 270.777 39.2115 270.777 39.4392C270.777 39.6146 270.803 39.7881 270.853 39.9596C270.904 40.1311 270.978 40.2904 271.075 40.4375C271.172 40.5846 271.287 40.7142 271.419 40.8264C271.551 40.9387 271.704 41.0266 271.878 41.0909C272.052 41.1547 272.235 41.1867 272.428 41.1867C272.661 41.1867 272.88 41.1391 273.087 41.0433C273.294 40.9478 273.47 40.8199 273.614 40.6603C273.758 40.5007 273.872 40.3148 273.957 40.103C274.041 39.8913 274.083 39.6716 274.083 39.4437C274.083 39.2271 274.043 39.0143 273.963 38.8048ZM273.451 39.8967C273.402 40.0455 273.332 40.1793 273.241 40.2986C273.151 40.418 273.036 40.5141 272.895 40.5869C272.755 40.6595 272.6 40.696 272.433 40.696C272.215 40.696 272.02 40.636 271.85 40.5158C271.679 40.3956 271.549 40.2405 271.462 40.0509C271.374 39.8612 271.33 39.6571 271.33 39.4392C271.33 39.2827 271.355 39.1299 271.406 38.9814C271.457 38.8328 271.528 38.6993 271.62 38.5806C271.711 38.4621 271.828 38.3668 271.969 38.2948C272.111 38.2228 272.265 38.1871 272.433 38.1871C272.594 38.1871 272.744 38.2214 272.882 38.29C273.021 38.3589 273.136 38.4513 273.228 38.5675C273.321 38.6837 273.394 38.8175 273.447 38.9683C273.499 39.1194 273.526 39.2762 273.526 39.4392C273.526 39.5956 273.501 39.7481 273.451 39.8967Z" fill="black"/>
<path d="M197.655 2.9362L198.837 2.936C198.734 3.2203 198.437 3.4529 197.972 3.4529C197.307 3.4529 196.848 2.9751 196.848 2.3167C196.848 1.6451 197.306 1.1478 197.952 1.1478C198.365 1.1478 198.721 1.3479 198.914 1.6965L199.921 1.096C199.514 0.4181 198.772 0.00490003 197.965 0.00500003C196.686 0.00520003 195.666 1.0255 195.666 2.3104C195.667 3.5953 196.68 4.6026 197.972 4.6025C199.186 4.6023 200.103 3.711 200.103 2.3422V2L197.655 2.0003L197.655 2.9362ZM204.034 0.00400003C202.749 0.00420003 201.729 1.0245 201.729 2.3029C201.729 3.5813 202.749 4.6016 204.035 4.6015C205.307 4.6013 206.327 3.5807 206.326 2.3023C206.326 1.0239 205.306 0.00380003 204.034 0.00400003ZM204.035 3.3874C203.447 3.3874 202.995 2.9227 202.995 2.3028C202.995 1.6829 203.447 1.2179 204.034 1.2178C204.609 1.2178 205.055 1.6826 205.055 2.3025C205.055 2.9224 204.609 3.3874 204.035 3.3874ZM209.735 2.8121L208.715 0.1065L207.443 0.1067L209.142 4.4976L210.323 4.4974L212.04 0.1061L210.768 0.1063L209.735 2.8121ZM213.583 4.4969L216.728 4.4965L216.728 3.4245L214.772 3.4248V2.7725L216.063 2.7723V1.8298L214.771 1.83V1.1778L216.728 1.1775L216.727 0.1054L213.583 0.1058L213.583 4.4969ZM222.196 1.5318C222.196 0.718 221.538 0.1047 220.679 0.1048L218.555 0.1051L218.555 4.4962L219.724 4.496L219.723 2.9784H220.221L221.093 4.4958L222.403 4.4956L221.428 2.8037C221.893 2.5582 222.196 2.0934 222.196 1.5318ZM220.55 1.9774H219.723L219.723 1.1577H220.55C220.834 1.1575 221.002 1.3511 221.002 1.5708C221.002 1.7836 220.828 1.9773 220.55 1.9774ZM226.8 2.4221L225.024 0.1041H224.03L224.03 4.4953L225.199 4.4951L225.199 2.1832L226.968 4.4949H227.969L227.968 0.1037L226.8 0.1039L226.8 2.4221ZM231.978 2.94038e-08C230.693 0.000200029 229.672 1.0205 229.673 2.2989C229.673 3.5773 230.693 4.5976 231.978 4.5975C233.25 4.5973 234.27 3.5767 234.27 2.2983C234.27 1.0199 233.25 -0.000199971 231.978 2.94038e-08ZM231.978 3.3834C231.391 3.3834 230.938 2.9187 230.938 2.2988C230.938 1.6789 231.39 1.2139 231.978 1.2138C232.552 1.2138 232.998 1.6786 232.998 2.2985C232.998 2.9184 232.553 3.3834 231.978 3.3834ZM238.88 4.4931L240.068 4.4929L240.068 2.8916L241.36 2.8914V1.897L240.068 1.8972V1.1545L242.025 1.1542V0.1018L238.88 0.1022L238.88 4.4931ZM243.8 4.4926L246.945 4.4922L246.945 3.4202L244.988 3.4205V2.7682L246.279 2.768V1.8255L244.988 1.8257V1.1735L246.944 1.1732L246.944 0.1011L243.8 0.1015L243.8 4.4926ZM250.56 0.1006L248.771 0.1009L248.772 4.492L250.56 4.4917C251.897 4.4915 252.904 3.5549 252.904 2.2957C252.903 1.0365 251.896 0.1004 250.56 0.1006ZM250.502 3.3485H249.966L249.966 1.2436H250.501C251.199 1.2434 251.677 1.6567 251.677 2.2959C251.677 2.9351 251.199 3.3484 250.502 3.3485ZM254.608 4.4911L257.753 4.4907L257.753 3.4187L255.796 3.419V2.7667L257.088 2.7665V1.824L255.796 1.8242V1.172L257.752 1.1717L257.752 0.0996L254.607 0.1L254.608 4.4911ZM263.221 1.526C263.221 0.7122 262.562 0.0989 261.703 0.099L259.579 0.0993L259.58 4.4904L260.749 4.4902L260.748 2.9726H261.246L262.117 4.49L263.428 4.4898L262.453 2.7979C262.918 2.5524 263.221 2.0876 263.221 1.526ZM261.575 1.9716H260.748L260.748 1.1519H261.574C261.859 1.1517 262.027 1.3453 262.027 1.565C262.027 1.7778 261.852 1.9715 261.575 1.9716ZM266.559 0.0983L264.726 4.4897L265.959 4.4895L266.262 3.7338L267.999 3.7336L268.309 4.4892L269.536 4.489L267.682 0.0982L266.559 0.0983ZM266.688 2.6877L267.127 1.6093L267.566 2.6875L266.688 2.6877ZM272.325 3.3586L272.324 0.0976L271.078 0.0978L271.079 4.4889L274.172 4.4885L274.172 3.3584L272.325 3.3586Z" fill="black"/>
<path d="M239.48 25.5904L243.395 32.1704L246.63 32.1699L246.628 19.7329L239.479 19.7339L239.48 25.5904ZM249.475 17.864L247.038 17.8643L247.04 32.1699L249.477 32.1696C253.42 32.169 256.629 28.9598 256.628 25.0157C256.628 21.0716 253.418 17.8635 249.475 17.864ZM244.411 19.3228L246.628 19.3225L246.626 9.45542L244.411 9.45572C241.691 9.45612 239.478 11.6697 239.479 14.3901C239.479 17.1105 241.692 19.3224 244.411 19.3228ZM205.321 9.94852L205.323 23.0176L213.814 23.0164L205.321 9.94852ZM266.383 24.3999L273.969 24.3988L273.967 9.45142L266.381 9.45252L266.383 24.3999ZM255.277 9.45412L247.037 9.45532L247.038 17.4541L255.278 17.4529L255.277 9.45412ZM274.38 32.166L281.966 32.1649L281.965 24.8081L274.379 24.8092L274.38 32.166ZM266.384 32.1671L273.97 32.166L273.969 24.8092L266.383 24.8103L266.384 32.1671ZM257.039 32.1684L264.625 32.1673L264.622 9.45272L257.036 9.45382L257.039 32.1684ZM239.481 32.1709L242.917 32.1704L239.48 26.3928L239.481 32.1709ZM201.85 13.8956C201.85 11.4507 199.86 9.46192 197.415 9.46222L195.769 9.46242L195.77 18.3306L197.417 18.3304C199.862 18.3301 201.851 16.3407 201.85 13.8956ZM187.775 18.3318L195.36 18.3307L195.359 9.46252L187.773 9.46362L187.775 18.3318ZM187.777 32.1782L195.362 32.1771L195.36 18.7409L187.775 18.742L187.777 32.1782ZM198.194 18.7405L195.77 18.7408L195.772 32.177L198.196 32.1767C201.9 32.1762 204.913 29.162 204.913 25.4577C204.912 21.7534 201.898 18.7399 198.194 18.7405ZM217.87 29.2508L216.132 32.1741L219.771 32.1736L217.87 29.2508ZM218.104 28.8568L220.261 32.1736H220.886C220.939 29.9185 221.856 27.8046 223.471 26.2168C225.098 24.6175 227.248 23.7365 229.524 23.7361C231.799 23.7357 233.949 24.6162 235.577 26.215C237.193 27.8024 238.11 29.916 238.163 32.171H239.071L239.07 25.7031L229.522 9.65392L218.104 28.8568ZM220.969 16.2371C220.969 12.4996 217.928 9.45932 214.19 9.45982L205.494 9.46102L214.303 23.0154C217.981 22.9556 220.97 19.9196 220.969 16.2371ZM229.524 24.1463C227.357 24.1466 225.31 24.9851 223.76 26.5072C222.223 28.0174 221.348 30.0281 221.296 32.1734L237.753 32.1711C237.7 30.0258 236.825 28.0153 235.287 26.5056C233.737 24.9839 231.69 24.146 229.524 24.1463ZM214.081 23.4265L205.323 23.4277L205.324 32.1757L215.655 32.1742L217.62 28.8676L214.081 23.4265Z" fill="black"/>
</g>
<defs>
<clipPath id="clip0_2386_109">
<rect width="281.966" height="42.0998" fill="white"/>
</clipPath>
</defs>
</svg>
