<svg width="190" height="182" viewBox="0 0 190 182" fill="none" xmlns="http://www.w3.org/2000/svg">
<path d="M133.469 41.4273C133.469 38.2523 130.871 35.6848 127.668 35.6848H85.1677L112.358 70.1242L132.462 44.6567C133.097 43.7344 133.469 42.6251 133.469 41.4273Z" fill="#D1CCC7"/>
<path d="M169.147 69.9122V69.8966L146.246 40.7402C144.122 37.7957 140.704 35.8505 136.826 35.7152V35.6848C136.826 35.6848 143.203 39.4996 138.644 45.251H138.648L117.386 72.4102L117.359 72.3761L88.6426 109.067L133.614 109.086L136.972 108.973C140.614 108.816 143.832 107.074 145.956 104.407L145.999 104.387L169.041 74.9552V74.9239C169.603 74.2169 169.955 73.3303 169.955 72.3555C169.955 71.4385 169.65 70.6012 169.147 69.9122Z" fill="#D1CCC7"/>
<path d="M55.6313 140.218C55.6313 143.39 58.2274 145.96 61.4335 145.96L103.932 145.958L76.7463 111.521L56.6346 136.986H56.6364C55.9982 137.911 55.6313 139.017 55.6313 140.218Z" fill="#D1CCC7"/>
<path d="M19.9565 111.73V111.749L42.8522 140.905C44.9764 143.848 48.3924 145.792 52.2755 145.93V145.96C52.2755 145.96 45.893 142.143 50.4543 136.392L71.7138 109.232L71.7373 109.266L100.457 72.5777L55.4842 72.5593L52.1298 72.673C48.4879 72.8271 45.2664 74.5717 43.146 77.2364L43.1031 77.2579L20.0602 106.69V106.718C19.4977 107.429 19.1445 108.312 19.1445 109.288C19.1445 110.205 19.4539 111.041 19.9565 111.73Z" fill="#D1CCC7"/>
</svg>
