<svg width="147" height="32" viewBox="0 0 147 32" fill="none" xmlns="http://www.w3.org/2000/svg">
<path fill-rule="evenodd" clip-rule="evenodd" d="M18.9348 1.02466H32.685C33.7411 1.02466 34.6806 1.52114 35.2847 2.29281L41.4991 10.2465C41.6441 10.4327 41.7303 10.6669 41.7303 10.9214C41.7303 11.1761 41.6441 11.4104 41.4983 11.5969L35.2847 19.55C34.6806 20.3217 33.7411 20.8177 32.685 20.8177H18.9348L26.6668 10.9214L18.9348 1.02466Z" fill="#FFD400"/>
<path fill-rule="evenodd" clip-rule="evenodd" d="M26.6668 10.9214L32.3162 3.68972C32.5351 3.40992 32.6661 3.05715 32.6661 2.67419C32.6661 1.76341 31.9273 1.02479 31.017 1.02479L18.9348 1.02466L26.6668 10.9214Z" fill="#CD992B"/>
<path fill-rule="evenodd" clip-rule="evenodd" d="M23.8825 30.7143H10.1318C9.07576 30.7143 8.13587 30.2179 7.53207 29.4463L1.31802 21.4927C1.1732 21.3067 1.08685 21.0724 1.08685 20.8177C1.08685 20.563 1.17336 20.3283 1.31867 20.142L7.53207 12.1892C8.13587 11.4174 9.07576 10.9214 10.1318 10.9214H23.8825L16.1507 20.8177L23.8825 30.7143V30.7143Z" fill="#FFD400"/>
<path fill-rule="evenodd" clip-rule="evenodd" d="M23.8825 30.7143H10.1318C9.07576 30.7143 8.13587 30.2179 7.53207 29.4463L1.31802 21.4927C1.1732 21.3067 1.08685 21.0724 1.08685 20.8177C1.08685 20.563 1.17336 20.3283 1.31867 20.142L7.53207 12.1892C8.13587 11.4174 9.07576 10.9214 10.1318 10.9214H23.8825L16.1507 20.8177L23.8825 30.7143V30.7143Z" fill="#FFD400"/>
<path fill-rule="evenodd" clip-rule="evenodd" d="M16.1506 20.8176L10.5006 28.0495C10.2819 28.329 10.1514 28.6816 10.1514 29.0647C10.1514 29.9756 10.8898 30.7142 11.8006 30.7142H23.8825L16.1506 20.8176V20.8176Z" fill="#CD992B"/>
<path d="M93.3022 14.9502C92.5331 14.9605 91.8864 15.0576 91.2464 15.2505C90.2136 15.5657 89.4251 16.1327 88.8296 16.9215C87.8357 18.2327 87.8506 19.7929 87.8506 19.7929V30.6818H90.7599C90.944 30.6818 91.0972 30.5276 91.0982 30.3426V19.9926C91.0972 19.7875 91.1258 19.0718 91.5319 18.7078C91.8536 18.4187 92.2892 18.2779 92.7121 18.2156C93.1801 18.1494 93.6183 18.18 93.8374 18.2083C93.8374 18.2083 93.8857 18.2117 93.9108 18.2117C94.1222 18.2117 94.3066 18.096 94.4087 17.9275L95.9015 15.3634C95.0688 15.0759 94.2408 14.937 93.3022 14.9502" fill="#FFD400"/>
<path d="M84.7649 14.9502C83.9964 14.9605 83.3481 15.0576 82.7106 15.2505C81.6753 15.5657 80.8878 16.1327 80.2903 16.9215C79.2961 18.2327 79.3126 19.7929 79.3126 19.7929V30.6818H82.2232C82.4073 30.6818 82.5592 30.5276 82.5605 30.3426V19.9926C82.5592 19.7875 82.5888 19.0718 82.9926 18.7078C83.3153 18.4187 83.7497 18.2779 84.1745 18.2156C84.6444 18.1494 85.0774 18.18 85.3 18.2083C85.3 18.2083 85.3477 18.2117 85.3744 18.2117C85.5826 18.2117 85.7706 18.096 85.8729 17.9275L87.3632 15.3634C86.5321 15.0759 85.7051 14.937 84.7649 14.9502" fill="#FFD400"/>
<path d="M59.4172 26.654C59.3048 26.51 59.1316 26.4149 58.9331 26.4149C58.8223 26.4149 58.7185 26.4454 58.6276 26.4979L58.6171 26.5058C57.6243 27.1007 56.4634 27.4438 55.2223 27.4438C51.5693 27.4438 48.5971 24.4697 48.5971 20.8161C48.5971 17.1647 51.5693 14.1927 55.2223 14.1927C56.4594 14.1927 57.6174 14.5337 58.6117 15.1257C58.7029 15.185 58.8139 15.2185 58.9309 15.2185C59.125 15.2185 59.2975 15.1269 59.4094 14.9891L61.0686 12.8367C59.4285 11.6304 57.4074 10.9214 55.2223 10.9214C49.766 10.9214 45.3252 15.3595 45.3252 20.8161C45.3252 26.2726 49.766 30.7146 55.2223 30.7146C57.4095 30.7146 59.4309 30.0027 61.0709 28.798L59.4172 26.654V26.654Z" fill="#FFD400"/>
<path d="M103.432 17.8518C105.574 17.8518 107.397 19.2469 108.04 21.1788H98.8247C99.466 19.2469 101.288 17.8518 103.432 17.8518V17.8518ZM103.432 14.7195C99.0263 14.7195 95.4439 18.3017 95.4439 22.7085C95.4439 27.066 99.0298 30.6526 103.436 30.6977C103.514 30.6977 103.671 30.699 103.671 30.699C105.411 30.699 106.802 30.4602 108.644 29.2656L108.943 29.0701C108.943 29.0701 107.305 26.9503 107.288 26.9293C107.179 26.7865 107.009 26.6937 106.82 26.6937C106.712 26.6937 106.613 26.723 106.525 26.7748C106.112 26.9891 104.829 27.5665 103.432 27.5675C101.325 27.5687 99.5277 26.2184 98.8571 24.3383H109.788L111.052 24.3332C111.241 24.3332 111.393 24.1829 111.393 23.9946L111.412 23.0671C111.418 22.9451 111.42 22.8255 111.42 22.7085C111.42 18.3017 107.837 14.7195 103.432 14.7195V14.7195Z" fill="#FFD400"/>
<path d="M113.622 30.7136C113.439 30.7136 113.29 30.5692 113.283 30.3883V15.573C113.285 15.3953 113.429 15.2482 113.608 15.2401H116.194C116.379 15.2401 116.529 15.3921 116.529 15.5779V30.3791C116.529 30.5651 116.379 30.7136 116.194 30.7136H113.622Z" fill="#FFD400"/>
<path d="M69.6844 17.8079C67.0268 17.8079 64.8642 19.9693 64.8642 22.6287C64.8642 25.288 67.0268 27.4495 69.6844 27.4495C72.3447 27.4495 74.5071 25.2877 74.5071 22.6287C74.5071 19.9696 72.3447 17.8079 69.6844 17.8079V17.8079ZM69.6844 30.7136C65.227 30.7136 61.5996 27.087 61.5996 22.6287C61.5996 18.1703 65.227 14.5419 69.6844 14.5419C74.1418 14.5419 77.7734 18.1707 77.7734 22.6287C77.7734 27.0867 74.143 30.7136 69.6844 30.7136Z" fill="#FFD400"/>
<path d="M126.147 17.9234C123.519 17.9234 121.377 20.0632 121.377 22.6939C121.377 25.3246 123.519 27.4635 126.147 27.4635C128.779 27.4635 130.921 25.3247 130.921 22.6939C130.921 20.0632 128.779 17.9234 126.147 17.9234ZM126.147 30.6926C121.735 30.6926 118.148 27.103 118.148 22.6939C118.148 18.2807 121.735 14.6931 126.147 14.6931C130.562 14.6931 134.15 18.2807 134.15 22.6939C134.15 27.103 130.562 30.6926 126.147 30.6926Z" fill="#FFD400"/>
<path d="M143.241 21.4679C142.679 21.2145 141.966 21.0505 141.186 20.8553C140.039 20.57 138.971 20.5068 138.571 19.8877C138.203 19.3176 138.402 18.6448 138.899 18.3018C140.031 17.5228 141.565 17.835 142.414 18.2251C142.561 18.2922 143.187 18.6563 143.187 18.6563C143.276 18.71 143.383 18.7447 143.494 18.7447C143.692 18.7447 143.865 18.6468 143.97 18.496C143.982 18.483 145.588 16.4017 145.588 16.4017L145.316 16.1871C145.155 16.071 144.935 15.9154 144.699 15.7817C144.22 15.5066 142.761 14.6661 140.633 14.6661C140.572 14.6661 140.508 14.6671 140.442 14.6682C135.783 14.7782 135.139 18.0687 135.139 19.2315C135.139 20.997 136.047 22.2615 137.414 23.0517C138.506 23.6834 140.575 24.0252 141.629 24.3425C142.178 24.5089 142.585 24.8885 142.734 25.2595C142.8 25.4246 142.839 25.5962 142.845 25.7759C142.863 26.3806 142.538 27.0858 141.632 27.3647C140.63 27.6728 139.046 27.5434 137.614 26.4213C137.567 26.3848 137.41 26.2576 137.354 26.2363C137.287 26.2112 137.215 26.1984 137.138 26.1984C136.934 26.1984 136.775 26.3088 136.656 26.4668C136.634 26.4941 135.065 28.5182 135.065 28.5182C135.065 28.5182 135.618 28.9776 135.802 29.1166C136.705 29.7948 138.325 30.7169 140.454 30.7169H140.533C145.014 30.7019 146.083 27.5202 146.083 25.7695C146.083 23.9811 144.987 22.2514 143.241 21.4679" fill="#FFD400"/>
</svg>
