<svg width="147" height="32" viewBox="0 0 147 32" fill="none" xmlns="http://www.w3.org/2000/svg">
<path d="M143.247 21.4939C142.685 21.2413 141.976 21.0769 141.197 20.8822C139.708 20.5104 138.394 20.5078 138.386 19.2082C138.383 19.0328 138.548 18.3357 139.465 18.0824C139.732 18.011 140.021 17.9734 140.251 17.9569C140.286 17.9551 140.454 17.9417 140.637 17.9446C140.758 17.9459 140.956 17.9538 141.06 17.963C141.761 18.0274 142.26 18.2029 142.79 18.4634C142.896 18.5124 143.194 18.6875 143.194 18.6875C143.284 18.741 143.389 18.7767 143.501 18.7767C143.697 18.7767 143.87 18.6806 143.976 18.5307C143.986 18.5152 145.588 16.4411 145.588 16.4411L145.315 16.2258C145.158 16.1098 144.936 15.9561 144.702 15.8217C144.223 15.5462 142.769 14.7086 140.646 14.7086C140.585 14.7086 140.522 14.7099 140.456 14.7099C135.806 14.8204 135.164 18.1011 135.164 19.2635C135.164 21.0241 136.071 22.2867 137.434 23.0727C138.618 23.7565 140.95 24.1055 141.885 24.4403C142.33 24.6015 142.592 24.9059 142.743 25.2771C142.806 25.4396 142.848 25.6097 142.851 25.7895C142.872 26.3946 142.572 27.173 141.642 27.3759C141.232 27.4654 140.894 27.486 140.616 27.4869C140.019 27.491 139.62 27.3971 139.205 27.2726C138.821 27.16 138.452 26.988 138.142 26.793C137.725 26.5325 137.513 26.3377 137.495 26.3226C137.398 26.2498 137.287 26.2141 137.161 26.2141C136.954 26.2141 136.796 26.3213 136.677 26.4787C136.657 26.5081 135.09 28.526 135.09 28.526C135.09 28.526 135.643 28.9844 135.825 29.1242C136.727 29.7997 138.342 30.7194 140.467 30.7194H140.546C145.017 30.7052 146.083 27.5321 146.083 25.7836C146.083 24.0002 144.989 22.2763 143.247 21.4939" fill="white"/>
<path d="M93.3178 14.9583C92.5493 14.9698 91.9034 15.0652 91.2623 15.2594C90.2304 15.574 89.4426 16.1394 88.846 16.9294C87.853 18.2395 87.8682 19.8006 87.8682 19.8006V30.6868H90.7751C90.9597 30.6868 91.1131 30.5315 91.1146 30.3456V20.0013C91.1131 19.7942 91.1418 19.0788 91.5477 18.7153C91.8705 18.4241 92.3033 18.2847 92.7282 18.2234C93.1964 18.157 93.6343 18.1873 93.8524 18.2142C93.8524 18.2142 93.9005 18.2193 93.9261 18.2193C94.1388 18.2193 94.3219 18.1029 94.4243 17.9366L95.9155 15.3724C95.0822 15.0849 94.258 14.9458 93.3178 14.9583" fill="white"/>
<path d="M84.7837 14.9583C84.0145 14.9698 83.3661 15.0652 82.7291 15.2594C81.6941 15.574 80.9078 16.1394 80.3094 16.9294C79.3161 18.2395 79.3316 19.8006 79.3316 19.8006V30.6868H82.2403C82.4253 30.6868 82.5783 30.5315 82.5796 30.3456V20.0013C82.5783 19.7942 82.6058 19.0788 83.0111 18.7153C83.3358 18.4241 83.7683 18.2847 84.1922 18.2234C84.6626 18.157 85.0954 18.1873 85.3176 18.2142C85.3176 18.2142 85.366 18.2193 85.3923 18.2193C85.6028 18.2193 85.7874 18.1029 85.8914 17.9366L87.3807 15.3724C86.5487 15.0849 85.7242 14.9458 84.7837 14.9583" fill="white"/>
<path d="M59.4426 26.6595C59.3307 26.5131 59.1567 26.4202 58.9602 26.4202C58.8487 26.4202 58.7424 26.4512 58.6526 26.504L58.6433 26.5103C57.6517 27.104 56.4897 27.447 55.2489 27.447C51.5977 27.447 48.6268 24.4759 48.6268 20.8233C48.6268 17.1706 51.5977 14.2 55.2489 14.2C56.4859 14.2 57.6452 14.5418 58.6362 15.1346C58.7283 15.1918 58.8407 15.2273 58.9567 15.2273C59.1519 15.2273 59.3236 15.1357 59.4357 14.9951L61.093 12.846C59.4546 11.6401 57.4351 10.9299 55.2489 10.9299C49.7944 10.9299 45.3545 15.3675 45.3545 20.8233C45.3545 26.279 49.7944 30.7162 55.2489 30.7162C57.4351 30.7162 59.4559 30.0061 61.0965 28.8016L59.4426 26.6595Z" fill="white"/>
<path d="M103.444 17.8589C105.585 17.8589 107.407 19.2553 108.052 21.1834H98.8382C99.4815 19.2553 101.301 17.8589 103.444 17.8589ZM103.444 14.7274C99.0405 14.7274 95.4593 18.3091 95.4593 22.7142C95.4593 27.0705 99.044 30.6552 103.448 30.7004C103.527 30.7004 103.683 30.7023 103.683 30.7023C105.423 30.7023 106.814 30.4652 108.656 29.2699L108.952 29.0751C108.952 29.0751 107.316 26.9555 107.298 26.933C107.191 26.7898 107.021 26.6987 106.831 26.6987C106.723 26.6987 106.624 26.7285 106.536 26.7787C106.123 26.995 104.841 27.5716 103.444 27.5729C101.338 27.5738 99.541 26.2246 98.8698 24.3432H109.799L111.063 24.3372C111.251 24.3372 111.402 24.187 111.402 23.9993L111.422 23.0727C111.428 22.9513 111.43 22.8314 111.43 22.7142C111.43 18.3091 107.847 14.7274 103.444 14.7274V14.7274Z" fill="white"/>
<path d="M113.631 30.7172C113.449 30.7172 113.3 30.5734 113.294 30.3919V15.5825C113.295 15.4037 113.437 15.2572 113.618 15.2488H116.201C116.388 15.2488 116.538 15.3994 116.538 15.5864V30.3837C116.538 30.5674 116.388 30.7172 116.201 30.7172H113.631V30.7172Z" fill="white"/>
<path d="M69.7074 17.8149C67.0506 17.8149 64.8879 19.977 64.8879 22.6347C64.8879 25.2925 67.0506 27.4539 69.7074 27.4539C72.3656 27.4539 74.5263 25.2915 74.5263 22.6347C74.5263 19.9779 72.3656 17.8149 69.7074 17.8149V17.8149ZM69.7074 30.7171C65.2513 30.7171 61.6262 27.091 61.6262 22.6347C61.6262 18.1785 65.2513 14.5508 69.7074 14.5508C74.1635 14.5508 77.7936 18.1775 77.7936 22.6347C77.7936 27.0919 74.1653 30.7171 69.7074 30.7171Z" fill="white"/>
<path d="M126.154 17.9316C123.523 17.9316 121.385 20.0709 121.385 22.6999C121.385 25.3289 123.523 27.4688 126.154 27.4688C128.785 27.4688 130.924 25.3292 130.924 22.6999C130.924 20.0706 128.785 17.9316 126.154 17.9316V17.9316ZM126.154 30.6959C121.743 30.6959 118.157 27.1081 118.157 22.6999C118.157 18.2888 121.743 14.7008 126.154 14.7008C130.565 14.7008 134.154 18.2888 134.154 22.6999C134.154 27.1081 130.566 30.6959 126.154 30.6959Z" fill="white"/>
<path d="M31.8979 2.58095C31.8979 1.72092 31.2018 1.02588 30.3433 1.02588L18.9519 1.02685L26.239 10.3527L31.6284 3.45462C31.7988 3.20597 31.8979 2.9061 31.8979 2.58095" fill="white"/>
<path d="M41.5363 10.2561V10.2524L35.3716 2.38962C34.7989 1.59485 33.8799 1.07022 32.8345 1.03357V1.02551C32.8345 1.02551 34.5514 2.05564 33.3251 3.60598H33.3254L27.6007 10.9315L27.5948 10.9222L19.8621 20.816L31.9715 20.8233L32.8734 20.7917C33.8515 20.7486 34.7199 20.2789 35.2929 19.5603L35.304 19.5534L41.5088 11.6158V11.6087C41.6596 11.4171 41.7535 11.1789 41.7535 10.9169C41.7535 10.6693 41.6718 10.4437 41.5363 10.2561" fill="white"/>
<path d="M10.9421 29.1885C10.9421 30.0475 11.6395 30.7449 12.4981 30.7449L23.8893 30.7427L16.6024 21.4182L11.2127 28.3144C11.0428 28.5636 10.9421 28.8639 10.9421 29.1885" fill="white"/>
<path d="M1.30453 21.5119V21.5183L7.46999 29.3806C8.04265 30.1763 8.96184 30.7005 10.0067 30.7349V30.745C10.0067 30.745 8.28894 29.7144 9.51634 28.1638L9.51524 28.1625L15.2406 20.8386L15.2476 20.8474L22.9789 10.9525L10.87 10.9473L9.96668 10.9784C8.98793 11.0205 8.12077 11.491 7.54774 12.2099L7.53875 12.2146L1.33282 20.1525V20.1598C1.18154 20.3517 1.08685 20.5891 1.08685 20.8534C1.08685 21.0994 1.16986 21.3273 1.30453 21.5119Z" fill="white"/>
</svg>
