<svg width="147" height="32" viewBox="0 0 147 32" fill="none" xmlns="http://www.w3.org/2000/svg">
<path fill-rule="evenodd" clip-rule="evenodd" d="M18.9349 1.08801H32.6854C33.7413 1.08801 34.6812 1.58449 35.2853 2.35632L41.499 10.3097C41.644 10.496 41.7306 10.7302 41.7306 10.9847C41.7306 11.2394 41.644 11.4737 41.4987 11.6604L35.2853 19.6133C34.6812 20.385 33.7413 20.881 32.6854 20.881H18.9349L26.6667 10.9847L18.9349 1.08801Z" fill="#0083CA"/>
<path fill-rule="evenodd" clip-rule="evenodd" d="M26.6667 10.9847L32.3167 3.75323C32.5358 3.4731 32.666 3.12049 32.666 2.73754C32.666 1.82692 31.9277 1.08814 31.017 1.08814L18.9349 1.08801L26.6667 10.9847Z" fill="#00416B"/>
<path d="M93.302 15.0132C92.5332 15.0238 91.8868 15.1209 91.2467 15.3136C90.2134 15.6289 89.4249 16.1959 88.83 16.9848C87.8354 18.296 87.8507 19.8562 87.8507 19.8562V30.7451H90.7599C90.9444 30.7451 91.097 30.5906 91.0986 30.4058V20.0559C91.097 19.8508 91.1256 19.1351 91.5323 18.771C91.8534 18.4817 92.289 18.3412 92.7125 18.2789C93.1799 18.2127 93.6187 18.2432 93.8371 18.2715C93.8371 18.2715 93.8854 18.2747 93.9105 18.2747C94.122 18.2747 94.3064 18.1593 94.4091 17.9908L95.9012 15.4267C95.0691 15.1392 94.2409 15.0001 93.302 15.0132" fill="#00416B"/>
<path d="M84.7653 15.0132C83.9968 15.0238 83.3485 15.1209 82.7104 15.3136C81.6757 15.6289 80.8879 16.1959 80.2901 16.9848C79.2965 18.296 79.3124 19.8562 79.3124 19.8562V30.7451H82.2229C82.407 30.7451 82.559 30.5906 82.5606 30.4058V20.0559C82.559 19.8508 82.5886 19.1351 82.9927 18.771C83.3154 18.4817 83.75 18.3412 84.1745 18.2789C84.6448 18.2127 85.0772 18.2432 85.3001 18.2715C85.3001 18.2715 85.3475 18.2747 85.3748 18.2747C85.5834 18.2747 85.7709 18.1593 85.8727 17.9908L87.3636 15.4267C86.5318 15.1392 85.7055 15.0001 84.7653 15.0132" fill="#00416B"/>
<path d="M59.417 26.7172C59.3052 26.5732 59.1315 26.4781 58.9337 26.4781C58.8228 26.4781 58.7185 26.5086 58.628 26.5611L58.6171 26.5687C57.6246 27.1639 56.4639 27.5067 55.2224 27.5067C51.5698 27.5067 48.5976 24.5329 48.5976 20.8793C48.5976 17.2276 51.5698 14.2559 55.2224 14.2559C56.4593 14.2559 57.6176 14.5967 58.6115 15.1889C58.7034 15.2481 58.8142 15.2818 58.931 15.2818C59.1253 15.2818 59.298 15.1902 59.4096 15.0523L61.0689 12.9C59.4286 11.6937 57.4079 10.9846 55.2224 10.9846C49.7659 10.9846 45.3254 15.4228 45.3254 20.8793C45.3254 26.3358 49.7659 30.7778 55.2224 30.7778C57.4099 30.7778 59.4313 30.0659 61.0712 28.8612L59.417 26.7172Z" fill="#00416B"/>
<path d="M103.432 17.9151C105.575 17.9151 107.397 19.3103 108.04 21.2418H98.8244C99.4664 19.3103 101.288 17.9151 103.432 17.9151ZM103.432 14.7828C99.0267 14.7828 95.4437 18.365 95.4437 22.7719C95.4437 27.1294 99.0295 30.7159 103.436 30.761C103.514 30.761 103.671 30.7623 103.671 30.7623C105.411 30.7623 106.802 30.5232 108.644 29.329L108.943 29.1331C108.943 29.1331 107.305 27.0136 107.288 26.9923C107.179 26.8499 107.009 26.7571 106.819 26.7571C106.712 26.7571 106.612 26.7863 106.524 26.8381C106.111 27.0524 104.83 27.6298 103.432 27.6308C101.324 27.6321 99.5281 26.2814 98.8569 24.4017H109.788L111.052 24.3966C111.241 24.3966 111.393 24.2459 111.393 24.058L111.412 23.1305C111.418 23.0084 111.42 22.8888 111.42 22.7719C111.42 18.365 107.836 14.7828 103.432 14.7828V14.7828Z" fill="#00416B"/>
<path d="M113.622 30.7768C113.439 30.7768 113.29 30.6324 113.284 30.4515V15.6362C113.285 15.4585 113.429 15.3115 113.608 15.3033H116.194C116.38 15.3033 116.529 15.4553 116.529 15.6412V30.4423C116.529 30.6283 116.38 30.7768 116.194 30.7768H113.622V30.7768Z" fill="#00416B"/>
<path d="M69.6848 17.8712C67.0266 17.8712 64.8643 20.0327 64.8643 22.692C64.8643 25.3513 67.0266 27.5128 69.6848 27.5128C72.3445 27.5128 74.5075 25.351 74.5075 22.692C74.5075 20.033 72.3445 17.8712 69.6848 17.8712V17.8712ZM69.6848 30.7769C65.2268 30.7769 61.5996 27.1503 61.5996 22.692C61.5996 18.2337 65.2268 14.6052 69.6848 14.6052C74.1428 14.6052 77.7732 18.234 77.7732 22.692C77.7732 27.15 74.1437 30.7769 69.6848 30.7769Z" fill="#00416B"/>
<path d="M126.147 17.9866C123.519 17.9866 121.377 20.1265 121.377 22.7572C121.377 25.3879 123.519 27.5267 126.147 27.5267C128.779 27.5267 130.921 25.3879 130.921 22.7572C130.921 20.1264 128.779 17.9866 126.147 17.9866ZM126.147 30.7559C121.734 30.7559 118.148 27.1662 118.148 22.7572C118.148 18.344 121.734 14.7562 126.147 14.7562C130.56 14.7562 134.15 18.344 134.15 22.7572C134.15 27.1662 130.561 30.7559 126.147 30.7559Z" fill="#00416B"/>
<path d="M143.241 21.5311C142.679 21.2774 141.966 21.1137 141.186 20.9181C140.038 20.6333 138.971 20.57 138.571 19.9509C138.203 19.3808 138.402 18.7081 138.899 18.365C140.031 17.586 141.565 17.8982 142.414 18.2883C142.56 18.3554 143.187 18.7195 143.187 18.7195C143.277 18.7732 143.383 18.8079 143.494 18.8079C143.692 18.8079 143.864 18.71 143.969 18.5593C143.981 18.5459 145.588 16.4649 145.588 16.4649L145.315 16.2503C145.155 16.1342 144.934 15.9786 144.699 15.8449C144.22 15.5699 142.761 14.7294 140.633 14.7294C140.572 14.7294 140.508 14.7303 140.443 14.7314C135.783 14.8414 135.139 18.1319 135.139 19.2947C135.139 21.0603 136.047 22.3248 137.413 23.1149C138.507 23.7466 140.575 24.0881 141.629 24.4058C142.178 24.5721 142.585 24.9517 142.735 25.3227C142.8 25.4878 142.838 25.6594 142.845 25.8391C142.863 26.4438 142.538 27.149 141.632 27.4279C140.63 27.736 139.046 27.6066 137.614 26.4845C137.567 26.448 137.411 26.3208 137.354 26.2995C137.287 26.2744 137.216 26.2616 137.138 26.2616C136.934 26.2616 136.775 26.372 136.655 26.53C136.634 26.5573 135.065 28.5814 135.065 28.5814C135.065 28.5814 135.618 29.0408 135.802 29.1798C136.705 29.8577 138.325 30.78 140.453 30.78H140.533C145.014 30.7651 146.083 27.5834 146.083 25.8327C146.083 24.0443 144.987 22.3146 143.241 21.5311" fill="#00416B"/>
<path fill-rule="evenodd" clip-rule="evenodd" d="M23.8829 30.7774H10.1321C9.07603 30.7774 8.1365 30.2811 7.53271 29.5095L1.31834 21.5559C1.1732 21.3696 1.08685 21.1352 1.08685 20.8809C1.08685 20.6262 1.17336 20.3915 1.31912 20.2052L7.53271 12.2525C8.1365 11.4808 9.07603 10.9846 10.1321 10.9846H23.8829L16.1506 20.8809L23.8829 30.7774V30.7774Z" fill="#FFD400"/>
<path fill-rule="evenodd" clip-rule="evenodd" d="M16.1506 20.8809L10.5013 28.1127C10.2822 28.3925 10.1514 28.7451 10.1514 29.1279C10.1514 30.0388 10.8901 30.7774 11.8006 30.7774H23.8829L16.1506 20.8809Z" fill="#CD992B"/>
</svg>
