<svg width="147" height="32" viewBox="0 0 147 32" fill="none" xmlns="http://www.w3.org/2000/svg">
<path d="M11.4098 30.7348H10.1021C9.60067 30.7313 9.10639 30.6169 8.65553 30.3999C8.20467 30.1829 7.80866 29.8689 7.49658 29.4808L1.31471 21.6434C1.16681 21.4483 1.08685 21.2112 1.08685 20.9674C1.08685 20.7236 1.16681 20.4864 1.31471 20.2914L7.53621 12.454C7.83854 12.0464 8.23386 11.7151 8.69003 11.487C9.1462 11.2589 9.65035 11.1404 10.1615 11.1412H23.9023L16.1056 20.8204L10.3597 27.9329L11.4098 30.7348Z" fill="url(#paint0_linear_7416_2528)"/>
<path d="M16.1551 20.9381L16.0957 20.8401L10.3596 27.9329C10.0675 28.3114 9.92013 28.7799 9.94355 29.2555C9.96314 29.4744 10.0271 29.6872 10.1317 29.8811C10.2363 30.075 10.3793 30.2461 10.5522 30.3842C10.7251 30.5223 10.9243 30.6245 11.1381 30.6847C11.3518 30.7449 11.5756 30.762 11.7961 30.7348H23.8725L16.1551 20.9381Z" fill="url(#paint1_linear_7416_2528)"/>
<path d="M32.432 4.11697L31.4413 1.34448H32.749C33.2496 1.34438 33.7437 1.45729 34.1935 1.6746C34.6433 1.89191 35.037 2.20789 35.3446 2.59847L41.5661 10.4359C41.714 10.6309 41.794 10.8681 41.794 11.1119C41.794 11.3556 41.714 11.5928 41.5661 11.7878L35.3149 19.6252C35.0096 20.0369 34.6095 20.3706 34.1478 20.5989C33.6861 20.8272 33.176 20.9435 32.6599 20.938H18.929L26.7356 11.249L32.432 4.11697Z" fill="url(#paint2_linear_7416_2528)"/>
<path d="M26.6761 11.1413L26.7356 11.2393L32.432 4.12681C32.7277 3.74963 32.8786 3.28105 32.858 2.80425C32.8363 2.58327 32.7693 2.36897 32.6612 2.1744C32.553 1.97983 32.406 1.80907 32.2289 1.67251C32.0519 1.53594 31.8486 1.43644 31.6315 1.38005C31.4143 1.32367 31.1878 1.31158 30.9658 1.34453H18.929L26.6761 11.1413Z" fill="url(#paint3_linear_7416_2528)"/>
<path d="M32.759 3.97981C32.9887 3.70377 33.1147 3.35762 33.1156 3.00013C33.1169 2.784 33.0752 2.56972 32.9928 2.36954C32.9103 2.16936 32.7888 1.9872 32.6352 1.83346C32.4816 1.67972 32.2988 1.55741 32.0974 1.47351C31.8959 1.38961 31.6798 1.34577 31.4612 1.34448H31.0352C31.2512 1.34704 31.4645 1.39164 31.6631 1.47574C31.8616 1.55984 32.0414 1.68179 32.1923 1.83462C32.3432 1.98746 32.4621 2.16819 32.5424 2.36649C32.6226 2.56478 32.6625 2.77677 32.6599 2.99034C32.6641 3.3487 32.5375 3.69654 32.3033 3.97001L26.6762 11.1412L18.9588 20.938L32.759 3.97981Z" fill="#14B9ED"/>
<path d="M10.0723 28.0602C9.84609 28.3382 9.72053 28.6831 9.71567 29.0399C9.70906 29.2593 9.7469 29.4778 9.82695 29.6825C9.90701 29.8873 10.0277 30.0741 10.1818 30.232C10.336 30.3899 10.5205 30.5158 10.7246 30.6021C10.9287 30.6884 11.1482 30.7335 11.3701 30.7348H11.7961C11.3555 30.7245 10.9368 30.5428 10.6308 30.2292C10.3248 29.9156 10.1561 29.4953 10.1615 29.0595C10.1644 28.7007 10.294 28.3541 10.528 28.0798L16.1551 20.938L23.8725 11.1412L10.0723 28.0602Z" fill="#FFD400"/>
<path d="M93.2798 15.1187C92.5849 15.1102 91.893 15.2094 91.2291 15.4126C90.2701 15.6781 89.4227 16.2414 88.8119 17.0193C88.1948 17.8397 87.8488 18.8284 87.8212 19.8505V30.627H90.714C90.8007 30.627 90.8838 30.5929 90.9451 30.5323C91.0065 30.4716 91.0409 30.3894 91.0409 30.3037V20.115C91.02 19.6592 91.1719 19.212 91.4669 18.8611C91.7997 18.5882 92.2062 18.4179 92.6359 18.3712C93.0143 18.3262 93.3968 18.3262 93.7752 18.3712H93.8445C93.9435 18.3701 94.0405 18.3433 94.1257 18.2934C94.2109 18.2435 94.2813 18.1724 94.33 18.0871L95.8259 15.54C95.0078 15.2308 94.1352 15.0875 93.26 15.1187" fill="#00416B"/>
<path d="M84.7501 15.1189C84.055 15.1083 83.3627 15.2075 82.6994 15.4128C81.743 15.6783 80.8988 16.2418 80.292 17.0195C79.6708 17.8378 79.3244 18.8278 79.3013 19.8507V30.6272H82.1941C82.237 30.6272 82.2796 30.6188 82.3192 30.6026C82.3589 30.5863 82.3949 30.5625 82.4253 30.5325C82.4556 30.5025 82.4797 30.4668 82.4961 30.4276C82.5126 30.3884 82.521 30.3463 82.521 30.3039V20.1153C82.5048 19.66 82.6562 19.2145 82.947 18.8613C83.2807 18.5899 83.6867 18.4197 84.116 18.3714C84.4944 18.3264 84.8769 18.3264 85.2553 18.3714H85.3247C85.4228 18.3667 85.5184 18.3383 85.603 18.2888C85.6875 18.2393 85.7587 18.1702 85.8101 18.0873L87.3457 15.5108C86.5069 15.2309 85.6251 15.0983 84.7402 15.1189" fill="#00416B"/>
<path d="M59.4183 26.6789C59.359 26.6086 59.2848 26.5519 59.2009 26.513C59.117 26.4741 59.0255 26.4538 58.9329 26.4536C58.8251 26.4496 58.7195 26.4844 58.6357 26.5516C57.76 27.067 56.7757 27.3756 55.7597 27.4531C54.7436 27.5306 53.7231 27.375 52.7778 26.9984C51.8326 26.6219 50.988 26.0345 50.31 25.2821C49.632 24.5297 49.1389 23.6327 48.8691 22.6609C48.5992 21.6891 48.56 20.6688 48.7545 19.6795C48.9489 18.6902 49.3718 17.7588 49.9901 16.9577C50.6084 16.1566 51.4055 15.5075 52.3191 15.0611C53.2328 14.6147 54.2384 14.383 55.2574 14.384C56.4499 14.3718 57.6213 14.6946 58.6357 15.3147C58.7309 15.3818 58.8457 15.4162 58.9626 15.4126C59.1511 15.4043 59.3289 15.3235 59.4579 15.1873L61.1124 13.1006C59.427 11.8374 57.3722 11.1497 55.2574 11.1413C53.684 11.1273 52.1299 11.4842 50.7237 12.1824C49.3175 12.8806 48.0997 13.8999 47.1711 15.156C46.2425 16.4122 45.6298 17.869 45.3838 19.4058C45.1378 20.9427 45.2655 22.5154 45.7563 23.9937C46.2472 25.4721 47.0871 26.8135 48.2064 27.9071C49.3258 29.0006 50.6925 29.8147 52.1933 30.2821C53.6941 30.7494 55.2859 30.8565 56.8369 30.5945C58.388 30.3325 59.8535 29.7089 61.1124 28.7754L59.4183 26.6789Z" fill="#00416B"/>
<path d="M103.405 17.9991C104.424 18.0026 105.417 18.3208 106.244 18.9091C107.072 19.4975 107.693 20.3267 108.021 21.281H98.8078C99.1335 20.3291 99.7514 19.5013 100.575 18.913C101.399 18.3247 102.388 18.0052 103.405 17.9991ZM103.405 14.9034C102.357 14.9034 101.32 15.1073 100.353 15.5037C99.3851 15.9 98.506 16.4809 97.7654 17.2132C97.0249 17.9455 96.4375 18.8149 96.0367 19.7718C95.6359 20.7286 95.4296 21.7541 95.4296 22.7897C95.4296 23.8254 95.6359 24.8509 96.0367 25.8077C96.4375 26.7646 97.0249 27.6339 97.7654 28.3663C98.506 29.0986 99.3851 29.6795 100.353 30.0758C101.32 30.4722 102.357 30.6761 103.405 30.6761H103.632C105.394 30.7473 107.132 30.2524 108.586 29.2654L108.883 29.0695C108.883 29.0695 107.248 26.973 107.248 26.9338C107.193 26.8666 107.123 26.8119 107.045 26.773C106.966 26.7342 106.88 26.7122 106.793 26.7085C106.694 26.717 106.597 26.7401 106.505 26.777C105.547 27.2617 104.491 27.5263 103.415 27.551C102.409 27.5527 101.427 27.2467 100.604 26.6749C99.7811 26.1031 99.1571 25.2935 98.8178 24.3572H111.013C111.056 24.3585 111.098 24.3514 111.137 24.3362C111.177 24.3211 111.213 24.2982 111.244 24.2689C111.274 24.2397 111.298 24.2047 111.315 24.166C111.331 24.1273 111.34 24.0857 111.34 24.0437V23.1424V22.7799C111.347 21.7458 111.146 20.7206 110.75 19.7634C110.354 18.8062 109.77 17.936 109.033 17.2029C108.295 16.4698 107.418 15.8883 106.452 15.492C105.486 15.0956 104.45 14.8922 103.405 14.8936V14.9034Z" fill="#00416B"/>
<path d="M113.589 30.7348C113.545 30.7377 113.501 30.7313 113.46 30.7161C113.419 30.7009 113.382 30.6771 113.351 30.6465C113.32 30.6159 113.296 30.5791 113.281 30.5386C113.265 30.498 113.259 30.4547 113.262 30.4115V15.7164C113.262 15.6306 113.296 15.5484 113.358 15.4878C113.419 15.4271 113.502 15.3931 113.589 15.3931H116.165C116.207 15.393 116.249 15.4015 116.288 15.4178C116.327 15.4342 116.363 15.4582 116.392 15.4883C116.422 15.5185 116.445 15.5542 116.46 15.5934C116.476 15.6326 116.483 15.6744 116.482 15.7164V30.4115C116.483 30.4535 116.476 30.4953 116.46 30.5345C116.445 30.5737 116.422 30.6094 116.392 30.6395C116.363 30.6697 116.327 30.6937 116.288 30.71C116.249 30.7264 116.207 30.7348 116.165 30.7348H113.589Z" fill="#00416B"/>
<path d="M69.6718 17.9207C68.7176 17.9207 67.7848 18.2005 66.9914 18.7247C66.198 19.249 65.5796 19.9941 65.2145 20.8659C64.8493 21.7377 64.7538 22.697 64.9399 23.6225C65.1261 24.548 65.5856 25.3981 66.2603 26.0653C66.935 26.7326 67.7947 27.1869 68.7306 27.371C69.6665 27.5551 70.6366 27.4606 71.5182 27.0995C72.3997 26.7384 73.1532 26.1269 73.6834 25.3423C74.2135 24.5577 74.4965 23.6353 74.4965 22.6917C74.4991 22.0644 74.3761 21.4429 74.1346 20.8628C73.893 20.2828 73.5378 19.7558 73.0892 19.3123C72.6407 18.8687 72.1078 18.5174 71.5212 18.2786C70.9347 18.0397 70.3062 17.9181 69.6718 17.9207ZM69.6718 30.6565C68.0749 30.6565 66.5139 30.1882 65.1861 29.3108C63.8583 28.4335 62.8235 27.1865 62.2124 25.7276C61.6013 24.2686 61.4414 22.6632 61.7529 21.1144C62.0644 19.5656 62.8334 18.1429 63.9626 17.0263C65.0918 15.9097 66.5304 15.1492 68.0967 14.8412C69.6629 14.5331 71.2863 14.6912 72.7617 15.2955C74.237 15.8998 75.498 16.9232 76.3852 18.2362C77.2724 19.5493 77.7459 21.0929 77.7459 22.6721C77.7564 23.7272 77.5553 24.7739 77.1542 25.7517C76.7531 26.7294 76.1601 27.6189 75.4093 28.3686C74.6585 29.1184 73.7649 29.7135 72.7801 30.1196C71.7953 30.5258 70.7389 30.7349 69.6718 30.7348V30.6565Z" fill="#00416B"/>
<path d="M126.121 18.0481C125.177 18.05 124.256 18.3283 123.472 18.8479C122.688 19.3676 122.078 20.1051 121.717 20.9676C121.357 21.83 121.264 22.7786 121.448 23.6937C121.633 24.6088 122.087 25.4493 122.754 26.1091C123.422 26.7689 124.272 27.2184 125.197 27.4009C126.122 27.5834 127.082 27.4907 127.954 27.1346C128.826 26.7784 129.572 26.1747 130.097 25.3996C130.623 24.6246 130.904 23.713 130.906 22.7799C130.903 21.5257 130.398 20.3237 129.502 19.4368C128.605 18.55 127.389 18.0506 126.121 18.0481V18.0481ZM126.121 30.6663C124.538 30.6663 122.99 30.202 121.674 29.3322C120.357 28.4624 119.331 27.2262 118.726 25.7797C118.12 24.3333 117.961 22.7417 118.27 21.2062C118.579 19.6707 119.341 18.2602 120.461 17.1532C121.58 16.0462 123.007 15.2923 124.559 14.9868C126.112 14.6814 127.722 14.8381 129.184 15.4373C130.647 16.0364 131.897 17.051 132.777 18.3527C133.656 19.6545 134.126 21.1849 134.126 22.7505C134.127 23.7904 133.921 24.8203 133.519 25.7813C133.117 26.7422 132.528 27.6154 131.784 28.3507C131.041 29.086 130.158 29.669 129.186 30.0664C128.214 30.4637 127.173 30.6676 126.121 30.6663V30.6663Z" fill="#00416B"/>
<path d="M143.21 21.565C142.548 21.2967 141.861 21.09 141.16 20.9478C140.02 20.6637 138.95 20.5952 138.554 19.9682C138.393 19.7141 138.337 19.4085 138.398 19.1147C138.459 18.821 138.632 18.5618 138.881 18.3909C139.417 18.0963 140.018 17.9361 140.631 17.9241C141.244 17.9122 141.851 18.0489 142.398 18.3223C142.556 18.3909 143.181 18.7436 143.181 18.7436C143.266 18.8007 143.365 18.8345 143.468 18.8415C143.566 18.8397 143.662 18.8147 143.748 18.7687C143.834 18.7227 143.908 18.657 143.963 18.577L145.588 16.5197L145.33 16.2944C145.162 16.167 144.934 16.0397 144.706 15.9025C143.47 15.2003 142.07 14.8257 140.644 14.8151H140.446C135.79 14.913 135.136 18.1656 135.136 19.3216C135.127 20.0957 135.335 20.8573 135.737 21.5215C136.139 22.1856 136.72 22.7264 137.415 23.0835C138.773 23.638 140.179 24.0708 141.615 24.3767C141.853 24.4427 142.075 24.5569 142.266 24.712C142.457 24.8672 142.613 25.0599 142.725 25.278C142.789 25.4404 142.823 25.6131 142.824 25.7874C142.84 26.1485 142.729 26.5039 142.508 26.792C142.287 27.0801 141.971 27.2827 141.615 27.3647C140.923 27.5145 140.205 27.504 139.518 27.3341C138.83 27.1641 138.192 26.8393 137.653 26.385L137.395 26.1891C137.32 26.1729 137.242 26.1729 137.167 26.1891C137.071 26.1928 136.976 26.2175 136.891 26.2616C136.805 26.3056 136.73 26.3678 136.672 26.4438L135.077 28.4717C135.077 28.4717 135.632 28.9224 135.83 29.0498C137.17 30.057 138.803 30.6101 140.486 30.627H140.545C145.043 30.627 146.083 27.4725 146.083 25.7287C146.071 24.8313 145.797 23.9566 145.295 23.2093C144.792 22.4621 144.082 21.8742 143.25 21.516" fill="#00416B"/>
<defs>
<linearGradient id="paint0_linear_7416_2528" x1="23.4961" y1="10.6514" x2="4.49889" y2="25.6504" gradientUnits="userSpaceOnUse">
<stop stop-color="#FFDC04"/>
<stop offset="0.9" stop-color="#D29E01"/>
<stop offset="1" stop-color="#FFDC04"/>
</linearGradient>
<linearGradient id="paint1_linear_7416_2528" x1="23.8725" y1="25.7581" x2="9.94355" y2="25.7581" gradientUnits="userSpaceOnUse">
<stop stop-color="#D29E01"/>
<stop offset="1" stop-color="#AB5917"/>
</linearGradient>
<linearGradient id="paint2_linear_7416_2528" x1="19.2856" y1="21.3789" x2="38.2932" y2="6.40923" gradientUnits="userSpaceOnUse">
<stop stop-color="#00537E"/>
<stop offset="0.9" stop-color="#1CA9E1"/>
<stop offset="1" stop-color="#107BBF"/>
</linearGradient>
<linearGradient id="paint3_linear_7416_2528" x1="30.9757" y1="-0.00742056" x2="22.9014" y2="6.36963" gradientUnits="userSpaceOnUse">
<stop stop-color="#15263F"/>
<stop offset="1" stop-color="#054168"/>
</linearGradient>
</defs>
</svg>
