<svg width="92" height="64" viewBox="0 0 92 64" fill="none" xmlns="http://www.w3.org/2000/svg">
<g clip-path="url(#clip0_7416_2966)">
<path d="M73.6139 12.7414L65.3729 2.11631C64.4721 0.87096 63.1481 0.0404234 61.6457 -0.226441C61.6457 -0.226441 61.2131 -0.322388 58.5702 -0.320201H58.5037L58.391 -0.322388L39.1764 -0.320201L49.5473 12.956L31.3439 12.9553L30.1242 12.9954C28.5491 13.0635 27.065 13.7696 26.0183 14.933L25.9742 14.9559L17.4588 25.8523L17.1574 26.3378C16.938 26.7545 16.8258 27.2144 16.8258 27.6859C16.8258 28.1273 16.9294 28.5628 17.1177 28.9634L25.6462 39.9616C26.4217 41.0326 27.5135 41.8006 28.7589 42.1593L32.541 42.3923L32.6262 42.3957L51.8455 42.3935L41.4723 29.1206H59.6601L60.8932 29.0805C62.4574 29.012 63.9365 28.3145 64.9839 27.1614L65.0263 27.1403L73.5585 16.2258L73.7148 16.0142L73.8639 15.7401C74.0784 15.321 74.1928 14.8592 74.1928 14.3899C74.1928 13.9927 74.1118 13.6021 73.9571 13.2369L73.6139 12.7414V12.7414Z" fill="white"/>
<path d="M31.9989 41.3024H30.2327C29.5555 41.2977 28.8879 41.1414 28.279 40.8449C27.67 40.5484 27.1352 40.1193 26.7137 39.589L18.3645 28.8804C18.1647 28.6139 18.0567 28.2898 18.0567 27.9567C18.0567 27.6237 18.1647 27.2996 18.3645 27.0331L26.7672 16.3245C27.1755 15.7676 27.7095 15.3149 28.3256 15.0032C28.9417 14.6915 29.6226 14.5297 30.313 14.5308H48.8713L38.3411 27.756L30.5806 37.4741L31.9989 41.3024Z" fill="url(#paint0_linear_7416_2966)"/>
<path d="M38.408 27.9166L38.3277 27.7827L30.5806 37.474C30.186 37.9912 29.987 38.6313 30.0186 39.2811C30.0451 39.5802 30.1315 39.871 30.2727 40.1359C30.4139 40.4009 30.6071 40.6347 30.8406 40.8233C31.0741 41.012 31.3432 41.1516 31.6319 41.2339C31.9206 41.3162 32.2228 41.3395 32.5207 41.3024H48.8311L38.408 27.9166Z" fill="url(#paint1_linear_7416_2966)"/>
<path d="M60.3916 4.93309L59.0536 1.1449H60.8197C61.4959 1.14476 62.1631 1.29903 62.7706 1.59595C63.3781 1.89288 63.9099 2.32462 64.3253 2.85828L72.7281 13.5669C72.9278 13.8334 73.0358 14.1575 73.0358 14.4906C73.0358 14.8236 72.9278 15.1477 72.7281 15.4142L64.2852 26.1229C63.8729 26.6853 63.3325 27.1414 62.709 27.4533C62.0854 27.7652 61.3965 27.924 60.6993 27.9166H42.1544L52.698 14.678L60.3916 4.93309Z" fill="url(#paint2_linear_7416_2966)"/>
<path d="M52.6177 14.5307L52.698 14.6646L60.3916 4.94644C60.7909 4.43108 60.9947 3.79083 60.9669 3.13936C60.9376 2.83742 60.8471 2.54461 60.7011 2.27876C60.555 2.01291 60.3564 1.77959 60.1173 1.593C59.8782 1.4064 59.6036 1.27045 59.3103 1.1934C59.0171 1.11636 58.7112 1.09985 58.4113 1.14487H42.1544L52.6177 14.5307Z" fill="url(#paint3_linear_7416_2966)"/>
<path d="M60.8331 4.74568C61.1434 4.36852 61.3136 3.89555 61.3148 3.4071C61.3166 3.11178 61.2602 2.81901 61.1488 2.54549C61.0375 2.27198 60.8734 2.02308 60.6659 1.81301C60.4584 1.60295 60.2116 1.43583 59.9395 1.32119C59.6675 1.20656 59.3755 1.14665 59.0803 1.1449H58.505C58.7966 1.14839 59.0848 1.20933 59.3529 1.32424C59.6211 1.43915 59.864 1.60578 60.0677 1.8146C60.2715 2.02343 60.4322 2.27037 60.5405 2.54131C60.6489 2.81226 60.7028 3.10191 60.6993 3.39372C60.705 3.88336 60.534 4.35863 60.2176 4.7323L52.6177 14.5307L42.1945 27.9165L60.8331 4.74568Z" fill="#14B9ED"/>
<path d="M30.1925 37.6481C29.8869 38.0279 29.7174 38.4992 29.7108 38.9867C29.7019 39.2864 29.753 39.585 29.8611 39.8647C29.9692 40.1444 30.1322 40.3997 30.3404 40.6155C30.5486 40.8313 30.7978 41.0032 31.0735 41.1212C31.3491 41.2391 31.6455 41.3008 31.9453 41.3024H32.5206C31.9256 41.2884 31.3601 41.0402 30.9468 40.6117C30.5334 40.1831 30.3057 39.6089 30.3129 39.0134C30.3168 38.5231 30.4919 38.0496 30.808 37.6749L38.4079 27.9166L48.8311 14.5308L30.1925 37.6481Z" fill="#FFD400"/>
<path d="M43.3754 49.4233C42.6803 49.4335 42.0945 49.5208 41.5168 49.695C40.5832 49.98 39.8698 50.4927 39.3317 51.2057C38.4328 52.3915 38.4465 53.8016 38.4465 53.8016V63.6467H41.0761C41.2425 63.6467 41.3811 63.5065 41.383 63.3394V53.9829C41.3811 53.7972 41.4079 53.1499 41.7747 52.8209C42.0653 52.5592 42.459 52.4323 42.8418 52.376C43.2643 52.3163 43.6609 52.3435 43.8585 52.3692C43.8585 52.3692 43.9025 52.3726 43.9251 52.3726C44.1164 52.3726 44.2832 52.268 44.3755 52.1158L45.725 49.7971C44.9721 49.5375 44.2234 49.4119 43.3754 49.4233" fill="white"/>
<path d="M35.6564 49.4233C34.9615 49.4335 34.3763 49.5208 33.7995 49.695C32.8637 49.98 32.151 50.4927 31.611 51.2057C30.7126 52.3915 30.7274 53.8016 30.7274 53.8016V63.6467H33.3586C33.525 63.6467 33.6621 63.5065 33.664 63.3394V53.9829C33.6621 53.7972 33.6898 53.1499 34.0542 52.8209C34.3466 52.5592 34.7391 52.4323 35.1227 52.376C35.5481 52.3163 35.9388 52.3435 36.1404 52.3692C36.1404 52.3692 36.1831 52.3726 36.2076 52.3726C36.3962 52.3726 36.5664 52.268 36.6582 52.1158L38.0056 49.7971C37.2542 49.5375 36.5063 49.4119 35.6564 49.4233" fill="white"/>
<path d="M12.7407 60.0049C12.6394 59.875 12.4826 59.7886 12.303 59.7886C12.2024 59.7886 12.1084 59.8162 12.0268 59.8642L12.0167 59.8707C11.1199 60.4088 10.0707 60.7188 8.94759 60.7188C5.6462 60.7188 2.9587 58.0304 2.9587 54.7268C2.9587 51.4261 5.6462 48.7386 8.94759 48.7386C10.0662 48.7386 11.1135 49.0474 12.012 49.5821C12.0946 49.6363 12.1955 49.6663 12.3011 49.6663C12.4771 49.6663 12.6329 49.5836 12.7336 49.4586L14.2339 47.5132C12.7511 46.423 10.9243 45.7812 8.94759 45.7812C4.01497 45.7812 0 49.7938 0 54.7268C0 59.6599 4.01497 63.6764 8.94759 63.6764C10.9254 63.6764 12.7535 63.0325 14.2353 61.943L12.7407 60.0049V60.0049Z" fill="white"/>
<path d="M52.5333 52.0472C54.4701 52.0472 56.1176 53.3088 56.6987 55.0549H48.3673C48.9478 53.3088 50.595 52.0472 52.5333 52.0472ZM52.5333 49.2152C48.5499 49.2152 45.3116 52.4541 45.3116 56.4378C45.3116 60.3776 48.553 63.6199 52.5367 63.6604C52.6076 63.6604 52.7493 63.662 52.7493 63.662C54.3225 63.662 55.5801 63.446 57.2454 62.3657L57.515 62.189C57.515 62.189 56.0346 60.2733 56.0195 60.2541C55.9207 60.1248 55.7663 60.0406 55.5955 60.0406C55.4981 60.0406 55.4089 60.0678 55.3291 60.1142C54.9553 60.308 53.7965 60.8303 52.5333 60.8306C50.6284 60.8322 49.0035 59.6111 48.3967 57.9114H58.2787L59.4221 57.9067C59.5928 57.9067 59.7306 57.7709 59.7306 57.601L59.7473 56.7624C59.7525 56.6523 59.7547 56.5436 59.7547 56.4378C59.7547 52.4541 56.5149 49.2152 52.5333 49.2152V49.2152Z" fill="white"/>
<path d="M61.7456 63.6749C61.5804 63.6749 61.4458 63.5446 61.4396 63.3812V49.9872C61.4402 49.8263 61.5714 49.6932 61.7326 49.6864H64.071C64.2387 49.6864 64.3734 49.8235 64.3734 49.9915V63.3729C64.3734 63.5415 64.2387 63.6749 64.071 63.6749H61.7456Z" fill="white"/>
<path d="M22.0234 52.0071C19.6199 52.0071 17.6651 53.9618 17.6651 56.3658C17.6651 58.7698 19.6199 60.7243 22.0234 60.7243C24.427 60.7243 26.3834 58.7699 26.3834 56.3658C26.3834 53.9617 24.4276 52.0071 22.0234 52.0071ZM22.0234 63.6747C17.9928 63.6747 14.7136 60.3966 14.7136 56.3658C14.7136 52.335 17.9928 49.0547 22.0234 49.0547C26.054 49.0547 29.3359 52.3354 29.3359 56.3658C29.3359 60.3962 26.0543 63.6747 22.0234 63.6747V63.6747Z" fill="white"/>
<path d="M73.0696 52.112C70.6934 52.112 68.7569 54.0463 68.7569 56.4247C68.7569 58.803 70.6934 60.7364 73.0696 60.7364C75.4489 60.7364 77.385 58.8033 77.385 56.4247C77.385 54.046 75.4489 52.112 73.0696 52.112ZM73.0696 63.6563C69.08 63.6563 65.8371 60.4106 65.8371 56.4247C65.8371 52.4345 69.08 49.1909 73.0696 49.1909C77.0592 49.1909 80.3049 52.4345 80.3049 56.4247C80.3049 60.4106 77.0604 63.6563 73.0696 63.6563Z" fill="white"/>
<path d="M88.523 55.3159C88.0155 55.0872 87.3706 54.939 86.666 54.7623C85.6282 54.5042 84.663 54.4476 84.3016 53.8872C83.9683 53.3723 84.149 52.7633 84.598 52.4539C85.6219 51.7493 87.0086 52.0318 87.7757 52.3843C87.9081 52.4456 88.4753 52.7745 88.4753 52.7745C88.5558 52.8228 88.6517 52.8543 88.7526 52.8543C88.9308 52.8543 89.0871 52.7658 89.1818 52.6297C89.1929 52.6173 90.6454 50.7362 90.6454 50.7362L90.3985 50.5413C90.2536 50.437 90.055 50.2965 89.8418 50.1758C89.408 49.927 88.0895 49.1674 86.1663 49.1674C86.1103 49.1674 86.0524 49.1676 85.9936 49.1689C81.7803 49.2682 81.1989 52.2425 81.1989 53.2947C81.1989 54.8901 82.0201 56.0338 83.2551 56.748C84.2431 57.3192 86.1131 57.6283 87.0658 57.9152C87.5631 58.0653 87.9304 58.4084 88.065 58.7442C88.125 58.8933 88.1591 59.0481 88.1652 59.2108C88.1813 59.7576 87.8883 60.3951 87.0692 60.6472C86.1626 60.9257 84.7311 60.8087 83.4364 59.7947C83.3937 59.7613 83.2523 59.6462 83.2012 59.627C83.1406 59.6044 83.0756 59.5933 83.0063 59.5933C82.8216 59.5933 82.677 59.6926 82.5694 59.835C82.5505 59.8603 81.1317 61.6904 81.1317 61.6904C81.1317 61.6904 81.6318 62.1056 81.7982 62.2306C82.6139 62.8439 84.0794 63.6776 86.0029 63.6776H86.0747C90.1268 63.6646 91.0935 60.788 91.0935 59.2049C91.0935 57.5881 90.1023 56.0242 88.523 55.3159Z" fill="white"/>
</g>
<defs>
<linearGradient id="paint0_linear_7416_2966" x1="48.3227" y1="13.8615" x2="22.4371" y2="34.0635" gradientUnits="userSpaceOnUse">
<stop stop-color="#FFDC04"/>
<stop offset="0.9" stop-color="#D29E01"/>
<stop offset="1" stop-color="#FFDC04"/>
</linearGradient>
<linearGradient id="paint1_linear_7416_2966" x1="48.8311" y1="34.5024" x2="30.0186" y2="34.5024" gradientUnits="userSpaceOnUse">
<stop stop-color="#D29E01"/>
<stop offset="1" stop-color="#AB5917"/>
</linearGradient>
<linearGradient id="paint2_linear_7416_2966" x1="42.6361" y1="28.5189" x2="68.535" y2="8.35709" gradientUnits="userSpaceOnUse">
<stop stop-color="#00537E"/>
<stop offset="0.9" stop-color="#1CA9E1"/>
<stop offset="1" stop-color="#107BBF"/>
</linearGradient>
<linearGradient id="paint3_linear_7416_2966" x1="58.4247" y1="-0.702374" x2="47.4227" y2="7.88681" gradientUnits="userSpaceOnUse">
<stop stop-color="#15263F"/>
<stop offset="1" stop-color="#054168"/>
</linearGradient>
<clipPath id="clip0_7416_2966">
<rect width="92" height="64" fill="white"/>
</clipPath>
</defs>
</svg>
