<svg width="92" height="64" viewBox="0 0 92 64" fill="none" xmlns="http://www.w3.org/2000/svg">
<path d="M31.9992 41.6236H30.233C29.5558 41.619 28.8882 41.4628 28.2793 41.1666C27.6703 40.8704 27.1355 40.4416 26.714 39.9119L18.3647 29.2133C18.1649 28.9471 18.0569 28.6234 18.0569 28.2906C18.0569 27.9578 18.1649 27.634 18.3647 27.3678L26.7675 16.6693C27.1758 16.1129 27.7098 15.6607 28.3259 15.3493C28.942 15.0379 29.6229 14.8762 30.3133 14.8773H48.8718L38.3415 28.09L30.5809 37.7989L31.9992 41.6236Z" fill="url(#paint0_linear_7416_2826)"/>
<path d="M38.4084 28.2504L38.3281 28.1167L30.5809 37.7989C30.1864 38.3155 29.9873 38.955 30.019 39.6042C30.0454 39.9031 30.1318 40.1935 30.2731 40.4582C30.4143 40.7229 30.6074 40.9565 30.841 41.145C31.0745 41.3334 31.3436 41.4729 31.6323 41.5552C31.9209 41.6374 32.2232 41.6607 32.5211 41.6236H48.8316L38.4084 28.2504Z" fill="url(#paint1_linear_7416_2826)"/>
<path d="M60.3922 5.28863L59.0542 1.50403H60.8204C61.4965 1.50389 62.1638 1.65801 62.7713 1.95465C63.3788 2.2513 63.9105 2.68263 64.326 3.21579L72.7288 13.9143C72.9286 14.1805 73.0366 14.5043 73.0366 14.8371C73.0366 15.1698 72.9286 15.4936 72.7288 15.7598L64.2859 26.4583C63.8735 27.0202 63.3332 27.4759 62.7096 27.7875C62.086 28.0991 61.3971 28.2578 60.6999 28.2503H42.1549L52.6985 15.0243L60.3922 5.28863Z" fill="url(#paint2_linear_7416_2826)"/>
<path d="M52.6182 14.8772L52.6985 15.011L60.3922 5.30207C60.7915 4.7872 60.9954 4.14755 60.9675 3.4967C60.9382 3.19505 60.8478 2.90251 60.7017 2.63692C60.5556 2.37132 60.357 2.13822 60.1179 1.9518C59.8788 1.76539 59.6043 1.62956 59.311 1.55259C59.0177 1.47562 58.7118 1.45912 58.4119 1.5041H42.1549L52.6182 14.8772Z" fill="url(#paint3_linear_7416_2826)"/>
<path d="M60.8337 5.1014C61.144 4.7246 61.3142 4.25208 61.3154 3.76409C61.3172 3.46905 61.2608 3.17655 61.1495 2.90329C61.0381 2.63004 60.874 2.38138 60.6665 2.17151C60.459 1.96165 60.2122 1.79468 59.9401 1.68016C59.6681 1.56563 59.3761 1.50578 59.0809 1.50403H58.5056C58.7973 1.50752 59.0854 1.5684 59.3535 1.6832C59.6217 1.798 59.8646 1.96447 60.0684 2.1731C60.2721 2.38173 60.4328 2.62843 60.5411 2.89912C60.6495 3.16981 60.7035 3.45918 60.6999 3.75072C60.7056 4.2399 60.5346 4.71472 60.2182 5.08803L52.6182 14.8772L42.195 28.2503L60.8337 5.1014Z" fill="#14B9ED"/>
<path d="M30.1929 37.9727C29.8873 38.3522 29.7177 38.823 29.7112 39.3101C29.7022 39.6096 29.7533 39.9078 29.8615 40.1873C29.9696 40.4667 30.1325 40.7218 30.3408 40.9373C30.549 41.1529 30.7982 41.3247 31.0738 41.4425C31.3495 41.5604 31.6459 41.622 31.9457 41.6236H32.521C31.926 41.6096 31.3604 41.3616 30.9471 40.9335C30.5338 40.5054 30.3061 39.9317 30.3133 39.3368C30.3172 38.847 30.4923 38.3739 30.8083 37.9995L38.4084 28.2505L48.8316 14.8773L30.1929 37.9727Z" fill="#FFD400"/>
<path d="M43.3749 49.7458C42.6799 49.7554 42.0947 49.8431 41.5165 50.0172C40.5827 50.3022 39.8696 50.8148 39.3314 51.5284C38.4325 52.7133 38.4463 54.1239 38.4463 54.1239V63.9687H41.0767C41.2431 63.9687 41.3813 63.8289 41.3825 63.6618V54.3046C41.3813 54.1192 41.4074 53.4718 41.7745 53.1432C42.0653 52.8815 42.4588 52.7542 42.8417 52.6981C43.2646 52.6379 43.6611 52.6655 43.8586 52.6914C43.8586 52.6914 43.9026 52.6944 43.9249 52.6944C44.1163 52.6944 44.283 52.5898 44.3755 52.4376L45.7247 50.1195C44.9723 49.8597 44.2237 49.7338 43.3749 49.7458" fill="#00416B"/>
<path d="M35.6568 49.7458C34.962 49.7554 34.3759 49.8431 33.7993 50.0172C32.8638 50.3022 32.1514 50.8148 31.6111 51.5284C30.7126 52.7133 30.7273 54.1239 30.7273 54.1239V63.9687H33.3586C33.5251 63.9687 33.6623 63.8289 33.6634 63.6618V54.3046C33.6623 54.1192 33.6894 53.4718 34.0544 53.1432C34.3464 52.8815 34.7388 52.7542 35.1227 52.6981C35.5477 52.6379 35.9392 52.6655 36.1405 52.6914C36.1405 52.6914 36.1834 52.6944 36.2076 52.6944C36.3965 52.6944 36.5661 52.5898 36.6581 52.4376L38.0059 50.1195C37.2542 49.8597 36.5068 49.7338 35.6568 49.7458Z" fill="#00416B"/>
<path d="M12.7402 60.3268C12.639 60.1969 12.4822 60.1109 12.3028 60.1109C12.2029 60.1109 12.1087 60.1385 12.0266 60.1859L12.0168 60.1929C11.1194 60.7308 10.07 61.041 8.94774 61.041C5.64564 61.041 2.95845 58.3525 2.95845 55.0491C2.95845 51.748 5.64564 49.0608 8.94774 49.0608C10.0661 49.0608 11.1137 49.3694 12.012 49.9046C12.0949 49.9584 12.195 49.9883 12.301 49.9883C12.4764 49.9883 12.6324 49.9056 12.7336 49.781L14.2336 47.8353C12.7506 46.7446 10.9234 46.1035 8.94774 46.1035C4.01453 46.1035 0 50.1162 0 55.0491C0 59.9819 4.01453 63.998 8.94774 63.998C10.9255 63.998 12.7528 63.3545 14.2356 62.2652L12.7402 60.3268V60.3268Z" fill="#00416B"/>
<path d="M52.5332 52.3692C54.47 52.3692 56.1177 53.6305 56.6991 55.3769H48.3681C48.9478 53.6305 50.5945 52.3692 52.5332 52.3692V52.3692ZM52.5332 49.5371C48.5501 49.5371 45.3111 52.7761 45.3111 56.7599C45.3111 60.6995 48.5528 63.9418 52.5369 63.9827C52.607 63.9827 52.7492 63.984 52.7492 63.984C54.3218 63.984 55.5799 63.7681 57.2452 62.6881L57.515 62.5114C57.515 62.5114 56.0347 60.5949 56.0191 60.5759C55.9207 60.4467 55.7666 60.3627 55.5955 60.3627C55.4981 60.3627 55.4088 60.3896 55.3291 60.4364C54.9557 60.6301 53.7963 61.152 52.5332 61.153C50.628 61.1539 49.0036 59.9331 48.397 58.2336H58.279L59.4222 58.2289C59.5936 58.2289 59.7308 58.0927 59.7308 57.9229L59.7474 57.0841C59.753 56.9742 59.755 56.8655 59.755 56.7599C59.755 52.7761 56.515 49.5371 52.5332 49.5371V49.5371Z" fill="#00416B"/>
<path d="M61.7453 63.9973C61.5801 63.9973 61.4456 63.8667 61.4396 63.7033V50.3091C61.441 50.1484 61.5712 50.0155 61.7326 50.0082H64.0714C64.2384 50.0082 64.374 50.1457 64.374 50.3135V63.6946C64.374 63.8631 64.2384 63.9973 64.0714 63.9973H61.7453V63.9973Z" fill="#00416B"/>
<path d="M22.023 52.3292C19.6198 52.3292 17.6648 54.2836 17.6648 56.6881C17.6648 59.0926 19.6198 61.0462 22.023 61.0462C24.4276 61.0462 26.383 59.0916 26.383 56.6881C26.383 54.2846 24.4276 52.3292 22.023 52.3292ZM22.023 63.9972C17.9928 63.9972 14.7138 60.7184 14.7138 56.6881C14.7138 52.6578 17.9928 49.3766 22.023 49.3766C26.0531 49.3766 29.3356 52.6575 29.3356 56.6881C29.3356 60.7187 26.0539 63.9972 22.023 63.9972Z" fill="#00416B"/>
<path d="M73.0691 52.4339C70.6932 52.4339 68.7568 54.3687 68.7568 56.7466C68.7568 59.1246 70.6932 61.059 73.0691 61.059C75.4494 61.059 77.3858 59.1252 77.3858 56.7466C77.3858 54.368 75.4494 52.4339 73.0691 52.4339V52.4339ZM73.0691 63.978C69.08 63.978 65.8374 60.7327 65.8374 56.7466C65.8374 52.7572 69.08 49.5135 73.0691 49.5135C77.0583 49.5135 80.3049 52.7572 80.3049 56.7466C80.3049 60.7327 77.0602 63.978 73.0691 63.978Z" fill="#00416B"/>
<path d="M88.5236 55.6384C88.0156 55.4091 87.3708 55.261 86.6659 55.0842C85.6284 54.8264 84.663 54.7696 84.3016 54.2096C83.9687 53.6943 84.1488 53.086 84.5983 52.7761C85.6218 52.0715 87.0084 52.3539 87.7758 52.7066C87.9083 52.7674 88.4751 53.0963 88.4751 53.0963C88.5558 53.1448 88.6518 53.1764 88.7521 53.1764C88.9312 53.1764 89.0873 53.0877 89.182 52.9518C89.1933 52.9398 90.6457 51.0579 90.6457 51.0579L90.3989 50.8639C90.2543 50.7593 90.0547 50.6184 89.8418 50.4975C89.4086 50.249 88.0894 49.4893 86.1659 49.4893C86.1104 49.4893 86.0527 49.4899 85.9935 49.4909C81.7805 49.5903 81.1985 52.5648 81.1985 53.6166C81.1985 55.2125 82.0197 56.3559 83.2551 57.0701C84.2431 57.6412 86.1131 57.9502 87.0662 58.2372C87.5628 58.3877 87.9309 58.7305 88.0658 59.066C88.1249 59.2155 88.1595 59.3707 88.1651 59.5331C88.1814 60.0796 87.8881 60.7174 87.0689 60.9692C86.1633 61.248 84.7311 61.131 83.4362 60.1168C83.3937 60.0836 83.2525 59.9686 83.201 59.9494C83.1405 59.9264 83.0761 59.9151 83.006 59.9151C82.8213 59.9151 82.6775 60.0148 82.5698 60.1573C82.5506 60.1822 81.1314 62.0124 81.1314 62.0124C81.1314 62.0124 81.6313 62.4276 81.7981 62.5532C82.614 63.1661 84.079 63.9999 86.0035 63.9999H86.0752C90.1265 63.9867 91.0935 61.1101 91.0935 59.5275C91.0935 57.9103 90.1026 56.3466 88.5236 55.6384" fill="#00416B"/>
<defs>
<linearGradient id="paint0_linear_7416_2826" x1="48.3232" y1="14.2087" x2="22.4562" y2="34.4155" gradientUnits="userSpaceOnUse">
<stop stop-color="#FFDC04"/>
<stop offset="0.9" stop-color="#D29E01"/>
<stop offset="1" stop-color="#FFDC04"/>
</linearGradient>
<linearGradient id="paint1_linear_7416_2826" x1="48.8316" y1="34.83" x2="30.019" y2="34.83" gradientUnits="userSpaceOnUse">
<stop stop-color="#D29E01"/>
<stop offset="1" stop-color="#AB5917"/>
</linearGradient>
<linearGradient id="paint2_linear_7416_2826" x1="42.6366" y1="28.8521" x2="68.517" y2="8.68538" gradientUnits="userSpaceOnUse">
<stop stop-color="#00537E"/>
<stop offset="0.9" stop-color="#1CA9E1"/>
<stop offset="1" stop-color="#107BBF"/>
</linearGradient>
<linearGradient id="paint3_linear_7416_2826" x1="58.4253" y1="-0.341394" x2="47.4311" y2="8.24985" gradientUnits="userSpaceOnUse">
<stop stop-color="#15263F"/>
<stop offset="1" stop-color="#054168"/>
</linearGradient>
</defs>
</svg>
