<svg width="92" height="64" viewBox="0 0 92 64" fill="none" xmlns="http://www.w3.org/2000/svg">
<path d="M59.7237 3.54519C59.7237 2.38262 58.783 1.4425 57.6233 1.4425H42.2341L52.0794 14.0529L59.3592 4.7277C59.5889 4.38999 59.7237 3.9838 59.7237 3.54519" fill="black"/>
<path d="M72.742 13.924V13.9183L64.4139 3.28603C63.6415 2.21226 62.3983 1.50294 60.9882 1.45357V1.4425C60.9882 1.4425 63.3072 2.83364 61.6495 4.93096H61.6508L53.9187 14.8349L53.9089 14.8225L43.4662 28.2025L59.8201 28.2092L61.0411 28.1679C62.3658 28.1107 63.5359 27.4754 64.3082 26.5029L64.324 26.4958L72.7034 15.763V15.7516C72.9077 15.4938 73.0358 15.1704 73.0358 14.815C73.0358 14.4806 72.9248 14.1753 72.742 13.924" fill="black"/>
<path d="M31.4191 39.5222C31.4191 40.6834 32.3589 41.6247 33.5196 41.6247L48.9056 41.6237L39.0633 29.0143L31.7823 38.3385H31.7829C31.5519 38.6772 31.4191 39.0824 31.4191 39.5222" fill="black"/>
<path d="M18.4005 29.1424V29.1492L26.7273 39.7813C27.4998 40.8543 28.7421 41.5633 30.1543 41.6136V41.6247C30.1543 41.6247 27.8331 40.2325 29.492 38.1354L37.2237 28.2313L37.2322 28.2435L47.6771 14.8649L31.3213 14.8582L30.1014 14.8996C28.7768 14.9558 27.6053 15.592 26.8341 16.5637L26.8185 16.5716L18.4382 27.3044V27.3146C18.2337 27.5738 18.1052 27.8957 18.1052 28.2516C18.1052 28.5859 18.2177 28.8911 18.4005 29.1424" fill="black"/>
<path d="M43.5411 49.7973C42.8493 49.8063 42.2661 49.892 41.687 50.0641C40.7551 50.3505 40.0465 50.8601 39.508 51.573C38.6145 52.7533 38.6279 54.1602 38.6279 54.1602V63.9708H41.2492C41.4146 63.9708 41.5523 63.8306 41.5557 63.6632V54.3385C41.5523 54.1545 41.5768 53.508 41.944 53.1828C42.233 52.921 42.6275 52.7918 43.0079 52.7367C43.43 52.6799 43.8243 52.7051 44.0226 52.7307L44.0859 52.733C44.2779 52.733 44.445 52.631 44.5367 52.4766L45.8803 50.1681C45.1308 49.9106 44.3862 49.7841 43.5411 49.7973Z" fill="black"/>
<path d="M35.7828 49.7973C35.0891 49.8063 34.5054 49.892 33.9297 50.0641C32.9979 50.3505 32.2898 50.8601 31.749 51.573C30.8548 52.7533 30.8696 54.1602 30.8696 54.1602V63.9708H33.4924C33.6585 63.9708 33.7955 63.8306 33.7955 63.6632V54.3385C33.7955 54.1545 33.8206 53.508 34.1852 53.1828C34.4755 52.921 34.8667 52.7918 35.2496 52.7367C35.672 52.6799 36.0638 52.7051 36.2623 52.7307L36.3304 52.733C36.5211 52.733 36.6846 52.631 36.7799 52.4766L38.122 50.1681C37.3737 49.9106 36.6277 49.7841 35.7828 49.7973" fill="black"/>
<path d="M12.6943 60.3411C12.5955 60.2102 12.4392 60.1258 12.26 60.1258C12.1607 60.1258 12.0651 60.1537 11.9841 60.2003L11.9771 60.2069C11.0802 60.7407 10.0329 61.052 8.91718 61.052C5.62471 61.052 2.94814 58.3738 2.94814 55.0837C2.94814 51.7905 5.62471 49.1136 8.91718 49.1136C10.0317 49.1136 11.0778 49.4199 11.9714 49.9551C12.0527 50.0053 12.1537 50.0385 12.2595 50.0385C12.4334 50.0385 12.5893 49.9551 12.6887 49.8285L14.1859 47.8911C12.7069 46.8062 10.8858 46.1643 8.91718 46.1643C4.00075 46.1643 0 50.1651 0 55.0837C0 59.9969 4.00075 63.9997 8.91718 63.9997C10.8878 63.9997 12.7098 63.3592 14.1859 62.2709L12.6943 60.3411V60.3411Z" fill="black"/>
<path d="M52.6656 49.588C48.6994 49.588 45.4672 52.817 45.4672 56.7862C45.4672 60.7125 48.7007 63.9412 52.6686 63.9847L52.8828 63.9857C54.4485 63.9857 55.7019 63.7681 57.3609 62.6944L57.6297 62.518L56.1404 60.5883C56.0431 60.459 55.8886 60.377 55.7189 60.377L55.4534 60.4481C55.0814 60.6437 53.9256 61.1643 52.6656 61.1643C50.7657 61.1653 49.1489 59.9488 48.5436 58.2532H58.3934L59.5329 58.2475C59.7013 58.2475 59.8382 58.113 59.8382 57.9466L59.8558 57.1084C59.8614 56.9995 59.8648 56.8918 59.8648 56.7862C59.8648 52.817 56.6347 49.588 52.6656 49.588V49.588ZM52.6656 52.4104C54.5983 52.4104 56.2371 53.6685 56.8178 55.4039H48.5147C49.0954 53.6685 50.7358 52.4104 52.6656 52.4104Z" fill="black"/>
<path d="M61.8463 63.9984C61.6826 63.9984 61.5467 63.8685 61.544 63.7044L61.5417 50.3571C61.544 50.196 61.6752 50.0628 61.834 50.0562H64.1648C64.3302 50.0562 64.4654 50.1927 64.4654 50.3614V63.6977C64.4654 63.8632 64.3302 63.9984 64.1648 63.9984H61.8463V63.9984Z" fill="black"/>
<path d="M21.948 64C17.9331 64 14.6635 60.7288 14.6635 56.7141C14.6635 52.6994 17.9331 49.4305 21.948 49.4305C25.9651 49.4305 29.2343 52.6981 29.2343 56.7141C29.2343 60.7301 25.9651 64 21.948 64ZM21.948 52.3682C19.5542 52.3682 17.6047 54.3179 17.6047 56.7141C17.6047 59.109 19.5542 61.0567 21.948 61.0567C24.3419 61.0567 26.2903 59.109 26.2903 56.7141C26.2903 54.3179 24.3429 52.3682 21.948 52.3682Z" fill="black"/>
<path d="M73.1336 63.9787C69.1568 63.9787 65.9235 60.7454 65.9235 56.7716C65.9235 52.7978 69.1568 49.5654 73.1336 49.5654C77.1077 49.5654 80.3434 52.7978 80.3434 56.7716C80.3434 60.7454 77.1077 63.9787 73.1336 63.9787V63.9787ZM73.1336 52.4735C70.7637 52.4735 68.8349 54.402 68.8349 56.7716C68.8349 59.1412 70.7637 61.0706 73.1336 61.0706C75.5035 61.0706 77.4333 59.1419 77.4333 56.7716C77.4333 54.4013 75.5032 52.4735 73.1336 52.4735Z" fill="black"/>
<path d="M88.5385 55.6852C88.0323 55.4573 87.3918 55.3098 86.6935 55.1344C85.6607 54.8766 84.6979 54.8225 84.3391 54.265C84.0086 53.7521 84.187 53.1468 84.6358 52.8392C85.652 52.1386 87.0343 52.4187 87.7957 52.7705C87.9256 52.8306 88.49 53.1578 88.49 53.1578L88.7651 53.2369C88.9435 53.2369 89.0973 53.1502 89.1933 53.0159L90.647 51.1284L90.4015 50.9384C90.2587 50.8327 90.062 50.6932 89.8491 50.5733C89.4169 50.3255 88.1057 49.5684 86.1948 49.5684L86.0228 49.5703C81.8337 49.6703 81.2517 52.6273 81.2517 53.6731C81.2517 55.261 82.0709 56.3991 83.2977 57.1074C84.2804 57.6758 86.1414 57.9834 87.0888 58.2698C87.5838 58.4199 87.9479 58.7618 88.0831 59.0946C88.1435 59.2405 88.1764 59.3956 88.1811 59.558C88.199 60.1019 87.906 60.7347 87.0918 60.9859C86.1912 61.2623 84.7671 61.148 83.4787 60.1387L83.2446 59.972L83.0522 59.9377C82.8695 59.9377 82.7236 60.0377 82.6147 60.1796L81.1859 62.0227C81.1859 62.0227 81.6835 62.4346 81.85 62.5612C82.6625 63.1708 84.1182 63.9993 86.0327 63.9993H86.1035C90.1318 63.988 91.0935 61.1244 91.0935 59.5524C91.0935 57.9455 90.1099 56.3911 88.5385 55.6852" fill="black"/>
</svg>
