<svg width="48" height="48" viewBox="0 0 48 48" fill="none" xmlns="http://www.w3.org/2000/svg">
<path d="M42.6493 22.9219V22.9151L32.6929 10.2041C31.7696 8.92037 30.2833 8.07237 28.5974 8.01336V8.00012C28.5974 8.00012 31.3698 9.66324 29.388 12.1706H29.3897L20.1457 24.011L20.1341 23.9961L7.64966 39.9921L27.2009 40.0001L28.6608 39.9507C30.2444 39.8823 31.6433 39.1228 32.5666 37.9601L32.5855 37.9517L42.6032 25.1205V25.1068C42.8474 24.7986 43.0005 24.4121 43.0005 23.9871C43.0005 23.5873 42.8678 23.2223 42.6493 22.9219" fill="black"/>
<path d="M27.0857 10.5139C27.0857 9.12405 25.9611 8.00012 24.5746 8.00012H6.17664L17.9468 23.076L26.6499 11.9276C26.9245 11.5239 27.0857 11.0383 27.0857 10.5139" fill="black"/>
</svg>
