<svg width="48" height="48" viewBox="0 0 48 48" fill="none" xmlns="http://www.w3.org/2000/svg">
<path d="M4.21503 29.5406V29.5456L10.2785 37.2878C10.841 38.0691 11.7457 38.5854 12.7741 38.6221V38.6301C12.7741 38.6301 11.0838 37.6164 12.2918 36.0892L17.9219 28.8772L17.9281 28.8861L25.534 19.1439L13.6238 19.139L12.7355 19.1692C11.771 19.2101 10.9178 19.6733 10.3563 20.3809L10.3449 20.3867L4.24249 28.2022V28.2097C4.09353 28.3984 4 28.6328 4 28.892C4 29.1354 4.08192 29.3576 4.21503 29.5406" fill="black"/>
<path d="M13.6951 37.0992C13.6951 37.9448 14.3795 38.6302 15.2247 38.6302L26.4286 38.6295L19.2616 29.4474L13.9595 36.2373H13.96C13.7918 36.4839 13.6951 36.779 13.6951 37.0992" fill="black"/>
<path d="M43.786 18.4589V18.4547L37.7216 10.7124C37.1592 9.93046 36.2539 9.41394 35.227 9.37799V9.36993C35.227 9.36993 36.9157 10.3829 35.7086 11.9102H35.7096L30.079 19.1222L30.072 19.1131L22.4677 28.8563L34.3764 28.8612L35.2656 28.8312C36.2302 28.7895 37.0822 28.3269 37.6447 27.6187L37.6561 27.6135L43.7579 19.798V19.7897C43.9067 19.6019 44 19.3665 44 19.1076C44 18.8642 43.9191 18.6418 43.786 18.4589" fill="black"/>
<path d="M34.3062 10.9011C34.3062 10.0545 33.6212 9.36993 32.7767 9.36993H21.5704L28.7397 18.5527L34.0408 11.7622C34.208 11.5163 34.3062 11.2205 34.3062 10.9011" fill="black"/>
</svg>
