<svg width="48" height="48" viewBox="0 0 48 48" fill="none" xmlns="http://www.w3.org/2000/svg">
<g clip-path="url(#clip0_159_2376)">
<path d="M23.9993 31.0005C23.5706 31.0002 23.1534 30.8622 22.809 30.6069C22.4647 30.3516 22.2115 29.9924 22.0867 29.5823L17 12.8689L11.9134 29.5823C11.8373 29.8341 11.7124 30.0684 11.5457 30.2718C11.379 30.4752 11.1738 30.6438 10.9419 30.7678C10.7099 30.8918 10.4558 30.9689 10.1941 30.9945C9.93233 31.0202 9.66809 30.994 9.41648 30.9175C9.16487 30.8409 8.93083 30.7154 8.72776 30.5483C8.5247 30.3811 8.35659 30.1756 8.23307 29.9434C8.10955 29.7112 8.03304 29.4569 8.00792 29.1951C7.9828 28.9333 8.00957 28.6691 8.08668 28.4177L15.0867 5.41768C15.2115 5.0075 15.4649 4.6483 15.8094 4.39304C16.1539 4.13779 16.5713 4 17 4C17.4288 4 17.8462 4.13779 18.1907 4.39304C18.5352 4.6483 18.7885 5.0075 18.9134 5.41768L25.9134 28.4177C26.0041 28.7167 26.0236 29.0328 25.9703 29.3407C25.9169 29.6485 25.7922 29.9397 25.6062 30.1907C25.4202 30.4417 25.1779 30.6457 24.8989 30.7864C24.6198 30.927 24.3118 31.0003 23.9993 31.0005Z" fill="#FFD400"/>
<path d="M38 44H24C23.638 44 23.2828 43.9017 22.9723 43.7157C22.6617 43.5297 22.4075 43.2629 22.2367 42.9437C22.0659 42.6245 21.9849 42.265 22.0024 41.9034C22.0199 41.5418 22.1352 41.1918 22.336 40.8906L34.263 23H10C9.46957 23 8.96086 22.7893 8.58579 22.4142C8.21071 22.0391 8 21.5304 8 21C8 20.4696 8.21071 19.9609 8.58579 19.5858C8.96086 19.2107 9.46957 19 10 19H38C38.362 19 38.7172 19.0983 39.0277 19.2843C39.3383 19.4703 39.5925 19.7371 39.7633 20.0563C39.9341 20.3755 40.0151 20.735 39.9976 21.0966C39.9801 21.4582 39.8648 21.8082 39.6641 22.1094L27.737 40H38C38.5304 40 39.0391 40.2107 39.4142 40.5858C39.7893 40.9609 40 41.4696 40 42C40 42.5304 39.7893 43.0391 39.4142 43.4142C39.0391 43.7893 38.5304 44 38 44Z" fill="#FFC20E"/>
<path d="M18.2844 38.9421C18.0441 39.2942 17.6983 39.561 17.2968 39.7042C16.832 39.9005 16.3324 40.0011 15.8278 39.9999C15.0096 40.0471 14.2028 39.7905 13.5621 39.2794C13.2817 39.0211 13.0622 38.7036 12.9196 38.35C12.7769 37.9964 12.7147 37.6155 12.7375 37.2349C12.7181 36.7667 12.814 36.3009 13.0167 35.8785C13.2194 35.456 13.5227 35.0897 13.9 34.8118C14.8771 34.1711 16.0356 33.8643 17.2018 33.9375C17.4943 33.9443 17.785 33.9862 18.0675 34.0622C18.0675 33.013 17.404 32.4885 16.0771 32.4885C15.4006 32.4666 14.7281 32.6005 14.1115 32.8797L13.6625 31.2644C14.4648 30.9021 15.3385 30.7255 16.2185 30.748C17.5785 30.748 18.5108 31.0577 19.1435 31.6762C19.776 32.2958 20.0272 33.4685 20.0272 35.195V37.1018C20.0272 38.2896 20.3319 39.0368 20.809 39.3418C20.7029 39.5869 20.51 39.7841 20.2673 39.8955C20.0381 39.9684 19.7986 40.0036 19.558 39.9999C19.258 39.9986 18.9707 39.8787 18.7588 39.6663C18.5399 39.4707 18.3763 39.221 18.2844 38.9421ZM17.913 35.636C17.6793 35.5771 17.4404 35.541 17.1996 35.528C15.5557 35.528 14.7769 36.0666 14.7769 37.1433C14.7769 37.9426 15.1769 38.3425 16.1043 38.3425C17.3531 38.3425 17.913 37.7181 17.913 36.4687V35.636Z" fill="#00416B"/>
</g>
<defs>
<clipPath id="clip0_159_2376">
<rect width="48" height="48" fill="white"/>
</clipPath>
</defs>
</svg>
