<svg width="48" height="48" viewBox="0 0 48 48" fill="none" xmlns="http://www.w3.org/2000/svg">
<path d="M19.4908 39.3532L15.2122 37.5196C14.4768 37.2045 14 36.4814 14 35.6813V20.5002C14 19.8707 14.2944 19.2751 14.8152 18.9213C16.7608 17.5993 19.3204 16.1797 21.5 14.0001C23.3607 12.1394 23.8365 10.0017 23.9582 7.99927C24.0252 6.89673 24.9188 5.95909 25.9745 6.28403C31.3322 7.93315 31.7997 16.3007 30 19.0001H38C40.5 19.0001 44 19.0001 44 24C44 31.5001 40.5 40 32 40H22.642C21.5586 40 20.4865 39.78 19.4908 39.3532Z" fill="#FFD400"/>
<path d="M12 40H6C4.89543 40 4 39.1046 4 38V18C4 16.8954 4.89543 16 6 16H12C13.1046 16 14 16.8954 14 18V38C14 39.1046 13.1046 40 12 40Z" fill="#00416B"/>
<path d="M11 35C11 36.1046 10.1046 37 9 37C7.89543 37 7 36.1046 7 35C7 33.8954 7.89543 33 9 33C10.1046 33 11 33.8954 11 35Z" fill="#0083CA"/>
<path fill-rule="evenodd" clip-rule="evenodd" d="M30.0438 18.9328H14.7983C15.2482 18.6266 15.7312 18.3154 16.235 17.9908C17.9121 16.91 19.8191 15.6811 21.5 14.0001C23.3608 12.1394 23.8366 10.0017 23.9582 7.99927C24.0252 6.89673 24.9188 5.95909 25.9745 6.28403C31.2884 7.91966 31.7917 16.1643 30.0438 18.9328Z" fill="#FFC20E"/>
</svg>
