<svg width="48" height="48" viewBox="0 0 48 48" fill="none" xmlns="http://www.w3.org/2000/svg">
<g clip-path="url(#clip0_156_2320)">
<path d="M32 10.855V36.5C32.0001 36.7627 31.9484 37.0228 31.8479 37.2655C31.7474 37.5081 31.6001 37.7286 31.4144 37.9144C31.2286 38.1001 31.0081 38.2474 30.7655 38.3479C30.5228 38.4484 30.2627 38.5001 30 38.5H10C9.73734 38.5001 9.47723 38.4484 9.23455 38.3479C8.99186 38.2474 8.77136 38.1001 8.58563 37.9144C8.39989 37.7286 8.25258 37.5081 8.15209 37.2655C8.05161 37.0228 7.99993 36.7627 8 36.5V6C7.99993 5.73734 8.05161 5.47723 8.15209 5.23455C8.25258 4.99186 8.39989 4.77136 8.58563 4.58563C8.77136 4.39989 8.99186 4.25258 9.23455 4.15209C9.47723 4.05161 9.73734 3.99993 10 4H25.145L32 10.855Z" fill="#FFD400"/>
<path d="M32 18.5V36.5C32.0001 36.7627 31.9484 37.0228 31.8479 37.2655C31.7474 37.5081 31.6001 37.7286 31.4144 37.9144C31.2286 38.1001 31.0081 38.2474 30.7655 38.3479C30.5228 38.4484 30.2627 38.5001 30 38.5H12L32 18.5Z" fill="#FFC20E"/>
<path d="M27.0002 16C27.5525 16 28.0002 15.5523 28.0002 15C28.0002 14.4477 27.5525 14 27.0002 14L13.0002 14C12.448 14 12.0002 14.4477 12.0002 15C12.0002 15.5523 12.448 16 13.0002 16H27.0002Z" fill="#00416B"/>
<path d="M20.0002 22C20.5525 22 21.0002 21.5523 21.0002 21C21.0002 20.4477 20.5525 20 20.0002 20H13.0002C12.448 20 12.0002 20.4477 12.0002 21C12.0002 21.5523 12.448 22 13.0002 22H20.0002Z" fill="#00416B"/>
<path d="M17.0002 28C17.5525 28 18.0002 27.5523 18.0002 27C18.0002 26.4477 17.5525 26 17.0002 26H13.0002C12.448 26 12.0002 26.4477 12.0002 27C12.0002 27.5523 12.448 28 13.0002 28H17.0002Z" fill="#00416B"/>
<path d="M32.0002 10.8572H26.8573C26.6322 10.8572 26.4093 10.8129 26.2013 10.7267C25.9933 10.6406 25.8043 10.5143 25.6451 10.3551C25.486 10.1959 25.3597 10.0069 25.2735 9.79893C25.1874 9.59094 25.1431 9.36802 25.1431 9.1429V4L32.0002 10.8572Z" fill="#CD992B"/>
<path d="M31.7301 32.3158C31.3396 31.9253 30.7064 31.9253 30.3159 32.3158C29.9253 32.7064 29.9253 33.3395 30.3159 33.7301L34.2286 37.6428C34.6192 38.0334 35.2523 38.0334 35.6429 37.6428C36.0334 37.2523 36.0334 36.6191 35.6429 36.2286L31.7301 32.3158Z" fill="#0083CA"/>
<path d="M33.439 34.2082L32.2082 35.439C31.7671 35.8801 31.7671 36.5954 32.2082 37.0366L36.8405 41.6689C37.2817 42.11 37.997 42.11 38.4381 41.6689L39.6689 40.4381C40.1101 39.9969 40.1101 39.2816 39.6689 38.8404L35.0367 34.2082C34.5955 33.767 33.8802 33.767 33.439 34.2082Z" fill="#00416B"/>
<path d="M25.0411 35.7338C23.32 35.7338 21.6375 35.2234 20.2065 34.2672C18.7754 33.311 17.66 31.9519 17.0014 30.3618C16.3428 28.7717 16.1704 27.022 16.5062 25.334C16.842 23.646 17.6708 22.0954 18.8878 20.8784C20.1048 19.6614 21.6554 18.8326 23.3434 18.4968C25.0314 18.161 26.7811 18.3334 28.3712 18.992C29.9613 19.6506 31.3204 20.766 32.2766 22.1971C33.2328 23.6281 33.7432 25.3106 33.7432 27.0317C33.7406 29.3388 32.8229 31.5507 31.1915 33.1821C29.5601 34.8135 27.3482 35.7312 25.0411 35.7338ZM25.0411 20.782C23.805 20.782 22.5967 21.1485 21.5689 21.8352C20.5412 22.522 19.7401 23.498 19.2671 24.64C18.7941 25.782 18.6703 27.0386 18.9114 28.2509C19.1526 29.4632 19.7478 30.5768 20.6218 31.4509C21.4959 32.3249 22.6094 32.9202 23.8218 33.1613C25.0341 33.4025 26.2907 33.2787 27.4327 32.8057C28.5747 32.3326 29.5507 31.5316 30.2375 30.5038C30.9242 29.4761 31.2907 28.2678 31.2907 27.0317C31.2889 25.3747 30.6299 23.7862 29.4582 22.6146C28.2866 21.4429 26.698 20.7839 25.0411 20.782Z" fill="#00416B"/>
</g>
<defs>
<clipPath id="clip0_156_2320">
<rect width="48" height="48" fill="white"/>
</clipPath>
</defs>
</svg>
