<svg width="48" height="48" viewBox="0 0 48 48" fill="none" xmlns="http://www.w3.org/2000/svg">
<g clip-path="url(#clip0_156_2319)">
<path d="M32 10.7557V36.0291C31.9982 36.2898 31.945 36.5477 31.8435 36.7879C31.7419 37.0281 31.5941 37.2459 31.4084 37.4289C31.2226 37.612 31.0027 37.7566 30.761 37.8546C30.5194 37.9526 30.2608 38.002 30 38.0001H10C9.73924 38.002 9.48065 37.9526 9.23899 37.8546C8.99734 37.7566 8.77736 37.612 8.59163 37.4289C8.4059 37.2459 8.25805 37.0281 8.15654 36.7879C8.05502 36.5477 8.00183 36.2898 8 36.0291V5.97106C8.00183 5.7103 8.05502 5.45245 8.15654 5.21226C8.25805 4.97206 8.4059 4.75422 8.59163 4.57118C8.77736 4.38814 8.99734 4.24349 9.23899 4.1455C9.48065 4.0475 9.73924 3.99808 10 4.00006H25.145L32 10.7557Z" fill="#FFD400"/>
<path d="M32 18.29V36.029C31.9982 36.2898 31.945 36.5476 31.8435 36.7878C31.7419 37.028 31.5941 37.2459 31.4084 37.4289C31.2226 37.612 31.0027 37.7566 30.761 37.8546C30.5194 37.9526 30.2608 38.002 30 38H12L32 18.29Z" fill="#FFC20E"/>
<path d="M32 10.7582H26.8574C26.406 10.7615 25.9718 10.5853 25.6503 10.2684C25.3288 9.95151 25.1463 9.5199 25.1431 9.06849V4.00049L32 10.7582Z" fill="#CD992B"/>
<path d="M37 39H27C26.7348 39 26.4804 38.8946 26.2929 38.7071C26.1054 38.5196 26 38.2652 26 38C26 37.7348 26.1054 37.4804 26.2929 37.2929C26.4804 37.1054 26.7348 37 27 37H37C37.2652 37 37.5196 37.1054 37.7071 37.2929C37.8946 37.4804 38 37.7348 38 38C38 38.2652 37.8946 38.5196 37.7071 38.7071C37.5196 38.8946 37.2652 39 37 39Z" fill="#00416B"/>
<path d="M31 43V33C31 32.7348 31.1054 32.4804 31.2929 32.2929C31.4804 32.1054 31.7348 32 32 32C32.2652 32 32.5196 32.1054 32.7071 32.2929C32.8946 32.4804 33 32.7348 33 33V43C33 43.2652 32.8946 43.5196 32.7071 43.7071C32.5196 43.8946 32.2652 44 32 44C31.7348 44 31.4804 43.8946 31.2929 43.7071C31.1054 43.5196 31 43.2652 31 43Z" fill="#00416B"/>
<path d="M28 13H12C11.4477 13 11 13.4477 11 14C11 14.5523 11.4477 15 12 15H28C28.5523 15 29 14.5523 29 14C29 13.4477 28.5523 13 28 13Z" fill="#00416B"/>
<path d="M28 19H12C11.4477 19 11 19.4477 11 20C11 20.5523 11.4477 21 12 21H28C28.5523 21 29 20.5523 29 20C29 19.4477 28.5523 19 28 19Z" fill="#00416B"/>
<path d="M28 25H12C11.4477 25 11 25.4477 11 26C11 26.5523 11.4477 27 12 27H28C28.5523 27 29 26.5523 29 26C29 25.4477 28.5523 25 28 25Z" fill="#00416B"/>
<path d="M21 31H12C11.4477 31 11 31.4477 11 32C11 32.5523 11.4477 33 12 33H21C21.5523 33 22 32.5523 22 32C22 31.4477 21.5523 31 21 31Z" fill="#0083CA"/>
</g>
<defs>
<clipPath id="clip0_156_2319">
<rect width="48" height="48" fill="white"/>
</clipPath>
</defs>
</svg>
