<svg width="48" height="48" viewBox="0 0 48 48" fill="none" xmlns="http://www.w3.org/2000/svg">
<g clip-path="url(#clip0_157_2348)">
<path d="M8 18H40V38C40 38.5304 39.7893 39.0391 39.4142 39.4142C39.0391 39.7893 38.5304 40 38 40H10C9.46957 40 8.96086 39.7893 8.58579 39.4142C8.21071 39.0391 8 38.5304 8 38V18Z" fill="#FFC20E"/>
<path d="M18.5 27H29.5C30.0304 27 30.5391 27.2107 30.9142 27.5858C31.2893 27.9609 31.5 28.4696 31.5 29V40H16.5V29C16.5 28.4696 16.7107 27.9609 17.0858 27.5858C17.4609 27.2107 17.9696 27 18.5 27Z" fill="#00416B"/>
<path d="M20.5 8L15 13.5L9.95996 8.46C10.3194 8.16459 10.7697 8.00213 11.235 8H20.5Z" fill="#FFC20E"/>
<path d="M15 13.5L6.5 22H6.235C5.89425 21.9993 5.5593 21.9117 5.26183 21.7455C4.96436 21.5793 4.71419 21.34 4.535 21.0502C4.3558 20.7604 4.25349 20.4296 4.23774 20.0893C4.22199 19.7489 4.29332 19.4101 4.445 19.105L9.445 9.10496C9.57062 8.85692 9.74592 8.63737 9.96 8.45996L15 13.5Z" fill="#FFD400"/>
<path d="M23.5 22H6.5L15 13.5L23.5 22Z" fill="#FFE600"/>
<path d="M28.5 34.5H19.5C19.2348 34.5 18.9804 34.3946 18.7929 34.2071C18.6054 34.0196 18.5 33.7652 18.5 33.5C18.5 33.2348 18.6054 32.9804 18.7929 32.7929C18.9804 32.6054 19.2348 32.5 19.5 32.5H28.5C28.7652 32.5 29.0196 32.6054 29.2071 32.7929C29.3946 32.9804 29.5 33.2348 29.5 33.5C29.5 33.7652 29.3946 34.0196 29.2071 34.2071C29.0196 34.3946 28.7652 34.5 28.5 34.5Z" fill="#0083CA"/>
<path d="M43.555 19.105L38.555 9.105C38.3878 8.77345 38.1321 8.49469 37.8161 8.29964C37.5001 8.10459 37.1363 8.00088 36.765 8H20.5L15 13.5L23.5 22H41.765C42.1059 21.9998 42.4412 21.9126 42.7389 21.7465C43.0367 21.5804 43.287 21.341 43.4663 21.0511C43.6456 20.7611 43.7479 20.4301 43.7634 20.0895C43.7789 19.749 43.7072 19.4101 43.555 19.105Z" fill="#FFD400"/>
</g>
<defs>
<clipPath id="clip0_157_2348">
<rect width="48" height="48" fill="white"/>
</clipPath>
</defs>
</svg>
