<svg width="48" height="48" viewBox="0 0 48 48" fill="none" xmlns="http://www.w3.org/2000/svg">
<g clip-path="url(#clip0_157_2349)">
<path d="M7.68884 17.1733H37.0433V35.3546C37.0433 35.885 36.8326 36.3937 36.4576 36.7688C36.0825 37.1439 35.5738 37.3546 35.0433 37.3546H9.68884C9.15841 37.3546 8.6497 37.1439 8.27463 36.7688C7.89956 36.3937 7.68884 35.885 7.68884 35.3546V17.1733Z" fill="#FFC20E"/>
<path d="M17.4862 25.4292H27.2462C27.7766 25.4292 28.2853 25.6399 28.6604 26.015C29.0355 26.3901 29.2462 26.8988 29.2462 27.4292V37.3544H15.4862V27.4292C15.4862 26.8988 15.6969 26.3901 16.072 26.015C16.4471 25.6399 16.9558 25.4292 17.4862 25.4292Z" fill="#CD992B"/>
<path d="M19.1553 8L14.11 13.045L9.48669 8.4217C9.81643 8.15082 10.2295 8.00189 10.6562 8H19.1553Z" fill="#FFC20E"/>
<path d="M14.11 13.045L6.31268 20.8425H6.06958C5.757 20.8419 5.44974 20.7615 5.17686 20.6091C4.90398 20.4566 4.6745 20.2371 4.51011 19.9712C4.34573 19.7054 4.25188 19.402 4.23744 19.0897C4.22299 18.7775 4.28844 18.4667 4.42758 18.1868L9.01418 9.01353C9.1294 8.786 9.2902 8.58461 9.48658 8.42188L14.11 13.045Z" fill="#FFD400"/>
<path d="M21.907 20.8424H6.3125L14.11 13.0449L21.907 20.8424Z" fill="#FFE600"/>
<path d="M40.3042 18.1868L35.7176 9.01355C35.5642 8.70944 35.3296 8.45375 35.0397 8.27485C34.7499 8.09594 34.4162 8.00081 34.0756 8H19.1552L14.11 13.045L21.9072 20.8425H38.6622C38.9749 20.8423 39.2825 20.7623 39.5556 20.61C39.8287 20.4576 40.0584 20.238 40.2229 19.972C40.3874 19.706 40.4812 19.4024 40.4954 19.09C40.5097 18.7776 40.4438 18.4667 40.3042 18.1868Z" fill="#FFD400"/>
<path d="M38 32L43 25H33L38 32Z" fill="#0083CA"/>
<path d="M38 33C37.8408 32.9999 37.6839 32.9619 37.5424 32.8891C37.4008 32.8163 37.2787 32.7108 37.1861 32.5813L32.1861 25.5813C32.0792 25.4318 32.0157 25.2557 32.0024 25.0724C31.9891 24.8891 32.0265 24.7057 32.1106 24.5423C32.1947 24.3789 32.3222 24.2419 32.4791 24.1462C32.636 24.0505 32.8163 24 33 24H43C43.1838 24 43.364 24.0505 43.5209 24.1462C43.6778 24.2419 43.8053 24.3789 43.8894 24.5423C43.9735 24.7057 44.011 24.8891 43.9976 25.0724C43.9843 25.2557 43.9208 25.4318 43.814 25.5813L38.814 32.5813C38.7213 32.7108 38.5992 32.8163 38.4576 32.8891C38.3161 32.9619 38.1592 32.9999 38 33ZM34.9434 26L38 30.2796L41.0567 26H34.9434Z" fill="#00416B"/>
<path d="M43 40H33C32.8163 40.0001 32.636 39.9495 32.4791 39.8538C32.3222 39.7581 32.1947 39.6211 32.1106 39.4577C32.0265 39.2943 31.9891 39.1109 32.0024 38.9276C32.0157 38.7443 32.0792 38.5682 32.1861 38.4187L37.1861 31.4187C37.2786 31.2892 37.4008 31.1836 37.5424 31.1108C37.6839 31.038 37.8408 31 38 31C38.1592 31 38.3161 31.038 38.4577 31.1108C38.5992 31.1836 38.7214 31.2892 38.814 31.4187L43.814 38.4187C43.9208 38.5682 43.9843 38.7443 43.9976 38.9276C44.011 39.1109 43.9735 39.2943 43.8894 39.4577C43.8053 39.6211 43.6778 39.7581 43.5209 39.8538C43.364 39.9495 43.1838 40.0001 43 40ZM34.9434 38H41.0567L38 33.7205L34.9434 38Z" fill="#00416B"/>
</g>
<defs>
<clipPath id="clip0_157_2349">
<rect width="48" height="48" fill="white"/>
</clipPath>
</defs>
</svg>
