<svg width="48" height="48" viewBox="0 0 48 48" fill="none" xmlns="http://www.w3.org/2000/svg">
<g clip-path="url(#clip0_156_2325)">
<path d="M40.0002 10H8.00024C6.89567 10 6.00024 10.8954 6.00024 12V40C6.00024 41.1046 6.89567 42 8.00024 42H40.0002C41.1048 42 42.0002 41.1046 42.0002 40V12C42.0002 10.8954 41.1048 10 40.0002 10Z" fill="#FFD400"/>
<path d="M42 12.25V40C42.0001 40.2627 41.9484 40.5228 41.8479 40.7655C41.7474 41.0081 41.6001 41.2286 41.4144 41.4144C41.2286 41.6001 41.0081 41.7474 40.7655 41.8479C40.5228 41.9484 40.2627 42.0001 40 42H12.25L42 12.25Z" fill="#FFC20E"/>
<path d="M8 10H40C40.5304 10 41.0391 10.2107 41.4142 10.5858C41.7893 10.9609 42 11.4696 42 12V18H6V12C6 11.4696 6.21071 10.9609 6.58579 10.5858C6.96086 10.2107 7.46957 10 8 10Z" fill="#CD992B"/>
<path d="M17.0002 7C17.0002 6.44772 16.5525 6 16.0002 6C15.448 6 15.0002 6.44772 15.0002 7V11C15.0002 11.5523 15.448 12 16.0002 12C16.5525 12 17.0002 11.5523 17.0002 11V7Z" fill="#00416B"/>
<path d="M33.0002 7C33.0002 6.44772 32.5525 6 32.0002 6C31.448 6 31.0002 6.44772 31.0002 7V11C31.0002 11.5523 31.448 12 32.0002 12C32.5525 12 33.0002 11.5523 33.0002 11V7Z" fill="#00416B"/>
<path d="M14.0002 26C14.0002 24.8954 13.1048 24 12.0002 24C10.8957 24 10.0002 24.8954 10.0002 26C10.0002 27.1046 10.8957 28 12.0002 28C13.1048 28 14.0002 27.1046 14.0002 26Z" fill="#00416B"/>
<path d="M22.0002 26C22.0002 24.8954 21.1048 24 20.0002 24C18.8957 24 18.0002 24.8954 18.0002 26C18.0002 27.1046 18.8957 28 20.0002 28C21.1048 28 22.0002 27.1046 22.0002 26Z" fill="#00416B"/>
<path d="M30.0002 26C30.0002 24.8954 29.1048 24 28.0002 24C26.8957 24 26.0002 24.8954 26.0002 26C26.0002 27.1046 26.8957 28 28.0002 28C29.1048 28 30.0002 27.1046 30.0002 26Z" fill="#00416B"/>
<path d="M38.0002 26C38.0002 24.8954 37.1048 24 36.0002 24C34.8957 24 34.0002 24.8954 34.0002 26C34.0002 27.1046 34.8957 28 36.0002 28C37.1048 28 38.0002 27.1046 38.0002 26Z" fill="#0083CA"/>
<path d="M14.0002 34C14.0002 32.8954 13.1048 32 12.0002 32C10.8957 32 10.0002 32.8954 10.0002 34C10.0002 35.1046 10.8957 36 12.0002 36C13.1048 36 14.0002 35.1046 14.0002 34Z" fill="#00416B"/>
<path d="M22.0002 34C22.0002 32.8954 21.1048 32 20.0002 32C18.8957 32 18.0002 32.8954 18.0002 34C18.0002 35.1046 18.8957 36 20.0002 36C21.1048 36 22.0002 35.1046 22.0002 34Z" fill="#00416B"/>
<path d="M30.0002 34C30.0002 32.8954 29.1048 32 28.0002 32C26.8957 32 26.0002 32.8954 26.0002 34C26.0002 35.1046 26.8957 36 28.0002 36C29.1048 36 30.0002 35.1046 30.0002 34Z" fill="#00416B"/>
<path d="M38.0002 34C38.0002 32.8954 37.1048 32 36.0002 32C34.8957 32 34.0002 32.8954 34.0002 34C34.0002 35.1046 34.8957 36 36.0002 36C37.1048 36 38.0002 35.1046 38.0002 34Z" fill="#0083CA"/>
</g>
<defs>
<clipPath id="clip0_156_2325">
<rect width="48" height="48" fill="white"/>
</clipPath>
</defs>
</svg>
