<svg width="48" height="48" viewBox="0 0 48 48" fill="none" xmlns="http://www.w3.org/2000/svg">
<g clip-path="url(#clip0_156_2329)">
<path d="M40.0005 10H8.00049C6.89592 10 6.00049 10.8954 6.00049 12V40C6.00049 41.1046 6.89592 42 8.00049 42H40.0005C41.1051 42 42.0005 41.1046 42.0005 40V12C42.0005 10.8954 41.1051 10 40.0005 10Z" fill="#FFD400"/>
<path d="M42 12.25V40C42.0001 40.2627 41.9484 40.5228 41.8479 40.7655C41.7474 41.0081 41.6001 41.2286 41.4144 41.4144C41.2286 41.6001 41.0081 41.7474 40.7655 41.8479C40.5228 41.9484 40.2627 42.0001 40 42H12.25L42 12.25Z" fill="#FFC20E"/>
<path d="M8.00049 10H40.0005C40.5309 10 41.0396 10.2107 41.4147 10.5858C41.7898 10.9609 42.0005 11.4696 42.0005 12V18H6.00049V12C6.00049 11.4696 6.2112 10.9609 6.58627 10.5858C6.96135 10.2107 7.47006 10 8.00049 10Z" fill="#CD992B"/>
<path d="M17.0005 7C17.0005 6.44772 16.5528 6 16.0005 6C15.4482 6 15.0005 6.44772 15.0005 7V11C15.0005 11.5523 15.4482 12 16.0005 12C16.5528 12 17.0005 11.5523 17.0005 11V7Z" fill="#00416B"/>
<path d="M33.0005 7C33.0005 6.44772 32.5528 6 32.0005 6C31.4482 6 31.0005 6.44772 31.0005 7V11C31.0005 11.5523 31.4482 12 32.0005 12C32.5528 12 33.0005 11.5523 33.0005 11V7Z" fill="#00416B"/>
<path d="M31.5861 38.5001C31.9766 38.8906 32.6098 38.8906 33.0003 38.5001C33.3908 38.1096 33.3908 37.4764 33.0003 37.0859L24.697 28.7826C24.3064 28.392 23.6733 28.392 23.2828 28.7826C22.8922 29.1731 22.8922 29.8063 23.2828 30.1968L31.5861 38.5001Z" fill="#0083CA"/>
<path d="M25.0002 21.5C25.0002 20.9477 24.5525 20.5 24.0002 20.5C23.448 20.5 23.0002 20.9477 23.0002 21.5V29.5C23.0002 30.0523 23.448 30.5 24.0002 30.5C24.5525 30.5 25.0002 30.0523 25.0002 29.5V21.5Z" fill="#00416B"/>
</g>
<defs>
<clipPath id="clip0_156_2329">
<rect width="48" height="48" fill="white"/>
</clipPath>
</defs>
</svg>
