<svg width="48" height="48" viewBox="0 0 48 48" fill="none" xmlns="http://www.w3.org/2000/svg">
<g clip-path="url(#clip0_159_2393)">
<path d="M22.2762 8.93075L5.77296 36.9861C5.59426 37.2899 5.49901 37.6355 5.49686 37.988C5.49472 38.3404 5.58574 38.6872 5.76073 38.9931C5.93572 39.2991 6.18845 39.5533 6.49333 39.7302C6.79821 39.907 7.14441 40.0002 7.49686 40.0002H40.5032C40.8556 40.0002 41.2018 39.907 41.5067 39.7302C41.8116 39.5533 42.0643 39.2991 42.2393 38.9931C42.4143 38.6872 42.5053 38.3404 42.5032 37.988C42.501 37.6355 42.4058 37.2899 42.2271 36.9861L25.7239 8.93075C25.5473 8.63053 25.2953 8.38164 24.993 8.20872C24.6906 8.03579 24.3483 7.94482 24 7.94482C23.6517 7.94482 23.3094 8.03579 23.0071 8.20872C22.7047 8.38164 22.4528 8.63053 22.2762 8.93075Z" fill="#FFD400"/>
<path d="M40.505 39.9999H13.5L32.705 20.7949L42.225 36.9849C42.4041 37.2884 42.4997 37.6338 42.5023 37.9862C42.5049 38.3386 42.4143 38.6853 42.2397 38.9914C42.0651 39.2975 41.8127 39.552 41.508 39.7291C41.2034 39.9062 40.8574 39.9996 40.505 39.9999Z" fill="#FFC20E"/>
<path d="M24 30.7915C23.6044 30.7915 23.2178 30.9088 22.8889 31.1286C22.56 31.3483 22.3036 31.6607 22.1522 32.0261C22.0009 32.3916 21.9613 32.7937 22.0384 33.1817C22.1156 33.5696 22.3061 33.926 22.5858 34.2057C22.8655 34.4854 23.2219 34.6759 23.6098 34.7531C23.9978 34.8302 24.3999 34.7906 24.7654 34.6393C25.1308 34.4879 25.4432 34.2315 25.6629 33.9026C25.8827 33.5737 26 33.1871 26 32.7915C25.9994 32.2613 25.7884 31.7529 25.4135 31.378C25.0386 31.0031 24.5302 30.7921 24 30.7915Z" fill="#00416B"/>
<path d="M24 28.7913C24.3616 28.7912 24.7096 28.6536 24.9736 28.4065C25.2376 28.1595 25.3978 27.8213 25.4219 27.4606L25.8985 20.3115C25.9115 20.1168 25.8843 19.9215 25.8188 19.7377C25.7532 19.5539 25.6506 19.3855 25.5173 19.243C25.384 19.1005 25.2228 18.9869 25.0438 18.9092C24.8648 18.8316 24.6717 18.7915 24.4766 18.7915H23.5235C23.3283 18.7915 23.1353 18.8316 22.9562 18.9092C22.7772 18.9869 22.6161 19.1005 22.4827 19.243C22.3494 19.3855 22.2468 19.5539 22.1812 19.7377C22.1157 19.9215 22.0885 20.1168 22.1016 20.3115L22.5782 27.4606C22.6021 27.8214 22.7623 28.1596 23.0263 28.4067C23.2903 28.6538 23.6384 28.7913 24 28.7913Z" fill="#00416B"/>
</g>
<defs>
<clipPath id="clip0_159_2393">
<rect width="48" height="48" fill="white"/>
</clipPath>
</defs>
</svg>
