<svg width="48" height="48" viewBox="0 0 48 48" fill="none" xmlns="http://www.w3.org/2000/svg">
<g clip-path="url(#clip0_159_2395)">
<path d="M24 4C20.0444 4 16.1776 5.17298 12.8886 7.37061C9.59962 9.56824 7.03617 12.6918 5.52242 16.3463C4.00867 20.0009 3.6126 24.0222 4.3843 27.9018C5.15601 31.7814 7.06082 35.3451 9.85787 38.1421C12.6549 40.9392 16.2186 42.844 20.0982 43.6157C23.9778 44.3874 27.9992 43.9913 31.6537 42.4776C35.3082 40.9638 38.4318 38.4004 40.6294 35.1114C42.827 31.8224 44 27.9556 44 24C44 21.3736 43.4827 18.7728 42.4776 16.3463C41.4725 13.9198 39.9993 11.715 38.1421 9.85786C36.285 8.00069 34.0802 6.5275 31.6537 5.52241C29.2272 4.51732 26.6264 4 24 4ZM24 40C20.8355 40 17.7421 39.0616 15.1109 37.3035C12.4797 35.5454 10.4289 33.0466 9.21794 30.1229C8.00693 27.1993 7.69008 23.9823 8.30744 20.8786C8.92481 17.7749 10.4487 14.9239 12.6863 12.6863C14.9239 10.4487 17.7749 8.9248 20.8786 8.30744C23.9823 7.69007 27.1993 8.00693 30.1229 9.21793C33.0466 10.4289 35.5454 12.4797 37.3035 15.1109C39.0616 17.7421 40 20.8355 40 24C40 28.2435 38.3143 32.3131 35.3137 35.3137C32.3131 38.3143 28.2435 40 24 40Z" fill="#FFD400"/>
<path d="M24 12C21.6266 12 19.3066 12.7038 17.3332 14.0224C15.3598 15.3409 13.8217 17.2151 12.9135 19.4078C12.0052 21.6005 11.7676 24.0133 12.2306 26.3411C12.6936 28.6689 13.8365 30.8071 15.5147 32.4853C17.193 34.1635 19.3312 35.3064 21.6589 35.7694C23.9867 36.2324 26.3995 35.9948 28.5922 35.0866C30.7849 34.1783 32.6591 32.6402 33.9776 30.6668C35.2962 28.6935 36 26.3734 36 24C36 20.8174 34.7357 17.7652 32.4853 15.5147C30.2349 13.2643 27.1826 12 24 12ZM24 32C22.4178 32 20.871 31.5308 19.5554 30.6518C18.2399 29.7727 17.2145 28.5233 16.609 27.0615C16.0035 25.5997 15.845 23.9911 16.1537 22.4393C16.4624 20.8874 17.2243 19.462 18.3432 18.3431C19.462 17.2243 20.8874 16.4624 22.4393 16.1537C23.9911 15.845 25.5997 16.0035 27.0615 16.609C28.5233 17.2145 29.7727 18.2398 30.6518 19.5554C31.5308 20.871 32 22.4177 32 24C32 26.1217 31.1572 28.1566 29.6569 29.6569C28.1566 31.1571 26.1217 32 24 32Z" fill="#FFD400"/>
<path d="M24 28C26.2091 28 28 26.2091 28 24C28 21.7909 26.2091 20 24 20C21.7909 20 20 21.7909 20 24C20 26.2091 21.7909 28 24 28Z" fill="#FFD400"/>
<path d="M44 23.9999C44.0006 27.9555 42.828 31.8225 40.6305 35.1116C38.4331 38.4007 35.3095 40.9642 31.6549 42.4779C28.0003 43.9915 23.9789 44.3873 20.0994 43.6151C16.2198 42.8429 12.6565 40.9375 9.85999 38.1399L12.685 35.3149C15.6859 38.3158 19.756 40.0017 24 40.0017C28.2439 40.0017 32.3141 38.3158 35.315 35.3149C38.3159 32.3139 40.0018 28.2438 40.0018 23.9999C40.0018 19.7559 38.3159 15.6858 35.315 12.6849L38.14 9.85986C40.0001 11.7146 41.4753 13.9185 42.481 16.3451C43.4866 18.7717 44.0028 21.3731 44 23.9999Z" fill="#FFC20E"/>
<path d="M35.9999 24.0001C36 26.3735 35.2962 28.6936 33.9777 30.667C32.6591 32.6404 30.785 34.1785 28.5923 35.0868C26.3995 35.995 23.9867 36.2326 21.659 35.7695C19.3312 35.3064 17.193 34.1634 15.5149 32.4851L18.3399 29.6601C19.8429 31.1524 21.876 31.9882 23.994 31.9844C26.1119 31.9806 28.142 31.1375 29.6397 29.6399C31.1373 28.1423 31.9803 26.1122 31.9841 23.9942C31.9879 21.8762 31.1521 19.8431 29.6599 18.3401L32.4849 15.5151C33.6001 16.6288 34.4845 17.9515 35.0877 19.4075C35.6909 20.8635 36.0009 22.4241 35.9999 24.0001Z" fill="#FFC20E"/>
<path d="M27.9999 23.9999C27.9995 24.791 27.7646 25.5643 27.325 26.222C26.8853 26.8797 26.2606 27.3923 25.5297 27.6951C24.7989 27.998 23.9947 28.0774 23.2187 27.9234C22.4427 27.7694 21.7298 27.3889 21.1699 26.8299L26.8299 21.1699C27.5792 21.9211 28 22.9389 27.9999 23.9999Z" fill="#FFC20E"/>
<path d="M23.2928 23.2929L35.3492 11.2365L36.7634 12.6508L24.707 24.7071C24.5195 24.8946 24.2651 25 23.9999 25C23.7347 25 23.4803 24.8946 23.2928 24.7071C23.1053 24.5196 22.9999 24.2652 22.9999 24C22.9999 23.7348 23.1053 23.4804 23.2928 23.2929Z" fill="#00416B"/>
<path d="M41.5349 9.2932L38.7316 12.0965C38.3565 12.4716 37.8478 12.6823 37.3174 12.6823H35.8174C35.6848 12.6823 35.5576 12.6296 35.4638 12.5359C35.3701 12.4421 35.3174 12.3149 35.3174 12.1823V10.6823C35.3174 10.4197 35.3691 10.1596 35.4696 9.91692C35.5701 9.67426 35.7175 9.45377 35.9032 9.26805L38.7065 6.4648C38.7764 6.39488 38.8655 6.34726 38.9625 6.32797C39.0595 6.30867 39.16 6.31858 39.2514 6.35642C39.3427 6.39426 39.4208 6.45835 39.4758 6.54057C39.5307 6.62279 39.56 6.71946 39.56 6.81835V7.9398C39.56 8.00546 39.573 8.07048 39.5981 8.13114C39.6232 8.19181 39.66 8.24693 39.7065 8.29336C39.7529 8.33979 39.808 8.37662 39.8687 8.40174C39.9294 8.42687 39.9944 8.4398 40.06 8.4398H41.1814C41.2802 8.43984 41.3769 8.46919 41.459 8.52412C41.5412 8.57906 41.6053 8.65713 41.6431 8.74846C41.6809 8.83979 41.6909 8.94028 41.6716 9.03724C41.6523 9.1342 41.6048 9.22327 41.5349 9.2932Z" fill="#0083CA"/>
</g>
<defs>
<clipPath id="clip0_159_2395">
<rect width="48" height="48" fill="white"/>
</clipPath>
</defs>
</svg>
