<svg width="48" height="48" viewBox="0 0 48 48" fill="none" xmlns="http://www.w3.org/2000/svg">
<g clip-path="url(#clip0_155_2259)">
<path d="M30.8226 20.6544C32.592 18.915 33.628 16.564 33.7176 14.0844C33.7828 11.5013 32.8292 8.99624 31.063 7.11023C29.2967 5.22422 26.8595 4.10864 24.2776 4.00443C22.3309 3.94566 20.4115 4.47306 18.7681 5.51824C17.1247 6.56341 15.8332 8.07817 15.061 9.86613C14.2888 11.6541 14.0716 13.6328 14.4374 15.5457C14.8032 17.4586 15.7352 19.2175 17.1126 20.5944C17.3603 20.837 17.5465 21.1352 17.6556 21.4643C17.7646 21.7933 17.7934 22.1437 17.7396 22.4862C17.6858 22.8286 17.5509 23.1533 17.3462 23.433C17.1414 23.7128 16.8728 23.9396 16.5626 24.0944C14.4076 25.1307 12.5186 26.647 11.0408 28.527C9.56298 30.407 8.53564 32.6006 8.03764 34.9394C7.97881 35.2523 7.98973 35.5744 8.06961 35.8826C8.14949 36.1908 8.29637 36.4776 8.49977 36.7225C8.70318 36.9675 8.95812 37.1646 9.2464 37.2997C9.53469 37.4349 9.84924 37.5048 10.1676 37.5044H37.8226C38.1415 37.5055 38.4566 37.4361 38.7455 37.3013C39.0344 37.1665 39.2899 36.9695 39.4939 36.7245C39.6979 36.4794 39.8452 36.1924 39.9254 35.8838C40.0055 35.5752 40.0165 35.2528 39.9576 34.9394C39.4575 32.6027 38.4293 30.4114 36.9516 28.5333C35.474 26.6553 33.5861 25.1403 31.4326 24.1044C31.1229 23.9573 30.8529 23.7383 30.6451 23.4655C30.4373 23.1928 30.2977 22.8744 30.238 22.5367C30.1783 22.1991 30.2002 21.8521 30.3019 21.5246C30.4036 21.1972 30.5822 20.8988 30.8226 20.6544Z" fill="#FFD400"/>
<path d="M31.9977 24.4044C31.8127 24.2994 31.6227 24.1994 31.4327 24.1044C31.1225 23.9571 30.852 23.7379 30.6438 23.465C30.4355 23.1921 30.2954 22.8733 30.2353 22.5353C30.1751 22.1973 30.1966 21.8498 30.2979 21.5217C30.3992 21.1937 30.5774 20.8946 30.8177 20.6494C32.5684 18.9438 33.6038 16.6354 33.7134 14.1936C33.823 11.7519 32.9985 9.36002 31.4077 7.50439C31.8527 9.42939 32.2777 23.5044 17.2877 23.5044L16.9977 37.5044H31.9977V24.4044Z" fill="#FFC20E"/>
<path d="M13.9977 37.5044H33.9977L36.0327 27.5044C34.7622 26.0579 33.1927 24.9047 31.4327 24.1244C31.1452 23.974 30.8943 23.7624 30.6977 23.5044L23.9977 28.7294L17.2877 23.5044C17.0921 23.753 16.8447 23.956 16.5627 24.0994C15.6386 24.4544 12.8627 26.2144 11.9877 27.4494L13.9977 37.5044Z" fill="#CD992B"/>
<path d="M17.289 23.4683C17.1774 23.5253 17.0912 23.6223 17.0477 23.7399C17.0042 23.8576 17.0064 23.9872 17.054 24.1033L19.924 30.6033C19.9748 30.7156 20.0681 30.8031 20.1835 30.8466C20.2988 30.8902 20.4267 30.8861 20.539 30.8354L20.544 30.8333L23.759 29.3333C23.8695 29.2763 23.9548 29.1801 23.9982 29.0637C24.0417 28.9472 24.0402 28.8187 23.994 28.7033L17.289 23.4683Z" fill="#0083CA"/>
<path d="M30.6676 23.4683C30.7784 23.5262 30.8635 23.6235 30.906 23.7411C30.9486 23.8586 30.9456 23.9878 30.8976 24.1033L28.0276 30.6033C27.9768 30.7156 27.8835 30.8031 27.7682 30.8466C27.6529 30.8902 27.525 30.8861 27.4126 30.8354L27.4076 30.8333L24.1976 29.3333C24.0863 29.2771 23.9999 29.1814 23.9555 29.0648C23.9111 28.9482 23.9118 28.8193 23.9576 28.7033L30.6676 23.4683Z" fill="#0083CA"/>
<path fill-rule="evenodd" clip-rule="evenodd" d="M38.4995 35.0081C38.1713 34.2896 37.6383 33.684 36.9673 33.2671L37.214 32.6945C37.2717 32.5607 37.2747 32.4097 37.2225 32.2738C37.1702 32.1378 37.0668 32.0277 36.9344 31.967L36.195 31.628C36.0659 31.5688 35.919 31.5611 35.7844 31.6065C35.6498 31.6519 35.5376 31.747 35.4707 31.8724L35.1362 32.4995C34.7526 32.3232 34.3376 32.225 33.9156 32.2107C33.4936 32.1965 33.0729 32.2664 32.6782 32.4165L32.4836 31.9165C32.4571 31.8483 32.4173 31.7859 32.3666 31.7331C32.316 31.6802 32.2554 31.6378 32.1883 31.6083C32.1213 31.5789 32.0491 31.5629 31.9758 31.5614C31.9026 31.5599 31.8298 31.5728 31.7616 31.5994L31.4039 31.7388C31.2662 31.7925 31.1554 31.8987 31.096 32.034C31.0365 32.1693 31.0332 32.3227 31.0868 32.4604L31.2681 32.9263C29.9155 33.5843 29.9903 33.8839 29.5567 34.5259L29.0267 34.2829C28.9588 34.2517 28.8853 34.2345 28.8105 34.2323C28.7358 34.2301 28.6615 34.243 28.5918 34.2701C28.5222 34.2973 28.4587 34.3381 28.4052 34.3903C28.3516 34.4424 28.3091 34.5048 28.2802 34.5737L27.9691 35.3149C27.9151 35.4436 27.9113 35.588 27.9585 35.7194C28.0057 35.8508 28.1005 35.9596 28.2241 36.0245L28.833 36.3441C28.5978 37.1387 28.5914 37.9835 28.8145 38.7816L28.2066 39.0183C28.0688 39.0719 27.958 39.1781 27.8985 39.3135C27.839 39.4488 27.8357 39.6023 27.8893 39.7401L28.0287 40.0981C28.0553 40.1664 28.095 40.2287 28.1457 40.2816C28.1963 40.3344 28.2569 40.3768 28.3239 40.4063C28.391 40.4357 28.4631 40.4517 28.5364 40.4533C28.6096 40.4548 28.6824 40.4419 28.7506 40.4154L29.3356 40.1876C29.6253 40.9626 30.1888 41.6047 30.9196 41.9926L30.6485 42.7016C30.5983 42.8328 30.5995 42.9782 30.6519 43.1085C30.7043 43.2389 30.804 43.3447 30.931 43.4048L31.7028 43.7698C31.833 43.8313 31.982 43.8401 32.1185 43.7943C32.255 43.7484 32.3685 43.6516 32.4352 43.5239L32.7946 42.8361C33.5138 43.0292 33.7072 43.3156 35.1573 42.9081L35.4443 43.6448C35.4979 43.7825 35.6041 43.8933 35.7395 43.9528C35.8749 44.0123 36.0283 44.0156 36.1661 43.9619L36.524 43.8226C36.5922 43.796 36.6546 43.7563 36.7074 43.7056C36.7603 43.6549 36.8027 43.5944 36.8321 43.5273C36.8616 43.4603 36.8775 43.3881 36.8791 43.3149C36.8807 43.2417 36.8678 43.1689 36.8412 43.1007L36.5675 42.3981C37.9244 41.7511 37.8238 41.4881 38.2433 40.8781L38.8883 41.1653C38.9561 41.1954 39.0292 41.2118 39.1033 41.2133C39.1775 41.2149 39.2512 41.2017 39.3202 41.1744C39.3892 41.1471 39.452 41.1063 39.505 41.0544C39.558 41.0025 39.6002 40.9406 39.6289 40.8722L39.9563 40.0943C40.0081 39.9712 40.014 39.8336 39.973 39.7066C39.9319 39.5795 39.8466 39.4714 39.7326 39.4019L38.9699 38.9369L38.9684 38.9331C39.2828 38.1285 39.2893 37.2362 38.9868 36.4271L39.5851 36.1939C39.7229 36.1402 39.8337 36.034 39.8931 35.8986C39.9526 35.7633 39.9559 35.6098 39.9022 35.4721L39.7629 35.1143C39.7363 35.046 39.6966 34.9837 39.6459 34.9308C39.5952 34.8779 39.5346 34.8356 39.4676 34.8061C39.4005 34.7767 39.3284 34.7607 39.2551 34.7591C39.1819 34.7576 39.1091 34.7705 39.0409 34.7971L38.4995 35.0081ZM34.916 40.177C34.4202 40.3887 33.8726 40.4476 33.3431 40.3461C32.8137 40.2446 32.3266 39.9874 31.9443 39.6073C31.562 39.2272 31.3019 38.7417 31.1973 38.2128C31.0927 37.684 31.1484 37.136 31.3572 36.639C31.566 36.142 31.9185 35.7187 32.3694 35.4233C32.8203 35.1279 33.3492 34.9738 33.8882 34.9809C34.4272 34.9879 34.9519 35.1557 35.3949 35.4629C35.838 35.77 36.1792 36.2023 36.375 36.7046C36.6414 37.3586 36.6374 38.0916 36.3639 38.7427C36.0903 39.3937 35.5696 39.9096 34.916 40.177Z" fill="#00416B"/>
</g>
<defs>
<clipPath id="clip0_155_2259">
<rect width="48" height="48" fill="white"/>
</clipPath>
</defs>
</svg>
