<svg width="48" height="48" viewBox="0 0 48 48" fill="none" xmlns="http://www.w3.org/2000/svg">
<g clip-path="url(#clip0_155_2253)">
<path d="M30.825 21.15C32.5943 19.4106 33.6303 17.0596 33.72 14.58C33.7851 11.9969 32.8315 9.49185 31.0653 7.60584C29.299 5.71983 26.8618 4.60425 24.28 4.50003C22.3333 4.44127 20.4138 4.96866 18.7704 6.01384C17.127 7.05902 15.8355 8.57377 15.0633 10.3617C14.2911 12.1497 14.0739 14.1284 14.4397 16.0413C14.8055 17.9542 15.7375 19.7132 17.115 21.09C17.3627 21.3326 17.5488 21.6308 17.6579 21.9599C17.7669 22.2889 17.7958 22.6393 17.7419 22.9818C17.6881 23.3242 17.5532 23.6489 17.3485 23.9286C17.1438 24.2084 16.8751 24.4352 16.565 24.59C14.4099 25.6263 12.5209 27.1426 11.0431 29.0226C9.5653 30.9026 8.53796 33.0962 8.03996 35.435C7.98113 35.7479 7.99205 36.07 8.07193 36.3782C8.15181 36.6864 8.29868 36.9732 8.50209 37.2182C8.7055 37.4631 8.96043 37.6602 9.24872 37.7953C9.53701 37.9305 9.85156 38.0004 10.17 38H37.825C38.1438 38.0011 38.4589 37.9317 38.7478 37.7969C39.0367 37.6621 39.2923 37.4651 39.4962 37.2201C39.7002 36.975 39.8475 36.688 39.9277 36.3794C40.0078 36.0708 40.0189 35.7484 39.96 35.435C39.4599 33.0983 38.4316 30.907 36.954 29.0289C35.4763 27.1509 33.5884 25.6359 31.435 24.6C31.1252 24.4529 30.8552 24.2339 30.6474 23.9611C30.4396 23.6884 30.3 23.37 30.2403 23.0323C30.1806 22.6947 30.2025 22.3477 30.3042 22.0202C30.4059 21.6928 30.5845 21.3944 30.825 21.15Z" fill="#FFD400"/>
<path d="M32 24.9C31.815 24.795 31.625 24.695 31.435 24.6C31.1248 24.4528 30.8544 24.2335 30.6461 23.9606C30.4378 23.6877 30.2977 23.3689 30.2376 23.0309C30.1774 22.6929 30.1989 22.3454 30.3002 22.0174C30.4015 21.6893 30.5797 21.3902 30.82 21.145C32.5707 19.4394 33.6061 17.131 33.7157 14.6892C33.8253 12.2475 33.0009 9.85563 31.41 8C31.855 9.925 32.28 24 17.29 24L17 38H32V24.9Z" fill="#FFC20E"/>
<path d="M14 38H34L36.035 28C34.7645 26.5535 33.195 25.4003 31.435 24.62C31.1475 24.4696 30.8966 24.258 30.7 24L24 29.225L17.29 24C17.0943 24.2486 16.847 24.4516 16.565 24.595C15.6409 24.95 12.865 26.71 11.99 27.945L14 38Z" fill="#CD992B"/>
<path d="M17.2913 23.9636C17.1797 24.0207 17.0935 24.1177 17.05 24.2353C17.0065 24.3529 17.0087 24.4826 17.0563 24.5986L19.9263 31.0986C19.9771 31.2109 20.0705 31.2985 20.1858 31.342C20.3011 31.3855 20.429 31.3815 20.5413 31.3308L20.5463 31.3286L23.7613 29.8286C23.8718 29.7716 23.9571 29.6755 24.0006 29.559C24.044 29.4425 24.0425 29.3141 23.9963 29.1986L17.2913 23.9636Z" fill="#0083CA"/>
<path d="M30.67 23.9636C30.7807 24.0216 30.8658 24.1189 30.9084 24.2364C30.9509 24.354 30.9479 24.4832 30.9 24.5986L28.03 31.0986C27.9791 31.2109 27.8858 31.2985 27.7705 31.342C27.6552 31.3855 27.5273 31.3815 27.415 31.3308L27.41 31.3286L24.2 29.8286C24.0886 29.7725 24.0022 29.6767 23.9578 29.5602C23.9134 29.4436 23.9142 29.3146 23.96 29.1986L30.67 23.9636Z" fill="#0083CA"/>
<path d="M41 39H31C30.7348 39 30.4804 38.8946 30.2929 38.7071C30.1054 38.5196 30 38.2652 30 38C30 37.7348 30.1054 37.4804 30.2929 37.2929C30.4804 37.1054 30.7348 37 31 37H41C41.2652 37 41.5196 37.1054 41.7071 37.2929C41.8946 37.4804 42 37.7348 42 38C42 38.2652 41.8946 38.5196 41.7071 38.7071C41.5196 38.8946 41.2652 39 41 39Z" fill="#00416B"/>
<path d="M35 43V33C35 32.7348 35.1054 32.4804 35.2929 32.2929C35.4804 32.1054 35.7348 32 36 32C36.2652 32 36.5196 32.1054 36.7071 32.2929C36.8946 32.4804 37 32.7348 37 33V43C37 43.2652 36.8946 43.5196 36.7071 43.7071C36.5196 43.8946 36.2652 44 36 44C35.7348 44 35.4804 43.8946 35.2929 43.7071C35.1054 43.5196 35 43.2652 35 43Z" fill="#00416B"/>
</g>
<defs>
<clipPath id="clip0_155_2253">
<rect width="48" height="48" fill="white"/>
</clipPath>
</defs>
</svg>
