<svg width="48" height="48" viewBox="0 0 48 48" fill="none" xmlns="http://www.w3.org/2000/svg">
<g clip-path="url(#clip0_155_2255)">
<path d="M35.632 22.5509C37.1517 21.0607 38.0406 19.0435 38.115 16.9164C38.1692 14.7027 37.351 12.5564 35.8368 10.9406C34.3225 9.3249 32.2338 8.36927 30.0212 8.27996C28.3534 8.23099 26.7093 8.68374 25.3017 9.5796C23.8941 10.4755 22.7877 11.7732 22.1259 13.3048C21.464 14.8365 21.2771 16.5315 21.5894 18.1705C21.9016 19.8096 22.6986 21.3172 23.8772 22.4982C24.0924 22.7058 24.2545 22.9622 24.3496 23.2457C24.4447 23.5292 24.4702 23.8314 24.4237 24.1268C24.3773 24.4222 24.2603 24.7021 24.0828 24.9427C23.9053 25.1833 23.6724 25.3776 23.4038 25.5091C21.5576 26.3972 19.9392 27.6962 18.6725 29.3065C17.4059 30.9168 16.5247 32.7956 16.0965 34.7991C16.046 35.0677 16.0553 35.344 16.1239 35.6085C16.1924 35.8731 16.3185 36.1192 16.4931 36.3294C16.6677 36.5396 16.8865 36.7086 17.134 36.8246C17.3814 36.9405 17.6514 37.0004 17.9247 37H41.6378C41.9111 37.0004 42.181 36.9405 42.4285 36.8246C42.6759 36.7086 42.8947 36.5396 43.0693 36.3294C43.2439 36.1192 43.37 35.8731 43.4386 35.6086C43.5071 35.3441 43.5165 35.0677 43.466 34.7992C43.0377 32.7956 42.1565 30.9166 40.8898 29.3063C39.6231 27.6959 38.0046 26.3969 36.1583 25.5088C35.8923 25.3832 35.6602 25.1957 35.4815 24.9621C35.3029 24.7284 35.1827 24.4554 35.1312 24.1658C35.0797 23.8762 35.0983 23.5784 35.1854 23.2975C35.2725 23.0165 35.4257 22.7605 35.632 22.5509Z" fill="#CD992B"/>
<path d="M25.0919 24.7966C26.691 23.2285 27.6263 21.106 27.7046 18.8678C27.7617 16.5385 26.9008 14.28 25.3075 12.5799C23.7142 10.8797 21.5163 9.87414 19.1882 9.78015C17.4333 9.72859 15.7033 10.205 14.2221 11.1476C12.7409 12.0902 11.5768 13.4557 10.8804 15.0674C10.1839 16.679 9.98727 18.4626 10.3158 20.1872C10.6444 21.9119 11.483 23.4982 12.7232 24.741C12.9496 24.9594 13.1201 25.2292 13.2202 25.5275C13.3203 25.8257 13.3471 26.1438 13.2982 26.4546C13.2493 26.7654 13.1263 27.0599 12.9395 27.313C12.7527 27.5662 12.5076 27.7707 12.225 27.909C10.2824 28.8436 8.57946 30.2105 7.24673 31.9049C5.91399 33.5993 4.98681 35.5763 4.53623 37.6845C4.48309 37.967 4.49296 38.2578 4.56511 38.5362C4.63727 38.8145 4.76994 39.0735 4.95368 39.2946C5.13741 39.5158 5.36767 39.6937 5.62805 39.8156C5.88843 39.9376 6.17251 40.0006 6.46003 40.0002H31.4114C31.6989 40.0006 31.983 39.9375 32.2433 39.8156C32.5037 39.6936 32.7339 39.5157 32.9176 39.2945C33.1014 39.0734 33.234 38.8144 33.3062 38.5361C33.3783 38.2578 33.3882 37.967 33.335 37.6845C32.8844 35.5762 31.9571 33.5992 30.6243 31.9047C29.2915 30.2103 27.5884 28.8434 25.6457 27.9089C25.3658 27.7767 25.1216 27.5795 24.9336 27.3336C24.7456 27.0878 24.6192 26.8005 24.565 26.4957C24.5108 26.191 24.5303 25.8777 24.622 25.5821C24.7137 25.2865 24.8748 25.0171 25.0919 24.7966Z" fill="#FFD400"/>
<path d="M31.41 40.0001H9.39001L17.125 27.3751C27.55 23.5851 26.025 14.6701 25.62 12.9351C27.0554 14.6091 27.7996 16.7669 27.7011 18.9699C27.6027 21.1729 26.669 23.2557 25.09 24.7951C24.8734 25.0162 24.7128 25.2859 24.6215 25.5817C24.5302 25.8774 24.5109 26.1908 24.5652 26.4955C24.6195 26.8003 24.7458 27.0876 24.9336 27.3337C25.1215 27.5797 25.3654 27.7773 25.645 27.9101C27.5882 28.8439 29.2916 30.2105 30.6246 31.905C31.9576 33.5994 32.8848 35.5767 33.335 37.6851C33.3883 37.9677 33.3785 38.2586 33.3063 38.5371C33.2342 38.8155 33.1014 39.0746 32.9175 39.2957C32.7336 39.5169 32.5031 39.6947 32.2425 39.8164C31.9819 39.9382 31.6976 40.0009 31.41 40.0001Z" fill="#FFC20E"/>
<path d="M17.0576 27.2988H20.8137C20.9533 27.2988 21.0901 27.3377 21.2089 27.411C21.3276 27.4844 21.4236 27.5894 21.486 27.7143C21.5485 27.8391 21.5749 27.9789 21.5623 28.1179C21.5498 28.257 21.4988 28.3898 21.415 28.5014L19.537 31.0055C19.467 31.0988 19.3762 31.1746 19.2718 31.2268C19.1675 31.279 19.0524 31.3061 18.9357 31.3061C18.819 31.3061 18.7039 31.279 18.5995 31.2268C18.4952 31.1746 18.4044 31.0988 18.3344 31.0055L16.4563 28.5014C16.3726 28.3898 16.3216 28.257 16.3091 28.118C16.2965 27.979 16.323 27.8392 16.3854 27.7144C16.4478 27.5895 16.5437 27.4845 16.6625 27.4111C16.7812 27.3377 16.918 27.2988 17.0576 27.2988Z" fill="#00416B"/>
<path d="M19.959 31.0751L21.7823 38.7034C21.8192 38.858 21.8206 39.019 21.7864 39.1743C21.7522 39.3295 21.6833 39.475 21.5848 39.5998C21.4863 39.7246 21.3608 39.8254 21.2178 39.8947C21.0748 39.9641 20.9179 40.0001 20.7589 40.0001H17.1123C16.9533 40.0001 16.7964 39.9641 16.6533 39.8947C16.5103 39.8254 16.3848 39.7245 16.2863 39.5997C16.1878 39.4749 16.1189 39.3294 16.0847 39.1742C16.0505 39.0189 16.0519 38.8579 16.0889 38.7033L17.9122 31.0751C17.9672 30.8451 18.0981 30.6403 18.2838 30.4938C18.4694 30.3473 18.6991 30.2676 18.9356 30.2676C19.1721 30.2676 19.4017 30.3473 19.5874 30.4938C19.7731 30.6403 19.904 30.8451 19.959 31.0751Z" fill="#00416B"/>
</g>
<defs>
<clipPath id="clip0_155_2255">
<rect width="48" height="48" fill="white"/>
</clipPath>
</defs>
</svg>
