<svg width="48" height="48" viewBox="0 0 48 48" fill="none" xmlns="http://www.w3.org/2000/svg">
<g clip-path="url(#clip0_155_2254)">
<path d="M30.6921 22.9007C32.4877 21.1356 33.539 18.7498 33.63 16.2335C33.6961 13.6122 32.7285 11.0701 30.9361 9.15619C29.1437 7.24229 26.6704 6.11023 24.0503 6.0045C22.0748 5.94483 20.1269 6.48001 18.4592 7.54064C16.7915 8.60127 15.4809 10.1384 14.6973 11.9529C13.9137 13.7673 13.6932 15.7753 14.0644 17.7165C14.4357 19.6577 15.3815 21.4427 16.7794 22.8399C17.0307 23.086 17.2196 23.3887 17.3303 23.7226C17.441 24.0565 17.4702 24.4121 17.4156 24.7596C17.361 25.1072 17.2241 25.4366 17.0163 25.7205C16.8086 26.0044 16.536 26.2345 16.2212 26.3917C14.0343 27.4432 12.1173 28.982 10.6176 30.8897C9.11797 32.7975 8.07541 35.0235 7.57003 37.3969C7.51035 37.7145 7.52145 38.0413 7.60252 38.3541C7.6836 38.6669 7.83267 38.9579 8.03909 39.2065C8.24552 39.455 8.50424 39.655 8.7968 39.7922C9.08936 39.9293 9.40857 40.0002 9.73168 39.9999H37.7956C38.1192 40.001 38.439 39.9306 38.7322 39.7938C39.0253 39.657 39.2847 39.4571 39.4917 39.2085C39.6987 38.9598 39.8482 38.6685 39.9295 38.3553C40.0108 38.0422 40.022 37.7149 39.9622 37.3969C39.4547 35.0257 38.4112 32.802 36.9117 30.8962C35.4122 28.9904 33.4964 27.4531 31.3111 26.4019C30.9968 26.2527 30.7228 26.0304 30.5119 25.7536C30.301 25.4769 30.1594 25.1537 30.0988 24.8111C30.0382 24.4684 30.0605 24.1163 30.1637 23.784C30.2669 23.4517 30.4481 23.149 30.6921 22.9009" fill="#FFD400"/>
<path d="M31.8844 26.7063C31.6967 26.5997 31.5038 26.4983 31.311 26.4018C30.9963 26.2524 30.7218 26.03 30.5105 25.753C30.2991 25.476 30.157 25.1526 30.0959 24.8096C30.0349 24.4666 30.0567 24.1139 30.1595 23.781C30.2623 23.4482 30.4431 23.1446 30.6869 22.8958C32.4636 21.1649 33.5143 18.8224 33.6255 16.3446C33.7367 13.8667 32.9001 11.4395 31.2857 9.5564C31.7372 11.5098 32.1685 25.793 16.9569 25.793L16.6626 40H31.8844V26.7063Z" fill="#FFC20E"/>
<path d="M13.6182 40H33.914L35.979 29.8521C34.6897 28.3843 33.097 27.2139 31.3109 26.4221C31.0192 26.2696 30.7646 26.0548 30.5651 25.793L23.7661 31.095L16.9569 25.793C16.7583 26.0452 16.5073 26.2513 16.2211 26.3968C15.2834 26.757 12.4664 28.5431 11.5785 29.7963L13.6182 40Z" fill="#CD992B"/>
<path d="M16.9584 25.7561C16.845 25.814 16.7576 25.9124 16.7134 26.0318C16.6693 26.1512 16.6715 26.2828 16.7199 26.4005L19.6323 32.9966C19.6578 33.0531 19.6942 33.104 19.7394 33.1464C19.7846 33.1888 19.8377 33.2218 19.8957 33.2437C19.9537 33.2656 20.0154 33.2758 20.0773 33.2739C20.1393 33.2719 20.2002 33.2577 20.2567 33.2322L20.2617 33.23L23.5242 31.7079C23.6363 31.65 23.7229 31.5525 23.767 31.4343C23.8111 31.316 23.8095 31.1857 23.7627 31.0685L16.9584 25.7561Z" fill="#00416B"/>
<path d="M30.535 25.7561C30.6474 25.8149 30.7338 25.9137 30.777 26.0329C30.8202 26.1522 30.8171 26.2834 30.7684 26.4005L27.8558 32.9966C27.8302 33.0531 27.7939 33.104 27.7487 33.1464C27.7035 33.1888 27.6504 33.2218 27.5924 33.2437C27.5344 33.2656 27.4727 33.2758 27.4108 33.2739C27.3488 33.2719 27.2879 33.2577 27.2314 33.2322L27.2264 33.23L23.9689 31.7079C23.8559 31.6509 23.7682 31.5537 23.7232 31.4354C23.6781 31.3171 23.6789 31.1862 23.7254 31.0685L30.535 25.7561Z" fill="#00416B"/>
</g>
<defs>
<clipPath id="clip0_155_2254">
<rect width="48" height="48" fill="white"/>
</clipPath>
</defs>
</svg>
