<svg width="48" height="48" viewBox="0 0 48 48" fill="none" xmlns="http://www.w3.org/2000/svg">
<g clip-path="url(#clip0_155_2244)">
<path d="M40.9857 29.0001C34.4251 28.9991 18.9788 28.9989 13.2177 28.9989C11.8148 29.0082 10.4462 28.565 9.315 27.7351L4.4783 24.1083C4.33303 24.0045 4.21409 23.8682 4.13103 23.7102C4.04797 23.5522 4.00309 23.3769 4 23.1984C4.02422 22.8584 4.18176 22.5417 4.43835 22.3173C4.69493 22.0928 5.02977 21.9788 5.37 22.0001H33.9977C35.9642 21.9975 37.9152 22.3476 39.758 23.034C40.5943 23.3474 41.4899 23.6831 42.2416 23.9647C42.7382 24.1268 43.1732 24.4373 43.4876 24.8545C43.8021 25.2716 43.981 25.7753 44 26.2973V26.3528C44 27.8183 42.6509 29.0003 40.9857 29.0001Z" fill="#FFD400"/>
<path d="M28.5 16H24.5C23.6716 16 23 16.6716 23 17.5C23 18.3284 23.6716 19 24.5 19H28.5C29.3284 19 30 18.3284 30 17.5C30 16.6716 29.3284 16 28.5 16Z" fill="#00416B"/>
<path d="M28.5 31H24.5C23.6716 31 23 31.6716 23 32.5C23 33.3284 23.6716 34 24.5 34H28.5C29.3284 34 30 33.3284 30 32.5C30 31.6716 29.3284 31 28.5 31Z" fill="#00416B"/>
<path d="M4 11H6.05225C6.34845 11 6.64095 11.0658 6.90862 11.1927C7.17628 11.3195 7.41243 11.5043 7.6 11.7335L16 22H7L4 11Z" fill="#FFC20E"/>
<path d="M33 22L23.7574 12.7573C23.2002 12.2002 22.5388 11.7582 21.8108 11.4567C21.0828 11.1552 20.3026 11 19.5147 11H15L24 22H33Z" fill="#FFC20E"/>
<path d="M33 27L23.7574 36.2426C23.2002 36.7998 22.5388 37.2418 21.8108 37.5433C21.0828 37.8448 20.3026 38 19.5147 38H15L24 27H33Z" fill="#FFC20E"/>
<path d="M43.59 25.0001H38C37.7373 25.0002 37.4772 24.9485 37.2345 24.848C36.9919 24.7475 36.7714 24.6002 36.5856 24.4145C36.3999 24.2288 36.2526 24.0083 36.1521 23.7656C36.0516 23.5229 35.9999 23.2628 36 23.0001V22.1201C37.2856 22.2726 38.5481 22.5798 39.76 23.0351C40.595 23.3451 41.49 23.6851 42.24 23.9651C42.7868 24.1611 43.2587 24.523 43.59 25.0001Z" fill="#0083CA"/>
</g>
<defs>
<clipPath id="clip0_155_2244">
<rect width="48" height="48" fill="white"/>
</clipPath>
</defs>
</svg>
