<svg width="48" height="48" viewBox="0 0 48 48" fill="none" xmlns="http://www.w3.org/2000/svg">
<g clip-path="url(#clip0_154_2216)">
<path d="M31.0513 11.4233L29.2983 31.1433C29.2639 31.5308 29.1176 31.8999 28.8774 32.2058C28.6372 32.5118 28.3133 32.7413 27.945 32.8667L6.32397 40.2277L31.0513 11.4233Z" fill="#CD992B"/>
<path fill-rule="evenodd" clip-rule="evenodd" d="M7.52885 40.35L42.8826 18.7928C43.2104 18.5929 43.474 18.3034 43.6424 17.9584C43.8108 17.6134 43.8768 17.2274 43.8326 16.846C43.7885 16.4647 43.636 16.104 43.3933 15.8065C43.1506 15.5091 42.8277 15.2875 42.4629 15.1678L31.0513 11.4233L26.5164 16.7058V9.9354L16.5111 6.6524C16.2493 6.5665 15.9726 6.53536 15.6983 6.5609C15.4239 6.58644 15.1578 6.66813 14.9164 6.80088C14.6749 6.93363 14.4634 7.11461 14.2949 7.33257C14.1263 7.55053 14.0044 7.80083 13.9367 8.0679L6.03265 39.2458C5.9836 39.4392 5.99327 39.6428 6.06043 39.8307C6.12758 40.0186 6.24918 40.1822 6.40972 40.3007C6.57025 40.4191 6.76243 40.4871 6.96176 40.4959C7.16108 40.5047 7.35851 40.4539 7.52885 40.35Z" fill="#FFC20E"/>
<path fill-rule="evenodd" clip-rule="evenodd" d="M8.76904 37.3795L26.5165 9.93555V16.706L8.76904 37.3795Z" fill="#00416B"/>
<path fill-rule="evenodd" clip-rule="evenodd" d="M42.8803 18.795L7.52667 40.3506C7.34005 40.4635 7.12174 40.5126 6.90476 40.4904C6.68778 40.4683 6.48391 40.376 6.32397 40.2277L31.0513 11.4233L42.4635 15.17C42.8282 15.29 43.1508 15.5119 43.3933 15.8095C43.6358 16.107 43.7879 16.4678 43.8318 16.8492C43.8756 17.2305 43.8093 17.6165 43.6407 17.9613C43.4721 18.3062 43.2082 18.5955 42.8803 18.795Z" fill="#FFD400"/>
</g>
<defs>
<clipPath id="clip0_154_2216">
<rect width="48" height="48" fill="white"/>
</clipPath>
</defs>
</svg>
