<svg width="48" height="48" viewBox="0 0 48 48" fill="none" xmlns="http://www.w3.org/2000/svg">
<g clip-path="url(#clip0_156_2331)">
<path d="M44 12V30C44.0001 30.5253 43.8968 31.0455 43.6958 31.5309C43.4948 32.0163 43.2002 32.4573 42.8287 32.8287C42.4573 33.2002 42.0163 33.4948 41.5309 33.6958C41.0455 33.8968 40.5253 34.0001 40 34H18L12 40V34H8C6.94025 33.9964 5.92495 33.5738 5.17559 32.8244C4.42623 32.0751 4.00364 31.0597 4 30V12C3.99986 11.4747 4.10323 10.9545 4.3042 10.4691C4.50517 9.98374 4.7998 9.54273 5.17127 9.17127C5.54273 8.7998 5.98374 8.50517 6.4691 8.3042C6.95447 8.10323 7.47467 7.99986 8 8H40C40.5253 7.99986 41.0455 8.10323 41.5309 8.3042C42.0163 8.50517 42.4573 8.7998 42.8287 9.17127C43.2002 9.54273 43.4948 9.98374 43.6958 10.4691C43.8968 10.9545 44.0001 11.4747 44 12Z" fill="#FFE600"/>
<path d="M25 34H18L12 40V34H7.99997C7.18371 34.0022 6.38695 33.7506 5.71997 33.28L15 24L25 34Z" fill="#FFC20E"/>
<path d="M44 12V30C44.0001 30.5253 43.8968 31.0455 43.6958 31.5309C43.4948 32.0163 43.2002 32.4573 42.8287 32.8287C42.4573 33.2002 42.0163 33.4948 41.5309 33.6958C41.0455 33.8968 40.5253 34.0001 40 34H25L15 24L31 8H40C40.5253 7.99986 41.0455 8.10323 41.5309 8.3042C42.0163 8.50517 42.4573 8.7998 42.8287 9.17127C43.2002 9.54273 43.4948 9.98374 43.6958 10.4691C43.8968 10.9545 44.0001 11.4747 44 12Z" fill="#FFD400"/>
<path d="M15 24L5.72001 33.28C5.18855 32.914 4.75421 32.4241 4.45453 31.8526C4.15485 31.2811 3.99885 30.6453 4.00001 30V13L15 24Z" fill="#FFD400"/>
<path d="M31 8L15 24L4 13V12C3.99986 11.4747 4.10323 10.9545 4.3042 10.4691C4.50517 9.98374 4.7998 9.54273 5.17127 9.17127C5.54273 8.7998 5.98374 8.50517 6.4691 8.3042C6.95447 8.10323 7.47467 7.99986 8 8H31Z" fill="#FFE600"/>
</g>
<defs>
<clipPath id="clip0_156_2331">
<rect width="48" height="48" fill="white"/>
</clipPath>
</defs>
</svg>
