<svg width="48" height="48" viewBox="0 0 48 48" fill="none" xmlns="http://www.w3.org/2000/svg">
<g clip-path="url(#clip0_154_2225)">
<path d="M6 34L24 41.9965L42 33.968V14L24 6L6 14V34Z" fill="#FFD400"/>
<path d="M24 41.9965V22L42 14V33.968L24 41.9965Z" fill="#CD992B"/>
<path d="M24 41.9965V22L6 14V33.968L24 41.9965Z" fill="#FFC20E"/>
<path d="M35.5734 16.897L17.5734 8.89697L12.705 11.0075L30.705 19.0075V24.9763C30.7049 25.1437 30.747 25.3085 30.8272 25.4554C30.9074 25.6024 31.0232 25.7268 31.164 25.8174C31.3048 25.908 31.466 25.9617 31.633 25.9738C31.8 25.9858 31.9673 25.9557 32.1197 25.8863L34.9882 24.579C35.1628 24.4995 35.3108 24.3714 35.4146 24.21C35.5183 24.0487 35.5735 23.8609 35.5735 23.669L35.5734 16.897Z" fill="#A65718"/>
<path d="M41 37H31C30.7348 37 30.4804 36.8946 30.2929 36.7071C30.1054 36.5196 30 36.2652 30 36C30 35.7348 30.1054 35.4804 30.2929 35.2929C30.4804 35.1054 30.7348 35 31 35H41C41.2652 35 41.5196 35.1054 41.7071 35.2929C41.8946 35.4804 42 35.7348 42 36C42 36.2652 41.8946 36.5196 41.7071 36.7071C41.5196 36.8946 41.2652 37 41 37Z" fill="#00416B"/>
<path d="M35 41V31C35 30.7348 35.1054 30.4804 35.2929 30.2929C35.4804 30.1054 35.7348 30 36 30C36.2652 30 36.5196 30.1054 36.7071 30.2929C36.8946 30.4804 37 30.7348 37 31V41C37 41.2652 36.8946 41.5196 36.7071 41.7071C36.5196 41.8946 36.2652 42 36 42C35.7348 42 35.4804 41.8946 35.2929 41.7071C35.1054 41.5196 35 41.2652 35 41Z" fill="#00416B"/>
</g>
<defs>
<clipPath id="clip0_154_2225">
<rect width="48" height="48" fill="white"/>
</clipPath>
</defs>
</svg>
