<svg width="48" height="48" viewBox="0 0 48 48" fill="none" xmlns="http://www.w3.org/2000/svg">
<g clip-path="url(#clip0_159_2396)">
<path d="M38 44H10C9.46957 44 8.96086 43.7893 8.58579 43.4142C8.21071 43.0391 8 42.5304 8 42V22C8 21.4696 8.21071 20.9609 8.58579 20.5858C8.96086 20.2107 9.46957 20 10 20H38C38.5304 20 39.0391 20.2107 39.4142 20.5858C39.7893 20.9609 40 21.4696 40 22V42C40 42.5304 39.7893 43.0391 39.4142 43.4142C39.0391 43.7893 38.5304 44 38 44Z" fill="#FFD400"/>
<path d="M40 22V42C40.0001 42.2627 39.9484 42.5228 39.8479 42.7655C39.7474 43.0081 39.6001 43.2286 39.4144 43.4144C39.2286 43.6001 39.0081 43.7474 38.7655 43.8479C38.5228 43.9484 38.2627 44.0001 38 44H11L35 20H38C38.2627 19.9999 38.5228 20.0516 38.7655 20.1521C39.0081 20.2526 39.2286 20.3999 39.4144 20.5856C39.6001 20.7714 39.7474 20.9919 39.8479 21.2345C39.9484 21.4772 40.0001 21.7373 40 22Z" fill="#FFC20E"/>
<path d="M40 21.5H8C8 21.1022 8.15804 20.7206 8.43934 20.4393C8.72064 20.158 9.10218 20 9.5 20H38.5C38.8978 20 39.2794 20.158 39.5607 20.4393C39.842 20.7206 40 21.1022 40 21.5Z" fill="#CD992B"/>
<path fill-rule="evenodd" clip-rule="evenodd" d="M26 30.0001C26.0016 29.6486 25.9106 29.303 25.7361 28.9978C25.5617 28.6927 25.3099 28.439 25.0061 28.2622C24.7023 28.0854 24.3573 27.9918 24.0059 27.9907C23.6544 27.9897 23.3089 28.0813 23.0041 28.2563C22.6993 28.4313 22.446 28.6836 22.2697 28.9877C22.0934 29.2917 22.0004 29.6369 22 29.9884C21.9996 30.3398 22.0918 30.6852 22.2674 30.9897C22.4429 31.2942 22.6956 31.547 23 31.7228V35.0001C23 35.2653 23.1053 35.5197 23.2929 35.7072C23.4804 35.8948 23.7348 36.0001 24 36.0001C24.2652 36.0001 24.5196 35.8948 24.7071 35.7072C24.8946 35.5197 25 35.2653 25 35.0001V31.7228C25.3032 31.5487 25.5553 31.2979 25.7309 30.9955C25.9064 30.6931 25.9992 30.3498 26 30.0001Z" fill="#0083CA"/>
<path d="M8 42.5H40C40 42.8978 39.842 43.2794 39.5607 43.5607C39.2794 43.842 38.8978 44 38.5 44H9.5C9.10218 44 8.72064 43.842 8.43934 43.5607C8.15804 43.2794 8 42.8978 8 42.5Z" fill="#CD992B"/>
<path d="M24.0092 4.00003C21.499 3.99434 19.0509 4.7803 17.0132 6.24613C16.5886 6.55939 16.3048 7.02753 16.2234 7.54884C16.1421 8.07015 16.2697 8.60251 16.5786 9.03025C16.8875 9.45798 17.3527 9.74654 17.8732 9.83323C18.3936 9.91991 18.9273 9.79771 19.3581 9.49318C20.666 8.55234 22.2293 8.03203 23.8401 8.00148C28.3271 7.91313 31.9999 11.7344 31.9999 16.2227V20.5H35.9999V16.285C35.9999 9.68853 30.6064 4.00503 24.0092 4.00003Z" fill="#00416B"/>
</g>
<defs>
<clipPath id="clip0_159_2396">
<rect width="48" height="48" fill="white"/>
</clipPath>
</defs>
</svg>
