<svg width="48" height="48" viewBox="0 0 48 48" fill="none" xmlns="http://www.w3.org/2000/svg">
<path d="M4 12C4 9.79086 5.79086 8 8 8H40C42.2091 8 44 9.79086 44 12V36C44 38.2091 42.2091 40 40 40H8C5.79086 40 4 38.2091 4 36V12Z" fill="#FFC20E"/>
<path d="M6 27C6 25.8954 6.89543 25 8 25H40C41.1046 25 42 25.8954 42 27V36C42 37.1046 41.1046 38 40 38H8C6.89543 38 6 37.1046 6 36V27Z" fill="#FFD400"/>
<path d="M6 12C6 10.8954 6.89543 10 8 10H40C41.1046 10 42 10.8954 42 12V21C42 22.1046 41.1046 23 40 23H8C6.89543 23 6 22.1046 6 21V12Z" fill="#FFD400"/>
<path fill-rule="evenodd" clip-rule="evenodd" d="M40 25.5H8C7.17157 25.5 6.5 26.1716 6.5 27V36C6.5 36.8284 7.17157 37.5 8 37.5H40C40.8284 37.5 41.5 36.8284 41.5 36V27C41.5 26.1716 40.8284 25.5 40 25.5ZM8 25C6.89543 25 6 25.8954 6 27V36C6 37.1046 6.89543 38 8 38H40C41.1046 38 42 37.1046 42 36V27C42 25.8954 41.1046 25 40 25H8Z" fill="#CD992B"/>
<path fill-rule="evenodd" clip-rule="evenodd" d="M40 10.5H8C7.17157 10.5 6.5 11.1716 6.5 12V21C6.5 21.8284 7.17157 22.5 8 22.5H40C40.8284 22.5 41.5 21.8284 41.5 21V12C41.5 11.1716 40.8284 10.5 40 10.5ZM8 10C6.89543 10 6 10.8954 6 12V21C6 22.1046 6.89543 23 8 23H40C41.1046 23 42 22.1046 42 21V12C42 10.8954 41.1046 10 40 10H8Z" fill="#CD992B"/>
<path d="M20 31.5C20 30.3954 20.8954 29.5 22 29.5H36C37.1046 29.5 38 30.3954 38 31.5C38 32.6046 37.1046 33.5 36 33.5H22C20.8954 33.5 20 32.6046 20 31.5Z" fill="#CD992B"/>
<path d="M20 16.5C20 15.3954 20.8954 14.5 22 14.5H36C37.1046 14.5 38 15.3954 38 16.5C38 17.6046 37.1046 18.5 36 18.5H22C20.8954 18.5 20 17.6046 20 16.5Z" fill="#CD992B"/>
<path d="M15.5 16.5C15.5 18.1569 14.1569 19.5 12.5 19.5C10.8431 19.5 9.5 18.1569 9.5 16.5C9.5 14.8431 10.8431 13.5 12.5 13.5C14.1569 13.5 15.5 14.8431 15.5 16.5Z" fill="#00416B"/>
<path fill-rule="evenodd" clip-rule="evenodd" d="M13.5 15.5035C13.5008 15.328 13.4553 15.1553 13.3681 15.003C13.2808 14.8506 13.1549 14.7239 13.003 14.6356C12.8512 14.5473 12.6787 14.5005 12.5029 14.5C12.3272 14.4995 12.1544 14.5452 12.002 14.6326C11.8496 14.7201 11.723 14.846 11.6349 14.9979C11.5467 15.1497 11.5002 15.3221 11.5 15.4976C11.4998 15.6732 11.5459 15.8457 11.6337 15.9977C11.7215 16.1498 11.8478 16.2761 12 16.3638V18.0006C12 18.133 12.0527 18.2601 12.1464 18.3537C12.2402 18.4474 12.3674 18.5 12.5 18.5C12.6326 18.5 12.7598 18.4474 12.8535 18.3537C12.9473 18.2601 13 18.133 13 18.0006V16.3638C13.1516 16.2769 13.2777 16.1516 13.3654 16.0006C13.4532 15.8496 13.4996 15.6781 13.5 15.5035Z" fill="#FFC20E"/>
<path d="M15.5 31.5C15.5 33.1569 14.1569 34.5 12.5 34.5C10.8431 34.5 9.5 33.1569 9.5 31.5C9.5 29.8431 10.8431 28.5 12.5 28.5C14.1569 28.5 15.5 29.8431 15.5 31.5Z" fill="#00416B"/>
<path fill-rule="evenodd" clip-rule="evenodd" d="M13.5 30.5035C13.5008 30.328 13.4553 30.1553 13.3681 30.003C13.2808 29.8506 13.1549 29.7239 13.003 29.6356C12.8512 29.5473 12.6787 29.5005 12.5029 29.5C12.3272 29.4995 12.1544 29.5452 12.002 29.6326C11.8496 29.7201 11.723 29.846 11.6349 29.9979C11.5467 30.1497 11.5002 30.3221 11.5 30.4976C11.4998 30.6732 11.5459 30.8457 11.6337 30.9977C11.7215 31.1498 11.8478 31.2761 12 31.3638V33.0006C12 33.133 12.0527 33.2601 12.1464 33.3537C12.2402 33.4474 12.3674 33.5 12.5 33.5C12.6326 33.5 12.7598 33.4474 12.8535 33.3537C12.9473 33.2601 13 33.133 13 33.0006V31.3638C13.1516 31.2769 13.2777 31.1516 13.3654 31.0006C13.4532 30.8496 13.4996 30.6781 13.5 30.5035Z" fill="#FFC20E"/>
</svg>
