<svg width="48" height="48" viewBox="0 0 48 48" fill="none" xmlns="http://www.w3.org/2000/svg">
<g clip-path="url(#clip0_155_2239)">
<path d="M10.282 38.3323L23.192 44.0652C23.4463 44.1781 23.7214 44.2364 23.9996 44.2361C24.2778 44.2359 24.5529 44.1773 24.807 44.064L37.7205 38.3068C38.0711 38.1505 38.3689 37.8959 38.5779 37.574C38.7869 37.252 38.8981 36.8764 38.8981 36.4925V22.5525C38.8981 22.1682 38.7866 21.7922 38.5772 21.4699C38.3678 21.1477 38.0693 20.8932 37.7181 20.7372L24.8064 15.0007C24.5525 14.8879 24.2778 14.8296 23.9999 14.8296C23.7221 14.8296 23.4473 14.8879 23.1934 15.0007L10.2817 20.737C9.93047 20.893 9.63206 21.1475 9.42262 21.4697C9.21317 21.792 9.10169 22.168 9.10168 22.5523V36.5169C9.1017 36.9012 9.21322 37.2773 9.42272 37.5996C9.63222 37.9218 9.9307 38.1763 10.282 38.3323Z" fill="#FFD400"/>
<path d="M24 44.4237V27.8797L38.898 21.2607V37.7817L24 44.4237Z" fill="#CD992B"/>
<path d="M23.9999 44.4237V27.8797L9.10144 21.2607V37.7817L23.9999 44.4237Z" fill="#FFC20E"/>
<path d="M33.7267 23.5573L18.9735 17.0029L14.9832 18.7321L29.7364 25.2865V30.1765C29.7364 30.3137 29.7709 30.4486 29.8366 30.569C29.9024 30.6895 29.9973 30.7914 30.1127 30.8656C30.2281 30.9398 30.3602 30.9839 30.4971 30.9937C30.6339 31.0036 30.771 30.9789 30.8959 30.922L33.247 29.851C33.3901 29.7858 33.5114 29.6809 33.5964 29.5487C33.6815 29.4165 33.7267 29.2626 33.7267 29.1054V23.5573Z" fill="#A65718"/>
<path d="M23.9832 3.99707C20.1924 3.99707 16.9832 6.44152 16.9832 10.9971C16.9832 13.7456 21.2999 20.5025 23.1536 23.2771C23.2445 23.4137 23.3678 23.5258 23.5126 23.6034C23.6573 23.6809 23.8189 23.7215 23.9831 23.7215C24.1473 23.7215 24.309 23.6809 24.4537 23.6034C24.5984 23.5258 24.7217 23.4137 24.8127 23.2771C26.6664 20.5021 30.9832 13.7453 30.9832 10.9971C30.9832 6.44152 27.774 3.99707 23.9832 3.99707ZM23.9832 13.4971C23.3898 13.4971 22.8098 13.3211 22.3164 12.9915C21.8231 12.6618 21.4386 12.1933 21.2115 11.6451C20.9845 11.0969 20.925 10.4937 21.0408 9.9118C21.1566 9.32986 21.4423 8.79531 21.8618 8.37575C22.2814 7.95619 22.8159 7.67047 23.3979 7.55471C23.9798 7.43896 24.583 7.49837 25.1312 7.72543C25.6794 7.95249 26.1479 8.33701 26.4776 8.83036C26.8072 9.32371 26.9832 9.90373 26.9832 10.4971C26.9832 11.2927 26.6671 12.0558 26.1045 12.6184C25.5419 13.181 24.7788 13.4971 23.9832 13.4971Z" fill="#00416B"/>
</g>
<defs>
<clipPath id="clip0_155_2239">
<rect width="48" height="48" fill="white"/>
</clipPath>
</defs>
</svg>
