<svg width="48" height="48" viewBox="0 0 48 48" fill="none" xmlns="http://www.w3.org/2000/svg">
<g clip-path="url(#clip0_154_2222)">
<path d="M6 34L24 41.9965L42 33.968V14L24 6L6 14V34Z" fill="#FFD400"/>
<path d="M24 41.9965V22L42 14V33.968L24 41.9965Z" fill="#CD992B"/>
<path d="M24 41.9965V22L6 14V33.968L24 41.9965Z" fill="#FFC20E"/>
<path d="M35.5734 16.897L17.5734 8.89697L12.705 11.0075L30.705 19.0075V24.9763C30.7049 25.1437 30.747 25.3085 30.8272 25.4554C30.9074 25.6024 31.0232 25.7268 31.164 25.8174C31.3048 25.908 31.466 25.9617 31.633 25.9738C31.8 25.9858 31.9673 25.9557 32.1197 25.8863L34.9882 24.579C35.1628 24.4995 35.3108 24.3714 35.4146 24.21C35.5183 24.0487 35.5735 23.8609 35.5735 23.669L35.5734 16.897Z" fill="#00416B"/>
</g>
<defs>
<clipPath id="clip0_154_2222">
<rect width="48" height="48" fill="white"/>
</clipPath>
</defs>
</svg>
