<svg width="48" height="48" viewBox="0 0 48 48" fill="none" xmlns="http://www.w3.org/2000/svg">
<g clip-path="url(#clip0_154_2223)">
<path d="M24 41.9965V22L39 14V33.968L24 41.9965Z" fill="#FFC20E"/>
<path d="M24 41.9999V22.0039L9 14.0039V33.9719L24 41.9999Z" fill="#FFD400"/>
<path d="M9 14.004L24 22L39 14L24 6L9 14.004Z" fill="#CD992B"/>
<path d="M9 14.0039L24 6.00391V21.9999L9 14.0039Z" fill="#A65718"/>
<path d="M24.0003 21.9998L19.99 28.4135C19.7215 28.843 19.2999 29.1546 18.8106 29.2854C18.3212 29.4161 17.8004 29.3563 17.3534 29.1181L5.89162 23.0081C5.64962 22.879 5.43674 22.7016 5.26621 22.4869C5.09568 22.2721 4.97114 22.0245 4.90033 21.7596C4.82953 21.4947 4.81396 21.218 4.85461 20.9468C4.89526 20.6756 4.99125 20.4156 5.13662 20.1831L9.00042 14.0039L24.0003 21.9998Z" fill="#FFC20E"/>
<path d="M24.0002 22.0001L28.0106 28.4138C28.2792 28.8433 28.7007 29.1549 29.1901 29.2857C29.6795 29.4165 30.2003 29.3567 30.6473 29.1184L42.109 23.0084C42.351 22.8793 42.5639 22.7019 42.7344 22.4872C42.905 22.2724 43.0295 22.0248 43.1003 21.7599C43.1711 21.495 43.1867 21.2183 43.146 20.9471C43.1054 20.6759 43.0094 20.4159 42.864 20.1834L39.0002 14.0039L24.0002 22.0001Z" fill="#EFAF0F"/>
</g>
<defs>
<clipPath id="clip0_154_2223">
<rect width="48" height="48" fill="white"/>
</clipPath>
</defs>
</svg>
