<svg width="48" height="48" viewBox="0 0 48 48" fill="none" xmlns="http://www.w3.org/2000/svg">
<g clip-path="url(#clip0_156_2327)">
<path d="M40 42H8C7.46957 42 6.96086 41.7893 6.58579 41.4142C6.21071 41.0391 6 40.5304 6 40V12C6 11.4696 6.21071 10.9609 6.58579 10.5858C6.96086 10.2107 7.46957 10 8 10H40C40.5304 10 41.0391 10.2107 41.4142 10.5858C41.7893 10.9609 42 11.4696 42 12V40C42 40.5304 41.7893 41.0391 41.4142 41.4142C41.0391 41.7893 40.5304 42 40 42Z" fill="#FFD400"/>
<path d="M42 16V40C42 40.5304 41.7893 41.0391 41.4142 41.4142C41.0391 41.7893 40.5304 42 40 42H16L42 16Z" fill="#FFC20E"/>
<path d="M42 18H6V12C6 11.4696 6.21071 10.9609 6.58579 10.5858C6.96086 10.2107 7.46957 10 8 10H40C40.5304 10 41.0391 10.2107 41.4142 10.5858C41.7893 10.9609 42 11.4696 42 12V18Z" fill="#00416B"/>
<path d="M16 12C15.7348 12 15.4804 11.8946 15.2929 11.7071C15.1054 11.5196 15 11.2652 15 11V7C15 6.73478 15.1054 6.48043 15.2929 6.29289C15.4804 6.10536 15.7348 6 16 6C16.2652 6 16.5196 6.10536 16.7071 6.29289C16.8946 6.48043 17 6.73478 17 7V11C17 11.1313 16.9742 11.2614 16.924 11.3827C16.8737 11.5041 16.8001 11.6143 16.7072 11.7072C16.6143 11.8001 16.5041 11.8737 16.3827 11.924C16.2614 11.9742 16.1313 12 16 12Z" fill="#0083CA"/>
<path d="M32 12C31.7348 12 31.4804 11.8946 31.2929 11.7071C31.1054 11.5196 31 11.2652 31 11V7C31 6.73478 31.1054 6.48043 31.2929 6.29289C31.4804 6.10536 31.7348 6 32 6C32.2652 6 32.5196 6.10536 32.7071 6.29289C32.8946 6.48043 33 6.73478 33 7V11C33 11.1313 32.9742 11.2614 32.924 11.3827C32.8737 11.5041 32.8001 11.6143 32.7072 11.7072C32.6143 11.8001 32.5041 11.8737 32.3827 11.924C32.2614 11.9742 32.1313 12 32 12Z" fill="#0083CA"/>
<path d="M11 31.5C11.0001 31.3674 11.0528 31.2403 11.1465 31.1465C11.2403 31.0528 11.3674 31.0001 11.5 31H14C14.2652 31 14.5196 30.8946 14.7071 30.7071C14.8946 30.5196 15 30.2652 15 30V24C15 23.7348 14.8946 23.4804 14.7071 23.2929C14.5196 23.1054 14.2652 23 14 23H10C9.73478 23 9.48043 23.1054 9.29289 23.2929C9.10536 23.4804 9 23.7348 9 24V26C9 26.2652 9.10536 26.5196 9.29289 26.7071C9.48043 26.8946 9.73478 27 10 27C10.2652 27 10.5196 26.8946 10.7071 26.7071C10.8946 26.5196 11 26.2652 11 26V25.5C11.0001 25.3674 11.0528 25.2403 11.1465 25.1465C11.2403 25.0528 11.3674 25.0001 11.5 25H12.5C12.6326 25.0001 12.7597 25.0528 12.8535 25.1465C12.9472 25.2403 12.9999 25.3674 13 25.5V28.5C12.9999 28.6326 12.9472 28.7597 12.8535 28.8535C12.7597 28.9472 12.6326 28.9999 12.5 29H10C9.73478 29 9.48043 29.1054 9.29289 29.2929C9.10536 29.4804 9 29.7348 9 30V36C9 36.2652 9.10536 36.5196 9.29289 36.7071C9.48043 36.8946 9.73478 37 10 37H14C14.2652 37 14.5196 36.8946 14.7071 36.7071C14.8946 36.5196 15 36.2652 15 36V34C15 33.7348 14.8946 33.4804 14.7071 33.2929C14.5196 33.1054 14.2652 33 14 33C13.7348 33 13.4804 33.1054 13.2929 33.2929C13.1054 33.4804 13 33.7348 13 34V34.5C12.9999 34.6326 12.9472 34.7597 12.8535 34.8535C12.7597 34.9472 12.6326 34.9999 12.5 35H11.5C11.3674 34.9999 11.2403 34.9472 11.1465 34.8535C11.0528 34.7597 11.0001 34.6326 11 34.5V31.5Z" fill="#00416B"/>
<path d="M18 23C17.7348 23 17.4804 23.1054 17.2929 23.2929C17.1054 23.4804 17 23.7348 17 24V36C17 36.2652 17.1054 36.5196 17.2929 36.7071C17.4804 36.8946 17.7348 37 18 37H22C22.2652 37 22.5196 36.8946 22.7071 36.7071C22.8946 36.5196 23 36.2652 23 36V24C23 23.7348 22.8946 23.4804 22.7071 23.2929C22.5196 23.1054 22.2652 23 22 23H18ZM20.5 35H19.5C19.3674 34.9999 19.2403 34.9472 19.1465 34.8535C19.0528 34.7597 19.0001 34.6326 19 34.5V25.5C19.0001 25.3674 19.0528 25.2403 19.1465 25.1465C19.2403 25.0528 19.3674 25.0001 19.5 25H20.5C20.6326 25.0001 20.7597 25.0528 20.8535 25.1465C20.9472 25.2403 20.9999 25.3674 21 25.5V34.5C20.9999 34.6326 20.9472 34.7597 20.8535 34.8535C20.7597 34.9472 20.6326 34.9999 20.5 35Z" fill="#00416B"/>
<path d="M27 31.5C27.0001 31.3674 27.0528 31.2403 27.1465 31.1465C27.2403 31.0528 27.3674 31.0001 27.5 31H30C30.2652 31 30.5196 30.8946 30.7071 30.7071C30.8946 30.5196 31 30.2652 31 30V24C31 23.7348 30.8946 23.4804 30.7071 23.2929C30.5196 23.1054 30.2652 23 30 23H26C25.7348 23 25.4804 23.1054 25.2929 23.2929C25.1054 23.4804 25 23.7348 25 24V26C25 26.2652 25.1054 26.5196 25.2929 26.7071C25.4804 26.8946 25.7348 27 26 27C26.2652 27 26.5196 26.8946 26.7071 26.7071C26.8946 26.5196 27 26.2652 27 26V25.5C27.0001 25.3674 27.0528 25.2403 27.1465 25.1465C27.2403 25.0528 27.3674 25.0001 27.5 25H28.5C28.6326 25.0001 28.7597 25.0528 28.8535 25.1465C28.9472 25.2403 28.9999 25.3674 29 25.5V28.5C28.9999 28.6326 28.9472 28.7597 28.8535 28.8535C28.7597 28.9472 28.6326 28.9999 28.5 29H26C25.7348 29 25.4804 29.1054 25.2929 29.2929C25.1054 29.4804 25 29.7348 25 30V36C25 36.2652 25.1054 36.5196 25.2929 36.7071C25.4804 36.8946 25.7348 37 26 37H30C30.2652 37 30.5196 36.8946 30.7071 36.7071C30.8946 36.5196 31 36.2652 31 36V34C31 33.7348 30.8946 33.4804 30.7071 33.2929C30.5196 33.1054 30.2652 33 30 33C29.7348 33 29.4804 33.1054 29.2929 33.2929C29.1054 33.4804 29 33.7348 29 34V34.5C28.9999 34.6326 28.9472 34.7597 28.8535 34.8535C28.7597 34.9472 28.6326 34.9999 28.5 35H27.5C27.3674 34.9999 27.2403 34.9472 27.1465 34.8535C27.0528 34.7597 27.0001 34.6326 27 34.5V31.5Z" fill="#00416B"/>
<path d="M34 23C33.7348 23 33.4804 23.1054 33.2929 23.2929C33.1054 23.4804 33 23.7348 33 24V36C33 36.2652 33.1054 36.5196 33.2929 36.7071C33.4804 36.8946 33.7348 37 34 37H38C38.2652 37 38.5196 36.8946 38.7071 36.7071C38.8946 36.5196 39 36.2652 39 36V24C39 23.7348 38.8946 23.4804 38.7071 23.2929C38.5196 23.1054 38.2652 23 38 23H34ZM36.5 35H35.5C35.3674 34.9999 35.2403 34.9472 35.1465 34.8535C35.0528 34.7597 35.0001 34.6326 35 34.5V25.5C35.0001 25.3674 35.0528 25.2403 35.1465 25.1465C35.2403 25.0528 35.3674 25.0001 35.5 25H36.5C36.6326 25.0001 36.7597 25.0528 36.8535 25.1465C36.9472 25.2403 36.9999 25.3674 37 25.5V34.5C36.9999 34.6326 36.9472 34.7597 36.8535 34.8535C36.7597 34.9472 36.6326 34.9999 36.5 35Z" fill="#00416B"/>
</g>
<defs>
<clipPath id="clip0_156_2327">
<rect width="48" height="48" fill="white"/>
</clipPath>
</defs>
</svg>
