<svg width="48" height="48" viewBox="0 0 48 48" fill="none" xmlns="http://www.w3.org/2000/svg">
<g clip-path="url(#clip0_159_2362)">
<path d="M35.0537 33.311L34.0195 31.9253L30.8852 30.3579L29.8511 21.7007L28.33 20.8989L27.8135 21.9595L28.92 31.0767C28.9373 31.2238 28.986 31.3655 29.0628 31.4921C29.1395 31.6188 29.2426 31.7276 29.365 31.811L34.02 34.2934L35.0537 33.311Z" fill="#00416B"/>
<path d="M27.1045 22.0469C26.8186 22.0829 26.5283 22.0386 26.2661 21.919C26.0039 21.7994 25.7802 21.6092 25.62 21.3696L24.865 20.2417L28.33 18.313L32.0487 19.3472L31.5987 20.604C31.505 20.8773 31.3367 21.119 31.1129 21.3017C30.8891 21.4844 30.6187 21.601 30.3321 21.6382L27.1046 22.0469H27.1045Z" fill="#00416B"/>
<path d="M17.9868 13.1411L17.5527 20.1177C15.4736 20.3813 13.8496 17.2319 14.7392 14.7392L17.9868 13.1411Z" fill="#0083CA"/>
<path d="M36.605 27.6216V38.4829C36.605 38.5508 36.5916 38.618 36.5656 38.6807C36.5396 38.7435 36.5015 38.8004 36.4535 38.8484C36.4055 38.8964 36.3485 38.9344 36.2857 38.9604C36.223 38.9863 36.1558 38.9996 36.0879 38.9995H35.5708C35.3671 38.9996 35.1653 38.9595 34.9771 38.8815C34.7889 38.8036 34.6178 38.6893 34.4738 38.5452C34.3297 38.4012 34.2155 38.2302 34.1375 38.0419C34.0596 37.8537 34.0195 37.652 34.0195 37.4482V28.6567C34.0194 28.453 34.0595 28.2512 34.1374 28.0629C34.2153 27.8746 34.3296 27.7036 34.4737 27.5595C34.6177 27.4154 34.7888 27.3011 34.977 27.2231C35.1653 27.1451 35.367 27.105 35.5708 27.105H36.0879C36.225 27.1049 36.3564 27.1593 36.4534 27.2562C36.5504 27.3531 36.6049 27.4845 36.605 27.6216Z" fill="#00416B"/>
<path d="M26.7788 11.5898L16.8438 14.4748L17.5527 20.1174C17.5693 20.2528 17.6124 20.3835 17.6797 20.5021C17.7469 20.6207 17.8369 20.7248 17.9446 20.8085C18.0522 20.8922 18.1753 20.9538 18.3069 20.9897C18.4384 21.0256 18.5757 21.0352 18.711 21.0178L34.6138 19.0423C34.7491 19.0257 34.8798 18.9824 34.9984 18.915C35.117 18.8477 35.2211 18.7576 35.3047 18.6498C35.3884 18.5421 35.4499 18.4189 35.4858 18.2873C35.5216 18.1558 35.5311 18.0184 35.5138 17.8831L35.1261 14.7806L26.7788 11.5898Z" fill="#FFC20E"/>
<path d="M13.9423 14.8373C13.8662 14.8459 13.789 14.8373 13.7166 14.8123C13.6441 14.7873 13.5781 14.7465 13.5234 14.6928L11.5534 12.8671C11.482 12.7999 11.4312 12.7138 11.4069 12.6187C11.3826 12.5237 11.3858 12.4238 11.4161 12.3305C11.4465 12.2373 11.5027 12.1546 11.5783 12.092C11.6539 12.0295 11.7457 11.9898 11.8429 11.9775L35.4416 9.00434C35.5095 8.99546 35.5786 9.00024 35.6447 9.01839C35.7108 9.03653 35.7726 9.06768 35.8266 9.11001C35.8805 9.15235 35.9254 9.20501 35.9588 9.26492C35.9921 9.32483 36.0131 9.39079 36.0207 9.45893L36.6052 14.0717C36.6139 14.1397 36.609 14.2088 36.5908 14.2749C36.5726 14.341 36.5414 14.4028 36.4991 14.4567C36.4567 14.5106 36.404 14.5555 36.3441 14.5889C36.2842 14.6222 36.2183 14.6433 36.1502 14.6508L24.5029 16.1152C24.3667 16.1323 24.2293 16.095 24.1205 16.0112L21.5655 14.0307C21.5118 13.9892 21.4503 13.9586 21.3847 13.9408C21.3191 13.9231 21.2506 13.9184 21.1832 13.9272L13.9425 14.8372L13.9423 14.8373Z" fill="#FFD400"/>
</g>
<defs>
<clipPath id="clip0_159_2362">
<rect width="48" height="48" fill="white"/>
</clipPath>
</defs>
</svg>
