<svg width="48" height="48" viewBox="0 0 48 48" fill="none" xmlns="http://www.w3.org/2000/svg">
<g clip-path="url(#clip0_159_2359)">
<path d="M12.1697 12H10.8312C9.82014 12 9.00049 12.8197 9.00049 13.8308V14.1692C9.00049 15.1803 9.82014 16 10.8312 16H12.1697C13.1808 16 14.0005 15.1803 14.0005 14.1692V13.8308C14.0005 12.8197 13.1808 12 12.1697 12Z" fill="#007BC3"/>
<path d="M40.5323 13.9612H32.7415C32.3135 13.9612 31.903 13.7912 31.6004 13.4886C31.2977 13.1859 31.1277 12.7754 31.1277 12.3474V11.4053C31.1277 10.7284 30.8588 10.0792 30.3802 9.60058C29.9016 9.12194 29.2524 8.85304 28.5755 8.85303H19.4245C18.7476 8.85304 18.0984 9.12194 17.6198 9.60058C17.1412 10.0792 16.8723 10.7284 16.8723 11.4053V12.3474C16.8723 12.7754 16.7023 13.1859 16.3996 13.4886C16.097 13.7912 15.6865 13.9612 15.2585 13.9612H7.4677C6.548 13.9612 5.66598 14.3266 5.01566 14.9769C4.36534 15.6273 4 16.5093 4 17.429V35.5322C4 35.9876 4.08969 36.4385 4.26396 36.8592C4.43823 37.2799 4.69366 37.6622 5.01567 37.9842C5.33767 38.3062 5.71995 38.5616 6.14067 38.7359C6.56139 38.9102 7.01232 38.9999 7.4677 38.9999H40.5323C40.9877 38.9999 41.4386 38.9102 41.8593 38.7359C42.2801 38.5616 42.6623 38.3062 42.9843 37.9842C43.3063 37.6622 43.5618 37.2799 43.736 36.8592C43.9103 36.4385 44 35.9876 44 35.5322V17.429C44 16.5093 43.6347 15.6273 42.9843 14.9769C42.334 14.3266 41.452 13.9612 40.5323 13.9612Z" fill="#FFD301"/>
<path d="M44 17.43V22H4V17.43C4.00049 16.5098 4.36624 15.6275 5.01688 14.9769C5.66753 14.3262 6.54985 13.9605 7.47 13.96H15.26C15.4715 13.9601 15.6809 13.9186 15.8763 13.8377C16.0717 13.7569 16.2492 13.6383 16.3988 13.4887C16.5483 13.3392 16.6669 13.1617 16.7477 12.9663C16.8286 12.7709 16.8701 12.5615 16.87 12.35V11.405C16.8703 11.0698 16.9366 10.7379 17.0652 10.4283C17.1937 10.1187 17.382 9.83752 17.6193 9.60072C17.8565 9.36392 18.1381 9.17618 18.448 9.04823C18.7578 8.92027 19.0898 8.85461 19.425 8.85498H28.575C28.9102 8.85461 29.2422 8.92027 29.552 9.04823C29.8619 9.17618 30.1435 9.36392 30.3807 9.60072C30.618 9.83752 30.8063 10.1187 30.9348 10.4283C31.0634 10.7379 31.1297 11.0698 31.13 11.405V12.35C31.1299 12.5615 31.1714 12.7709 31.2523 12.9663C31.3331 13.1617 31.4517 13.3392 31.6012 13.4887C31.7508 13.6383 31.9283 13.7569 32.1237 13.8377C32.3191 13.9186 32.5285 13.9601 32.74 13.96H40.53C41.4501 13.9605 42.3325 14.3262 42.9831 14.9769C43.6338 15.6275 43.9995 16.5098 44 17.43Z" fill="#FFC20E"/>
<path d="M44 20.6958H4V22.6958H44V20.6958Z" fill="#004169"/>
<path d="M24 36.4805C29.5228 36.4805 34 32.0033 34 26.4805C34 20.9576 29.5228 16.4805 24 16.4805C18.4772 16.4805 14 20.9576 14 26.4805C14 32.0033 18.4772 36.4805 24 36.4805Z" fill="#CD992B"/>
<path d="M24 34.4805C28.4183 34.4805 32 30.8987 32 26.4805C32 22.0622 28.4183 18.4805 24 18.4805C19.5817 18.4805 16 22.0622 16 26.4805C16 30.8987 19.5817 34.4805 24 34.4805Z" fill="#004169"/>
<path d="M39 18C39.5523 18 40 17.5523 40 17C40 16.4477 39.5523 16 39 16C38.4477 16 38 16.4477 38 17C38 17.5523 38.4477 18 39 18Z" fill="#007BC3"/>
</g>
<defs>
<clipPath id="clip0_159_2359">
<rect width="48" height="48" fill="white"/>
</clipPath>
</defs>
</svg>
