<svg width="48" height="48" viewBox="0 0 48 48" fill="none" xmlns="http://www.w3.org/2000/svg">
<g clip-path="url(#clip0_3889_4381)">
<path d="M43.9961 26.3432C43.9928 26.2505 43.9816 26.1583 43.9629 26.0674C43.9575 26.0371 43.9473 26.0093 43.94 25.98C43.925 25.9212 43.9063 25.8635 43.8838 25.8071C43.8685 25.7641 43.8511 25.7219 43.8316 25.6806C43.8262 25.6694 43.8242 25.6592 43.8179 25.6484L40.01 18.2539C39.8674 17.9715 39.6494 17.7342 39.3802 17.5681C39.1109 17.402 38.801 17.3137 38.4847 17.313H29.3203V34.1177C29.3199 34.4754 29.1811 34.819 28.933 35.0767C28.6849 35.3344 28.3467 35.4861 27.9893 35.5H41.4543C41.7706 35.4993 42.0806 35.4109 42.3498 35.2447C42.619 35.0786 42.8368 34.8411 42.9793 34.5586L43.9925 26.5571C43.9944 26.5493 43.9925 26.5405 43.9944 26.5327C43.9964 26.5088 43.9964 26.4843 43.9964 26.4599C43.9983 26.4306 44.0003 26.4009 44.0003 26.3711C44.0003 26.3618 43.9964 26.3525 43.9964 26.3432" fill="#FFC20E"/>
<path d="M40.5527 17.1054L43.7886 23.5777C43.9277 23.8553 44.0001 24.1616 44 24.4722V33.5C44 34.0304 43.7893 34.5391 43.4142 34.9142C43.0391 35.2893 42.5304 35.5 42 35.5H24V16H38.7636C39.1351 16 39.4992 16.1034 39.8152 16.2987C40.1312 16.4939 40.3866 16.7733 40.5527 17.1054Z" fill="#FFD400"/>
<path d="M29.5 35.5H6C5.46957 35.5 4.96086 35.2893 4.58579 34.9142C4.21071 34.5391 4 34.0304 4 33.5V10C4 9.46957 4.21071 8.96086 4.58579 8.58579C4.96086 8.21071 5.46957 8 6 8H29.5C30.0304 8 30.5391 8.21071 30.9142 8.58579C31.2893 8.96086 31.5 9.46957 31.5 10V33.5C31.5 34.0304 31.2893 34.5391 30.9142 34.9142C30.5391 35.2893 30.0304 35.5 29.5 35.5Z" fill="#FFD400"/>
<path d="M42.5 31.5H44.5C44.7652 31.5 45.0196 31.6054 45.2071 31.7929C45.3946 31.9804 45.5 32.2348 45.5 32.5C45.5 32.7652 45.3946 33.0196 45.2071 33.2071C45.0196 33.3946 44.7652 33.5 44.5 33.5H42.5C42.2348 33.5 41.9804 33.3946 41.7929 33.2071C41.6054 33.0196 41.5 32.7652 41.5 32.5C41.5 32.2348 41.6054 31.9804 41.7929 31.7929C41.9804 31.6054 42.2348 31.5 42.5 31.5Z" fill="#00416B"/>
<path d="M31.5 9.99986V33.4999C31.5001 33.7625 31.4484 34.0226 31.3479 34.2653C31.2474 34.508 31.1001 34.7285 30.9144 34.9142C30.7286 35.1 30.5081 35.2473 30.2654 35.3478C30.0228 35.4483 29.7626 35.4999 29.5 35.4999H5.99999C5.59222 35.4986 5.19453 35.373 4.85999 35.1399L31.1396 8.85986C31.3731 9.19427 31.4988 9.59202 31.5 9.99986Z" fill="#FFC20E"/>
<path fill-rule="evenodd" clip-rule="evenodd" d="M16 36C16 35.2089 15.7654 34.4355 15.3259 33.7777C14.8864 33.1199 14.2616 32.6072 13.5307 32.3045C12.7998 32.0017 11.9956 31.9225 11.2196 32.0769C10.4437 32.2312 9.73098 32.6122 9.17157 33.1716C8.61216 33.731 8.2312 34.4437 8.07686 35.2196C7.92252 35.9956 8.00173 36.7998 8.30448 37.5307C8.60723 38.2616 9.11993 38.8864 9.77772 39.3259C10.4355 39.7654 11.2089 40 12 40C13.0609 40 14.0783 39.5786 14.8284 38.8284C15.5786 38.0783 16 37.0609 16 36Z" fill="#00416B"/>
<path fill-rule="evenodd" clip-rule="evenodd" d="M14 36C14 35.6044 13.8827 35.2178 13.6629 34.8889C13.4432 34.56 13.1308 34.3036 12.7654 34.1522C12.3999 34.0009 11.9978 33.9613 11.6098 34.0384C11.2219 34.1156 10.8655 34.3061 10.5858 34.5858C10.3061 34.8655 10.1156 35.2219 10.0384 35.6098C9.96126 35.9978 10.0009 36.3999 10.1522 36.7654C10.3036 37.1308 10.56 37.4432 10.8889 37.6629C11.2178 37.8827 11.6044 38 12 38C12.5304 38 13.0391 37.7893 13.4142 37.4142C13.7893 37.0391 14 36.5304 14 36Z" fill="#CD992B"/>
<path d="M3.5 31.5H5.5C5.76522 31.5 6.01957 31.6054 6.20711 31.7929C6.39464 31.9804 6.5 32.2348 6.5 32.5C6.5 32.7652 6.39464 33.0196 6.20711 33.2071C6.01957 33.3946 5.76522 33.5 5.5 33.5H3.5C3.23478 33.5 2.98043 33.3946 2.79289 33.2071C2.60536 33.0196 2.5 32.7652 2.5 32.5C2.5 32.2348 2.60536 31.9804 2.79289 31.7929C2.98043 31.6054 3.23478 31.5 3.5 31.5Z" fill="#00416B"/>
<path d="M34.5 18H38.3818C38.5676 18 38.7497 18.0517 38.9078 18.1494C39.0658 18.2471 39.1934 18.387 39.2763 18.5532L41.2763 22.5532C41.3526 22.7056 41.3886 22.875 41.3809 23.0453C41.3732 23.2156 41.3222 23.3811 41.2325 23.526C41.1429 23.671 41.0177 23.7907 40.8688 23.8736C40.7199 23.9566 40.5523 24.0001 40.3818 24H34.5C34.2348 24 33.9804 23.8946 33.7929 23.7071C33.6054 23.5196 33.5 23.2652 33.5 23V19C33.5 18.7348 33.6054 18.4804 33.7929 18.2929C33.9804 18.1054 34.2348 18 34.5 18Z" fill="#0083CA"/>
<path fill-rule="evenodd" clip-rule="evenodd" d="M40.0005 36C40.0006 35.2088 39.766 34.4354 39.3264 33.7775C38.8869 33.1196 38.2622 32.6069 37.5312 32.3041C36.8002 32.0013 35.9959 31.922 35.2199 32.0764C34.4439 32.2307 33.7311 32.6117 33.1716 33.1712C32.6122 33.7306 32.2312 34.4434 32.0769 35.2194C31.9225 35.9954 32.0018 36.7997 32.3046 37.5307C32.6074 38.2617 33.1201 38.8864 33.778 39.326C34.4359 39.7655 35.2093 40.0001 36.0005 40C37.0614 40 38.0788 39.5786 38.8289 38.8284C39.5791 38.0783 40.0005 37.0609 40.0005 36Z" fill="#00416B"/>
<path fill-rule="evenodd" clip-rule="evenodd" d="M38 36C38 35.6044 37.8827 35.2178 37.6629 34.8889C37.4432 34.56 37.1308 34.3036 36.7654 34.1522C36.3999 34.0009 35.9978 33.9613 35.6098 34.0384C35.2219 34.1156 34.8655 34.3061 34.5858 34.5858C34.3061 34.8655 34.1156 35.2219 34.0384 35.6098C33.9613 35.9978 34.0009 36.3999 34.1522 36.7654C34.3036 37.1308 34.56 37.4432 34.8889 37.6629C35.2178 37.8827 35.6044 38 36 38C36.5304 38 37.0391 37.7893 37.4142 37.4142C37.7893 37.0391 38 36.5304 38 36Z" fill="#CD992B"/>
<path fill-rule="evenodd" clip-rule="evenodd" d="M23.4795 19.0703L18.7012 12.5L18.7012 17.1817L9.8374 17.1817C9.48265 17.1818 9.14248 17.3228 8.89169 17.5737C8.64089 17.8246 8.5 18.1648 8.5 18.5196L8.5 21.195C8.50011 21.5497 8.64104 21.8898 8.89183 22.1406C9.14262 22.3914 9.48273 22.5323 9.8374 22.5325L18.7012 22.5325L18.7012 27.2144L23.4795 20.6436C23.6456 20.4149 23.7351 20.1396 23.7351 19.8569C23.7351 19.5743 23.6456 19.2989 23.4795 19.0703Z" fill="#0083CA"/>
</g>
<defs>
<clipPath id="clip0_3889_4381">
<rect width="48" height="48" fill="white"/>
</clipPath>
</defs>
</svg>
