<svg width="48" height="48" viewBox="0 0 48 48" fill="none" xmlns="http://www.w3.org/2000/svg">
<g clip-path="url(#clip0_155_2250)">
<path fill-rule="evenodd" clip-rule="evenodd" d="M8.7666 18.9111C9.56339 18.6455 10.2413 18.1079 10.6816 17.3926C11.3544 16.2988 12.3866 14.6211 13.121 13.4276C13.3898 12.9913 13.7657 12.631 14.2131 12.3811C14.6604 12.1312 15.1643 12 15.6767 12H23.9995C25.2416 12.0001 26.4666 12.2893 27.5775 12.8449C28.6885 13.4004 29.6548 14.207 30.4 15.2007C31.1441 16.1933 31.94 17.2544 32.5933 18.126C33.4992 19.334 34.8188 20.1655 36.2994 20.4615C38.0362 20.8086 40.3941 21.2798 42.0421 21.6089C42.5942 21.7193 43.091 22.0176 43.4479 22.453C43.8049 22.8884 44 23.434 44 23.997V30.0021C43.9999 30.5324 43.7891 31.0411 43.414 31.4161C43.039 31.7911 42.5304 32.0019 42 32.002C35.1714 32.0014 12.8262 32.0005 5.99805 32C5.46761 32 4.95891 31.7893 4.58383 31.4142C4.20876 31.0391 3.99805 30.5304 3.99805 30V21.9414C3.99801 21.5217 4.13009 21.1125 4.37558 20.7721C4.62106 20.4316 4.96749 20.177 5.36575 20.0445C6.38915 19.7031 7.77685 19.2407 8.7666 18.9111Z" fill="#FFD400"/>
<path fill-rule="evenodd" clip-rule="evenodd" d="M31.2139 16.2862C30.9419 15.9235 30.6676 15.5577 30.4 15.2007C29.6548 14.207 28.6885 13.4004 27.5775 12.8449C26.4666 12.2893 25.2416 12.0001 23.9995 12H15.6767C15.1643 12 14.6604 12.1312 14.2131 12.3811C13.7657 12.631 13.3898 12.9913 13.121 13.4276C12.3866 14.6211 11.3544 16.2988 10.6816 17.3926C10.2413 18.1079 9.56339 18.6454 8.7666 18.9111C7.77685 19.2407 6.38915 19.7031 5.36575 20.0445C4.96749 20.177 4.62106 20.4316 4.37558 20.7721C4.13009 21.1125 3.99801 21.5217 3.99805 21.9414V30C3.99805 30.5304 4.20876 31.0391 4.58383 31.4142C4.95891 31.7893 5.46761 32 5.99805 32C8.04725 32.0001 11.494 32.0003 15.4995 32.0005L31.2139 16.2862Z" fill="#FFC20E"/>
<path d="M42.5 27.5H44.5C44.7652 27.5 45.0196 27.6054 45.2071 27.7929C45.3946 27.9804 45.5 28.2348 45.5 28.5C45.5 28.7652 45.3946 29.0196 45.2071 29.2071C45.0196 29.3946 44.7652 29.5 44.5 29.5H42.5C42.2348 29.5 41.9804 29.3946 41.7929 29.2071C41.6054 29.0196 41.5 28.7652 41.5 28.5C41.5 28.2348 41.6054 27.9804 41.7929 27.7929C41.9804 27.6054 42.2348 27.5 42.5 27.5Z" fill="#00416B"/>
<path fill-rule="evenodd" clip-rule="evenodd" d="M16 32C16 31.2089 15.7654 30.4355 15.3259 29.7777C14.8864 29.1199 14.2616 28.6072 13.5307 28.3045C12.7998 28.0017 11.9956 27.9225 11.2196 28.0769C10.4437 28.2312 9.73098 28.6122 9.17157 29.1716C8.61216 29.731 8.2312 30.4437 8.07686 31.2196C7.92252 31.9956 8.00173 32.7998 8.30448 33.5307C8.60723 34.2616 9.11993 34.8864 9.77772 35.3259C10.4355 35.7654 11.2089 36 12 36C13.0609 36 14.0783 35.5786 14.8284 34.8284C15.5786 34.0783 16 33.0609 16 32Z" fill="#00416B"/>
<path fill-rule="evenodd" clip-rule="evenodd" d="M14 32C14 31.6044 13.8827 31.2178 13.6629 30.8889C13.4432 30.56 13.1308 30.3036 12.7654 30.1522C12.3999 30.0009 11.9978 29.9613 11.6098 30.0384C11.2219 30.1156 10.8655 30.3061 10.5858 30.5858C10.3061 30.8655 10.1156 31.2219 10.0384 31.6098C9.96126 31.9978 10.0009 32.3999 10.1522 32.7654C10.3036 33.1308 10.56 33.4432 10.8889 33.6629C11.2178 33.8827 11.6044 34 12 34C12.5304 34 13.0391 33.7893 13.4142 33.4142C13.7893 33.0391 14 32.5304 14 32Z" fill="#CD992B"/>
<path d="M3.5 27.5H5.5C5.76522 27.5 6.01957 27.6054 6.20711 27.7929C6.39464 27.9804 6.5 28.2348 6.5 28.5C6.5 28.7652 6.39464 29.0196 6.20711 29.2071C6.01957 29.3946 5.76522 29.5 5.5 29.5H3.5C3.23478 29.5 2.98043 29.3946 2.79289 29.2071C2.60536 29.0196 2.5 28.7652 2.5 28.5C2.5 28.2348 2.60536 27.9804 2.79289 27.7929C2.98043 27.6054 3.23478 27.5 3.5 27.5Z" fill="#00416B"/>
<path fill-rule="evenodd" clip-rule="evenodd" d="M40.0005 32C40.0005 31.2088 39.766 30.4354 39.3264 29.7775C38.8869 29.1196 38.2622 28.6069 37.5312 28.3041C36.8002 28.0013 35.9959 27.922 35.2199 28.0764C34.4439 28.2307 33.7311 28.6117 33.1716 29.1712C32.6122 29.7306 32.2312 30.4434 32.0769 31.2194C31.9225 31.9954 32.0018 32.7997 32.3046 33.5307C32.6074 34.2617 33.1201 34.8864 33.778 35.326C34.4359 35.7655 35.2093 36.0001 36.0005 36C37.0614 36 38.0788 35.5786 38.8289 34.8284C39.5791 34.0783 40.0005 33.0609 40.0005 32Z" fill="#00416B"/>
<path fill-rule="evenodd" clip-rule="evenodd" d="M38 32C38 31.6044 37.8827 31.2178 37.6629 30.8889C37.4432 30.56 37.1308 30.3036 36.7654 30.1522C36.3999 30.0009 35.9978 29.9613 35.6098 30.0384C35.2219 30.1156 34.8655 30.3061 34.5858 30.5858C34.3061 30.8655 34.1156 31.2219 34.0384 31.6098C33.9613 31.9978 34.0009 32.3999 34.1522 32.7654C34.3036 33.1308 34.56 33.4432 34.8889 33.6629C35.2178 33.8827 35.6044 34 36 34C36.5304 34 37.0391 33.7893 37.4142 33.4142C37.7893 33.0391 38 32.5304 38 32Z" fill="#CD992B"/>
<path fill-rule="evenodd" clip-rule="evenodd" d="M21 20C20.7348 20 20.4804 19.8946 20.2929 19.7071C20.1054 19.5196 20 19.2652 20 19V15C20 14.7348 20.1054 14.4804 20.2929 14.2929C20.4804 14.1054 20.7348 14 21 14H23.9795C24.8616 14 25.7317 14.2041 26.5217 14.5963C27.3118 14.9885 28.0004 15.5581 28.5337 16.2607C29.3169 17.292 30.1944 18.4478 30.7642 19.1978C30.8204 19.2719 30.8549 19.3603 30.8636 19.453C30.8724 19.5457 30.8551 19.639 30.8137 19.7224C30.7723 19.8058 30.7084 19.8759 30.6292 19.925C30.5501 19.974 30.4589 20 30.3657 20H21Z" fill="#0083CA"/>
<path fill-rule="evenodd" clip-rule="evenodd" d="M17.5 14C17.6326 14 17.7598 14.0527 17.8535 14.1464C17.9473 14.2402 18 14.3674 18 14.5V19.5019C18 19.6346 17.9473 19.7617 17.8535 19.8555C17.7598 19.9493 17.6326 20.0019 17.5 20.0019H12.3281C12.2421 20.0019 12.1575 19.9796 12.0825 19.9372C12.0076 19.8949 11.9448 19.8339 11.9004 19.7602C11.8559 19.6865 11.8312 19.6026 11.8286 19.5165C11.826 19.4305 11.8457 19.3453 11.8857 19.2691C12.4385 18.2188 13.4599 16.279 14.0967 15.0683C14.2664 14.746 14.5209 14.4762 14.8327 14.2879C15.1446 14.0996 15.5019 14.0001 15.8662 14H17.5Z" fill="#0083CA"/>
</g>
<defs>
<clipPath id="clip0_155_2250">
<rect width="48" height="48" fill="white"/>
</clipPath>
</defs>
</svg>
