<svg width="48" height="48" viewBox="0 0 48 48" fill="none" xmlns="http://www.w3.org/2000/svg">
<g clip-path="url(#clip0_34_9944)">
<path d="M41.86 15.16L37.825 26.445C37.5225 27.0521 37.0696 27.5716 36.5095 27.9541C35.9493 28.3366 35.3006 28.5693 34.625 28.63L17.42 29.835L14.755 30.02L11.755 12.52L34.75 12.505L39.985 12.5C40.3038 12.5005 40.6179 12.5775 40.9008 12.7245C41.1837 12.8714 41.4272 13.0842 41.6109 13.3448C41.7946 13.6053 41.9131 13.9062 41.9564 14.2221C41.9998 14.5379 41.9667 14.8596 41.86 15.16Z" fill="#FFD400"/>
<path d="M16.5002 41.8618C18.1571 41.8618 19.5002 40.5187 19.5002 38.8618C19.5002 37.205 18.1571 35.8618 16.5002 35.8618C14.8434 35.8618 13.5002 37.205 13.5002 38.8618C13.5002 40.5187 14.8434 41.8618 16.5002 41.8618Z" fill="#CD992B"/>
<path d="M34.5002 41.8618C36.1571 41.8618 37.5002 40.5187 37.5002 38.8618C37.5002 37.205 36.1571 35.8618 34.5002 35.8618C32.8434 35.8618 31.5002 37.205 31.5002 38.8618C31.5002 40.5187 32.8434 41.8618 34.5002 41.8618Z" fill="#CD992B"/>
<path d="M41.94 15.16L37.905 26.445C37.6025 27.0521 37.1496 27.5716 36.5895 27.9541C36.0293 28.3366 35.3806 28.5693 34.705 28.63L17.5 29.835L34.83 12.505L40.065 12.5C40.3838 12.5005 40.6979 12.5775 40.9808 12.7245C41.2637 12.8714 41.5072 13.0842 41.6909 13.3448C41.8746 13.6053 41.9931 13.9062 42.0364 14.2221C42.0798 14.5379 42.0467 14.8596 41.94 15.16Z" fill="#FFC20E"/>
<path d="M39.0003 37H11.0002C10.8209 37 10.6448 36.9517 10.4905 36.8603C10.3362 36.7689 10.2093 36.6376 10.1232 36.4803C10.037 36.323 9.9948 36.1454 10.0009 35.9662C10.0069 35.7869 10.0611 35.6126 10.1577 35.4614L13.2327 30.6499C13.653 30.0271 13.8232 29.2688 13.7095 28.5261L10.57 11.4573C10.4432 10.7674 10.0785 10.1437 9.53951 9.69473C9.00049 9.24579 8.32115 8.99996 7.61965 9H6.96875C6.70353 9 6.44918 8.89464 6.26164 8.70711C6.07411 8.51957 5.96875 8.26522 5.96875 8C5.96875 7.73478 6.07411 7.48043 6.26164 7.29289C6.44918 7.10536 6.70353 7 6.96875 7H7.61965C8.78882 6.99988 9.92105 7.40957 10.8194 8.15782C11.7178 8.90607 12.3255 9.94554 12.5368 11.0955L15.6814 28.1931C15.8792 29.4317 15.6028 30.6993 14.9074 31.7431L12.8261 35H39.0003C39.2655 35 39.5198 35.1054 39.7074 35.2929C39.8949 35.4804 40.0003 35.7348 40.0003 36C40.0003 36.2652 39.8949 36.5196 39.7074 36.7071C39.5198 36.8946 39.2655 37 39.0003 37Z" fill="#00416B"/>
</g>
<defs>
<clipPath id="clip0_34_9944">
<rect width="48" height="48" fill="white"/>
</clipPath>
</defs>
</svg>
