<svg width="48" height="48" viewBox="0 0 48 48" fill="none" xmlns="http://www.w3.org/2000/svg">
<g clip-path="url(#clip0_154_2209)">
<path d="M42.0002 8H6.00024C4.89567 8 4.00024 8.89543 4.00024 10V34C4.00024 35.1046 4.89567 36 6.00024 36H42.0002C43.1048 36 44.0002 35.1046 44.0002 34V10C44.0002 8.89543 43.1048 8 42.0002 8Z" fill="#FFD400"/>
<path d="M44.0002 36H4.00024C28.7741 14.3267 19.2826 14.4247 44.0002 36Z" fill="#FFE600"/>
<path d="M4.00024 8H44.0002C19.2263 29.6733 28.7178 29.5753 4.00024 8Z" fill="#FFC20E"/>
<path d="M34 39C38.9706 39 43 34.9706 43 30C43 25.0294 38.9706 21 34 21C29.0294 21 25 25.0294 25 30C25 34.9706 29.0294 39 34 39Z" fill="#FFD400"/>
<path d="M34 20C32.0222 20 30.0888 20.5865 28.4443 21.6853C26.7998 22.7841 25.5181 24.3459 24.7612 26.1732C24.0043 28.0004 23.8063 30.0111 24.1922 31.9509C24.578 33.8907 25.5304 35.6725 26.9289 37.0711C28.3275 38.4696 30.1093 39.422 32.0491 39.8079C33.9889 40.1937 35.9996 39.9957 37.8268 39.2388C39.6541 38.4819 41.2159 37.2002 42.3147 35.5557C43.4135 33.9112 44 31.9778 44 30C43.997 27.3488 42.9425 24.807 41.0678 22.9322C39.1931 21.0575 36.6513 20.003 34 20ZM30.1875 23.2945C30.3954 23.3327 30.5967 23.4004 30.7854 23.4956C30.4262 23.5094 30.0712 23.4152 29.7661 23.2251C29.8721 23.1584 29.9776 23.0916 30.0865 23.0301C30.4009 23.0626 30.0974 23.0487 30.1875 23.2945V23.2945ZM26 30C26.0025 29.3494 26.0848 28.7016 26.245 28.0711C26.3543 28.2543 26.5046 28.4098 26.684 28.5253C26.8634 28.6409 27.0671 28.7133 27.2792 28.7371C27.1947 28.331 27.5673 29.2141 27.8892 29.4566C28.3162 29.7786 28.7492 29.5601 29.2132 29.824C29.7613 30.135 30.7 30.531 30.7315 31.08C30.7383 31.206 30.1861 31.6144 30.2168 32.0253C30.2439 32.3844 30.5713 32.6974 30.824 32.996C31.356 33.6254 31.3875 33.8725 31.5 34.8195C31.6498 35.3942 31.831 35.9602 32.043 36.515C32.1409 36.9814 32.3006 37.4327 32.518 37.8568C30.6872 37.5098 29.0348 36.5354 27.8451 35.1014C26.6554 33.6673 26.0029 31.8633 26 30ZM34 38C33.7764 38 33.5569 37.9846 33.3379 37.9666C33.2058 37.7133 33.1595 37.4239 33.2061 37.1421C33.0493 37.0987 32.9385 37.0071 32.8203 36.9717C32.8739 36.7861 32.8818 36.5902 32.8433 36.4009C32.9195 36.2886 33.6914 35.9834 33.8894 35.7859C34.3086 35.3679 34.252 34.8513 34.5 34.5537C34.7429 34.2627 35.043 34.2537 35.2935 33.8543C35.271 33.8904 35.7785 32.3152 35.7876 32.3543C35.6426 31.7073 34.9195 32.0012 34.499 31.7202C34.3521 31.6223 34.1431 31.6157 33.989 31.5279C33.7571 31.3948 33.9754 31.0833 33.7617 30.8814C33.4324 30.5698 32.9221 30.4822 32.5193 30.0642C32.2703 30.2674 31.4072 30.1018 31.0543 30.1323C30.6415 30.1682 30.6343 30.4523 30.1368 30.1682C29.7694 29.9588 30.4608 29.3667 29.5878 29.4043C29.7003 29.1912 28.0123 28.9539 28.8278 28.1912C29.1416 27.9723 29.5073 27.8395 29.8884 27.8059C30.2695 27.7724 30.6528 27.8393 31 28C30.7456 27.0481 32.7835 25.7581 33.3521 25.5987C33.2421 25.565 33.7085 25.4556 34 25.3337C33.835 25.7326 34.5713 25.0112 35 25.0002C34.8916 24.9196 35 25.0002 34.1094 24.2712C33.9253 24.4152 33.6548 24.4057 33.4894 24.5002C33.55 24.0588 33.2878 23.9611 33.0002 24.0092C32.8193 24.042 32.6483 24.1155 32.5002 24.2242C32.4721 24.2452 32.3266 24.0062 32.2836 23.9686C32.4338 23.9309 32.5793 23.8766 32.7175 23.8067C32.7192 23.7042 33.4931 23.7052 33.2621 23.7621C34.0761 24.1117 34.1021 23.554 34.7341 23.3746C34.6559 23.3936 34.5781 23.4122 34.5002 23.4313C34.4692 22.7012 32.402 23.2386 32.7126 22.8331C32.2176 22.734 32.1535 22.7936 31.8986 23.0497C31.9711 23.0616 31.486 23.0675 31.8146 22.8517C31.4711 22.9747 31.1511 22.6776 30.9357 22.6127C32.3372 22.0285 33.8766 21.8574 35.3721 22.1198C36.8677 22.3821 38.257 23.0667 39.376 24.093C39.2653 24.1555 39.1695 24.2415 39.0955 24.345C39.2989 24.5147 39.5437 24.6273 39.805 24.6714C39.825 24.781 39.845 24.8907 39.8643 25C39.0454 25.2134 38.2105 25.6006 38.481 26.3255C37.651 26.1475 37.1656 26.9946 37.9663 27.1205C38.6338 27.2255 39.022 26.4301 39.5606 26.1595C39.75 26.3824 40.0689 26.5585 40.2725 26.7945C40.293 27.0106 40.4519 26.4891 39.8643 25.9995C40.134 26.0687 40.381 26.2072 40.5808 26.4013C40.7805 26.5953 40.9261 26.8383 41.003 27.106C41.1439 27.0796 41.2748 27.0149 41.3814 26.919C41.4842 27.1643 41.5743 27.4148 41.6514 27.6694C41.2784 27.5577 40.8857 27.5275 40.5 27.5811C40.5381 27.7771 40.5161 27.8999 40.58 28C40.1784 27.6531 39.2695 27.79 39.5 27.064C39.1238 27.1905 38.7542 27.3361 38.3926 27.5C38.0181 27.6026 37.9319 27.2696 37.554 27.5125C37.4043 27.6089 37.6016 27.8975 37.5 28.01C37.3418 28.1846 37.073 28.2591 36.9075 28.427C36.6958 28.6416 36.2425 28.8701 36.752 29C36.5731 29.3481 36.5377 29.7525 36.6534 30.1263C36.7692 30.5002 37.0268 30.8139 37.3711 31C38.449 31.481 38.3516 30.0572 39.2495 30.844C39.4351 31.0061 39.4971 31.0381 39.5161 31.041C39.5088 31.054 39.5135 31.1116 39.6079 31.3181C39.6333 31.3731 39.5821 31.6331 39.6035 31.7305C39.6635 32.0086 39.9859 32.2329 40.0401 32.512C40.1104 32.875 39.999 32.6341 39.992 33.0196C39.9449 33.3285 39.9476 33.643 40 33.9512C40.0137 34.2771 40.1428 34.5876 40.3643 34.8272C39.6208 35.8118 38.6592 36.6108 37.5549 37.1613C36.4507 37.7118 35.2339 37.9989 34 38Z" fill="#004169"/>
<path d="M38.1705 25.148L38.186 24.9645L38.0235 24.894L37.7945 24.949L37.6255 25.2175V25.3955H37.822L38.1705 25.148Z" fill="#004169"/>
</g>
<defs>
<clipPath id="clip0_154_2209">
<rect width="48" height="48" fill="white"/>
</clipPath>
</defs>
</svg>
