<svg width="48" height="48" viewBox="0 0 48 48" fill="none" xmlns="http://www.w3.org/2000/svg">
<g clip-path="url(#clip0_156_2315)">
<path d="M39.9581 10H7.95813C5.74899 10 3.95813 11.7909 3.95813 14V34C3.95813 36.2091 5.74899 38 7.95813 38H39.9581C42.1673 38 43.9581 36.2091 43.9581 34V14C43.9581 11.7909 42.1673 10 39.9581 10Z" fill="#FFD400"/>
<path d="M43.96 14V34C43.9595 35.0607 43.5379 36.0778 42.7879 36.8278C42.0378 37.5779 41.0207 37.9995 39.96 38H10.035L38.385 10H39.96C41.0207 10.0005 42.0378 10.4221 42.7879 11.1722C43.5379 11.9222 43.9595 12.9393 43.96 14Z" fill="#FFC20E"/>
<path d="M25 34C25.5523 34 26 33.5523 26 33C26 32.4477 25.5523 32 25 32H9C8.44772 32 8 32.4477 8 33C8 33.5523 8.44772 34 9 34H25Z" fill="#00416B"/>
<path d="M31 30C31.5523 30 32 29.5523 32 29C32 28.4477 31.5523 28 31 28H9C8.44772 28 8 28.4477 8 29C8 29.5523 8.44772 30 9 30H31Z" fill="#00416B"/>
<path d="M39.5002 21H35.5002C34.948 21 34.5002 21.4477 34.5002 22V26C34.5002 26.5523 34.948 27 35.5002 27H39.5002C40.0525 27 40.5002 26.5523 40.5002 26V22C40.5002 21.4477 40.0525 21 39.5002 21Z" fill="#A65718"/>
<path d="M12.5422 14.9631C12.5422 14.8914 12.5282 14.8205 12.5008 14.7542C12.4734 14.688 12.4333 14.6279 12.3826 14.5772C12.3319 14.5265 12.2718 14.4863 12.2056 14.4589C12.1394 14.4315 12.0684 14.4174 11.9968 14.4175L8 14.4178L10.5568 17.6901L12.4476 15.2701C12.5095 15.1799 12.5425 15.073 12.5422 14.9636" fill="#0083CA"/>
<path d="M15.9239 17.6561V17.6548L13.761 14.8961C13.6589 14.7541 13.5255 14.6373 13.3712 14.5548C13.217 14.4723 13.0458 14.4263 12.871 14.4203V14.4175C12.9492 14.4589 13.0171 14.5173 13.0697 14.5885C13.1223 14.6597 13.1582 14.7418 13.1747 14.8288C13.1912 14.9157 13.188 15.0053 13.1652 15.0908C13.1424 15.1764 13.1007 15.2557 13.0431 15.3229L11.0346 17.8929L11.0325 17.8896L8.31946 21.3609L12.5681 21.3634L12.8845 21.3523C13.0487 21.3453 13.2094 21.303 13.3559 21.2285C13.5023 21.154 13.6311 21.0488 13.7334 20.9203L13.7373 20.9179L15.9143 18.1329V18.1304C15.9682 18.0635 15.9983 17.9806 16.0001 17.8948C16.0018 17.8089 15.9751 17.7249 15.924 17.6558" fill="#0083CA"/>
</g>
<defs>
<clipPath id="clip0_156_2315">
<rect width="48" height="48" fill="white"/>
</clipPath>
</defs>
</svg>
