<svg width="48" height="48" viewBox="0 0 48 48" fill="none" xmlns="http://www.w3.org/2000/svg">
<g clip-path="url(#clip0_156_2314)">
<path d="M39.9581 10H7.95813C5.74899 10 3.95813 11.7909 3.95813 14V34C3.95813 36.2091 5.74899 38 7.95813 38H39.9581C42.1673 38 43.9581 36.2091 43.9581 34V14C43.9581 11.7909 42.1673 10 39.9581 10Z" fill="#FFD400"/>
<path d="M43.96 14V34C43.9595 35.0607 43.5379 36.0778 42.7879 36.8278C42.0378 37.5779 41.0207 37.9995 39.96 38H10.035L38.385 10H39.96C41.0207 10.0005 42.0378 10.4221 42.7879 11.1722C43.5379 11.9222 43.9595 12.9393 43.96 14Z" fill="#FFC20E"/>
<path d="M43.9581 14H3.95813V22H43.9581V14Z" fill="#00416B"/>
<path d="M24.9581 28C25.5104 28 25.9581 27.5523 25.9581 27C25.9581 26.4477 25.5104 26 24.9581 26H8.95813C8.40585 26 7.95813 26.4477 7.95813 27C7.95813 27.5523 8.40585 28 8.95813 28H24.9581Z" fill="#00416B"/>
<path d="M18.9581 32C19.5104 32 19.9581 31.5523 19.9581 31C19.9581 30.4477 19.5104 30 18.9581 30H8.95813C8.40584 30 7.95813 30.4477 7.95813 31C7.95813 31.5523 8.40584 32 8.95813 32H18.9581Z" fill="#00416B"/>
<path d="M39.5002 26H35.5002C34.948 26 34.5002 26.4477 34.5002 27V31C34.5002 31.5523 34.948 32 35.5002 32H39.5002C40.0525 32 40.5002 31.5523 40.5002 31V27C40.5002 26.4477 40.0525 26 39.5002 26Z" fill="#0083CA"/>
</g>
<defs>
<clipPath id="clip0_156_2314">
<rect width="48" height="48" fill="white"/>
</clipPath>
</defs>
</svg>
