<svg width="48" height="48" viewBox="0 0 48 48" fill="none" xmlns="http://www.w3.org/2000/svg">
<g clip-path="url(#clip0_154_2204)">
<path d="M21.3899 4.96897L7.0208 17.3425C6.94345 17.4091 6.88834 17.4978 6.86287 17.5966C6.83739 17.6954 6.84278 17.7997 6.87831 17.8954C6.91383 17.9911 6.97779 18.0736 7.0616 18.1319C7.1454 18.1902 7.24503 18.2214 7.3471 18.2214H40.6533C40.7554 18.2214 40.855 18.1901 40.9388 18.1319C41.0226 18.0736 41.0865 17.9911 41.1221 17.8954C41.1576 17.7997 41.163 17.6954 41.1375 17.5966C41.112 17.4977 41.0569 17.4091 40.9795 17.3425L26.6103 4.96897C25.8843 4.34383 24.9581 4 24.0001 4C23.0421 4 22.1159 4.34383 21.3899 4.96897Z" fill="#FFC20E"/>
<path d="M40.0002 17.9429H8.00024C6.89567 17.9429 6.00024 18.8383 6.00024 19.9429V37.9429C6.00024 39.0474 6.89567 39.9429 8.00024 39.9429H40.0002C41.1048 39.9429 42.0002 39.0474 42.0002 37.9429V19.9429C42.0002 18.8383 41.1048 17.9429 40.0002 17.9429Z" fill="#FFD400"/>
<path d="M26.6103 31.4738L41.0002 19V16.5C41.0002 15.9696 40.7895 15.4609 40.4145 15.0858C40.0394 14.7107 39.5307 14.5 39.0002 14.5H9.00024C8.46981 14.5 7.9611 14.7107 7.58603 15.0858C7.21096 15.4609 7.00024 15.9696 7.00024 16.5V19L21.39 31.4738C22.1159 32.0989 23.0421 32.4428 24.0001 32.4428C24.9582 32.4428 25.8844 32.0989 26.6103 31.4738Z" fill="#00416B"/>
<path d="M21.3899 26.6902L7.0208 39.0637C6.94345 39.1303 6.88834 39.219 6.86287 39.3178C6.83739 39.4167 6.84278 39.521 6.87831 39.6166C6.91383 39.7123 6.97779 39.7949 7.0616 39.8531C7.1454 39.9114 7.24503 39.9426 7.3471 39.9426H40.6533C40.7554 39.9426 40.855 39.9114 40.9388 39.8531C41.0226 39.7948 41.0865 39.7123 41.1221 39.6166C41.1576 39.5209 41.163 39.4167 41.1375 39.3178C41.112 39.219 41.0569 39.1303 40.9795 39.0637L26.6103 26.6902C25.8843 26.065 24.9581 25.7212 24.0001 25.7212C23.0421 25.7212 22.1159 26.065 21.3899 26.6902Z" fill="#FFE600"/>
</g>
<defs>
<clipPath id="clip0_154_2204">
<rect width="48" height="48" fill="white"/>
</clipPath>
</defs>
</svg>
