<svg width="48" height="48" viewBox="0 0 48 48" fill="none" xmlns="http://www.w3.org/2000/svg">
<g clip-path="url(#clip0_154_2202)">
<path d="M42.0002 10H6.00024C4.89567 10 4.00024 10.8954 4.00024 12V36C4.00024 37.1046 4.89567 38 6.00024 38H42.0002C43.1048 38 44.0002 37.1046 44.0002 36V12C44.0002 10.8954 43.1048 10 42.0002 10Z" fill="#FFD400"/>
<path d="M44.0002 37.9998H4.00024L21.3243 22.4082C22.0588 21.7471 23.012 21.3813 24.0002 21.3813C24.9884 21.3813 25.9416 21.7471 26.6761 22.4082L44.0002 37.9998Z" fill="#FFE600"/>
<path d="M4.00024 10H44.0002L26.6761 25.5918C25.9416 26.2529 24.9884 26.6186 24.0002 26.6186C23.012 26.6186 22.0588 26.2529 21.3243 25.5918L4.00024 10Z" fill="#FFC20E"/>
</g>
<defs>
<clipPath id="clip0_154_2202">
<rect width="48" height="48" fill="white"/>
</clipPath>
</defs>
</svg>
