<svg width="48" height="48" viewBox="0 0 48 48" fill="none" xmlns="http://www.w3.org/2000/svg">
<g clip-path="url(#clip0_154_2203)">
<path d="M40.0002 20H8.00024C6.89567 20 6.00024 20.8954 6.00024 22V40C6.00024 41.1046 6.89567 42 8.00024 42H40.0002C41.1048 42 42.0002 41.1046 42.0002 40V22C42.0002 20.8954 41.1048 20 40.0002 20Z" fill="#FFD400"/>
<path d="M26.6103 33.5313L40.9795 21.1577C41.0569 21.0911 41.112 21.0024 41.1375 20.9036C41.163 20.8048 41.1576 20.7005 41.1221 20.6048C41.0865 20.5091 41.0226 20.4266 40.9388 20.3683C40.855 20.31 40.7554 20.2788 40.6533 20.2788H7.3471C7.24503 20.2788 7.1454 20.31 7.0616 20.3683C6.97779 20.4266 6.91383 20.5091 6.87831 20.6048C6.84278 20.7005 6.83739 20.8047 6.86287 20.9036C6.88834 21.0024 6.94345 21.0911 7.0208 21.1577L21.3899 33.5313C22.1159 34.1564 23.0421 34.5002 24.0001 34.5002C24.9581 34.5002 25.8843 34.1564 26.6103 33.5313Z" fill="#CD992B"/>
<path d="M21.3899 7.0261L7.0208 19.3998C6.94345 19.4664 6.88834 19.5551 6.86287 19.6539C6.83739 19.7528 6.84278 19.857 6.87831 19.9527C6.91383 20.0484 6.97779 20.1309 7.0616 20.1892C7.1454 20.2475 7.24503 20.2787 7.3471 20.2787H40.6533C40.7554 20.2787 40.855 20.2475 40.9388 20.1892C41.0226 20.1309 41.0865 20.0484 41.1221 19.9527C41.1576 19.857 41.163 19.7527 41.1375 19.6539C41.112 19.5551 41.0569 19.4664 40.9795 19.3998L26.6103 7.0261C25.8843 6.40096 24.9581 6.05713 24.0001 6.05713C23.0421 6.05713 22.1159 6.40096 21.3899 7.0261Z" fill="#FFC20E"/>
<path d="M21.39 28.7478L7.02087 41.1213C6.94354 41.1879 6.88844 41.2766 6.86298 41.3754C6.83752 41.4742 6.84291 41.5785 6.87843 41.6742C6.91396 41.7698 6.97791 41.8524 7.0617 41.9106C7.14549 41.9689 7.24511 42.0001 7.34717 42.0001H40.6534C40.7554 42.0001 40.8551 41.9689 40.9388 41.9106C41.0226 41.8523 41.0866 41.7698 41.1221 41.6741C41.1576 41.5784 41.163 41.4742 41.1375 41.3753C41.1121 41.2765 41.057 41.1878 40.9796 41.1212L26.6103 28.7478C25.8844 28.1226 24.9582 27.7788 24.0002 27.7788C23.0422 27.7788 22.116 28.1226 21.39 28.7478Z" fill="#FFE600"/>
</g>
<defs>
<clipPath id="clip0_154_2203">
<rect width="48" height="48" fill="white"/>
</clipPath>
</defs>
</svg>
