<svg width="48" height="48" viewBox="0 0 48 48" fill="none" xmlns="http://www.w3.org/2000/svg">
<g clip-path="url(#clip0_154_2208)">
<path d="M37 8.5H6C4.89543 8.5 4 9.39543 4 10.5V31.5C4 32.6046 4.89543 33.5 6 33.5H37C38.1046 33.5 39 32.6046 39 31.5V10.5C39 9.39543 38.1046 8.5 37 8.5Z" fill="#FFD400"/>
<path d="M18.9624 20.2477L4 33.5001H39L24.0376 20.2477C23.3396 19.6238 22.4362 19.2788 21.5 19.2788C20.5638 19.2788 19.6604 19.6238 18.9624 20.2477Z" fill="#FFE600"/>
<path d="M24.0376 21.7524L39 8.5H4L18.9624 21.7524C19.6604 22.3764 20.5638 22.7213 21.5 22.7213C22.4362 22.7213 23.3396 22.3764 24.0376 21.7524Z" fill="#FFC20E"/>
<path d="M38 32L43 25H33L38 32Z" fill="#0083CA"/>
<path d="M38 33C37.8408 32.9999 37.6839 32.9619 37.5424 32.8891C37.4008 32.8163 37.2787 32.7108 37.1861 32.5813L32.1861 25.5813C32.0792 25.4318 32.0157 25.2557 32.0024 25.0724C31.9891 24.8891 32.0265 24.7057 32.1106 24.5423C32.1947 24.3789 32.3222 24.2419 32.4791 24.1462C32.636 24.0505 32.8163 24 33 24H43C43.1838 24 43.364 24.0505 43.5209 24.1462C43.6778 24.2419 43.8053 24.3789 43.8894 24.5423C43.9735 24.7057 44.011 24.8891 43.9976 25.0724C43.9843 25.2557 43.9208 25.4318 43.814 25.5813L38.814 32.5813C38.7213 32.7108 38.5992 32.8163 38.4576 32.8891C38.3161 32.9619 38.1592 32.9999 38 33ZM34.9434 26L38 30.2796L41.0567 26H34.9434Z" fill="#00416B"/>
<path d="M43 40H33C32.8163 40.0001 32.636 39.9495 32.4791 39.8538C32.3222 39.7581 32.1947 39.6211 32.1106 39.4577C32.0265 39.2943 31.9891 39.1109 32.0024 38.9276C32.0157 38.7443 32.0792 38.5682 32.1861 38.4187L37.1861 31.4187C37.2786 31.2892 37.4008 31.1836 37.5424 31.1108C37.6839 31.038 37.8408 31 38 31C38.1592 31 38.3161 31.038 38.4577 31.1108C38.5992 31.1836 38.7214 31.2892 38.814 31.4187L43.814 38.4187C43.9208 38.5682 43.9843 38.7443 43.9976 38.9276C44.011 39.1109 43.9735 39.2943 43.8894 39.4577C43.8053 39.6211 43.6778 39.7581 43.5209 39.8538C43.364 39.9495 43.1838 40.0001 43 40ZM34.9434 38H41.0567L38 33.7205L34.9434 38Z" fill="#00416B"/>
</g>
<defs>
<clipPath id="clip0_154_2208">
<rect width="48" height="48" fill="white"/>
</clipPath>
</defs>
</svg>
