<svg width="48" height="48" viewBox="0 0 48 48" fill="none" xmlns="http://www.w3.org/2000/svg">
<g clip-path="url(#clip0_155_2256)">
<path d="M30.825 25.15C32.5943 23.4106 33.6303 21.0596 33.72 18.58C33.7851 15.9969 32.8315 13.4918 31.0653 11.6058C29.299 9.71983 26.8618 8.60425 24.28 8.50003C22.3333 8.44127 20.4138 8.96866 18.7704 10.0138C17.127 11.059 15.8355 12.5738 15.0633 14.3617C14.2911 16.1497 14.0739 18.1284 14.4397 20.0413C14.8055 21.9542 15.7375 23.7132 17.115 25.09C17.3627 25.3326 17.5488 25.6308 17.6579 25.9599C17.7669 26.2889 17.7958 26.6393 17.7419 26.9818C17.6881 27.3242 17.5532 27.6489 17.3485 27.9286C17.1438 28.2084 16.8751 28.4352 16.565 28.59C14.4099 29.6263 12.5209 31.1426 11.0431 33.0226C9.5653 34.9026 8.53796 37.0962 8.03996 39.435C7.98113 39.7479 7.99205 40.07 8.07193 40.3782C8.15181 40.6864 8.29868 40.9732 8.50209 41.2182C8.7055 41.4631 8.96043 41.6602 9.24872 41.7953C9.53701 41.9305 9.85156 42.0004 10.17 42H37.825C38.1438 42.0011 38.4589 41.9317 38.7478 41.7969C39.0367 41.6621 39.2923 41.4651 39.4962 41.2201C39.7002 40.975 39.8475 40.688 39.9277 40.3794C40.0078 40.0708 40.0189 39.7484 39.96 39.435C39.4599 37.0983 38.4316 34.907 36.954 33.0289C35.4763 31.1509 33.5884 29.6359 31.435 28.6C31.1252 28.4529 30.8552 28.2339 30.6474 27.9611C30.4396 27.6884 30.3 27.37 30.2403 27.0323C30.1806 26.6947 30.2025 26.3477 30.3042 26.0202C30.4059 25.6928 30.5845 25.3944 30.825 25.15Z" fill="#FFD400"/>
<path d="M32 28.9C31.815 28.795 31.625 28.695 31.435 28.6C31.1248 28.4528 30.8544 28.2335 30.6461 27.9606C30.4378 27.6877 30.2977 27.3689 30.2376 27.0309C30.1774 26.6929 30.1989 26.3454 30.3002 26.0174C30.4015 25.6893 30.5797 25.3902 30.82 25.145C32.5707 23.4394 33.6061 21.131 33.7157 18.6892C33.8253 16.2475 33.0009 13.8556 31.41 12C31.855 13.925 32.28 28 17.29 28L17 42H32V28.9Z" fill="#FFC20E"/>
<path d="M14 42H34L36.035 32C34.7645 30.5535 33.195 29.4003 31.435 28.62C31.1475 28.4696 30.8966 28.258 30.7 28L24 33.225L17.29 28C17.0944 28.2486 16.847 28.4516 16.565 28.595C15.6409 28.95 12.865 30.71 11.99 31.945L14 42Z" fill="#00416B"/>
<path d="M29.635 5.70499C25.9489 4.61494 22.0261 4.61494 18.34 5.70499C17.6139 5.92897 16.979 6.3803 16.5289 6.99245C16.0788 7.6046 15.8373 8.34517 15.84 9.10499L15.47 13.605C18.1674 12.4472 21.0721 11.8501 24.0075 11.8501C26.9429 11.8501 29.8476 12.4472 32.545 13.605L32.175 9.10499C32.1777 8.34517 31.9361 7.6046 31.486 6.99245C31.0359 6.3803 30.401 5.92897 29.675 5.70499" fill="#00416B"/>
<path d="M32.2301 13.3949C29.626 12.2665 26.8181 11.6843 23.9801 11.6843C21.142 11.6843 18.3341 12.2665 15.7301 13.3949C15.6422 13.4332 15.5672 13.496 15.514 13.5758C15.4608 13.6556 15.4316 13.749 15.4301 13.8449V15.9649C15.43 16.0968 15.4621 16.2267 15.5236 16.3434C15.5851 16.46 15.6742 16.5599 15.7831 16.6343C15.892 16.7087 16.0174 16.7554 16.1485 16.7703C16.2795 16.7852 16.4122 16.7679 16.5351 16.7199C21.3202 14.8851 26.6149 14.8851 31.4001 16.7199C31.5229 16.7679 31.6556 16.7852 31.7866 16.7703C31.9177 16.7554 32.0431 16.7087 32.152 16.6343C32.2609 16.5599 32.35 16.46 32.4115 16.3434C32.473 16.2267 32.5052 16.0968 32.5051 15.9649V13.8449C32.5057 13.7517 32.4803 13.6602 32.4317 13.5807C32.3831 13.5012 32.3133 13.4368 32.2301 13.3949Z" fill="#0083CA"/>
<path d="M17.2913 27.9636C17.1797 28.0207 17.0935 28.1177 17.05 28.2353C17.0065 28.3529 17.0087 28.4826 17.0563 28.5986L19.9263 35.0986C19.9771 35.2109 20.0705 35.2985 20.1858 35.342C20.3011 35.3855 20.429 35.3815 20.5413 35.3308L20.5463 35.3286L23.7613 33.8286C23.8718 33.7716 23.9571 33.6755 24.0006 33.559C24.044 33.4425 24.0425 33.3141 23.9963 33.1986L17.2913 27.9636Z" fill="#CD992B"/>
<path d="M30.67 27.9636C30.7807 28.0216 30.8658 28.1189 30.9084 28.2364C30.9509 28.354 30.9479 28.4832 30.9 28.5986L28.03 35.0986C27.9791 35.2109 27.8858 35.2985 27.7705 35.342C27.6552 35.3855 27.5273 35.3815 27.415 35.3308L27.41 35.3286L24.2 33.8286C24.0886 33.7725 24.0022 33.6767 23.9578 33.5602C23.9134 33.4436 23.9142 33.3146 23.96 33.1986L30.67 27.9636Z" fill="#CD992B"/>
</g>
<defs>
<clipPath id="clip0_155_2256">
<rect width="48" height="48" fill="white"/>
</clipPath>
</defs>
</svg>
