<svg width="48" height="48" viewBox="0 0 48 48" fill="none" xmlns="http://www.w3.org/2000/svg">
<g clip-path="url(#clip0_159_2375)">
<path d="M41 33H27C26.4477 33 26 33.4477 26 34C26 34.5523 26.4477 35 27 35H41C41.5523 35 42 34.5523 42 34C42 33.4477 41.5523 33 41 33Z" fill="#00416B"/>
<path d="M35 41V27C35 26.4477 34.5523 26 34 26C33.4477 26 33 26.4477 33 27V41C33 41.5523 33.4477 42 34 42C34.5523 42 35 41.5523 35 41Z" fill="#00416B"/>
<path d="M40 6H28C26.8954 6 26 6.89543 26 8V20C26 21.1046 26.8954 22 28 22H40C41.1046 22 42 21.1046 42 20V8C42 6.89543 41.1046 6 40 6Z" fill="#FFD400"/>
<path d="M20 6H8C6.89543 6 6 6.89543 6 8V20C6 21.1046 6.89543 22 8 22H20C21.1046 22 22 21.1046 22 20V8C22 6.89543 21.1046 6 20 6Z" fill="#FFD400"/>
<path d="M19.9906 26H8C6.89543 26 6 26.8954 6 28V39.9906C6 41.0952 6.89543 41.9906 8 41.9906H19.9906C21.0952 41.9906 21.9906 41.0952 21.9906 39.9906V28C21.9906 26.8954 21.0952 26 19.9906 26Z" fill="#FFC20E"/>
<path d="M42 7.99996V20C42 20.2626 41.9484 20.5227 41.8479 20.7654C41.7474 21.0081 41.6001 21.2286 41.4143 21.4143C41.2286 21.6001 41.0081 21.7474 40.7654 21.8479C40.5227 21.9484 40.2626 22 40 22H28C27.4696 21.999 26.9611 21.7888 26.585 21.415L41.415 6.58496C41.7888 6.96114 41.999 7.46964 42 7.99996Z" fill="#FFC20E"/>
<path d="M22 28V40C22 40.2626 21.9484 40.5227 21.8479 40.7654C21.7474 41.0081 21.6001 41.2286 21.4143 41.4143C21.2286 41.6001 21.0081 41.7474 20.7654 41.8479C20.5227 41.9484 20.2626 42 20 42H7.99996C7.46964 41.999 6.96113 41.7888 6.58496 41.415L21.415 26.585C21.7888 26.9611 21.999 27.4696 22 28Z" fill="#CD992B"/>
</g>
<defs>
<clipPath id="clip0_159_2375">
<rect width="48" height="48" fill="white"/>
</clipPath>
</defs>
</svg>
