<svg width="48" height="48" viewBox="0 0 48 48" fill="none" xmlns="http://www.w3.org/2000/svg">
<g clip-path="url(#clip0_157_2347)">
<path d="M40 41.9999H8.00049C7.47006 41.9999 6.96135 41.7892 6.58627 41.4141C6.2112 41.039 6.00049 40.5303 6.00049 39.9999V13.6917C6.00049 13.2719 6.13256 12.8628 6.37799 12.5223C6.62342 12.1818 6.96978 11.9271 7.36799 11.7943L21.75 6.9999C23.2105 6.51306 24.7895 6.51306 26.25 6.9999L40.6325 11.7943C41.0308 11.9271 41.3771 12.1818 41.6225 12.5223C41.868 12.8628 42 13.2719 42 13.6917V39.9999C42 40.5303 41.7893 41.039 41.4143 41.4141C41.0392 41.7892 40.5305 41.9999 40 41.9999Z" fill="#FFD400"/>
<path d="M42 13.69V40C42.0001 40.2626 41.9484 40.5228 41.8479 40.7654C41.7474 41.0081 41.6001 41.2286 41.4144 41.4144C41.2286 41.6001 41.0081 41.7474 40.7655 41.8479C40.5228 41.9484 40.2627 42.0001 40 42H8C7.46968 41.999 6.96117 41.7888 6.585 41.415L33.5 14.5L24 11L6 17.63V13.69C5.99971 13.2701 6.132 12.8608 6.37801 12.5205C6.62402 12.1803 6.97118 11.9263 7.37 11.795L21.75 6.99998C23.2108 6.51498 24.7892 6.51498 26.25 6.99998L40.63 11.795C41.0288 11.9263 41.376 12.1803 41.622 12.5205C41.868 12.8608 42.0003 13.2701 42 13.69Z" fill="#FFC20E"/>
<path d="M11 19H37C37.5304 19 38.0391 19.2107 38.4142 19.5858C38.7893 19.9609 39 20.4696 39 21V42H9V21C9 20.4696 9.21071 19.9609 9.58579 19.5858C9.96086 19.2107 10.4696 19 11 19Z" fill="#00416B"/>
<path d="M29 38H25V42H29V38Z" fill="#FFD400"/>
<path d="M39 38H35V42H39V38Z" fill="#FFD400"/>
<path d="M25 38H21V42H25V38Z" fill="#CD992B"/>
<path d="M21 38H17V42H21V38Z" fill="#FFD400"/>
<path d="M17 38H13V42H17V38Z" fill="#FFC20E"/>
<path d="M21 22H17V26H21V22Z" fill="#FFC20E"/>
<path d="M25 33.9951H21V37.9951H25V33.9951Z" fill="#FFD400"/>
<path d="M21 33.9951H17V37.9951H21V33.9951Z" fill="#CD992B"/>
<path d="M17 33.9951H13V37.9951H17V33.9951Z" fill="#FFD400"/>
<path d="M13 38H9V42H13V38Z" fill="#CD992B"/>
<path d="M25 30H21V34H25V30Z" fill="#FFC20E"/>
<path d="M17 30H13V34H17V30Z" fill="#FFC20E"/>
<path d="M13 34H9V38H13V34Z" fill="#FFC20E"/>
<path d="M29 34H25V38H29V34Z" fill="#FFC20E"/>
<path d="M21 30H17V34H21V30Z" fill="#FFD400"/>
<path d="M17 26H13V30H17V26Z" fill="#FFD400"/>
<path d="M21 26H17V30H21V26Z" fill="#CD992B"/>
<path d="M13 30H9V34H13V30Z" fill="#CD992B"/>
<path d="M41.9995 16.0002C41.7507 16.0001 41.5041 15.9535 41.2725 15.8627L24.6553 9.37271C24.2186 9.21967 23.7421 9.22452 23.3086 9.38641L6.72755 15.8627C6.23344 16.0557 5.68292 16.0444 5.1971 15.8315C4.71128 15.6185 4.32995 15.2213 4.137 14.7272C3.94406 14.2331 3.9553 13.6825 4.16826 13.1967C4.38121 12.7109 4.77844 12.3296 5.27255 12.1366L21.8898 5.64661C23.2383 5.14273 24.7225 5.13787 26.0743 5.63291L42.7276 12.1366C43.1618 12.3063 43.5231 12.6224 43.7491 13.0302C43.9751 13.4381 44.0515 13.912 43.9652 14.3702C43.8788 14.8284 43.6351 15.242 43.2762 15.5396C42.9173 15.8372 42.4657 16.0001 41.9995 16.0002Z" fill="#A65718"/>
</g>
<defs>
<clipPath id="clip0_157_2347">
<rect width="48" height="48" fill="white"/>
</clipPath>
</defs>
</svg>
