<svg width="48" height="48" viewBox="0 0 48 48" fill="none" xmlns="http://www.w3.org/2000/svg">
<g clip-path="url(#clip0_159_2360)">
<path d="M35.5 6.2222V41.7778C35.5 43.0056 34.6422 44 33.5833 44H14.4166C14.1571 43.9955 13.9017 43.935 13.6677 43.8229C13.4337 43.7107 13.2266 43.5494 13.0606 43.35C12.6938 42.9086 12.4952 42.3516 12.5 41.7778V6.2222C12.5 4.99445 13.3577 4 14.4166 4H33.5833C34.6422 4 35.5 4.99445 35.5 6.2222Z" fill="#FFD400"/>
<path d="M35.5 12.5V41.78C35.5 43.005 34.64 44 33.585 44H14.415C14.1557 43.9952 13.9005 43.9347 13.6667 43.8225C13.4329 43.7104 13.226 43.5492 13.06 43.35C12.6935 42.9094 12.4951 42.3531 12.5 41.78V35.5L35.5 12.5Z" fill="#FFC20E"/>
<path d="M33.5 44H14.5C13.9696 44 13.4609 43.7893 13.0858 43.4142C12.7107 43.0391 12.5 42.5304 12.5 42V38H35.5V42C35.5 42.5304 35.2893 43.0391 34.9142 43.4142C34.5391 43.7893 34.0304 44 33.5 44Z" fill="#00416B"/>
<path d="M24 42C24.5523 42 25 41.5523 25 41C25 40.4477 24.5523 40 24 40C23.4477 40 23 40.4477 23 41C23 41.5523 23.4477 42 24 42Z" fill="#FFD400"/>
<path d="M35.5 6H12.5C12.5 5.46957 12.7107 4.96086 13.0858 4.58579C13.4609 4.21071 13.9696 4 14.5 4H33.5C34.0304 4 34.5391 4.21071 34.9142 4.58579C35.2893 4.96086 35.5 5.46957 35.5 6Z" fill="#00416B"/>
</g>
<defs>
<clipPath id="clip0_159_2360">
<rect width="48" height="48" fill="white"/>
</clipPath>
</defs>
</svg>
