<svg width="48" height="48" viewBox="0 0 48 48" fill="none" xmlns="http://www.w3.org/2000/svg">
<g clip-path="url(#clip0_159_2386)">
<path d="M34.8232 42.1214L31.4026 40.1464C31.2877 40.0801 31.1512 40.0622 31.0232 40.0965C30.8951 40.1308 30.7859 40.2146 30.7196 40.3294L28.7447 43.75C28.6952 43.8357 28.6215 43.9047 28.5328 43.9484C28.4441 43.9922 28.3444 44.0086 28.2464 43.9957C28.1483 43.9828 28.0563 43.9411 27.982 43.8759C27.9076 43.8107 27.8543 43.7249 27.8287 43.6294L24 29.3407L31.7274 27.27L35.5561 41.559C35.5817 41.6545 35.5784 41.7555 35.5466 41.8491C35.5148 41.9428 35.456 42.0249 35.3775 42.0851C35.2991 42.1453 35.2045 42.1809 35.1058 42.1873C35.0072 42.1938 34.9088 42.1709 34.8232 42.1214Z" fill="#00416B"/>
<path d="M13.1769 42.1214L16.5975 40.1464C16.7123 40.0801 16.8488 40.0622 16.9769 40.0965C17.1049 40.1308 17.2142 40.2146 17.2805 40.3294L19.2555 43.75C19.3049 43.8357 19.3786 43.9047 19.4673 43.9484C19.556 43.9922 19.6557 44.0086 19.7537 43.9957C19.8518 43.9828 19.9438 43.9411 20.0181 43.8759C20.0925 43.8107 20.1458 43.7249 20.1714 43.6294L24 29.3407L16.2726 27.27L12.4439 41.559C12.4183 41.6545 12.4216 41.7555 12.4534 41.8491C12.4852 41.9428 12.5441 42.0249 12.6225 42.0851C12.701 42.1453 12.7955 42.1809 12.8942 42.1873C12.9928 42.1938 13.0912 42.1709 13.1769 42.1214Z" fill="#00416B"/>
<path d="M25.8583 5.09739C26.0884 4.68305 26.4505 4.35752 26.8868 4.17252C27.3232 3.98752 27.8089 3.95367 28.2667 4.07634C28.7246 4.19902 29.1283 4.47118 29.4137 4.84959C29.6991 5.22799 29.8499 5.69093 29.842 6.16484C29.8357 6.5439 29.931 6.91774 30.1178 7.24761C30.3046 7.57749 30.5763 7.85139 30.9046 8.04094C31.2329 8.23049 31.606 8.32879 31.9851 8.32566C32.3642 8.32252 32.7355 8.21806 33.0607 8.02309C33.4672 7.77935 33.9435 7.67845 34.4139 7.73643C34.8843 7.79441 35.3218 8.00794 35.657 8.34309C35.9921 8.67823 36.2057 9.11578 36.2636 9.58619C36.3216 10.0566 36.2207 10.5329 35.977 10.9394C35.782 11.2645 35.6775 11.6359 35.6744 12.015C35.6713 12.3941 35.7696 12.7671 35.9591 13.0954C36.1487 13.4238 36.4226 13.6954 36.7524 13.8823C37.0823 14.0691 37.4562 14.1643 37.8352 14.158C38.3091 14.1502 38.7721 14.301 39.1505 14.5864C39.5289 14.8718 39.801 15.2755 39.9237 15.7333C40.0464 16.1911 40.0125 16.6768 39.8275 17.1132C39.6425 17.5496 39.317 17.9116 38.9027 18.1418C38.5713 18.3259 38.2951 18.5953 38.1029 18.922C37.9106 19.2488 37.8092 19.621 37.8092 20.0001C37.8092 20.3792 37.9106 20.7514 38.1029 21.0782C38.2951 21.4049 38.5713 21.6743 38.9027 21.8584C39.317 22.0886 39.6425 22.4506 39.8275 22.887C40.0125 23.3234 40.0464 23.809 39.9237 24.2669C39.801 24.7247 39.5289 25.1284 39.1505 25.4138C38.7721 25.6992 38.3091 25.85 37.8352 25.8421C37.4562 25.8359 37.0823 25.9311 36.7524 26.1179C36.4226 26.3048 36.1487 26.5764 35.9591 26.9047C35.7696 27.2331 35.6713 27.6061 35.6744 27.9852C35.6775 28.3643 35.782 28.7357 35.977 29.0608C36.2207 29.4673 36.3216 29.9436 36.2636 30.414C36.2057 30.8844 35.9921 31.322 35.657 31.6571C35.3218 31.9923 34.8843 32.2058 34.4139 32.2638C33.9435 32.3217 33.4672 32.2208 33.0607 31.9771C32.7355 31.7821 32.3642 31.6777 31.9851 31.6745C31.606 31.6714 31.2329 31.7697 30.9046 31.9592C30.5763 32.1488 30.3046 32.4227 30.1178 32.7526C29.931 33.0825 29.8357 33.4563 29.842 33.8353C29.8499 34.3093 29.6991 34.7722 29.4137 35.1506C29.1283 35.529 28.7246 35.8012 28.2667 35.9238C27.8089 36.0465 27.3232 36.0127 26.8868 35.8277C26.4505 35.6427 26.0884 35.3171 25.8583 34.9028C25.6742 34.5714 25.4048 34.2953 25.078 34.103C24.7513 33.9107 24.3791 33.8093 24 33.8093C23.6209 33.8093 23.2486 33.9107 22.9219 34.103C22.5952 34.2953 22.3258 34.5714 22.1417 34.9028C21.9115 35.3171 21.5495 35.6427 21.1131 35.8277C20.6767 36.0127 20.191 36.0465 19.7332 35.9238C19.2754 35.8012 18.8717 35.529 18.5863 35.1506C18.3008 34.7722 18.1501 34.3093 18.1579 33.8353C18.1642 33.4563 18.069 33.0825 17.8821 32.7526C17.6953 32.4227 17.4236 32.1488 17.0953 31.9592C16.767 31.7697 16.394 31.6714 16.0149 31.6745C15.6358 31.6777 15.2644 31.7821 14.9393 31.9771C14.5328 32.2208 14.0565 32.3217 13.5861 32.2638C13.1156 32.2058 12.6781 31.9923 12.343 31.6571C12.0078 31.322 11.7943 30.8844 11.7363 30.414C11.6783 29.9436 11.7792 29.4673 12.023 29.0608C12.2179 28.7357 12.3224 28.3643 12.3255 27.9853C12.3287 27.6062 12.2304 27.2332 12.0409 26.9049C11.8514 26.5765 11.5775 26.3049 11.2476 26.118C10.9178 25.9312 10.544 25.8359 10.165 25.8421C9.69105 25.85 9.22812 25.6992 8.84971 25.4138C8.4713 25.1284 8.19914 24.7247 8.07646 24.2669C7.95379 23.809 7.98764 23.3234 8.17264 22.887C8.35764 22.4506 8.68318 22.0886 9.09752 21.8584C9.42892 21.6743 9.70506 21.4049 9.89732 21.0782C10.0896 20.7514 10.191 20.3792 10.191 20.0001C10.191 19.621 10.0896 19.2488 9.89732 18.922C9.70506 18.5953 9.42892 18.3259 9.09752 18.1418C8.68318 17.9116 8.35764 17.5496 8.17264 17.1132C7.98764 16.6768 7.95379 16.1911 8.07646 15.7333C8.19914 15.2755 8.4713 14.8718 8.84971 14.5864C9.22812 14.301 9.69105 14.1502 10.165 14.158C10.544 14.1643 10.9179 14.0691 11.2477 13.8823C11.5776 13.6954 11.8515 13.4238 12.0411 13.0954C12.2306 12.7671 12.3289 12.3941 12.3258 12.015C12.3226 11.6359 12.2182 11.2645 12.0232 10.9394C11.7795 10.5329 11.6786 10.0566 11.7366 9.58619C11.7945 9.11578 12.0081 8.67823 12.3432 8.34309C12.6784 8.00794 13.1159 7.79441 13.5863 7.73643C14.0567 7.67845 14.533 7.77935 14.9395 8.02309C15.2646 8.21798 15.6359 8.32239 16.015 8.3255C16.394 8.32862 16.767 8.23033 17.0953 8.04081C17.4235 7.8513 17.6952 7.57746 17.882 7.24766C18.0689 6.91786 18.1641 6.54409 18.1579 6.16509C18.1501 5.69118 18.3008 5.22824 18.5863 4.84984C18.8717 4.47143 19.2754 4.19927 19.7332 4.07659C20.191 3.95392 20.6767 3.98777 21.1131 4.17277C21.5495 4.35777 21.9115 4.6833 22.1417 5.09764C22.3258 5.42904 22.5952 5.70516 22.922 5.8974C23.2487 6.08964 23.6209 6.19099 24 6.19097C24.3792 6.19094 24.7514 6.08954 25.0781 5.89725C25.4048 5.70497 25.6742 5.42881 25.8583 5.09739Z" fill="#FFD400"/>
<path d="M24 31C30.0751 31 35 26.0751 35 20C35 13.9249 30.0751 9 24 9C17.9249 9 13 13.9249 13 20C13 26.0751 17.9249 31 24 31Z" fill="#FFC20E"/>
<path d="M28.2426 15.7572L21.8787 22.1212L19.7573 19.9999C19.6646 19.9064 19.5543 19.8321 19.4328 19.7813C19.3113 19.7305 19.181 19.7042 19.0493 19.7039C18.9176 19.7036 18.7872 19.7293 18.6654 19.7796C18.5437 19.8299 18.4331 19.9037 18.34 19.9968C18.2469 20.0899 18.1731 20.2005 18.1228 20.3222C18.0726 20.4439 18.0468 20.5744 18.0471 20.7061C18.0474 20.8378 18.0737 20.9681 18.1245 21.0896C18.1753 21.2111 18.2496 21.3214 18.3431 21.4141L21.1716 24.2425C21.3591 24.4301 21.6135 24.5354 21.8787 24.5354C22.1439 24.5354 22.3982 24.4301 22.5858 24.2425L29.6568 17.1715C29.8444 16.984 29.9497 16.7296 29.9497 16.4644C29.9497 16.1992 29.8444 15.9448 29.6568 15.7573C29.4693 15.5697 29.215 15.4644 28.9497 15.4644C28.6845 15.4644 28.4302 15.5697 28.2426 15.7572Z" fill="#0083CA"/>
</g>
<defs>
<clipPath id="clip0_159_2386">
<rect width="48" height="48" fill="white"/>
</clipPath>
</defs>
</svg>
