<svg width="48" height="48" viewBox="0 0 48 48" fill="none" xmlns="http://www.w3.org/2000/svg">
<path d="M39.5491 24.7073L23.2857 8.44385L8.4364 23.2931L24.7 39.5565C28.0195 42.876 34.0345 42.2429 38.135 38.1423C42.2355 34.0418 42.8686 28.0268 39.5491 24.7073Z" fill="#FFD400"/>
<path d="M38.135 38.1423C36.4775 39.8362 34.3566 41.0027 32.0385 41.4953L11.1362 20.5932L16.8735 14.856L39.0908 37.0733C38.7933 37.448 38.4741 37.8049 38.135 38.1423Z" fill="#FFC20E"/>
<path d="M21.8715 21.8784C25.972 17.7779 26.6051 11.7628 23.2857 8.44339C19.9662 5.12393 13.9512 5.7571 9.85065 9.8576C5.75014 13.9581 5.11698 19.9732 8.43643 23.2926C11.7559 26.6121 17.771 25.9789 21.8715 21.8784Z" fill="#FFE600"/>
<path d="M19.7501 19.7572C22.4033 17.104 22.813 13.2119 20.6651 11.064C18.5172 8.9161 14.6251 9.32579 11.9719 11.979C9.31862 14.6323 8.90893 18.5244 11.0568 20.6723C13.2047 22.8202 17.0968 22.4105 19.7501 19.7572Z" fill="#CD992B"/>
</svg>
