<svg width="48" height="48" viewBox="0 0 48 48" fill="none" xmlns="http://www.w3.org/2000/svg">
<g clip-path="url(#clip0_157_2350)">
<path d="M7.68884 17.1733H37.0433V35.3546C37.0433 35.885 36.8326 36.3937 36.4576 36.7688C36.0825 37.1439 35.5738 37.3546 35.0433 37.3546H9.68884C9.15841 37.3546 8.6497 37.1439 8.27463 36.7688C7.89956 36.3937 7.68884 35.885 7.68884 35.3546V17.1733Z" fill="#FFC20E"/>
<path d="M17.4862 25.4292H27.2462C27.7766 25.4292 28.2853 25.6399 28.6604 26.015C29.0355 26.3901 29.2462 26.8988 29.2462 27.4292V37.3544H15.4862V27.4292C15.4862 26.8988 15.6969 26.3901 16.072 26.015C16.4471 25.6399 16.9558 25.4292 17.4862 25.4292Z" fill="#CD992B"/>
<path d="M19.1553 8L14.11 13.045L9.48669 8.4217C9.81643 8.15082 10.2295 8.00189 10.6562 8H19.1553Z" fill="#FFC20E"/>
<path d="M14.11 13.045L6.31268 20.8425H6.06958C5.757 20.8419 5.44974 20.7615 5.17686 20.6091C4.90398 20.4566 4.6745 20.2371 4.51011 19.9712C4.34573 19.7054 4.25188 19.402 4.23744 19.0897C4.22299 18.7775 4.28844 18.4667 4.42758 18.1868L9.01418 9.01353C9.1294 8.786 9.2902 8.58461 9.48658 8.42188L14.11 13.045Z" fill="#FFD400"/>
<path d="M21.907 20.8424H6.3125L14.11 13.0449L21.907 20.8424Z" fill="#FFE600"/>
<path d="M40.3042 18.1868L35.7176 9.01355C35.5642 8.70944 35.3296 8.45375 35.0397 8.27485C34.7499 8.09594 34.4162 8.00081 34.0756 8H19.1552L14.11 13.045L21.9072 20.8425H38.6622C38.9749 20.8423 39.2825 20.7623 39.5556 20.61C39.8287 20.4576 40.0584 20.238 40.2229 19.972C40.3874 19.706 40.4812 19.4024 40.4954 19.09C40.5097 18.7776 40.4438 18.4667 40.3042 18.1868Z" fill="#FFD400"/>
<path fill-rule="evenodd" clip-rule="evenodd" d="M25.5924 27.2559L26.3714 41.6076L30.1005 35.7572L35.7574 41.414C35.9431 41.5998 36.1636 41.7471 36.4062 41.8476C36.6489 41.9481 36.9089 41.9998 37.1716 41.9998C37.4342 41.9998 37.6943 41.9481 37.937 41.8476C38.1796 41.7471 38.4001 41.5998 38.5858 41.414L41.4142 38.5856C41.7893 38.2105 42 37.7018 42 37.1714C42 36.641 41.7893 36.1323 41.4142 35.7572L35.7574 30.1003L41.9277 26.0513L27.256 25.5923C26.8385 25.6582 26.4526 25.8547 26.1537 26.1536C25.8548 26.4525 25.6583 26.8384 25.5924 27.2559Z" fill="#00416B"/>
</g>
<defs>
<clipPath id="clip0_157_2350">
<rect width="48" height="48" fill="white"/>
</clipPath>
</defs>
</svg>
