<svg width="48" height="48" viewBox="0 0 48 48" fill="none" xmlns="http://www.w3.org/2000/svg">
<g clip-path="url(#clip0_157_2332)">
<path d="M42 37H6C5.46957 37 4.96086 36.7893 4.58579 36.4142C4.21071 36.0391 4 35.5304 4 35V13C4 12.4696 4.21071 11.9609 4.58579 11.5858C4.96086 11.2107 5.46957 11 6 11H42C42.5304 11 43.0391 11.2107 43.4142 11.5858C43.7893 11.9609 44 12.4696 44 13V35C44 35.5304 43.7893 36.0391 43.4142 36.4142C43.0391 36.7893 42.5304 37 42 37Z" fill="#FFD400"/>
<path d="M44 13V35C44.0001 35.2627 43.9484 35.5228 43.8479 35.7655C43.7474 36.0081 43.6001 36.2286 43.4144 36.4144C43.2286 36.6001 43.0081 36.7474 42.7655 36.8479C42.5228 36.9484 42.2627 37.0001 42 37H11L37 11H42C42.2627 10.9999 42.5228 11.0516 42.7655 11.1521C43.0081 11.2526 43.2286 11.3999 43.4144 11.5856C43.6001 11.7714 43.7474 11.9919 43.8479 12.2345C43.9484 12.4772 44.0001 12.7373 44 13Z" fill="#FFC20E"/>
<path d="M10 33C9.73478 33 9.48043 32.8946 9.29289 32.7071C9.10536 32.5196 9 32.2652 9 32V16C9 15.7348 9.10536 15.4804 9.29289 15.2929C9.48043 15.1054 9.73478 15 10 15C10.2652 15 10.5196 15.1054 10.7071 15.2929C10.8946 15.4804 11 15.7348 11 16V32C11 32.2652 10.8946 32.5196 10.7071 32.7071C10.5196 32.8946 10.2652 33 10 33Z" fill="#00416B"/>
<path d="M16 33H14C13.7348 33 13.4804 32.8946 13.2929 32.7071C13.1054 32.5196 13 32.2652 13 32V16C13 15.7348 13.1054 15.4804 13.2929 15.2929C13.4804 15.1054 13.7348 15 14 15H16C16.2652 15 16.5196 15.1054 16.7071 15.2929C16.8946 15.4804 17 15.7348 17 16V32C17 32.2652 16.8946 32.5196 16.7071 32.7071C16.5196 32.8946 16.2652 33 16 33Z" fill="#00416B"/>
<path d="M34 33H32C31.7348 33 31.4804 32.8946 31.2929 32.7071C31.1054 32.5196 31 32.2652 31 32V16C31 15.7348 31.1054 15.4804 31.2929 15.2929C31.4804 15.1054 31.7348 15 32 15H34C34.2652 15 34.5196 15.1054 34.7071 15.2929C34.8946 15.4804 35 15.7348 35 16V32C35 32.2652 34.8946 32.5196 34.7071 32.7071C34.5196 32.8946 34.2652 33 34 33Z" fill="#00416B"/>
<path d="M20 33C19.7348 33 19.4804 32.8946 19.2929 32.7071C19.1054 32.5196 19 32.2652 19 32V16C19 15.7348 19.1054 15.4804 19.2929 15.2929C19.4804 15.1054 19.7348 15 20 15C20.2652 15 20.5196 15.1054 20.7071 15.2929C20.8946 15.4804 21 15.7348 21 16V32C21 32.2652 20.8946 32.5196 20.7071 32.7071C20.5196 32.8946 20.2652 33 20 33Z" fill="#00416B"/>
<path d="M24 33C23.7348 33 23.4804 32.8946 23.2929 32.7071C23.1054 32.5196 23 32.2652 23 32V16C23 15.7348 23.1054 15.4804 23.2929 15.2929C23.4804 15.1054 23.7348 15 24 15C24.2652 15 24.5196 15.1054 24.7071 15.2929C24.8946 15.4804 25 15.7348 25 16V32C25 32.2652 24.8946 32.5196 24.7071 32.7071C24.5196 32.8946 24.2652 33 24 33Z" fill="#00416B"/>
<path d="M28 33C27.7348 33 27.4804 32.8946 27.2929 32.7071C27.1054 32.5196 27 32.2652 27 32V16C27 15.7348 27.1054 15.4804 27.2929 15.2929C27.4804 15.1054 27.7348 15 28 15C28.2652 15 28.5196 15.1054 28.7071 15.2929C28.8946 15.4804 29 15.7348 29 16V32C29 32.2652 28.8946 32.5196 28.7071 32.7071C28.5196 32.8946 28.2652 33 28 33Z" fill="#00416B"/>
<path d="M38 33C37.7348 33 37.4804 32.8946 37.2929 32.7071C37.1054 32.5196 37 32.2652 37 32V16C37 15.7348 37.1054 15.4804 37.2929 15.2929C37.4804 15.1054 37.7348 15 38 15C38.2652 15 38.5196 15.1054 38.7071 15.2929C38.8946 15.4804 39 15.7348 39 16V32C39 32.2652 38.8946 32.5196 38.7071 32.7071C38.5196 32.8946 38.2652 33 38 33Z" fill="#0083CA"/>
</g>
<defs>
<clipPath id="clip0_157_2332">
<rect width="48" height="48" fill="white"/>
</clipPath>
</defs>
</svg>
