<svg width="48" height="48" viewBox="0 0 48 48" fill="none" xmlns="http://www.w3.org/2000/svg">
<g clip-path="url(#clip0_159_2371)">
<path fill-rule="evenodd" clip-rule="evenodd" d="M31.168 24.8556L36.3639 32V26.9093H42.5458C42.9315 26.9091 43.3013 26.7557 43.574 26.4829C43.8467 26.2101 43.9999 25.8402 44 25.4545V22.5455C43.9998 22.1599 43.8465 21.7901 43.5739 21.5174C43.3012 21.2447 42.9314 21.0914 42.5458 21.0912H36.3639V16L31.168 23.145C30.9873 23.3936 30.89 23.693 30.89 24.0004C30.89 24.3077 30.9873 24.6071 31.168 24.8557" fill="#FFC20E"/>
<path fill-rule="evenodd" clip-rule="evenodd" d="M16.832 23.1444L11.6362 16V21.0907H5.45425C5.06852 21.0909 4.69866 21.2443 4.42597 21.5171C4.15327 21.7899 4.00005 22.1598 4 22.5455V25.4545C4.00019 25.8401 4.15346 26.2099 4.42614 26.4826C4.69882 26.7553 5.06861 26.9086 5.45425 26.9088H11.6362V32L16.832 24.855C17.0127 24.6064 17.11 24.307 17.11 23.9996C17.11 23.6923 17.0127 23.3929 16.832 23.1443" fill="#FFD400"/>
<path fill-rule="evenodd" clip-rule="evenodd" d="M24.8556 16.832L32 11.6362H26.9093V5.45425C26.9091 5.06852 26.7557 4.69866 26.4829 4.42597C26.2101 4.15327 25.8402 4.00005 25.4545 4H22.5455C22.1599 4.00019 21.7901 4.15346 21.5174 4.42614C21.2447 4.69882 21.0914 5.06861 21.0912 5.45425V11.6362H16L23.145 16.832C23.3936 17.0127 23.693 17.11 24.0004 17.11C24.3077 17.11 24.6071 17.0127 24.8557 16.832" fill="#FFD400"/>
<path fill-rule="evenodd" clip-rule="evenodd" d="M23.1444 31.1681L16 36.364H21.0907V42.5459C21.0909 42.9316 21.2443 43.3015 21.5171 43.5742C21.7899 43.8469 22.1598 44.0001 22.5455 44.0001H25.4545C25.8401 43.9999 26.2099 43.8467 26.4826 43.574C26.7553 43.3013 26.9086 42.9315 26.9088 42.5459V36.364H32L24.855 31.1681C24.6064 30.9874 24.307 30.8901 23.9996 30.8901C23.6923 30.8901 23.3929 30.9874 23.1443 31.1681" fill="#CD992B"/>
<path d="M24 27C25.6569 27 27 25.6569 27 24C27 22.3431 25.6569 21 24 21C22.3431 21 21 22.3431 21 24C21 25.6569 22.3431 27 24 27Z" fill="#00416B"/>
</g>
<defs>
<clipPath id="clip0_159_2371">
<rect width="48" height="48" fill="white"/>
</clipPath>
</defs>
</svg>
