<svg width="48" height="48" viewBox="0 0 48 48" fill="none" xmlns="http://www.w3.org/2000/svg">
<g clip-path="url(#clip0_155_2258)">
<path d="M30.8233 21.1489C32.5958 19.4111 33.6324 17.0584 33.7187 14.5777C33.7823 11.9959 32.8281 9.49268 31.0622 7.60823C29.2962 5.72378 26.8602 4.60924 24.2797 4.50516C22.3346 4.4481 20.4172 4.97618 18.7756 6.02104C17.134 7.0659 15.8438 8.57944 15.072 10.3658C14.3002 12.1521 14.0823 14.1289 14.4465 16.0404C14.8108 17.952 15.7404 19.7102 17.115 21.0875C17.3659 21.3297 17.5548 21.6287 17.6656 21.9594C17.7764 22.29 17.8059 22.6425 17.7516 22.9869C17.6974 23.3314 17.5609 23.6577 17.3539 23.9383C17.1468 24.2189 16.8751 24.4454 16.5619 24.5988C14.4089 25.6347 12.5215 27.1498 11.0443 29.0279C9.5672 30.9059 8.53953 33.0972 8.04005 35.4338C7.98111 35.7469 7.99201 36.0693 8.07197 36.3778C8.15193 36.6862 8.29899 36.9733 8.50264 37.2184C8.70629 37.4635 8.96152 37.6607 9.25013 37.7958C9.53874 37.9309 9.85362 38.0007 10.1723 38.0002H37.8275C38.1462 38.0007 38.4611 37.9309 38.7497 37.7958C39.0384 37.6607 39.2936 37.4635 39.4973 37.2184C39.7009 36.9733 39.848 36.6863 39.928 36.3778C40.008 36.0693 40.0189 35.747 39.96 35.4338C39.4605 33.0971 38.4328 30.9057 36.9555 29.0277C35.4782 27.1496 33.5906 25.6346 31.4373 24.5988C31.127 24.4523 30.8564 24.2336 30.648 23.9611C30.4396 23.6885 30.2994 23.3701 30.2394 23.0323C30.1793 22.6945 30.201 22.3472 30.3026 22.0195C30.4042 21.6918 30.5829 21.3932 30.8236 21.1488" fill="#FFD400"/>
<path d="M37.8264 38H13.42L21.9931 24.0068C33.5477 19.806 31.8575 9.925 31.4089 8.00195C32.9999 9.85737 33.8246 12.249 33.7155 14.6907C33.6063 17.1324 32.5714 19.4409 30.8211 21.147C30.5811 21.3921 30.4032 21.691 30.302 22.0189C30.2009 22.3467 30.1795 22.6939 30.2397 23.0317C30.2999 23.3694 30.4399 23.6879 30.6481 23.9606C30.8563 24.2333 31.1266 24.4524 31.4365 24.5995C33.5903 25.6347 35.4783 27.1494 36.9558 29.0275C38.4333 30.9057 39.461 33.0972 39.96 35.4342C40.0191 35.7474 40.0082 36.0699 39.9282 36.3785C39.8481 36.687 39.701 36.9741 39.4971 37.2193C39.2933 37.4644 39.0379 37.6615 38.749 37.7964C38.4602 37.9314 38.1452 38.0009 37.8264 38Z" fill="#FFC20E"/>
<path d="M21.9185 23.9224H26.0814C26.2361 23.9224 26.3878 23.9654 26.5194 24.0467C26.651 24.128 26.7574 24.2443 26.8266 24.3827C26.8958 24.521 26.9252 24.6759 26.9113 24.83C26.8974 24.9841 26.8409 25.1312 26.7481 25.255L24.6661 28.0306C24.5885 28.134 24.4879 28.218 24.3722 28.2758C24.2566 28.3337 24.129 28.3638 23.9997 28.3638C23.8703 28.3638 23.7428 28.3337 23.6271 28.2758C23.5114 28.218 23.4108 28.134 23.3332 28.0306L21.2517 25.255C21.1589 25.1312 21.1024 24.9841 21.0886 24.83C21.0747 24.6759 21.104 24.521 21.1732 24.3826C21.2425 24.2443 21.3489 24.1279 21.4805 24.0466C21.6121 23.9653 21.7638 23.9223 21.9185 23.9224" fill="#00416B"/>
<path d="M25.1343 28.108L27.1551 36.5634C27.196 36.7348 27.1976 36.9132 27.1596 37.0852C27.1217 37.2573 27.0453 37.4185 26.9362 37.5568C26.827 37.6951 26.6879 37.8068 26.5294 37.8836C26.3708 37.9605 26.1969 38.0003 26.0208 38.0003H21.9791C21.8029 38.0003 21.629 37.9604 21.4705 37.8836C21.312 37.8067 21.1729 37.695 21.0637 37.5567C20.9546 37.4184 20.8782 37.2572 20.8402 37.0852C20.8023 36.9132 20.8038 36.7348 20.8447 36.5634L22.8656 28.108C22.9265 27.853 23.0716 27.626 23.2774 27.4636C23.4832 27.3012 23.7378 27.2129 23.9999 27.2129C24.2621 27.2129 24.5166 27.3012 24.7224 27.4636C24.9282 27.626 25.0733 27.853 25.1343 28.108Z" fill="#00416B"/>
<path fill-rule="evenodd" clip-rule="evenodd" d="M38.4995 35.0083C38.1713 34.2898 37.6383 33.6842 36.9673 33.2674L37.214 32.6947C37.2717 32.561 37.2747 32.41 37.2225 32.274C37.1702 32.1381 37.0668 32.028 36.9344 31.9673L36.195 31.6282C36.0659 31.569 35.919 31.5613 35.7844 31.6067C35.6498 31.6522 35.5376 31.7473 35.4707 31.8726L35.1362 32.4998C34.7526 32.3234 34.3376 32.2252 33.9156 32.211C33.4936 32.1967 33.0729 32.2667 32.6782 32.4168L32.4836 31.9168C32.4571 31.8485 32.4173 31.7862 32.3666 31.7333C32.316 31.6804 32.2554 31.638 32.1883 31.6086C32.1213 31.5791 32.0491 31.5632 31.9758 31.5616C31.9026 31.5601 31.8298 31.573 31.7616 31.5996L31.4039 31.7391C31.2662 31.7927 31.1554 31.8989 31.096 32.0342C31.0365 32.1695 31.0332 32.3229 31.0868 32.4607L31.2681 32.9266C29.9155 33.5845 29.9903 33.8841 29.5567 34.5262L29.0267 34.2831C28.9588 34.252 28.8853 34.2348 28.8105 34.2326C28.7358 34.2304 28.6615 34.2432 28.5918 34.2704C28.5222 34.2975 28.4587 34.3384 28.4052 34.3905C28.3516 34.4427 28.3091 34.5051 28.2802 34.574L27.9691 35.3152C27.9151 35.4439 27.9113 35.5882 27.9585 35.7196C28.0057 35.851 28.1005 35.9599 28.2241 36.0248L28.833 36.3444C28.5978 37.139 28.5914 37.9838 28.8145 38.7819L28.2066 39.0185C28.0688 39.0722 27.958 39.1783 27.8985 39.3137C27.839 39.4491 27.8357 39.6025 27.8893 39.7403L28.0287 40.0984C28.0553 40.1666 28.095 40.2289 28.1457 40.2818C28.1963 40.3347 28.2569 40.3771 28.3239 40.4065C28.391 40.436 28.4631 40.452 28.5364 40.4535C28.6096 40.4551 28.6824 40.4422 28.7506 40.4156L29.3356 40.1879C29.6253 40.9629 30.1888 41.6049 30.9196 41.9929L30.6485 42.7018C30.5983 42.8331 30.5995 42.9784 30.6519 43.1088C30.7043 43.2392 30.804 43.345 30.931 43.405L31.7028 43.77C31.833 43.8316 31.982 43.8403 32.1185 43.7945C32.255 43.7487 32.3685 43.6518 32.4352 43.5242L32.7946 42.8364C33.5138 43.0295 33.7072 43.3158 35.1573 42.9084L35.4443 43.645C35.4979 43.7828 35.6041 43.8936 35.7395 43.9531C35.8749 44.0125 36.0283 44.0158 36.1661 43.9622L36.524 43.8228C36.5922 43.7962 36.6546 43.7565 36.7074 43.7058C36.7603 43.6552 36.8027 43.5946 36.8321 43.5276C36.8616 43.4605 36.8775 43.3883 36.8791 43.3151C36.8807 43.2419 36.8678 43.1691 36.8412 43.1009L36.5675 42.3984C37.9244 41.7514 37.8238 41.4884 38.2433 40.8784L38.8883 41.1655C38.9561 41.1957 39.0292 41.212 39.1033 41.2136C39.1775 41.2151 39.2512 41.2019 39.3202 41.1746C39.3892 41.1473 39.452 41.1065 39.505 41.0547C39.558 41.0028 39.6002 40.9408 39.6289 40.8725L39.9563 40.0945C40.0081 39.9714 40.014 39.8339 39.973 39.7068C39.9319 39.5798 39.8466 39.4717 39.7326 39.4022L38.9699 38.9372L38.9684 38.9333C39.2828 38.1287 39.2893 37.2364 38.9868 36.4273L39.5851 36.1941C39.7229 36.1404 39.8337 36.0342 39.8931 35.8989C39.9526 35.7635 39.9559 35.6101 39.9022 35.4723L39.7629 35.1145C39.7363 35.0463 39.6966 34.9839 39.6459 34.9311C39.5952 34.8782 39.5346 34.8358 39.4676 34.8064C39.4005 34.7769 39.3284 34.7609 39.2551 34.7594C39.1819 34.7578 39.1091 34.7707 39.0409 34.7973L38.4995 35.0083ZM34.916 40.1773C34.4202 40.389 33.8726 40.4479 33.3431 40.3464C32.8137 40.2449 32.3266 39.9876 31.9443 39.6075C31.562 39.2275 31.3019 38.7419 31.1973 38.2131C31.0927 37.6843 31.1484 37.1362 31.3572 36.6393C31.566 36.1423 31.9185 35.719 32.3694 35.4235C32.8203 35.1281 33.3492 34.9741 33.8882 34.9811C34.4272 34.9882 34.9519 35.156 35.3949 35.4631C35.838 35.7702 36.1792 36.2026 36.375 36.7049C36.6414 37.3589 36.6374 38.0919 36.3639 38.7429C36.0903 39.3939 35.5696 39.9098 34.916 40.1773Z" fill="#00416B"/>
</g>
<defs>
<clipPath id="clip0_155_2258">
<rect width="48" height="48" fill="white"/>
</clipPath>
</defs>
</svg>
