<svg width="48" height="48" viewBox="0 0 48 48" fill="none" xmlns="http://www.w3.org/2000/svg">
<g clip-path="url(#clip0_155_2257)">
<path d="M30.8233 21.1489C32.5958 19.4111 33.6324 17.0584 33.7187 14.5777C33.7823 11.9959 32.8281 9.49268 31.0622 7.60823C29.2962 5.72378 26.8602 4.60924 24.2797 4.50516C22.3346 4.4481 20.4172 4.97618 18.7756 6.02104C17.134 7.0659 15.8438 8.57944 15.072 10.3658C14.3002 12.1521 14.0823 14.1289 14.4465 16.0404C14.8108 17.952 15.7404 19.7102 17.115 21.0875C17.3659 21.3297 17.5548 21.6287 17.6656 21.9594C17.7764 22.29 17.8059 22.6425 17.7516 22.9869C17.6974 23.3314 17.5609 23.6577 17.3539 23.9383C17.1468 24.2189 16.8751 24.4454 16.5619 24.5988C14.4089 25.6347 12.5215 27.1498 11.0443 29.0279C9.5672 30.9059 8.53953 33.0972 8.04005 35.4338C7.98111 35.7469 7.99201 36.0693 8.07197 36.3778C8.15193 36.6862 8.29899 36.9733 8.50264 37.2184C8.70629 37.4635 8.96152 37.6607 9.25013 37.7958C9.53874 37.9309 9.85362 38.0007 10.1723 38.0002H37.8275C38.1462 38.0007 38.4611 37.9309 38.7497 37.7958C39.0384 37.6607 39.2936 37.4635 39.4973 37.2184C39.7009 36.9733 39.848 36.6863 39.928 36.3778C40.008 36.0693 40.0189 35.747 39.96 35.4338C39.4605 33.0971 38.4328 30.9057 36.9555 29.0277C35.4782 27.1496 33.5906 25.6346 31.4373 24.5988C31.127 24.4523 30.8564 24.2336 30.648 23.9611C30.4396 23.6885 30.2994 23.3701 30.2394 23.0323C30.1793 22.6945 30.201 22.3472 30.3026 22.0195C30.4042 21.6918 30.5829 21.3932 30.8236 21.1488" fill="#FFD400"/>
<path d="M37.8264 38H13.42L21.9931 24.0068C33.5477 19.806 31.8575 9.925 31.4089 8.00195C32.9999 9.85737 33.8246 12.249 33.7155 14.6907C33.6063 17.1324 32.5714 19.4409 30.8211 21.147C30.5811 21.3921 30.4032 21.691 30.302 22.0189C30.2009 22.3467 30.1795 22.6939 30.2397 23.0317C30.2999 23.3694 30.4399 23.6879 30.6481 23.9606C30.8563 24.2333 31.1266 24.4524 31.4365 24.5995C33.5903 25.6347 35.4783 27.1494 36.9558 29.0275C38.4333 30.9057 39.461 33.0972 39.96 35.4342C40.0191 35.7474 40.0082 36.0699 39.9282 36.3785C39.8481 36.687 39.701 36.9741 39.4971 37.2193C39.2933 37.4644 39.0379 37.6615 38.749 37.7964C38.4602 37.9314 38.1452 38.0009 37.8264 38Z" fill="#FFC20E"/>
<path d="M21.9185 23.9224H26.0814C26.2361 23.9224 26.3878 23.9654 26.5194 24.0467C26.651 24.128 26.7574 24.2443 26.8266 24.3827C26.8958 24.521 26.9252 24.6759 26.9113 24.83C26.8974 24.9841 26.8409 25.1312 26.7481 25.255L24.6661 28.0306C24.5885 28.134 24.4879 28.218 24.3722 28.2758C24.2566 28.3337 24.129 28.3638 23.9997 28.3638C23.8703 28.3638 23.7428 28.3337 23.6271 28.2758C23.5114 28.218 23.4108 28.134 23.3332 28.0306L21.2517 25.255C21.1589 25.1312 21.1024 24.9841 21.0886 24.83C21.0747 24.6759 21.104 24.521 21.1732 24.3826C21.2425 24.2443 21.3489 24.1279 21.4805 24.0466C21.6121 23.9653 21.7638 23.9223 21.9185 23.9224" fill="#00416B"/>
<path d="M25.1343 28.108L27.1551 36.5634C27.196 36.7348 27.1976 36.9132 27.1596 37.0852C27.1217 37.2573 27.0453 37.4185 26.9362 37.5568C26.827 37.6951 26.6879 37.8068 26.5294 37.8836C26.3708 37.9605 26.1969 38.0003 26.0208 38.0003H21.9791C21.8029 38.0003 21.629 37.9604 21.4705 37.8836C21.312 37.8067 21.1729 37.695 21.0637 37.5567C20.9546 37.4184 20.8782 37.2572 20.8402 37.0852C20.8023 36.9132 20.8038 36.7348 20.8447 36.5634L22.8656 28.108C22.9265 27.853 23.0716 27.626 23.2774 27.4636C23.4832 27.3012 23.7378 27.2129 23.9999 27.2129C24.2621 27.2129 24.5166 27.3012 24.7224 27.4636C24.9282 27.626 25.0733 27.853 25.1343 28.108Z" fill="#00416B"/>
<path d="M39 39H29C28.7348 39 28.4804 38.8946 28.2929 38.7071C28.1054 38.5196 28 38.2652 28 38C28 37.7348 28.1054 37.4804 28.2929 37.2929C28.4804 37.1054 28.7348 37 29 37H39C39.2652 37 39.5196 37.1054 39.7071 37.2929C39.8946 37.4804 40 37.7348 40 38C40 38.2652 39.8946 38.5196 39.7071 38.7071C39.5196 38.8946 39.2652 39 39 39Z" fill="#00416B"/>
<path d="M33 43V33C33 32.7348 33.1054 32.4804 33.2929 32.2929C33.4804 32.1054 33.7348 32 34 32C34.2652 32 34.5196 32.1054 34.7071 32.2929C34.8946 32.4804 35 32.7348 35 33V43C35 43.2652 34.8946 43.5196 34.7071 43.7071C34.5196 43.8946 34.2652 44 34 44C33.7348 44 33.4804 43.8946 33.2929 43.7071C33.1054 43.5196 33 43.2652 33 43Z" fill="#00416B"/>
</g>
<defs>
<clipPath id="clip0_155_2257">
<rect width="48" height="48" fill="white"/>
</clipPath>
</defs>
</svg>
