<svg width="48" height="48" viewBox="0 0 48 48" fill="none" xmlns="http://www.w3.org/2000/svg">
<g clip-path="url(#clip0_2759_6563)">
<path d="M30.6921 22.9007C32.4877 21.1356 33.539 18.7498 33.63 16.2335C33.6961 13.6122 32.7285 11.0701 30.9361 9.15619C29.1437 7.24229 26.6704 6.11023 24.0503 6.0045C22.0748 5.94483 20.1269 6.48001 18.4592 7.54064C16.7915 8.60127 15.4809 10.1384 14.6973 11.9529C13.9137 13.7673 13.6932 15.7753 14.0644 17.7165C14.4357 19.6577 15.3815 21.4427 16.7794 22.8399C17.0307 23.086 17.2196 23.3887 17.3303 23.7226C17.441 24.0565 17.4702 24.4121 17.4156 24.7596C17.361 25.1072 17.2241 25.4366 17.0163 25.7205C16.8086 26.0044 16.536 26.2345 16.2212 26.3917C14.0343 27.4432 12.1173 28.982 10.6176 30.8897C9.11797 32.7975 8.07541 35.0235 7.57003 37.3969C7.51035 37.7145 7.52145 38.0413 7.60252 38.3541C7.6836 38.6669 7.83267 38.9579 8.03909 39.2065C8.24552 39.455 8.50424 39.655 8.7968 39.7922C9.08936 39.9293 9.40857 40.0002 9.73168 39.9999H37.7956C38.1192 40.001 38.439 39.9306 38.7322 39.7938C39.0253 39.657 39.2847 39.4571 39.4917 39.2085C39.6987 38.9598 39.8482 38.6685 39.9295 38.3553C40.0108 38.0422 40.022 37.7149 39.9622 37.3969C39.4547 35.0257 38.4112 32.802 36.9117 30.8962C35.4122 28.9904 33.4964 27.4531 31.3111 26.4019C30.9968 26.2527 30.7228 26.0304 30.5119 25.7536C30.301 25.4769 30.1594 25.1537 30.0988 24.8111C30.0382 24.4684 30.0605 24.1163 30.1637 23.784C30.2669 23.4517 30.4481 23.149 30.6921 22.9009" fill="#FFD400"/>
<path d="M39.9995 37.8102C39.9988 38.0988 39.9411 38.3845 39.8298 38.6508C39.7186 38.9172 39.5559 39.159 39.3511 39.3624C39.1463 39.5658 38.9034 39.7268 38.6363 39.8362C38.3692 39.9457 38.0832 40.0014 37.7945 40.0002H13.9995L21.8445 25.6652C32.7545 22.9302 31.7395 11.5102 31.2845 9.55518C31.3845 9.67018 31.4795 9.78518 31.5695 9.90518C31.6345 9.98518 31.6945 10.0652 31.7495 10.1452C31.8445 10.2702 31.9295 10.4002 32.0145 10.5302C32.0995 10.6602 32.1845 10.7952 32.2645 10.9302C33.0737 12.306 33.5401 13.8563 33.6245 15.4502C33.6395 15.7266 33.6395 16.0037 33.6245 16.2802C33.6237 16.4222 33.6153 16.564 33.5995 16.7052C33.5895 16.8602 33.5695 17.0152 33.5495 17.1702C33.5295 17.3202 33.5095 17.4702 33.4795 17.6202C33.4807 17.6211 33.4816 17.6222 33.4823 17.6235C33.4829 17.6248 33.4832 17.6262 33.4832 17.6277C33.4832 17.6291 33.4829 17.6306 33.4823 17.6319C33.4816 17.6332 33.4807 17.6343 33.4795 17.6352C33.4495 17.7902 33.4195 17.9402 33.3845 18.0902C33.3495 18.2402 33.3095 18.3902 33.2695 18.5402C33.1458 18.988 32.9887 19.4259 32.7995 19.8502C32.7395 19.9902 32.6745 20.1302 32.6045 20.2702C32.5345 20.4052 32.4645 20.5402 32.3945 20.6702C32.3933 20.6777 32.3898 20.6847 32.3845 20.6902C32.3095 20.8202 32.2295 20.9502 32.1495 21.0802C32.0795 21.1952 32.0045 21.3102 31.9295 21.4252C31.7428 21.6967 31.5425 21.9587 31.3295 22.2102C31.1295 22.4452 30.9145 22.6752 30.6895 22.8952C30.6495 22.9402 30.6045 22.9852 30.5695 23.0302C30.4517 23.1701 30.3525 23.3247 30.2745 23.4902C30.1395 23.7747 30.0674 24.085 30.0631 24.4C30.0588 24.7149 30.1224 25.027 30.2495 25.3152C30.332 25.5008 30.4396 25.6741 30.5695 25.8302C30.6045 25.8702 30.6395 25.9102 30.6745 25.9452C30.8568 26.1342 31.072 26.2883 31.3095 26.4002C33.4953 27.4512 35.4116 28.9885 36.9118 30.8942C38.4119 32.8 39.4562 35.0237 39.9645 37.3952C39.9886 37.5322 40.0003 37.6711 39.9995 37.8102Z" fill="#FFC20E"/>
<path d="M21.6056 25H25.7686C25.9233 25 26.0749 25.043 26.2065 25.1243C26.3382 25.2056 26.4445 25.322 26.5137 25.4603C26.583 25.5987 26.6123 25.7536 26.5984 25.9076C26.5846 26.0617 26.5281 26.2089 26.4353 26.3326L24.3533 29.1082C24.2757 29.2117 24.175 29.2956 24.0594 29.3535C23.9437 29.4113 23.8161 29.4414 23.6868 29.4414C23.5575 29.4414 23.4299 29.4113 23.3142 29.3535C23.1986 29.2956 23.0979 29.2117 23.0203 29.1082L20.9389 26.3326C20.8461 26.2089 20.7896 26.0617 20.7757 25.9076C20.7618 25.7535 20.7911 25.5986 20.8604 25.4603C20.9296 25.3219 21.036 25.2055 21.1676 25.1243C21.2992 25.043 21.4509 24.9999 21.6056 25" fill="#00416B"/>
<path d="M24.9068 29.4542L26.9675 38.4682C27.0092 38.6509 27.0108 38.841 26.9721 39.0245C26.9335 39.2079 26.8556 39.3798 26.7442 39.5272C26.6329 39.6746 26.4911 39.7937 26.3294 39.8756C26.1677 39.9575 25.9904 40 25.8108 40H21.6892C21.5096 40 21.3323 39.9574 21.1706 39.8755C21.0089 39.7936 20.8671 39.6745 20.7558 39.5271C20.6445 39.3797 20.5666 39.2078 20.5279 39.0244C20.4892 38.841 20.4908 38.6509 20.5325 38.4682L22.5932 29.4542C22.6554 29.1824 22.8034 28.9404 23.0132 28.7673C23.2231 28.5942 23.4827 28.5 23.75 28.5C24.0174 28.5 24.2769 28.5942 24.4868 28.7673C24.6967 28.9404 24.8446 29.1824 24.9068 29.4542Z" fill="#00416B"/>
</g>
<defs>
<clipPath id="clip0_2759_6563">
<rect width="48" height="48" fill="white"/>
</clipPath>
</defs>
</svg>
