<svg width="48" height="48" viewBox="0 0 48 48" fill="none" xmlns="http://www.w3.org/2000/svg">
<g clip-path="url(#clip0_159_2355)">
<path d="M39 40H9C8.73478 40 8.48043 39.8946 8.29289 39.7071C8.10536 39.5196 8 39.2652 8 39C8 38.7348 8.10536 38.4804 8.29289 38.2929C8.48043 38.1054 8.73478 38 9 38H39C39.2652 38 39.5196 38.1054 39.7071 38.2929C39.8946 38.4804 40 38.7348 40 39C40 39.2652 39.8946 39.5196 39.7071 39.7071C39.5196 39.8946 39.2652 40 39 40Z" fill="#00416B"/>
<path d="M41 35.0002H7C6.46957 35.0002 5.96086 34.7895 5.58579 34.4144C5.21071 34.0393 5 33.5306 5 33.0002V10.7002C5 10.1698 5.21071 9.66105 5.58579 9.28598C5.96086 8.91091 6.46957 8.7002 7 8.7002H41C41.5304 8.7002 42.0391 8.91091 42.4142 9.28598C42.7893 9.66105 43 10.1698 43 10.7002V33.0002C43 33.5306 42.7893 34.0393 42.4142 34.4144C42.0391 34.7895 41.5304 35.0002 41 35.0002Z" fill="#FFD400"/>
<path d="M43 10.6619V32.8372C42.9976 33.0974 42.944 33.3546 42.8422 33.5941C42.7403 33.8336 42.5923 34.0506 42.4066 34.2329C42.2209 34.4151 42.0011 34.559 41.7597 34.6563C41.5183 34.7536 41.2602 34.8023 41 34.7998H12.6L39.2 8.6998H41C41.2602 8.6973 41.5183 8.74608 41.7596 8.84335C42.0009 8.94062 42.2207 9.08448 42.4065 9.26671C42.5922 9.44895 42.7402 9.66598 42.842 9.90542C42.9439 10.1449 42.9975 10.402 43 10.6622" fill="#FFC20E"/>
<path d="M41 36H7C6.20462 35.9991 5.44206 35.6828 4.87964 35.1204C4.31722 34.5579 4.00087 33.7954 4 33V11C4.00087 10.2046 4.31722 9.44206 4.87964 8.87964C5.44206 8.31722 6.20462 8.00087 7 8H41C41.7954 8.00078 42.558 8.3171 43.1205 8.87954C43.6829 9.44198 43.9992 10.2046 44 11V33C43.9992 33.7954 43.6829 34.558 43.1205 35.1205C42.558 35.6829 41.7954 35.9992 41 36ZM7 10C6.73489 10.0004 6.48075 10.1058 6.29329 10.2933C6.10583 10.4807 6.00036 10.7349 6 11V33C6.00026 33.2651 6.10571 33.5193 6.29319 33.7068C6.48066 33.8943 6.73486 33.9997 7 34H41C41.2652 33.9998 41.5194 33.8944 41.7069 33.7069C41.8944 33.5194 41.9998 33.2652 42 33V11C41.9997 10.7349 41.8943 10.4807 41.7068 10.2932C41.5193 10.1057 41.2651 10.0003 41 10H7Z" fill="#00416B"/>
<path d="M27.5 36H20.5V38H27.5V36Z" fill="#00416B"/>
</g>
<defs>
<clipPath id="clip0_159_2355">
<rect width="48" height="48" fill="white"/>
</clipPath>
</defs>
</svg>
