<svg width="48" height="48" viewBox="0 0 48 48" fill="none" xmlns="http://www.w3.org/2000/svg">
<g clip-path="url(#clip0_159_2373)">
<path d="M33.16 23.455L31.105 22.27C31.3117 21.099 31.3117 19.901 31.105 18.73L33.16 17.545C33.5299 17.3314 33.7998 16.9797 33.9105 16.5672C34.0211 16.1546 33.9634 15.715 33.75 15.345L31.52 11.48L31.33 11.155C31.224 10.9721 31.083 10.8119 30.9151 10.6834C30.7471 10.555 30.5555 10.461 30.3512 10.4067C30.1469 10.3523 29.9339 10.3388 29.7243 10.3668C29.5148 10.3949 29.3128 10.4639 29.13 10.57L27.09 11.745C26.1626 10.997 25.1232 10.3997 24.01 9.975V7.61C24.0101 7.39853 23.9686 7.18911 23.8877 6.99371C23.8069 6.79831 23.6883 6.62077 23.5388 6.47124C23.3892 6.32171 23.2117 6.20312 23.0163 6.12226C22.8209 6.0414 22.6115 5.99986 22.4 6H17.565C17.3535 5.99987 17.1441 6.04142 16.9487 6.12229C16.7533 6.20315 16.5758 6.32174 16.4263 6.47127C16.2767 6.62079 16.1581 6.79833 16.0773 6.99372C15.9964 7.18912 15.9549 7.39854 15.955 7.61V9.975C14.8413 10.3986 13.8017 10.996 12.875 11.745L10.835 10.57C10.6521 10.4639 10.4502 10.3949 10.2406 10.3668C10.0311 10.3388 9.81809 10.3523 9.61378 10.4067C9.40948 10.461 9.21788 10.555 9.04993 10.6834C8.88199 10.8119 8.74099 10.9721 8.635 11.155L6.215 15.345C6.0016 15.715 5.94388 16.1546 6.05452 16.5672C6.16516 16.9797 6.4351 17.3314 6.80499 17.545L8.85499 18.73C8.65493 19.9015 8.65493 21.0985 8.85499 22.27L6.80499 23.455C6.43509 23.6686 6.16514 24.0203 6.0545 24.4328C5.94386 24.8454 6.00159 25.285 6.215 25.655L8.635 29.845C8.84852 30.2149 9.20025 30.4849 9.61282 30.5956C10.0254 30.7062 10.465 30.6485 10.835 30.435L12.875 29.255C13.035 29.385 13.2 29.51 13.37 29.63C14.1661 30.2074 15.0354 30.6765 15.955 31.025V33.39C15.9549 33.6015 15.9964 33.8109 16.0773 34.0063C16.1581 34.2017 16.2767 34.3792 16.4263 34.5287C16.5758 34.6783 16.7533 34.7968 16.9487 34.8777C17.1441 34.9586 17.3535 35.0001 17.565 35H22.4C22.6115 35.0001 22.8209 34.9586 23.0163 34.8777C23.2117 34.7969 23.3892 34.6783 23.5388 34.5288C23.6883 34.3792 23.8069 34.2017 23.8877 34.0063C23.9686 33.8109 24.0101 33.6015 24.01 33.39V31.025C25.1232 30.6003 26.1626 30.003 27.09 29.255L29.13 30.435C29.5 30.6485 29.9396 30.7062 30.3522 30.5956C30.7647 30.4849 31.1165 30.2149 31.33 29.845L33.75 25.655C33.9634 25.285 34.0212 24.8454 33.9105 24.4328C33.7999 24.0203 33.5299 23.6685 33.16 23.455ZM26.225 21.575C25.971 23.0503 25.2028 24.388 24.0566 25.351C22.9104 26.314 21.4603 26.84 19.9633 26.8359C18.4663 26.8317 17.0191 26.2976 15.8783 25.3283C14.7374 24.359 13.9767 23.017 13.7309 21.5403C13.4851 20.0636 13.77 18.5476 14.5353 17.2609C15.3006 15.9743 16.4967 15.0002 17.9117 14.5113C19.3266 14.0224 20.869 14.0503 22.2653 14.5901C23.6616 15.1298 24.8217 16.1465 25.54 17.46C26.2273 18.7147 26.4688 20.1653 26.225 21.575Z" fill="#FFD400"/>
<path fill-rule="evenodd" clip-rule="evenodd" d="M39.9644 32.6685C39.6359 31.9502 39.1029 31.3446 38.432 30.9276L38.8942 29.8545L37.1826 29.0695L36.6011 30.1601C36.2174 29.9837 35.8025 29.8855 35.3805 29.8712C34.9585 29.8568 34.5378 29.9267 34.1431 30.0767L33.7461 29.0576L32.3492 29.6019L32.7329 30.5869C31.3805 31.2451 31.455 31.5448 31.0215 32.1866L29.9682 31.7035L29.236 33.4473L30.2981 34.0051C30.0626 34.7995 30.0561 35.6443 30.2792 36.4423L29.1519 36.8816L29.6962 38.2784L30.8006 37.8481C31.0899 38.6233 31.6534 39.2655 32.3844 39.6531L31.9288 40.8446L33.652 41.6591L34.2594 40.4967C34.9784 40.6896 35.1719 40.9761 36.6221 40.5688L37.1115 41.8248L38.5084 41.2806L38.0323 40.0588C39.3892 39.4118 39.2885 39.1488 39.7077 38.5388L40.8727 39.0571L41.6074 37.3124L40.4324 36.5962C40.7473 35.7909 40.754 34.8977 40.4514 34.0878L41.5693 33.6522L41.0253 32.2551L39.9644 32.6685ZM36.3809 37.8377C35.8851 38.0494 35.3374 38.1084 34.8079 38.0069C34.2784 37.9054 33.7913 37.6481 33.4089 37.268C33.0266 36.8879 32.7664 36.4023 32.6618 35.8734C32.5572 35.3445 32.6129 34.7965 32.8217 34.2994C33.0306 33.8024 33.3831 33.379 33.8341 33.0836C34.285 32.7882 34.814 32.6341 35.3531 32.6412C35.8921 32.6483 36.4168 32.8162 36.8599 33.1233C37.303 33.4305 37.6442 33.863 37.84 34.3653C38.1062 35.0193 38.1021 35.7523 37.8286 36.4033C37.5551 37.0543 37.0344 37.5701 36.3809 37.8377Z" fill="#00416B"/>
<path fill-rule="evenodd" clip-rule="evenodd" d="M33.75 25.655L31.33 29.845C31.1165 30.2149 30.7647 30.4849 30.3522 30.5956C29.9396 30.7062 29.5 30.6484 29.13 30.435L27.09 29.255C26.1626 30.003 25.1232 30.6003 24.01 31.025V33.39C24.0101 33.6014 23.9686 33.8109 23.8877 34.0063C23.8069 34.2017 23.6883 34.3792 23.5388 34.5287C23.3892 34.6783 23.2117 34.7969 23.0163 34.8777C22.8209 34.9586 22.6115 35.0001 22.4 35H17.565C17.3535 35.0001 17.1441 34.9586 16.9487 34.8777C16.7533 34.7968 16.5758 34.6782 16.4263 34.5287C16.2767 34.3792 16.1581 34.2016 16.0773 34.0063C15.9964 33.8109 15.9549 33.6014 15.955 33.39V31.025C15.0354 30.6765 14.1661 30.2074 13.37 29.63L16.945 26.055C18.1461 26.712 19.5278 26.9621 20.883 26.7678C22.2383 26.5735 23.494 25.9452 24.4621 24.9771C25.4302 24.009 26.0585 22.7533 26.2528 21.398C26.4471 20.0428 26.197 18.6611 25.54 17.46L31.52 11.48L33.75 15.345C33.9634 15.715 34.0211 16.1546 33.9105 16.5671C33.7998 16.9797 33.5299 17.3314 33.16 17.545L31.105 18.73C31.3117 19.9009 31.3117 21.099 31.105 22.27L33.16 23.455C33.5299 23.6685 33.7999 24.0203 33.9105 24.4328C34.0212 24.8454 33.9634 25.285 33.75 25.655Z" fill="#FFC20E"/>
<path d="M19.9821 22.5C21.0866 22.5 21.9821 21.6046 21.9821 20.5C21.9821 19.3954 21.0866 18.5 19.9821 18.5C18.8775 18.5 17.9821 19.3954 17.9821 20.5C17.9821 21.6046 18.8775 22.5 19.9821 22.5Z" fill="#0083CA"/>
</g>
<defs>
<clipPath id="clip0_159_2373">
<rect width="48" height="48" fill="white"/>
</clipPath>
</defs>
</svg>
