<svg width="48" height="48" viewBox="0 0 48 48" fill="none" xmlns="http://www.w3.org/2000/svg">
<path d="M36.7325 31.4701L22.8678 37.6268C22.5947 37.748 22.2992 37.8106 22.0004 37.8104C21.7016 37.8102 21.4062 37.7472 21.1333 37.6255L7.26465 31.4425C6.88813 31.2746 6.56831 31.0013 6.34387 30.6555C6.11943 30.3097 5.99999 29.9063 6 29.494V14.5229C6 14.1101 6.11972 13.7063 6.34464 13.3602C6.56956 13.0142 6.89003 12.7408 7.2672 12.5733L21.1339 6.41271C21.4065 6.29159 21.7016 6.229 22 6.229C22.2984 6.229 22.5935 6.29159 22.8661 6.41271L36.7328 12.5733C37.11 12.7408 37.4304 13.0142 37.6554 13.3602C37.8803 13.7063 38 14.1101 38 14.5229V29.5201C38 29.9329 37.8803 30.3369 37.6553 30.683C37.4304 31.0291 37.1098 31.3025 36.7325 31.4701Z" fill="#FFD400"/>
<path d="M22 38.0122V20.2447L6 13.1362V30.8787L22 38.0122Z" fill="#FFC20E"/>
<path d="M22 38.0122V20.2447L38 13.1362V30.8787L22 38.0122Z" fill="#CD992B"/>
<path d="M11.8092 15.7352L27.6535 8.6958L31.939 10.5528L16.0947 17.5919V22.8439C16.0947 22.9912 16.0577 23.1362 15.9871 23.2656C15.9165 23.3949 15.8145 23.5044 15.6906 23.5841C15.5666 23.6638 15.4247 23.7111 15.2777 23.7217C15.1307 23.7322 14.9835 23.7057 14.8494 23.6446L12.3244 22.4946C12.1708 22.4245 12.0406 22.3118 11.9493 22.1699C11.858 22.0279 11.8094 21.8626 11.8094 21.6938L11.8092 15.7352Z" fill="#00416B"/>
<path d="M37.3437 37.3432C37.2509 37.4362 37.1406 37.5099 37.0193 37.5601C36.8979 37.6104 36.7678 37.6363 36.6365 37.6363C36.5051 37.6363 36.375 37.6104 36.2537 37.5601C36.1323 37.5099 36.0221 37.4362 35.9292 37.3432L32.0166 33.4306C31.8338 33.2422 31.7324 32.9893 31.7344 32.7268C31.7364 32.4642 31.8416 32.2129 32.0273 32.0273C32.2129 31.8416 32.4642 31.7364 32.7268 31.7344C32.9893 31.7324 33.2422 31.8338 33.4306 32.0166L37.3437 35.9297C37.5311 36.1172 37.6363 36.3714 37.6363 36.6365C37.6363 36.9015 37.5311 37.1557 37.3437 37.3432Z" fill="#0083CA"/>
<path d="M41.3697 40.1388L40.1392 41.3698C39.9271 41.5816 39.6397 41.7005 39.3401 41.7005C39.0404 41.7005 38.753 41.5816 38.541 41.3698L33.9092 36.7375C33.8043 36.6326 33.721 36.5081 33.6642 36.371C33.6074 36.234 33.5781 36.087 33.5781 35.9387C33.5781 35.7903 33.6074 35.6434 33.6642 35.5063C33.721 35.3692 33.8043 35.2447 33.9092 35.1398L35.1397 33.9089C35.3516 33.6971 35.6389 33.5781 35.9385 33.5781C36.2381 33.5781 36.5254 33.6971 36.7373 33.9089L41.3697 38.5412C41.5815 38.7531 41.7004 39.0404 41.7004 39.34C41.7004 39.6396 41.5815 39.9269 41.3697 40.1388Z" fill="#00416B"/>
<path d="M26.7417 35.4341C25.0206 35.4342 23.3381 34.9239 21.907 33.9678C20.4759 33.0117 19.3604 31.6526 18.7017 30.0626C18.0429 28.4725 17.8705 26.7228 18.2062 25.0347C18.5419 23.3467 19.3706 21.796 20.5875 20.5789C21.8045 19.3619 23.355 18.533 25.043 18.1971C26.7311 17.8612 28.4808 18.0335 30.0709 18.692C31.6611 19.3506 33.0202 20.4659 33.9765 21.8969C34.9328 23.3279 35.4433 25.0103 35.4434 26.7314C35.4408 29.0386 34.5233 31.2505 32.892 32.882C31.2607 34.5135 29.0489 35.4313 26.7417 35.4341ZM26.7417 20.4819C25.5056 20.4819 24.2972 20.8485 23.2694 21.5353C22.2415 22.2221 21.4405 23.1982 20.9674 24.3403C20.4944 25.4823 20.3706 26.739 20.6118 27.9514C20.853 29.1638 21.4483 30.2775 22.3225 31.1515C23.1966 32.0256 24.3103 32.6208 25.5227 32.8619C26.7351 33.103 27.9918 32.9792 29.1338 32.506C30.2759 32.0329 31.2519 31.2318 31.9386 30.2039C32.6253 29.176 32.9918 27.9676 32.9917 26.7314C32.9898 25.0745 32.3307 23.4859 31.159 22.3143C29.9873 21.1427 28.3987 20.4837 26.7417 20.4819Z" fill="#00416B"/>
</svg>
