<svg width="48" height="48" viewBox="0 0 48 48" fill="none" xmlns="http://www.w3.org/2000/svg">
<path d="M14 3.97266C13.4696 3.97266 12.9609 4.18337 12.5858 4.55844C12.2107 4.93352 12 5.44222 12 5.97266V41.9727C12 42.5031 12.2107 43.0118 12.5858 43.3869C12.9609 43.7619 13.4696 43.9727 14 43.9727H38C38.5304 43.9727 39.0391 43.7619 39.4142 43.3869C39.7893 43.0118 40 42.5031 40 41.9727V11.9727L32 3.97266H14Z" fill="#FFD400"/>
<path d="M40 15.4727V41.9727C40.0001 42.2353 39.9484 42.4954 39.8479 42.7381C39.7474 42.9808 39.6001 43.2013 39.4144 43.387C39.2286 43.5728 39.0081 43.7201 38.7654 43.8206C38.5228 43.921 38.2626 43.9727 38 43.9727H14C13.6774 43.973 13.3596 43.8949 13.0739 43.745C12.7882 43.5952 12.5432 43.3782 12.36 43.1127L40 15.4727Z" fill="#FFC20E"/>
<path d="M40 11.9727H34C33.4696 11.9727 32.9609 11.7619 32.5858 11.3869C32.2107 11.0118 32 10.5031 32 9.97266V3.97266L40 11.9727Z" fill="#CD992B"/>
<path d="M16 15C16 14.7348 16.1054 14.4804 16.2929 14.2929C16.4804 14.1054 16.7348 14 17 14H35C35.2652 14 35.5196 14.1054 35.7071 14.2929C35.8946 14.4804 36 14.7348 36 15C36 15.2652 35.8946 15.5196 35.7071 15.7071C35.5196 15.8946 35.2652 16 35 16H17C16.8687 16 16.7386 15.9742 16.6173 15.924C16.4959 15.8737 16.3857 15.8001 16.2928 15.7072C16.1999 15.6143 16.1263 15.5041 16.076 15.3827C16.0258 15.2614 16 15.1313 16 15Z" fill="#00416B"/>
<path d="M16 21C16 20.7348 16.1054 20.4804 16.2929 20.2929C16.4804 20.1054 16.7348 20 17 20H35C35.2652 20 35.5196 20.1054 35.7071 20.2929C35.8946 20.4804 36 20.7348 36 21C36 21.2652 35.8946 21.5196 35.7071 21.7071C35.5196 21.8946 35.2652 22 35 22H17C16.8687 22 16.7386 21.9742 16.6173 21.924C16.4959 21.8737 16.3857 21.8001 16.2928 21.7072C16.1999 21.6143 16.1263 21.5041 16.076 21.3827C16.0258 21.2614 16 21.1313 16 21Z" fill="#00416B"/>
<path d="M18 27C17.9874 26.7482 18.0751 26.5017 18.2437 26.3143C18.4123 26.127 18.6483 26.014 18.9 26H35.1C35.347 26.0261 35.5757 26.1427 35.7419 26.3273C35.9081 26.5119 36 26.7516 36 27C36 27.2484 35.9081 27.4881 35.7419 27.6727C35.5757 27.8573 35.347 27.9739 35.1 28H18.9C18.6482 27.9861 18.4122 27.8731 18.2436 27.6858C18.0749 27.4984 17.9873 27.2518 18 27Z" fill="#00416B"/>
<path d="M21 32C21 31.4477 21.3358 31 21.75 31H35.25C35.6642 31 36 31.4477 36 32C36 32.5523 35.6642 33 35.25 33H21.75C21.3358 33 21 32.5527 21 32Z" fill="#00416B"/>
<path d="M35 38H28C27.4477 38 27 38.4477 27 39C27 39.5523 27.4477 40 28 40H35C35.5523 40 36 39.5523 36 39C36 38.4477 35.5523 38 35 38Z" fill="#0083CA"/>
<path d="M23.989 34.338L24.6078 39.1227C24.6212 39.2268 24.6016 39.3325 24.5517 39.4248C24.5018 39.5171 24.424 39.5913 24.3296 39.637C24.2351 39.6827 24.1286 39.6975 24.0253 39.6793C23.9219 39.6611 23.8269 39.6108 23.7537 39.5357L20.3879 36.0791L8.19999 10.871C7.96913 10.3934 7.93742 9.84374 8.11182 9.34283C8.28623 8.84192 8.65247 8.4308 9.12999 8.1999C9.60753 7.96902 10.1572 7.93729 10.6582 8.11169C11.1591 8.2861 11.5702 8.65236 11.8011 9.12991L23.989 34.338Z" fill="#0083CA"/>
<path d="M12.2363 10.0299L8.63513 11.771L20.3879 36.0789L23.989 34.3377L12.2363 10.0299Z" fill="#00416B"/>
</svg>
