<svg width="48" height="48" viewBox="0 0 48 48" fill="none" xmlns="http://www.w3.org/2000/svg">
<g clip-path="url(#clip0_153_2175)">
<path d="M27.0002 10H8C6.93913 10 5.92172 10.4214 5.17157 11.1716C4.42143 11.9217 4 12.9391 4 14V30C4 31.0609 4.42143 32.0783 5.17157 32.8284C5.92172 33.5786 6.93913 34 8 34H9.5V40L15.5741 34H27.0002C28.0611 34 29.0785 33.5786 29.8287 32.8284C30.5788 32.0783 31.0002 31.0609 31.0002 30V14C31.0002 12.9391 30.5788 11.9217 29.8287 11.1716C29.0785 10.4214 28.0611 10 27.0002 10Z" fill="#00416B"/>
<path d="M44 12V28C43.9978 29.0602 43.5757 30.0763 42.826 30.826C42.0763 31.5757 41.0602 31.9978 40 32H38V38.095L32.24 32H16C15.4747 32.0001 14.9545 31.8968 14.4691 31.6958C13.9837 31.4948 13.5427 31.2002 13.1713 30.8287C12.7998 30.4573 12.5052 30.0163 12.3042 29.5309C12.1032 29.0455 11.9999 28.5253 12 28V12C11.9999 11.4747 12.1032 10.9545 12.3042 10.4691C12.5052 9.98374 12.7998 9.54273 13.1713 9.17127C13.5427 8.7998 13.9837 8.50517 14.4691 8.3042C14.9545 8.10323 15.4747 7.99986 16 8H40C40.5253 7.99986 41.0455 8.10323 41.5309 8.3042C42.0163 8.50517 42.4573 8.7998 42.8287 9.17127C43.2002 9.54273 43.4948 9.98374 43.6958 10.4691C43.8968 10.9545 44.0001 11.4747 44 12Z" fill="#FFE600"/>
<path d="M42.565 31.065C41.8475 31.6702 40.9387 32.0015 40 32H38V38.095L32.24 32H26.5L35 23.5L42.565 31.065Z" fill="#FFC20E"/>
<path d="M44 14.5V28C44.0007 28.5849 43.8725 29.1628 43.6245 29.6926C43.3764 30.2224 43.0147 30.6909 42.565 31.065L35 23.5L44 14.5Z" fill="#FFD400"/>
<path d="M35 23.5L26.5 32H16C15.4747 32.0001 14.9545 31.8968 14.4691 31.6958C13.9837 31.4948 13.5427 31.2002 13.1713 30.8287C12.7998 30.4573 12.5052 30.0163 12.3042 29.5309C12.1032 29.0455 11.9999 28.5253 12 28V12C11.9999 11.4747 12.1032 10.9545 12.3042 10.4691C12.5052 9.98374 12.7998 9.54273 13.1713 9.17127C13.5427 8.7998 13.9837 8.50517 14.4691 8.3042C14.9545 8.10323 15.4747 7.99986 16 8H19.5L35 23.5Z" fill="#FFD400"/>
<path d="M44 12V14.5L35 23.5L19.5 8H40C40.5253 7.99986 41.0455 8.10323 41.5309 8.3042C42.0163 8.50517 42.4573 8.7998 42.8287 9.17127C43.2002 9.54273 43.4948 9.98374 43.6958 10.4691C43.8968 10.9545 44.0001 11.4747 44 12Z" fill="#FFE600"/>
</g>
<defs>
<clipPath id="clip0_153_2175">
<rect width="48" height="48" fill="white"/>
</clipPath>
</defs>
</svg>
