<svg width="48" height="48" viewBox="0 0 48 48" fill="none" xmlns="http://www.w3.org/2000/svg">
<g clip-path="url(#clip0_153_2176)">
<path d="M27.4468 12.4102C28.3422 11.532 28.866 10.3435 28.91 9.09016C28.9418 7.78594 28.4596 6.5215 27.5674 5.56964C26.6753 4.61777 25.4447 4.05478 24.1411 4.00211C23.1586 3.9733 22.19 4.24006 21.3608 4.76787C20.5315 5.29567 19.8798 6.06023 19.4899 6.96257C19.1001 7.86492 18.99 8.86351 19.174 9.8291C19.358 10.7947 19.8276 11.6828 20.522 12.3786C20.6487 12.5009 20.7441 12.652 20.8001 12.819C20.8561 12.986 20.871 13.164 20.8437 13.338C20.8163 13.512 20.7475 13.6769 20.643 13.8186C20.5384 13.9604 20.4013 14.0749 20.2432 14.1525C19.1554 14.6756 18.2018 15.4409 17.4556 16.3897C16.7094 17.3385 16.1905 18.4456 15.9385 19.6261C15.9087 19.7843 15.9141 19.9471 15.9545 20.1029C15.9948 20.2587 16.069 20.4037 16.1719 20.5275C16.2747 20.6513 16.4036 20.7509 16.5493 20.8192C16.6951 20.8875 16.8541 20.9228 17.015 20.9225H30.985C31.146 20.9228 31.3051 20.8875 31.4509 20.8193C31.5966 20.751 31.7256 20.6514 31.8285 20.5276C31.9313 20.4038 32.0056 20.2588 32.046 20.103C32.0864 19.9471 32.0919 19.7843 32.0622 19.6261C31.8102 18.4456 31.2912 17.3385 30.545 16.3896C29.7987 15.4408 28.8451 14.6756 27.7572 14.1525C27.6006 14.0785 27.464 13.968 27.3588 13.8304C27.2536 13.6928 27.1829 13.532 27.1526 13.3614C27.1222 13.1909 27.1331 13.0156 27.1844 12.8501C27.2356 12.6846 27.3258 12.5338 27.4472 12.4103" fill="#CD992B"/>
<path d="M44 22V40C44.0001 40.5253 43.8968 41.0455 43.6958 41.5309C43.4948 42.0163 43.2002 42.4573 42.8287 42.8287C42.4573 43.2002 42.0163 43.4948 41.5309 43.6958C41.0455 43.8968 40.5253 44.0001 40 44H8C6.94018 43.9966 5.92474 43.5741 5.17533 42.8247C4.42592 42.0753 4.0034 41.0598 4 40V22C3.99986 21.4747 4.10323 20.9545 4.3042 20.4691C4.50517 19.9837 4.7998 19.5427 5.17127 19.1713C5.54273 18.7998 5.98374 18.5052 6.4691 18.3042C6.95447 18.1032 7.47467 17.9999 8 18H40C40.5253 17.9999 41.0455 18.1032 41.5309 18.3042C42.0163 18.5052 42.4573 18.7998 42.8287 19.1713C43.2002 19.5427 43.4948 19.9837 43.6958 20.4691C43.8968 20.9545 44.0001 21.4747 44 22Z" fill="#FFE600"/>
<path d="M25 44H8.00003C7.18369 44.0023 6.38684 43.7507 5.71973 43.2803L15 34L25 44Z" fill="#FFC20E"/>
<path d="M44 22V40C44.0001 40.5253 43.8968 41.0455 43.6958 41.5309C43.4948 42.0163 43.2002 42.4573 42.8287 42.8287C42.4573 43.2002 42.0163 43.4948 41.5309 43.6958C41.0455 43.8968 40.5253 44.0001 40 44H25L15 34L31 18H40C40.5253 17.9999 41.0455 18.1032 41.5309 18.3042C42.0163 18.5052 42.4573 18.7998 42.8287 19.1713C43.2002 19.5427 43.4948 19.9837 43.6958 20.4691C43.8968 20.9545 44.0001 21.4747 44 22Z" fill="#FFD400"/>
<path d="M15 34L5.71971 43.2803C5.18834 42.9141 4.75409 42.4242 4.45447 41.8527C4.15485 41.2811 3.99887 40.6453 4.00001 40V23L15 34Z" fill="#FFD400"/>
<path d="M31 18L15 34L4 23V22C3.99986 21.4747 4.10323 20.9545 4.3042 20.4691C4.50517 19.9837 4.7998 19.5427 5.17127 19.1713C5.54273 18.7998 5.98374 18.5052 6.4691 18.3042C6.95447 18.1032 7.47467 17.9999 8 18H31Z" fill="#FFE600"/>
<path d="M40 18H8C7.47467 17.9999 6.95447 18.1032 6.4691 18.3042C5.98374 18.5052 5.54273 18.7998 5.17127 19.1713C4.7998 19.5427 4.50517 19.9837 4.3042 20.4691C4.10323 20.9545 3.99986 21.4747 4 22H44C44.0001 21.4747 43.8968 20.9545 43.6958 20.4691C43.4948 19.9837 43.2002 19.5427 42.8287 19.1713C42.4573 18.7998 42.0163 18.5052 41.5309 18.3042C41.0455 18.1032 40.5253 17.9999 40 18Z" fill="#00416B"/>
</g>
<defs>
<clipPath id="clip0_153_2176">
<rect width="48" height="48" fill="white"/>
</clipPath>
</defs>
</svg>
