<svg width="48" height="48" viewBox="0 0 48 48" fill="none" xmlns="http://www.w3.org/2000/svg">
<g clip-path="url(#clip0_154_2190)">
<path fill-rule="evenodd" clip-rule="evenodd" d="M25.8809 9C25.8809 8.73478 25.9862 8.48043 26.1738 8.29289C26.3613 8.10536 26.6156 8 26.8809 8H42.8809C43.1461 8 43.4004 8.10536 43.588 8.29289C43.7755 8.48043 43.8809 8.73478 43.8809 9V9.99805L39.8809 34.9981H29.8809L25.8809 9.99805V9Z" fill="#FFD400"/>
<path d="M41.6678 23.8303L30.5001 34.998H29.881L25.881 9.99805V9C25.881 8.73478 25.9863 8.48043 26.1739 8.29289C26.3614 8.10536 26.6158 8 26.881 8H42.881C43.1462 8 43.4006 8.10536 43.5881 8.29289C43.7756 8.48043 43.881 8.73478 43.881 9V9.99805L41.6678 23.8303Z" fill="#FFC20E"/>
<path d="M43.881 9.99805V9C43.881 8.73478 43.7756 8.48043 43.5881 8.29289C43.4006 8.10536 43.1462 8 42.881 8H26.881C26.6158 8 26.3614 8.10536 26.1739 8.29289C25.9863 8.48043 25.881 8.73478 25.881 9V9.99805H43.881Z" fill="#FFD400"/>
<path fill-rule="evenodd" clip-rule="evenodd" d="M39.8789 35.998H29.8809V38C29.881 38.5304 30.0918 39.039 30.4668 39.414C30.8418 39.7891 31.3505 39.9998 31.8809 40H37.8789C38.4093 39.9998 38.9179 39.7891 39.293 39.414C39.668 39.039 39.8788 38.5304 39.8789 38V35.998Z" fill="#00416B"/>
<path d="M39.8809 34.998H29.8809V35.9854H39.8809V34.998Z" fill="#CD992B"/>
<path fill-rule="evenodd" clip-rule="evenodd" d="M25.7359 24.1357C25.7544 23.8623 25.7166 23.588 25.6247 23.3298C25.5328 23.0716 25.3888 22.835 25.2017 22.6347C25.0145 22.4345 24.7883 22.2748 24.5369 22.1656C24.2855 22.0564 24.0144 22.0001 23.7403 22H6.01959C5.74551 22 5.47436 22.0564 5.22297 22.1656C4.97158 22.2748 4.7453 22.4344 4.55818 22.6347C4.37106 22.835 4.22709 23.0715 4.1352 23.3297C4.0433 23.588 4.00545 23.8623 4.02399 24.1357C4.26569 27.6914 4.74614 34.7666 4.97464 38.1338C5.00904 38.6395 5.23417 39.1133 5.60451 39.4593C5.97485 39.8054 6.46277 39.998 6.96964 39.9981H22.79C23.2969 39.998 23.7848 39.8054 24.1552 39.4593C24.5255 39.1133 24.7506 38.6395 24.785 38.1338C25.0137 34.7666 25.4942 27.6914 25.7359 24.1357Z" fill="#FFD400"/>
<path fill-rule="evenodd" clip-rule="evenodd" d="M19.9812 22H6.01959C5.74551 22 5.47436 22.0564 5.22297 22.1656C4.97158 22.2748 4.7453 22.4344 4.55818 22.6347C4.37106 22.835 4.22709 23.0715 4.1352 23.3297C4.0433 23.588 4.00545 23.8623 4.02399 24.1357C4.26569 27.6914 4.74614 34.7666 4.97464 38.1338C5.00904 38.6395 5.23417 39.1133 5.60451 39.4593C5.63256 39.4855 5.66128 39.5109 5.69063 39.5353L19.9812 22Z" fill="#FFC20E"/>
<path fill-rule="evenodd" clip-rule="evenodd" d="M23.6358 18C23.6358 17.4696 23.4251 16.9609 23.0501 16.5858C22.675 16.2107 22.1663 16 21.6358 16H8.1261C7.59567 16 7.08696 16.2107 6.71188 16.5858C6.33681 16.9609 6.1261 17.4696 6.1261 18V22H23.6361L23.6358 18Z" fill="#00416B"/>
<path d="M34.8809 23.5C36.576 23.5 37.9502 21.3734 37.9502 18.75C37.9502 16.1266 36.576 14 34.8809 14C33.1857 14 31.8115 16.1266 31.8115 18.75C31.8115 21.3734 33.1857 23.5 34.8809 23.5Z" fill="#0083CA"/>
</g>
<defs>
<clipPath id="clip0_154_2190">
<rect width="48" height="48" fill="white"/>
</clipPath>
</defs>
</svg>
