<svg width="48" height="48" viewBox="0 0 48 48" fill="none" xmlns="http://www.w3.org/2000/svg">
<g clip-path="url(#clip0_154_2192)">
<path d="M38 22C38 25.1645 37.0616 28.2579 35.3035 30.8891C33.5454 33.5203 31.0466 35.5711 28.1229 36.7821C25.1993 37.9931 21.9823 38.3099 18.8786 37.6926C15.7749 37.0752 12.9239 35.5513 10.6863 33.3137C8.44866 31.0761 6.92481 28.2251 6.30744 25.1214C5.69008 22.0177 6.00693 18.8007 7.21793 15.8771C8.42894 12.9534 10.4797 10.4546 13.1109 8.69649C15.7421 6.93838 18.8355 6 22 6C26.2435 6 30.3131 7.68571 33.3137 10.6863C36.3143 13.6869 38 17.7565 38 22Z" fill="#FFD400"/>
<path d="M38.0001 22.0001C37.9995 25.1495 37.0697 28.2288 35.327 30.8521C33.5843 33.4755 31.1063 35.5263 28.2034 36.7477C25.3004 37.9691 22.1016 38.3068 19.0076 37.7184C15.9136 37.13 13.062 35.6418 10.8101 33.4401L33.4401 10.8101C36.3678 13.7983 38.0053 17.8166 38.0001 22.0001Z" fill="#FFC20E"/>
<path d="M22 39C18.6377 39 15.351 38.003 12.5553 36.135C9.75968 34.267 7.58075 31.612 6.29406 28.5056C5.00737 25.3993 4.67071 21.9811 5.32666 18.6835C5.98261 15.3858 7.6017 12.3567 9.97919 9.97919C12.3567 7.6017 15.3858 5.98261 18.6835 5.32666C21.9811 4.67071 25.3993 5.00737 28.5056 6.29406C31.612 7.58075 34.267 9.75968 36.135 12.5553C38.003 15.351 39 18.6377 39 22C38.995 26.5071 37.2023 30.8282 34.0153 34.0153C30.8282 37.2023 26.5071 38.995 22 39ZM22 7.00001C19.0333 7.00001 16.1332 7.87974 13.6665 9.52796C11.1997 11.1762 9.27713 13.5189 8.14181 16.2598C7.0065 19.0006 6.70945 22.0166 7.28823 24.9264C7.86701 27.8361 9.29562 30.5088 11.3934 32.6066C13.4912 34.7044 16.1639 36.133 19.0737 36.7118C21.9834 37.2906 24.9994 36.9935 27.7403 35.8582C30.4812 34.7229 32.8238 32.8003 34.4721 30.3336C36.1203 27.8668 37 24.9667 37 22C36.9955 18.0231 35.4137 14.2104 32.6016 11.3984C29.7896 8.5863 25.9769 7.00451 22 7.00001Z" fill="#CD992B"/>
<path d="M22 31.5C18.9717 31.5 16 28.7754 16 26H19C19 26.9405 20.4531 28.5 22 28.5C23.49 28.5 25 27.6416 25 26C25 24.155 23.3838 23.5 22 23.5V20.5C25.4766 20.5 28 22.813 28 26C28 29.1357 25.4204 31.5 22 31.5Z" fill="#00416B"/>
<path d="M22 23.5C19.1026 23.5 16 21.29 16 18C16 14.8642 18.5796 12.5 22 12.5C25.0279 12.5 28 15.2246 28 18H25C25 17.0595 23.5469 15.5 22 15.5C20.5093 15.5 19 16.3584 19 18C19 19.5489 20.7471 20.5 22 20.5V23.5Z" fill="#00416B"/>
<path d="M22.5 33.5H21.5C21.2348 33.5 20.9804 33.3946 20.7929 33.2071C20.6054 33.0196 20.5 32.7652 20.5 32.5V31C20.5001 30.7348 20.6055 30.4805 20.793 30.293C20.9805 30.1055 21.2348 30.0001 21.5 30H22.5C22.7652 30.0001 23.0195 30.1055 23.207 30.293C23.3945 30.4805 23.4999 30.7348 23.5 31V32.5C23.5 32.7652 23.3946 33.0196 23.2071 33.2071C23.0196 33.3946 22.7652 33.5 22.5 33.5Z" fill="#00416B"/>
<path d="M22.5 13.5H21.5C21.2348 13.5 20.9804 13.3946 20.7929 13.2071C20.6054 13.0196 20.5 12.7652 20.5 12.5V11C20.5001 10.7348 20.6055 10.4805 20.793 10.293C20.9805 10.1055 21.2348 10.0001 21.5 10H22.5C22.7652 10.0001 23.0195 10.1055 23.207 10.293C23.3945 10.4805 23.4999 10.7348 23.5 11V12.5C23.5 12.7652 23.3946 13.0196 23.2071 13.2071C23.0196 13.3946 22.7652 13.5 22.5 13.5Z" fill="#00416B"/>
<path fill-rule="evenodd" clip-rule="evenodd" d="M35.7593 41.7486L42.0191 37.1963H37.5586V28.2744C37.5586 28.107 37.5257 27.9413 37.4617 27.7867C37.3977 27.632 37.3038 27.4915 37.1854 27.3732C37.0671 27.2548 36.9266 27.1609 36.7719 27.0969C36.6173 27.0329 36.4516 27 36.2842 27H33.7354C33.568 27 33.4022 27.0329 33.2476 27.0969C33.093 27.1609 32.9525 27.2548 32.8341 27.3732C32.7158 27.4915 32.6219 27.632 32.5579 27.7867C32.4938 27.9413 32.4609 28.107 32.4609 28.2744V37.1963H28L34.26 41.7486C34.4779 41.9071 34.7404 41.9924 35.0098 41.9924C35.2792 41.9924 35.5417 41.9071 35.7595 41.7486" fill="#0083CA"/>
</g>
<defs>
<clipPath id="clip0_154_2192">
<rect width="48" height="48" fill="white"/>
</clipPath>
</defs>
</svg>
