<svg width="48" height="48" viewBox="0 0 48 48" fill="none" xmlns="http://www.w3.org/2000/svg">
<g clip-path="url(#clip0_154_2191)">
<path d="M26.5919 21.0199C28.191 19.4522 29.1262 17.3297 29.2042 15.0917C29.2613 12.7622 28.4003 10.5037 26.807 8.80341C25.2137 7.10312 23.0158 6.09741 20.6876 6.00328C18.9326 5.95182 17.2026 6.42829 15.7214 7.37103C14.2403 8.31378 13.0762 9.67939 12.3798 11.2911C11.6834 12.9028 11.4869 14.6865 11.8155 16.4112C12.1442 18.1359 12.9829 19.7222 14.2232 20.9649C14.4496 21.1834 14.62 21.4532 14.72 21.7514C14.82 22.0497 14.8467 22.3677 14.7978 22.6785C14.7489 22.9893 14.6258 23.2837 14.439 23.5369C14.2522 23.79 14.0072 23.9944 13.7247 24.1328C11.782 25.0673 10.079 26.4342 8.74627 28.1286C7.4135 29.8229 6.4863 31.8 6.0357 33.9081C5.9826 34.1906 5.99249 34.4814 6.06466 34.7597C6.13683 35.038 6.26951 35.297 6.45324 35.5181C6.63697 35.7392 6.86723 35.9171 7.12759 36.039C7.38795 36.161 7.672 36.224 7.9595 36.2235H32.9112C33.1987 36.224 33.4828 36.161 33.7431 36.0391C34.0035 35.9172 34.2337 35.7393 34.4174 35.5181C34.6011 35.297 34.7337 35.038 34.8058 34.7597C34.8779 34.4814 34.8877 34.1906 34.8345 33.9081C34.3841 31.7998 33.4569 29.8226 32.124 28.1282C30.7911 26.4337 29.088 25.067 27.1451 24.1327C26.8652 24.0004 26.6211 23.803 26.4332 23.5571C26.2453 23.3112 26.1189 23.0239 26.0648 22.7191C26.0106 22.4144 26.0302 22.1011 26.1219 21.8055C26.2136 21.5098 26.3747 21.2405 26.5919 21.0199Z" fill="#FFD400"/>
<path d="M32.9092 36.2237H10.8896L18.6246 23.5987C29.0496 19.8087 27.5246 10.8937 27.1193 9.15869C28.5547 10.8327 29.2988 12.9906 29.2003 15.1935C29.1019 17.3965 28.1683 19.4793 26.5893 21.0187C26.3727 21.2399 26.2121 21.5095 26.1209 21.8053C26.0296 22.1011 26.0103 22.4144 26.0646 22.7191C26.1189 23.0238 26.2452 23.3112 26.433 23.5573C26.6208 23.8033 26.8647 24.0009 27.1443 24.1337C29.0874 25.0676 30.7908 26.4342 32.1238 28.1287C33.4568 29.8231 34.384 31.8003 34.8343 33.9087C34.8876 34.1913 34.8778 34.4823 34.8056 34.7607C34.7334 35.0391 34.6006 35.2981 34.4167 35.5193C34.2328 35.7405 34.0023 35.9183 33.7417 36.04C33.4812 36.1618 33.1969 36.2245 32.9093 36.2237" fill="#FFC20E"/>
<path d="M35.9063 37.7456C35.8134 37.8385 35.7031 37.9122 35.5818 37.9625C35.4604 38.0128 35.3304 38.0387 35.199 38.0387C35.0676 38.0387 34.9376 38.0128 34.8162 37.9625C34.6948 37.9122 34.5846 37.8385 34.4917 37.7456L30.5791 33.8325C30.4839 33.7402 30.4081 33.6299 30.3559 33.5079C30.3038 33.386 30.2764 33.2549 30.2754 33.1224C30.2744 32.9898 30.2998 32.8583 30.3501 32.7356C30.4003 32.6129 30.4745 32.5014 30.5683 32.4076C30.662 32.3139 30.7735 32.2397 30.8962 32.1894C31.0189 32.1391 31.1504 32.1138 31.283 32.1148C31.4156 32.1158 31.5467 32.1432 31.6686 32.1953C31.7905 32.2474 31.9008 32.3233 31.9932 32.4185L35.9063 36.3316C36.0936 36.5192 36.1989 36.7735 36.1989 37.0386C36.1989 37.3037 36.0936 37.558 35.9063 37.7456Z" fill="#0083CA"/>
<path d="M39.9322 40.5409L38.7017 41.7719C38.4897 41.9836 38.2023 42.1026 37.9026 42.1026C37.6029 42.1026 37.3155 41.9836 37.1035 41.7719L32.4717 37.1396C32.3668 37.0347 32.2835 36.9102 32.2267 36.7731C32.1699 36.6361 32.1406 36.4891 32.1406 36.3408C32.1406 36.1924 32.1699 36.0455 32.2267 35.9084C32.2835 35.7713 32.3668 35.6468 32.4717 35.5419L33.7022 34.311C33.9141 34.0992 34.2014 33.9802 34.501 33.9802C34.8006 33.9802 35.0879 34.0992 35.2998 34.311L39.9322 38.9433C40.144 39.1552 40.2629 39.4425 40.2629 39.7421C40.2629 40.0417 40.144 40.329 39.9322 40.5409Z" fill="#00416B"/>
<path d="M25.3042 35.8364C23.5831 35.8365 21.9006 35.3263 20.4695 34.3701C19.0384 33.414 17.9229 32.055 17.2642 30.4649C16.6054 28.8748 16.433 27.1251 16.7687 25.4371C17.1044 23.749 17.9331 22.1984 19.15 20.9813C20.367 19.7642 21.9175 18.9353 23.6055 18.5994C25.2936 18.2636 27.0433 18.4358 28.6334 19.0944C30.2236 19.7529 31.5827 20.8682 32.539 22.2992C33.4953 23.7302 34.0058 25.4127 34.0059 27.1338C34.0033 29.4409 33.0858 31.6529 31.4545 33.2843C29.8232 34.9158 27.6114 35.8336 25.3042 35.8364ZM25.3042 20.8843C24.0681 20.8843 22.8597 21.2509 21.8319 21.9376C20.804 22.6244 20.003 23.6006 19.5299 24.7426C19.0569 25.8847 18.9331 27.1414 19.1743 28.3538C19.4155 29.5662 20.0108 30.6798 20.885 31.5539C21.7591 32.4279 22.8728 33.0232 24.0852 33.2643C25.2976 33.5054 26.5543 33.3815 27.6963 32.9084C28.8384 32.4353 29.8144 31.6341 30.5011 30.6062C31.1878 29.5784 31.5543 28.3699 31.5542 27.1338C31.5523 25.4768 30.8932 23.8883 29.7215 22.7167C28.5498 21.5451 26.9612 20.8861 25.3042 20.8843Z" fill="#00416B"/>
</g>
<defs>
<clipPath id="clip0_154_2191">
<rect width="48" height="48" fill="white"/>
</clipPath>
</defs>
</svg>
