<svg width="48" height="48" viewBox="0 0 48 48" fill="none" xmlns="http://www.w3.org/2000/svg">
<g clip-path="url(#clip0_3744_6635)">
<path d="M29.1599 22.9007C30.9554 21.1356 32.0068 18.7498 32.0978 16.2335C32.1639 13.6122 31.1962 11.0701 29.4038 9.15619C27.6114 7.24229 25.1381 6.11023 22.5181 6.0045C20.5426 5.94483 18.5947 6.48001 16.927 7.54064C15.2593 8.60127 13.9487 10.1384 13.1651 11.9529C12.3814 13.7673 12.161 15.7753 12.5322 17.7165C12.9035 19.6577 13.8493 21.4427 15.2472 22.8399C15.4985 23.086 15.6874 23.3887 15.7981 23.7226C15.9087 24.0565 15.938 24.4121 15.8834 24.7596C15.8288 25.1072 15.6919 25.4366 15.4841 25.7205C15.2763 26.0044 15.0037 26.2345 14.689 26.3917C12.502 27.4432 10.5851 28.982 9.08542 30.8897C7.58574 32.7975 6.54318 35.0235 6.0378 37.3969C5.97812 37.7145 5.98922 38.0413 6.0703 38.3541C6.15137 38.6669 6.30044 38.9579 6.50687 39.2065C6.7133 39.455 6.97201 39.655 7.26457 39.7922C7.55713 39.9293 7.87634 40.0002 8.19945 39.9999H36.2634C36.5869 40.001 36.9067 39.9306 37.1999 39.7938C37.4931 39.657 37.7525 39.4571 37.9595 39.2085C38.1664 38.9598 38.3159 38.6685 38.3973 38.3553C38.4786 38.0422 38.4898 37.7149 38.43 37.3969C37.9224 35.0257 36.879 32.802 35.3795 30.8962C33.88 28.9904 31.9642 27.4531 29.7789 26.4019C29.4646 26.2527 29.1906 26.0304 28.9797 25.7536C28.7688 25.4769 28.6272 25.1537 28.5666 24.8111C28.506 24.4684 28.5283 24.1163 28.6315 23.784C28.7347 23.4517 28.9159 23.149 29.1599 22.9009" fill="#FFD400"/>
<path d="M38.4673 37.8102C38.4665 38.0988 38.4089 38.3845 38.2976 38.6508C38.1863 38.9172 38.0237 39.159 37.8189 39.3624C37.6141 39.5658 37.3712 39.7268 37.1041 39.8362C36.837 39.9457 36.5509 40.0014 36.2623 40.0002H12.4673L20.3123 25.6652C31.2223 22.9302 30.2073 11.5102 29.7523 9.55518C29.8523 9.67018 29.9473 9.78518 30.0373 9.90518C30.1023 9.98518 30.1623 10.0652 30.2173 10.1452C30.3123 10.2702 30.3973 10.4002 30.4823 10.5302C30.5673 10.6602 30.6523 10.7952 30.7323 10.9302C31.5415 12.306 32.0079 13.8563 32.0923 15.4502C32.1073 15.7266 32.1073 16.0037 32.0923 16.2802C32.0914 16.4222 32.0831 16.564 32.0673 16.7052C32.0573 16.8602 32.0373 17.0152 32.0173 17.1702C31.9973 17.3202 31.9773 17.4702 31.9473 17.6202C31.9484 17.6211 31.9494 17.6222 31.95 17.6235C31.9507 17.6248 31.951 17.6262 31.951 17.6277C31.951 17.6291 31.9507 17.6306 31.95 17.6319C31.9494 17.6332 31.9484 17.6343 31.9473 17.6352C31.9173 17.7902 31.8873 17.9402 31.8523 18.0902C31.8173 18.2402 31.7773 18.3902 31.7373 18.5402C31.6136 18.988 31.4565 19.4259 31.2673 19.8502C31.2073 19.9902 31.1423 20.1302 31.0723 20.2702C31.0023 20.4052 30.9323 20.5402 30.8623 20.6702C30.861 20.6777 30.8576 20.6847 30.8523 20.6902C30.7773 20.8202 30.6973 20.9502 30.6173 21.0802C30.5473 21.1952 30.4723 21.3102 30.3973 21.4252C30.2105 21.6967 30.0103 21.9587 29.7973 22.2102C29.5973 22.4452 29.3823 22.6752 29.1573 22.8952C29.1173 22.9402 29.0723 22.9852 29.0373 23.0302C28.9195 23.1701 28.8203 23.3247 28.7423 23.4902C28.6073 23.7747 28.5352 24.085 28.5309 24.4C28.5266 24.7149 28.5901 25.027 28.7173 25.3152C28.7997 25.5008 28.9074 25.6741 29.0373 25.8302C29.0723 25.8702 29.1073 25.9102 29.1423 25.9452C29.3246 26.1342 29.5397 26.2883 29.7773 26.4002C31.9631 27.4512 33.8794 28.9885 35.3796 30.8942C36.8797 32.8 37.9239 35.0237 38.4323 37.3952C38.4564 37.5322 38.4681 37.6711 38.4673 37.8102Z" fill="#FFC20E"/>
<path d="M20.0734 25H24.2363C24.391 25 24.5427 25.043 24.6743 25.1243C24.8059 25.2056 24.9123 25.322 24.9815 25.4603C25.0507 25.5987 25.0801 25.7536 25.0662 25.9076C25.0523 26.0617 24.9958 26.2089 24.903 26.3326L22.821 29.1082C22.7434 29.2117 22.6428 29.2956 22.5271 29.3535C22.4115 29.4113 22.2839 29.4414 22.1546 29.4414C22.0252 29.4414 21.8977 29.4113 21.782 29.3535C21.6663 29.2956 21.5657 29.2117 21.4881 29.1082L19.4066 26.3326C19.3138 26.2089 19.2573 26.0617 19.2435 25.9076C19.2296 25.7535 19.2589 25.5986 19.3281 25.4603C19.3974 25.3219 19.5038 25.2055 19.6354 25.1243C19.767 25.043 19.9187 24.9999 20.0734 25" fill="#00416B"/>
<path d="M23.3746 29.4542L25.4352 38.4682C25.477 38.6509 25.4786 38.841 25.4399 39.0245C25.4013 39.2079 25.3233 39.3798 25.212 39.5272C25.1007 39.6746 24.9589 39.7937 24.7972 39.8756C24.6355 39.9575 24.4582 40 24.2785 40H20.157C19.9774 40 19.8 39.9574 19.6384 39.8755C19.4767 39.7936 19.3349 39.6745 19.2236 39.5271C19.1123 39.3797 19.0344 39.2078 18.9957 39.0244C18.957 38.841 18.9586 38.6509 19.0002 38.4682L21.061 29.4542C21.1232 29.1824 21.2711 28.9404 21.481 28.7673C21.6909 28.5942 21.9504 28.5 22.2178 28.5C22.4851 28.5 22.7447 28.5942 22.9546 28.7673C23.1644 28.9404 23.3124 29.1824 23.3746 29.4542Z" fill="#00416B"/>
<path fill-rule="evenodd" clip-rule="evenodd" d="M35.644 41.4795L42.2143 36.7012H37.5327V27.3374C37.5326 26.9827 37.3916 26.6425 37.1407 26.3917C36.8898 26.1409 36.5495 26 36.1948 26H33.5194C33.1647 26.0001 32.8246 26.141 32.5738 26.3918C32.323 26.6426 32.182 26.9827 32.1819 27.3374V36.7012H27.5L34.0708 41.4795C34.2994 41.6456 34.5748 41.7351 34.8574 41.7351C35.14 41.7351 35.4154 41.6456 35.644 41.4795Z" fill="#0083CA"/>
</g>
<defs>
<clipPath id="clip0_3744_6635">
<rect width="48" height="48" fill="white"/>
</clipPath>
</defs>
</svg>
