<svg width="48" height="48" viewBox="0 0 48 48" fill="none" xmlns="http://www.w3.org/2000/svg">
<g clip-path="url(#clip0_154_2193)">
<path d="M42.8238 24C42.8238 27.7229 41.7199 31.3623 39.6516 34.4578C37.5833 37.5534 34.6435 39.9661 31.2039 41.3908C27.7644 42.8156 23.9796 43.1884 20.3282 42.4621C16.6768 41.7359 13.3228 39.9431 10.6902 37.3107C8.05767 34.6782 6.26486 31.3242 5.5385 27.6728C4.81215 24.0214 5.18486 20.2366 6.60952 16.797C8.03418 13.3575 10.4468 10.4176 13.5423 8.34923C16.6378 6.28083 20.2771 5.17681 24 5.17676C26.472 5.17672 28.9197 5.66358 31.2035 6.60952C33.4873 7.55545 35.5624 8.94196 37.3103 10.6899C39.0583 12.4378 40.4448 14.5128 41.3908 16.7966C42.3368 19.0803 42.8237 21.5281 42.8238 24Z" fill="#FFD400"/>
<path d="M42.8233 24C42.8225 27.7051 41.7286 31.3277 39.6784 34.4139C37.6282 37.5001 34.713 39.9128 31.2979 41.3497C27.8827 42.7867 24.1195 43.184 20.4796 42.4919C16.8397 41.7998 13.4849 40.0491 10.8354 37.459L37.459 10.8354C40.9032 14.3511 42.8295 19.0784 42.8233 24Z" fill="#FFC20E"/>
<path d="M24 44C20.0444 44 16.1776 42.827 12.8886 40.6294C9.59962 38.4318 7.03617 35.3082 5.52242 31.6537C4.00867 27.9992 3.6126 23.9778 4.3843 20.0982C5.15601 16.2186 7.06082 12.6549 9.85787 9.85787C12.6549 7.06082 16.2186 5.15601 20.0982 4.3843C23.9778 3.6126 27.9992 4.00867 31.6537 5.52242C35.3082 7.03617 38.4318 9.59962 40.6294 12.8886C42.827 16.1776 44 20.0444 44 24C43.994 29.3025 41.885 34.3861 38.1355 38.1355C34.3861 41.885 29.3025 43.994 24 44ZM24 6.35306C20.5098 6.35306 17.0979 7.38803 14.1959 9.32711C11.2939 11.2662 9.03201 14.0223 7.69635 17.2468C6.3607 20.4714 6.01123 24.0196 6.69214 27.4428C7.37305 30.8659 9.05376 34.0103 11.5217 36.4783C13.9897 38.9463 17.1341 40.627 20.5573 41.3079C23.9804 41.9888 27.5286 41.6393 30.7532 40.3037C33.9778 38.968 36.7338 36.7062 38.6729 33.8041C40.612 30.9021 41.647 27.4902 41.647 24C41.6416 19.3214 39.7807 14.8359 36.4724 11.5276C33.1641 8.21933 28.6786 6.35839 24 6.35306Z" fill="#CD992B"/>
<path d="M24 35.1761C20.438 35.1761 16.9409 31.9716 16.9409 28.7061H20.4709C20.4709 29.8126 22.1799 31.647 24.0002 31.647C25.7541 31.647 27.5295 30.637 27.5295 28.7061C27.5293 26.5349 25.628 25.7649 24 25.7649V22.2349C28.09 22.2349 31.0591 24.9561 31.0591 28.7056C31.0591 32.3945 28.0241 35.1756 24 35.1756" fill="#00416B"/>
<path d="M24 25.7644C20.5908 25.7644 16.9409 23.1644 16.9409 19.2944C16.9409 15.6054 19.9759 12.8237 24 12.8237C27.562 12.8237 31.0591 16.0287 31.0591 19.2944H27.5291C27.5291 18.1875 25.8196 16.353 23.9998 16.353C22.2459 16.353 20.4705 17.363 20.4705 19.2944C20.4705 21.1162 22.5255 22.2353 23.9998 22.2353L24 25.7644Z" fill="#00416B"/>
<path d="M24.7647 37.5293H23.2354C23.104 37.5293 22.974 37.5035 22.8526 37.4533C22.7313 37.403 22.621 37.3294 22.5282 37.2365C22.4353 37.1436 22.3616 37.0334 22.3114 36.912C22.2612 36.7907 22.2353 36.6606 22.2354 36.5293V34.4121C22.2353 34.2808 22.2612 34.1507 22.3114 34.0294C22.3616 33.908 22.4353 33.7978 22.5282 33.7049C22.621 33.612 22.7313 33.5384 22.8526 33.4881C22.974 33.4379 23.104 33.4121 23.2354 33.4121H24.7647C24.896 33.412 25.0261 33.4378 25.1474 33.4881C25.2688 33.5383 25.3791 33.612 25.4719 33.7048C25.5648 33.7977 25.6385 33.908 25.6887 34.0293C25.7389 34.1507 25.7647 34.2808 25.7647 34.4121V36.5293C25.7647 36.6606 25.7389 36.7907 25.6887 36.9121C25.6385 37.0334 25.5648 37.1437 25.4719 37.2366C25.3791 37.3295 25.2688 37.4031 25.1474 37.4533C25.0261 37.5036 24.896 37.5294 24.7647 37.5293Z" fill="#00416B"/>
<path d="M24.7647 14H23.2354C23.104 14.0001 22.974 13.9742 22.8526 13.924C22.7313 13.8737 22.621 13.8001 22.5282 13.7072C22.4353 13.6143 22.3616 13.5041 22.3114 13.3827C22.2612 13.2614 22.2353 13.1313 22.2354 13V10.8828C22.2354 10.6176 22.3407 10.3632 22.5282 10.1757C22.7158 9.98817 22.9701 9.88281 23.2354 9.88281H24.7647C24.896 9.88274 25.0261 9.90856 25.1474 9.95879C25.2688 10.009 25.379 10.0827 25.4719 10.1755C25.5648 10.2684 25.6384 10.3787 25.6887 10.5C25.7389 10.6214 25.7647 10.7515 25.7647 10.8828V13C25.7647 13.1314 25.7389 13.2614 25.6887 13.3828C25.6385 13.5042 25.5648 13.6144 25.4719 13.7073C25.3791 13.8002 25.2688 13.8738 25.1474 13.9241C25.0261 13.9743 24.896 14.0001 24.7647 14Z" fill="#00416B"/>
</g>
<defs>
<clipPath id="clip0_154_2193">
<rect width="48" height="48" fill="white"/>
</clipPath>
</defs>
</svg>
