<svg width="48" height="48" viewBox="0 0 48 48" fill="none" xmlns="http://www.w3.org/2000/svg">
<g clip-path="url(#clip0_154_2194)">
<path d="M12.0002 4C11.4698 4 10.9611 4.21071 10.586 4.58579C10.211 4.96086 10.0002 5.46957 10.0002 6V42C10.0002 42.5304 10.211 43.0391 10.586 43.4142C10.9611 43.7893 11.4698 44 12.0002 44H36.0002C36.5307 44 37.0394 43.7893 37.4145 43.4142C37.7895 43.0391 38.0002 42.5304 38.0002 42V12L30.0002 4H12.0002Z" fill="#FFD400"/>
<path d="M38 15.5V42C38.0001 42.2627 37.9484 42.5228 37.8479 42.7655C37.7474 43.0081 37.6001 43.2286 37.4144 43.4144C37.2286 43.6001 37.0081 43.7474 36.7654 43.8479C36.5228 43.9484 36.2626 44.0001 36 44H12C11.6774 44.0003 11.3596 43.9222 11.0739 43.7724C10.7882 43.6226 10.5432 43.4055 10.36 43.14L38 15.5Z" fill="#FFC20E"/>
<path d="M33.0002 16C33.5525 16 34.0002 15.5523 34.0002 15C34.0002 14.4477 33.5525 14 33.0002 14L15.0002 14C14.448 14 14.0002 14.4477 14.0002 15C14.0002 15.5523 14.448 16 15.0002 16L33.0002 16Z" fill="#00416B"/>
<path d="M33.0002 22C33.5525 22 34.0002 21.5523 34.0002 21C34.0002 20.4477 33.5525 20 33.0002 20H15.0002C14.448 20 14.0002 20.4477 14.0002 21C14.0002 21.5523 14.448 22 15.0002 22H33.0002Z" fill="#00416B"/>
<path d="M33.0002 28C33.5525 28 34.0002 27.5523 34.0002 27C34.0002 26.4477 33.5525 26 33.0002 26H15.0002C14.448 26 14.0002 26.4477 14.0002 27C14.0002 27.5523 14.448 28 15.0002 28H33.0002Z" fill="#00416B"/>
<path d="M33.0002 34C33.5525 34 34.0002 33.5523 34.0002 33C34.0002 32.4477 33.5525 32 33.0002 32H15.0002C14.448 32 14.0002 32.4477 14.0002 33C14.0002 33.5523 14.448 34 15.0002 34H33.0002Z" fill="#00416B"/>
<path d="M33.0002 40C33.5525 40 34.0002 39.5523 34.0002 39C34.0002 38.4477 33.5525 38 33.0002 38H25.0002C24.448 38 24.0002 38.4477 24.0002 39C24.0002 39.5523 24.448 40 25.0002 40H33.0002Z" fill="#0083CA"/>
<path d="M38.0002 12H32.0002C31.4698 12 30.9611 11.7893 30.586 11.4142C30.211 11.0391 30.0002 10.5304 30.0002 10V4L38.0002 12Z" fill="#CD992B"/>
</g>
<defs>
<clipPath id="clip0_154_2194">
<rect width="48" height="48" fill="white"/>
</clipPath>
</defs>
</svg>
