<svg width="48" height="48" viewBox="0 0 48 48" fill="none" xmlns="http://www.w3.org/2000/svg">
<g clip-path="url(#clip0_2681_6615)">
<path d="M32 10.855V36.5C32.0001 36.7627 31.9484 37.0228 31.8479 37.2655C31.7474 37.5081 31.6001 37.7286 31.4144 37.9144C31.2286 38.1001 31.0081 38.2474 30.7655 38.3479C30.5228 38.4484 30.2627 38.5001 30 38.5H10C9.73734 38.5001 9.47723 38.4484 9.23455 38.3479C8.99186 38.2474 8.77136 38.1001 8.58563 37.9144C8.39989 37.7286 8.25258 37.5081 8.15209 37.2655C8.05161 37.0228 7.99993 36.7627 8 36.5V6C7.99993 5.73734 8.05161 5.47723 8.15209 5.23455C8.25258 4.99186 8.39989 4.77136 8.58563 4.58563C8.77136 4.39989 8.99186 4.25258 9.23455 4.15209C9.47723 4.05161 9.73734 3.99993 10 4H25.145L32 10.855Z" fill="#FFD400"/>
<path d="M32 18.5V36.5C32.0001 36.7627 31.9484 37.0228 31.8479 37.2655C31.7474 37.5081 31.6001 37.7286 31.4144 37.9144C31.2286 38.1001 31.0081 38.2474 30.7655 38.3479C30.5228 38.4484 30.2627 38.5001 30 38.5H12L32 18.5Z" fill="#FFC20E"/>
<path d="M32 10.8572H26.8574C26.6323 10.8571 26.4093 10.8128 26.2013 10.7266C25.9933 10.6404 25.8043 10.5141 25.6451 10.3549C25.4859 10.1957 25.3597 10.0067 25.2735 9.79867C25.1874 9.59065 25.143 9.3677 25.1431 9.14255V4L32 10.8572Z" fill="#CD992B"/>
<path d="M34.4782 36.4779C34.3605 36.5956 34.2209 36.689 34.0671 36.7527C33.9133 36.8164 33.7485 36.8492 33.5821 36.8492C33.4157 36.8492 33.2509 36.8164 33.0971 36.7527C32.9434 36.689 32.8037 36.5956 32.686 36.4779L27.7266 31.5188C27.4913 31.2806 27.3598 30.959 27.3608 30.6243C27.3619 30.2895 27.4953 29.9687 27.732 29.732C27.9688 29.4953 28.2896 29.3618 28.6243 29.3608C28.9591 29.3598 29.2807 29.4913 29.5188 29.7266L34.4782 34.686C34.7157 34.9237 34.849 35.246 34.849 35.582C34.849 35.9179 34.7157 36.2402 34.4782 36.4779Z" fill="#0083CA"/>
<path d="M39.5806 40.0207L38.0206 41.5807C37.752 41.8491 37.3878 41.9999 37.0081 41.9999C36.6284 41.9999 36.2642 41.8491 35.9956 41.5807L30.1253 35.7095C29.9923 35.5766 29.8867 35.4188 29.8147 35.2451C29.7427 35.0714 29.7057 34.8852 29.7057 34.6972C29.7057 34.5092 29.7427 34.323 29.8147 34.1493C29.8867 33.9757 29.9923 33.8179 30.1253 33.685L31.6847 32.125C31.8177 31.992 31.9755 31.8865 32.1493 31.8146C32.323 31.7426 32.5092 31.7056 32.6972 31.7056C32.8853 31.7056 33.0715 31.7426 33.2452 31.8146C33.4189 31.8865 33.5768 31.992 33.7097 32.125L39.5807 37.9959C39.8491 38.2645 39.9998 38.6287 39.9998 39.0084C39.9998 39.3881 39.8491 39.7523 39.5807 40.0209" fill="#00416B"/>
<path d="M21.0412 34.0584C18.8598 34.0584 16.7275 33.4116 14.9137 32.1998C13.1 30.9879 11.6863 29.2654 10.8515 27.2501C10.0167 25.2348 9.79821 23.0172 10.2237 20.8778C10.6492 18.7383 11.6996 16.7731 13.242 15.2306C14.7844 13.6881 16.7496 12.6376 18.889 12.212C21.0285 11.7864 23.2461 12.0047 25.2614 12.8394C27.2767 13.6741 28.9993 15.0877 30.2113 16.9014C31.4232 18.7151 32.0702 20.8474 32.0702 23.0288C32.067 25.9529 30.904 28.7564 28.8364 30.8241C26.7687 32.8918 23.9653 34.055 21.0412 34.0584ZM21.0412 15.1084C19.4746 15.1083 17.9431 15.5729 16.6404 16.4432C15.3378 17.3136 14.3225 18.5506 13.723 19.998C13.1234 21.4454 12.9666 23.0381 13.2722 24.5746C13.5778 26.1112 14.3323 27.5225 15.4401 28.6303C16.5479 29.7381 17.9593 30.4925 19.4958 30.7981C21.0324 31.1036 22.625 30.9467 24.0724 30.3471C25.5198 29.7475 26.7568 28.7322 27.6271 27.4296C28.4974 26.1269 28.9619 24.5954 28.9618 23.0288C28.9594 20.9288 28.1242 18.9155 26.6393 17.4307C25.1544 15.9458 23.1411 15.1105 21.0412 15.1082" fill="#00416B"/>
<rect x="17.4142" y="18" width="11.5" height="2" rx="1" transform="rotate(45 17.4142 18)" fill="#0083CA"/>
<rect x="16" y="26.1318" width="11.5" height="2" rx="1" transform="rotate(-45 16 26.1318)" fill="#0083CA"/>
</g>
<defs>
<clipPath id="clip0_2681_6615">
<rect width="48" height="48" fill="white"/>
</clipPath>
</defs>
</svg>
