<svg width="48" height="48" viewBox="0 0 48 48" fill="none" xmlns="http://www.w3.org/2000/svg">
<g clip-path="url(#clip0_154_2195)">
<path d="M32 4H12C10.8954 4 10 4.89543 10 6V36C10 37.1046 10.8954 38 12 38H32C33.1046 38 34 37.1046 34 36V6C34 4.89543 33.1046 4 32 4Z" fill="#A65718"/>
<path d="M34 6H14C12.8954 6 12 6.89543 12 8V38C12 39.1046 12.8954 40 14 40H34C35.1046 40 36 39.1046 36 38V8C36 6.89543 35.1046 6 34 6Z" fill="#CD992B"/>
<path d="M36 8H16C14.8954 8 14 8.89543 14 10V40C14 41.1046 14.8954 42 16 42H36C37.1046 42 38 41.1046 38 40V10C38 8.89543 37.1046 8 36 8Z" fill="#FFC20E"/>
<path d="M40 16.7557V42.0291C39.9982 42.2898 39.945 42.5477 39.8435 42.7879C39.7419 43.0281 39.5941 43.2459 39.4084 43.4289C39.2226 43.612 39.0027 43.7566 38.761 43.8546C38.5194 43.9526 38.2608 44.002 38 44.0001H18C17.7392 44.002 17.4806 43.9526 17.239 43.8546C16.9973 43.7566 16.7774 43.612 16.5916 43.4289C16.4059 43.2459 16.2581 43.0281 16.1565 42.7879C16.055 42.5477 16.0018 42.2898 16 42.0291V11.9711C16.0018 11.7103 16.055 11.4525 16.1565 11.2123C16.2581 10.9721 16.4059 10.7542 16.5916 10.5712C16.7774 10.3881 16.9973 10.2435 17.239 10.1455C17.4806 10.0475 17.7392 9.99808 18 10.0001H33.145L40 16.7557Z" fill="#FFD400"/>
<path d="M40 24.29V42.029C39.9982 42.2898 39.945 42.5476 39.8435 42.7878C39.7419 43.028 39.5941 43.2459 39.4084 43.4289C39.2226 43.612 39.0027 43.7566 38.761 43.8546C38.5194 43.9526 38.2608 44.002 38 44H20L40 24.29Z" fill="#FFC20E"/>
<path d="M40 16.7582H34.8574C34.406 16.7615 33.9718 16.5853 33.6503 16.2684C33.3288 15.9515 33.1463 15.5199 33.1431 15.0685V10.0005L40 16.7582Z" fill="#CD992B"/>
<path d="M36 19H20C19.4477 19 19 19.4477 19 20C19 20.5523 19.4477 21 20 21H36C36.5523 21 37 20.5523 37 20C37 19.4477 36.5523 19 36 19Z" fill="#00416B"/>
<path d="M36 25H20C19.4477 25 19 25.4477 19 26C19 26.5523 19.4477 27 20 27H36C36.5523 27 37 26.5523 37 26C37 25.4477 36.5523 25 36 25Z" fill="#00416B"/>
<path d="M36 31H20C19.4477 31 19 31.4477 19 32C19 32.5523 19.4477 33 20 33H36C36.5523 33 37 32.5523 37 32C37 31.4477 36.5523 31 36 31Z" fill="#00416B"/>
<path d="M29 37H20C19.4477 37 19 37.4477 19 38C19 38.5523 19.4477 39 20 39H29C29.5523 39 30 38.5523 30 38C30 37.4477 29.5523 37 29 37Z" fill="#0083CA"/>
</g>
<defs>
<clipPath id="clip0_154_2195">
<rect width="48" height="48" fill="white"/>
</clipPath>
</defs>
</svg>
