<svg width="48" height="48" viewBox="0 0 48 48" fill="none" xmlns="http://www.w3.org/2000/svg">
<g clip-path="url(#clip0_154_2196)">
<path d="M38.0003 4H10C9.46957 4 8.96086 4.21071 8.58579 4.58579C8.21071 4.96086 8 5.46957 8 6V36C8 36.5304 8.21071 37.0391 8.58579 37.4142C8.96086 37.7893 9.46957 38 10 38H16.0002V44L22.0002 38H38.0003C38.5307 38 39.0394 37.7893 39.4145 37.4142C39.7895 37.0391 40.0003 36.5304 40.0003 36V6C40.0003 5.46957 39.7895 4.96086 39.4145 4.58579C39.0394 4.21071 38.5307 4 38.0003 4Z" fill="#FFD400"/>
<path d="M40 8V36C40.0001 36.2627 39.9484 36.5228 39.8479 36.7655C39.7474 37.0081 39.6001 37.2286 39.4144 37.4144C39.2286 37.6001 39.0081 37.7474 38.7655 37.8479C38.5228 37.9484 38.2627 38.0001 38 38H22L16.415 43.585L16 43.565V38H10L40 8Z" fill="#FFC20E"/>
<path d="M24.0002 27C23.6024 27 23.2209 26.842 22.9396 26.5607C22.6583 26.2794 22.5002 25.8978 22.5002 25.5V23C22.5002 21.36 23.8381 20.2461 25.1321 19.1689C26.5421 17.9951 28.0002 16.7812 28.0002 15C28.0002 12.9439 25.968 11 23.8183 11C22.7863 11.0381 21.8099 11.4774 21.0968 12.2245C20.3837 12.9715 19.9903 13.9673 20.0002 15C20.0002 15.3978 19.8422 15.7794 19.5609 16.0607C19.2796 16.342 18.8981 16.5 18.5002 16.5C18.1024 16.5 17.7209 16.342 17.4396 16.0607C17.1583 15.7794 17.0002 15.3978 17.0002 15C17.0002 11.2055 20.1225 8 23.8183 8C27.6443 8 31.0002 11.271 31.0002 15C31.0002 18.1875 28.7177 20.0874 27.0512 21.4746C26.4624 21.9646 25.5722 22.706 25.4983 23.0215L25.5002 25.5C25.5002 25.8978 25.3422 26.2794 25.0609 26.5607C24.7796 26.842 24.3981 27 24.0002 27Z" fill="#00416B"/>
<path d="M24.5002 29H23.5002C22.948 29 22.5002 29.4477 22.5002 30V31C22.5002 31.5523 22.948 32 23.5002 32H24.5002C25.0525 32 25.5002 31.5523 25.5002 31V30C25.5002 29.4477 25.0525 29 24.5002 29Z" fill="#00416B"/>
</g>
<defs>
<clipPath id="clip0_154_2196">
<rect width="48" height="48" fill="white"/>
</clipPath>
</defs>
</svg>
