<svg width="48" height="48" viewBox="0 0 48 48" fill="none" xmlns="http://www.w3.org/2000/svg">
<g clip-path="url(#clip0_154_2197)">
<path d="M16.293 26.707C16.1055 26.5195 16.0001 26.2652 16.0001 26C16.0001 25.7348 16.1055 25.4805 16.293 25.2929L18.586 23C18.7744 22.8172 19.0273 22.7158 19.2898 22.7178C19.5524 22.7198 19.8037 22.825 19.9893 23.0107C20.175 23.1963 20.2802 23.4476 20.2822 23.7102C20.2842 23.9727 20.1828 24.2256 20 24.414L17.7071 26.707C17.5195 26.8945 17.2652 26.9999 17 26.9999C16.7348 26.9999 16.4805 26.8945 16.293 26.707Z" fill="#0083CA"/>
<path d="M18.4153 23.6355L17.0005 25.0493L21.9484 30.0008L23.3632 28.587L18.4153 23.6355Z" fill="#0083CA"/>
<path d="M9 25V10C9 9.46957 9.21071 8.96086 9.58579 8.58579C9.96086 8.21071 10.4696 8 11 8H15.7344C16.1131 8.00007 16.484 8.10762 16.8039 8.31014C17.1239 8.51266 17.3799 8.80183 17.542 9.14405L26 30H20L21.271 27.6031C21.5377 27.1006 21.6941 26.5471 21.7297 25.9793C21.7653 25.4116 21.6793 24.8429 21.4776 24.3111L16.2705 10.5742C16.1896 10.4025 16.0615 10.2573 15.9012 10.1557C15.741 10.054 15.5551 10 15.3652 10H12C11.7348 10 11.4804 10.1054 11.2929 10.2929C11.1054 10.4804 11 10.7348 11 11V25H9Z" fill="#00416B"/>
<path d="M25 37H5C4.73478 37 4.48043 36.8946 4.29289 36.7071C4.10536 36.5196 4 36.2652 4 36V25C4 24.7348 4.10536 24.4804 4.29289 24.2929C4.48043 24.1054 4.73478 24 5 24H9.78905C10.5786 24 11.3504 24.2338 12.0073 24.6719L18.9923 29.3281C19.6493 29.7661 20.4213 29.9999 21.211 30H26V36C26 36.2652 25.8946 36.5196 25.7071 36.7071C25.5196 36.8946 25.2652 37 25 37Z" fill="#FFD400"/>
<path d="M24 7V12C24 12.2652 24.1054 12.5196 24.2929 12.7071C24.4804 12.8946 24.7348 13 25 13C25.2652 13 25.5196 13.1054 25.7071 13.2929C25.8946 13.4804 26 13.7348 26 14V37C26 37.2652 26.1054 37.5196 26.2929 37.7071C26.4804 37.8946 26.7348 38 27 38C27.2652 38 27.5196 37.8946 27.7071 37.7071C27.8946 37.5196 28 37.2652 28 37V7C28 6.73478 27.8946 6.48043 27.7071 6.29289C27.5196 6.10536 27.2652 6 27 6H25C24.7348 6 24.4804 6.10536 24.2929 6.29289C24.1054 6.48043 24 6.73478 24 7Z" fill="#00416B"/>
<path d="M42 32H28V30H44C44 30.5304 43.7893 31.0391 43.4142 31.4142C43.0391 31.7893 42.5304 32 42 32Z" fill="#00416B"/>
<path d="M43 18H31C30.7348 18 30.4804 18.1054 30.2929 18.2929C30.1054 18.4804 30 18.7348 30 19V29C30 29.2652 30.1054 29.5196 30.2929 29.7071C30.4804 29.8946 30.7348 30 31 30H43C43.2652 30 43.5196 29.8946 43.7071 29.7071C43.8946 29.5196 44 29.2652 44 29V19C44 18.7348 43.8946 18.4804 43.7071 18.2929C43.5196 18.1054 43.2652 18 43 18Z" fill="#FFD400"/>
<path d="M37 26C36.7348 26 36.4804 25.8946 36.2929 25.7071C36.1054 25.5196 36 25.2652 36 25V18H38V25C38 25.2652 37.8946 25.5196 37.7071 25.7071C37.5196 25.8946 37.2652 26 37 26Z" fill="#CD992B"/>
<path d="M40.6665 8H31C30.8687 7.99992 30.7386 8.02573 30.6172 8.07596C30.4959 8.12619 30.3856 8.19984 30.2927 8.29272C30.1998 8.38559 30.1262 8.49586 30.076 8.61722C30.0257 8.73858 29.9999 8.86866 30 9V17C29.9999 17.1313 30.0257 17.2614 30.076 17.3828C30.1262 17.5041 30.1998 17.6144 30.2927 17.7073C30.3856 17.8002 30.4959 17.8738 30.6172 17.924C30.7386 17.9743 30.8687 18.0001 31 18H40.6665C40.7978 18.0001 40.9279 17.9743 41.0493 17.924C41.1706 17.8738 41.2809 17.8002 41.3738 17.7073C41.4667 17.6144 41.5403 17.5041 41.5905 17.3828C41.6408 17.2614 41.6666 17.1313 41.6665 17V9C41.6666 8.86866 41.6408 8.73858 41.5905 8.61722C41.5403 8.49586 41.4667 8.38559 41.3738 8.29272C41.2809 8.19984 41.1706 8.12619 41.0493 8.07596C40.9279 8.02573 40.7978 7.99992 40.6665 8Z" fill="#FFC20E"/>
<path d="M35.8335 16C35.7022 16.0001 35.5721 15.9743 35.4507 15.924C35.3294 15.8738 35.2191 15.8002 35.1262 15.7073C35.0333 15.6144 34.9597 15.5041 34.9095 15.3828C34.8592 15.2614 34.8334 15.1313 34.8335 15V8H36.8335V15C36.8335 15.2652 36.7281 15.5196 36.5406 15.7071C36.3531 15.8946 36.0987 16 35.8335 16Z" fill="#CD992B"/>
<path d="M4 33V28C4.53043 28 5.03914 28.2107 5.41421 28.5858C5.78929 28.9609 6 29.4696 6 30V31C6 31.5304 5.78929 32.0391 5.41421 32.4142C5.03914 32.7893 4.53043 33 4 33Z" fill="#CD992B"/>
<path d="M26 30.0002V36.0002C25.9992 36.2652 25.8935 36.519 25.7062 36.7064C25.5188 36.8937 25.265 36.9994 25 37.0002H11L18.8 29.2002L18.9904 29.3302C19.6487 29.7661 20.4205 29.9991 21.21 30.0002H26Z" fill="#FFC20E"/>
<path fill-rule="evenodd" clip-rule="evenodd" d="M25.0005 36C25.0006 35.2088 24.766 34.4354 24.3264 33.7775C23.8869 33.1196 23.2622 32.6069 22.5312 32.3041C21.8002 32.0013 20.9959 31.922 20.2199 32.0764C19.4439 32.2307 18.7311 32.6117 18.1716 33.1712C17.6122 33.7306 17.2312 34.4434 17.0769 35.2194C16.9225 35.9954 17.0018 36.7997 17.3046 37.5307C17.6074 38.2617 18.1201 38.8864 18.778 39.326C19.4359 39.7655 20.2093 40.0001 21.0005 40C22.0614 40 23.0788 39.5786 23.8289 38.8284C24.5791 38.0783 25.0005 37.0609 25.0005 36Z" fill="#00416B"/>
<path fill-rule="evenodd" clip-rule="evenodd" d="M23 36C23 35.6044 22.8827 35.2178 22.6629 34.8889C22.4432 34.56 22.1308 34.3036 21.7654 34.1522C21.3999 34.0009 20.9978 33.9613 20.6098 34.0384C20.2219 34.1156 19.8655 34.3061 19.5858 34.5858C19.3061 34.8655 19.1156 35.2219 19.0384 35.6098C18.9613 35.9978 19.0009 36.3999 19.1522 36.7654C19.3036 37.1308 19.56 37.4432 19.8889 37.6629C20.2178 37.8827 20.6044 38 21 38C21.5304 38 22.0391 37.7893 22.4142 37.4142C22.7893 37.0391 23 36.5304 23 36Z" fill="#CD992B"/>
<path fill-rule="evenodd" clip-rule="evenodd" d="M12 37C12 36.4067 11.8241 35.8266 11.4944 35.3333C11.1648 34.8399 10.6962 34.4554 10.1481 34.2284C9.59987 34.0013 8.99667 33.9419 8.41473 34.0576C7.83279 34.1734 7.29824 34.4591 6.87868 34.8787C6.45912 35.2982 6.1734 35.8328 6.05765 36.4147C5.94189 36.9967 6.0013 37.5999 6.22836 38.148C6.45543 38.6962 6.83994 39.1648 7.33329 39.4944C7.82664 39.8241 8.40666 40 9 40C9.79559 39.9998 10.5585 39.6837 11.1211 39.1211C11.6837 38.5585 11.9998 37.7956 12 37Z" fill="#00416B"/>
<path fill-rule="evenodd" clip-rule="evenodd" d="M10 37C10 36.8022 9.94135 36.6089 9.83147 36.4444C9.72159 36.28 9.56541 36.1518 9.38268 36.0761C9.19996 36.0004 8.99889 35.9806 8.80491 36.0192C8.61093 36.0578 8.43275 36.153 8.29289 36.2929C8.15304 36.4327 8.0578 36.6109 8.01922 36.8049C7.98063 36.9989 8.00043 37.2 8.07612 37.3827C8.15181 37.5654 8.27998 37.7216 8.44443 37.8315C8.60888 37.9414 8.80222 38 9 38C9.26516 37.9998 9.51941 37.8944 9.7069 37.7069C9.8944 37.5194 9.99982 37.2652 10 37Z" fill="#CD992B"/>
</g>
<defs>
<clipPath id="clip0_154_2197">
<rect width="48" height="48" fill="white"/>
</clipPath>
</defs>
</svg>
