<svg width="48" height="48" viewBox="0 0 48 48" fill="none" xmlns="http://www.w3.org/2000/svg">
<g clip-path="url(#clip0_154_2198)">
<path d="M9.805 11C9.32671 11.0014 8.86842 11.192 8.53022 11.5302C8.19202 11.8684 8.0014 12.3267 8 12.805V42.195C8.0014 42.6733 8.19202 43.1316 8.53022 43.4698C8.86842 43.808 9.32671 43.9986 9.805 44H38.195C38.6733 43.9986 39.1316 43.808 39.4698 43.4698C39.808 43.1316 39.9986 42.6733 40 42.195V12.805C39.9986 12.3267 39.808 11.8684 39.4698 11.5302C39.1316 11.192 38.6733 11.0014 38.195 11H9.805Z" fill="#FFC20E"/>
<path d="M29.865 4H18.1343C17.5405 4.02985 16.9826 4.29357 16.5827 4.73351C16.1828 5.17345 15.9732 5.75384 16 6.3478V44H32V6.3478C32.0267 5.75373 31.8171 5.17326 31.417 4.7333C31.0169 4.29334 30.4589 4.02969 29.865 4Z" fill="#FFD400"/>
<path d="M20.5 28C20.2033 28 19.9133 27.912 19.6666 27.7472C19.42 27.5824 19.2277 27.3481 19.1142 27.074C19.0007 26.7999 18.9709 26.4983 19.0288 26.2074C19.0867 25.9164 19.2296 25.6491 19.4393 25.4393C19.6491 25.2296 19.9164 25.0867 20.2074 25.0288C20.4983 24.9709 20.7999 25.0007 21.074 25.1142C21.3481 25.2277 21.5824 25.42 21.7472 25.6666C21.912 25.9133 22 26.2033 22 26.5C22 26.8978 21.842 27.2794 21.5607 27.5607C21.2794 27.842 20.8978 28 20.5 28Z" fill="#00416B"/>
<path d="M27.5 28C27.2033 28 26.9133 27.912 26.6666 27.7472C26.42 27.5824 26.2277 27.3481 26.1142 27.074C26.0007 26.7999 25.9709 26.4983 26.0288 26.2074C26.0867 25.9164 26.2296 25.6491 26.4393 25.4393C26.6491 25.2296 26.9164 25.0867 27.2074 25.0288C27.4983 24.9709 27.7999 25.0007 28.074 25.1142C28.3481 25.2277 28.5824 25.42 28.7472 25.6666C28.912 25.9133 29 26.2033 29 26.5C29 26.8978 28.842 27.2794 28.5607 27.5607C28.2794 27.842 27.8978 28 27.5 28Z" fill="#00416B"/>
<path d="M20.5 21C20.2033 21 19.9133 20.912 19.6666 20.7472C19.42 20.5824 19.2277 20.3481 19.1142 20.074C19.0007 19.7999 18.9709 19.4983 19.0288 19.2074C19.0867 18.9164 19.2296 18.6491 19.4393 18.4393C19.6491 18.2296 19.9164 18.0867 20.2074 18.0288C20.4983 17.9709 20.7999 18.0007 21.074 18.1142C21.3481 18.2277 21.5824 18.42 21.7472 18.6666C21.912 18.9133 22 19.2033 22 19.5C22 19.8978 21.842 20.2794 21.5607 20.5607C21.2794 20.842 20.8978 21 20.5 21Z" fill="#00416B"/>
<path d="M27.5 21C27.2033 21 26.9133 20.912 26.6666 20.7472C26.42 20.5824 26.2277 20.3481 26.1142 20.074C26.0007 19.7999 25.9709 19.4983 26.0288 19.2074C26.0867 18.9164 26.2296 18.6491 26.4393 18.4393C26.6491 18.2296 26.9164 18.0867 27.2074 18.0288C27.4983 17.9709 27.7999 18.0007 28.074 18.1142C28.3481 18.2277 28.5824 18.42 28.7472 18.6666C28.912 18.9133 29 19.2033 29 19.5C29 19.8978 28.842 20.2794 28.5607 20.5607C28.2794 20.842 27.8978 21 27.5 21Z" fill="#00416B"/>
<path d="M20.5 14C20.2033 14 19.9133 13.912 19.6666 13.7472C19.42 13.5824 19.2277 13.3481 19.1142 13.074C19.0007 12.7999 18.9709 12.4983 19.0288 12.2074C19.0867 11.9164 19.2296 11.6491 19.4393 11.4393C19.6491 11.2296 19.9164 11.0867 20.2074 11.0288C20.4983 10.9709 20.7999 11.0006 21.074 11.1142C21.3481 11.2277 21.5824 11.42 21.7472 11.6666C21.912 11.9133 22 12.2033 22 12.5C22 12.8978 21.842 13.2794 21.5607 13.5607C21.2794 13.842 20.8978 14 20.5 14Z" fill="#00416B"/>
<path d="M27.5 14C27.2033 14 26.9133 13.912 26.6666 13.7472C26.42 13.5824 26.2277 13.3481 26.1142 13.074C26.0007 12.7999 25.9709 12.4983 26.0288 12.2074C26.0867 11.9164 26.2296 11.6491 26.4393 11.4393C26.6491 11.2296 26.9164 11.0867 27.2074 11.0288C27.4983 10.9709 27.7999 11.0006 28.074 11.1142C28.3481 11.2277 28.5824 11.42 28.7472 11.6666C28.912 11.9133 29 12.2033 29 12.5C29 12.8978 28.842 13.2794 28.5607 13.5607C28.2794 13.842 27.8978 14 27.5 14Z" fill="#00416B"/>
<path d="M30 35H18V44H30V35Z" fill="#00416B"/>
<path d="M28.9089 35.9999H19.0912C18.9525 36.012 18.8129 35.9951 18.6811 35.9504C18.5493 35.9056 18.4283 35.8339 18.3257 35.7399C18.2231 35.6459 18.1412 35.5315 18.0851 35.4041C18.0291 35.2767 18.0001 35.1391 18.0001 34.9999C18.0001 34.8607 18.0291 34.7231 18.0851 34.5957C18.1412 34.4683 18.2231 34.3539 18.3257 34.2599C18.4283 34.1659 18.5493 34.0942 18.6811 34.0494C18.8129 34.0047 18.9525 33.9878 19.0912 33.9999H28.9089C29.0475 33.9878 29.1872 34.0047 29.319 34.0494C29.4507 34.0942 29.5718 34.1659 29.6744 34.2599C29.777 34.3539 29.8589 34.4683 29.915 34.5957C29.971 34.7231 29.9999 34.8607 29.9999 34.9999C29.9999 35.1391 29.971 35.2767 29.915 35.4041C29.8589 35.5315 29.777 35.6459 29.6744 35.7399C29.5718 35.8339 29.4507 35.9056 29.319 35.9504C29.1872 35.9951 29.0475 36.012 28.9089 35.9999Z" fill="#0083CA"/>
</g>
<defs>
<clipPath id="clip0_154_2198">
<rect width="48" height="48" fill="white"/>
</clipPath>
</defs>
</svg>
