<svg width="48" height="48" viewBox="0 0 48 48" fill="none" xmlns="http://www.w3.org/2000/svg">
<g clip-path="url(#clip0_154_2228)">
<path d="M6.02148 30.8412L22.011 37.9442L38 30.8122V13.0747L22.011 5.96924L6.02148 13.0747V30.8412Z" fill="#FFD400"/>
<path d="M22.011 37.9442V20.1812L38 13.0747V30.8122L22.011 37.9442Z" fill="#CD992B"/>
<path d="M22.011 37.9442V20.1812L6.02148 13.0747V30.8122L22.011 37.9442Z" fill="#FFC20E"/>
<path d="M32.291 15.6484L16.3018 8.54199L11.9771 10.417L27.9668 17.5229V22.825C27.9668 22.9737 28.0041 23.12 28.0753 23.2505C28.1465 23.381 28.2494 23.4915 28.3744 23.5719C28.4995 23.6524 28.6427 23.7001 28.791 23.7108C28.9393 23.7215 29.0879 23.6948 29.2232 23.6331L31.771 22.4724C31.9261 22.4017 32.0575 22.2879 32.1497 22.1445C32.2419 22.0011 32.291 21.8343 32.291 21.6638V15.6484Z" fill="#A65718"/>
<path d="M36 34L41 27H31L36 34Z" fill="#0083CA"/>
<path d="M36 35C35.8408 34.9999 35.684 34.9619 35.5424 34.8891C35.4008 34.8163 35.2787 34.7108 35.1861 34.5813L30.1861 27.5813C30.0792 27.4318 30.0157 27.2557 30.0024 27.0724C29.9891 26.8891 30.0265 26.7057 30.1106 26.5423C30.1947 26.3789 30.3222 26.2419 30.4791 26.1462C30.636 26.0505 30.8163 26 31 26H41C41.1838 26 41.364 26.0505 41.5209 26.1462C41.6778 26.2419 41.8053 26.3789 41.8894 26.5423C41.9735 26.7057 42.011 26.8891 41.9977 27.0724C41.9843 27.2557 41.9208 27.4318 41.814 27.5813L36.814 34.5813C36.7214 34.7108 36.5992 34.8163 36.4576 34.8891C36.3161 34.9619 36.1592 34.9999 36 35ZM32.9434 28L36 32.2795L39.0567 28H32.9434Z" fill="#00416B"/>
<path d="M41 42H31C30.8163 42.0001 30.636 41.9495 30.4791 41.8538C30.3222 41.7581 30.1947 41.6211 30.1106 41.4577C30.0265 41.2943 29.9891 41.1109 30.0024 40.9276C30.0157 40.7443 30.0792 40.5682 30.1861 40.4187L35.1861 33.4187C35.2786 33.2892 35.4008 33.1836 35.5424 33.1108C35.6839 33.038 35.8408 33 36 33C36.1592 33 36.3161 33.038 36.4577 33.1108C36.5992 33.1836 36.7214 33.2892 36.814 33.4187L41.814 40.4187C41.9208 40.5682 41.9843 40.7443 41.9977 40.9276C42.011 41.1109 41.9735 41.2943 41.8894 41.4577C41.8053 41.6211 41.6778 41.7581 41.5209 41.8538C41.364 41.9495 41.1838 42.0001 41 42ZM32.9434 40H39.0567L36 35.7205L32.9434 40Z" fill="#00416B"/>
</g>
<defs>
<clipPath id="clip0_154_2228">
<rect width="48" height="48" fill="white"/>
</clipPath>
</defs>
</svg>
