<svg width="48" height="48" viewBox="0 0 48 48" fill="none" xmlns="http://www.w3.org/2000/svg">
<g clip-path="url(#clip0_154_2211)">
<path d="M42.5558 12.4443H17.3558C16.5826 12.4443 15.9558 13.0711 15.9558 13.8443V30.6443C15.9558 31.4175 16.5826 32.0443 17.3558 32.0443H42.5558C43.329 32.0443 43.9558 31.4175 43.9558 30.6443V13.8443C43.9558 13.0711 43.329 12.4443 42.5558 12.4443Z" fill="#FFD400"/>
<path d="M43.9558 32.0442H15.9558C33.2975 16.8729 26.6535 16.9415 43.9558 32.0442Z" fill="#FFE600"/>
<path d="M15.9558 12.4443H43.9558C26.6141 27.6156 33.2582 27.547 15.9558 12.4443Z" fill="#FFC20E"/>
<path d="M12.6125 17.293L9.0675 20.838L15.5754 32.1559C16.4556 33.5899 17.772 34.7044 19.3316 35.3359L32.2672 35.9689C32.4022 36.027 32.5479 36.0562 32.6948 36.0547C32.8418 36.0532 32.9868 36.021 33.1206 35.9601C33.2544 35.8993 33.374 35.8112 33.4717 35.7015C33.5695 35.5917 33.6432 35.4628 33.6883 35.3229C33.7618 35.0733 33.7479 34.8061 33.6488 34.5655C33.5497 34.3249 33.3714 34.1254 33.1434 34.0001L22.6291 32.5723C20.9952 31.655 19.6412 30.3111 18.7119 28.6841L17.0007 24.9341L19.272 28.5586C20.2451 29.8416 21.5723 30.812 23.09 31.3503C23.52 31.5118 23.9962 31.4989 24.4169 31.3143C24.8375 31.1297 25.1695 30.7881 25.3419 30.3623C25.3352 30.1138 25.233 29.8775 25.0567 29.7023L22.919 27.5647C21.8687 26.5153 21.0331 25.2711 20.459 23.9018L19.239 20.9862C19.0263 20.4793 18.7097 20.0227 18.3097 19.6457C17.9097 19.2686 17.4351 18.9796 16.9166 18.7972L12.6125 17.293Z" fill="#A65718"/>
<path d="M12.8756 15.6934L13.5049 16.3227C13.6925 16.5102 13.7978 16.7646 13.7978 17.0298C13.7978 17.295 13.6925 17.5494 13.5049 17.7369L9.80323 21.4386C9.61569 21.6261 9.36134 21.7315 9.09612 21.7315C8.83091 21.7315 8.57655 21.6261 8.38902 21.4386L7.75969 20.8093L12.8756 15.6934Z" fill="#0083CA"/>
<path d="M12.8079 14.3468L10.8807 12.4195C10.4902 12.029 9.857 12.029 9.46648 12.4195L4.48601 17.4C4.09548 17.7905 4.09548 18.4237 4.48601 18.8142L6.41326 20.7414C6.80379 21.132 7.43695 21.132 7.82747 20.7414L12.8079 15.761C13.1985 15.3705 13.1985 14.7373 12.8079 14.3468Z" fill="#00416B"/>
</g>
<defs>
<clipPath id="clip0_154_2211">
<rect width="48" height="48" fill="white"/>
</clipPath>
</defs>
</svg>
