<svg width="48" height="48" viewBox="0 0 48 48" fill="none" xmlns="http://www.w3.org/2000/svg">
<g clip-path="url(#clip0_154_2210)">
<path d="M42.6276 11.3965H17.4276C16.6544 11.3965 16.0276 12.0233 16.0276 12.7965V29.5965C16.0276 30.3697 16.6544 30.9965 17.4276 30.9965H42.6276C43.4008 30.9965 44.0276 30.3697 44.0276 29.5965V12.7965C44.0276 12.0233 43.4008 11.3965 42.6276 11.3965Z" fill="#FFD400"/>
<path d="M44.0276 30.9963H16.0276C33.3693 15.825 26.725 15.8936 44.0276 30.9963Z" fill="#FFE600"/>
<path d="M16.0276 11.3965H44.0276C26.6859 26.5678 33.33 26.4992 16.0276 11.3965Z" fill="#FFC20E"/>
<path d="M9.69824 26.7572V31.7704C13.4185 32.1057 15.7236 36.0329 19.6004 36.5248C21.2466 36.693 22.9098 36.5287 24.4912 36.0419C27.6912 35.2144 28.9253 30.8784 28.6706 29.3966C31.7639 28.8966 34.4821 29.0574 34.4821 27.6602C34.4821 27.1146 34.2362 26.5147 32.8453 26.5147H17.4105C17.0438 26.5147 16.692 26.369 16.4326 26.1097C16.1733 25.8503 16.0276 25.4986 16.0276 25.1318V24.0301C15.4367 23.8366 14.8021 24.2968 13.8054 24.7773L9.69824 26.7572Z" fill="#A65718"/>
<path d="M8.75317 25.4399H9.64317C9.90839 25.4399 10.1627 25.5453 10.3503 25.7328C10.5378 25.9204 10.6432 26.1747 10.6432 26.4399V31.6749C10.6432 31.9402 10.5378 32.1945 10.3503 32.382C10.1627 32.5696 9.90839 32.6749 9.64317 32.6749H8.75317V25.4399Z" fill="#0083CA"/>
<path d="M7.75314 24.5356H5.02759C4.4753 24.5356 4.02759 24.9834 4.02759 25.5356V32.5791C4.02759 33.1314 4.4753 33.5791 5.02759 33.5791H7.75314C8.30542 33.5791 8.75314 33.1314 8.75314 32.5791V25.5356C8.75314 24.9834 8.30542 24.5356 7.75314 24.5356Z" fill="#00416B"/>
</g>
<defs>
<clipPath id="clip0_154_2210">
<rect width="48" height="48" fill="white"/>
</clipPath>
</defs>
</svg>
