<svg width="48" height="48" viewBox="0 0 48 48" fill="none" xmlns="http://www.w3.org/2000/svg">
<g clip-path="url(#clip0_155_2272)">
<path d="M41.213 12.5H18.9274C17.3889 12.5 16.1417 13.7472 16.1417 15.2857V29.2142C16.1417 30.7527 17.3889 31.9999 18.9274 31.9999H41.213C42.7515 31.9999 43.9987 30.7527 43.9987 29.2142V15.2857C43.9987 13.7472 42.7515 12.5 41.213 12.5Z" fill="#FFD400"/>
<path d="M44.0001 15.2857V29.2142C43.9997 29.9529 43.7061 30.6613 43.1837 31.1836C42.6614 31.706 41.9531 31.9996 41.2143 32H20.3739L40.1175 12.5H41.2143C41.953 12.5004 42.6614 12.794 43.1837 13.3163C43.7061 13.8387 43.9997 14.547 44.0001 15.2857Z" fill="#FFC20E"/>
<path d="M43.9987 15.2856H16.1417V20.857H43.9987V15.2856Z" fill="#00416B"/>
<path d="M30.7666 25.0359C31.1512 25.0359 31.463 24.7241 31.463 24.3395C31.463 23.9549 31.1512 23.6431 30.7666 23.6431H19.6238C19.2392 23.6431 18.9274 23.9549 18.9274 24.3395C18.9274 24.7241 19.2392 25.0359 19.6238 25.0359H30.7666Z" fill="#00416B"/>
<path d="M26.5881 27.8216C26.9727 27.8216 27.2845 27.5098 27.2845 27.1251C27.2845 26.7405 26.9727 26.4287 26.5881 26.4287H19.6239C19.2393 26.4287 18.9274 26.7405 18.9274 27.1251C18.9274 27.5098 19.2393 27.8216 19.6239 27.8216H26.5881Z" fill="#00416B"/>
<path d="M40.8941 23.6431H38.1084C37.7238 23.6431 37.412 23.9549 37.412 24.3395V27.1252C37.412 27.5098 37.7238 27.8216 38.1084 27.8216H40.8941C41.2787 27.8216 41.5905 27.5098 41.5905 27.1252V24.3395C41.5905 23.9549 41.2787 23.6431 40.8941 23.6431Z" fill="#0083CA"/>
<path d="M12.875 17.293L9.32996 20.838L15.838 32.1559C16.7182 33.5899 18.0345 34.7044 19.5942 35.3359L32.53 35.9688C32.665 36.0268 32.8106 36.056 32.9576 36.0545C33.1045 36.053 33.2496 36.0208 33.3833 35.96C33.5171 35.8992 33.6367 35.8111 33.7345 35.7013C33.8322 35.5916 33.906 35.4626 33.951 35.3227C34.0245 35.0732 34.0106 34.806 33.9114 34.5654C33.8123 34.3249 33.634 34.1254 33.406 34.0001L22.8917 32.5723C21.2578 31.6551 19.9038 30.3111 18.9745 28.6841L17.2632 24.9341L19.5346 28.5586C20.5077 29.8416 21.8349 30.812 23.3526 31.3503C23.7827 31.5117 24.2588 31.4988 24.6795 31.3143C25.1002 31.1297 25.4322 30.7881 25.6046 30.3623C25.5979 30.1138 25.4957 29.8774 25.3193 29.7023L23.1817 27.5646C22.1313 26.5152 21.2957 25.271 20.7217 23.9018L19.5017 20.9861C19.2889 20.4793 18.9724 20.0226 18.5724 19.6456C18.1724 19.2686 17.6978 18.9795 17.1793 18.7971L12.875 17.293Z" fill="#A65718"/>
<path d="M13.1382 15.6934L13.7675 16.3227C13.955 16.5102 14.0604 16.7646 14.0604 17.0298C14.0604 17.295 13.955 17.5494 13.7675 17.7369L10.0658 21.4386C9.87827 21.6261 9.62391 21.7315 9.3587 21.7315C9.09348 21.7315 8.83913 21.6261 8.65159 21.4386L8.02227 20.8093L13.1382 15.6934Z" fill="#0083CA"/>
<path d="M13.0705 14.3468L11.1433 12.4195C10.7527 12.029 10.1196 12.029 9.72905 12.4195L4.74858 17.4C4.35806 17.7905 4.35806 18.4237 4.74858 18.8142L6.67583 20.7414C7.06636 21.132 7.69952 21.132 8.09005 20.7414L13.0705 15.761C13.461 15.3705 13.461 14.7373 13.0705 14.3468Z" fill="#00416B"/>
</g>
<defs>
<clipPath id="clip0_155_2272">
<rect width="48" height="48" fill="white"/>
</clipPath>
</defs>
</svg>
