<svg width="48" height="48" viewBox="0 0 48 48" fill="none" xmlns="http://www.w3.org/2000/svg">
<g clip-path="url(#clip0_159_2366)">
<path d="M42 7.80015V40.2001C41.9972 40.4395 41.9472 40.676 41.8529 40.896C41.7586 41.1161 41.6219 41.3154 41.4506 41.4825C41.2792 41.6497 41.0766 41.7815 40.8543 41.8703C40.632 41.9591 40.3944 42.0032 40.155 42.0001H19.845C19.6056 42.0032 19.368 41.9591 19.1457 41.8703C18.9234 41.7815 18.7208 41.6497 18.5494 41.4825C18.3781 41.3154 18.2414 41.1161 18.1471 40.896C18.0528 40.676 18.0028 40.4395 18 40.2001V7.80015C18.0028 7.56078 18.0528 7.32432 18.1471 7.10427C18.2414 6.88423 18.3781 6.68493 18.5494 6.51776C18.7208 6.35059 18.9234 6.21883 19.1457 6.13002C19.368 6.0412 19.6056 5.99707 19.845 6.00015H40.155C40.3978 5.99883 40.6385 6.04541 40.8633 6.13721C41.0881 6.22901 41.2925 6.36424 41.465 6.53515C41.635 6.69895 41.77 6.89548 41.862 7.11289C41.9539 7.33031 42.0009 7.56409 42 7.80015Z" fill="#CD992B"/>
<path d="M40 7.80015V40.2001C39.9972 40.4395 39.9472 40.676 39.8529 40.896C39.7586 41.1161 39.6219 41.3154 39.4506 41.4825C39.2792 41.6497 39.0766 41.7815 38.8543 41.8703C38.632 41.9591 38.3944 42.0032 38.155 42.0001H17.845C17.6056 42.0032 17.368 41.9591 17.1457 41.8703C16.9234 41.7815 16.7208 41.6497 16.5494 41.4825C16.3781 41.3154 16.2414 41.1161 16.1471 40.896C16.0528 40.676 16.0028 40.4395 16 40.2001V7.80015C16.0028 7.56078 16.0528 7.32432 16.1471 7.10427C16.2414 6.88423 16.3781 6.68493 16.5494 6.51776C16.7208 6.35059 16.9234 6.21883 17.1457 6.13002C17.368 6.0412 17.6056 5.99707 17.845 6.00015H38.155C38.3978 5.99883 38.6385 6.04541 38.8633 6.13721C39.0881 6.22901 39.2925 6.36424 39.465 6.53515C39.635 6.69895 39.77 6.89548 39.862 7.11289C39.9539 7.33031 40.0009 7.56409 40 7.80015Z" fill="#FFD400"/>
<path fill-rule="evenodd" clip-rule="evenodd" d="M40 7.80016V40.2002C39.9972 40.4395 39.9472 40.676 39.8529 40.896C39.7586 41.1161 39.6219 41.3154 39.4506 41.4825C39.2792 41.6497 39.0766 41.7815 38.8543 41.8703C38.632 41.9591 38.3944 42.0032 38.155 42.0002H17.845C17.6056 42.0032 17.368 41.9591 17.1457 41.8703C16.9234 41.7815 16.7208 41.6497 16.5494 41.4825C16.3781 41.3154 16.2414 41.1161 16.1471 40.896C16.0528 40.676 16.0028 40.4395 16 40.2002V30.0002L39.465 6.53516C39.635 6.69895 39.77 6.89548 39.862 7.1129C39.9539 7.33031 40.0009 7.5641 40 7.80016Z" fill="#FFC20E"/>
<path fill-rule="evenodd" clip-rule="evenodd" d="M29.1444 22.8237L22 13V20H8C7.46957 20 6.96086 20.2107 6.58579 20.5858C6.21071 20.9609 6 21.4696 6 22V26C6 26.5304 6.21071 27.0391 6.58579 27.4142C6.96086 27.7893 7.46957 28 8 28H22V35L29.1444 25.1763C29.3931 24.8345 29.527 24.4227 29.527 24C29.527 23.5773 29.3931 23.1655 29.1444 22.8237Z" fill="#00416B"/>
<path d="M36 26C37.1046 26 38 25.1046 38 24C38 22.8954 37.1046 22 36 22C34.8954 22 34 22.8954 34 24C34 25.1046 34.8954 26 36 26Z" fill="#0083CA"/>
</g>
<defs>
<clipPath id="clip0_159_2366">
<rect width="48" height="48" fill="white"/>
</clipPath>
</defs>
</svg>
