<svg width="48" height="48" viewBox="0 0 48 48" fill="none" xmlns="http://www.w3.org/2000/svg">
<g clip-path="url(#clip0_155_2237)">
<path d="M18.0696 31.2912L29.7666 36.4873C29.9971 36.589 30.2463 36.6416 30.4982 36.6416C30.7502 36.6416 30.9993 36.589 31.2298 36.4873L42.9313 31.2686C43.2472 31.1266 43.5157 30.8971 43.7052 30.6073C43.8947 30.3175 43.9972 29.9794 44.0005 29.6332V16.9939C43.9989 16.6461 43.8972 16.3061 43.7076 16.0145C43.5181 15.7229 43.2486 15.492 42.9313 15.3494L31.23 10.1533C31.0002 10.0522 30.7518 10 30.5007 10C30.2496 10 30.0012 10.0522 29.7713 10.1533L18.0696 15.3494C17.7524 15.492 17.4829 15.7229 17.2933 16.0145C17.1037 16.3061 17.0021 16.6461 17.0005 16.9939V29.6332C16.9995 29.9833 17.0999 30.3262 17.2896 30.6204C17.4794 30.9147 17.7503 31.1477 18.0696 31.2912Z" fill="#FFD400"/>
<path d="M30.5005 36.8137V21.8232L44.0005 15.8252V30.7932L30.5005 36.8137Z" fill="#CD992B"/>
<path d="M30.5005 36.8137V21.8232L17.0005 15.8252V30.7932L30.5005 36.8137Z" fill="#FFC20E"/>
<path d="M39.3117 17.9044L25.9701 11.9653L22.3459 13.5282L35.7101 19.4673V23.8979C35.7103 24.0222 35.7417 24.1444 35.8013 24.2534C35.861 24.3624 35.947 24.4547 36.0516 24.5219C36.1561 24.5891 36.2759 24.6289 36.3998 24.6378C36.5238 24.6467 36.648 24.6244 36.7611 24.5729L38.8903 23.6034C39.0239 23.5481 39.1382 23.4545 39.2188 23.3344C39.2994 23.2143 39.3427 23.0731 39.3433 22.9284L39.3117 17.9044Z" fill="#00416B"/>
<path d="M12.6125 17.293L9.0675 20.838L15.5754 32.1559C16.4556 33.5899 17.772 34.7044 19.3316 35.3359L32.2672 37.6759C32.4022 37.734 32.5479 37.7632 32.6948 37.7617C32.8418 37.7602 32.9868 37.728 33.1206 37.6671C33.2544 37.6063 33.374 37.5182 33.4717 37.4085C33.5695 37.2988 33.6432 37.1698 33.6883 37.0299C33.7618 36.7803 33.7478 36.5131 33.6487 36.2726C33.5496 36.032 33.3712 35.8326 33.1433 35.7072L22.6291 32.5723C20.9952 31.655 19.6412 30.3111 18.7119 28.6841L17.0007 24.9341L19.272 28.5586C20.2451 29.8416 21.5723 30.812 23.09 31.3503C23.52 31.5118 23.9962 31.4989 24.4169 31.3143C24.8375 31.1297 25.1695 30.7881 25.3419 30.3623C25.3352 30.1138 25.233 29.8775 25.0567 29.7023L22.919 27.5647C21.8687 26.5153 21.0331 25.2711 20.459 23.9018L19.239 20.9862C19.0263 20.4793 18.7097 20.0227 18.3097 19.6457C17.9097 19.2686 17.4351 18.9796 16.9166 18.7972L12.6125 17.293Z" fill="#A65718"/>
<path d="M12.8756 15.6934L13.5049 16.3227C13.6925 16.5102 13.7978 16.7646 13.7978 17.0298C13.7978 17.295 13.6925 17.5494 13.5049 17.7369L9.80323 21.4386C9.61569 21.6261 9.36134 21.7315 9.09612 21.7315C8.83091 21.7315 8.57655 21.6261 8.38902 21.4386L7.75969 20.8093L12.8756 15.6934Z" fill="#0083CA"/>
<path d="M12.8079 14.3468L10.8807 12.4195C10.4902 12.029 9.857 12.029 9.46648 12.4195L4.48601 17.4C4.09548 17.7905 4.09548 18.4237 4.48601 18.8142L6.41326 20.7414C6.80379 21.132 7.43695 21.132 7.82747 20.7414L12.8079 15.761C13.1985 15.3705 13.1985 14.7373 12.8079 14.3468Z" fill="#00416B"/>
</g>
<defs>
<clipPath id="clip0_155_2237">
<rect width="48" height="48" fill="white"/>
</clipPath>
</defs>
</svg>
