<svg width="48" height="48" viewBox="0 0 48 48" fill="none" xmlns="http://www.w3.org/2000/svg">
<g clip-path="url(#clip0_154_2220)">
<path fill-rule="evenodd" clip-rule="evenodd" d="M40.9835 7.9932L32.781 40.3654C32.6953 40.7041 32.5289 41.017 32.296 41.2774C32.0631 41.5378 31.7705 41.7379 31.4434 41.8606C31.1162 41.9833 30.7643 42.0249 30.4175 41.9819C30.0708 41.9388 29.7397 41.8125 29.4525 41.6136L20.6825 35.5401L17.4187 33.2814L31.9995 15.3542L40.4215 6.7666C40.6178 6.90064 40.7739 7.08568 40.8729 7.30181C40.972 7.51794 41.0102 7.75697 40.9835 7.9932Z" fill="#FFC20E"/>
<path fill-rule="evenodd" clip-rule="evenodd" d="M40.4214 6.76684L31.9994 15.3544L13.7823 30.7636L6.96324 26.0464C6.65254 25.8313 6.40369 25.5384 6.24153 25.1971C6.07937 24.8557 6.00956 24.4778 6.03907 24.1011C6.06859 23.7243 6.19639 23.3619 6.40973 23.05C6.62307 22.738 6.91448 22.4875 7.25489 22.3234L39.4649 6.75604C39.6137 6.68157 39.7781 6.6437 39.9445 6.64557C40.1109 6.64745 40.2744 6.68903 40.4214 6.76684Z" fill="#FFD400"/>
<path fill-rule="evenodd" clip-rule="evenodd" d="M31.9995 15.3545L17.419 33.2815L13.7825 30.769V30.7635L31.9995 15.3545Z" fill="#00416B"/>
<path fill-rule="evenodd" clip-rule="evenodd" d="M17.4188 33.2818L15.1871 41.4626C14.9978 41.3913 14.8331 41.2665 14.7133 41.1035C14.5934 40.9404 14.5234 40.7461 14.5117 40.544L13.7823 30.769L17.4188 33.2818Z" fill="#00416B"/>
<path fill-rule="evenodd" clip-rule="evenodd" d="M20.6827 35.5404L16.4463 41.1168C16.3051 41.3067 16.1045 41.4439 15.8763 41.5065C15.6482 41.5692 15.4056 41.5537 15.1873 41.4626L17.419 33.2817L20.6827 35.5404Z" fill="#CD992B"/>
</g>
<defs>
<clipPath id="clip0_154_2220">
<rect width="48" height="48" fill="white"/>
</clipPath>
</defs>
</svg>
