<svg width="48" height="48" viewBox="0 0 48 48" fill="none" xmlns="http://www.w3.org/2000/svg">
<g clip-path="url(#clip0_154_2206)">
<path d="M42.0002 12H14.0002C12.8957 12 12.0002 12.8954 12.0002 14V34C12.0002 35.1046 12.8957 36 14.0002 36H42.0002C43.1048 36 44.0002 35.1046 44.0002 34V14C44.0002 12.8954 43.1048 12 42.0002 12Z" fill="#FFD400"/>
<path d="M5 29H12V31H5C4.73478 31 4.48043 30.8946 4.29289 30.7071C4.10536 30.5196 4 30.2652 4 30C4 29.7348 4.10536 29.4804 4.29289 29.2929C4.48043 29.1054 4.73478 29 5 29Z" fill="#00416B"/>
<path d="M7 23H12V25H7C6.73478 25 6.48043 24.8946 6.29289 24.7071C6.10536 24.5196 6 24.2652 6 24C6 23.7348 6.10536 23.4804 6.29289 23.2929C6.48043 23.1054 6.73478 23 7 23Z" fill="#0083CA"/>
<path d="M5 17H12V19H5C4.73478 19 4.48043 18.8946 4.29289 18.7071C4.10536 18.5196 4 18.2652 4 18C4 17.7348 4.10536 17.4804 4.29289 17.2929C4.48043 17.1054 4.73478 17 5 17Z" fill="#00416B"/>
<path d="M25.68 23.2779L12.0002 36.0002H44.0002L30.3202 23.2779C29.6954 22.6808 28.8644 22.3476 28.0001 22.3477C27.1358 22.3477 26.3049 22.6809 25.68 23.2779Z" fill="#FFE600"/>
<path d="M30.3203 24.7224L44.0002 12H12.0002L25.68 24.7224C26.3049 25.3195 27.1359 25.6526 28.0001 25.6526C28.8644 25.6526 29.6954 25.3195 30.3203 24.7224Z" fill="#FFC20E"/>
</g>
<defs>
<clipPath id="clip0_154_2206">
<rect width="48" height="48" fill="white"/>
</clipPath>
</defs>
</svg>
