<svg width="48" height="48" viewBox="0 0 48 48" fill="none" xmlns="http://www.w3.org/2000/svg">
<g clip-path="url(#clip0_154_2229)">
<path d="M6 30.8412L21.9895 37.9442L37.9785 30.8122V13.0752L21.9895 5.96924L6 13.0752V30.8412Z" fill="#FFD400"/>
<path d="M21.9895 37.9442V20.1817L37.9785 13.0752V30.8122L21.9895 37.9442Z" fill="#CD992B"/>
<path d="M21.9895 37.9442V20.1817L6 13.0752V30.8122L21.9895 37.9442Z" fill="#FFC20E"/>
<path d="M32.2695 15.6489L16.28 8.54248L11.9553 10.4175L27.9453 17.5234V22.8257C27.9453 22.9744 27.9826 23.1207 28.0538 23.2512C28.1251 23.3817 28.2279 23.4922 28.3529 23.5726C28.478 23.6531 28.6212 23.7008 28.7695 23.7115C28.9178 23.7222 29.0664 23.6955 29.2017 23.6338L31.7495 22.4731C31.9046 22.4024 32.0361 22.2885 32.1282 22.1452C32.2204 22.0018 32.2695 21.835 32.2695 21.6645V15.6489Z" fill="#A65718"/>
<path fill-rule="evenodd" clip-rule="evenodd" d="M41.6746 31.6485L35.6012 23.2974V29.248H29.6876C28.5045 29.248 27.3395 28.9575 26.2948 28.402C25.2501 27.8466 24.3578 27.0432 23.6962 26.0623L22.1126 23.7146C22.1126 24.2178 22.1058 25.1446 22.0956 26.2717C22.0843 27.5417 22.3234 28.8015 22.7994 29.979C23.2754 31.1565 23.9788 32.2287 24.8695 33.1341C25.7602 34.0395 26.8207 34.7604 27.9903 35.2556C29.1598 35.7508 30.4156 36.0105 31.6856 36.02C33.8936 36.0361 35.6012 36.0488 35.6012 36.0488V42L41.6746 33.6482C41.8858 33.3576 41.9996 33.0076 41.9996 32.6484C41.9996 32.2891 41.8858 31.9391 41.6746 31.6485Z" fill="#00416B"/>
</g>
<defs>
<clipPath id="clip0_154_2229">
<rect width="48" height="48" fill="white"/>
</clipPath>
</defs>
</svg>
