<svg width="48" height="48" viewBox="0 0 48 48" fill="none" xmlns="http://www.w3.org/2000/svg">
<g clip-path="url(#clip0_157_2342)">
<path d="M30.8233 25.0578C32.5958 23.32 33.6324 20.9673 33.7187 18.4866C33.7822 15.9048 32.8281 13.4016 31.0621 11.5172C29.2962 9.63272 26.8602 8.51819 24.2797 8.41409C22.3346 8.35705 20.4172 8.88513 18.7756 9.92999C17.134 10.9748 15.8438 12.4884 15.072 14.2747C14.3002 16.061 14.0823 18.0378 14.4466 19.9493C14.8108 21.8609 15.7404 23.619 17.115 24.9963C17.3659 25.2385 17.5548 25.5376 17.6656 25.8683C17.7764 26.1989 17.8059 26.5514 17.7516 26.8959C17.6974 27.2403 17.5609 27.5667 17.3538 27.8472C17.1468 28.1278 16.8751 28.3543 16.5619 28.5077C14.4088 29.5437 12.5214 31.0587 11.0443 32.9368C9.56718 34.8149 8.53952 37.0061 8.04005 39.3427C7.98111 39.6559 7.99201 39.9782 8.07198 40.2867C8.15194 40.5952 8.299 40.8822 8.50265 41.1273C8.70631 41.3725 8.96155 41.5696 9.25017 41.7048C9.53878 41.8399 9.85366 41.9096 10.1723 41.9091H37.8275C38.1462 41.9096 38.4611 41.8399 38.7497 41.7047C39.0383 41.5696 39.2936 41.3724 39.4973 41.1273C39.7009 40.8822 39.848 40.5952 39.928 40.2867C40.008 39.9782 40.0189 39.6559 39.96 39.3427C39.4606 37.006 38.4328 34.8147 36.9555 32.9366C35.4782 31.0585 33.5906 29.5435 31.4373 28.5077C31.127 28.3612 30.8564 28.1426 30.648 27.87C30.4396 27.5975 30.2994 27.279 30.2394 26.9412C30.1793 26.6034 30.201 26.2561 30.3026 25.9285C30.4042 25.6008 30.5829 25.3022 30.8236 25.0577" fill="#FFD400"/>
<path d="M37.8264 41.9092H13.42L21.9931 27.9159C33.5477 23.715 31.8575 13.834 31.4089 11.9111C32.9999 13.7665 33.8247 16.1582 33.7155 18.5999C33.6063 21.0416 32.5714 23.3501 30.8211 25.0561C30.5811 25.3013 30.4032 25.6002 30.302 25.9281C30.2009 26.2559 30.1795 26.6031 30.2397 26.9409C30.2999 27.2786 30.4399 27.5971 30.6481 27.8699C30.8563 28.1426 31.1266 28.3616 31.4365 28.5087C33.5903 29.5439 35.4783 31.0586 36.9558 32.9367C38.4333 34.8148 39.461 37.0064 39.96 39.3433C40.0191 39.6566 40.0082 39.979 39.9282 40.2876C39.8482 40.5961 39.701 40.8832 39.4972 41.1283C39.2934 41.3735 39.038 41.5705 38.7492 41.7055C38.4604 41.8405 38.1454 41.91 37.8266 41.9092" fill="#FFC20E"/>
<path d="M13 13.9092H14C14.2652 13.9092 14.5196 14.0145 14.7071 14.2021C14.8946 14.3896 15 14.644 15 14.9092V21.9092C15 22.1744 14.8946 22.4287 14.7071 22.6163C14.5196 22.8038 14.2652 22.9092 14 22.9092H13C12.2044 22.9092 11.4413 22.5931 10.8787 22.0305C10.3161 21.4679 10 20.7048 10 19.9092V16.9092C10 16.1135 10.3161 15.3505 10.8787 14.7879C11.4413 14.2253 12.2044 13.9092 13 13.9092Z" fill="#004169"/>
<path d="M35 22.9092H34C33.7348 22.9092 33.4804 22.8038 33.2929 22.6163C33.1054 22.4287 33 22.1744 33 21.9092V14.9092C33 14.644 33.1054 14.3896 33.2929 14.2021C33.4804 14.0145 33.7348 13.9092 34 13.9092H35C35.7956 13.9092 36.5587 14.2252 37.1213 14.7879C37.6839 15.3505 38 16.1135 38 16.9092V19.9092C38 20.7048 37.6839 21.4679 37.1213 22.0305C36.5587 22.5931 35.7956 22.9092 35 22.9092Z" fill="#004169"/>
<path d="M24 28.8184C23.8801 28.8193 23.7611 28.7964 23.65 28.7511C23.5389 28.7059 23.4379 28.639 23.3528 28.5545C23.2676 28.47 23.2 28.3695 23.1539 28.2587C23.1078 28.148 23.0841 28.0292 23.0841 27.9092C23.0841 27.7893 23.1078 27.6705 23.1539 27.5597C23.2 27.449 23.2676 27.3485 23.3528 27.264C23.4379 27.1794 23.5389 27.1126 23.65 27.0673C23.7611 27.022 23.8801 26.9992 24 27.0001C25.798 27.0001 27.5557 26.4669 29.0506 25.468C30.5456 24.4691 31.7108 23.0493 32.3989 21.3881C33.087 19.727 33.267 17.8991 32.9162 16.1357C32.5655 14.3722 31.6997 12.7524 30.4283 11.481C29.1569 10.2096 27.5371 9.3438 25.7736 8.99303C24.0101 8.64226 22.1823 8.82229 20.5211 9.51036C18.86 10.1984 17.4402 11.3636 16.4413 12.8586C15.4424 14.3536 14.9092 16.1113 14.9092 17.9093C14.9092 18.1504 14.8134 18.3816 14.6429 18.5522C14.4724 18.7227 14.2412 18.8185 14 18.8185C13.7589 18.8185 13.5276 18.7227 13.3571 18.5522C13.1866 18.3816 13.0908 18.1504 13.0908 17.9093C13.0908 15.7516 13.7306 13.6424 14.9293 11.8484C16.128 10.0544 17.8318 8.65613 19.8252 7.83043C21.8186 7.00473 24.0121 6.78869 26.1283 7.20962C28.2444 7.63054 30.1883 8.66954 31.714 10.1952C33.2397 11.7209 34.2787 13.6647 34.6996 15.7809C35.1205 17.8971 34.9045 20.0906 34.0788 22.084C33.2531 24.0774 31.8549 25.7811 30.0609 26.9799C28.2668 28.1786 26.1577 28.8184 24 28.8184Z" fill="#004169"/>
<path d="M24 25.9092H23C21.8954 25.9092 21 26.8046 21 27.9092C21 29.0138 21.8954 29.9092 23 29.9092H24C25.1046 29.9092 26 29.0138 26 27.9092C26 26.8046 25.1046 25.9092 24 25.9092Z" fill="#0083CA"/>
</g>
<defs>
<clipPath id="clip0_157_2342">
<rect width="48" height="48" fill="white"/>
</clipPath>
</defs>
</svg>
