<svg width="48" height="48" viewBox="0 0 48 48" fill="none" xmlns="http://www.w3.org/2000/svg">
<g clip-path="url(#clip0_156_2316)">
<path d="M12.0002 4C11.4698 4 10.9611 4.21071 10.586 4.58579C10.211 4.96086 10.0002 5.46957 10.0002 6V42C10.0002 42.5304 10.211 43.0391 10.586 43.4142C10.9611 43.7893 11.4698 44 12.0002 44H36.0002C36.5307 44 37.0394 43.7893 37.4145 43.4142C37.7895 43.0391 38.0002 42.5304 38.0002 42V12L30.0002 4H12.0002Z" fill="#FFD400"/>
<path d="M38 15.5V42C38.0001 42.2627 37.9484 42.5228 37.8479 42.7655C37.7474 43.0081 37.6001 43.2286 37.4144 43.4144C37.2286 43.6001 37.0081 43.7474 36.7654 43.8479C36.5228 43.9484 36.2626 44.0001 36 44H12C11.6774 44.0003 11.3596 43.9222 11.0739 43.7724C10.7882 43.6226 10.5432 43.4055 10.36 43.14L38 15.5Z" fill="#FFC20E"/>
<path d="M33.0002 34C33.5525 34 34.0002 33.5523 34.0002 33C34.0002 32.4477 33.5525 32 33.0002 32H15.0002C14.448 32 14.0002 32.4477 14.0002 33C14.0002 33.5523 14.448 34 15.0002 34H33.0002Z" fill="#00416B"/>
<path d="M33.0002 40C33.5525 40 34.0002 39.5523 34.0002 39C34.0002 38.4477 33.5525 38 33.0002 38H15.0002C14.448 38 14.0002 38.4477 14.0002 39C14.0002 39.5523 14.448 40 15.0002 40H33.0002Z" fill="#00416B"/>
<path d="M38.0002 12H32.0002C31.4698 12 30.9611 11.7893 30.586 11.4142C30.211 11.0391 30.0002 10.5304 30.0002 10V4L38.0002 12Z" fill="#CD992B"/>
<path d="M25 28.3335C22.9815 28.3335 21 26.5171 21 24.667H23C23 25.294 23.9683 26.3335 25 26.3335C25.9942 26.3335 27 25.7607 27 24.667C27 23.4365 25.9223 23 25 23V21C27.3174 21 29 22.542 29 24.667C29 26.757 27.28 28.3335 25 28.3335Z" fill="#00416B"/>
<path d="M25 23C23.0683 23 21 21.5269 21 19.3335C21 17.2432 22.72 15.6665 25 15.6665C27.0185 15.6665 29 17.4829 29 19.3335H27C27 18.7066 26.0312 17.6665 25 17.6665C24.0059 17.6665 23 18.2393 23 19.3335C23 20.3662 24.1646 21 25 21V23Z" fill="#00416B"/>
<path d="M25 29.667C24.7348 29.6669 24.4805 29.5615 24.293 29.374C24.1055 29.1865 24.0001 28.9322 24 28.667V28.3335C24 28.0683 24.1054 27.8139 24.2929 27.6264C24.4804 27.4389 24.7348 27.3335 25 27.3335C25.2652 27.3335 25.5196 27.4389 25.7071 27.6264C25.8946 27.8139 26 28.0683 26 28.3335V28.667C25.9999 28.9322 25.8945 29.1865 25.707 29.374C25.5195 29.5615 25.2652 29.6669 25 29.667Z" fill="#00416B"/>
<path d="M25 16.3335C24.7348 16.3335 24.4804 16.2281 24.2929 16.0406C24.1054 15.8531 24 15.5987 24 15.3335V15C24 14.7348 24.1054 14.4804 24.2929 14.2929C24.4804 14.1054 24.7348 14 25 14C25.2652 14 25.5196 14.1054 25.7071 14.2929C25.8946 14.4804 26 14.7348 26 15V15.3335C26 15.5987 25.8946 15.8531 25.7071 16.0406C25.5196 16.2281 25.2652 16.3335 25 16.3335Z" fill="#00416B"/>
</g>
<defs>
<clipPath id="clip0_156_2316">
<rect width="48" height="48" fill="white"/>
</clipPath>
</defs>
</svg>
