<svg width="48" height="48" viewBox="0 0 48 48" fill="none" xmlns="http://www.w3.org/2000/svg">
<g clip-path="url(#clip0_159_2382)">
<path d="M16.0078 43.9961C15.9854 43.9961 15.9631 43.9948 15.9409 43.9922C15.8188 43.978 15.7063 43.9193 15.6248 43.8274C15.5432 43.7354 15.4984 43.6167 15.4988 43.4938C15.4993 43.371 15.5449 43.2526 15.6271 43.1612C15.7093 43.0699 15.8222 43.012 15.9443 42.9986C16.0593 42.9175 16.8198 42.2222 17.0593 37.9673C17.0621 37.9014 17.078 37.8368 17.1062 37.7772C17.1343 37.7176 17.1742 37.6643 17.2234 37.6204C17.2726 37.5765 17.3301 37.5429 17.3925 37.5216C17.4549 37.5004 17.5209 37.4919 17.5867 37.4966C17.6522 37.5003 17.7164 37.5168 17.7756 37.5453C17.8347 37.5738 17.8876 37.6137 17.9314 37.6627C17.9751 37.7117 18.0087 37.7688 18.0303 37.8308C18.052 37.8928 18.0611 37.9584 18.0574 38.024C17.8806 41.1626 17.3933 43.0884 16.6082 43.7481C16.4441 43.8998 16.2311 43.9878 16.0078 43.9961Z" fill="#00416B"/>
<path fill-rule="evenodd" clip-rule="evenodd" d="M17.3388 37.0982C17.3647 37.0645 17.398 37.0372 17.4361 37.0184C17.4742 36.9996 17.5161 36.9898 17.5586 36.9898C17.6009 36.9897 17.6427 36.9995 17.6807 37.0183C17.7186 37.0371 17.7517 37.0644 17.7773 37.0982C18.2041 37.6548 19.1494 38.8872 19.6582 39.5513C19.6896 39.5921 19.709 39.641 19.7142 39.6923C19.7193 39.7436 19.7099 39.7953 19.6871 39.8415C19.6644 39.8878 19.6291 39.9268 19.5853 39.954C19.5415 39.9812 19.491 39.9956 19.4394 39.9956H15.6772C15.6257 39.9956 15.5752 39.9811 15.5314 39.9539C15.4877 39.9267 15.4524 39.8878 15.4296 39.8415C15.4068 39.7953 15.3973 39.7436 15.4024 39.6923C15.4074 39.6411 15.4266 39.5922 15.458 39.5513C15.9673 38.8872 16.9121 37.655 17.3388 37.0982Z" fill="#00416B"/>
<path fill-rule="evenodd" clip-rule="evenodd" d="M17.5586 15.4956C20.0929 15.4969 22.523 16.5043 24.315 18.2963C26.1071 20.0883 27.1144 22.5184 27.1157 25.0528C27.1157 30.3278 21.54 37.7945 17.5586 37.7945C13.5761 37.7945 8.00098 30.3277 8.00098 25.0528C8.00221 22.5183 9.00958 20.0881 10.8017 18.296C12.5939 16.504 15.0242 15.4967 17.5586 15.4956Z" fill="#00416B"/>
<path fill-rule="evenodd" clip-rule="evenodd" d="M17.1233 15.5059C18.9154 15.9067 20.5731 16.809 21.892 18.128C23.7202 19.9563 24.7478 22.4356 24.749 25.0212C24.749 29.7153 20.4203 36.1114 16.6185 37.6675C12.7547 36.6635 8.00098 29.9237 8.00098 25.0529C8.00221 22.5185 9.00958 20.0883 10.8017 18.2962C12.491 16.607 14.7473 15.6151 17.1233 15.5059Z" fill="#0083CA"/>
<path d="M31.8794 44.0023C31.1773 43.9761 30.5102 43.6888 30.0088 43.1966C28.6548 41.9774 27.1206 38.8266 27.4995 30.7386C27.5072 30.6066 27.5663 30.4829 27.664 30.394C27.7617 30.305 27.8904 30.2578 28.0225 30.2625C28.1549 30.2688 28.2795 30.3274 28.3688 30.4255C28.458 30.5235 28.5047 30.653 28.4986 30.7855C28.1226 38.807 29.6748 41.5135 30.6336 42.4129C30.798 42.5956 30.9986 42.7421 31.2227 42.8431C31.4467 42.9441 31.6893 42.9975 31.935 42.9998C32.0656 42.985 32.1967 43.0218 32.3006 43.1022C32.4045 43.1826 32.4728 43.3004 32.4912 43.4305C32.5096 43.5595 32.4764 43.6905 32.3988 43.7952C32.3212 43.8999 32.2054 43.9697 32.0766 43.9896C32.0113 43.9987 31.9454 44.003 31.8794 44.0023Z" fill="#00416B"/>
<path fill-rule="evenodd" clip-rule="evenodd" d="M27.7833 31.0323C27.8091 30.9998 27.8419 30.9736 27.8793 30.9556C27.9167 30.9376 27.9576 30.9282 27.9991 30.9282C28.0406 30.9282 28.0815 30.9376 28.1189 30.9556C28.1563 30.9736 28.1891 30.9998 28.2149 31.0323C28.7569 31.7105 30.1788 33.4903 30.8477 34.3286C30.8802 34.3692 30.9006 34.4181 30.9065 34.4698C30.9123 34.5214 30.9035 34.5736 30.881 34.6205C30.8585 34.6673 30.8232 34.7069 30.7792 34.7345C30.7353 34.7622 30.6843 34.7769 30.6324 34.7769H25.3658C25.3138 34.7769 25.2629 34.7622 25.2189 34.7345C25.1749 34.7068 25.1397 34.6673 25.1172 34.6205C25.0947 34.5736 25.0859 34.5214 25.0917 34.4697C25.0976 34.4181 25.118 34.3692 25.1505 34.3286C25.8194 33.4903 27.2413 31.7105 27.7833 31.0323Z" fill="#FFC20E"/>
<path fill-rule="evenodd" clip-rule="evenodd" d="M27.999 3.99756C31.1812 3.99904 34.2326 5.2638 36.4827 7.51392C38.7328 9.76403 39.9975 12.8154 39.999 15.9976C39.999 22.6206 32.9986 31.9956 27.999 31.9956C22.9995 31.9956 15.999 22.6206 15.999 15.9976C16.0005 12.8154 17.2653 9.76404 19.5154 7.51393C21.7655 5.26382 24.8169 3.99906 27.999 3.99756Z" fill="#FFC20E"/>
<path fill-rule="evenodd" clip-rule="evenodd" d="M33.1671 5.17147C35.0409 7.48275 36.0773 10.3782 36.0786 13.3809C36.0786 20.0499 29.5464 29.2867 24.2654 30.6055C20.1 27.7489 16 21.0686 16 16C16.0015 12.8179 17.2663 9.76648 19.5164 7.51637C21.7665 5.26626 24.8179 4.0015 28 4C29.8052 4.00084 31.5684 4.40825 33.1671 5.17147Z" fill="#FFD400"/>
</g>
<defs>
<clipPath id="clip0_159_2382">
<rect width="48" height="48" fill="white"/>
</clipPath>
</defs>
</svg>
