<svg width="48" height="48" viewBox="0 0 48 48" fill="none" xmlns="http://www.w3.org/2000/svg">
<g clip-path="url(#clip0_154_2215)">
<path d="M33 11H15V37H33V11Z" fill="#FFD400"/>
<path d="M33 15V37H15V33L33 15Z" fill="#FFC20E"/>
<path d="M37.577 18H38.4229C38.8411 18 39.2423 17.8339 39.538 17.5381C39.8338 17.2424 40 16.8413 40 16.423V15.5772C40 15.3701 39.9592 15.165 39.88 14.9736C39.8007 14.7823 39.6846 14.6084 39.5381 14.4619C39.3916 14.3155 39.2178 14.1993 39.0264 14.12C38.8351 14.0408 38.63 14 38.4229 14H37.577C37.1588 14 36.7577 13.8338 36.4619 13.5381C36.1662 13.2424 36 12.8413 36 12.423V11.5772C36 11.3701 36.0408 11.165 36.12 10.9737C36.1992 10.7823 36.3154 10.6084 36.4618 10.462C36.6083 10.3155 36.7821 10.1993 36.9735 10.1201C37.1648 10.0408 37.3699 10 37.577 10H38.1237C38.3794 10.0002 38.6313 9.93845 38.8578 9.82C39.0844 9.70155 39.2789 9.52994 39.4246 9.31987C39.5703 9.1098 39.663 8.86754 39.6946 8.61383C39.7262 8.36013 39.6958 8.10255 39.606 7.86315C39.1842 6.76657 38.4507 5.81735 37.4961 5.13245C37.2593 4.96472 36.9811 4.86532 36.6917 4.84513C36.4023 4.82494 36.1129 4.88474 35.8552 5.01798C35.5975 5.15123 35.3814 5.35278 35.2306 5.6006C35.0797 5.84841 35 6.13294 35 6.42305C35.0002 6.63043 34.9594 6.8358 34.8801 7.02741C34.8008 7.21902 34.6845 7.39312 34.5378 7.53973C34.3912 7.68634 34.217 7.80259 34.0254 7.88183C33.8338 7.96106 33.6284 8.00173 33.421 8.0015C33.1429 8.00115 32.8535 8.0009 32.5755 8.0007C32.1573 8.00037 31.7565 7.83398 31.461 7.53812C31.1656 7.24226 30.9997 6.84116 31 6.42305V5.57725C31 5.37013 30.9593 5.16503 30.88 4.97367C30.8008 4.7823 30.6846 4.60842 30.5381 4.46196C30.3917 4.3155 30.2178 4.19931 30.0265 4.12005C29.8351 4.04079 29.63 3.99999 29.4229 4H27.577C27.3699 4 27.1648 4.0408 26.9735 4.12006C26.7821 4.19933 26.6083 4.31551 26.4618 4.46198C26.3154 4.60844 26.1992 4.78232 26.12 4.97368C26.0407 5.16504 26 5.37013 26 5.57725V6.42305C26 6.8413 25.8338 7.2424 25.538 7.53813C25.2423 7.83386 24.8411 8 24.4229 8H23.5771C23.1589 8 22.7577 7.83386 22.462 7.53813C22.1662 7.2424 22 6.8413 22 6.42305V5.57725C22 5.37013 21.9593 5.16504 21.88 4.97368C21.8008 4.78232 21.6846 4.60844 21.5382 4.46198C21.3917 4.31551 21.2179 4.19933 21.0265 4.12006C20.8352 4.0408 20.6301 4 20.423 4H18.5771C18.37 3.99999 18.1649 4.04079 17.9735 4.12005C17.7822 4.19931 17.6083 4.3155 17.4619 4.46196C17.3154 4.60842 17.1992 4.7823 17.12 4.97367C17.0407 5.16503 17 5.37013 17 5.57725V6.42305C17 6.84129 16.8338 7.24238 16.538 7.53811C16.2423 7.83384 15.8412 7.99999 15.4229 8H14.5771C14.3536 7.98771 14.1365 7.92068 13.945 7.80482C13.7534 7.68896 13.5933 7.52781 13.4786 7.33555L12.6861 5.82405C12.5877 5.61531 12.444 5.43116 12.2654 5.28502C12.0869 5.13887 11.878 5.03443 11.6539 4.97929C11.4298 4.92416 11.1963 4.91973 10.9703 4.96633C10.7443 5.01293 10.5316 5.10938 10.3476 5.24865C9.46999 5.92204 8.79494 6.82427 8.3966 7.85625C8.30576 8.09578 8.27442 8.35378 8.30528 8.60809C8.33614 8.8624 8.42827 9.10542 8.57377 9.31627C8.71927 9.52711 8.91377 9.69949 9.14058 9.81859C9.36739 9.93768 9.61972 9.99993 9.8759 10H10.3375C10.551 9.99122 10.7641 10.0254 10.9641 10.1005C11.1642 10.1755 11.3472 10.29 11.5022 10.4371C11.6572 10.5841 11.7812 10.7608 11.8667 10.9567C11.9522 11.1525 11.9975 11.3635 12 11.5772V12.423C12 12.8413 11.8338 13.2424 11.5381 13.5381C11.2423 13.8338 10.8412 14 10.423 14H9.57715C9.37003 14 9.16494 14.0408 8.97358 14.12C8.78223 14.1993 8.60836 14.3155 8.4619 14.4619C8.31545 14.6084 8.19928 14.7823 8.12003 14.9736C8.04077 15.165 7.99999 15.3701 8 15.5772V16.423C8.00003 16.8413 8.1662 17.2424 8.46198 17.5381C8.75775 17.8339 9.15889 18 9.57715 18H10.423C10.6301 18 10.8352 18.0408 11.0265 18.1201C11.2179 18.1993 11.3917 18.3155 11.5381 18.462C11.6846 18.6084 11.8007 18.7823 11.88 18.9736C11.9592 19.165 12 19.37 12 19.5772V20.423C12 20.8412 11.8338 21.2424 11.5381 21.5381C11.2424 21.8338 10.8412 22 10.423 22H9.57715C9.37004 22 9.16495 22.0408 8.9736 22.12C8.78226 22.1993 8.60839 22.3155 8.46194 22.4619C8.31549 22.6084 8.19931 22.7822 8.12005 22.9736C8.04079 23.1649 8 23.37 8 23.5771V24.423C8.00001 24.6301 8.04081 24.8351 8.12007 25.0265C8.19933 25.2178 8.31551 25.3917 8.46196 25.5381C8.60841 25.6846 8.78227 25.8007 8.97362 25.88C9.16496 25.9592 9.37004 26 9.57715 26H10.423C10.6301 26 10.8352 26.0408 11.0265 26.1201C11.2178 26.1993 11.3917 26.3155 11.5381 26.4619C11.6846 26.6084 11.8007 26.7822 11.88 26.9736C11.9592 27.1649 12 27.37 12 27.5771V28.423C12 28.8412 11.8339 29.2423 11.5381 29.5381C11.2424 29.8338 10.8413 30 10.423 30H9.57715C9.37004 30 9.16495 30.0408 8.9736 30.12C8.78226 30.1993 8.60839 30.3155 8.46194 30.4619C8.31549 30.6084 8.19931 30.7822 8.12005 30.9736C8.04079 31.1649 8 31.37 8 31.5771V32.423C8 32.6301 8.04079 32.8351 8.12006 33.0265C8.19932 33.2178 8.31549 33.3917 8.46194 33.5381C8.6084 33.6846 8.78226 33.8007 8.97361 33.88C9.16496 33.9592 9.37004 34 9.57715 34H10.423C10.8413 34 11.2424 34.1662 11.5381 34.4619C11.8339 34.7577 12 35.1588 12 35.577V36.4229C12 36.63 11.9592 36.8351 11.88 37.0264C11.8007 37.2178 11.6846 37.3916 11.5381 37.5381C11.3917 37.6845 11.2178 37.8007 11.0265 37.8799C10.8352 37.9592 10.6301 38 10.423 38H9.8763C9.62064 37.9998 9.36874 38.0615 9.14218 38.18C8.91561 38.2984 8.72114 38.4701 8.57541 38.6801C8.42969 38.8902 8.33706 39.1324 8.30545 39.3861C8.27385 39.6398 8.30422 39.8974 8.39395 40.1368C8.81581 41.2334 9.54927 42.1826 10.504 42.8675C10.7406 43.0353 11.0189 43.1347 11.3083 43.1549C11.5977 43.1751 11.8871 43.1153 12.1448 42.982C12.4025 42.8488 12.6186 42.6473 12.7694 42.3995C12.9202 42.1517 13 41.8671 13 41.577C12.9999 41.3697 13.0406 41.1643 13.12 40.9726C13.1993 40.781 13.3157 40.6069 13.4624 40.4603C13.609 40.3137 13.7832 40.1975 13.9749 40.1182C14.1665 40.039 14.372 39.9984 14.5794 39.9986C14.8573 39.999 15.1467 39.9992 15.4243 39.9994C15.8425 39.9997 16.2434 40.166 16.5389 40.4619C16.8344 40.7578 17.0003 41.1589 17 41.577V42.4229C17 42.63 17.0408 42.8351 17.12 43.0264C17.1993 43.2178 17.3155 43.3916 17.4619 43.5381C17.6084 43.6845 17.7822 43.8007 17.9736 43.88C18.1649 43.9592 18.37 44 18.5771 44H20.423C20.6301 44 20.8351 43.9592 21.0265 43.8799C21.2178 43.8007 21.3917 43.6845 21.5381 43.5381C21.6846 43.3916 21.8007 43.2178 21.88 43.0264C21.9592 42.8351 22 42.63 22 42.4229V41.577C22 41.1588 22.1662 40.7577 22.4619 40.4619C22.7577 40.1661 23.1588 40 23.5771 40H24.4229C24.8412 40 25.2423 40.1661 25.5381 40.4619C25.8338 40.7577 26 41.1588 26 41.577V42.4229C26 42.63 26.0408 42.8351 26.12 43.0264C26.1993 43.2178 26.3154 43.3916 26.4619 43.5381C26.6083 43.6845 26.7822 43.8007 26.9735 43.8799C27.1649 43.9592 27.3699 44 27.577 44H29.4229C29.63 44 29.8351 43.9592 30.0264 43.88C30.2178 43.8007 30.3916 43.6845 30.5381 43.5381C30.6845 43.3916 30.8007 43.2178 30.88 43.0264C30.9592 42.8351 31 42.63 31 42.4229V41.577C31 41.1588 31.1662 40.7577 31.4619 40.4619C31.7577 40.1662 32.1588 40 32.577 40H33.4229C33.63 40 33.8351 40.0408 34.0264 40.12C34.2178 40.1993 34.3916 40.3154 34.5381 40.4619C34.6845 40.6083 34.8007 40.7822 34.8799 40.9735C34.9592 41.1649 35 41.3699 35 41.577C35 41.8671 35.0798 42.1516 35.2306 42.3994C35.3814 42.6472 35.5975 42.8488 35.8552 42.982C36.1129 43.1152 36.4023 43.175 36.6917 43.1548C36.981 43.1347 37.2593 43.0353 37.496 42.8675C38.4507 42.1826 39.1841 41.2334 39.606 40.1368C39.6958 39.8974 39.7262 39.6399 39.6946 39.3862C39.6631 39.1325 39.5705 38.8903 39.4248 38.6802C39.2791 38.4701 39.0847 38.2985 38.8582 38.18C38.6316 38.0616 38.3797 37.9998 38.1241 38H37.6626C37.449 38.0088 37.236 37.9746 37.0359 37.8996C36.8358 37.8245 36.6529 37.71 36.4978 37.563C36.3428 37.4159 36.2189 37.2392 36.1333 37.0434C36.0478 36.8476 36.0025 36.6366 36 36.4229V35.577C36 35.1588 36.1661 34.7577 36.4619 34.4619C36.7576 34.1662 37.1587 34 37.577 34H38.4229C38.63 34 38.835 33.9592 39.0264 33.88C39.2177 33.8007 39.3916 33.6846 39.5381 33.5381C39.6845 33.3917 39.8007 33.2178 39.8799 33.0265C39.9592 32.8351 40 32.6301 40 32.423V31.5771C40 31.37 39.9592 31.1649 39.8799 30.9736C39.8007 30.7822 39.6845 30.6084 39.5381 30.4619C39.3916 30.3155 39.2177 30.1993 39.0264 30.12C38.835 30.0408 38.63 30 38.4229 30H37.577C37.1587 30 36.7576 29.8338 36.4619 29.5381C36.1661 29.2423 36 28.8412 36 28.423V27.5771C36 27.37 36.0408 27.1649 36.12 26.9736C36.1993 26.7822 36.3154 26.6084 36.4619 26.4619C36.6083 26.3155 36.7822 26.1993 36.9735 26.1201C37.1648 26.0408 37.3699 26 37.577 26H38.4229C38.63 26 38.835 25.9592 39.0264 25.88C39.2177 25.8007 39.3916 25.6846 39.538 25.5381C39.6845 25.3917 39.8007 25.2178 39.8799 25.0265C39.9592 24.8351 40 24.6301 40 24.423V23.5771C40 23.37 39.9592 23.1649 39.8799 22.9736C39.8007 22.7822 39.6845 22.6084 39.5381 22.4619C39.3916 22.3155 39.2177 22.1993 39.0264 22.12C38.835 22.0408 38.63 22 38.4229 22H37.577C37.1588 22 36.7576 21.8338 36.4619 21.5381C36.1662 21.2424 36 20.8412 36 20.423V19.5772C36 19.37 36.0408 19.165 36.12 18.9736C36.1993 18.7823 36.3154 18.6084 36.4619 18.462C36.6083 18.3155 36.7821 18.1993 36.9735 18.1201C37.1648 18.0408 37.3699 18 37.577 18ZM32.8891 34.555C32.8891 35.1444 32.655 35.7096 32.2382 36.1263C31.8215 36.5431 31.2563 36.7772 30.6669 36.7772H17.3334C17.0416 36.7772 16.7526 36.7197 16.483 36.6081C16.2134 36.4964 15.9684 36.3327 15.762 36.1264C15.5557 35.92 15.392 35.675 15.2803 35.4054C15.1686 35.1358 15.1111 34.8468 15.1111 34.555V13.4445C15.1111 13.1527 15.1686 12.8638 15.2803 12.5941C15.392 12.3245 15.5557 12.0796 15.762 11.8732C15.9684 11.6668 16.2134 11.5032 16.483 11.3915C16.7526 11.2798 17.0416 11.2223 17.3334 11.2224H30.6669C31.2563 11.2224 31.8215 11.4565 32.2382 11.8732C32.655 12.29 32.8891 12.8552 32.8891 13.4445V34.555Z" fill="#CD992B"/>
</g>
<defs>
<clipPath id="clip0_154_2215">
<rect width="48" height="48" fill="white"/>
</clipPath>
</defs>
</svg>
