<svg width="48" height="48" viewBox="0 0 48 48" fill="none" xmlns="http://www.w3.org/2000/svg">
<g clip-path="url(#clip0_3120_7000)">
<path d="M26.5598 12.2135C27.2235 11.5646 27.612 10.6874 27.6457 9.76234C27.6701 8.79862 27.3124 7.86401 26.65 7.16037C25.9875 6.45672 25.0734 6.04052 24.105 6.00165C23.3749 5.97972 22.655 6.17647 22.0386 6.56641C21.4222 6.95635 20.9378 7.52149 20.6482 8.18856C20.3586 8.85563 20.2771 9.59386 20.4143 10.3076C20.5515 11.0212 20.9011 11.6775 21.4177 12.1912C21.5106 12.2816 21.5804 12.3929 21.6213 12.5157C21.6622 12.6385 21.673 12.7692 21.6529 12.8969C21.6327 13.0247 21.5821 13.1458 21.5053 13.2502C21.4285 13.3546 21.3278 13.4392 21.2114 13.497C20.4031 13.8836 19.6946 14.4493 19.1404 15.1507C18.5861 15.852 18.2008 16.6704 18.014 17.543C17.9919 17.6598 17.996 17.7799 18.026 17.8949C18.0559 18.0099 18.111 18.1169 18.1873 18.2083C18.2636 18.2997 18.3593 18.3732 18.4674 18.4236C18.5755 18.474 18.6935 18.5001 18.8129 18.5H29.1853C29.3048 18.5004 29.423 18.4745 29.5314 18.4242C29.6398 18.3739 29.7356 18.3004 29.8121 18.209C29.8886 18.1176 29.9439 18.0105 29.9739 17.8954C30.004 17.7802 30.0081 17.6599 29.986 17.543C29.7984 16.6712 29.4128 15.8537 28.8586 15.153C28.3043 14.4524 27.5963 13.8872 26.7886 13.5007C26.6724 13.4458 26.5712 13.3641 26.4932 13.2624C26.4153 13.1606 26.3629 13.0418 26.3405 12.9159C26.3182 12.7899 26.3264 12.6604 26.3645 12.5383C26.4027 12.4161 26.4696 12.3048 26.5598 12.2136" fill="#FFD400"/>
<path d="M30 17.7087C29.9997 17.813 29.9786 17.9162 29.938 18.0125C29.8973 18.1087 29.8379 18.1961 29.7631 18.2695C29.6882 18.343 29.5995 18.4012 29.5019 18.4408C29.4043 18.4803 29.2998 18.5004 29.1943 18.5H20.5L23.3664 13.3207C27.3528 12.3325 26.9819 8.20636 26.8157 7.5C26.8522 7.54155 26.8869 7.5831 26.9198 7.62646C26.9435 7.65536 26.9655 7.68427 26.9856 7.71317C27.0203 7.75833 27.0513 7.8053 27.0824 7.85227C27.1135 7.89924 27.1445 7.94802 27.1737 7.9968C27.4694 8.4939 27.6398 9.05401 27.6707 9.6299C27.6761 9.72979 27.6761 9.8299 27.6707 9.92979C27.6704 9.9811 27.6673 10.0324 27.6615 10.0833C27.6579 10.1393 27.6506 10.1954 27.6433 10.2514C27.636 10.3055 27.6286 10.3597 27.6177 10.4139C27.6181 10.4143 27.6184 10.4147 27.6187 10.4151C27.6189 10.4156 27.619 10.4161 27.619 10.4167C27.619 10.4172 27.6189 10.4177 27.6187 10.4182C27.6184 10.4186 27.6181 10.419 27.6177 10.4194C27.6067 10.4754 27.5958 10.5296 27.583 10.5838C27.5702 10.638 27.5556 10.6921 27.541 10.7463C27.4958 10.9081 27.4383 11.0664 27.3692 11.2197C27.3473 11.2702 27.3235 11.3208 27.298 11.3714C27.2724 11.4202 27.2468 11.469 27.2212 11.5159C27.2208 11.5186 27.2195 11.5212 27.2176 11.5232C27.1902 11.5701 27.161 11.6171 27.1317 11.6641C27.1061 11.7056 27.0787 11.7472 27.0513 11.7887C26.9831 11.8868 26.9099 11.9815 26.8321 12.0723C26.759 12.1572 26.6805 12.2403 26.5983 12.3198C26.5836 12.3361 26.5672 12.3524 26.5544 12.3686C26.5114 12.4192 26.4751 12.475 26.4466 12.5348C26.3973 12.6376 26.371 12.7497 26.3694 12.8635C26.3678 12.9773 26.391 13.0901 26.4375 13.1942C26.4676 13.2613 26.507 13.3239 26.5544 13.3803C26.5672 13.3947 26.58 13.4092 26.5928 13.4218C26.6594 13.4901 26.738 13.5458 26.8248 13.5862C27.6234 13.966 28.3236 14.5214 28.8718 15.2099C29.4199 15.8985 29.8015 16.702 29.9872 17.5588C29.996 17.6083 30.0003 17.6585 30 17.7087Z" fill="#FFC20E"/>
<path d="M23 21.25C23 20.6977 23.4477 20.25 24 20.25C24.5523 20.25 25 20.6977 25 21.25V23.75H36C37.1046 23.75 38 24.6454 38 25.75V28C38 28.5523 37.5523 29 37 29C36.4477 29 36 28.5523 36 28V25.75C26.9346 25.75 33.7496 25.75 25 25.75V28C25 28.5523 24.5523 29 24 29C23.4477 29 23 28.5523 23 28V25.75H12V28C12 28.5523 11.5523 29 11 29C10.4477 29 10 28.5523 10 28L10 25.75C10 24.6454 10.8954 23.75 12 23.75H23V21.25Z" fill="#00416B"/>
<path d="M6.41598 39.392L10.9653 41.439C11.0549 41.4793 11.1519 41.5001 11.2499 41.5C11.348 41.4999 11.4449 41.479 11.5345 41.4385L16.085 39.3828C16.2086 39.327 16.3135 39.2361 16.3872 39.1212C16.4608 39.0062 16.5 38.8721 16.5 38.735V33.7575C16.5 33.6203 16.4607 33.486 16.3869 33.371C16.3131 33.2559 16.208 33.165 16.0842 33.1093L11.5343 31.0611C11.4448 31.0208 11.348 31 11.2501 31C11.1522 31 11.0553 31.0208 10.9659 31.0611L6.41585 33.1093C6.29208 33.165 6.18692 33.2559 6.1131 33.3709C6.03929 33.486 6 33.6203 6 33.7575V38.7437C6 38.881 6.03931 39.0153 6.11314 39.1303C6.18698 39.2454 6.29218 39.3363 6.41598 39.392Z" fill="#FFD400"/>
<path d="M19.416 39.392L23.9653 41.439C24.0549 41.4793 24.1519 41.5001 24.2499 41.5C24.348 41.4999 24.4449 41.479 24.5345 41.4385L29.085 39.3828C29.2086 39.327 29.3135 39.2361 29.3872 39.1212C29.4608 39.0062 29.5 38.8721 29.5 38.735V33.7575C29.5 33.6203 29.4607 33.486 29.3869 33.371C29.3131 33.2559 29.208 33.165 29.0842 33.1093L24.5343 31.0611C24.4448 31.0208 24.348 31 24.2501 31C24.1522 31 24.0553 31.0208 23.9659 31.0611L19.4159 33.1093C19.2921 33.165 19.1869 33.2559 19.1131 33.3709C19.0393 33.486 19 33.6203 19 33.7575V38.7437C19 38.881 19.0393 39.0153 19.1131 39.1303C19.187 39.2454 19.2922 39.3363 19.416 39.392Z" fill="#FFD400"/>
<path d="M31.916 39.392L36.4653 41.439C36.5549 41.4793 36.6519 41.5001 36.7499 41.5C36.848 41.4999 36.9449 41.479 37.0345 41.4385L41.585 39.3828C41.7086 39.327 41.8135 39.2361 41.8872 39.1212C41.9608 39.0062 42 38.8721 42 38.735V33.7575C42 33.6203 41.9607 33.486 41.8869 33.371C41.8131 33.2559 41.708 33.165 41.5842 33.1093L37.0343 31.0611C36.9448 31.0208 36.848 31 36.7501 31C36.6522 31 36.5553 31.0208 36.4659 31.0611L31.9159 33.1093C31.7921 33.165 31.6869 33.2559 31.6131 33.3709C31.5393 33.486 31.5 33.6203 31.5 33.7575V38.7437C31.5 38.881 31.5393 39.0153 31.6131 39.1303C31.687 39.2454 31.7922 39.3363 31.916 39.392Z" fill="#FFD400"/>
<path d="M10.5 42V35.9289L16.5 33.5V39.5624L10.5 42Z" fill="#CD992B"/>
<path d="M23.5 42V35.9289L29.5 33.5V39.5624L23.5 42Z" fill="#CD992B"/>
<path d="M36 42V35.9289L42 33.5V39.5624L36 42Z" fill="#CD992B"/>
<path d="M10.5 42V35.9289L6 33.5V39.5624L10.5 42Z" fill="#FFC20E"/>
<path d="M23.5 42V35.9289L19 33.5V39.5624L23.5 42Z" fill="#FFC20E"/>
<path d="M36 42V35.9289L31.5 33.5V39.5624L36 42Z" fill="#FFC20E"/>
</g>
<defs>
<clipPath id="clip0_3120_7000">
<rect width="48" height="48" fill="white"/>
</clipPath>
</defs>
</svg>
