<svg width="48" height="48" viewBox="0 0 48 48" fill="none" xmlns="http://www.w3.org/2000/svg">
<g clip-path="url(#clip0_157_2353)">
<path d="M22.0003 8C18.4402 8 14.9601 9.05568 12 11.0335C9.0399 13.0114 6.7328 15.8226 5.37042 19.1117C4.00804 22.4008 3.65158 26.02 4.34612 29.5116C5.04065 33.0033 6.75499 36.2106 9.27233 38.7279C11.7897 41.2453 14.997 42.9596 18.4886 43.6541C21.9803 44.3487 25.5995 43.9922 28.8886 42.6298C32.1776 41.2675 34.9888 38.9603 36.9667 36.0003C38.9446 33.0402 40.0003 29.5601 40.0003 26H22.0003V8Z" fill="#FFD400"/>
<path d="M26.0002 4V22H44.0002C44.0002 17.2261 42.1038 12.6477 38.7282 9.27208C35.3525 5.89642 30.7741 4 26.0002 4Z" fill="#00416B"/>
<path d="M40 26C39.9994 29.56 38.9434 33.04 36.9653 35.9999C34.9873 38.9599 32.1761 41.2669 28.8871 42.6294C25.5981 43.9918 21.9789 44.3486 18.4872 43.6545C14.9955 42.9605 11.7879 41.2467 9.27002 38.73L22 26H40Z" fill="#FFC20E"/>
</g>
<defs>
<clipPath id="clip0_157_2353">
<rect width="48" height="48" fill="white"/>
</clipPath>
</defs>
</svg>
