<svg width="48" height="48" viewBox="0 0 48 48" fill="none" xmlns="http://www.w3.org/2000/svg">
<g clip-path="url(#clip0_157_2352)">
<path d="M40.5002 42H11.0002C9.67462 41.9985 8.40373 41.4712 7.46638 40.5339C6.52902 39.5965 6.00175 38.3256 6.00024 37V7C6.00024 6.73478 6.1056 6.48043 6.29314 6.29289C6.48067 6.10536 6.73503 6 7.00024 6C7.26546 6 7.51981 6.10536 7.70735 6.29289C7.89489 6.48043 8.00024 6.73478 8.00024 7V37C8.00112 37.7954 8.31747 38.5579 8.87989 39.1204C9.44231 39.6828 10.2049 39.9991 11.0002 40H40.5002C40.7655 40 41.0198 40.1054 41.2074 40.2929C41.3949 40.4804 41.5002 40.7348 41.5002 41C41.5002 41.2652 41.3949 41.5196 41.2074 41.7071C41.0198 41.8946 40.7655 42 40.5002 42Z" fill="#00416B"/>
<path d="M17.2229 26.0185L12.2229 29.3518C12.1544 29.3975 12.0982 29.4594 12.0594 29.532C12.0206 29.6045 12.0002 29.6856 12.0002 29.7679V35.0002C12.0002 35.1329 12.0529 35.26 12.1467 35.3538C12.2405 35.4476 12.3676 35.5002 12.5002 35.5002H17.5002C17.6329 35.5002 17.76 35.4476 17.8538 35.3538C17.9476 35.26 18.0002 35.1329 18.0002 35.0002V26.4345C18.0002 26.344 17.9757 26.2552 17.9292 26.1776C17.8827 26.1 17.816 26.0364 17.7362 25.9937C17.6564 25.951 17.5665 25.9308 17.4761 25.9352C17.3857 25.9395 17.2982 25.9683 17.2229 26.0185Z" fill="#CD992B"/>
<path d="M25.2229 13.5181L20.2229 16.8514C20.1544 16.897 20.0982 16.9589 20.0594 17.0315C20.0206 17.104 20.0002 17.1851 20.0002 17.2674V34.9998C20.0002 35.1324 20.0529 35.2595 20.1467 35.3533C20.2405 35.4471 20.3676 35.4998 20.5002 35.4998H25.5002C25.6329 35.4998 25.76 35.4471 25.8538 35.3533C25.9476 35.2595 26.0002 35.1324 26.0002 34.9998V13.9341C26.0002 13.8436 25.9757 13.7548 25.9292 13.6771C25.8827 13.5995 25.816 13.5359 25.7362 13.4932C25.6564 13.4505 25.5665 13.4303 25.4761 13.4347C25.3857 13.439 25.2982 13.4679 25.2229 13.5181Z" fill="#FFD400"/>
<path d="M33.2229 16.7505L28.2229 20.0838C28.1544 20.1295 28.0983 20.1913 28.0594 20.2639C28.0206 20.3365 28.0002 20.4175 28.0002 20.4998V34.9998C28.0002 35.1324 28.0529 35.2596 28.1467 35.3533C28.2405 35.4471 28.3676 35.4998 28.5002 35.4998H33.5002C33.6329 35.4998 33.76 35.4471 33.8538 35.3533C33.9476 35.2596 34.0002 35.1324 34.0002 34.9998V17.1665C34.0002 17.076 33.9757 16.9872 33.9292 16.9095C33.8827 16.8319 33.816 16.7684 33.7362 16.7257C33.6564 16.683 33.5665 16.6627 33.4761 16.6671C33.3857 16.6715 33.2982 16.7003 33.2229 16.7505Z" fill="#FFC20E"/>
<path d="M41.2229 6.51806L36.2229 9.85136C36.1544 9.89702 36.0982 9.95888 36.0594 10.0315C36.0206 10.104 36.0002 10.1851 36.0002 10.2674V34.9998C36.0002 35.1324 36.0529 35.2595 36.1467 35.3533C36.2405 35.4471 36.3676 35.4998 36.5002 35.4998H41.5002C41.6329 35.4998 41.76 35.4471 41.8538 35.3533C41.9476 35.2595 42.0002 35.1324 42.0002 34.9998V6.93406C42.0002 6.84356 41.9757 6.75476 41.9292 6.67713C41.8827 6.59949 41.816 6.53594 41.7362 6.49324C41.6564 6.45054 41.5665 6.43029 41.4761 6.43467C41.3857 6.43904 41.2982 6.46786 41.2229 6.51806Z" fill="#FFD400"/>
</g>
<defs>
<clipPath id="clip0_157_2352">
<rect width="48" height="48" fill="white"/>
</clipPath>
</defs>
</svg>
