<svg width="48" height="48" viewBox="0 0 48 48" fill="none" xmlns="http://www.w3.org/2000/svg">
<g clip-path="url(#clip0_159_2383)">
<path d="M9.49999 38.5C9.40711 38.4072 9.33344 38.2969 9.28317 38.1756C9.2329 38.0543 9.20703 37.9243 9.20703 37.793C9.20703 37.6616 9.2329 37.5316 9.28317 37.4103C9.33344 37.289 9.40711 37.1788 9.49999 37.0859L25.414 21.1714L26.8286 22.5859L10.914 38.5C10.8212 38.5929 10.711 38.6665 10.5897 38.7168C10.4684 38.7671 10.3383 38.7929 10.207 38.7929C10.0757 38.7929 9.94567 38.7671 9.82436 38.7168C9.70304 38.6665 9.59282 38.5929 9.49999 38.5Z" fill="#00416B"/>
<path d="M38.8492 10.565L37.4351 9.15089L38.586 7.99999C38.7745 7.81717 39.0273 7.71581 39.2899 7.7178C39.5525 7.7198 39.8037 7.82499 39.9894 8.01067C40.1751 8.19634 40.2803 8.44759 40.2822 8.71017C40.2842 8.97274 40.1829 9.22557 40.0001 9.41404L38.8492 10.565Z" fill="#0083CA"/>
<path d="M38.1421 9.85783C34.3914 6.10712 29.3043 4 24 4C18.6957 4 13.6086 6.10712 9.85791 9.85783C9.85791 9.85783 17.525 12.7275 19.3282 14.5299C21.1304 16.3329 24 23.9999 24 23.9999C24 23.9999 31.314 27.2226 33.1167 29.0253C34.9195 30.8281 38.1421 38.1425 38.1421 38.1425C41.8929 34.3917 44 29.3046 44 24.0002C44 18.6958 41.8929 13.6086 38.1421 9.85783Z" fill="#FFD400"/>
<path d="M38.1421 9.85783L24 23.9999C24 23.9999 21.1309 16.3329 19.3282 14.5299C17.5255 12.7269 9.85815 9.85803 9.85815 9.85803C13.609 6.10749 18.696 4.00049 24.0003 4.00049C29.3045 4.00049 34.3915 6.10749 38.1424 9.85803" fill="#FFC20E"/>
<path d="M38.5313 10.254C32.2063 8.07903 25.2713 8.95403 19.335 14.5372C17.545 12.7345 9.85791 9.85803 9.85791 9.85803C13.6087 6.10749 18.6958 4.00049 24 4.00049C29.3043 4.00049 34.3913 6.10749 38.1421 9.85803C38.273 9.98888 38.4004 10.123 38.5313 10.254Z" fill="#FFD400"/>
<path d="M37.7461 9.46875C39.9211 15.7937 38.6924 23.0825 33.1094 29.0187C34.9111 30.8097 38.1421 38.1423 38.1421 38.1423C41.8926 34.3915 43.9996 29.3045 43.9996 24.0002C43.9996 18.6959 41.8926 13.6089 38.1421 9.8581C38.0112 9.72725 37.8771 9.6003 37.7461 9.46895" fill="#FFC20E"/>
<path d="M15 21C15 20.3078 14.7947 19.6311 14.4101 19.0555C14.0256 18.4799 13.4789 18.0313 12.8394 17.7664C12.1999 17.5015 11.4961 17.4322 10.8172 17.5673C10.1383 17.7023 9.51461 18.0356 9.02513 18.5251C8.53564 19.0146 8.2023 19.6383 8.06725 20.3172C7.9322 20.9961 8.00152 21.6999 8.26642 22.3394C8.53133 22.9789 8.97993 23.5256 9.55551 23.9101C10.1311 24.2947 10.8078 24.5 11.5 24.5C12.4283 24.5 13.3185 24.1313 13.9749 23.4749C14.6313 22.8185 15 21.9283 15 21Z" fill="#FFD400"/>
<path d="M11.5 18.5C11.2348 18.5 10.9804 18.3946 10.7929 18.2071C10.6054 18.0196 10.5 17.7652 10.5 17.5V14.5C10.5 14.2348 10.6054 13.9804 10.7929 13.7929C10.9804 13.6054 11.2348 13.5 11.5 13.5C11.7652 13.5 12.0196 13.6054 12.2071 13.7929C12.3946 13.9804 12.5 14.2348 12.5 14.5V17.5C12.5 17.7652 12.3946 18.0196 12.2071 18.2071C12.0196 18.3946 11.7652 18.5 11.5 18.5Z" fill="#FFD400"/>
<path d="M11.5 28C11.2348 28 10.9804 27.8946 10.7929 27.7071C10.6054 27.5196 10.5 27.2652 10.5 27V24C10.5 23.7348 10.6054 23.4804 10.7929 23.2929C10.9804 23.1054 11.2348 23 11.5 23C11.7652 23 12.0196 23.1054 12.2071 23.2929C12.3946 23.4804 12.5 23.7348 12.5 24V27C12.5 27.2652 12.3946 27.5196 12.2071 27.7071C12.0196 27.8946 11.7652 28 11.5 28Z" fill="#FFD400"/>
<path d="M14 21C14 20.7348 14.1054 20.4804 14.2929 20.2929C14.4804 20.1054 14.7348 20 15 20H18C18.2652 20 18.5196 20.1054 18.7071 20.2929C18.8946 20.4804 19 20.7348 19 21C19 21.2652 18.8946 21.5196 18.7071 21.7071C18.5196 21.8946 18.2652 22 18 22H15C14.7348 22 14.4804 21.8946 14.2929 21.7071C14.1054 21.5196 14 21.2652 14 21Z" fill="#FFD400"/>
<path d="M4 21C4 20.7348 4.10536 20.4804 4.29289 20.2929C4.48043 20.1054 4.73478 20 5 20H8C8.26522 20 8.51957 20.1054 8.70711 20.2929C8.89464 20.4804 9 20.7348 9 21C9 21.2652 8.89464 21.5196 8.70711 21.7071C8.51957 21.8946 8.26522 22 8 22H5C4.73478 22 4.48043 21.8946 4.29289 21.7071C4.10536 21.5196 4 21.2652 4 21Z" fill="#FFD400"/>
<path d="M13.0908 19.1592C12.9033 18.9717 12.798 18.7173 12.798 18.4522C12.798 18.187 12.9033 17.9326 13.0908 17.7451L15.2124 15.6236C15.3047 15.5284 15.4151 15.4525 15.537 15.4004C15.6589 15.3482 15.79 15.3209 15.9226 15.3199C16.0552 15.3188 16.1867 15.3442 16.3094 15.3945C16.4321 15.4448 16.5435 15.519 16.6373 15.6127C16.7311 15.7065 16.8052 15.818 16.8555 15.9407C16.9058 16.0634 16.9312 16.1948 16.9302 16.3274C16.9292 16.46 16.9018 16.5911 16.8496 16.713C16.7975 16.8349 16.7216 16.9453 16.6265 17.0376L14.5054 19.1592C14.3177 19.3465 14.0633 19.4518 13.7981 19.4518C13.5329 19.4518 13.2785 19.3465 13.0908 19.1592Z" fill="#FFD400"/>
<path d="M6.37354 25.8765C6.28066 25.7837 6.20698 25.6735 6.15671 25.5521C6.10644 25.4308 6.08057 25.3008 6.08057 25.1695C6.08057 25.0382 6.10644 24.9081 6.15671 24.7868C6.20698 24.6655 6.28066 24.5553 6.37354 24.4625L8.49464 22.3409C8.68218 22.1533 8.93655 22.0479 9.2018 22.0479C9.46704 22.0478 9.72144 22.1532 9.90902 22.3407C10.0966 22.5282 10.202 22.7826 10.202 23.0478C10.2021 23.3131 10.0967 23.5675 9.90919 23.7551L7.78759 25.8766C7.69477 25.9695 7.58454 26.0432 7.46323 26.0934C7.34192 26.1437 7.21189 26.1696 7.08057 26.1696C6.94925 26.1696 6.81922 26.1437 6.69791 26.0934C6.57659 26.0432 6.46637 25.9695 6.37354 25.8766" fill="#FFD400"/>
<path d="M13.0908 22.3409C13.2785 22.1536 13.5329 22.0483 13.7981 22.0483C14.0633 22.0483 14.3177 22.1536 14.5054 22.3409L16.6265 24.4625C16.8093 24.651 16.9106 24.9038 16.9087 25.1664C16.9067 25.429 16.8015 25.6802 16.6158 25.8659C16.4301 26.0516 16.1789 26.1568 15.9163 26.1587C15.6537 26.1607 15.4009 26.0594 15.2124 25.8766L13.0908 23.7551C12.9033 23.5676 12.798 23.3132 12.798 23.0481C12.798 22.7829 12.9033 22.5285 13.0908 22.341" fill="#FFD400"/>
<path d="M6.37354 15.6235C6.46637 15.5307 6.57659 15.457 6.69791 15.4067C6.81922 15.3564 6.94925 15.3306 7.08057 15.3306C7.21189 15.3306 7.34192 15.3564 7.46323 15.4067C7.58454 15.457 7.69477 15.5307 7.78759 15.6235L9.90919 17.745C10.0967 17.9326 10.202 18.187 10.202 18.4522C10.202 18.7174 10.0965 18.9718 9.90897 19.1593C9.72139 19.3468 9.467 19.4522 9.20176 19.4521C8.93652 19.4521 8.68217 19.3467 8.49464 19.1591L6.37354 17.0375C6.28066 16.9447 6.20698 16.8344 6.15671 16.7131C6.10644 16.5918 6.08057 16.4618 6.08057 16.3305C6.08057 16.1992 6.10644 16.0691 6.15671 15.9478C6.20698 15.8265 6.28066 15.7163 6.37354 15.6234" fill="#FFD400"/>
</g>
<defs>
<clipPath id="clip0_159_2383">
<rect width="48" height="48" fill="white"/>
</clipPath>
</defs>
</svg>
