<svg width="48" height="48" viewBox="0 0 48 48" fill="none" xmlns="http://www.w3.org/2000/svg">
<g clip-path="url(#clip0_155_2271)">
<path d="M24 42.9995V41.57C24.0001 41.5644 24.0024 41.559 24.0064 41.5551C24.0105 41.5512 24.0159 41.549 24.0215 41.5491C33.0283 41.5364 40.3515 33.6882 40.3515 24.0432C40.3515 14.3904 33.0165 6.53731 24 6.53731C14.9902 6.53731 7.65868 14.3791 7.64743 24.0217C7.64755 24.0245 7.64711 24.0273 7.64614 24.0298C7.64516 24.0324 7.64367 24.0348 7.64176 24.0368C7.63984 24.0388 7.63754 24.0404 7.63499 24.0415C7.63245 24.0426 7.6297 24.0432 7.62693 24.0432H6.19693C6.194 24.0432 6.19111 24.0426 6.18841 24.0414C6.18571 24.0403 6.18326 24.0387 6.18121 24.0366C6.17916 24.0345 6.17755 24.032 6.17647 24.0293C6.1754 24.0266 6.17487 24.0236 6.17493 24.0207C6.18608 13.5664 14.1778 5.06396 24 5.06396C33.8286 5.06396 41.8247 13.5781 41.8247 24.043C41.8247 34.5 33.8408 43.0088 24.0225 43.0215C24.0166 43.0216 24.0109 43.0193 24.0067 43.0151C24.0025 43.011 24.0001 43.0054 24 42.9995Z" fill="#FFD400"/>
<path d="M10.8247 29.0025H7.95707C7.21466 29.0003 6.50328 28.7044 5.97831 28.1795C5.45334 27.6545 5.15745 26.9431 5.15527 26.2007V21.7134C5.15744 20.971 5.45332 20.2596 5.97829 19.7346C6.50326 19.2097 7.21465 18.9138 7.95707 18.9116H10.8247C11.5671 18.9138 12.2785 19.2097 12.8035 19.7347C13.3284 20.2596 13.6243 20.971 13.6265 21.7134V26.2007C13.6243 26.9431 13.3284 27.6545 12.8035 28.1795C12.2785 28.7044 11.5671 29.0003 10.8247 29.0025Z" fill="#FFC20E"/>
<path d="M37.1753 19.0835H40.0429C40.7854 19.0856 41.4968 19.3814 42.0219 19.9064C42.5469 20.4314 42.8428 21.1428 42.845 21.8852V26.3725C42.8428 27.115 42.5469 27.8263 42.0219 28.3513C41.497 28.8763 40.7856 29.1721 40.0432 29.1743H37.1753C36.4329 29.1721 35.7215 28.8762 35.1966 28.3513C34.6716 27.8263 34.3757 27.1149 34.3735 26.3725V21.8852C34.3757 21.1428 34.6716 20.4315 35.1966 19.9065C35.7215 19.3816 36.4329 19.0857 37.1753 19.0835Z" fill="#FFC20E"/>
<path d="M13.7617 32.4887H11.8247C11.0986 32.4866 10.4028 32.1973 9.88931 31.6839C9.37581 31.1705 9.08629 30.4748 9.08398 29.7487V18.3374C9.08621 17.6112 9.37568 16.9154 9.88918 16.4019C10.4027 15.8884 11.0985 15.5989 11.8247 15.5967H13.7617C14.4878 15.5989 15.1836 15.8884 15.697 16.4019C16.2104 16.9154 16.4998 17.6112 16.5019 18.3374V29.7485C16.4997 30.4746 16.2103 31.1703 15.6969 31.6837C15.1835 32.197 14.4877 32.4864 13.7617 32.4885" fill="#004169"/>
<path d="M34.2383 15.5967H36.1753C36.9015 15.5989 37.5973 15.8884 38.1108 16.4019C38.6243 16.9154 38.9138 17.6112 38.916 18.3374V29.7485C38.9137 30.4746 38.6242 31.1703 38.1107 31.6837C37.5972 32.1971 36.9014 32.4864 36.1753 32.4885H34.2383C33.5122 32.4864 32.8165 32.197 32.3031 31.6837C31.7897 31.1703 31.5002 30.4746 31.498 29.7485V18.3374C31.5002 17.6112 31.7895 16.9154 32.303 16.4019C32.8164 15.8884 33.5121 15.5989 34.2383 15.5967Z" fill="#004169"/>
<path d="M35.3506 12.3886C34.822 12.3892 34.3135 12.1858 33.9312 11.8208C31.2882 9.24055 27.7446 7.79038 24.051 7.77744C20.3573 7.76449 16.8037 9.18978 14.1426 11.7514C13.7682 12.1186 13.2719 12.3354 12.7481 12.3605C12.2244 12.3856 11.7096 12.2174 11.3018 11.8877C11.0835 11.6997 10.9071 11.4679 10.7839 11.2075C10.6607 10.9471 10.5935 10.6637 10.5865 10.3757C10.5796 10.0877 10.6331 9.80146 10.7436 9.5354C10.8541 9.26934 11.0191 9.0294 11.2281 8.83105C14.631 5.52807 19.1813 3.67198 23.9236 3.6525C28.6658 3.63301 33.2312 5.45164 36.6612 8.72655C36.8799 8.92311 37.056 9.16249 37.1786 9.42986C37.3011 9.69723 37.3674 9.98691 37.3735 10.281C37.3795 10.575 37.3251 10.8672 37.2137 11.1393C37.1023 11.4115 36.9361 11.6579 36.7256 11.8633C36.3479 12.2022 35.8581 12.3894 35.3506 12.3886Z" fill="#004169"/>
<path d="M24.0131 44.3474C23.6235 44.3595 23.2388 44.2578 22.906 44.0548C22.5732 43.8519 22.3067 43.5563 22.1391 43.2044C21.9869 42.8905 21.9162 42.5434 21.9336 42.195C21.951 41.8466 22.0559 41.5082 22.2386 41.2111C22.4214 40.914 22.676 40.6677 22.9791 40.495C23.2821 40.3222 23.6238 40.2287 23.9726 40.2229C24.6871 40.1968 25.3995 40.1283 26.1059 40.0179C26.6107 39.9258 27.1318 40.0196 27.5728 40.2819C28.0139 40.5443 28.345 40.9575 28.5049 41.4451C28.5885 41.7242 28.612 42.018 28.5738 42.3069C28.5357 42.5958 28.4367 42.8734 28.2835 43.1213C28.1303 43.3692 27.9263 43.5819 27.685 43.7452C27.4436 43.9086 27.1704 44.019 26.8833 44.0691C25.9386 44.2256 24.9845 44.3185 24.0274 44.3474H24.0131Z" fill="#004169"/>
</g>
<defs>
<clipPath id="clip0_155_2271">
<rect width="48" height="48" fill="white"/>
</clipPath>
</defs>
</svg>
