<svg width="48" height="48" viewBox="0 0 48 48" fill="none" xmlns="http://www.w3.org/2000/svg">
<g clip-path="url(#clip0_157_2345)">
<path d="M36 42H12C11.4696 42 10.9609 41.7893 10.5858 41.4142C10.2107 41.0391 10 40.5304 10 40V21L24 9L38 21V40C38 40.5304 37.7893 41.0391 37.4142 41.4142C37.0391 41.7893 36.5304 42 36 42Z" fill="#FFD400"/>
<path d="M38 12C38 10.8954 37.1046 10 36 10C34.8954 10 34 10.8954 34 12V18C34 19.1046 34.8954 20 36 20C37.1046 20 38 19.1046 38 18V12Z" fill="#CD992B"/>
<path d="M10 26L24 12L38 26V21L24 7L10 21V26Z" fill="#FFC20E"/>
<path d="M40 24.3432C39.7373 24.3435 39.4771 24.292 39.2344 24.1915C38.9917 24.091 38.7712 23.9435 38.5857 23.7575L25.4141 10.5859C25.0332 10.2221 24.5267 10.0191 24 10.0191C23.4734 10.019 22.9669 10.222 22.586 10.5857L9.4143 23.7575C9.0392 24.1326 8.53046 24.3433 8 24.3433C7.46953 24.3433 6.9608 24.1326 6.5857 23.7575C6.2106 23.3824 5.99988 22.8737 5.99988 22.3432C5.99988 21.8128 6.2106 21.304 6.5857 20.9289L19.7574 7.75727C20.3145 7.20012 20.976 6.75818 21.7039 6.45666C22.4319 6.15515 23.2121 5.99998 24.0001 6C24.788 6.00002 25.5682 6.15524 26.2962 6.4568C27.0241 6.75836 27.6856 7.20034 28.2427 7.75752L41.4143 20.9289C41.694 21.2086 41.8846 21.565 41.9617 21.953C42.0389 22.341 41.9993 22.7432 41.8479 23.1086C41.6965 23.4741 41.4401 23.7865 41.1112 24.0062C40.7823 24.226 40.3955 24.3433 40 24.3432Z" fill="#A65718"/>
<path d="M38 24V40C38.0001 40.2627 37.9484 40.5228 37.8479 40.7655C37.7474 41.0081 37.6001 41.2286 37.4144 41.4144C37.2286 41.6001 37.0081 41.7474 36.7655 41.8479C36.5228 41.9484 36.2627 42.0001 36 42H12L34 20L38 24Z" fill="#FFC20E"/>
<path d="M17 26H20C20.5304 26 21.0391 26.2107 21.4142 26.5858C21.7893 26.9609 22 27.4696 22 28V42H15V28C15 27.4696 15.2107 26.9609 15.5858 26.5858C15.9609 26.2107 16.4696 26 17 26Z" fill="#00416B"/>
<path d="M32 26H27C26.4477 26 26 26.4477 26 27V33C26 33.5523 26.4477 34 27 34H32C32.5523 34 33 33.5523 33 33V27C33 26.4477 32.5523 26 32 26Z" fill="#00416B"/>
<path d="M33 32H26C25.4477 32 25 32.4477 25 33C25 33.5523 25.4477 34 26 34H33C33.5523 34 34 33.5523 34 33C34 32.4477 33.5523 32 33 32Z" fill="#0083CA"/>
</g>
<defs>
<clipPath id="clip0_157_2345">
<rect width="48" height="48" fill="white"/>
</clipPath>
</defs>
</svg>
