<svg width="48" height="48" viewBox="0 0 48 48" fill="none" xmlns="http://www.w3.org/2000/svg">
<path d="M4 16C4 14.8954 4.89543 14 6 14H42C43.1046 14 44 14.8954 44 16V32C44 33.1046 43.1046 34 42 34H6C4.89543 34 4 33.1046 4 32V16Z" fill="#FFD400"/>
<path d="M4 16C4 14.8954 4.89543 14 6 14H42C43.1046 14 44 14.8954 44 16V20H4V16Z" fill="#FFC20E"/>
<path d="M8 30C8 28.8954 8.89543 28 10 28H38C39.1046 28 40 28.8954 40 30V34H8V30Z" fill="#CD992B"/>
<path d="M8 10C8 8.89543 8.89543 8 10 8H38C39.1046 8 40 8.89543 40 10V14H8V10Z" fill="#CD992B"/>
<path d="M10 17C10 16.4477 10.4477 16 11 16H15C15.5523 16 16 16.4477 16 17C16 17.5523 15.5523 18 15 18H11C10.4477 18 10 17.5523 10 17Z" fill="#00416B"/>
<path d="M10.5 30C10.5 29.4477 10.9477 29 11.5 29H36.5C37.0523 29 37.5 29.4477 37.5 30C37.5 30.5523 37.0523 31 36.5 31H11.5C10.9477 31 10.5 30.5523 10.5 30Z" fill="#00416B"/>
<path d="M6 17C6 16.4477 6.44772 16 7 16C7.55228 16 8 16.4477 8 17C8 17.5523 7.55228 18 7 18C6.44772 18 6 17.5523 6 17Z" fill="#0083CA"/>
<path d="M12 8C12 6.89543 12.8954 6 14 6H32L36 10V14H12V8Z" fill="#FFE600"/>
<path d="M36 10L32 6V9C32 9.55228 32.4477 10 33 10H36Z" fill="#FFC20E"/>
<path d="M36 40C36 41.1046 35.1046 42 34 42L14 42C12.8954 42 12 41.1046 12 40L12 30L36 30L36 40Z" fill="#FFE600"/>
<path d="M14 34C14 33.4477 14.4477 33 15 33H33C33.5523 33 34 33.4477 34 34C34 34.5523 33.5523 35 33 35H15C14.4477 35 14 34.5523 14 34Z" fill="#00416B"/>
<path d="M14 38C14 37.4477 14.4477 37 15 37H19C19.5523 37 20 37.4477 20 38C20 38.5523 19.5523 39 19 39H15C14.4477 39 14 38.5523 14 38Z" fill="#00416B"/>
<path d="M22 38C22 37.4477 22.4477 37 23 37H33C33.5523 37 34 37.4477 34 38C34 38.5523 33.5523 39 33 39H23C22.4477 39 22 38.5523 22 38Z" fill="#00416B"/>
</svg>
