<svg width="48" height="48" viewBox="0 0 48 48" fill="none" xmlns="http://www.w3.org/2000/svg">
<g clip-path="url(#clip0_159_2380)">
<path d="M44 35.5V36C44 38 42 40 40 40H8.03003C7.5047 40.0002 6.98449 39.8968 6.49912 39.6958C6.01375 39.4949 5.57273 39.2002 5.20127 38.8288C4.8298 38.4573 4.53517 38.0163 4.3342 37.5309C4.13324 37.0455 4.02988 36.5253 4.03003 36V12C4.02988 11.4747 4.13324 10.9545 4.3342 10.4691C4.53517 9.98372 4.8298 9.5427 5.20127 9.17124C5.57273 8.79977 6.01375 8.50514 6.49912 8.30417C6.98449 8.10321 7.5047 7.99985 8.03003 8H36C37.0606 8.0009 38.0775 8.42262 38.8275 9.17257C39.5774 9.92252 39.9991 10.9394 40 12V32C40 34 42 35.5 44 35.5Z" fill="#FFD400"/>
<path d="M44 35.9997V19.9997C44 19.4744 43.8965 18.9543 43.6955 18.4691C43.4945 17.9838 43.1999 17.5429 42.8285 17.1715C42.4571 16.8 42.0162 16.5054 41.5309 16.3044C41.0456 16.1034 40.5255 16 40.0002 16V36L44 35.9997Z" fill="#CD992B"/>
<path d="M44.0001 35.4999V35.9999C44.0001 37.9999 42.0001 39.9999 40.0001 39.9999H8.43506C16.5001 31.9099 30.8601 17.5949 39.0551 9.41992C39.6671 10.14 40.0022 11.0549 40.0001 11.9999V31.9999C40.0001 33.9999 42.0001 35.4999 44.0001 35.4999Z" fill="#FFC20E"/>
<path d="M19.5002 20H9.00024C8.44796 20 8.00024 20.4477 8.00024 21V34.5C8.00024 35.0523 8.44796 35.5 9.00024 35.5H19.5002C20.0525 35.5 20.5002 35.0523 20.5002 34.5V21C20.5002 20.4477 20.0525 20 19.5002 20Z" fill="#CD992B"/>
<path d="M35.0002 12H9.00024C8.44796 12 8.00024 12.4477 8.00024 13V15C8.00024 15.5523 8.44796 16 9.00024 16H35.0002C35.5525 16 36.0002 15.5523 36.0002 15V13C36.0002 12.4477 35.5525 12 35.0002 12Z" fill="#00416B"/>
<path d="M31.1284 29H25.5002C24.948 29 24.5002 29.4477 24.5002 30C24.5002 30.5523 24.948 31 25.5002 31H31.1284C31.6807 31 32.1284 30.5523 32.1284 30C32.1284 29.4477 31.6807 29 31.1284 29Z" fill="#0083CA"/>
<path d="M35.0002 21H25.5002C24.948 21 24.5002 21.4477 24.5002 22C24.5002 22.5523 24.948 23 25.5002 23H35.0002C35.5525 23 36.0002 22.5523 36.0002 22C36.0002 21.4477 35.5525 21 35.0002 21Z" fill="#00416B"/>
<path d="M35.0002 25H25.5002C24.948 25 24.5002 25.4477 24.5002 26C24.5002 26.5523 24.948 27 25.5002 27H35.0002C35.5525 27 36.0002 26.5523 36.0002 26C36.0002 25.4477 35.5525 25 35.0002 25Z" fill="#00416B"/>
</g>
<defs>
<clipPath id="clip0_159_2380">
<rect width="48" height="48" fill="white"/>
</clipPath>
</defs>
</svg>
