<svg width="48" height="48" viewBox="0 0 48 48" fill="none" xmlns="http://www.w3.org/2000/svg">
<g clip-path="url(#clip0_157_2346)">
<path d="M33.3737 26.3524C32.4009 26.8944 31.6051 26.4268 31.6051 25.3132V22.4555C31.6051 21.3419 30.8092 20.8744 29.8364 21.4165L22.3372 25.5954C21.3645 26.1375 20.493 25.673 20.4007 24.5633L19.1907 10.0177C19.1352 9.47146 18.8815 8.96449 18.4774 8.59269C18.0734 8.22088 17.5472 8.01003 16.9982 8H9.0291C8.47854 8.01098 7.95066 8.22136 7.54347 8.59208C7.13628 8.9628 6.87744 9.46868 6.815 10.0158L4.18925 37.9842C4.16036 38.2407 4.18655 38.5003 4.26607 38.7458C4.34559 38.9913 4.4766 39.2171 4.65035 39.4079C4.82409 39.5987 5.03658 39.7502 5.27359 39.8523C5.5106 39.9545 5.76668 40.0048 6.0247 40H41.9753C42.5118 39.9984 43.0259 39.7846 43.4053 39.4052C43.7846 39.0259 43.9984 38.5118 44 37.9753V22.4555C44 21.3419 43.2041 20.8744 42.2314 21.4164L33.3737 26.3524Z" fill="#FFC20E"/>
<path d="M18.3022 12.2276H7.26778C6.71513 12.2156 6.18916 11.9876 5.80256 11.5925C5.41595 11.1974 5.19946 10.6666 5.19946 10.1138C5.19946 9.56102 5.41595 9.03021 5.80256 8.63511C6.18916 8.24 6.71513 8.01202 7.26778 8H18.3022C18.8549 8.01202 19.3809 8.24 19.7675 8.63511C20.1541 9.03021 20.3706 9.56102 20.3706 10.1138C20.3706 10.6666 20.1541 11.1974 19.7675 11.5925C19.3809 11.9876 18.8549 12.2156 18.3022 12.2276Z" fill="#00416B"/>
<path d="M25.5 36.1084C24.9925 36.1194 24.4931 35.9788 24.0658 35.7048C23.6384 35.4307 23.3024 35.0356 23.1006 34.5697C22.8988 34.1039 22.8403 33.5885 22.9326 33.0893C23.025 32.59 23.264 32.1297 23.6191 31.7668C23.9742 31.404 24.4294 31.1552 24.9265 31.0522C25.4236 30.9492 25.9401 30.9966 26.4102 31.1883C26.8803 31.3801 27.2825 31.7076 27.5657 32.129C27.8489 32.5504 28.0001 33.0466 28 33.5542C28.0071 34.2244 27.7477 34.87 27.2789 35.349C26.8101 35.828 26.1702 36.1011 25.5 36.1084Z" fill="#0083CA"/>
<path d="M37.5 36C36.9925 36.011 36.4931 35.8704 36.0658 35.5964C35.6384 35.3223 35.3024 34.9272 35.1006 34.4613C34.8988 33.9955 34.8403 33.4801 34.9326 32.9808C35.025 32.4816 35.264 32.0212 35.6191 31.6584C35.9742 31.2956 36.4294 31.0468 36.9265 30.9438C37.4236 30.8408 37.9402 30.8882 38.4102 31.08C38.8803 31.2718 39.2826 31.5992 39.5657 32.0206C39.8489 32.442 40.0001 32.9382 40 33.4459C40.0071 34.1161 39.7477 34.7616 39.2789 35.2406C38.81 35.7196 38.1702 35.9927 37.5 36Z" fill="#0083CA"/>
<path d="M12.5 36C11.9924 36.011 11.4931 35.8704 11.0658 35.5964C10.6384 35.3223 10.3024 34.9272 10.1006 34.4613C9.89875 33.9955 9.84029 33.4801 9.93265 32.9808C10.025 32.4816 10.264 32.0212 10.6191 31.6584C10.9742 31.2956 11.4294 31.0468 11.9265 30.9438C12.4236 30.8408 12.9402 30.8882 13.4102 31.08C13.8803 31.2718 14.2826 31.5992 14.5657 32.0206C14.8489 32.442 15.0001 32.9382 15 33.4459C15.0071 34.1161 14.7477 34.7616 14.2789 35.2406C13.8101 35.7196 13.1702 35.9927 12.5 36Z" fill="#00416B"/>
</g>
<defs>
<clipPath id="clip0_157_2346">
<rect width="48" height="48" fill="white"/>
</clipPath>
</defs>
</svg>
