<svg width="48" height="48" viewBox="0 0 48 48" fill="none" xmlns="http://www.w3.org/2000/svg">
<g clip-path="url(#clip0_159_2378)">
<path d="M42.9356 9.39303L38.7725 5.20753C38.6274 5.06131 38.4548 4.94526 38.2647 4.86606C38.0745 4.78687 37.8706 4.74609 37.6646 4.74609C37.4586 4.74609 37.2546 4.78687 37.0645 4.86606C36.8743 4.94526 36.7017 5.06131 36.5566 5.20753L31.5616 10.2246C31.2931 10.4951 31.1319 10.8541 31.1082 11.2345C31.0845 11.615 31.1998 11.9912 31.4327 12.293L29.0596 14.665C29.042 14.6826 29.0303 14.7031 29.0137 14.7216C27.0054 13.713 24.715 13.4128 22.5146 13.87C20.3142 14.3272 18.3329 15.5148 16.8926 17.24C15.2354 17.0401 13.5544 17.2125 11.9723 17.7447C10.3901 18.2769 8.94665 19.1554 7.7471 20.3162C3.05864 25.0034 3.69434 33.2329 9.16115 38.7C14.6279 44.1671 22.8574 44.802 27.5461 40.1145C28.6399 38.9902 29.4833 37.647 30.0209 36.1734C30.5584 34.6997 30.778 33.129 30.6651 31.5644C32.547 30.113 33.8497 28.038 34.3389 25.7123C34.8281 23.3865 34.4718 20.9626 33.334 18.876L35.6494 16.5615L35.7244 16.6377C35.8695 16.7839 36.0421 16.8999 36.2323 16.9791C36.4224 17.0583 36.6264 17.0991 36.8323 17.0991C37.0383 17.0991 37.2423 17.0583 37.4324 16.9791C37.6226 16.8999 37.7952 16.7839 37.9403 16.6377L42.9352 11.6196C43.2292 11.3237 43.3942 10.9235 43.3943 10.5064C43.3943 10.0893 43.2295 9.68906 42.9356 9.39303Z" fill="#FFD400"/>
<path fill-rule="evenodd" clip-rule="evenodd" d="M40.7252 7.1709L42.9356 9.39316C43.2294 9.68918 43.3943 10.0894 43.3943 10.5065C43.3942 10.9236 43.2292 11.3238 42.9352 11.6198L37.9402 16.6378C37.7951 16.784 37.6225 16.9001 37.4324 16.9793C37.2423 17.0585 37.0383 17.0992 36.8323 17.0992C36.6263 17.0992 36.4224 17.0585 36.2322 16.9793C36.0421 16.9001 35.8695 16.784 35.7244 16.6378L35.6494 16.5617L33.334 18.8761C34.4718 20.9627 34.8281 23.3867 34.3389 25.7124C33.8497 28.0382 32.547 30.1132 30.665 31.5646C30.7779 33.1291 30.5584 34.6998 30.0208 36.1735C29.4833 37.6471 28.6399 38.9903 27.5461 40.1147C22.8574 44.8022 14.6279 44.1672 9.16112 38.7001C9.04941 38.5884 8.93971 38.4755 8.83203 38.3615L40.7252 7.1709Z" fill="#FFC20E"/>
<path d="M11.9072 30.1082C12.0593 29.9234 12.2775 29.8052 12.5154 29.779C12.7533 29.7527 12.992 29.8204 13.1807 29.9676L17.7051 34.4926C17.8296 34.6892 17.8834 34.9223 17.8578 35.1535C17.8322 35.3847 17.7287 35.6004 17.5642 35.7649C17.3998 35.9295 17.1842 36.0332 16.953 36.059C16.7218 36.0847 16.4887 36.031 16.292 35.9067L11.7656 31.3813C11.6185 31.1926 11.5509 30.9538 11.5774 30.716C11.6039 30.4782 11.7222 30.2601 11.9072 30.1083" fill="#0083CA"/>
<path d="M24.5517 27.3092C24.5517 26.5181 24.3172 25.7448 23.8777 25.0871C23.4382 24.4293 22.8135 23.9167 22.0826 23.614C21.3518 23.3113 20.5476 23.2321 19.7717 23.3865C18.9959 23.5408 18.2832 23.9218 17.7239 24.4812C17.1646 25.0406 16.7837 25.7533 16.6294 26.5291C16.4751 27.305 16.5544 28.1092 16.8572 28.84C17.16 29.5708 17.6727 30.1954 18.3305 30.6349C18.9883 31.0743 19.7616 31.3088 20.5527 31.3087C21.6133 31.3084 22.6304 30.887 23.3803 30.1369C24.1302 29.3869 24.5516 28.3698 24.5517 27.3092Z" fill="#00416B"/>
<path d="M33.0947 9.42234C33.0946 9.22466 33.0359 9.03144 32.926 8.86713C32.8161 8.70282 32.6599 8.57479 32.4772 8.49923C32.2946 8.42367 32.0936 8.40398 31.8997 8.44264C31.7059 8.48131 31.5278 8.57659 31.3881 8.71644C31.2484 8.85629 31.1533 9.03443 31.1148 9.22834C31.0763 9.42224 31.0962 9.6232 31.172 9.80579C31.2477 9.98839 31.3759 10.1444 31.5403 10.2542C31.7047 10.3639 31.898 10.4224 32.0957 10.4223C32.227 10.4224 32.357 10.3966 32.4783 10.3463C32.5996 10.2961 32.7098 10.2224 32.8026 10.1295C32.8954 10.0366 32.969 9.92638 33.0191 9.80503C33.0692 9.68368 33.0949 9.55363 33.0947 9.42234Z" fill="#00416B"/>
<path d="M36.5127 6.29303C36.5127 6.09517 36.4541 5.90175 36.3442 5.73722C36.2343 5.57269 36.078 5.44445 35.8952 5.3687C35.7125 5.29295 35.5113 5.2731 35.3172 5.31166C35.1232 5.35022 34.9449 5.44546 34.805 5.58533C34.665 5.7252 34.5697 5.90342 34.531 6.09747C34.4923 6.29151 34.5121 6.49267 34.5877 6.6755C34.6634 6.85833 34.7915 7.01462 34.956 7.12462C35.1205 7.23462 35.3139 7.29338 35.5117 7.29348C35.6431 7.29353 35.7733 7.2677 35.8947 7.21744C36.0162 7.16719 36.1265 7.09351 36.2195 7.00061C36.3124 6.9077 36.3861 6.7974 36.4365 6.67599C36.4868 6.55458 36.5127 6.42445 36.5127 6.29303Z" fill="#00416B"/>
<path d="M39.1884 16.04C39.1884 15.8424 39.1298 15.6491 39.02 15.4848C38.9102 15.3204 38.7542 15.1923 38.5716 15.1167C38.389 15.041 38.188 15.0212 37.9941 15.0597C37.8003 15.0982 37.6222 15.1934 37.4824 15.3331C37.3426 15.4728 37.2473 15.6509 37.2087 15.8447C37.1701 16.0386 37.1898 16.2395 37.2654 16.4222C37.341 16.6048 37.469 16.761 37.6333 16.8708C37.7976 16.9807 37.9908 17.0394 38.1885 17.0395C38.4535 17.0393 38.7077 16.934 38.8951 16.7466C39.0826 16.5592 39.1881 16.3051 39.1884 16.04Z" fill="#00416B"/>
<path d="M42.9384 12.4966C42.9384 12.2989 42.8798 12.1057 42.77 11.9413C42.6602 11.777 42.5042 11.6489 42.3216 11.5732C42.139 11.4975 41.938 11.4777 41.7441 11.5162C41.5503 11.5548 41.3722 11.6499 41.2324 11.7896C41.0926 11.9294 40.9973 12.1074 40.9587 12.3013C40.9201 12.4951 40.9398 12.6961 41.0154 12.8787C41.091 13.0614 41.219 13.2175 41.3833 13.3274C41.5476 13.4373 41.7408 13.496 41.9385 13.4961C42.2035 13.4959 42.4577 13.3905 42.6451 13.2031C42.8326 13.0157 42.9381 12.7616 42.9384 12.4966Z" fill="#00416B"/>
</g>
<defs>
<clipPath id="clip0_159_2378">
<rect width="48" height="48" fill="white"/>
</clipPath>
</defs>
</svg>
