<svg width="48" height="48" viewBox="0 0 48 48" fill="none" xmlns="http://www.w3.org/2000/svg">
<g clip-path="url(#clip0_157_2333)">
<path d="M42 34H6C5.46957 34 4.96086 33.7893 4.58579 33.4142C4.21071 33.0391 4 32.5304 4 32V10C4 9.46957 4.21071 8.96086 4.58579 8.58579C4.96086 8.21071 5.46957 8 6 8H42C42.5304 8 43.0391 8.21071 43.4142 8.58579C43.7893 8.96086 44 9.46957 44 10V32C44 32.5304 43.7893 33.0391 43.4142 33.4142C43.0391 33.7893 42.5304 34 42 34Z" fill="#FFD400"/>
<path d="M44 10V32C44.0001 32.2627 43.9484 32.5228 43.8479 32.7655C43.7474 33.0081 43.6001 33.2286 43.4144 33.4144C43.2286 33.6001 43.0081 33.7474 42.7655 33.8479C42.5228 33.9484 42.2627 34.0001 42 34H11L37 8H42C42.2627 7.99993 42.5228 8.05161 42.7655 8.15209C43.0081 8.25258 43.2286 8.39989 43.4144 8.58563C43.6001 8.77136 43.7474 8.99186 43.8479 9.23455C43.9484 9.47723 44.0001 9.73734 44 10Z" fill="#FFC20E"/>
<path d="M16 30C15.7348 30 15.4804 29.8946 15.2929 29.7071C15.1054 29.5196 15 29.2652 15 29V13C15 12.7348 15.1054 12.4804 15.2929 12.2929C15.4804 12.1054 15.7348 12 16 12C16.2652 12 16.5196 12.1054 16.7071 12.2929C16.8946 12.4804 17 12.7348 17 13V29C17 29.2652 16.8946 29.5196 16.7071 29.7071C16.5196 29.8946 16.2652 30 16 30Z" fill="#00416B"/>
<path d="M27 13V17.065C26.3129 17.1471 25.6401 17.322 25 17.585V13C25 12.7348 25.1054 12.4804 25.2929 12.2929C25.4804 12.1054 25.7348 12 26 12C26.2652 12 26.5196 12.1054 26.7071 12.2929C26.8946 12.4804 27 12.7348 27 13Z" fill="#00416B"/>
<path d="M12 30C11.7348 30 11.4804 29.8946 11.2929 29.7071C11.1054 29.5196 11 29.2652 11 29V13C11 12.7348 11.1054 12.4804 11.2929 12.2929C11.4804 12.1054 11.7348 12 12 12C12.2652 12 12.5196 12.1054 12.7071 12.2929C12.8946 12.4804 13 12.7348 13 13V29C13 29.2652 12.8946 29.5196 12.7071 29.7071C12.5196 29.8946 12.2652 30 12 30Z" fill="#00416B"/>
<path d="M8 30C7.73478 30 7.48043 29.8946 7.29289 29.7071C7.10536 29.5196 7 29.2652 7 29V13C7 12.7348 7.10536 12.4804 7.29289 12.2929C7.48043 12.1054 7.73478 12 8 12C8.26522 12 8.51957 12.1054 8.70711 12.2929C8.89464 12.4804 9 12.7348 9 13V29C9 29.2652 8.89464 29.5196 8.70711 29.7071C8.51957 29.8946 8.26522 30 8 30Z" fill="#00416B"/>
<path d="M40 30C39.7348 30 39.4804 29.8946 39.2929 29.7071C39.1054 29.5196 39 29.2652 39 29V13C39 12.7348 39.1054 12.4804 39.2929 12.2929C39.4804 12.1054 39.7348 12 40 12C40.2652 12 40.5196 12.1054 40.7071 12.2929C40.8946 12.4804 41 12.7348 41 13V29C41 29.2652 40.8946 29.5196 40.7071 29.7071C40.5196 29.8946 40.2652 30 40 30Z" fill="#0083CA"/>
<path d="M34.7303 30.2929C34.3398 29.9024 33.7066 29.9024 33.3161 30.2929C32.9256 30.6834 32.9256 31.3166 33.3161 31.7071L37.2289 35.6199C37.6194 36.0104 38.2526 36.0104 38.6431 35.6199C39.0336 35.2294 39.0336 34.5962 38.6431 34.2057L34.7303 30.2929Z" fill="#0083CA"/>
<path d="M36.4393 32.1852L35.2085 33.416C34.7673 33.8572 34.7673 34.5725 35.2085 35.0137L39.8407 39.6459C40.2819 40.0871 40.9972 40.0871 41.4384 39.6459L42.6692 38.4151C43.1103 37.974 43.1103 37.2587 42.6692 36.8175L38.0369 32.1852C37.5957 31.7441 36.8805 31.7441 36.4393 32.1852Z" fill="#00416B"/>
<path d="M28 34C26.22 34 24.4799 33.4722 22.9999 32.4832C21.5198 31.4943 20.3663 30.0887 19.6851 28.4442C19.0039 26.7996 18.8257 24.99 19.1729 23.2442C19.5202 21.4984 20.3774 19.8947 21.636 18.636C22.8947 17.3774 24.4984 16.5202 26.2442 16.1729C27.99 15.8257 29.7996 16.0039 31.4442 16.6851C33.0887 17.3663 34.4943 18.5198 35.4832 19.9999C36.4722 21.4799 37 23.22 37 25C36.9974 27.3861 36.0483 29.6738 34.361 31.361C32.6738 33.0483 30.3861 33.9974 28 34ZM28 18.5364C26.7216 18.5364 25.4719 18.9154 24.409 19.6257C23.3461 20.3359 22.5176 21.3454 22.0284 22.5265C21.5392 23.7075 21.4112 25.0072 21.6606 26.261C21.91 27.5148 22.5256 28.6665 23.4295 29.5705C24.3335 30.4745 25.4852 31.0901 26.739 31.3395C27.9928 31.5889 29.2925 31.4609 30.4735 30.9716C31.6546 30.4824 32.6641 29.654 33.3743 28.591C34.0846 27.5281 34.4637 26.2784 34.4637 25C34.4617 23.2863 33.7801 21.6434 32.5684 20.4316C31.3566 19.2199 29.7137 18.5383 28 18.5364Z" fill="#00416B"/>
<path d="M23 14V18.755C22.0624 19.5033 21.3057 20.4534 20.7863 21.5347C20.2669 22.6159 19.9981 23.8004 20 25C20.0009 25.6176 20.0713 26.2332 20.21 26.835C19.8503 26.6819 19.5437 26.4262 19.3285 26.0999C19.1132 25.7735 18.999 25.3909 19 25V14C19 13.4696 19.2107 12.9609 19.5858 12.5858C19.9609 12.2107 20.4696 12 21 12C21.5304 12 22.0391 12.2107 22.4142 12.5858C22.7893 12.9609 23 13.4696 23 14Z" fill="#00416B"/>
<path d="M33 14V18.755C31.8502 17.8299 30.4648 17.2446 29 17.065V14C29 13.4696 29.2107 12.9609 29.5858 12.5858C29.9609 12.2107 30.4696 12 31 12C31.5304 12 32.0391 12.2107 32.4142 12.5858C32.7893 12.9609 33 13.4696 33 14Z" fill="#00416B"/>
</g>
<defs>
<clipPath id="clip0_157_2333">
<rect width="48" height="48" fill="white"/>
</clipPath>
</defs>
</svg>
