<svg width="48" height="48" viewBox="0 0 48 48" fill="none" xmlns="http://www.w3.org/2000/svg">
<g clip-path="url(#clip0_3103_7560)">
<path fill-rule="evenodd" clip-rule="evenodd" d="M28.5 8C28.5 7.20888 28.2654 6.43552 27.8259 5.77772C27.3864 5.11992 26.7616 4.60723 26.0307 4.30448C25.2998 4.00173 24.4956 3.92252 23.7196 4.07686C22.9437 4.2312 22.231 4.61216 21.6716 5.17157C21.1122 5.73098 20.7312 6.44372 20.5769 7.21964C20.4225 7.99556 20.5017 8.79983 20.8045 9.53074C21.1072 10.2616 21.6199 10.8864 22.2777 11.3259C22.9355 11.7654 23.7089 12 24.5 12C25.5609 12 26.5783 11.5786 27.3284 10.8284C28.0786 10.0783 28.5 9.06087 28.5 8Z" fill="#00416B"/>
<path d="M38.5 9.80023V42.2002C38.4744 42.7023 38.2507 43.1737 37.8781 43.5111C37.5055 43.8485 37.0143 44.0244 36.5122 44.0002H12.4872C11.9852 44.0243 11.4941 43.8483 11.1216 43.5109C10.7491 43.1735 10.5256 42.7022 10.5 42.2002V9.80023C10.5256 9.29827 10.7491 8.82693 11.1216 8.48951C11.4942 8.1521 11.9853 7.97615 12.4873 8.00023H36.5123C37.0334 7.99443 37.5376 8.18549 37.924 8.53523C38.1041 8.69321 38.2487 8.8877 38.348 9.10579C38.4473 9.32388 38.4991 9.56059 38.5 9.80023Z" fill="#FFD400"/>
<path fill-rule="evenodd" clip-rule="evenodd" d="M38.5 9.79979V42.1998C38.4744 42.7018 38.2507 43.1732 37.8781 43.5106C37.5055 43.848 37.0143 44.0239 36.5122 43.9998H12.4872C11.9852 44.0238 11.4941 43.8479 11.1216 43.5105C10.7491 43.173 10.5256 42.7017 10.5 42.1998V37.9978C10.5 37.9978 38.5 9.30479 38.5 9.79979Z" fill="#FFC20E"/>
<path d="M34.5 20C34.5 19.7348 34.3946 19.4804 34.2071 19.2929C34.0196 19.1054 33.7652 19 33.5 19H19.5C19.2348 19 18.9804 19.1054 18.7929 19.2929C18.6054 19.4804 18.5 19.7348 18.5 20C18.5 20.2652 18.6054 20.5196 18.7929 20.7071C18.9804 20.8946 19.2348 21 19.5 21H33.5C33.6313 21 33.7614 20.9742 33.8827 20.924C34.0041 20.8737 34.1143 20.8001 34.2072 20.7072C34.3001 20.6143 34.3737 20.5041 34.424 20.3827C34.4742 20.2614 34.5 20.1313 34.5 20Z" fill="#00416B"/>
<path d="M34.5 24C34.5 23.7348 34.3946 23.4804 34.2071 23.2929C34.0196 23.1054 33.7652 23 33.5 23H19.5C19.2348 23 18.9804 23.1054 18.7929 23.2929C18.6054 23.4804 18.5 23.7348 18.5 24C18.5 24.2652 18.6054 24.5196 18.7929 24.7071C18.9804 24.8946 19.2348 25 19.5 25H33.5C33.6313 25 33.7614 24.9742 33.8827 24.924C34.0041 24.8737 34.1143 24.8001 34.2072 24.7072C34.3001 24.6143 34.3737 24.5041 34.424 24.3827C34.4742 24.2614 34.5 24.1313 34.5 24Z" fill="#00416B"/>
<path d="M34.5 28C34.5 27.7348 34.3946 27.4804 34.2071 27.2929C34.0196 27.1054 33.7652 27 33.5 27H19.5C19.2348 27 18.9804 27.1054 18.7929 27.2929C18.6054 27.4804 18.5 27.7348 18.5 28C18.5 28.2652 18.6054 28.5196 18.7929 28.7071C18.9804 28.8946 19.2348 29 19.5 29H33.5C33.6313 29 33.7614 28.9742 33.8827 28.924C34.0041 28.8737 34.1143 28.8001 34.2072 28.7072C34.3001 28.6143 34.3737 28.5041 34.424 28.3827C34.4742 28.2614 34.5 28.1313 34.5 28Z" fill="#00416B"/>
<path d="M34.5 32C34.5 31.7348 34.3946 31.4804 34.2071 31.2929C34.0196 31.1054 33.7652 31 33.5 31H19.5C19.2348 31 18.9804 31.1054 18.7929 31.2929C18.6054 31.4804 18.5 31.7348 18.5 32C18.5 32.2652 18.6054 32.5196 18.7929 32.7071C18.9804 32.8946 19.2348 33 19.5 33H33.5C33.6313 33 33.7614 32.9742 33.8827 32.924C34.0041 32.8737 34.1143 32.8001 34.2072 32.7072C34.3001 32.6143 34.3737 32.5041 34.424 32.3827C34.4742 32.2614 34.5 32.1313 34.5 32Z" fill="#00416B"/>
<path d="M34.5 36C34.5 35.7348 34.3946 35.4804 34.2071 35.2929C34.0196 35.1054 33.7652 35 33.5 35H19.5C19.2348 35 18.9804 35.1054 18.7929 35.2929C18.6054 35.4804 18.5 35.7348 18.5 36C18.5 36.2652 18.6054 36.5196 18.7929 36.7071C18.9804 36.8946 19.2348 37 19.5 37H33.5C33.6313 37 33.7614 36.9742 33.8827 36.924C34.0041 36.8737 34.1143 36.8001 34.2072 36.7072C34.3001 36.6143 34.3737 36.5041 34.424 36.3827C34.4742 36.2614 34.5 36.1313 34.5 36Z" fill="#00416B"/>
<path d="M16.5 20C16.5 20.5523 16.0523 21 15.5 21C14.9477 21 14.5 20.5523 14.5 20C14.5 19.4477 14.9477 19 15.5 19C16.0523 19 16.5 19.4477 16.5 20Z" fill="#00416B"/>
<path d="M16.5 24C16.5 24.5523 16.0523 25 15.5 25C14.9477 25 14.5 24.5523 14.5 24C14.5 23.4477 14.9477 23 15.5 23C16.0523 23 16.5 23.4477 16.5 24Z" fill="#00416B"/>
<path d="M16.5 28C16.5 28.5523 16.0523 29 15.5 29C14.9477 29 14.5 28.5523 14.5 28C14.5 27.4477 14.9477 27 15.5 27C16.0523 27 16.5 27.4477 16.5 28Z" fill="#00416B"/>
<path d="M16.5 32C16.5 32.5523 16.0523 33 15.5 33C14.9477 33 14.5 32.5523 14.5 32C14.5 31.4477 14.9477 31 15.5 31C16.0523 31 16.5 31.4477 16.5 32Z" fill="#00416B"/>
<path d="M16.5 36C16.5 36.5523 16.0523 37 15.5 37C14.9477 37 14.5 36.5523 14.5 36C14.5 35.4477 14.9477 35 15.5 35C16.0523 35 16.5 35.4477 16.5 36Z" fill="#00416B"/>
<path d="M27.5 5.53516H21.5C20.3954 5.53516 19.5 6.43059 19.5 7.53516V9.53516C19.5 10.6397 20.3954 11.5352 21.5 11.5352H27.5C28.6046 11.5352 29.5 10.6397 29.5 9.53516V7.53516C29.5 6.43059 28.6046 5.53516 27.5 5.53516Z" fill="#00416B"/>
</g>
<defs>
<clipPath id="clip0_3103_7560">
<rect width="48" height="48" fill="white"/>
</clipPath>
</defs>
</svg>
