<svg width="48" height="48" viewBox="0 0 48 48" fill="none" xmlns="http://www.w3.org/2000/svg">
<g clip-path="url(#clip0_156_2321)">
<path fill-rule="evenodd" clip-rule="evenodd" d="M28.5 8C28.5 7.20888 28.2654 6.43552 27.8259 5.77772C27.3864 5.11992 26.7616 4.60723 26.0307 4.30448C25.2998 4.00173 24.4956 3.92252 23.7196 4.07686C22.9437 4.2312 22.231 4.61216 21.6716 5.17157C21.1122 5.73098 20.7312 6.44372 20.5769 7.21964C20.4225 7.99556 20.5017 8.79983 20.8045 9.53074C21.1072 10.2616 21.6199 10.8864 22.2777 11.3259C22.9355 11.7654 23.7089 12 24.5 12C25.5609 12 26.5783 11.5786 27.3284 10.8284C28.0786 10.0783 28.5 9.06087 28.5 8Z" fill="#00416B"/>
<path d="M38.5 9.80023V42.2002C38.4744 42.7023 38.2507 43.1737 37.8781 43.5111C37.5055 43.8485 37.0143 44.0244 36.5122 44.0002H12.4872C11.9852 44.0243 11.4941 43.8483 11.1216 43.5109C10.7491 43.1735 10.5256 42.7022 10.5 42.2002V9.80023C10.5256 9.29827 10.7491 8.82693 11.1216 8.48951C11.4942 8.1521 11.9853 7.97615 12.4873 8.00023H36.5123C37.0334 7.99443 37.5376 8.18549 37.924 8.53523C38.1041 8.69321 38.2487 8.8877 38.348 9.10579C38.4473 9.32388 38.4991 9.56059 38.5 9.80023Z" fill="#FFD400"/>
<path fill-rule="evenodd" clip-rule="evenodd" d="M38.5 9.79979V42.1998C38.4744 42.7018 38.2507 43.1732 37.8781 43.5106C37.5055 43.848 37.0143 44.0239 36.5122 43.9998H12.4872C11.9852 44.0238 11.4941 43.8479 11.1216 43.5105C10.7491 43.173 10.5256 42.7017 10.5 42.1998V37.9978C10.5 37.9978 38.5 9.30479 38.5 9.79979Z" fill="#FFC20E"/>
<path d="M34.5 20.2676C34.5 20.0024 34.3946 19.748 34.2071 19.5605C34.0196 19.3729 33.7652 19.2676 33.5 19.2676H25.5C25.2348 19.2676 24.9804 19.3729 24.7929 19.5605C24.6054 19.748 24.5 20.0024 24.5 20.2676C24.5 20.5328 24.6054 20.7871 24.7929 20.9747C24.9804 21.1622 25.2348 21.2676 25.5 21.2676H33.5C33.6313 21.2676 33.7614 21.2418 33.8827 21.1915C34.0041 21.1413 34.1143 21.0676 34.2072 20.9748C34.3001 20.8819 34.3737 20.7717 34.424 20.6503C34.4742 20.529 34.5 20.3989 34.5 20.2676Z" fill="#00416B"/>
<path d="M34.5 32.2676C34.5 32.0024 34.3946 31.748 34.2071 31.5605C34.0196 31.3729 33.7652 31.2676 33.5 31.2676H25.5C25.2348 31.2676 24.9804 31.3729 24.7929 31.5605C24.6054 31.748 24.5 32.0024 24.5 32.2676C24.5 32.5328 24.6054 32.7871 24.7929 32.9747C24.9804 33.1622 25.2348 33.2676 25.5 33.2676H33.5C33.6313 33.2676 33.7614 33.2418 33.8827 33.1915C34.0041 33.1413 34.1143 33.0676 34.2072 32.9748C34.3001 32.8819 34.3737 32.7717 34.424 32.6503C34.4742 32.529 34.5 32.3989 34.5 32.2676Z" fill="#00416B"/>
<path d="M34.5 26.2676C34.5 26.0024 34.3946 25.748 34.2071 25.5605C34.0196 25.3729 33.7652 25.2676 33.5 25.2676H25.5C25.2348 25.2676 24.9804 25.3729 24.7929 25.5605C24.6054 25.748 24.5 26.0024 24.5 26.2676C24.5 26.5328 24.6054 26.7872 24.7929 26.9747C24.9804 27.1622 25.2348 27.2676 25.5 27.2676H33.5C33.6313 27.2676 33.7614 27.2418 33.8827 27.1915C34.0041 27.1413 34.1143 27.0676 34.2072 26.9748C34.3001 26.8819 34.3737 26.7717 34.424 26.6503C34.4742 26.529 34.5 26.3989 34.5 26.2676Z" fill="#00416B"/>
<path d="M34.5 38.2676C34.5 38.0024 34.3946 37.748 34.2071 37.5605C34.0196 37.3729 33.7652 37.2676 33.5 37.2676H25.5C25.2348 37.2676 24.9804 37.3729 24.7929 37.5605C24.6054 37.748 24.5 38.0024 24.5 38.2676C24.5 38.5328 24.6054 38.7871 24.7929 38.9747C24.9804 39.1622 25.2348 39.2676 25.5 39.2676H33.5C33.6313 39.2676 33.7614 39.2418 33.8827 39.1915C34.0041 39.1413 34.1143 39.0676 34.2072 38.9748C34.3001 38.8819 34.3737 38.7717 34.424 38.6503C34.4742 38.529 34.5 38.3989 34.5 38.2676Z" fill="#00416B"/>
<path fill-rule="evenodd" clip-rule="evenodd" d="M20.992 17.4782L19.5085 15.9937L16.1795 19.3227L14.878 18.0212L13.394 19.5052L14.6955 20.8062L14.6855 20.8167L16.1695 22.3007L16.1795 22.2907L16.1895 22.3007L17.674 20.8167L17.664 20.8062L20.992 17.4782Z" fill="#0083CA"/>
<path d="M27.5 5.53516H21.5C20.3954 5.53516 19.5 6.43059 19.5 7.53516V9.53516C19.5 10.6397 20.3954 11.5352 21.5 11.5352H27.5C28.6046 11.5352 29.5 10.6397 29.5 9.53516V7.53516C29.5 6.43059 28.6046 5.53516 27.5 5.53516Z" fill="#00416B"/>
</g>
<defs>
<clipPath id="clip0_156_2321">
<rect width="48" height="48" fill="white"/>
</clipPath>
</defs>
</svg>
