<svg width="48" height="48" viewBox="0 0 48 48" fill="none" xmlns="http://www.w3.org/2000/svg">
<g clip-path="url(#clip0_155_2246)">
<path d="M8 37.5H12V38C12 38.5304 11.7893 39.0391 11.4142 39.4142C11.0391 39.7893 10.5304 40 10 40C9.46957 40 8.96086 39.7893 8.58579 39.4142C8.21071 39.0391 8 38.5304 8 38V37.5Z" fill="#00416B"/>
<path d="M36 37.5H40V38C40 38.5304 39.7893 39.0391 39.4142 39.4142C39.0391 39.7893 38.5304 40 38 40C37.4696 40 36.9609 39.7893 36.5858 39.4142C36.2107 39.0391 36 38.5304 36 38V37.5Z" fill="#00416B"/>
<path d="M42 8H6C4.89543 8 4 8.89543 4 10V36C4 37.1046 4.89543 38 6 38H42C43.1046 38 44 37.1046 44 36V10C44 8.89543 43.1046 8 42 8Z" fill="#FFC20E"/>
<path d="M27 10H21C20.4477 10 20 10.4477 20 11V19C20 19.5523 20.4477 20 21 20H27C27.5523 20 28 19.5523 28 19V11C28 10.4477 27.5523 10 27 10Z" fill="#00416B"/>
<path d="M25 23C25 22.4477 24.5523 22 24 22C23.4477 22 23 22.4477 23 23C23 23.5523 23.4477 24 24 24C24.5523 24 25 23.5523 25 23Z" fill="#0083CA"/>
<path d="M41 10H32C31.4477 10 31 10.4477 31 11V15C31 15.5523 31.4477 16 32 16H41C41.5523 16 42 15.5523 42 15V11C42 10.4477 41.5523 10 41 10Z" fill="#FFD400"/>
<path d="M16 10H7C6.44772 10 6 10.4477 6 11V15C6 15.5523 6.44772 16 7 16H16C16.5523 16 17 15.5523 17 15V11C17 10.4477 16.5523 10 16 10Z" fill="#FFD400"/>
<path d="M41 18H32C31.4477 18 31 18.4477 31 19V23C31 23.5523 31.4477 24 32 24H41C41.5523 24 42 23.5523 42 23V19C42 18.4477 41.5523 18 41 18Z" fill="#FFD400"/>
<path d="M16 18H7C6.44772 18 6 18.4477 6 19V23C6 23.5523 6.44772 24 7 24H16C16.5523 24 17 23.5523 17 23V19C17 18.4477 16.5523 18 16 18Z" fill="#FFD400"/>
<path d="M41 26H32C31.4477 26 31 26.4477 31 27V35C31 35.5523 31.4477 36 32 36H41C41.5523 36 42 35.5523 42 35V27C42 26.4477 41.5523 26 41 26Z" fill="#FFD400"/>
<path d="M16 26H7C6.44772 26 6 26.4477 6 27V35C6 35.5523 6.44772 36 7 36H16C16.5523 36 17 35.5523 17 35V27C17 26.4477 16.5523 26 16 26Z" fill="#FFD400"/>
<path d="M8.5 20.5C8.5 20.2239 8.27614 20 8 20C7.72386 20 7.5 20.2239 7.5 20.5V21.5C7.5 21.7761 7.72386 22 8 22C8.27614 22 8.5 21.7761 8.5 21.5V20.5Z" fill="#00416B"/>
<path d="M8.5 28C8.5 27.7239 8.27614 27.5 8 27.5C7.72386 27.5 7.5 27.7239 7.5 28V29C7.5 29.2761 7.72386 29.5 8 29.5C8.27614 29.5 8.5 29.2761 8.5 29V28Z" fill="#00416B"/>
<path d="M8.5 12.5C8.5 12.2239 8.27614 12 8 12C7.72386 12 7.5 12.2239 7.5 12.5V13.5C7.5 13.7761 7.72386 14 8 14C8.27614 14 8.5 13.7761 8.5 13.5V12.5Z" fill="#00416B"/>
<path d="M33.5 20.5C33.5 20.2239 33.2761 20 33 20C32.7239 20 32.5 20.2239 32.5 20.5V21.5C32.5 21.7761 32.7239 22 33 22C33.2761 22 33.5 21.7761 33.5 21.5V20.5Z" fill="#00416B"/>
<path d="M33.5 28C33.5 27.7239 33.2761 27.5 33 27.5C32.7239 27.5 32.5 27.7239 32.5 28V29C32.5 29.2761 32.7239 29.5 33 29.5C33.2761 29.5 33.5 29.2761 33.5 29V28Z" fill="#00416B"/>
<path d="M28 26H20C19.4477 26 19 26.4477 19 27V35C19 35.5523 19.4477 36 20 36H28C28.5523 36 29 35.5523 29 35V27C29 26.4477 28.5523 26 28 26Z" fill="#FFD400"/>
<path d="M21.5 28C21.5 27.7239 21.2761 27.5 21 27.5C20.7239 27.5 20.5 27.7239 20.5 28V29C20.5 29.2761 20.7239 29.5 21 29.5C21.2761 29.5 21.5 29.2761 21.5 29V28Z" fill="#00416B"/>
<path d="M33.5 12.5C33.5 12.2239 33.2761 12 33 12C32.7239 12 32.5 12.2239 32.5 12.5V13.5C32.5 13.7761 32.7239 14 33 14C33.2761 14 33.5 13.7761 33.5 13.5V12.5Z" fill="#00416B"/>
</g>
<defs>
<clipPath id="clip0_155_2246">
<rect width="48" height="48" fill="white"/>
</clipPath>
</defs>
</svg>
