<svg width="48" height="48" viewBox="0 0 48 48" fill="none" xmlns="http://www.w3.org/2000/svg">
<g clip-path="url(#clip0_154_2231)">
<path fill-rule="evenodd" clip-rule="evenodd" d="M43.7763 11.7353L39.6054 6V10.0864H31.4326C31.1229 10.0864 30.8259 10.2094 30.6069 10.4283C30.3879 10.6473 30.2648 10.9442 30.2646 11.2539V13.59C30.2648 13.8997 30.3879 14.1966 30.6069 14.4156C30.8259 14.6345 31.1229 14.7575 31.4326 14.7575H39.6054V18.8439L43.7763 13.1086C43.9218 12.9092 44.0001 12.6688 44.0001 12.422C44.0001 12.1753 43.9218 11.9349 43.7763 11.7355" fill="#0083CA"/>
<path d="M7.4895 33.1762L24 40.5107L40.511 33.1462V14.8302L24 7.49219L7.4895 14.8302V33.1762Z" fill="#FFD400"/>
<path d="M24 40.5106V22.1686L40.511 14.8301V33.1466L24 40.5106Z" fill="#CD992B"/>
<path d="M24 40.5106V22.1686L7.4895 14.8301V33.1466L24 40.5106Z" fill="#FFC20E"/>
<path d="M34.6157 17.4877L18.1045 10.1499L13.6392 12.086L30.15 19.4238V24.8984C30.15 25.0519 30.1885 25.2031 30.2621 25.3379C30.3356 25.4728 30.4419 25.587 30.571 25.6701C30.7002 25.7532 30.8482 25.8025 31.0014 25.8136C31.1546 25.8246 31.3081 25.797 31.4479 25.7334L34.0787 24.5342C34.2388 24.4612 34.3746 24.3438 34.4698 24.1958C34.5651 24.0478 34.6157 23.8756 34.6158 23.6997L34.6157 17.4877Z" fill="#00416B"/>
<path fill-rule="evenodd" clip-rule="evenodd" d="M6.48535 33.2925L12.8178 42V35.7959H25.227C25.4599 35.7959 25.6905 35.75 25.9056 35.6609C26.1208 35.5718 26.3162 35.4411 26.4809 35.2764C26.6455 35.1118 26.7761 34.9162 26.8652 34.7011C26.9543 34.4859 27.0001 34.2553 27 34.0224V30.4771C27 30.2442 26.9541 30.0137 26.865 29.7986C26.7759 29.5836 26.6453 29.3882 26.4807 29.2236C26.316 29.059 26.1206 28.9284 25.9055 28.8394C25.6904 28.7503 25.4599 28.7045 25.227 28.7046H12.8178V22.5L6.48535 31.2071C6.26518 31.5101 6.14661 31.8752 6.14661 32.2498C6.14661 32.6244 6.26518 32.9894 6.48535 33.2925Z" fill="#00416B"/>
</g>
<defs>
<clipPath id="clip0_154_2231">
<rect width="48" height="48" fill="white"/>
</clipPath>
</defs>
</svg>
