<svg width="48" height="48" viewBox="0 0 48 48" fill="none" xmlns="http://www.w3.org/2000/svg">
<g clip-path="url(#clip0_159_2370)">
<path d="M28.8201 9.18006C26.7383 6.63269 23.8236 4.90252 20.5904 4.29487C17.3572 3.68722 14.0133 4.24115 11.1487 5.85889C8.2841 7.47664 6.08302 10.0542 4.93383 13.1368C3.78465 16.2194 3.76123 19.6088 4.86772 22.707C5.9742 25.8051 8.13947 28.4129 10.9814 30.07C13.8234 31.7272 17.1593 32.3273 20.4006 31.7644C23.6419 31.2014 26.5802 29.5117 28.697 26.9934C30.8138 24.475 31.973 21.2899 31.9701 18.0001C31.9689 14.7847 30.8561 11.6687 28.8201 9.18006ZM18.0001 28.0301C16.0195 28.0278 14.0841 27.4386 12.4382 26.3369C10.7924 25.2352 9.51002 23.6703 8.75313 21.8401C7.99624 20.0099 7.79879 17.9964 8.18573 16.054C8.57266 14.1117 9.52662 12.3275 10.9271 10.9271C12.3275 9.52661 14.1117 8.57265 16.054 8.18572C17.9964 7.79879 20.0099 7.99624 21.8401 8.75313C23.6704 9.51002 25.2352 10.7924 26.3369 12.4382C27.4386 14.0841 28.0278 16.0195 28.0301 18.0001C28.0406 19.3202 27.7884 20.6292 27.2881 21.8508C26.7877 23.0725 26.0493 24.1824 25.1159 25.1159C24.1824 26.0493 23.0725 26.7877 21.8508 27.2881C20.6292 27.7884 19.3202 28.0406 18.0001 28.0301Z" fill="#FFD400"/>
<path d="M29.2954 26.4828C28.5143 25.7017 27.248 25.7017 26.4669 26.4828C25.6859 27.2638 25.6859 28.5301 26.4669 29.3112L32.1892 35.0334C32.9703 35.8145 34.2366 35.8145 35.0176 35.0334C35.7987 34.2524 35.7987 32.9861 35.0176 32.205L29.2954 26.4828Z" fill="#0083CA"/>
<path d="M31.9066 29.0938L29.0782 31.9222C28.2971 32.7033 28.2971 33.9696 29.0782 34.7506L36.2497 41.9222C37.0308 42.7033 38.2971 42.7033 39.0782 41.9222L41.9066 39.0938C42.6876 38.3127 42.6876 37.0464 41.9066 36.2654L34.735 29.0938C33.954 28.3127 32.6876 28.3127 31.9066 29.0938Z" fill="#00416B"/>
<path d="M31.9701 18.0002C31.9724 20.6427 31.2245 23.2317 29.8134 25.4659C28.4022 27.7002 26.3858 29.4879 23.9987 30.6213C21.6115 31.7546 18.9516 32.187 16.3283 31.8682C13.7051 31.5494 11.2262 30.4924 9.18005 28.8202L11.9851 26.0152C13.9143 27.4677 16.3032 28.1745 18.7121 28.0055C21.1211 27.8365 23.3879 26.8032 25.0955 25.0956C26.8031 23.3881 27.8364 21.1212 28.0054 18.7122C28.1743 16.3033 27.4675 13.9144 26.0151 11.9852L28.8201 9.18018C30.8582 11.6676 31.9714 14.7844 31.9701 18.0002Z" fill="#FFC20E"/>
</g>
<defs>
<clipPath id="clip0_159_2370">
<rect width="48" height="48" fill="white"/>
</clipPath>
</defs>
</svg>
