<svg width="48" height="48" viewBox="0 0 48 48" fill="none" xmlns="http://www.w3.org/2000/svg">
<path d="M9 18C9 16.8954 9.89543 16 11 16H42C43.1046 16 44 16.8954 44 18V35C44 36.1046 43.1046 37 42 37H11C9.89543 37 9 36.1046 9 35V18Z" fill="#CD992B"/>
<path d="M8 27.5V34C8 35.1046 8.89342 36 9.99799 36C12.6872 36 17.289 36 18.6271 36L22.0972 32.3243C17.4373 30.7321 8 27.5 8 27.5Z" fill="#FFD400"/>
<path d="M31.3333 36H17.2361L21.6111 32.5L31.3333 36Z" fill="#FFC20E"/>
<path d="M43 16.5C43 16.5 43 27.1599 43 34.0003C43 35.1049 42.1085 36 41.004 36C37.6912 36 31.4024 36 31.2422 36L21.6111 32.5L43 16.5Z" fill="#FFD400"/>
<path d="M43 16.5L21.6111 32.5L8 27.9062V17C8 15.8954 8.89543 15 10 15H41.5C42.3284 15 43 15.6716 43 16.5Z" fill="#FFE600"/>
<path d="M10 19C10 17.8954 10.8954 17 12 17H26C27.1046 17 28 17.8954 28 19V24C28 25.1046 27.1046 26 26 26H12C10.8954 26 10 25.1046 10 24V19Z" fill="white"/>
<path d="M7 16C7 14.8954 7.89543 14 9 14H40C41.1046 14 42 14.8954 42 16V33C42 34.1046 41.1046 35 40 35H9C7.89543 35 7 34.1046 7 33V16Z" fill="#CD992B"/>
<path d="M6 25.5V32C6 33.1046 6.89342 34 7.99799 34C10.6872 34 15.289 34 16.6271 34L20.0972 30.3243C15.4373 28.7321 6 25.5 6 25.5Z" fill="#FFD400"/>
<path d="M29.3333 34H15.2361L19.6111 30.5L29.3333 34Z" fill="#FFC20E"/>
<path d="M41 14.5C41 14.5 41 25.1599 41 32.0003C41 33.1049 40.1085 34 39.004 34C35.6912 34 29.4024 34 29.2422 34L19.6111 30.5L41 14.5Z" fill="#FFD400"/>
<path d="M41 14.5L19.6111 30.5L6 25.9062V15C6 13.8954 6.89543 13 8 13H39.5C40.3284 13 41 13.6716 41 14.5Z" fill="#FFE600"/>
<path d="M8 17C8 15.8954 8.89543 15 10 15H24C25.1046 15 26 15.8954 26 17V22C26 23.1046 25.1046 24 24 24H10C8.89543 24 8 23.1046 8 22V17Z" fill="white"/>
<path d="M5 14C5 12.8954 5.89543 12 7 12H38C39.1046 12 40 12.8954 40 14V31C40 32.1046 39.1046 33 38 33H7C5.89543 33 5 32.1046 5 31V14Z" fill="#CD992B"/>
<path d="M4 23.5L4 30C4 31.1046 4.89342 32 5.99799 32C8.68721 32 13.289 32 14.6271 32L18.0972 28.3243C13.4373 26.7321 4 23.5 4 23.5Z" fill="#FFD400"/>
<path d="M27.3333 32H13.2361L17.6111 28.5L27.3333 32Z" fill="#FFC20E"/>
<path d="M39 12.5C39 12.5 39 23.1599 39 30.0003C39 31.1049 38.1085 32 37.004 32C33.6912 32 27.4024 32 27.2422 32L17.6111 28.5L39 12.5Z" fill="#FFD400"/>
<path d="M39 12.5L17.6111 28.5L4 23.9062V13C4 11.8954 4.89543 11 6 11H37.5C38.3284 11 39 11.6716 39 12.5Z" fill="#FFE600"/>
<path d="M6 15C6 13.8954 6.89543 13 8 13H22C23.1046 13 24 13.8954 24 15V20C24 21.1046 23.1046 22 22 22H8C6.89543 22 6 21.1046 6 20V15Z" fill="white"/>
<rect x="24" y="27.5" width="13" height="2.5" rx="1.25" fill="#00416B"/>
</svg>
