<svg width="48" height="48" viewBox="0 0 48 48" fill="none" xmlns="http://www.w3.org/2000/svg">
<g clip-path="url(#clip0_4143_3758)">
<path fill-rule="evenodd" clip-rule="evenodd" d="M38.0019 38.1963H10.0303C10.1006 38.6684 10.338 39.0996 10.6992 39.4116C11.0605 39.7235 11.5217 39.8955 11.999 39.8963H38C38.5305 39.8963 39.0393 39.6856 39.4146 39.3106C39.7898 38.9355 40.0007 38.4268 40.001 37.8963V36.1963C40.0011 36.4589 39.9494 36.7189 39.849 36.9615C39.7486 37.2042 39.6014 37.4246 39.4157 37.6104C39.2301 37.7961 39.0097 37.9434 38.7671 38.044C38.5245 38.1445 38.2645 38.1963 38.0019 38.1963Z" fill="#FFE600"/>
<path fill-rule="evenodd" clip-rule="evenodd" d="M38.0019 36.3955H10.037C10.0132 36.5188 10.0009 36.644 10 36.7695V37.8965C10.0026 37.9971 10.0128 38.0973 10.0303 38.1965H38.0019C38.2645 38.1964 38.5246 38.1447 38.7671 38.0441C39.0097 37.9436 39.2301 37.7963 39.4158 37.6105C39.6014 37.4248 39.7486 37.2043 39.849 36.9617C39.9495 36.7191 40.0011 36.459 40.001 36.1965V34.3955C40.0011 34.6581 39.9495 34.9181 39.849 35.1608C39.7486 35.4034 39.6014 35.6239 39.4158 35.8096C39.2301 35.9953 39.0097 36.1427 38.7671 36.2432C38.5246 36.3437 38.2645 36.3955 38.0019 36.3955Z" fill="#CD992B"/>
<path fill-rule="evenodd" clip-rule="evenodd" d="M38.0019 34.7695H11.999C11.5339 34.77 11.0835 34.9326 10.7254 35.2294C10.3673 35.5262 10.1239 35.9386 10.0371 36.3955H38.0021C38.2647 36.3955 38.5247 36.3437 38.7673 36.2432C39.0099 36.1427 39.2303 35.9953 39.4159 35.8096C39.6015 35.6239 39.7488 35.4034 39.8492 35.1608C39.9496 34.9182 40.0012 34.6581 40.0012 34.3955V32.7695C40.0012 33.0321 39.9496 33.2922 39.8492 33.5348C39.7487 33.7775 39.6015 33.998 39.4158 34.1837C39.2302 34.3694 39.0098 34.5167 38.7671 34.6173C38.5245 34.7178 38.2645 34.7695 38.0019 34.7695Z" fill="#FFE600"/>
<path fill-rule="evenodd" clip-rule="evenodd" d="M38.0019 3.6416H16V34.7695H38.0019C38.2645 34.7695 38.5246 34.7177 38.7671 34.6172C39.0097 34.5166 39.2301 34.3693 39.4158 34.1836C39.6014 33.9979 39.7486 33.7774 39.849 33.5348C39.9495 33.2921 40.0011 33.0321 40.001 32.7695V5.64255C40.0011 5.37991 39.9495 5.11981 39.8491 4.87711C39.7487 4.63441 39.6015 4.41387 39.4159 4.22806C39.2303 4.04225 39.0098 3.89483 38.7672 3.79421C38.5246 3.69358 38.2646 3.64173 38.0019 3.6416Z" fill="#FFC20E"/>
<path fill-rule="evenodd" clip-rule="evenodd" d="M38 39.8964H11.999C11.7364 39.8964 11.4764 39.8447 11.2338 39.7441C10.9913 39.6436 10.7709 39.4963 10.5852 39.3105C10.3996 39.1248 10.2524 38.9043 10.1519 38.6617C10.0515 38.4191 9.99988 38.159 9.99997 37.8964V36.7695C9.99988 36.5069 10.0515 36.2469 10.1519 36.0042C10.2524 35.7616 10.3996 35.5411 10.5852 35.3554C10.7709 35.1697 10.9913 35.0224 11.2338 34.9218C11.4764 34.8213 11.7364 34.7695 11.999 34.7695H16V3.6416H9.99997C9.46935 3.6418 8.96051 3.85268 8.58531 4.22789C8.2101 4.60309 7.99922 5.11193 7.99902 5.64255V39.6455C7.99926 40.176 8.21018 40.6847 8.58541 41.0598C8.96064 41.4348 9.46945 41.6455 9.99997 41.6455H38.0019C38.2645 41.6455 38.5245 41.5937 38.7671 41.4932C39.0097 41.3926 39.2301 41.2453 39.4157 41.0596C39.6014 40.8739 39.7486 40.6534 39.849 40.4108C39.9494 40.1681 40.0011 39.9081 40.001 39.6455V37.8964C40.0007 38.427 39.7898 38.9357 39.4146 39.3107C39.0393 39.6858 38.5305 39.8965 38 39.8964Z" fill="#00416B"/>
<path d="M16 36.3955V43.3584C16.0001 43.6234 16.1054 43.8776 16.2927 44.065C16.48 44.2525 16.734 44.358 16.9991 44.3584H17.5C17.7651 44.3582 18.0192 44.2527 18.2065 44.0652C18.3938 43.8777 18.4991 43.6235 18.4991 43.3584V36.3955H16Z" fill="#0083CA"/>
<path fill-rule="evenodd" clip-rule="evenodd" d="M20 12.5H29.6567C30.0082 12.5002 30.3549 12.5792 30.6706 12.7312C30.9863 12.8831 31.2626 13.1039 31.4785 13.3768L35.8349 18.8649C35.9428 18.9975 36.0011 19.1626 36 19.3325C36.0018 19.5005 35.9433 19.6638 35.8349 19.7936L31.4719 25.2817C31.2571 25.5541 30.9819 25.7746 30.6673 25.9266C30.3528 26.0785 30.0071 26.1579 29.6567 26.1585H20L25.4257 19.3325L20 12.5Z" fill="#007BC3"/>
<path fill-rule="evenodd" clip-rule="evenodd" d="M25.4816 19.5244L29.4827 14.3896C29.6551 14.1886 29.7518 13.9335 29.7561 13.6685C29.7561 13.3586 29.6331 13.0614 29.4143 12.8422C29.1954 12.6231 28.8986 12.5 28.5891 12.5H20L25.4816 19.5244Z" fill="#004169"/>
</g>
<defs>
<clipPath id="clip0_4143_3758">
<rect width="48" height="48" fill="white"/>
</clipPath>
</defs>
</svg>
