<svg width="48" height="48" viewBox="0 0 48 48" fill="none" xmlns="http://www.w3.org/2000/svg">
<g clip-path="url(#clip0_157_2338)">
<path d="M17.0002 35L6.71819 38.9547C6.41525 39.0712 6.08849 39.1122 5.76614 39.0743C5.44378 39.0363 5.13552 38.9204 4.86797 38.7366C4.60041 38.5529 4.3816 38.3067 4.23042 38.0195C4.07924 37.7323 4.00024 37.4126 4.00024 37.088V19.2797C4.00024 18.8977 4.10967 18.5236 4.31556 18.2018C4.52146 17.88 4.81522 17.6239 5.16209 17.4638L17.0002 12V35Z" fill="#FFD400"/>
<path d="M17 35L30.5 40V18L17 12V35Z" fill="#FFC20E"/>
<path d="M42.695 35.4835L30.5002 40V18L41.1879 13.25C41.4924 13.1147 41.8259 13.0576 42.1581 13.0839C42.4903 13.1102 42.8107 13.2191 43.0901 13.4007C43.3695 13.5822 43.5991 13.8308 43.758 14.1236C43.917 14.4165 44.0003 14.7444 44.0002 15.0777V33.6081C44.0002 34.0166 43.8752 34.4153 43.6418 34.7505C43.4085 35.0858 43.078 35.3416 42.695 35.4835Z" fill="#FFD400"/>
<path d="M30.5002 8C26.7094 8 23.5002 10.4444 23.5002 15C23.5002 17.7485 27.8169 24.5054 29.6706 27.2802C29.7616 27.4169 29.8849 27.529 30.0297 27.6065C30.1744 27.684 30.336 27.7246 30.5002 27.7246C30.6644 27.7246 30.826 27.684 30.9708 27.6065C31.1155 27.529 31.2388 27.4169 31.3298 27.2802C33.1835 24.5054 37.5002 17.7485 37.5002 15C37.5002 10.4445 34.291 8 30.5002 8ZM30.5002 17.5C29.9069 17.5 29.3269 17.3241 28.8335 16.9944C28.3402 16.6648 27.9557 16.1962 27.7286 15.648C27.5015 15.0999 27.4421 14.4967 27.5579 13.9147C27.6736 13.3328 27.9594 12.7982 28.3789 12.3787C28.7985 11.9591 29.333 11.6734 29.915 11.5576C30.4969 11.4419 31.1001 11.5013 31.6483 11.7284C32.1965 11.9554 32.665 12.3399 32.9947 12.8333C33.3243 13.3266 33.5002 13.9067 33.5002 14.5C33.5002 15.2956 33.1842 16.0587 32.6216 16.6213C32.059 17.1839 31.2959 17.5 30.5002 17.5Z" fill="#00416B"/>
</g>
<defs>
<clipPath id="clip0_157_2338">
<rect width="48" height="48" fill="white"/>
</clipPath>
</defs>
</svg>
