<svg width="48" height="48" viewBox="0 0 48 48" fill="none" xmlns="http://www.w3.org/2000/svg">
<g clip-path="url(#clip0_4144_3772)">
<path fill-rule="evenodd" clip-rule="evenodd" d="M22.7856 16.73H29.554C29.8004 16.7301 30.0434 16.7864 30.2647 16.8947C30.486 17.0029 30.6796 17.1602 30.8309 17.3545L33.8843 21.2638C33.96 21.3583 34.0008 21.4759 34 21.5969C34.0013 21.7166 33.9603 21.8329 33.8843 21.9254L30.8263 25.8347C30.6757 26.0287 30.4828 26.1858 30.2624 26.294C30.0419 26.4023 29.7996 26.4588 29.554 26.4593H22.7856L26.5885 21.5969L22.7856 16.73Z" fill="#007BC3"/>
<path fill-rule="evenodd" clip-rule="evenodd" d="M26.5885 21.5969L29.3644 18.0392C29.484 17.8999 29.5511 17.7232 29.554 17.5396C29.554 17.3249 29.4687 17.1189 29.3169 16.9671C29.1651 16.8153 28.9592 16.73 28.7444 16.73H22.7856L26.5885 21.5969Z" fill="#004169"/>
<path fill-rule="evenodd" clip-rule="evenodd" d="M25.219 31.326H18.4506C18.2035 31.3266 17.9596 31.2706 17.7374 31.1623C17.5153 31.0541 17.3209 30.8964 17.1691 30.7014L14.1157 26.7921C14.0401 26.6977 13.9992 26.5801 14 26.459C13.9988 26.3394 14.0397 26.223 14.1157 26.1306L17.1691 22.2166C17.3211 22.0222 17.5157 21.8653 17.7378 21.7578C17.96 21.6503 18.2038 21.5952 18.4506 21.5967H25.219L21.4161 26.459L25.219 31.326Z" fill="#FFD400"/>
<path fill-rule="evenodd" clip-rule="evenodd" d="M21.4162 26.459L18.6404 30.0167C18.5208 30.156 18.4536 30.3327 18.4507 30.5163C18.4507 30.7311 18.536 30.937 18.6878 31.0888C18.8396 31.2406 19.0456 31.3259 19.2603 31.3259H25.2191L21.4162 26.459Z" fill="#D39E00"/>
<rect x="7" y="8" width="2" height="32" fill="#FFD400"/>
<rect x="39" y="8" width="2" height="32" fill="#FFD400"/>
<rect x="39.5" y="7" width="2" height="32" transform="rotate(90 39.5 7)" fill="#FFD400"/>
<rect x="39.5" y="39" width="2" height="32" transform="rotate(90 39.5 39)" fill="#FFD400"/>
<path d="M38 23C38 22.4477 38.4477 22 39 22H41C41.5523 22 42 22.4477 42 23V25C42 25.5523 41.5523 26 41 26H39C38.4477 26 38 25.5523 38 25V23Z" fill="#004169"/>
<path d="M6 23C6 22.4477 6.44772 22 7 22H9C9.55228 22 10 22.4477 10 23V25C10 25.5523 9.55228 26 9 26H7C6.44772 26 6 25.5523 6 25V23Z" fill="#004169"/>
<path d="M22 7C22 6.44772 22.4477 6 23 6H25C25.5523 6 26 6.44772 26 7V9C26 9.55228 25.5523 10 25 10H23C22.4477 10 22 9.55228 22 9V7Z" fill="#004169"/>
<path d="M37 7C37 5.89543 37.8954 5 39 5H41C42.1046 5 43 5.89543 43 7V9C43 10.1046 42.1046 11 41 11H39C37.8954 11 37 10.1046 37 9V7Z" fill="#004169"/>
<path d="M5 7C5 5.89543 5.89543 5 7 5H9C10.1046 5 11 5.89543 11 7V9C11 10.1046 10.1046 11 9 11H7C5.89543 11 5 10.1046 5 9V7Z" fill="#004169"/>
<path d="M5 39C5 37.8954 5.89543 37 7 37H9C10.1046 37 11 37.8954 11 39V41C11 42.1046 10.1046 43 9 43H7C5.89543 43 5 42.1046 5 41V39Z" fill="#004169"/>
<path d="M37 39C37 37.8954 37.8954 37 39 37H41C42.1046 37 43 37.8954 43 39V41C43 42.1046 42.1046 43 41 43H39C37.8954 43 37 42.1046 37 41V39Z" fill="#004169"/>
<path d="M22 39C22 38.4477 22.4477 38 23 38H25C25.5523 38 26 38.4477 26 39V41C26 41.5523 25.5523 42 25 42H23C22.4477 42 22 41.5523 22 41V39Z" fill="#004169"/>
</g>
<defs>
<clipPath id="clip0_4144_3772">
<rect width="48" height="48" fill="white"/>
</clipPath>
</defs>
</svg>
