<svg width="48" height="48" viewBox="0 0 48 48" fill="none" xmlns="http://www.w3.org/2000/svg">
<path d="M42 24C42 26.2091 40.2091 28 38 28C35.7909 28 34 26.2091 34 24C34 21.7909 35.7909 20 38 20C40.2091 20 42 21.7909 42 24Z" fill="#00416B"/>
<path d="M6 20C6 17.7909 7.79086 16 10 16H16V32.5H10C7.79086 32.5 6 30.7091 6 28.5V20Z" fill="#FFC20E"/>
<path d="M16 16C20 16 27.75 12 32.5 6C35.6756 6 38.25 8.57436 38.25 11.75V36.25C38.25 39.4256 35.6756 42 32.5 42C27.75 36 20 32.5 16 32.5V16Z" fill="#FFD400"/>
<path d="M10 40C10 41.1046 10.8954 42 12 42H14C15.1046 42 16 41.1046 16 40V32.5H10V40Z" fill="#00416B"/>
<path d="M14 16H16V32.5H14V16Z" fill="#0083CA"/>
<path fill-rule="evenodd" clip-rule="evenodd" d="M32.5 6V42C35.6756 42 38.25 39.4256 38.25 36.25V11.75C38.25 8.57436 35.6756 6 32.5 6Z" fill="#FFC20E"/>
</svg>
