<svg width="48" height="48" viewBox="0 0 48 48" fill="none" xmlns="http://www.w3.org/2000/svg">
<g clip-path="url(#clip0_155_2245)">
<path d="M39.8666 33.9998H28.1333L29.0691 27.8584C29.1139 27.613 29.2449 27.3916 29.4385 27.2342C29.6321 27.0768 29.8755 26.9937 30.125 26.9998H37.875C38.1244 26.9936 38.3679 27.0767 38.5615 27.2342C38.7551 27.3916 38.8861 27.613 38.9309 27.8584L39.8666 33.9998Z" fill="#CD992B"/>
<path d="M24.4506 4.40796L25 11.0001H23L23.5494 4.40796C23.5587 4.29489 23.6103 4.18948 23.6938 4.11265C23.7772 4.03581 23.8865 3.99316 24 3.99316C24.1135 3.99316 24.2228 4.03581 24.3062 4.11265C24.3897 4.18948 24.4413 4.29489 24.4506 4.40796Z" fill="#FFC20E"/>
<path d="M39.0034 15.1174L24 17L8.99655 15.1174C8.45649 15.0857 7.94898 14.8488 7.57785 14.4551C7.20671 14.0615 7 13.541 7 13L24 15L41 13C41 13.541 40.7933 14.0615 40.4222 14.4551C40.051 14.8488 39.5435 15.0857 39.0034 15.1174Z" fill="#FFC20E"/>
<path d="M39 14L41 12V13L39 14Z" fill="#FFC20E"/>
<path d="M9 14L7 12V13L9 14Z" fill="#FFC20E"/>
<path d="M26 14L32 11L26 12V14Z" fill="#FFC20E"/>
<path d="M22 14L16 11L22 12V14Z" fill="#FFC20E"/>
<path d="M24 19C26.2091 19 28 16.7614 28 14C28 11.2386 26.2091 9 24 9C21.7909 9 20 11.2386 20 14C20 16.7614 21.7909 19 24 19Z" fill="#FFD400"/>
<path d="M32 19C33.1046 19 34 18.1046 34 17C34 15.8954 33.1046 15 32 15C30.8954 15 30 15.8954 30 17C30 18.1046 30.8954 19 32 19Z" fill="#00416B"/>
<path d="M16 19C17.1046 19 18 18.1046 18 17C18 15.8954 17.1046 15 16 15C14.8954 15 14 15.8954 14 17C14 18.1046 14.8954 19 16 19Z" fill="#00416B"/>
<path d="M32 18C32.5523 18 33 17.5523 33 17C33 16.4477 32.5523 16 32 16C31.4477 16 31 16.4477 31 17C31 17.5523 31.4477 18 32 18Z" fill="#FFD400"/>
<path d="M16 18C16.5523 18 17 17.5523 17 17C17 16.4477 16.5523 16 16 16C15.4477 16 15 16.4477 15 17C15 17.5523 15.4477 18 16 18Z" fill="#FFD400"/>
<path d="M22.3063 12H25.6937C26.0402 12 26.3724 12.1376 26.6174 12.3826C26.8624 12.6276 27 12.9598 27 13.3063C27 13.3855 26.9812 13.4636 26.9451 13.5341C26.909 13.6047 26.8566 13.6656 26.7924 13.7119C26.7281 13.7582 26.6537 13.7886 26.5754 13.8006C26.4971 13.8125 26.4171 13.8057 26.3419 13.7807L25.7045 13.5682C24.5981 13.1994 23.4019 13.1994 22.2955 13.5682L21.6581 13.7807C21.5829 13.8057 21.5029 13.8125 21.4246 13.8006C21.3463 13.7886 21.2719 13.7582 21.2076 13.7119C21.1434 13.6656 21.091 13.6047 21.0549 13.5341C21.0188 13.4636 21 13.3855 21 13.3063C21 13.1348 21.0338 12.9649 21.0994 12.8064C21.1651 12.6479 21.2613 12.5039 21.3826 12.3826C21.5039 12.2613 21.6479 12.1651 21.8064 12.0994C21.9649 12.0338 22.1348 12 22.3063 12Z" fill="#00416B"/>
<path d="M7.75 30C7.8163 30 7.87989 30.0263 7.92678 30.0732C7.97366 30.1201 8 30.1837 8 30.25V33.75C8 33.8163 7.97366 33.8799 7.92678 33.9268C7.87989 33.9737 7.8163 34 7.75 34C7.28587 34 6.84075 33.8156 6.51256 33.4874C6.18437 33.1592 6 32.7141 6 32.25V31.75C6 31.2859 6.18437 30.8408 6.51256 30.5126C6.84075 30.1844 7.28587 30 7.75 30Z" fill="#FFC20E"/>
<path d="M19.25 34C19.1837 34 19.1201 33.9737 19.0732 33.9268C19.0263 33.8799 19 33.8163 19 33.75V30.25C19 30.1837 19.0263 30.1201 19.0732 30.0732C19.1201 30.0263 19.1837 30 19.25 30C19.7141 30 20.1592 30.1844 20.4874 30.5126C20.8156 30.8408 21 31.2859 21 31.75V32.25C21 32.7141 20.8156 33.1592 20.4874 33.4874C20.1592 33.8156 19.7141 34 19.25 34Z" fill="#FFC20E"/>
<path d="M9 24H18C18.5304 24 19.0391 24.2107 19.4142 24.5858C19.7893 24.9609 20 25.4696 20 26V39H7V26C7 25.4696 7.21071 24.9609 7.58579 24.5858C7.96086 24.2107 8.46957 24 9 24Z" fill="#FFC20E"/>
<path d="M9 28H18C18.5304 28 19.0391 28.2107 19.4142 28.5858C19.7893 28.9609 20 29.4696 20 30V39H7V30C7 29.4696 7.21071 28.9609 7.58579 28.5858C7.96086 28.2107 8.46957 28 9 28Z" fill="#FFD400"/>
<path d="M7 38H20V39C20 39.2652 19.8946 39.5196 19.7071 39.7071C19.5196 39.8946 19.2652 40 19 40H8C7.73478 40 7.48043 39.8946 7.29289 39.7071C7.10536 39.5196 7 39.2652 7 39V38Z" fill="#CD992B"/>
<path d="M10 36C10 35.4477 9.55228 35 9 35C8.44772 35 8 35.4477 8 36C8 36.5523 8.44772 37 9 37C9.55228 37 10 36.5523 10 36Z" fill="#0083CA"/>
<path d="M19 36C19 35.4477 18.5523 35 18 35C17.4477 35 17 35.4477 17 36C17 36.5523 17.4477 37 18 37C18.5523 37 19 36.5523 19 36Z" fill="#0083CA"/>
<path d="M8 40H11V41C11 41.2652 10.8946 41.5196 10.7071 41.7071C10.5196 41.8946 10.2652 42 10 42H9C8.73478 42 8.48043 41.8946 8.29289 41.7071C8.10536 41.5196 8 41.2652 8 41V40Z" fill="#00416B"/>
<path d="M16 40H19V41C19 41.2652 18.8946 41.5196 18.7071 41.7071C18.5196 41.8946 18.2652 42 18 42H17C16.7348 42 16.4804 41.8946 16.2929 41.7071C16.1054 41.5196 16 41.2652 16 41V40Z" fill="#00416B"/>
<path d="M20 30H7V34H20V30Z" fill="#00416B"/>
<path d="M34 30V42C33.3029 42 32.606 41.9094 32.1889 41.3639L26.1604 33.4659C26.0812 33.3546 26.0319 33.2249 26.0171 33.0892C26.0022 32.9534 26.0224 32.8161 26.0757 32.6903C26.129 32.5646 26.2136 32.4546 26.3214 32.3708C26.4293 32.287 26.5568 32.2323 26.6918 32.2118L34 30Z" fill="#FFD400"/>
<path d="M41.84 33.4659L35.8115 41.3639C35.3944 41.9094 34.6971 42 34 42V30L41.3084 32.2118C41.4434 32.2322 41.571 32.287 41.6789 32.3708C41.7867 32.4545 41.8714 32.5645 41.9247 32.6903C41.978 32.816 41.9982 32.9533 41.9833 33.0891C41.9685 33.2249 41.9192 33.3546 41.84 33.4659Z" fill="#FFC20E"/>
<path d="M32.3334 25H35.6667C35.9319 25 36.1863 25.1054 36.3738 25.2929C36.5614 25.4804 36.6667 25.7348 36.6667 26V27H31.3334V26C31.3334 25.7348 31.4387 25.4804 31.6263 25.2929C31.8138 25.1054 32.0682 25 32.3334 25Z" fill="#FFD400"/>
<path d="M33.9333 22H34.0667C34.3319 22 34.5863 22.1054 34.7738 22.2929C34.9613 22.4804 35.0667 22.7348 35.0667 23V25H32.9333V23C32.9333 22.7348 33.0387 22.4804 33.2262 22.2929C33.4138 22.1054 33.6681 22 33.9333 22Z" fill="#00416B"/>
<path d="M39.104 29.0002H28.896L29.0667 27.8602C29.1122 27.6149 29.2433 27.3938 29.4368 27.2363C29.6302 27.0788 29.8733 26.9951 30.1227 27.0002H37.8774C38.1268 26.9951 38.3699 27.0788 38.5633 27.2363C38.7567 27.3938 38.8879 27.615 38.9333 27.8602L39.104 29.0002Z" fill="#0083CA"/>
<path d="M34 41C34 41 33 39.0007 31 39C29.0007 38.9994 30 41 27 42H34V41Z" fill="#00416B"/>
<path d="M34 41C34 41 35 39.0007 37 39C38.9992 38.9994 38 41 41 42H34V41Z" fill="#00416B"/>
</g>
<defs>
<clipPath id="clip0_155_2245">
<rect width="48" height="48" fill="white"/>
</clipPath>
</defs>
</svg>
