<svg width="48" height="48" viewBox="0 0 48 48" fill="none" xmlns="http://www.w3.org/2000/svg">
<g clip-path="url(#clip0_157_2339)">
<path d="M44 24C44.0008 25.3981 43.855 26.7923 43.565 28.16V28.17C42.6084 32.6495 40.1438 36.6651 36.5829 39.5462C33.0221 42.4273 28.5805 43.9994 24 44C22.4135 43.9977 20.8328 43.8097 19.29 43.44H19.285C14.9283 42.3793 11.0539 39.8868 8.28241 36.3619C5.51094 32.8371 4.00292 28.4839 4 24C3.99998 22.6993 4.12556 21.4016 4.375 20.125C5.3731 15.0757 8.2797 10.6056 12.49 7.645C12.72 7.485 12.95 7.32501 13.19 7.175C13.7606 6.80386 14.3515 6.46499 14.96 6.16C18.7204 4.25396 22.987 3.58542 27.1502 4.24995C31.3133 4.91447 35.1599 6.87804 38.14 9.86L38.165 9.885C39.7429 11.4652 41.0443 13.299 42.015 15.31C42.6579 16.6303 43.1493 18.0192 43.48 19.45V19.455C43.8265 20.9451 44.001 22.4701 44 24Z" fill="#FFD400"/>
<path d="M44 23.9999C44.0006 27.9555 42.828 31.8225 40.6305 35.1116C38.4331 38.4007 35.3095 40.9642 31.6549 42.4779C28.0003 43.9915 23.9789 44.3873 20.0994 43.6151C16.2198 42.8429 12.6565 40.9375 9.85999 38.1399L38.14 9.85986C40.0001 11.7146 41.4753 13.9185 42.481 16.3451C43.4866 18.7717 44.0028 21.3731 44 23.9999Z" fill="#FFC20E"/>
<path d="M42.015 15.31C41.595 16.05 40.89 17.02 39.995 17.15C39.49 15.745 38.59 14.775 37.215 14.445C38.65 15.64 38.26 16.915 38.21 16.39C37.715 15.81 36.935 15.38 36.47 14.835C35.155 15.495 34.21 17.44 32.58 17.185C30.62 16.875 31.805 14.805 33.835 15.24C33.175 13.47 35.215 12.525 37.215 12.005C37.165 11.735 37.12 11.47 37.07 11.2C36.065 10.855 36.405 11.145 35.335 10.405C36.08 9.36998 37.115 9.36498 38.165 9.88498C39.7428 11.4651 41.0442 13.299 42.015 15.31Z" fill="#CD992B"/>
<path d="M33.114 11.9157L33.0765 12.3642L32.2265 12.9687H31.745V12.5342L32.158 11.8782L32.7175 11.7437L33.114 11.9157Z" fill="#CD992B"/>
<path d="M27.255 29.9701C27.205 29.9701 26.05 33.5551 26.05 33.6351C25.435 34.6101 24.705 34.6301 24.11 35.3451C23.505 36.0701 23.64 37.3301 22.62 38.3551C22.135 38.8351 20.25 39.5801 20.065 39.8551C20.1561 40.3183 20.1355 40.7965 20.005 41.2501C20.295 41.3351 20.565 41.5601 20.95 41.6651C20.71 42.2251 21.1 43.2751 21.33 43.8201C20.6438 43.7296 19.9628 43.6028 19.29 43.4401H19.285C18.7446 42.3971 18.3493 41.2852 18.11 40.1351C17.695 38.5201 16.945 37.3501 16.78 35.9901C16.505 33.6801 16.43 33.0751 15.13 31.5351C14.515 30.8051 13.715 30.0401 13.645 29.1651C13.57 28.1601 14.92 27.1651 14.905 26.8551C14.825 25.5151 12.535 24.5451 11.195 23.7851C10.06 23.1451 9.005 23.6751 7.96 22.8901C7.175 22.2951 6.265 20.1401 6.47 21.1301C5.69186 20.9963 4.9664 20.6482 4.375 20.1251C5.3731 15.0758 8.2797 10.6057 12.49 7.64512C13.2489 8.12652 14.1371 8.36384 15.035 8.32512C14.5733 8.09511 14.082 7.9302 13.575 7.83512C13.345 7.20512 14.19 7.28012 13.19 7.17512C13.7606 6.80397 14.3515 6.46511 14.96 6.16012C15.04 6.15012 15.12 6.14512 15.205 6.14012C15.72 6.11512 16.6 7.09512 17.55 6.75512C16.745 7.28012 17.93 7.26512 17.755 7.24012C18.38 6.61012 18.535 6.46512 19.745 6.71012C18.985 7.70012 24.035 6.38512 24.11 8.17012C24.3 8.12512 24.49 8.08012 24.68 8.03012C23.14 8.47012 23.075 9.83012 21.085 8.98012C21.65 8.84012 19.76 8.83512 19.755 9.08512C19.4197 9.2582 19.0658 9.39241 18.7 9.48512C18.81 9.59012 19.155 10.1601 19.225 10.1051C19.5868 9.84026 20.0039 9.66077 20.445 9.58012C21.15 9.46512 21.79 9.70512 21.64 10.7801C22.045 10.5501 22.705 10.5751 23.155 10.2201C25.33 12.0051 25.065 11.8051 25.33 12.0051C24.285 12.0301 22.485 13.7951 22.89 12.8151C22.175 13.1151 21.035 13.3851 21.305 13.4651C19.915 13.8551 14.94 17.0051 15.56 19.3301C14.7 18.6501 11.585 18.5551 10.255 19.8001C8.26 21.6601 12.385 22.2401 12.11 22.7651C14.245 22.6701 12.555 24.1151 13.45 24.6301C14.665 25.3201 14.685 24.6301 15.69 24.5401C16.555 24.4651 18.665 24.8701 19.27 24.3751C20.255 25.3951 21.505 25.6101 22.305 26.3701C22.83 26.8651 22.295 27.6251 22.865 27.9501C23.235 28.1651 23.75 28.1801 24.11 28.4201C25.135 29.1051 26.9 28.3901 27.255 29.9701Z" fill="#CD992B"/>
<path d="M44 23.9999C44.0008 25.398 43.855 26.7923 43.565 28.1599V28.1699C42.2951 31.1023 40.684 33.8747 38.765 36.4299C37.805 35.1849 37.85 35.4149 37.545 33.8699C37.325 32.7349 37.505 32.6999 37.525 31.5949C37.545 30.6499 37.815 31.2399 37.645 30.3549C37.51 29.6749 36.725 29.1249 36.575 28.4449C36.525 28.2049 36.65 27.5699 36.59 27.4349C36.365 26.9449 36.345 26.7949 36.365 26.7599C36.315 26.7549 36.16 26.6699 35.715 26.2799C33.52 24.3549 33.755 27.8349 31.125 26.6599C29.17 25.7899 28.83 23.2199 29.61 21.7749C28.365 21.4549 29.475 20.8999 29.99 20.3749C30.395 19.9649 31.055 19.7799 31.44 19.3549C31.685 19.0799 31.205 18.3749 31.57 18.1399C32.495 17.5449 32.705 18.3599 33.62 18.1099C34.405 17.8949 35.26 17.2649 36.325 17.0449C35.76 18.8199 37.98 18.4849 38.96 19.3299C38.805 19.0849 38.86 18.7849 38.765 18.3049C40.4262 18.0501 42.1208 18.4616 43.48 19.4499V19.4549C43.8266 20.9451 44.001 22.47 44 23.9999Z" fill="#CD992B"/>
<path d="M44 24.0004C44.0008 25.3985 43.855 26.7928 43.565 28.1604V28.1704C42.2958 31.1047 40.6847 33.8789 38.765 36.4354C37.805 35.1854 37.85 35.4154 37.545 33.8704C37.325 32.7354 37.51 32.6954 37.525 31.5954C37.545 30.6504 37.815 31.2454 37.645 30.3554C37.515 29.6704 36.72 29.1254 36.575 28.4454C36.525 28.2054 36.65 27.5704 36.59 27.4354C36.36 26.9304 36.345 26.7904 36.365 26.7604C36.1197 26.641 35.8978 26.4784 35.71 26.2804C33.52 24.3554 33.76 27.8354 31.125 26.6604C29.17 25.7854 28.835 23.2204 29.61 21.7754C28.37 21.4604 29.475 20.9004 29.99 20.3754C30.395 19.9654 31.055 19.7804 31.44 19.3554C31.69 19.0804 31.205 18.3754 31.57 18.1404C32.495 17.5454 32.7 18.3604 33.62 18.1104C34.405 17.8954 35.26 17.2654 36.325 17.0454C35.76 18.8154 37.98 18.4854 38.96 19.3304C38.805 19.0904 38.86 18.7904 38.765 18.3054C40.4263 18.0469 42.1223 18.4587 43.48 19.4504V19.4554C43.8265 20.9455 44.001 22.4705 44 24.0004Z" fill="#A65718"/>
<path d="M42.015 15.3102C41.595 16.0502 40.89 17.0202 39.995 17.1452C39.8063 16.4923 39.4507 15.8999 38.9632 15.4264C38.4757 14.9529 37.8731 14.6147 37.215 14.4452C38.65 15.6452 38.26 16.9202 38.215 16.3852C37.715 15.8102 36.935 15.3802 36.47 14.8352C35.16 15.4952 34.21 17.4402 32.575 17.1852C31.82 17.0652 31.53 16.6802 31.585 16.2802L32.56 15.3002C32.9717 15.1649 33.4124 15.1441 33.835 15.2402C33.6738 14.8612 33.6667 14.4344 33.815 14.0502L35.055 12.8052L35.065 12.8002C35.747 12.4495 36.4689 12.1826 37.215 12.0052C37.165 11.7402 37.115 11.4652 37.07 11.2002C36.95 11.1652 36.845 11.1302 36.76 11.1052L38.04 9.8252C38.08 9.8452 38.125 9.8652 38.165 9.8852C39.7429 11.4654 41.0443 13.2992 42.015 15.3102Z" fill="#A65718"/>
<path d="M27.255 29.9701C27.205 29.9701 26.045 33.5601 26.045 33.6351C25.44 34.6101 24.7 34.6351 24.11 35.3451C23.505 36.0701 23.645 37.3301 22.62 38.3551C22.135 38.8351 20.25 39.5801 20.065 39.8551C20.1561 40.318 20.1372 40.7958 20.01 41.2501C20.295 41.3301 20.57 41.5601 20.95 41.6651C20.705 42.2251 21.09 43.2701 21.33 43.8201C20.6421 43.7296 19.9595 43.6028 19.285 43.4401C18.7424 42.3981 18.3469 41.2859 18.11 40.1351C17.7 38.5151 16.945 37.3501 16.78 35.9901C16.55 34.0401 16.455 33.3051 15.66 32.2051L21.85 26.0151C22.0126 26.1209 22.1665 26.2397 22.31 26.3701C22.83 26.8651 22.3 27.6251 22.86 27.9501C23.235 28.1601 23.745 28.1801 24.11 28.4251C25.135 29.1051 26.905 28.3901 27.255 29.9701Z" fill="#A65718"/>
</g>
<defs>
<clipPath id="clip0_157_2339">
<rect width="48" height="48" fill="white"/>
</clipPath>
</defs>
</svg>
