<svg width="48" height="48" viewBox="0 0 48 48" fill="none" xmlns="http://www.w3.org/2000/svg">
<g clip-path="url(#clip0_159_2369)">
<path d="M24 11C14.3857 11 6.5508 16.5161 4.1958 24C6.5508 31.4839 14.3857 37 24 37C33.6142 37 41.9492 31.4839 44.3037 24C41.9492 16.5161 33.6142 11 24 11Z" fill="#FFD400"/>
<path d="M44.3047 24.0001C41.9497 31.4851 33.615 37.0001 24 37.0001C20.2176 37.0287 16.4868 36.1218 13.1396 34.3601L34.255 13.2451C39.14 15.5301 42.855 19.3951 44.305 24.0001" fill="#FFC20E"/>
<path d="M44 23.14V24C41.8912 20.6037 38.9434 17.8076 35.4405 15.881C31.9376 13.9544 27.9976 12.9622 24 13C20.1409 12.9665 16.3337 13.8897 12.9186 15.6871C9.50347 17.4844 6.58694 20.1 4.42969 23.3C7.04499 16.175 14.69 11 24 11C33.2402 11 41.3 16.095 44 23.14Z" fill="#CD992B"/>
<path d="M4.42969 24.86V24C6.53849 27.3963 9.48631 30.1924 12.9892 32.119C16.4921 34.0456 20.4321 35.0378 24.4297 35C28.2888 35.0336 32.096 34.1104 35.5112 32.313C38.9263 30.5156 41.8428 27.9 44 24.7C41.385 31.825 33.74 37 24.4297 37C15.1899 37 7.12969 31.905 4.42969 24.86Z" fill="#CD992B"/>
<path d="M32.75 24C32.75 25.6811 32.2515 27.3245 31.3175 28.7223C30.3835 30.1202 29.056 31.2096 27.5028 31.853C25.9496 32.4963 24.2406 32.6646 22.5917 32.3367C20.9429 32.0087 19.4283 31.1992 18.2396 30.0104C17.0508 28.8217 16.2413 27.3071 15.9133 25.6583C15.5854 24.0094 15.7537 22.3004 16.397 20.7472C17.0404 19.194 18.1298 17.8665 19.5277 16.9325C20.9255 15.9985 22.5689 15.5 24.25 15.5C26.5043 15.5 28.6664 16.3955 30.2604 17.9896C31.8545 19.5837 32.75 21.7457 32.75 24Z" fill="#0083CA"/>
<path d="M28.75 24C28.75 24.89 28.4861 25.76 27.9916 26.5001C27.4971 27.2401 26.7943 27.8169 25.9721 28.1575C25.1498 28.498 24.245 28.5872 23.3721 28.4135C22.4992 28.2399 21.6974 27.8113 21.068 27.182C20.4387 26.5526 20.0101 25.7508 19.8365 24.8779C19.6628 24.005 19.752 23.1002 20.0925 22.2779C20.4331 21.4557 21.0099 20.7529 21.7499 20.2584C22.49 19.7639 23.36 19.5 24.25 19.5C25.4435 19.5 26.5881 19.9741 27.432 20.818C28.2759 21.6619 28.75 22.8065 28.75 24Z" fill="#00416B"/>
<path d="M33 18.5C33 19.1922 32.7947 19.8689 32.4101 20.4445C32.0256 21.0201 31.4789 21.4687 30.8394 21.7336C30.1999 21.9985 29.4961 22.0678 28.8172 21.9327C28.1383 21.7977 27.5146 21.4644 27.0251 20.9749C26.5356 20.4854 26.2023 19.8617 26.0673 19.1828C25.9322 18.5039 26.0015 17.8001 26.2664 17.1606C26.5313 16.5211 26.9799 15.9744 27.5555 15.5899C28.1311 15.2053 28.8078 15 29.5 15C30.4283 15 31.3185 15.3687 31.9749 16.0251C32.6313 16.6815 33 17.5717 33 18.5Z" fill="#FFD400"/>
<path d="M39 41C38.7373 41.0003 38.4771 40.9488 38.2344 40.8482C37.9918 40.7476 37.7714 40.6001 37.5859 40.414L8.08593 10.914C7.72027 10.5371 7.51755 10.0314 7.52154 9.50628C7.52554 8.98113 7.73592 8.47862 8.10727 8.10727C8.47862 7.73592 8.98113 7.52554 9.50628 7.52154C10.0314 7.51755 10.5371 7.72027 10.914 8.08593L40.414 37.5859C40.6937 37.8656 40.8841 38.222 40.9612 38.6099C41.0384 38.9978 40.9988 39.3999 40.8474 39.7653C40.6961 40.1307 40.4398 40.443 40.1109 40.6628C39.7821 40.8826 39.3955 40.9999 39 41Z" fill="#CD992B"/>
</g>
<defs>
<clipPath id="clip0_159_2369">
<rect width="48" height="48" fill="white"/>
</clipPath>
</defs>
</svg>
