<svg width="48" height="48" viewBox="0 0 48 48" fill="none" xmlns="http://www.w3.org/2000/svg">
<g clip-path="url(#clip0_155_2251)">
<path d="M36 12H22C21.4477 12 21 12.4477 21 13V22C21 22.5523 21.4477 23 22 23H36C36.5523 23 37 22.5523 37 22V13C37 12.4477 36.5523 12 36 12Z" fill="#00416B"/>
<path d="M34 17H19C18.4477 17 18 17.4477 18 18V28C18 28.5523 18.4477 29 19 29H34C34.5523 29 35 28.5523 35 28V18C35 17.4477 34.5523 17 34 17Z" fill="#CD992B"/>
<path d="M3.86847 27.5009L7.04847 32.9958C7.57547 33.9066 8.3327 34.6627 9.24421 35.1884C10.1557 35.7141 11.1894 35.9908 12.2417 35.9908H31.892C32.9215 35.9909 33.9337 35.726 34.8313 35.2217C35.7289 34.7174 36.4815 33.9906 37.017 33.1113L44.0744 21.52C44.1667 21.3684 44.217 21.1949 44.2201 21.0175C44.2232 20.84 44.179 20.6649 44.092 20.5101C44.0051 20.3554 43.8785 20.2266 43.7253 20.1369C43.5721 20.0473 43.3978 20 43.2203 20H34.535C34.3703 20 34.2083 20.0406 34.0631 20.1183C33.918 20.196 33.7942 20.3083 33.7029 20.4453L31.781 23.3282C31.2331 24.15 30.4908 24.8239 29.6199 25.29C28.7491 25.7561 27.7766 26 26.7889 26H4.73397C4.55836 26 4.38584 26.0463 4.23377 26.1341C4.08171 26.222 3.95546 26.3483 3.86773 26.5004C3.78 26.6526 3.73388 26.8251 3.73401 27.0007C3.73414 27.1764 3.78052 27.3488 3.86847 27.5009Z" fill="#FFD400"/>
<path d="M44.075 21.52L37.015 33.11C36.4803 33.9901 35.7278 34.7174 34.8301 35.2219C33.9324 35.7264 32.9198 35.9909 31.89 35.99H15.01L25 26H26.79C27.7772 25.9996 28.749 25.7558 29.6194 25.29C30.4899 24.8243 31.232 24.1511 31.78 23.33L33.705 20.445C33.7956 20.3078 33.9188 20.1952 34.0637 20.1175C34.2086 20.0399 34.3706 19.9995 34.535 20H43.22C43.3975 20.0001 43.5717 20.0474 43.7249 20.1371C43.8781 20.2267 44.0046 20.3555 44.0917 20.5102C44.1787 20.6649 44.223 20.8399 44.22 21.0173C44.2171 21.1948 44.1671 21.3683 44.075 21.52Z" fill="#FFC20E"/>
<path d="M8 17H13C13.5304 17 14.0391 17.2107 14.4142 17.5858C14.7893 17.9609 15 18.4696 15 19V26H6V19C6 18.4696 6.21071 17.9609 6.58579 17.5858C6.96086 17.2107 7.46957 17 8 17Z" fill="#FFC20E"/>
<path d="M11 20H9.99976C9.44747 20 8.99976 20.4477 8.99976 21V22.0002C8.99976 22.5525 9.44747 23.0002 9.99976 23.0002H11C11.5522 23.0002 12 22.5525 12 22.0002V21C12 20.4477 11.5522 20 11 20Z" fill="#0083CA"/>
<path d="M10 11C10.2652 11 10.5196 11.1054 10.7071 11.2929C10.8946 11.4804 11 11.7348 11 12V17H9V12C9 11.7348 9.10536 11.4804 9.29289 11.2929C9.48043 11.1054 9.73478 11 10 11Z" fill="#00416B"/>
<path d="M8 11H10V13H8C7.73478 13 7.48043 12.8946 7.29289 12.7071C7.10536 12.5196 7 12.2652 7 12C7 11.7348 7.10536 11.4804 7.29289 11.2929C7.48043 11.1054 7.73478 11 8 11Z" fill="#00416B"/>
<path d="M36 32C32 32 31 35 21 35C11 35 6 34.9997 4 37H37C39 37 41 37 41 35C41 35 41 32 36 32Z" fill="#00416B"/>
</g>
<defs>
<clipPath id="clip0_155_2251">
<rect width="48" height="48" fill="white"/>
</clipPath>
</defs>
</svg>
