<svg width="48" height="48" viewBox="0 0 48 48" fill="none" xmlns="http://www.w3.org/2000/svg">
<g clip-path="url(#clip0_154_2205)">
<path d="M37.0002 9H6.00024C4.89567 9 4.00024 9.89543 4.00024 11V32C4.00024 33.1046 4.89567 34 6.00024 34H37.0002C38.1048 34 39.0002 33.1046 39.0002 32V11C39.0002 9.89543 38.1048 9 37.0002 9Z" fill="#FFD400"/>
<path d="M18.9626 20.7477L4.00024 34.0001H39.0002L24.0378 20.7477C23.3398 20.1238 22.4364 19.7788 21.5002 19.7788C20.564 19.7788 19.6606 20.1238 18.9626 20.7477Z" fill="#FFE600"/>
<path d="M24.0378 22.2525L39.0002 9H4.00024L18.9626 22.2525C19.6606 22.8764 20.564 23.2214 21.5002 23.2214C22.4364 23.2214 23.3398 22.8764 24.0378 22.2525Z" fill="#FFC20E"/>
<path d="M43.0002 32H33.0002C32.448 32 32.0002 32.4477 32.0002 33C32.0002 33.5523 32.448 34 33.0002 34H43.0002C43.5525 34 44.0002 33.5523 44.0002 33C44.0002 32.4477 43.5525 32 43.0002 32Z" fill="#00416B"/>
<path d="M39.0002 38V28C39.0002 27.4477 38.5525 27 38.0002 27C37.448 27 37.0002 27.4477 37.0002 28V38C37.0002 38.5523 37.448 39 38.0002 39C38.5525 39 39.0002 38.5523 39.0002 38Z" fill="#00416B"/>
</g>
<defs>
<clipPath id="clip0_154_2205">
<rect width="48" height="48" fill="white"/>
</clipPath>
</defs>
</svg>
