<svg width="48" height="48" viewBox="0 0 48 48" fill="none" xmlns="http://www.w3.org/2000/svg">
<g clip-path="url(#clip0_3137_6571)">
<path d="M26.5598 12.2135C27.2235 11.5646 27.612 10.6874 27.6457 9.76234C27.6701 8.79862 27.3124 7.86401 26.65 7.16037C25.9875 6.45672 25.0734 6.04052 24.105 6.00165C23.3749 5.97972 22.655 6.17647 22.0386 6.56641C21.4222 6.95635 20.9378 7.52149 20.6482 8.18856C20.3586 8.85563 20.2771 9.59386 20.4143 10.3076C20.5515 11.0212 20.9011 11.6775 21.4177 12.1912C21.5106 12.2816 21.5804 12.3929 21.6213 12.5157C21.6622 12.6385 21.673 12.7692 21.6529 12.8969C21.6327 13.0247 21.5821 13.1458 21.5053 13.2502C21.4285 13.3546 21.3278 13.4392 21.2114 13.497C20.4031 13.8836 19.6946 14.4493 19.1404 15.1507C18.5861 15.852 18.2008 16.6704 18.014 17.543C17.9919 17.6598 17.996 17.7799 18.026 17.8949C18.0559 18.0099 18.111 18.1169 18.1873 18.2083C18.2636 18.2997 18.3593 18.3732 18.4674 18.4236C18.5755 18.474 18.6935 18.5001 18.8129 18.5H29.1853C29.3048 18.5004 29.423 18.4745 29.5314 18.4242C29.6398 18.3739 29.7356 18.3004 29.8121 18.209C29.8886 18.1176 29.9439 18.0105 29.9739 17.8954C30.004 17.7802 30.0081 17.6599 29.986 17.543C29.7984 16.6712 29.4128 15.8537 28.8586 15.153C28.3043 14.4524 27.5963 13.8872 26.7886 13.5007C26.6724 13.4458 26.5712 13.3641 26.4932 13.2624C26.4153 13.1606 26.3629 13.0418 26.3405 12.9159C26.3182 12.7899 26.3264 12.6604 26.3645 12.5383C26.4027 12.4161 26.4696 12.3048 26.5598 12.2136" fill="#FFD400"/>
<path d="M12.5598 35.7135C13.2235 35.0646 13.612 34.1874 13.6457 33.2623C13.6701 32.2986 13.3124 31.364 12.65 30.6604C11.9875 29.9567 11.0734 29.5405 10.105 29.5017C9.3749 29.4797 8.65497 29.6765 8.03859 30.0664C7.42221 30.4564 6.93781 31.0215 6.64818 31.6886C6.35856 32.3556 6.27707 33.0939 6.41428 33.8076C6.5515 34.5212 6.90108 35.1775 7.41772 35.6912C7.51062 35.7816 7.58043 35.8929 7.62133 36.0157C7.66224 36.1385 7.67305 36.2692 7.65286 36.3969C7.63268 36.5247 7.58208 36.6458 7.5053 36.7502C7.42851 36.8546 7.32775 36.9392 7.21143 36.997C6.40313 37.3836 5.69464 37.9493 5.14036 38.6507C4.58608 39.352 4.20076 40.1704 4.01397 41.043C3.99191 41.1598 3.99602 41.2799 4.02598 41.3949C4.05595 41.5099 4.11104 41.6169 4.18734 41.7083C4.26363 41.7997 4.35925 41.8732 4.46738 41.9236C4.57551 41.974 4.69349 42.0001 4.81291 42H15.1853C15.3048 42.0004 15.423 41.9745 15.5314 41.9242C15.6398 41.8739 15.7356 41.8004 15.8121 41.709C15.8886 41.6176 15.9439 41.5105 15.9739 41.3954C16.004 41.2802 16.0081 41.1599 15.986 41.043C15.7984 40.1712 15.4128 39.3537 14.8586 38.653C14.3043 37.9524 13.5963 37.3872 12.7886 37.0007C12.6724 36.9458 12.5712 36.8641 12.4932 36.7624C12.4153 36.6606 12.3629 36.5418 12.3405 36.4159C12.3182 36.2899 12.3264 36.1604 12.3645 36.0383C12.4027 35.9161 12.4696 35.8048 12.5598 35.7136" fill="#FFD400"/>
<path d="M40.5598 35.7135C41.2235 35.0646 41.612 34.1874 41.6457 33.2623C41.6701 32.2986 41.3124 31.364 40.65 30.6604C39.9875 29.9567 39.0734 29.5405 38.105 29.5017C37.3749 29.4797 36.655 29.6765 36.0386 30.0664C35.4222 30.4564 34.9378 31.0215 34.6482 31.6886C34.3586 32.3556 34.2771 33.0939 34.4143 33.8076C34.5515 34.5212 34.9011 35.1775 35.4177 35.6912C35.5106 35.7816 35.5804 35.8929 35.6213 36.0157C35.6622 36.1385 35.673 36.2692 35.6529 36.3969C35.6327 36.5247 35.5821 36.6458 35.5053 36.7502C35.4285 36.8546 35.3278 36.9392 35.2114 36.997C34.4031 37.3836 33.6946 37.9493 33.1404 38.6507C32.5861 39.352 32.2008 40.1704 32.014 41.043C31.9919 41.1598 31.996 41.2799 32.026 41.3949C32.0559 41.5099 32.111 41.6169 32.1873 41.7083C32.2636 41.7997 32.3593 41.8732 32.4674 41.9236C32.5755 41.974 32.6935 42.0001 32.8129 42H43.1853C43.3048 42.0004 43.423 41.9745 43.5314 41.9242C43.6398 41.8739 43.7356 41.8004 43.8121 41.709C43.8886 41.6176 43.9439 41.5105 43.9739 41.3954C44.004 41.2802 44.0081 41.1599 43.986 41.043C43.7984 40.1712 43.4128 39.3537 42.8586 38.653C42.3043 37.9524 41.5963 37.3872 40.7886 37.0007C40.6724 36.9458 40.5712 36.8641 40.4932 36.7624C40.4153 36.6606 40.3629 36.5418 40.3405 36.4159C40.3182 36.2899 40.3264 36.1604 40.3645 36.0383C40.4027 35.9161 40.4696 35.8048 40.5598 35.7136" fill="#FFD400"/>
<path d="M26.5598 35.7135C27.2235 35.0646 27.612 34.1874 27.6457 33.2623C27.6701 32.2986 27.3124 31.364 26.65 30.6604C25.9875 29.9567 25.0734 29.5405 24.105 29.5017C23.3749 29.4797 22.655 29.6765 22.0386 30.0664C21.4222 30.4564 20.9378 31.0215 20.6482 31.6886C20.3586 32.3556 20.2771 33.0939 20.4143 33.8076C20.5515 34.5212 20.9011 35.1775 21.4177 35.6912C21.5106 35.7816 21.5804 35.8929 21.6213 36.0157C21.6622 36.1385 21.673 36.2692 21.6529 36.3969C21.6327 36.5247 21.5821 36.6458 21.5053 36.7502C21.4285 36.8546 21.3278 36.9392 21.2114 36.997C20.4031 37.3836 19.6946 37.9493 19.1404 38.6507C18.5861 39.352 18.2008 40.1704 18.014 41.043C17.9919 41.1598 17.996 41.2799 18.026 41.3949C18.0559 41.5099 18.111 41.6169 18.1873 41.7083C18.2636 41.7997 18.3593 41.8732 18.4674 41.9236C18.5755 41.974 18.6935 42.0001 18.8129 42H29.1853C29.3048 42.0004 29.423 41.9745 29.5314 41.9242C29.6398 41.8739 29.7356 41.8004 29.8121 41.709C29.8886 41.6176 29.9439 41.5105 29.9739 41.3954C30.004 41.2802 30.0081 41.1599 29.986 41.043C29.7984 40.1712 29.4128 39.3537 28.8586 38.653C28.3043 37.9524 27.5963 37.3872 26.7886 37.0007C26.6724 36.9458 26.5712 36.8641 26.4932 36.7624C26.4153 36.6606 26.3629 36.5418 26.3405 36.4159C26.3182 36.2899 26.3264 36.1604 26.3645 36.0383C26.4027 35.9161 26.4696 35.8048 26.5598 35.7136" fill="#FFD400"/>
<path d="M30 17.7087C29.9997 17.813 29.9786 17.9162 29.938 18.0125C29.8973 18.1087 29.8379 18.1961 29.7631 18.2695C29.6882 18.343 29.5995 18.4012 29.5019 18.4408C29.4043 18.4803 29.2998 18.5004 29.1943 18.5H20.5L23.3664 13.3207C27.3528 12.3325 26.9819 8.20636 26.8157 7.5C26.8522 7.54155 26.8869 7.5831 26.9198 7.62646C26.9435 7.65536 26.9655 7.68427 26.9856 7.71317C27.0203 7.75833 27.0513 7.8053 27.0824 7.85227C27.1135 7.89924 27.1445 7.94802 27.1737 7.9968C27.4694 8.4939 27.6398 9.05401 27.6707 9.6299C27.6761 9.72979 27.6761 9.8299 27.6707 9.92979C27.6704 9.9811 27.6673 10.0324 27.6615 10.0833C27.6579 10.1393 27.6506 10.1954 27.6433 10.2514C27.636 10.3055 27.6286 10.3597 27.6177 10.4139C27.6181 10.4143 27.6185 10.4147 27.6187 10.4151C27.6189 10.4156 27.619 10.4161 27.619 10.4167C27.619 10.4172 27.6189 10.4177 27.6187 10.4182C27.6185 10.4186 27.6181 10.419 27.6177 10.4194C27.6067 10.4754 27.5958 10.5296 27.583 10.5838C27.5702 10.638 27.5556 10.6921 27.541 10.7463C27.4958 10.9081 27.4383 11.0664 27.3692 11.2197C27.3473 11.2702 27.3235 11.3208 27.298 11.3714C27.2724 11.4202 27.2468 11.469 27.2212 11.5159C27.2208 11.5186 27.2195 11.5212 27.2176 11.5232C27.1902 11.5701 27.161 11.6171 27.1317 11.6641C27.1061 11.7056 27.0787 11.7472 27.0513 11.7887C26.9831 11.8868 26.9099 11.9815 26.8321 12.0723C26.759 12.1572 26.6805 12.2403 26.5983 12.3198C26.5836 12.3361 26.5672 12.3524 26.5544 12.3686C26.5114 12.4192 26.4751 12.475 26.4466 12.5348C26.3973 12.6376 26.371 12.7497 26.3694 12.8635C26.3678 12.9773 26.391 13.0901 26.4375 13.1942C26.4676 13.2613 26.507 13.3239 26.5544 13.3803C26.5672 13.3947 26.58 13.4092 26.5928 13.4218C26.6594 13.4901 26.738 13.5458 26.8248 13.5862C27.6234 13.966 28.3236 14.5214 28.8718 15.2099C29.4199 15.8985 29.8015 16.702 29.9872 17.5588C29.996 17.6083 30.0003 17.6585 30 17.7087Z" fill="#FFC20E"/>
<path d="M16 41.2087C15.9997 41.313 15.9786 41.4162 15.938 41.5125C15.8973 41.6087 15.8379 41.6961 15.7631 41.7695C15.6882 41.843 15.5995 41.9012 15.5019 41.9408C15.4043 41.9803 15.2998 42.0004 15.1943 42H6.5L9.36644 36.8207C13.3528 35.8325 12.9819 31.7064 12.8157 31C12.8522 31.0416 12.8869 31.0831 12.9198 31.1265C12.9435 31.1554 12.9655 31.1843 12.9856 31.2132C13.0203 31.2583 13.0513 31.3053 13.0824 31.3523C13.1135 31.3992 13.1445 31.448 13.1737 31.4968C13.4694 31.9939 13.6398 32.554 13.6707 33.1299C13.6761 33.2298 13.6761 33.3299 13.6707 33.4298C13.6704 33.4811 13.6673 33.5324 13.6615 33.5833C13.6579 33.6393 13.6506 33.6954 13.6433 33.7514C13.636 33.8055 13.6286 33.8597 13.6177 33.9139C13.6181 33.9143 13.6184 33.9147 13.6187 33.9151C13.6189 33.9156 13.619 33.9161 13.619 33.9167C13.619 33.9172 13.6189 33.9177 13.6187 33.9182C13.6184 33.9186 13.6181 33.919 13.6177 33.9194C13.6067 33.9754 13.5958 34.0296 13.583 34.0838C13.5702 34.138 13.5556 34.1921 13.541 34.2463C13.4958 34.4081 13.4383 34.5664 13.3692 34.7197C13.3473 34.7702 13.3235 34.8208 13.298 34.8714C13.2724 34.9202 13.2468 34.969 13.2212 35.0159C13.2208 35.0186 13.2195 35.0212 13.2176 35.0232C13.1902 35.0701 13.161 35.1171 13.1317 35.1641C13.1061 35.2056 13.0787 35.2472 13.0513 35.2887C12.9831 35.3868 12.9099 35.4815 12.8321 35.5723C12.759 35.6572 12.6805 35.7403 12.5983 35.8198C12.5836 35.8361 12.5672 35.8524 12.5544 35.8686C12.5114 35.9192 12.4751 35.975 12.4466 36.0348C12.3973 36.1376 12.371 36.2497 12.3694 36.3635C12.3678 36.4773 12.391 36.5901 12.4375 36.6942C12.4676 36.7613 12.507 36.8239 12.5544 36.8803C12.5672 36.8947 12.58 36.9092 12.5928 36.9218C12.6594 36.9901 12.738 37.0458 12.8248 37.0862C13.6234 37.466 14.3236 38.0214 14.8718 38.7099C15.4199 39.3985 15.8015 40.202 15.9872 41.0588C15.996 41.1083 16.0003 41.1585 16 41.2087Z" fill="#FFC20E"/>
<path d="M44 41.2087C43.9997 41.313 43.9786 41.4162 43.938 41.5125C43.8973 41.6087 43.8379 41.6961 43.7631 41.7695C43.6882 41.843 43.5995 41.9012 43.5019 41.9408C43.4043 41.9803 43.2998 42.0004 43.1943 42H34.5L37.3664 36.8207C41.3528 35.8325 40.9819 31.7064 40.8157 31C40.8522 31.0416 40.8869 31.0831 40.9198 31.1265C40.9435 31.1554 40.9655 31.1843 40.9856 31.2132C41.0203 31.2583 41.0513 31.3053 41.0824 31.3523C41.1135 31.3992 41.1445 31.448 41.1737 31.4968C41.4694 31.9939 41.6398 32.554 41.6707 33.1299C41.6761 33.2298 41.6761 33.3299 41.6707 33.4298C41.6704 33.4811 41.6673 33.5324 41.6615 33.5833C41.6579 33.6393 41.6506 33.6954 41.6433 33.7514C41.636 33.8055 41.6286 33.8597 41.6177 33.9139C41.6181 33.9143 41.6184 33.9147 41.6187 33.9151C41.6189 33.9156 41.619 33.9161 41.619 33.9167C41.619 33.9172 41.6189 33.9177 41.6187 33.9182C41.6184 33.9186 41.6181 33.919 41.6177 33.9194C41.6067 33.9754 41.5958 34.0296 41.583 34.0838C41.5702 34.138 41.5556 34.1921 41.541 34.2463C41.4958 34.4081 41.4383 34.5664 41.3692 34.7197C41.3473 34.7702 41.3235 34.8208 41.298 34.8714C41.2724 34.9202 41.2468 34.969 41.2212 35.0159C41.2208 35.0186 41.2195 35.0212 41.2176 35.0232C41.1902 35.0701 41.161 35.1171 41.1317 35.1641C41.1061 35.2056 41.0787 35.2472 41.0513 35.2887C40.9831 35.3868 40.9099 35.4815 40.8321 35.5723C40.759 35.6572 40.6805 35.7403 40.5983 35.8198C40.5836 35.8361 40.5672 35.8524 40.5544 35.8686C40.5114 35.9192 40.4751 35.975 40.4466 36.0348C40.3973 36.1376 40.371 36.2497 40.3694 36.3635C40.3678 36.4773 40.391 36.5901 40.4375 36.6942C40.4676 36.7613 40.507 36.8239 40.5544 36.8803C40.5672 36.8947 40.58 36.9092 40.5928 36.9218C40.6594 36.9901 40.738 37.0458 40.8248 37.0862C41.6234 37.466 42.3236 38.0214 42.8718 38.7099C43.4199 39.3985 43.8015 40.202 43.9872 41.0588C43.996 41.1083 44.0003 41.1585 44 41.2087Z" fill="#FFC20E"/>
<path d="M30 41.2087C29.9997 41.313 29.9786 41.4162 29.938 41.5125C29.8973 41.6087 29.8379 41.6961 29.7631 41.7695C29.6882 41.843 29.5995 41.9012 29.5019 41.9408C29.4043 41.9803 29.2998 42.0004 29.1943 42H20.5L23.3664 36.8207C27.3528 35.8325 26.9819 31.7064 26.8157 31C26.8522 31.0416 26.8869 31.0831 26.9198 31.1265C26.9435 31.1554 26.9655 31.1843 26.9856 31.2132C27.0203 31.2583 27.0513 31.3053 27.0824 31.3523C27.1135 31.3992 27.1445 31.448 27.1737 31.4968C27.4694 31.9939 27.6398 32.554 27.6707 33.1299C27.6761 33.2298 27.6761 33.3299 27.6707 33.4298C27.6704 33.4811 27.6673 33.5324 27.6615 33.5833C27.6579 33.6393 27.6506 33.6954 27.6433 33.7514C27.636 33.8055 27.6286 33.8597 27.6177 33.9139C27.6181 33.9143 27.6184 33.9147 27.6187 33.9151C27.6189 33.9156 27.619 33.9161 27.619 33.9167C27.619 33.9172 27.6189 33.9177 27.6187 33.9182C27.6184 33.9186 27.6181 33.919 27.6177 33.9194C27.6067 33.9754 27.5958 34.0296 27.583 34.0838C27.5702 34.138 27.5556 34.1921 27.541 34.2463C27.4958 34.4081 27.4383 34.5664 27.3692 34.7197C27.3473 34.7702 27.3235 34.8208 27.298 34.8714C27.2724 34.9202 27.2468 34.969 27.2212 35.0159C27.2208 35.0186 27.2195 35.0212 27.2176 35.0232C27.1902 35.0701 27.161 35.1171 27.1317 35.1641C27.1061 35.2056 27.0787 35.2472 27.0513 35.2887C26.9831 35.3868 26.9099 35.4815 26.8321 35.5723C26.759 35.6572 26.6805 35.7403 26.5983 35.8198C26.5836 35.8361 26.5672 35.8524 26.5544 35.8686C26.5114 35.9192 26.4751 35.975 26.4466 36.0348C26.3973 36.1376 26.371 36.2497 26.3694 36.3635C26.3678 36.4773 26.391 36.5901 26.4375 36.6942C26.4676 36.7613 26.507 36.8239 26.5544 36.8803C26.5672 36.8947 26.58 36.9092 26.5928 36.9218C26.6594 36.9901 26.738 37.0458 26.8248 37.0862C27.6234 37.466 28.3236 38.0214 28.8718 38.7099C29.4199 39.3985 29.8015 40.202 29.9872 41.0588C29.996 41.1083 30.0003 41.1585 30 41.2087Z" fill="#FFC20E"/>
<path d="M23 21.5C23 20.9477 23.4477 20.5 24 20.5C24.5523 20.5 25 20.9477 25 21.5V23.5H37C38.1046 23.5 39 24.3954 39 25.5V26.5C39 27.0523 38.5523 27.5 38 27.5C37.4477 27.5 37 27.0523 37 26.5V25.5C32.9633 25.5 25 25.5 25 25.5V26.5C25 27.0523 24.5523 27.5 24 27.5C23.4477 27.5 23 27.0523 23 26.5V25.5C23 25.5 15.0563 25.5 11 25.5V26.5C11 27.0523 10.5523 27.5 10 27.5C9.44771 27.5 9 27.0523 9 26.5V25.5C9 24.3954 9.89543 23.5 11 23.5H23V21.5Z" fill="#00416B"/>
</g>
<defs>
<clipPath id="clip0_3137_6571">
<rect width="48" height="48" fill="white"/>
</clipPath>
</defs>
</svg>
