<svg width="48" height="48" viewBox="0 0 48 48" fill="none" xmlns="http://www.w3.org/2000/svg">
<g clip-path="url(#clip0_155_2269)">
<path d="M40.0003 8H8C6.93913 8 5.92172 8.42143 5.17157 9.17157C4.42143 9.92172 4 10.9391 4 12V30C4 31.0609 4.42143 32.0783 5.17157 32.8284C5.92172 33.5786 6.93913 34 8 34H12V40L18 34H40C41.0609 34 42.0783 33.5786 42.8284 32.8284C43.5786 32.0783 44 31.0609 44 30V12C44 10.9392 43.5786 9.9218 42.8285 9.17166C42.0784 8.42152 41.0611 8.00007 40.0003 8Z" fill="#FFD400"/>
<path d="M44 12V30C44.0001 30.5253 43.8968 31.0455 43.6958 31.5309C43.4948 32.0163 43.2002 32.4573 42.8287 32.8287C42.4573 33.2002 42.0163 33.4948 41.5309 33.6958C41.0455 33.8968 40.5253 34.0001 40 34H18L12 40V36L40 8C40.5253 7.99986 41.0455 8.10323 41.5309 8.3042C42.0163 8.50517 42.4573 8.7998 42.8287 9.17127C43.2002 9.54273 43.4948 9.98374 43.6958 10.4691C43.8968 10.9545 44.0001 11.4747 44 12Z" fill="#FFC20E"/>
<path d="M16.0003 19H16.0002C14.8957 19 14.0002 19.8954 14.0002 21V21C14.0002 22.1046 14.8957 23 16.0002 23H16.0003C17.1049 23 18.0003 22.1046 18.0003 21V21C18.0003 19.8954 17.1049 19 16.0003 19Z" fill="#00416B"/>
<path d="M24.0003 19H24.0002C22.8957 19 22.0002 19.8954 22.0002 21V21C22.0002 22.1046 22.8957 23 24.0002 23H24.0003C25.1049 23 26.0003 22.1046 26.0003 21V21C26.0003 19.8954 25.1049 19 24.0003 19Z" fill="#00416B"/>
<path d="M32.0004 19H32.0004C30.8958 19 30.0004 19.8954 30.0004 21V21C30.0004 22.1046 30.8958 23 32.0004 23H32.0004C33.105 23 34.0004 22.1046 34.0004 21V21C34.0004 19.8954 33.105 19 32.0004 19Z" fill="#00416B"/>
</g>
<defs>
<clipPath id="clip0_155_2269">
<rect width="48" height="48" fill="white"/>
</clipPath>
</defs>
</svg>
