<svg width="48" height="48" viewBox="0 0 48 48" fill="none" xmlns="http://www.w3.org/2000/svg">
<g clip-path="url(#clip0_156_2326)">
<path d="M40.0005 42H8.00049C7.47005 42 6.96135 41.7893 6.58627 41.4142C6.2112 41.0391 6.00049 40.5304 6.00049 40V12C6.00049 11.4696 6.2112 10.9609 6.58627 10.5858C6.96135 10.2107 7.47005 10 8.00049 10H40.0005C40.5309 10 41.0396 10.2107 41.4147 10.5858C41.7898 10.9609 42.0005 11.4696 42.0005 12V40C42.0005 40.5304 41.7898 41.0391 41.4147 41.4142C41.0396 41.7893 40.5309 42 40.0005 42Z" fill="#FFD400"/>
<path d="M42 12.25V40C42.0001 40.2627 41.9484 40.5228 41.8479 40.7655C41.7474 41.0081 41.6001 41.2286 41.4144 41.4144C41.2286 41.6001 41.0081 41.7474 40.7655 41.8479C40.5228 41.9484 40.2627 42.0001 40 42H12.25L42 12.25Z" fill="#FFC20E"/>
<path d="M42.0005 18H6.00049V12C6.00049 11.4696 6.2112 10.9609 6.58627 10.5858C6.96135 10.2107 7.47005 10 8.00049 10H40.0005C40.5309 10 41.0396 10.2107 41.4147 10.5858C41.7898 10.9609 42.0005 11.4696 42.0005 12V18Z" fill="#CD992B"/>
<path d="M16.0005 12C15.8691 12.0001 15.7391 11.9743 15.6177 11.924C15.4964 11.8738 15.3861 11.8002 15.2932 11.7073C15.2003 11.6144 15.1267 11.5041 15.0764 11.3828C15.0262 11.2614 15.0004 11.1313 15.0005 11V7C15.0005 6.73478 15.1058 6.48043 15.2934 6.29289C15.4809 6.10536 15.7353 6 16.0005 6C16.2657 6 16.5201 6.10536 16.7076 6.29289C16.8951 6.48043 17.0005 6.73478 17.0005 7V11C17.0005 11.2652 16.8951 11.5196 16.7076 11.7071C16.5201 11.8946 16.2657 12 16.0005 12Z" fill="#00416B"/>
<path d="M32.0005 12C31.8691 12.0001 31.7391 11.9743 31.6177 11.924C31.4964 11.8738 31.3861 11.8002 31.2932 11.7073C31.2003 11.6144 31.1267 11.5041 31.0764 11.3828C31.0262 11.2614 31.0004 11.1313 31.0005 11V7C31.0005 6.73478 31.1058 6.48043 31.2934 6.29289C31.4809 6.10536 31.7353 6 32.0005 6C32.2657 6 32.5201 6.10536 32.7076 6.29289C32.8951 6.48043 33.0005 6.73478 33.0005 7V11C33.0005 11.2652 32.8951 11.5196 32.7076 11.7071C32.5201 11.8946 32.2657 12 32.0005 12Z" fill="#00416B"/>
<path d="M24 36.5C21.9815 36.5 20 34.6836 20 32.8335H22C22 33.4605 22.9683 34.5 24 34.5C24.9942 34.5 26 33.9273 26 32.8335C26 31.6031 24.9223 31.1665 24 31.1665V29.1665C26.3174 29.1665 28 30.7085 28 32.8335C28 34.9235 26.28 36.5 24 36.5Z" fill="#00416B"/>
<path d="M24 31.1665C22.0683 31.1665 20 29.6934 20 27.5C20 25.4097 21.72 23.833 24 23.833C26.0185 23.833 28 25.6494 28 27.5H26C26 26.8731 25.0312 25.833 24 25.833C23.0059 25.833 22 26.4058 22 27.5C22 28.5327 23.1646 29.1665 24 29.1665V31.1665Z" fill="#00416B"/>
<path d="M24 37.8335C23.7348 37.8334 23.4805 37.728 23.293 37.5405C23.1055 37.353 23.0001 37.0987 23 36.8335V36.5C23 36.2348 23.1054 35.9804 23.2929 35.7929C23.4804 35.6054 23.7348 35.5 24 35.5C24.2652 35.5 24.5196 35.6054 24.7071 35.7929C24.8946 35.9804 25 36.2348 25 36.5V36.8335C24.9999 37.0987 24.8945 37.353 24.707 37.5405C24.5195 37.728 24.2652 37.8334 24 37.8335Z" fill="#00416B"/>
<path d="M24 24.5C23.7348 24.5 23.4804 24.3946 23.2929 24.2071C23.1054 24.0196 23 23.7652 23 23.5V23.1665C23 22.9013 23.1054 22.6469 23.2929 22.4594C23.4804 22.2719 23.7348 22.1665 24 22.1665C24.2652 22.1665 24.5196 22.2719 24.7071 22.4594C24.8946 22.6469 25 22.9013 25 23.1665V23.5C25 23.7652 24.8946 24.0196 24.7071 24.2071C24.5196 24.3946 24.2652 24.5 24 24.5Z" fill="#00416B"/>
</g>
<defs>
<clipPath id="clip0_156_2326">
<rect width="48" height="48" fill="white"/>
</clipPath>
</defs>
</svg>
