<svg width="48" height="48" viewBox="0 0 48 48" fill="none" xmlns="http://www.w3.org/2000/svg">
<g clip-path="url(#clip0_159_2384)">
<path d="M38.1551 11.7925H33.5801L15.3414 40.37H34.7203C39.0977 36.8271 42.6012 29.476 42.6012 23.831C42.5958 19.4175 41.0197 15.15 38.1551 11.7925Z" fill="#FFC20E"/>
<path d="M9.95603 11.7925C7.09118 15.1499 5.51487 19.4175 5.50928 23.8311C5.50928 29.4761 8.01268 36.8272 12.3893 40.3701H15.3414L33.5796 11.7925H9.95603Z" fill="#FFD400"/>
<path d="M24.055 17.2106C22.8123 16.1647 21.6746 15.4737 21.1516 15.8692C19.699 16.9689 20.1678 20.0328 22.1971 22.7135L24.055 22.5285L28.8059 22.0573C27.3337 20.3361 25.7464 18.7169 24.055 17.2106Z" fill="#0083CA"/>
<path d="M24.055 31.1924L22.7371 31.062C20.7078 33.742 20.2395 36.807 21.6921 37.9063C22.1374 38.2432 23.03 37.791 24.0549 37.0024C26.3674 35.2197 29.3464 31.7188 29.3464 31.7188L24.055 31.1924Z" fill="#0083CA"/>
<path d="M30.6543 21.7283C28.6493 20.9283 26.2293 20.4246 24.0552 20.8919C20.9487 21.5569 18.6489 23.9441 18.6489 26.7869C18.6489 29.6287 20.9489 32.0149 24.0552 32.6809C26.2349 33.1497 28.6548 32.6433 30.6543 31.844C33.3867 30.7551 35.7436 28.8977 35.7436 26.7869C35.7436 24.6746 33.3857 22.8181 30.6543 21.7283Z" fill="#00416B"/>
<path d="M13.0518 19.625C12.9597 19.6169 12.8669 19.6291 12.78 19.6608C12.6932 19.6926 12.6144 19.7431 12.5492 19.8087C12.4841 19.8743 12.4342 19.9535 12.4031 20.0405C12.3719 20.1276 12.3604 20.2205 12.3692 20.3125C12.4788 21.4569 12.8482 22.5611 13.4493 23.541C14.0505 24.5209 14.8674 25.3506 15.8379 25.9668C15.9764 26.054 16.0905 26.1749 16.1696 26.3182C16.2487 26.4615 16.2902 26.6225 16.2902 26.7861C16.2902 26.9498 16.2487 27.1108 16.1696 27.2541C16.0905 27.3973 15.9764 27.5182 15.8379 27.6055C14.8676 28.2216 14.0507 29.0512 13.4496 30.0309C12.8485 31.0106 12.479 32.1146 12.3692 33.2588C12.3602 33.3509 12.3717 33.4438 12.4027 33.531C12.4338 33.6182 12.4837 33.6975 12.5488 33.7633C12.614 33.829 12.6928 33.8796 12.7798 33.9114C12.8667 33.9432 12.9596 33.9554 13.0518 33.9473C16.9318 33.5879 19.8799 30.1943 19.8785 26.7861C19.8775 23.3545 16.915 19.9834 13.0518 19.625Z" fill="#00416B"/>
<path d="M32.2676 25.1924C31.9397 25.1925 31.6253 25.3227 31.3935 25.5546C31.1616 25.7864 31.0313 26.1009 31.0312 26.4287V26.8C31.0333 27.1266 31.1645 27.439 31.3961 27.6692C31.6278 27.8993 31.941 28.0285 32.2676 28.0285C32.5941 28.0285 32.9074 27.8993 33.139 27.6692C33.3707 27.439 33.5018 27.1266 33.5039 26.8V26.4289C33.5039 26.2666 33.472 26.1058 33.4099 25.9557C33.3478 25.8057 33.2567 25.6694 33.1419 25.5546C33.0271 25.4397 32.8908 25.3486 32.7408 25.2865C32.5908 25.2244 32.43 25.1924 32.2676 25.1924Z" fill="#FFC20E"/>
<path d="M24 6.03955C27.5603 6.03954 31.0406 7.09527 34.0009 9.07325C36.9611 11.0512 39.2684 13.8626 40.6308 17.1518C41.9933 20.4411 42.3498 24.0605 41.6552 27.5524C40.9606 31.0442 39.2462 34.2517 36.7287 36.7692C34.2112 39.2867 31.0037 41.0011 27.5119 41.6957C24.02 42.3902 20.4006 42.0337 17.1114 40.6713C13.8221 39.3088 11.0107 37.0016 9.03278 34.0413C7.05481 31.0811 5.99907 27.6008 5.99908 24.0405C6.00448 19.268 7.90274 14.6925 11.2774 11.3179C14.6521 7.94321 19.2275 6.04495 24 6.03955ZM24 4.03955C20.0442 4.03955 16.1772 5.21259 12.8881 7.41033C9.59892 9.60807 7.03534 12.7318 5.52151 16.3865C4.00769 20.0412 3.6116 24.0628 4.38335 27.9426C5.1551 31.8224 7.06001 35.3862 9.85721 38.1834C12.6544 40.9806 16.2182 42.8855 20.0981 43.6572C23.9779 44.429 27.9994 44.0329 31.6541 42.519C35.3088 41.0052 38.4325 38.4416 40.6303 35.1525C42.828 31.8633 44.001 27.9963 44.001 24.0405C44.0011 21.4139 43.4837 18.8131 42.4786 16.3864C41.4735 13.9598 40.0002 11.7549 38.1429 9.89762C36.2857 8.04035 34.0808 6.56709 31.6541 5.56196C29.2275 4.55684 26.6266 4.03952 24 4.03955Z" fill="#FFD400"/>
<path d="M7.99805 42.0425C7.99805 41.512 8.20876 41.0033 8.58383 40.6283C8.95891 40.2532 9.46761 40.0425 9.99805 40.0425H38.0693C38.5998 40.0425 39.1085 40.2532 39.4836 40.6283C39.8586 41.0033 40.0693 41.512 40.0693 42.0425C40.0693 42.5729 39.8586 43.0816 39.4836 43.4567C39.1085 43.8318 38.5998 44.0425 38.0693 44.0425H9.99805C9.73538 44.0426 9.47528 43.9909 9.23259 43.8904C8.98991 43.7899 8.7694 43.6426 8.58367 43.4569C8.39794 43.2711 8.25062 43.0506 8.15014 42.8079C8.04966 42.5652 7.99797 42.3051 7.99805 42.0425Z" fill="#CD992B"/>
</g>
<defs>
<clipPath id="clip0_159_2384">
<rect width="48" height="48" fill="white"/>
</clipPath>
</defs>
</svg>
