<svg width="48" height="48" viewBox="0 0 48 48" fill="none" xmlns="http://www.w3.org/2000/svg">
<g clip-path="url(#clip0_157_2337)">
<path fill-rule="evenodd" clip-rule="evenodd" d="M39.85 19.8501C39.8507 15.6464 38.1814 11.6146 35.2094 8.64168C32.2375 5.66876 28.2062 3.99822 24.0025 3.99756C19.7988 3.9969 15.7671 5.66617 12.7942 8.63815C9.82123 11.6101 8.15069 15.6414 8.15002 19.8451V19.8501C8.15002 29.4251 18.7 39.9451 22.585 43.5001C22.967 43.8508 23.4684 44.0425 23.987 44.036C24.5055 44.0295 25.002 43.8253 25.375 43.4651C29.23 39.7551 39.875 28.7251 39.875 19.8551L39.85 19.8501ZM24 32.5451C21.4289 32.5451 18.9155 31.7826 16.7776 30.3542C14.6398 28.9257 12.9735 26.8954 11.9896 24.5199C11.0057 22.1445 10.7482 19.5306 11.2498 17.0089C11.7514 14.4871 12.9896 12.1708 14.8076 10.3527C16.6257 8.53459 18.9421 7.29646 21.4639 6.79485C23.9856 6.29324 26.5995 6.55068 28.9749 7.53462C31.3503 8.51856 33.3807 10.1848 34.8091 12.3226C36.2376 14.4605 37 16.9739 37 19.5451C37 22.9929 35.6304 26.2995 33.1924 28.7374C30.7544 31.1754 27.4478 32.5451 24 32.5451Z" fill="#FFD600"/>
<path d="M15 25.3848L23.5 29.1548C23.6668 29.229 23.8474 29.2673 24.03 29.2673C24.2125 29.2673 24.3931 29.229 24.56 29.1548L33.06 25.3648C33.291 25.2635 33.4874 25.0969 33.6251 24.8855C33.7628 24.6741 33.8357 24.4271 33.8349 24.1748V14.9998C33.8348 14.7471 33.7616 14.4998 33.624 14.2878C33.4865 14.0758 33.2906 13.908 33.06 13.8048L24.56 10.0348C24.3931 9.96068 24.2125 9.92236 24.03 9.92236C23.8474 9.92236 23.6668 9.96068 23.5 10.0348L15 13.8048C14.7646 13.9043 14.5635 14.0704 14.4213 14.2827C14.2792 14.4951 14.2022 14.7443 14.2 14.9998V24.1898C14.2022 24.4453 14.2792 24.6946 14.4213 24.9069C14.5635 25.1192 14.7646 25.2854 15 25.3848Z" fill="#FFD400"/>
<path d="M24 29.3899V18.5049L33.8 14.1499V25.0199L24 29.3899Z" fill="#CD992B"/>
<path d="M24 29.3899V18.5049L14.2 14.1499V25.0199L24 29.3899Z" fill="#FFC20E"/>
<path d="M30.3999 15.6651L20.6949 11.3501L18.0699 12.5001L27.7749 16.8001V20.0001C27.7738 20.0907 27.7955 20.1802 27.838 20.2602C27.8805 20.3402 27.9424 20.4083 28.0181 20.4581C28.0938 20.5079 28.1808 20.5378 28.2712 20.5452C28.3615 20.5525 28.4522 20.537 28.5349 20.5001L30.0849 19.7951C30.18 19.7509 30.2602 19.6802 30.3161 19.5915C30.372 19.5028 30.4011 19.3999 30.3999 19.2951V15.6651Z" fill="#00416B"/>
<path d="M36.0887 24.3252C35.4329 25.9778 34.446 27.4787 33.1886 28.7358C31.9313 29.9929 30.43 30.9794 28.7773 31.6348L19.705 40.7048C20.83 41.8598 21.835 42.8098 22.585 43.4948C22.9669 43.8456 23.4684 44.0373 23.9869 44.0308C24.5054 44.0243 25.0019 43.8201 25.375 43.4598C29.125 39.8498 39.27 29.3248 39.825 20.5898L36.0887 24.3252Z" fill="#FFC20E"/>
</g>
<defs>
<clipPath id="clip0_157_2337">
<rect width="48" height="48" fill="white"/>
</clipPath>
</defs>
</svg>
