<svg width="48" height="48" viewBox="0 0 48 48" fill="none" xmlns="http://www.w3.org/2000/svg">
<g clip-path="url(#clip0_157_2340)">
<path fill-rule="evenodd" clip-rule="evenodd" d="M39.85 19.8501C39.8504 17.7686 39.4407 15.7075 38.6445 13.7843C37.8482 11.8612 36.681 10.1137 35.2094 8.64168C32.2375 5.66876 28.2062 3.99822 24.0025 3.99756C21.9211 3.99723 19.8599 4.40688 17.9368 5.20311C16.0137 5.99934 14.2662 7.16657 12.7942 8.63815C9.82123 11.6101 8.15069 15.6414 8.15002 19.8451V19.8501C8.15002 29.4251 18.7 39.9451 22.585 43.5001C22.9657 43.8522 23.4665 44.0454 23.985 44.0401H24.01C24.5206 44.0242 25.007 43.8193 25.375 43.4651C29.12 39.8601 39.275 29.3501 39.85 20.6201C39.865 20.3601 39.875 20.1101 39.875 19.8551L39.85 19.8501ZM27.67 32.7951C26.4755 33.1296 25.2405 33.2979 24 33.2951C21.2805 33.2951 18.6221 32.4886 16.3609 30.9778C14.0998 29.4669 12.3374 27.3194 11.2967 24.807C10.256 22.2945 9.98368 19.5298 10.5142 16.8626C11.0448 14.1953 12.3543 11.7453 14.2773 9.82234C16.2003 7.89937 18.6503 6.58981 21.3175 6.05926C23.9848 5.52871 26.7494 5.80101 29.2619 6.84171C31.7744 7.88242 33.9219 9.64479 35.4327 11.906C36.9436 14.1671 37.75 16.8256 37.75 19.5451C37.7515 20.7891 37.5816 22.0274 37.245 23.2251C36.6112 25.5112 35.3961 27.5942 33.7181 29.2713C32.0402 30.9484 29.9565 32.1624 27.67 32.7951Z" fill="#FFD400"/>
<path d="M39.875 20.5952C39.32 29.3302 29.175 39.8552 25.425 43.4652C25.0456 43.8328 24.5383 44.0389 24.01 44.0402H23.985C23.4836 44.0338 23.0025 43.8413 22.635 43.5002C21.885 42.8152 20.88 41.8652 19.755 40.7102L27.67 32.7952C29.9565 32.1626 32.0401 30.9486 33.7181 29.2715C35.3961 27.5944 36.6112 25.5114 37.245 23.2252L39.875 20.5952Z" fill="#FFC20E"/>
<path fill-rule="evenodd" clip-rule="evenodd" d="M22.6851 11.6602H30.0001C30.2663 11.6603 30.5289 11.7212 30.7681 11.8381C31.0072 11.9551 31.2165 12.1251 31.3801 12.3352L34.6801 16.5602C34.7618 16.6623 34.8059 16.7894 34.8051 16.9202C34.8064 17.0495 34.7622 17.1752 34.6801 17.2752L31.3751 21.5002C31.2123 21.7098 31.0039 21.8796 30.7656 21.9966C30.5273 22.1136 30.2655 22.1746 30.0001 22.1752H22.6851L26.7951 16.9202L22.6851 11.6602Z" fill="#007BC3"/>
<path fill-rule="evenodd" clip-rule="evenodd" d="M26.7951 16.9202L29.7951 13.0752C29.9243 12.9246 29.9969 12.7336 30.0001 12.5352C30.0001 12.3031 29.9079 12.0805 29.7438 11.9164C29.5797 11.7523 29.3571 11.6602 29.1251 11.6602H22.6851L26.7951 16.9202Z" fill="#004169"/>
<path fill-rule="evenodd" clip-rule="evenodd" d="M25.315 27.435H18C17.7329 27.4356 17.4693 27.3751 17.2292 27.2581C16.9891 27.1411 16.779 26.9707 16.615 26.76L13.315 22.535C13.2332 22.4328 13.1891 22.3057 13.19 22.175C13.1886 22.0456 13.2329 21.9199 13.315 21.82L16.615 17.59C16.7793 17.3799 16.9896 17.2102 17.2296 17.0941C17.4697 16.9779 17.7333 16.9184 18 16.92H25.315L21.205 22.175L25.315 27.435Z" fill="#FFD400"/>
<path fill-rule="evenodd" clip-rule="evenodd" d="M21.205 22.1748L18.205 26.0198C18.0757 26.1704 18.0032 26.3614 18 26.5598C18 26.7919 18.0922 27.0144 18.2563 27.1785C18.4204 27.3426 18.6429 27.4348 18.875 27.4348H25.315L21.205 22.1748Z" fill="#D39E00"/>
</g>
<defs>
<clipPath id="clip0_157_2340">
<rect width="48" height="48" fill="white"/>
</clipPath>
</defs>
</svg>
