<svg width="48" height="48" viewBox="0 0 48 48" fill="none" xmlns="http://www.w3.org/2000/svg">
<path fill-rule="evenodd" clip-rule="evenodd" d="M39.85 19.8501C39.8504 17.7686 39.4407 15.7075 38.6445 13.7843C37.8482 11.8612 36.681 10.1137 35.2094 8.64168C32.2375 5.66876 28.2062 3.99822 24.0025 3.99756C21.9211 3.99723 19.8599 4.40688 17.9368 5.20311C16.0137 5.99934 14.2662 7.16657 12.7942 8.63815C9.82123 11.6101 8.15069 15.6414 8.15002 19.8451V19.8501C8.15002 29.4251 18.7 39.9451 22.585 43.5001C22.9657 43.8522 23.4665 44.0454 23.985 44.0401H24.01C24.5206 44.0242 25.007 43.8193 25.375 43.4651C29.12 39.8601 39.275 29.3501 39.85 20.6201C39.865 20.3601 39.875 20.1101 39.875 19.8551L39.85 19.8501Z" fill="#FFD400"/>
<path fill-rule="evenodd" clip-rule="evenodd" d="M38.2764 12.9623L27.3627 26.0587L12.824 8.60842C14.2898 7.15085 16.0266 5.99398 17.9368 5.20311C19.8599 4.40688 21.9211 3.99723 24.0025 3.99756C28.2062 3.99822 32.2375 5.66876 35.2094 8.64168C36.4685 9.90109 37.5047 11.3621 38.2764 12.9623Z" fill="#FFE600"/>
<path fill-rule="evenodd" clip-rule="evenodd" d="M38.6445 13.7845C39.4407 15.7076 39.8504 17.7688 39.85 19.8502L39.875 19.8552C39.875 20.1102 39.865 20.3602 39.85 20.6202C39.5648 24.9516 36.9212 29.7212 33.8723 33.8682L27.3627 26.0589L38.2764 12.9624C38.4067 13.2326 38.5295 13.5067 38.6445 13.7845Z" fill="#FFD400"/>
<path fill-rule="evenodd" clip-rule="evenodd" d="M33.8722 33.8679L27.3626 26.0586L17.3051 38.1311C19.374 40.471 21.3282 42.3499 22.585 43.4999C22.9589 43.8458 23.4488 44.0383 23.9575 44.04C23.962 44.04 23.9664 44.04 23.9708 44.04C23.9755 44.04 23.9802 44.0399 23.985 44.0399H24.01C24.5205 44.0241 25.007 43.8192 25.375 43.4649C27.2619 41.6485 30.776 38.0792 33.8722 33.8679Z" fill="#FFC20E"/>
</svg>
