<svg width="48" height="48" viewBox="0 0 48 48" fill="none" xmlns="http://www.w3.org/2000/svg">
<g clip-path="url(#clip0_159_2372)">
<path d="M24.0002 43.5C34.7698 43.5 43.5002 34.7695 43.5002 24C43.5002 13.2304 34.7698 4.5 24.0002 4.5C13.2307 4.5 4.50024 13.2304 4.50024 24C4.50024 34.7695 13.2307 43.5 24.0002 43.5Z" fill="#FFD400"/>
<path fill-rule="evenodd" clip-rule="evenodd" d="M43.5 24C43.4995 27.8567 42.3556 31.6267 40.2128 34.8333C38.07 38.04 35.0245 40.5393 31.4614 42.0152C27.8983 43.4912 23.9776 43.8776 20.1949 43.1255C16.4122 42.3734 12.9375 40.5167 10.21 37.79L37.79 10.21C39.6034 12.0189 41.0414 14.1685 42.0213 16.5351C43.0012 18.9016 43.5037 21.4385 43.5 24Z" fill="#FFC20E"/>
<path fill-rule="evenodd" clip-rule="evenodd" d="M21.5002 35L28.6447 25.1763C28.8933 24.8345 29.0272 24.4227 29.0272 24C29.0272 23.5773 28.8933 23.1655 28.6447 22.8237L21.5002 13V35Z" fill="#00416B"/>
</g>
<defs>
<clipPath id="clip0_159_2372">
<rect width="48" height="48" fill="white"/>
</clipPath>
</defs>
</svg>
