<svg width="48" height="48" viewBox="0 0 48 48" fill="none" xmlns="http://www.w3.org/2000/svg">
<g clip-path="url(#clip0_154_2207)">
<path d="M42.0002 8H14.0002C12.8957 8 12.0002 8.89543 12.0002 10V30C12.0002 31.1046 12.8957 32 14.0002 32H42.0002C43.1048 32 44.0002 31.1046 44.0002 30V10C44.0002 8.89543 43.1048 8 42.0002 8Z" fill="#00416B"/>
<path d="M38.0002 12H10.0002C8.89567 12 8.00024 12.8954 8.00024 14V34C8.00024 35.1046 8.89567 36 10.0002 36H38.0002C39.1048 36 40.0002 35.1046 40.0002 34V14C40.0002 12.8954 39.1048 12 38.0002 12Z" fill="#0083CA"/>
<path d="M34.0002 16H6.00024C4.89567 16 4.00024 16.8954 4.00024 18V38C4.00024 39.1046 4.89567 40 6.00024 40H34.0002C35.1048 40 36.0002 39.1046 36.0002 38V18C36.0002 16.8954 35.1048 16 34.0002 16Z" fill="#FFD400"/>
<path d="M17.68 27.2779L4.00024 40.0002H36.0002L22.3202 27.2779C21.6954 26.6808 20.8644 26.3476 20.0001 26.3477C19.1358 26.3477 18.3049 26.6809 17.68 27.2779Z" fill="#FFE600"/>
<path d="M22.3203 28.7224L36.0002 16H4.00024L17.68 28.7224C18.3049 29.3195 19.1359 29.6526 20.0001 29.6526C20.8644 29.6526 21.6954 29.3195 22.3203 28.7224Z" fill="#FFC20E"/>
</g>
<defs>
<clipPath id="clip0_154_2207">
<rect width="48" height="48" fill="white"/>
</clipPath>
</defs>
</svg>
