<svg width="48" height="48" viewBox="0 0 48 48" fill="none" xmlns="http://www.w3.org/2000/svg">
<g clip-path="url(#clip0_1824_6510)">
<path d="M5 33.4873H15.406V35.4873H5C4.73478 35.4873 4.48043 35.3819 4.29289 35.1944C4.10536 35.0069 4 34.7525 4 34.4873C4 34.2221 4.10536 33.9677 4.29289 33.7802C4.48043 33.5927 4.73478 33.4873 5 33.4873Z" fill="#0083CA"/>
<path d="M7 29.4873H14.5V31.4873H7C6.73478 31.4873 6.48043 31.3819 6.29289 31.1944C6.10536 31.0069 6 30.7525 6 30.4873C6 30.2221 6.10536 29.9677 6.29289 29.7802C6.48043 29.5927 6.73478 29.4873 7 29.4873Z" fill="#00416B"/>
<path d="M9 25.4873H14.5V27.4873H9C8.73478 27.4873 8.48043 27.3819 8.29289 27.1944C8.10536 27.0069 8 26.7525 8 26.4873C8 26.2221 8.10536 25.9677 8.29289 25.7802C8.48043 25.5927 8.73478 25.4873 9 25.4873Z" fill="#00416B"/>
<path d="M15.6687 36.269L28.4503 41.9449C28.702 42.0567 28.9744 42.1143 29.2499 42.1141C29.5253 42.1139 29.7976 42.0559 30.0492 41.9437L42.8342 36.2437C43.1813 36.0889 43.4761 35.837 43.683 35.5182C43.8899 35.1994 44.0001 34.8275 44 34.4475V20.6459C44 20.2655 43.8897 19.8932 43.6823 19.5741C43.475 19.2551 43.1796 19.0031 42.8318 18.8486L30.0487 13.1694C29.7973 13.0577 29.5253 13 29.2502 13C28.9751 13 28.7031 13.0577 28.4517 13.1694L15.6684 18.8486C15.3206 19.0031 15.0251 19.2551 14.8178 19.5741C14.6104 19.8931 14.5 20.2654 14.5 20.6459V34.4716C14.5 34.8521 14.6104 35.2245 14.8179 35.5436C15.0253 35.8626 15.3209 36.1146 15.6687 36.269Z" fill="#FFD400"/>
<path d="M29.25 42.3002V25.9207L44 19.3677V35.7237L29.25 42.3002Z" fill="#CD992B"/>
<path d="M29.25 42.3002V25.9207L14.5 19.3677V35.7237L29.25 42.3002Z" fill="#FFC20E"/>
<path d="M38.645 21.7632L24.0383 15.2739L20.0876 16.9859L34.6941 23.4751V28.3167C34.6942 28.4525 34.7283 28.5862 34.7934 28.7054C34.8585 28.8246 34.9525 28.9255 35.0668 28.999C35.181 29.0725 35.3119 29.1161 35.4473 29.1258C35.5828 29.1356 35.7186 29.1112 35.8421 29.0549L38.17 27.9944C38.3116 27.9299 38.4317 27.826 38.516 27.6952C38.6002 27.5643 38.645 27.412 38.645 27.2563V21.7632Z" fill="#A65718"/>
<path d="M29 6C26.8338 6 25 7.4252 25 10.0812C25 11.6837 27.4667 15.6232 28.5259 17.2409C28.5779 17.3206 28.6484 17.3859 28.7311 17.4311C28.8138 17.4763 28.9062 17.5 29 17.5C29.0938 17.5 29.1862 17.4763 29.2689 17.4311C29.3516 17.3859 29.422 17.3206 29.474 17.2409C30.5333 15.623 33 11.6836 33 10.0812C33 7.4252 31.1662 6 29 6ZM29 11.5388C28.6609 11.5388 28.3295 11.4362 28.0476 11.244C27.7657 11.0519 27.546 10.7787 27.4162 10.4591C27.2865 10.1395 27.2525 9.78778 27.3187 9.44849C27.3848 9.1092 27.5481 8.79754 27.7878 8.55292C28.0276 8.3083 28.333 8.14172 28.6656 8.07423C28.9981 8.00674 29.3428 8.04138 29.656 8.17376C29.9693 8.30615 30.237 8.53034 30.4254 8.81797C30.6137 9.10561 30.7143 9.44378 30.7143 9.78972C30.7143 10.2536 30.5337 10.6985 30.2122 11.0265C29.8907 11.3545 29.4547 11.5388 29 11.5388Z" fill="#00416B"/>
</g>
<defs>
<clipPath id="clip0_1824_6510">
<rect width="48" height="48" fill="white"/>
</clipPath>
</defs>
</svg>
