<svg width="48" height="48" viewBox="0 0 48 48" fill="none" xmlns="http://www.w3.org/2000/svg">
<g clip-path="url(#clip0_154_2226)">
<path d="M5 30H15.406V32H5C4.73478 32 4.48043 31.8946 4.29289 31.7071C4.10536 31.5196 4 31.2652 4 31C4 30.7348 4.10536 30.4804 4.29289 30.2929C4.48043 30.1054 4.73478 30 5 30Z" fill="#0083CA"/>
<path d="M7 26H14.5V28H7C6.73478 28 6.48043 27.8946 6.29289 27.7071C6.10536 27.5196 6 27.2652 6 27C6 26.7348 6.10536 26.4804 6.29289 26.2929C6.48043 26.1054 6.73478 26 7 26Z" fill="#00416B"/>
<path d="M9 22H14.5V24H9C8.73478 24 8.48043 23.8946 8.29289 23.7071C8.10536 23.5196 8 23.2652 8 23C8 22.7348 8.10536 22.4804 8.29289 22.2929C8.48043 22.1054 8.73478 22 9 22Z" fill="#00416B"/>
<path d="M15.6687 32.7817L28.4503 38.4576C28.702 38.5694 28.9744 38.627 29.2499 38.6268C29.5253 38.6266 29.7976 38.5686 30.0492 38.4564L42.8342 32.7564C43.1813 32.6016 43.4761 32.3496 43.683 32.0309C43.8899 31.7121 44.0001 31.3402 44 30.9602V17.1586C44 16.7782 43.8897 16.4059 43.6823 16.0868C43.475 15.7678 43.1796 15.5158 42.8318 15.3613L30.0487 9.68208C29.7973 9.5704 29.5253 9.5127 29.2502 9.5127C28.9751 9.5127 28.7031 9.5704 28.4517 9.68208L15.6684 15.3613C15.3206 15.5158 15.0251 15.7678 14.8178 16.0868C14.6104 16.4058 14.5 16.7781 14.5 17.1586V30.9843C14.5 31.3648 14.6104 31.7372 14.8179 32.0562C15.0253 32.3753 15.3209 32.6273 15.6687 32.7817Z" fill="#FFD400"/>
<path d="M29.25 38.8129V22.4334L44 15.8804V32.2364L29.25 38.8129Z" fill="#CD992B"/>
<path d="M29.25 38.8129V22.4334L14.5 15.8804V32.2364L29.25 38.8129Z" fill="#FFC20E"/>
<path d="M38.645 18.2759L24.0383 11.7866L20.0876 13.4986L34.6941 19.9878V24.8294C34.6942 24.9652 34.7283 25.0989 34.7934 25.2181C34.8585 25.3373 34.9525 25.4382 35.0668 25.5117C35.181 25.5852 35.3119 25.6288 35.4473 25.6385C35.5828 25.6483 35.7186 25.6239 35.8421 25.5676L38.17 24.5071C38.3116 24.4426 38.4317 24.3387 38.516 24.2079C38.6002 24.077 38.645 23.9247 38.645 23.769V18.2759Z" fill="#00416B"/>
</g>
<defs>
<clipPath id="clip0_154_2226">
<rect width="48" height="48" fill="white"/>
</clipPath>
</defs>
</svg>
