<svg width="48" height="48" viewBox="0 0 48 48" fill="none" xmlns="http://www.w3.org/2000/svg">
<g clip-path="url(#clip0_155_2273)">
<path d="M39.7978 13.3603L38.1399 11.7024C37.7257 11.2882 37.0541 11.2882 36.6399 11.7024L34.3108 14.0315C33.8966 14.4457 33.8966 15.1172 34.3108 15.5314L35.9688 17.1894C36.383 17.6036 37.0545 17.6036 37.4687 17.1894L39.7978 14.8603C40.212 14.4461 40.212 13.7745 39.7978 13.3603Z" fill="#0083CA"/>
<path d="M24.0002 43C32.8368 43 40.0002 35.8366 40.0002 27C40.0002 18.1634 32.8368 11 24.0002 11C15.1637 11 8.00024 18.1634 8.00024 27C8.00024 35.8366 15.1637 43 24.0002 43Z" fill="#FFD400"/>
<path d="M40.0001 27.0001C39.9995 30.1495 39.0696 33.2287 37.327 35.8521C35.5843 38.4754 33.1063 40.5262 30.2033 41.7476C27.3004 42.969 24.1016 43.3067 21.0076 42.7183C17.9136 42.13 15.0621 40.6417 12.8101 38.4401L35.4401 15.8101C38.3678 18.7983 40.0053 22.8166 40.0001 27.0001Z" fill="#FFC20E"/>
<path d="M27.0002 4H21.0002C19.8957 4 19.0002 4.89543 19.0002 6C19.0002 7.10457 19.8957 8 21.0002 8H27.0002C28.1048 8 29.0002 7.10457 29.0002 6C29.0002 4.89543 28.1048 4 27.0002 4Z" fill="#00416B"/>
<path d="M26.0002 4.5H22.0002V11H26.0002V4.5Z" fill="#00416B"/>
<path d="M24 44C20.6377 44 17.351 43.003 14.5553 41.135C11.7597 39.267 9.58075 36.612 8.29406 33.5056C7.00737 30.3993 6.67071 26.9811 7.32666 23.6835C7.98261 20.3858 9.6017 17.3567 11.9792 14.9792C14.3567 12.6017 17.3858 10.9826 20.6835 10.3267C23.9811 9.67071 27.3993 10.0074 30.5056 11.2941C33.612 12.5807 36.267 14.7597 38.135 17.5553C40.003 20.3509 41 23.6377 41 27C40.9949 31.5071 39.2022 35.8282 36.0152 39.0152C32.8282 42.2022 28.5071 43.9949 24 44ZM24 12C21.0333 12 18.1332 12.8797 15.6665 14.528C13.1997 16.1762 11.2771 18.5189 10.1418 21.2598C9.0065 24.0006 8.70945 27.0166 9.28823 29.9264C9.86701 32.8361 11.2956 35.5088 13.3934 37.6066C15.4912 39.7044 18.1639 41.133 21.0737 41.7118C23.9834 42.2906 26.9994 41.9935 29.7403 40.8582C32.4812 39.7229 34.8238 37.8003 36.4721 35.3336C38.1203 32.8668 39 29.9667 39 27C38.9955 23.0231 37.4137 19.2104 34.6016 16.3984C31.7896 13.5863 27.9769 12.0045 24 12Z" fill="#CD992B"/>
<path d="M24 36.5C20.9722 36.5 18 33.7757 18 31H21C21 31.9405 22.4531 33.5 24 33.5C25.4907 33.5 27 32.6413 27 31C27 29.155 25.3838 28.5 24 28.5V25.5C27.4766 25.5 30 27.813 30 31C30 34.1355 27.4204 36.5 24 36.5Z" fill="#00416B"/>
<path d="M24 28.5C21.1026 28.5 18 26.29 18 23C18 19.8645 20.5796 17.5 24 17.5C27.0279 17.5 30 20.2243 30 23H27C27 22.0595 25.5469 20.5 24 20.5C22.5093 20.5 21 21.3586 21 23C21 24.5489 22.7471 25.5 24 25.5V28.5Z" fill="#00416B"/>
<path d="M24.5 35H23.5C22.9477 35 22.5 35.4477 22.5 36V37.5C22.5 38.0523 22.9477 38.5 23.5 38.5H24.5C25.0523 38.5 25.5 38.0523 25.5 37.5V36C25.5 35.4477 25.0523 35 24.5 35Z" fill="#00416B"/>
<path d="M24.5 15H23.5C22.9477 15 22.5 15.4477 22.5 16V17.5C22.5 18.0523 22.9477 18.5 23.5 18.5H24.5C25.0523 18.5 25.5 18.0523 25.5 17.5V16C25.5 15.4477 25.0523 15 24.5 15Z" fill="#00416B"/>
</g>
<defs>
<clipPath id="clip0_155_2273">
<rect width="48" height="48" fill="white"/>
</clipPath>
</defs>
</svg>
