<svg width="48" height="48" viewBox="0 0 48 48" fill="none" xmlns="http://www.w3.org/2000/svg">
<g clip-path="url(#clip0_156_2324)">
<path d="M39.7978 13.3603L38.1399 11.7024C37.7257 11.2882 37.0541 11.2882 36.6399 11.7024L34.3108 14.0315C33.8966 14.4457 33.8966 15.1172 34.3108 15.5314L35.9688 17.1894C36.383 17.6036 37.0545 17.6036 37.4687 17.1894L39.7978 14.8603C40.212 14.4461 40.212 13.7745 39.7978 13.3603Z" fill="#0083CA"/>
<path d="M24.0002 43C32.8368 43 40.0002 35.8366 40.0002 27C40.0002 18.1634 32.8368 11 24.0002 11C15.1637 11 8.00024 18.1634 8.00024 27C8.00024 35.8366 15.1637 43 24.0002 43Z" fill="#FFD400"/>
<path d="M40.0001 27.0001C39.9995 30.1495 39.0696 33.2287 37.327 35.8521C35.5843 38.4754 33.1063 40.5262 30.2033 41.7476C27.3004 42.969 24.1016 43.3067 21.0076 42.7183C17.9136 42.13 15.0621 40.6417 12.8101 38.4401L35.4401 15.8101C38.3678 18.7983 40.0053 22.8166 40.0001 27.0001Z" fill="#FFC20E"/>
<path d="M27.0002 4H21.0002C19.8957 4 19.0002 4.89543 19.0002 6C19.0002 7.10457 19.8957 8 21.0002 8H27.0002C28.1048 8 29.0002 7.10457 29.0002 6C29.0002 4.89543 28.1048 4 27.0002 4Z" fill="#00416B"/>
<path d="M26.0002 4.5H22.0002V11H26.0002V4.5Z" fill="#00416B"/>
<path d="M24 44C20.6377 44 17.351 43.003 14.5553 41.135C11.7597 39.267 9.58075 36.612 8.29406 33.5056C7.00737 30.3993 6.67071 26.9811 7.32666 23.6835C7.98261 20.3858 9.6017 17.3567 11.9792 14.9792C14.3567 12.6017 17.3858 10.9826 20.6835 10.3267C23.9811 9.67071 27.3993 10.0074 30.5056 11.2941C33.612 12.5807 36.267 14.7597 38.135 17.5553C40.003 20.3509 41 23.6377 41 27C40.9949 31.5071 39.2022 35.8282 36.0152 39.0152C32.8282 42.2022 28.5071 43.9949 24 44ZM24 12C21.0333 12 18.1332 12.8797 15.6665 14.528C13.1997 16.1762 11.2771 18.5189 10.1418 21.2598C9.0065 24.0006 8.70945 27.0166 9.28823 29.9264C9.86701 32.8361 11.2956 35.5088 13.3934 37.6066C15.4912 39.7044 18.1639 41.133 21.0737 41.7118C23.9834 42.2906 26.9994 41.9935 29.7403 40.8582C32.4812 39.7229 34.8238 37.8003 36.4721 35.3336C38.1203 32.8668 39 29.9667 39 27C38.9955 23.0231 37.4137 19.2104 34.6016 16.3984C31.7896 13.5863 27.9769 12.0045 24 12Z" fill="#CD992B"/>
<path d="M24.0002 17C22.0224 17 20.089 17.5865 18.4445 18.6853C16.8001 19.7841 15.5183 21.3459 14.7615 23.1732C14.0046 25.0004 13.8065 27.0111 14.1924 28.9509C14.5782 30.8907 15.5307 32.6725 16.9292 34.0711C18.3277 35.4696 20.1095 36.422 22.0493 36.8079C23.9892 37.1937 25.9998 36.9957 27.8271 36.2388C29.6543 35.4819 31.2161 34.2002 32.3149 32.5557C33.4138 30.9112 34.0003 28.9778 34.0003 27C33.9973 24.3488 32.9427 21.807 31.068 19.9322C29.1933 18.0575 26.6515 17.003 24.0002 17ZM20.1877 20.2945C20.3956 20.3327 20.5969 20.4004 20.7856 20.4956C20.4264 20.5094 20.0714 20.4152 19.7663 20.2251C19.8722 20.1584 19.9778 20.0916 20.0867 20.0301C20.4011 20.0626 20.0976 20.0487 20.1877 20.2945V20.2945ZM16.0002 27C16.0027 26.3494 16.085 25.7016 16.2452 25.0711C16.3546 25.2543 16.5048 25.4098 16.6843 25.5253C16.8637 25.6409 17.0674 25.7133 17.2794 25.7371C17.1949 25.331 17.5675 26.2141 17.8894 26.4566C18.3164 26.7786 18.7494 26.5601 19.2134 26.824C19.7613 27.135 20.7 27.531 20.7315 28.0801C20.7383 28.2061 20.1861 28.6145 20.2168 29.0254C20.2439 29.3845 20.5713 29.6975 20.824 29.9961C21.356 30.6255 21.3875 30.8726 21.5001 31.8196C21.6499 32.3943 21.8312 32.9603 22.0431 33.515C22.1411 33.9814 22.3008 34.4327 22.5182 34.8568C20.6874 34.5098 19.035 33.5354 17.8453 32.1014C16.6556 30.6673 16.0031 28.8633 16.0002 27ZM24.0002 35C23.7766 35 23.5571 34.9846 23.3381 34.9666C23.206 34.7133 23.1597 34.4239 23.2062 34.1421C23.0495 34.0987 22.9387 34.0071 22.8205 33.9717C22.8741 33.7861 22.882 33.5902 22.8435 33.4009C22.9197 33.2886 23.6916 32.9834 23.8896 32.7859C24.3088 32.3679 24.2522 31.8513 24.5002 31.5537C24.7431 31.2627 25.0431 31.2537 25.2936 30.8543C25.2712 30.8904 25.7787 29.3152 25.7878 29.3543C25.6428 28.7073 24.9197 29.0012 24.4993 28.7202C24.3523 28.6223 24.1433 28.6157 23.9893 28.5279C23.7573 28.3948 23.9756 28.0833 23.7619 27.8814C23.4326 27.5698 22.9224 27.4822 22.5196 27.0642C22.2706 27.2674 21.4074 27.1018 21.0545 27.1323C20.6417 27.1682 20.6346 27.4523 20.1371 27.1682C19.7696 26.9588 20.461 26.3667 19.588 26.4043C19.7005 26.1912 18.0125 25.9539 18.828 25.1912C19.1418 24.9723 19.5075 24.8395 19.8886 24.806C20.2698 24.7724 20.653 24.8393 21.0002 25C20.7458 24.0481 22.7836 22.7581 23.3522 22.5987C23.2422 22.565 23.7087 22.4556 24.0002 22.3337C23.8352 22.7326 24.5715 22.0112 25.0002 22.0002C24.8918 21.9196 25.0003 22.0002 24.1096 21.2712C23.9255 21.4152 23.655 21.4057 23.4896 21.5002C23.5501 21.0588 23.288 20.9611 23.0004 21.0092C22.8196 21.042 22.6486 21.1155 22.5004 21.2242C22.4723 21.2452 22.3267 21.0062 22.2838 20.9686C22.434 20.9309 22.5795 20.8766 22.7176 20.8067C22.7194 20.7042 23.4933 20.7052 23.2623 20.7621C24.0763 21.1117 24.1023 20.554 24.7342 20.3746C24.6561 20.3936 24.5783 20.4122 24.5004 20.4313C24.4694 19.7012 22.4022 20.2386 22.7127 19.8331C22.2177 19.734 22.1536 19.7936 21.8988 20.0497C21.9713 20.0616 21.4862 20.0675 21.8148 19.8517C21.4713 19.9747 21.1512 19.6776 20.9359 19.6127C22.3374 19.0285 23.8769 18.8574 25.3724 19.1198C26.868 19.3821 28.2573 20.0668 29.3764 21.0931C29.2656 21.1556 29.1699 21.2416 29.0958 21.3451C29.2992 21.5148 29.5441 21.6274 29.8053 21.6715C29.8253 21.7811 29.8453 21.8907 29.8646 22.0001C29.0457 22.2135 28.2108 22.6007 28.4813 23.3256C27.6513 23.1476 27.1659 23.9948 27.9667 24.1206C28.6342 24.2256 29.0223 23.4302 29.5609 23.1596C29.7504 23.3825 30.0692 23.5586 30.2728 23.7946C30.2933 24.0107 30.4522 23.4892 29.8646 22.9996C30.1344 23.0688 30.3814 23.2073 30.5811 23.4014C30.7809 23.5954 30.9264 23.8384 31.0033 24.1061C31.1442 24.0797 31.2752 24.015 31.3817 23.9191C31.4846 24.1644 31.5747 24.4149 31.6517 24.6695C31.2788 24.5576 30.8861 24.5273 30.5004 24.5807C30.5385 24.7767 30.5165 24.8995 30.5804 24.9996C30.1788 24.6527 29.2699 24.7896 29.5004 24.0636C29.1241 24.1903 28.7544 24.3359 28.3928 24.5C28.0183 24.6026 27.9321 24.2696 27.5542 24.5125C27.4045 24.6089 27.6018 24.8975 27.5003 25.01C27.342 25.1846 27.0733 25.2591 26.9077 25.427C26.696 25.6416 26.2427 25.8701 26.7522 26C26.5732 26.3481 26.5379 26.7525 26.6536 27.1263C26.7694 27.5002 27.027 27.8139 27.3713 28C28.4492 28.481 28.3518 27.0572 29.2498 27.844C29.4353 28.0061 29.4973 28.0381 29.5163 28.041C29.509 28.054 29.5137 28.1116 29.6081 28.3181C29.6335 28.3731 29.5823 28.6331 29.6038 28.7305C29.6638 29.0086 29.9861 29.2329 30.0403 29.512C30.1105 29.875 29.9993 29.6341 29.9922 30.0196C29.9451 30.3285 29.9478 30.643 30.0002 30.9512C30.0139 31.2771 30.143 31.5876 30.3645 31.8272C29.621 32.8118 28.6594 33.6108 27.5551 34.1613C26.4509 34.7118 25.2341 34.9989 24.0002 35Z" fill="#004169"/>
<path d="M28.1705 22.148L28.186 21.9645L28.0235 21.894L27.7945 21.949L27.6255 22.2175V22.3955H27.8225L28.1705 22.148Z" fill="#004169"/>
</g>
<defs>
<clipPath id="clip0_156_2324">
<rect width="48" height="48" fill="white"/>
</clipPath>
</defs>
</svg>
