<svg width="48" height="48" viewBox="0 0 48 48" fill="none" xmlns="http://www.w3.org/2000/svg">
<g clip-path="url(#clip0_157_2334)">
<path d="M40 42H8C7.46957 42 6.96086 41.7893 6.58579 41.4142C6.21071 41.0391 6 40.5304 6 40V8C6 7.46957 6.21071 6.96086 6.58579 6.58579C6.96086 6.21071 7.46957 6 8 6H40C40.5304 6 41.0391 6.21071 41.4142 6.58579C41.7893 6.96086 42 7.46957 42 8V40C42 40.5304 41.7893 41.0391 41.4142 41.4142C41.0391 41.7893 40.5304 42 40 42Z" fill="#FFD400"/>
<path d="M42 7.99996V40C42 40.2626 41.9484 40.5227 41.8479 40.7654C41.7474 41.0081 41.6001 41.2286 41.4143 41.4143C41.2286 41.6001 41.0081 41.7474 40.7654 41.8479C40.5227 41.9484 40.2626 42 40 42H7.99996C7.46967 41.9988 6.96122 41.7886 6.58496 41.415L41.415 6.58496C41.7886 6.96122 41.9988 7.46967 42 7.99996Z" fill="#FFC20E"/>
<path d="M10 11V20C10 20.2652 10.1054 20.5196 10.2929 20.7071C10.4804 20.8946 10.7348 21 11 21H20C20.2652 21 20.5196 20.8946 20.7071 20.7071C20.8946 20.5196 21 20.2652 21 20V11C21 10.7348 20.8946 10.4804 20.7071 10.2929C20.5196 10.1054 20.2652 10 20 10H11C10.7348 10 10.4804 10.1054 10.2929 10.2929C10.1054 10.4804 10 10.7348 10 11ZM18 19H13C12.7348 19 12.4804 18.8946 12.2929 18.7071C12.1054 18.5196 12 18.2652 12 18V13C12 12.7348 12.1054 12.4804 12.2929 12.2929C12.4804 12.1054 12.7348 12 13 12H18C18.2652 12 18.5196 12.1054 18.7071 12.2929C18.8946 12.4804 19 12.7348 19 13V18C19 18.2652 18.8946 18.5196 18.7071 18.7071C18.5196 18.8946 18.2652 19 18 19Z" fill="#00416B"/>
<path d="M10 28V37C10 37.2652 10.1054 37.5196 10.2929 37.7071C10.4804 37.8946 10.7348 38 11 38H20C20.2652 38 20.5196 37.8946 20.7071 37.7071C20.8946 37.5196 21 37.2652 21 37V28C21 27.7348 20.8946 27.4804 20.7071 27.2929C20.5196 27.1054 20.2652 27 20 27H11C10.7348 27 10.4804 27.1054 10.2929 27.2929C10.1054 27.4804 10 27.7348 10 28ZM18 36H13C12.7348 36 12.4804 35.8946 12.2929 35.7071C12.1054 35.5196 12 35.2652 12 35V30C12 29.7348 12.1054 29.4804 12.2929 29.2929C12.4804 29.1054 12.7348 29 13 29H18C18.2652 29 18.5196 29.1054 18.7071 29.2929C18.8946 29.4804 19 29.7348 19 30V35C19 35.2652 18.8946 35.5196 18.7071 35.7071C18.5196 35.8946 18.2652 36 18 36Z" fill="#00416B"/>
<path d="M27 11V20C27 20.2652 27.1054 20.5196 27.2929 20.7071C27.4804 20.8946 27.7348 21 28 21H37C37.2652 21 37.5196 20.8946 37.7071 20.7071C37.8946 20.5196 38 20.2652 38 20V11C38 10.7348 37.8946 10.4804 37.7071 10.2929C37.5196 10.1054 37.2652 10 37 10H28C27.7348 10 27.4804 10.1054 27.2929 10.2929C27.1054 10.4804 27 10.7348 27 11ZM35 19H30C29.7348 19 29.4804 18.8946 29.2929 18.7071C29.1054 18.5196 29 18.2652 29 18V13C29 12.7348 29.1054 12.4804 29.2929 12.2929C29.4804 12.1054 29.7348 12 30 12H35C35.2652 12 35.5196 12.1054 35.7071 12.2929C35.8946 12.4804 36 12.7348 36 13V18C36 18.2652 35.8946 18.5196 35.7071 18.7071C35.5196 18.8946 35.2652 19 35 19Z" fill="#00416B"/>
<path d="M27 28V37C27 37.2652 27.1054 37.5196 27.2929 37.7071C27.4804 37.8946 27.7348 38 28 38H37C37.2652 38 37.5196 37.8946 37.7071 37.7071C37.8946 37.5196 38 37.2652 38 37V28C38 27.7348 37.8946 27.4804 37.7071 27.2929C37.5196 27.1054 37.2652 27 37 27H28C27.7348 27 27.4804 27.1054 27.2929 27.2929C27.1054 27.4804 27 27.7348 27 28ZM35 36H30C29.7348 36 29.4804 35.8946 29.2929 35.7071C29.1054 35.5196 29 35.2652 29 35V30C29 29.7348 29.1054 29.4804 29.2929 29.2929C29.4804 29.1054 29.7348 29 30 29H35C35.2652 29 35.5196 29.1054 35.7071 29.2929C35.8946 29.4804 36 29.7348 36 30V35C36 35.2652 35.8946 35.5196 35.7071 35.7071C35.5196 35.8946 35.2652 36 35 36Z" fill="#00416B"/>
<path d="M15 25H11C10.7348 25 10.4804 24.8946 10.2929 24.7071C10.1054 24.5196 10 24.2652 10 24C10 23.7348 10.1054 23.4804 10.2929 23.2929C10.4804 23.1054 10.7348 23 11 23H15C15.2652 23 15.5196 23.1054 15.7071 23.2929C15.8946 23.4804 16 23.7348 16 24C16 24.2652 15.8946 24.5196 15.7071 24.7071C15.5196 24.8946 15.2652 25 15 25Z" fill="#00416B"/>
<path d="M20 25H19C18.7348 25 18.4804 24.8946 18.2929 24.7071C18.1054 24.5196 18 24.2652 18 24C18 23.7348 18.1054 23.4804 18.2929 23.2929C18.4804 23.1054 18.7348 23 19 23H20C20.2652 23 20.5196 23.1054 20.7071 23.2929C20.8946 23.4804 21 23.7348 21 24C21 24.2652 20.8946 24.5196 20.7071 24.7071C20.5196 24.8946 20.2652 25 20 25Z" fill="#00416B"/>
<path d="M25 37C25 37.1978 24.9414 37.3911 24.8315 37.5556C24.7216 37.72 24.5654 37.8482 24.3827 37.9239C24.2 37.9996 23.9989 38.0194 23.8049 37.9808C23.6109 37.9422 23.4327 37.847 23.2929 37.7071C23.153 37.5673 23.0578 37.3891 23.0192 37.1951C22.9806 37.0011 23.0004 36.8 23.0761 36.6173C23.1518 36.4346 23.28 36.2784 23.4444 36.1685C23.6089 36.0586 23.8022 36 24 36C24.2652 36 24.5196 36.1054 24.7071 36.2929C24.8946 36.4804 25 36.7348 25 37Z" fill="#00416B"/>
<path d="M25 22V21C25 20.7348 24.8946 20.4804 24.7071 20.2929C24.5196 20.1054 24.2652 20 24 20C23.7348 20 23.4804 20.1054 23.2929 20.2929C23.1054 20.4804 23 20.7348 23 21V24C23 24.2652 23.1054 24.5196 23.2929 24.7071C23.4804 24.8946 23.7348 25 24 25H28C28.2652 25 28.5196 24.8946 28.7071 24.7071C28.8946 24.5196 29 24.2652 29 24C29 23.7348 28.8946 23.4804 28.7071 23.2929C28.5196 23.1054 28.2652 23 28 23H26C25.7348 23 25.4804 22.8946 25.2929 22.7071C25.1054 22.5196 25 22.2652 25 22Z" fill="#00416B"/>
<path d="M25 16H23V18H25V16Z" fill="#00416B"/>
<path d="M25 10H23V14H25V10Z" fill="#00416B"/>
<path d="M37 25H32C31.7348 25 31.4804 24.8946 31.2929 24.7071C31.1054 24.5196 31 24.2652 31 24C31 23.7348 31.1054 23.4804 31.2929 23.2929C31.4804 23.1054 31.7348 23 32 23H37C37.2652 23 37.5196 23.1054 37.7071 23.2929C37.8946 23.4804 38 23.7348 38 24C38 24.2652 37.8946 24.5196 37.7071 24.7071C37.5196 24.8946 37.2652 25 37 25Z" fill="#00416B"/>
<path d="M23 33V28C23 27.7348 23.1054 27.4804 23.2929 27.2929C23.4804 27.1054 23.7348 27 24 27C24.2652 27 24.5196 27.1054 24.7071 27.2929C24.8946 27.4804 25 27.7348 25 28V33C25 33.2652 24.8946 33.5196 24.7071 33.7071C24.5196 33.8946 24.2652 34 24 34C23.7348 34 23.4804 33.8946 23.2929 33.7071C23.1054 33.5196 23 33.2652 23 33Z" fill="#00416B"/>
<path d="M33 17H32C31.7348 17 31.4804 16.8946 31.2929 16.7071C31.1054 16.5196 31 16.2652 31 16V15C31 14.7348 31.1054 14.4804 31.2929 14.2929C31.4804 14.1054 31.7348 14 32 14H33C33.2652 14 33.5196 14.1054 33.7071 14.2929C33.8946 14.4804 34 14.7348 34 15V16C34 16.2652 33.8946 16.5196 33.7071 16.7071C33.5196 16.8946 33.2652 17 33 17Z" fill="#0083CA"/>
<path d="M16 17H15C14.7348 17 14.4804 16.8946 14.2929 16.7071C14.1054 16.5196 14 16.2652 14 16V15C14 14.7348 14.1054 14.4804 14.2929 14.2929C14.4804 14.1054 14.7348 14 15 14H16C16.2652 14 16.5196 14.1054 16.7071 14.2929C16.8946 14.4804 17 14.7348 17 15V16C17 16.2652 16.8946 16.5196 16.7071 16.7071C16.5196 16.8946 16.2652 17 16 17Z" fill="#00416B"/>
<path d="M16 34H15C14.7348 34 14.4804 33.8946 14.2929 33.7071C14.1054 33.5196 14 33.2652 14 33V32C14 31.7348 14.1054 31.4804 14.2929 31.2929C14.4804 31.1054 14.7348 31 15 31H16C16.2652 31 16.5196 31.1054 16.7071 31.2929C16.8946 31.4804 17 31.7348 17 32V33C17 33.2652 16.8946 33.5196 16.7071 33.7071C16.5196 33.8946 16.2652 34 16 34Z" fill="#00416B"/>
</g>
<defs>
<clipPath id="clip0_157_2334">
<rect width="48" height="48" fill="white"/>
</clipPath>
</defs>
</svg>
