<svg width="48" height="48" viewBox="0 0 48 48" fill="none" xmlns="http://www.w3.org/2000/svg">
<g clip-path="url(#clip0_159_2357)">
<path d="M39.9995 18.0005C39.8676 18.0004 39.7369 17.974 39.6153 17.9228L15.6153 7.92285C15.4918 7.87392 15.3793 7.80089 15.2844 7.70802C15.1894 7.61514 15.1139 7.50428 15.0623 7.38191C15.0107 7.25954 14.9839 7.12812 14.9836 6.9953C14.9834 6.86248 15.0095 6.73094 15.0606 6.60835C15.1118 6.48576 15.1868 6.37459 15.2813 6.28131C15.3759 6.18803 15.488 6.11451 15.6113 6.06506C15.7346 6.01561 15.8665 5.99121 15.9993 5.99329C16.1321 5.99536 16.2631 6.02387 16.3848 6.07715L40.3848 16.0771C40.5981 16.1662 40.774 16.3263 40.8826 16.5304C40.9912 16.7345 41.0257 16.9699 40.9804 17.1966C40.935 17.4232 40.8125 17.6272 40.6337 17.7738C40.455 17.9203 40.2309 18.0004 39.9998 18.0005H39.9995Z" fill="#00416B"/>
<path d="M42.0002 16H6.00024C4.89567 16 4.00024 16.8954 4.00024 18V38C4.00024 39.1046 4.89567 40 6.00024 40H42.0002C43.1048 40 44.0002 39.1046 44.0002 38V18C44.0002 16.8954 43.1048 16 42.0002 16Z" fill="#FFD400"/>
<path fill-rule="evenodd" clip-rule="evenodd" d="M44 18.0002V38.0002C44.0001 38.2628 43.9484 38.5229 43.8479 38.7656C43.7474 39.0083 43.6001 39.2288 43.4144 39.4146C43.2286 39.6003 43.0081 39.7476 42.7655 39.8481C42.5228 39.9486 42.2627 40.0002 42 40.0002H21L43.82 17.1802C43.9384 17.4374 43.9998 17.7171 44 18.0002Z" fill="#FFC20E"/>
<path d="M33.0002 34C36.314 34 39.0002 31.3137 39.0002 28C39.0002 24.6863 36.314 22 33.0002 22C29.6865 22 27.0002 24.6863 27.0002 28C27.0002 31.3137 29.6865 34 33.0002 34Z" fill="#CD992B"/>
<path d="M21.0002 27C21.5525 27 22.0002 26.5523 22.0002 26C22.0002 25.4477 21.5525 25 21.0002 25H9.00024C8.44796 25 8.00024 25.4477 8.00024 26C8.00024 26.5523 8.44796 27 9.00024 27H21.0002Z" fill="#00416B"/>
<path d="M21.0002 30.5C21.5525 30.5 22.0002 30.0523 22.0002 29.5C22.0002 28.9477 21.5525 28.5 21.0002 28.5H9.00024C8.44796 28.5 8.00024 28.9477 8.00024 29.5C8.00024 30.0523 8.44796 30.5 9.00024 30.5H21.0002Z" fill="#00416B"/>
<path d="M33.0002 32C35.2094 32 37.0002 30.2091 37.0002 28C37.0002 25.7909 35.2094 24 33.0002 24C30.7911 24 29.0002 25.7909 29.0002 28C29.0002 30.2091 30.7911 32 33.0002 32Z" fill="#FFC20E"/>
<path d="M9.5 14H11.5C11.7652 14 12.0196 14.1054 12.2071 14.2929C12.3946 14.4804 12.5 14.7348 12.5 15V16H8.5V15C8.5 14.7348 8.60536 14.4804 8.79289 14.2929C8.98043 14.1054 9.23478 14 9.5 14Z" fill="#0083CA"/>
</g>
<defs>
<clipPath id="clip0_159_2357">
<rect width="48" height="48" fill="white"/>
</clipPath>
</defs>
</svg>
