<svg width="48" height="48" viewBox="0 0 48 48" fill="none" xmlns="http://www.w3.org/2000/svg">
<g clip-path="url(#clip0_154_2224)">
<path d="M21.5815 36.7345L21.582 18.5634L35.2125 11.2939V29.4389L21.5815 36.7345Z" fill="#FFC20E"/>
<path d="M21.5821 36.7374L21.5815 18.5669L7.95105 11.2974V29.4424L21.5821 36.7374Z" fill="#FFD400"/>
<path d="M7.95154 11.2974L21.582 18.5634L35.2125 11.2939L21.582 4.02441L7.95154 11.2974Z" fill="#CD992B"/>
<path d="M7.95154 11.2973L21.582 4.02783L21.5815 18.5633L7.95154 11.2973Z" fill="#A65718"/>
<path d="M21.5818 18.5638L17.9375 24.392C17.6935 24.7822 17.3105 25.0654 16.8658 25.1842C16.4211 25.3031 15.9478 25.2487 15.5416 25.0322L5.12629 19.4802C4.90636 19.3629 4.71289 19.2017 4.55791 19.0065C4.40293 18.8113 4.28976 18.5864 4.22542 18.3456C4.16108 18.1048 4.14695 17.8533 4.18392 17.6069C4.22088 17.3604 4.30815 17.1242 4.44029 16.9129L7.95129 11.2979L21.5818 18.5638Z" fill="#FFC20E"/>
<path d="M21.5818 18.5638L25.2261 24.392C25.4701 24.7822 25.8532 25.0654 26.2979 25.1842C26.7426 25.3031 27.2158 25.2487 27.622 25.0322L38.0374 19.4802C38.2573 19.3629 38.4508 19.2017 38.6058 19.0065C38.7607 18.8113 38.8739 18.5864 38.9383 18.3456C39.0026 18.1048 39.0167 17.8533 38.9798 17.6069C38.9428 17.3604 38.8555 17.1242 38.7234 16.9129L35.2124 11.2979L21.5818 18.5638Z" fill="#EFAF0F"/>
<path d="M33.4308 32.0165C33.0402 31.626 32.4071 31.626 32.0166 32.0165C31.626 32.4071 31.626 33.0402 32.0166 33.4307L35.9293 37.3435C36.3199 37.734 36.953 37.734 37.3435 37.3435C37.7341 36.953 37.7341 36.3198 37.3435 35.9293L33.4308 32.0165Z" fill="#0083CA"/>
<path d="M35.1397 33.9089L33.9089 35.1397C33.4678 35.5808 33.4678 36.2961 33.9089 36.7373L38.5412 41.3696C38.9824 41.8107 39.6976 41.8107 40.1388 41.3696L41.3696 40.1388C41.8108 39.6976 41.8108 38.9823 41.3696 38.5411L36.7374 33.9089C36.2962 33.4677 35.5809 33.4677 35.1397 33.9089Z" fill="#00416B"/>
<path d="M26.7418 35.434C25.0207 35.434 23.3382 34.9236 21.9071 33.9674C20.4761 33.0112 19.3607 31.6521 18.7021 30.062C18.0434 28.4719 17.8711 26.7222 18.2069 25.0342C18.5427 23.3462 19.3715 21.7956 20.5885 20.5786C21.8055 19.3616 23.356 18.5328 25.0441 18.197C26.7321 17.8612 28.4818 18.0336 30.0719 18.6922C31.662 19.3508 33.0211 20.4662 33.9773 21.8973C34.9335 23.3283 35.4439 25.0108 35.4439 26.7319C35.4413 29.039 34.5236 31.2509 32.8922 32.8823C31.2608 34.5137 29.0489 35.4314 26.7418 35.434ZM26.7418 20.4822C25.5057 20.4822 24.2974 20.8488 23.2696 21.5355C22.2418 22.2222 21.4408 23.1983 20.9678 24.3403C20.4947 25.4822 20.371 26.7389 20.6121 27.9512C20.8533 29.1635 21.4485 30.2771 22.3225 31.1511C23.1966 32.0252 24.3102 32.6204 25.5225 32.8616C26.7348 33.1027 27.9914 32.9789 29.1334 32.5059C30.2754 32.0329 31.2515 31.2318 31.9382 30.2041C32.6249 29.1763 32.9914 27.968 32.9914 26.7319C32.9896 25.0749 32.3305 23.4864 31.1589 22.3148C29.9873 21.1431 28.3987 20.4841 26.7418 20.4822Z" fill="#00416B"/>
</g>
<defs>
<clipPath id="clip0_154_2224">
<rect width="48" height="48" fill="white"/>
</clipPath>
</defs>
</svg>
