<svg width="48" height="48" viewBox="0 0 48 48" fill="none" xmlns="http://www.w3.org/2000/svg">
<g clip-path="url(#clip0_155_2236)">
<path d="M5 32.4476L16.8745 37.7226L28.7495 32.4261V19.2531L16.875 13.9751L5 19.2531V32.4476Z" fill="#FFD400"/>
<path d="M16.875 37.7219V24.5299L28.75 19.2529V32.4259L16.875 37.7219Z" fill="#CD992B"/>
<path d="M16.875 37.7219V24.5299L5 19.2529V32.4259L16.875 37.7219Z" fill="#FFC20E"/>
<path d="M24.5102 21.1641L12.6352 15.8867L9.42383 17.2788L21.2978 22.5567V26.4942C21.2978 26.6047 21.3255 26.7134 21.3784 26.8104C21.4313 26.9074 21.5077 26.9896 21.6006 27.0494C21.6936 27.1092 21.8 27.1447 21.9102 27.1527C22.0204 27.1607 22.1309 27.1408 22.2314 27.095L24.124 26.2327C24.2391 26.1801 24.3367 26.0955 24.4052 25.9891C24.4737 25.8826 24.5101 25.7587 24.5102 25.6321V21.1641Z" fill="#00416B"/>
<path d="M19.25 37.7244L31.1245 42.9999L42.9995 37.7034V24.5299L31.125 19.2529L19.25 24.5299V37.7244Z" fill="#FFD400"/>
<path d="M31.125 42.9998V29.8078L43 24.5298V37.7033L31.125 42.9998Z" fill="#CD992B"/>
<path d="M31.125 42.9998V29.8078L19.25 24.5298V37.7033L31.125 42.9998Z" fill="#FFC20E"/>
<path d="M38.7602 26.4419L26.8852 21.1646L23.6738 22.5562L35.5478 27.8345V31.772C35.5478 31.8824 35.5756 31.9911 35.6285 32.0881C35.6814 32.1851 35.7578 32.2672 35.8507 32.327C35.9437 32.3868 36.0501 32.4223 36.1603 32.4302C36.2705 32.4382 36.3809 32.4184 36.4814 32.3726L38.374 31.51C38.4892 31.4576 38.587 31.3731 38.6555 31.2666C38.724 31.1601 38.7603 31.0361 38.7602 30.9095V26.4419Z" fill="#00416B"/>
<path d="M11.334 22.9583L23.208 28.2333L35.083 22.9373V9.76383L23.209 4.48633L11.334 9.76383V22.9583Z" fill="#FFD400"/>
<path d="M23.2085 28.2337V15.0417L35.0835 9.76367V22.9372L23.2085 28.2337Z" fill="#CD992B"/>
<path d="M23.2085 28.2337V15.0417L11.3335 9.76367V22.9372L23.2085 28.2337Z" fill="#FFC20E"/>
<path d="M30.8437 11.6758L18.9687 6.39795L15.7568 7.79L27.6318 13.0678V17.0053C27.6318 17.1158 27.6594 17.2245 27.7123 17.3214C27.7652 17.4184 27.8416 17.5006 27.9345 17.5603C28.0273 17.6201 28.1337 17.6556 28.2439 17.6636C28.3541 17.6716 28.4645 17.6517 28.565 17.6059L30.4575 16.7436C30.5727 16.6911 30.6703 16.6065 30.7388 16.5C30.8073 16.3936 30.8437 16.2696 30.8438 16.143L30.8437 11.6758Z" fill="#00416B"/>
<path fill-rule="evenodd" clip-rule="evenodd" d="M17.7987 41.7239L24.8972 36.5614H19.8392V26.445C19.8391 26.0617 19.6867 25.6942 19.4157 25.4232C19.1446 25.1522 18.777 25 18.3937 25H15.5035C15.1202 25.0001 14.7528 25.1524 14.4818 25.4233C14.2108 25.6943 14.0586 26.0618 14.0584 26.445V36.5615H9L16.099 41.7239C16.346 41.9033 16.6435 42 16.9489 42C17.2542 42 17.5517 41.9033 17.7987 41.7239Z" fill="#0083CA"/>
</g>
<defs>
<clipPath id="clip0_155_2236">
<rect width="48" height="48" fill="white"/>
</clipPath>
</defs>
</svg>
