<svg width="48" height="48" viewBox="0 0 48 48" fill="none" xmlns="http://www.w3.org/2000/svg">
<g clip-path="url(#clip0_155_2238)">
<path d="M35.7067 32.1952L22.3187 38.1426C22.0549 38.2591 21.7697 38.3192 21.4812 38.3192C21.1928 38.3192 20.9076 38.2591 20.6437 38.1426L7.2508 32.1694C6.8893 32.0069 6.58193 31.7443 6.36506 31.4125C6.14819 31.0808 6.03091 30.6939 6.0271 30.2975V15.8311C6.02893 15.433 6.14529 15.0439 6.36228 14.7101C6.57926 14.3764 6.88771 14.1121 7.2508 13.9489L20.6439 8.0016C20.9071 7.88591 21.1913 7.82617 21.4787 7.82617C21.7662 7.82617 22.0504 7.88591 22.3135 8.0016L35.7067 13.9489C36.0698 14.1121 36.3782 14.3764 36.5952 14.7101C36.8122 15.0439 36.9286 15.433 36.9304 15.8311V30.2975C36.9315 30.6983 36.8166 31.0907 36.5994 31.4275C36.3822 31.7642 36.0722 32.0309 35.7067 32.1952Z" fill="#FFD400"/>
<path d="M21.479 38.5162V21.3582L6.02698 14.4932V31.6252L21.479 38.5162Z" fill="#CD992B"/>
<path d="M21.479 38.5162V21.3582L36.9305 14.4932V31.6252L21.479 38.5162Z" fill="#FFC20E"/>
<path d="M11.3937 16.8733L26.6637 10.0757L30.8118 11.8645L15.5159 18.6622V23.7332C15.5157 23.8755 15.4798 24.0154 15.4116 24.1402C15.3433 24.265 15.2448 24.3707 15.1251 24.4475C15.0054 24.5244 14.8684 24.57 14.7265 24.5802C14.5846 24.5904 14.4424 24.5648 14.313 24.5058L11.876 23.3962C11.723 23.3329 11.5922 23.2258 11.4999 23.0883C11.4077 22.9508 11.3581 22.7892 11.3574 22.6236L11.3937 16.8733Z" fill="#00416B"/>
<path d="M38 30.4564V35.9999L24.6632 39.761C22.9315 40.1939 21.1049 40.0353 19.4738 39.3104L5.12647 32.9338C4.97981 32.8686 4.84788 32.7744 4.73864 32.6568C4.62941 32.5392 4.54515 32.4007 4.49094 32.2497C4.43673 32.0986 4.4137 31.9381 4.42325 31.7779C4.43279 31.6177 4.47471 31.4611 4.54648 31.3176C4.67105 31.0684 4.87925 30.871 5.13468 30.7598C5.3901 30.6486 5.67648 30.6308 5.94372 30.7094L19.0742 34.5713C20.9793 35.1316 23.0044 35.1395 24.9139 34.5939L29 32.9999L24.5888 34.0579C22.8972 34.2996 21.1722 34.0196 19.6438 33.2554C19.195 33.031 18.848 32.6449 18.6725 32.1748C18.497 31.7047 18.5062 31.1856 18.6982 30.722C18.791 30.6291 18.9013 30.5555 19.0226 30.5052C19.144 30.4549 19.274 30.4291 19.4054 30.4291H22.604C24.1789 30.4291 25.7374 30.1092 27.185 29.4888L30.279 28.1628C30.8152 27.933 31.3951 27.8232 31.9782 27.8413C32.5613 27.8593 33.1333 28.0046 33.6543 28.2671L38 30.4564Z" fill="#A65718"/>
<path d="M39 37H38C37.7348 37 37.4804 36.8946 37.2929 36.7071C37.1054 36.5196 37 36.2652 37 36V30C37 29.7348 37.1054 29.4804 37.2929 29.2929C37.4804 29.1054 37.7348 29 38 29H39V37Z" fill="#0083CA"/>
<path d="M40 38H43C43.5523 38 44 37.5523 44 37V29C44 28.4477 43.5523 28 43 28H40C39.4477 28 39 28.4477 39 29V37C39 37.5523 39.4477 38 40 38Z" fill="#00416B"/>
</g>
<defs>
<clipPath id="clip0_155_2238">
<rect width="48" height="48" fill="white"/>
</clipPath>
</defs>
</svg>
