<svg width="48" height="48" viewBox="0 0 48 48" fill="none" xmlns="http://www.w3.org/2000/svg">
<g clip-path="url(#clip0_154_2232)">
<path d="M6.02148 30.8412L22.011 37.9442L38 30.8122V13.0747L22.011 5.96924L6.02148 13.0747V30.8412Z" fill="#FFD400"/>
<path d="M22.011 37.9442V20.1812L38 13.0747V30.8122L22.011 37.9442Z" fill="#CD992B"/>
<path d="M22.011 37.9442V20.1812L6.02148 13.0747V30.8122L22.011 37.9442Z" fill="#FFC20E"/>
<path d="M32.291 15.6484L16.3018 8.54199L11.9771 10.417L27.9668 17.5229V22.825C27.9668 22.9737 28.0041 23.12 28.0753 23.2505C28.1465 23.381 28.2494 23.4915 28.3744 23.5719C28.4995 23.6524 28.6427 23.7001 28.791 23.7108C28.9393 23.7215 29.0879 23.6948 29.2232 23.6331L31.771 22.4724C31.9261 22.4017 32.0575 22.2879 32.1497 22.1445C32.2419 22.0011 32.291 21.8343 32.291 21.6638V15.6484Z" fill="#00416B"/>
<path fill-rule="evenodd" clip-rule="evenodd" d="M35.4297 41.7441L42 36.9658H37.3183V27.602C37.3182 27.2473 37.1772 26.9071 36.9263 26.6563C36.6754 26.4055 36.3352 26.2646 35.9804 26.2646H33.305C32.9503 26.2648 32.6102 26.4057 32.3594 26.6565C32.1086 26.9073 31.9677 27.2474 31.9675 27.602V36.9658H27.2856L33.8564 41.7441C34.0851 41.9103 34.3604 41.9997 34.6431 41.9997C34.9257 41.9997 35.2011 41.9103 35.4297 41.7441Z" fill="#0083CA"/>
</g>
<defs>
<clipPath id="clip0_154_2232">
<rect width="48" height="48" fill="white"/>
</clipPath>
</defs>
</svg>
