<svg width="48" height="48" viewBox="0 0 48 48" fill="none" xmlns="http://www.w3.org/2000/svg">
<path d="M28.5092 8.86551L32.7878 10.6991C33.5232 11.0143 34 11.7373 34 12.5374V27.7186C34 28.3481 33.7056 28.9436 33.1848 29.2974C31.2392 30.6195 28.6796 32.039 26.5 34.2186C24.6393 36.0793 24.1635 38.2171 24.0418 40.2195C23.9748 41.322 23.0812 42.2597 22.0255 41.9347C16.6678 40.2856 16.2003 31.918 18 29.2186H10C7.5 29.2186 4 29.2186 4 24.2187C4 16.7186 7.5 8.21872 16 8.21872H25.358C26.4414 8.21872 27.5135 8.43876 28.5092 8.86551Z" fill="#FFD400"/>
<path d="M36 8.21875H42C43.1046 8.21875 44 9.11418 44 10.2188V30.2188C44 31.3233 43.1046 32.2188 42 32.2188H36C34.8954 32.2188 34 31.3233 34 30.2188V10.2188C34 9.11418 34.8954 8.21875 36 8.21875Z" fill="#00416B"/>
<path d="M37 27C37 25.8954 37.8954 25 39 25C40.1046 25 41 25.8954 41 27C41 28.1046 40.1046 29 39 29C37.8954 29 37 28.1046 37 27Z" fill="#0083CA"/>
<path fill-rule="evenodd" clip-rule="evenodd" d="M17.9562 29.286H33.2017C32.7518 29.5921 32.2688 29.9034 31.765 30.228C30.0879 31.3087 28.1809 32.5376 26.5 34.2186C24.6392 36.0793 24.1634 38.2171 24.0418 40.2195C23.9748 41.322 23.0812 42.2597 22.0255 41.9347C16.7116 40.2991 16.2083 32.0545 17.9562 29.286Z" fill="#FFC20E"/>
</svg>
