<svg width="48" height="48" viewBox="0 0 48 48" fill="none" xmlns="http://www.w3.org/2000/svg">
<g clip-path="url(#clip0_154_2227)">
<path d="M39.9785 30.8412L23.989 37.9442L8 30.8122V13.0752L23.9895 5.96924L39.9785 13.0752V30.8412Z" fill="#FFD400"/>
<path d="M23.989 37.9442L23.9895 20.1817L8 13.0752V30.8122L23.989 37.9442Z" fill="#CD992B"/>
<path d="M23.989 37.9442L23.9895 20.1817L39.9785 13.0752V30.8122L23.989 37.9442Z" fill="#FFC20E"/>
<path d="M13.709 15.6489L29.6982 8.54248L34.0229 10.4175L18.0332 17.5234V22.8257C18.0332 22.9744 17.9959 23.1207 17.9247 23.2512C17.8535 23.3817 17.7506 23.4922 17.6256 23.5726C17.5005 23.6531 17.3573 23.7008 17.209 23.7115C17.0607 23.7222 16.9121 23.6955 16.7768 23.6338L14.229 22.4731C14.0739 22.4024 13.9425 22.2885 13.8503 22.1452C13.7581 22.0018 13.709 21.835 13.709 21.6645V15.6489Z" fill="#A65718"/>
<path d="M41.7071 40.2931L31.8076 30.3936C31.417 30.0031 30.7839 30.0031 30.3934 30.3936C30.0028 30.7842 30.0028 31.4173 30.3934 31.8078L40.2929 41.7073C40.6834 42.0979 41.3165 42.0979 41.7071 41.7073C42.0976 41.3168 42.0976 40.6836 41.7071 40.2931Z" fill="#00416B"/>
<path d="M31.8076 41.7072L41.7071 31.8077C42.0976 31.4172 42.0976 30.784 41.7071 30.3935C41.3166 30.003 40.6834 30.003 40.2929 30.3935L30.3934 40.293C30.0028 40.6835 30.0028 41.3167 30.3934 41.7072C30.7839 42.0977 31.4171 42.0977 31.8076 41.7072Z" fill="#00416B"/>
</g>
<defs>
<clipPath id="clip0_154_2227">
<rect width="48" height="48" fill="white"/>
</clipPath>
</defs>
</svg>
