<svg width="48" height="48" viewBox="0 0 48 48" fill="none" xmlns="http://www.w3.org/2000/svg">
<g clip-path="url(#clip0_156_2323)">
<path d="M42.3531 24C42.3531 27.6299 41.2767 31.1783 39.26 34.1964C37.2434 37.2146 34.377 39.5669 31.0234 40.956C27.6699 42.3451 23.9797 42.7086 20.4195 42.0004C16.8594 41.2923 13.5892 39.5443 11.0225 36.9776C8.45575 34.4109 6.70779 31.1407 5.99963 27.5805C5.29147 24.0204 5.65492 20.3302 7.04402 16.9766C8.43312 13.623 10.7855 10.7567 13.8036 8.74002C16.8218 6.72336 20.3701 5.64697 24 5.64697C26.4102 5.64691 28.7968 6.12159 31.0235 7.0439C33.2502 7.9662 35.2735 9.31807 36.9777 11.0223C38.682 12.7266 40.0339 14.7498 40.9562 16.9765C41.8785 19.2033 42.3531 21.5898 42.3531 24Z" fill="#FFD400"/>
<path d="M42.3531 24C42.3524 27.6126 41.2857 31.1447 39.2867 34.1538C37.2877 37.163 34.4453 39.5154 31.1154 40.9164C27.7855 42.3174 24.1163 42.7048 20.5673 42.0299C17.0183 41.3551 13.7473 39.648 11.1641 37.1226L37.1221 11.1646C40.4807 14.592 42.3591 19.2013 42.3531 24Z" fill="#FFC20E"/>
<path d="M24 44C20.0444 44 16.1776 42.827 12.8886 40.6294C9.59962 38.4318 7.03617 35.3082 5.52242 31.6537C4.00867 27.9992 3.6126 23.9778 4.3843 20.0982C5.15601 16.2186 7.06082 12.6549 9.85787 9.85787C12.6549 7.06082 16.2186 5.15601 20.0982 4.3843C23.9778 3.6126 27.9992 4.00867 31.6537 5.52242C35.3082 7.03617 38.4318 9.59962 40.6294 12.8886C42.827 16.1776 44 20.0444 44 24C43.9941 29.3025 41.8851 34.3862 38.1356 38.1356C34.3862 41.8851 29.3025 43.9941 24 44ZM24 6.35306C20.5098 6.35306 17.0979 7.38803 14.1959 9.32711C11.2939 11.2662 9.03201 14.0223 7.69635 17.2468C6.3607 20.4714 6.01123 24.0196 6.69214 27.4428C7.37305 30.8659 9.05376 34.0103 11.5217 36.4783C13.9897 38.9463 17.1341 40.627 20.5573 41.3079C23.9804 41.9888 27.5286 41.6393 30.7532 40.3037C33.9778 38.968 36.7338 36.7062 38.6729 33.8041C40.612 30.9021 41.647 27.4902 41.647 24C41.6416 19.3214 39.7807 14.8359 36.4724 11.5276C33.1641 8.21933 28.6786 6.35839 24 6.35306Z" fill="#CD992B"/>
<path d="M23.3354 23.3249C23.5503 23.1101 23.8416 22.9895 24.1454 22.9895C24.4492 22.9895 24.7405 23.1101 24.9554 23.3249L34.4677 32.8373C34.5762 32.9432 34.6627 33.0696 34.722 33.2091C34.7813 33.3487 34.8123 33.4986 34.8133 33.6502C34.8142 33.8019 34.785 33.9522 34.7274 34.0924C34.6698 34.2327 34.585 34.3601 34.4777 34.4673C34.3705 34.5746 34.2431 34.6594 34.1028 34.717C33.9626 34.7746 33.8123 34.8038 33.6606 34.8029C33.509 34.8019 33.3591 34.7709 33.2195 34.7116C33.08 34.6523 32.9536 34.5658 32.8477 34.4573L23.3354 24.9452C23.1206 24.7303 23 24.439 23 24.1352C23 23.8314 23.1206 23.5401 23.3354 23.3252" fill="#0083CA"/>
<path d="M24.0102 25C23.7384 24.9932 23.4804 24.8789 23.2929 24.682C23.1054 24.4851 23.0037 24.2218 23.0102 23.95V15.55C23.0036 15.4145 23.0245 15.2791 23.0718 15.152C23.1191 15.0249 23.1916 14.9087 23.2852 14.8105C23.3787 14.7123 23.4912 14.6342 23.6158 14.5807C23.7404 14.5273 23.8746 14.4998 24.0102 14.4998C24.1458 14.4998 24.28 14.5273 24.4047 14.5807C24.5293 14.6342 24.6418 14.7123 24.7353 14.8105C24.8288 14.9087 24.9014 15.0249 24.9487 15.152C24.9959 15.2791 25.0169 15.4145 25.0102 15.55V23.95C25.0167 24.2218 24.915 24.485 24.7275 24.6819C24.54 24.8787 24.282 24.9931 24.0102 25Z" fill="#00416B"/>
</g>
<defs>
<clipPath id="clip0_156_2323">
<rect width="48" height="48" fill="white"/>
</clipPath>
</defs>
</svg>
