<svg width="48" height="48" viewBox="0 0 48 48" fill="none" xmlns="http://www.w3.org/2000/svg">
<g clip-path="url(#clip0_1002_5703)">
<path fill-rule="evenodd" clip-rule="evenodd" d="M43.7719 13.8051L39.5207 8V12.1361H31.1904C30.8748 12.1361 30.5721 12.2606 30.3488 12.4821C30.1256 12.7037 30.0001 13.0043 30 13.3178V15.6822C30.0001 15.9957 30.1256 16.2962 30.3488 16.5178C30.5721 16.7394 30.8748 16.8639 31.1904 16.8639H39.5207V21L43.7719 15.1949C43.9201 14.9932 44 14.7498 44 14.5001C44 14.2503 43.9201 14.0068 43.7719 13.8051Z" fill="#0083CA"/>
<path d="M40 24C40 27.1645 39.0616 30.2579 37.3035 32.8891C35.5454 35.5203 33.0466 37.5711 30.1229 38.7821C27.1993 39.9931 23.9823 40.3099 20.8786 39.6926C17.7749 39.0752 14.9239 37.5513 12.6863 35.3137C10.4487 33.0761 8.92481 30.2251 8.30744 27.1214C7.69008 24.0177 8.00693 20.8007 9.21793 17.8771C10.4289 14.9534 12.4797 12.4546 15.1109 10.6965C17.7421 8.93838 20.8355 8 24 8C28.2435 8 32.3131 9.68571 35.3137 12.6863C38.3143 15.6869 40 19.7565 40 24Z" fill="#FFD400"/>
<path d="M40.0001 24.0001C39.9995 27.1495 39.0697 30.2288 37.327 32.8521C35.5843 35.4755 33.1063 37.5263 30.2034 38.7477C27.3004 39.9691 24.1016 40.3068 21.0076 39.7184C17.9136 39.13 15.062 37.6418 12.8101 35.4401L35.4401 12.8101C38.3678 15.7983 40.0053 19.8166 40.0001 24.0001Z" fill="#FFC20E"/>
<path d="M24 41C20.6377 41 17.351 40.003 14.5553 38.135C11.7597 36.267 9.58075 33.612 8.29406 30.5056C7.00737 27.3993 6.67071 23.9811 7.32666 20.6835C7.98261 17.3858 9.6017 14.3567 11.9792 11.9792C14.3567 9.6017 17.3858 7.98261 20.6835 7.32666C23.9811 6.67071 27.3993 7.00737 30.5056 8.29406C33.612 9.58075 36.267 11.7597 38.135 14.5553C40.003 17.351 41 20.6377 41 24C40.995 28.5071 39.2023 32.8282 36.0153 36.0153C32.8282 39.2023 28.5071 40.995 24 41ZM24 9.00001C21.0333 9.00001 18.1332 9.87974 15.6665 11.528C13.1997 13.1762 11.2771 15.5189 10.1418 18.2598C9.0065 21.0006 8.70945 24.0166 9.28823 26.9264C9.86701 29.8361 11.2956 32.5088 13.3934 34.6066C15.4912 36.7044 18.1639 38.133 21.0737 38.7118C23.9834 39.2906 26.9994 38.9935 29.7403 37.8582C32.4812 36.7229 34.8238 34.8003 36.4721 32.3336C38.1203 29.8668 39 26.9667 39 24C38.9955 20.0231 37.4137 16.2104 34.6016 13.3984C31.7896 10.5863 27.9769 9.00451 24 9.00001Z" fill="#CD992B"/>
<path d="M24 33.5C20.9717 33.5 18 30.7754 18 28H21C21 28.9405 22.4531 30.5 24 30.5C25.49 30.5 27 29.6416 27 28C27 26.155 25.3838 25.5 24 25.5V22.5C27.4766 22.5 30 24.813 30 28C30 31.1357 27.4204 33.5 24 33.5Z" fill="#00416B"/>
<path d="M24 25.5C21.1026 25.5 18 23.29 18 20C18 16.8642 20.5796 14.5 24 14.5C27.0279 14.5 30 17.2246 30 20H27C27 19.0595 25.5469 17.5 24 17.5C22.5093 17.5 21 18.3584 21 20C21 21.5489 22.7471 22.5 24 22.5V25.5Z" fill="#00416B"/>
<path d="M24.5 35.5H23.5C23.2348 35.5 22.9804 35.3946 22.7929 35.2071C22.6054 35.0196 22.5 34.7652 22.5 34.5V33C22.5001 32.7348 22.6055 32.4805 22.793 32.293C22.9805 32.1055 23.2348 32.0001 23.5 32H24.5C24.7652 32.0001 25.0195 32.1055 25.207 32.293C25.3945 32.4805 25.4999 32.7348 25.5 33V34.5C25.5 34.7652 25.3946 35.0196 25.2071 35.2071C25.0196 35.3946 24.7652 35.5 24.5 35.5Z" fill="#00416B"/>
<path d="M24.5 15.5H23.5C23.2348 15.5 22.9804 15.3946 22.7929 15.2071C22.6054 15.0196 22.5 14.7652 22.5 14.5V13C22.5001 12.7348 22.6055 12.4805 22.793 12.293C22.9805 12.1055 23.2348 12.0001 23.5 12H24.5C24.7652 12.0001 25.0195 12.1055 25.207 12.293C25.3945 12.4805 25.4999 12.7348 25.5 13V14.5C25.5 14.7652 25.3946 15.0196 25.2071 15.2071C25.0196 15.3946 24.7652 15.5 24.5 15.5Z" fill="#00416B"/>
<path fill-rule="evenodd" clip-rule="evenodd" d="M4.22808 32.8051L8.47931 27V31.1361H14.8096C15.1252 31.1361 15.4279 31.2606 15.6512 31.4821C15.8744 31.7037 15.9999 32.0043 16 32.3178V34.6822C15.9999 34.9957 15.8744 35.2962 15.6512 35.5178C15.4279 35.7394 15.1252 35.8639 14.8096 35.8639H8.47931V40L4.22808 34.1949C4.07986 33.9932 4 33.7498 4 33.5001C4 33.2503 4.07986 33.0068 4.22808 32.8051Z" fill="#00416B"/>
</g>
<defs>
<clipPath id="clip0_1002_5703">
<rect width="48" height="48" fill="white"/>
</clipPath>
</defs>
</svg>
