<svg width="48" height="48" viewBox="0 0 48 48" fill="none" xmlns="http://www.w3.org/2000/svg">
<g clip-path="url(#clip0_159_2385)">
<path fill-rule="evenodd" clip-rule="evenodd" d="M26.374 19.5064C26.7008 19.2097 26.9419 18.8307 27.0721 18.4089C27.2022 17.9872 27.2167 17.5382 27.114 17.1089C27.0053 16.7712 26.9477 16.4192 26.9431 16.0645C26.9225 15.4351 27.0306 14.8082 27.2607 14.2221C27.4909 13.636 27.8382 13.103 28.2815 12.6558L34.9715 5.96538C35.1555 5.78151 35.405 5.67822 35.6651 5.67822C35.9252 5.67822 36.1747 5.78151 36.3587 5.96538L36.3592 5.96633C36.5501 6.15722 36.6573 6.41611 36.6573 6.68605C36.6573 6.956 36.5501 7.21489 36.3592 7.40578C35.1345 8.63038 32.6614 11.104 31.4549 12.3108C31.3638 12.4018 31.2915 12.51 31.2421 12.629C31.1928 12.748 31.1674 12.8755 31.1674 13.0044C31.1674 13.1332 31.1928 13.2608 31.2421 13.3798C31.2915 13.4988 31.3638 13.6069 31.4549 13.698L31.4553 13.699C31.6463 13.8899 31.9053 13.9971 32.1753 13.9971C32.4454 13.9971 32.7044 13.8899 32.8953 13.699C34.1199 12.4743 36.5931 10.0007 37.7996 8.79398C37.8907 8.70284 37.9988 8.63054 38.1178 8.58121C38.2368 8.53188 38.3644 8.50649 38.4932 8.50649C38.6221 8.50649 38.7496 8.53188 38.8687 8.58121C38.9877 8.63054 39.0958 8.70284 39.1868 8.79398L39.1878 8.79448C39.3787 8.98546 39.486 9.24444 39.486 9.51448C39.486 9.78451 39.3787 10.0435 39.1878 10.2345C37.9632 11.4591 35.4901 13.9323 34.2835 15.1395C34.1924 15.2305 34.1201 15.3386 34.0708 15.4576C34.0215 15.5765 33.9961 15.7041 33.9961 15.8328C33.9961 15.9616 34.0215 16.0892 34.0708 16.2081C34.1201 16.3271 34.1924 16.4352 34.2835 16.5262L34.284 16.5272C34.4749 16.718 34.7338 16.8253 35.0038 16.8253C35.2737 16.8253 35.5326 16.718 35.7235 16.5272C36.9481 15.3026 39.4217 12.8294 40.6285 11.6229C40.7196 11.5317 40.8277 11.4594 40.9467 11.4101C41.0657 11.3608 41.1933 11.3354 41.3221 11.3354C41.451 11.3354 41.5785 11.3608 41.6975 11.4101C41.8166 11.4594 41.9247 11.5317 42.0157 11.6229L42.0162 11.6239C42.1108 11.7183 42.1859 11.8305 42.2371 11.954C42.2883 12.0775 42.3147 12.2099 42.3147 12.3436C42.3147 12.4773 42.2883 12.6097 42.2371 12.7332C42.1859 12.8567 42.1108 12.9689 42.0162 13.0633L35.3525 19.7266C34.9052 20.1698 34.3721 20.5171 33.7859 20.7471C33.1997 20.9772 32.5727 21.0852 31.9433 21.0645C31.5887 21.055 31.2362 21.0077 30.8916 20.9234C30.4675 20.8217 30.0239 20.836 29.6073 20.9647C29.1906 21.0935 28.8163 21.3319 28.5234 21.655C24.4384 26.1125 10.5722 41.4006 10.5722 41.4006C10.3169 41.6822 10.0071 41.909 9.66148 42.0672C9.31588 42.2254 8.94174 42.3118 8.56176 42.321C8.18178 42.3303 7.80388 42.2623 7.45098 42.1211C7.09808 41.9799 6.77754 41.7685 6.5088 41.4997L6.5078 41.4988C6.239 41.23 6.0276 40.9094 5.88643 40.5564C5.74525 40.2035 5.67723 39.8255 5.6865 39.4455C5.69578 39.0655 5.78214 38.6913 5.94036 38.3457C6.09858 38 6.32536 37.6901 6.60695 37.4348C6.60695 37.4348 21.8955 23.5679 26.374 19.5064Z" fill="#FFC20E"/>
<path fill-rule="evenodd" clip-rule="evenodd" d="M39.9717 40.1307C40.1574 39.9451 40.3048 39.7246 40.4053 39.482C40.5058 39.2394 40.5576 38.9793 40.5576 38.7167C40.5576 38.4541 40.5058 38.194 40.4053 37.9514C40.3048 37.7087 40.1574 37.4883 39.9717 37.3026L28.9239 26.2549L24.6812 30.4975C24.6812 30.4975 32.465 38.2806 35.729 41.5453C36.1042 41.9202 36.6129 42.1307 37.1433 42.1307C37.6737 42.1307 38.1824 41.9202 38.5576 41.5453C39.0127 41.0902 39.5166 40.5858 39.9717 40.1307Z" fill="#00416B"/>
<path fill-rule="evenodd" clip-rule="evenodd" d="M31.8506 32.0104C31.9905 32.1502 32.0857 32.3284 32.1243 32.5224C32.1629 32.7164 32.1431 32.9175 32.0674 33.1002C31.9918 33.2829 31.8636 33.4391 31.6991 33.549C31.5347 33.6589 31.3413 33.7175 31.1436 33.7175C30.9458 33.7175 30.7524 33.6589 30.588 33.549C30.4235 33.4391 30.2953 33.2829 30.2197 33.1002C30.144 32.9175 30.1242 32.7164 30.1628 32.5224C30.2014 32.3284 30.2966 32.1502 30.4365 32.0104C30.6241 31.823 30.8784 31.7178 31.1436 31.7178C31.4087 31.7178 31.663 31.823 31.8506 32.0104Z" fill="#FFD400"/>
<path fill-rule="evenodd" clip-rule="evenodd" d="M36.8506 37.0101C36.9905 37.15 37.0857 37.3281 37.1243 37.5221C37.1629 37.7161 37.1431 37.9172 37.0675 38.0999C36.9918 38.2827 36.8636 38.4388 36.6991 38.5487C36.5347 38.6586 36.3413 38.7173 36.1436 38.7173C35.9458 38.7173 35.7524 38.6586 35.588 38.5487C35.4235 38.4388 35.2953 38.2827 35.2197 38.0999C35.144 37.9172 35.1242 37.7161 35.1628 37.5221C35.2014 37.3281 35.2966 37.15 35.4365 37.0101C35.6242 36.8229 35.8785 36.7178 36.1436 36.7178C36.4086 36.7178 36.6629 36.8229 36.8506 37.0101Z" fill="#FFD400"/>
<path fill-rule="evenodd" clip-rule="evenodd" d="M28.9239 26.255L8.75052 6.08154C7.80898 8.50506 7.59277 11.1501 8.12821 13.6944C8.66366 16.2386 9.92764 18.5722 11.7661 20.4106C16.8653 25.5102 23.2671 31.9116 23.2671 31.9116L28.9239 26.255Z" fill="#FFD400"/>
</g>
<defs>
<clipPath id="clip0_159_2385">
<rect width="48" height="48" fill="white"/>
</clipPath>
</defs>
</svg>
