<svg width="48" height="48" viewBox="0 0 48 48" fill="none" xmlns="http://www.w3.org/2000/svg">
<g clip-path="url(#clip0_156_2317)">
<path d="M10.0002 4.00049C9.46981 4.00049 8.9611 4.2112 8.58603 4.58627C8.21096 4.96135 8.00024 5.47006 8.00024 6.00049V42.0005C8.00024 42.5309 8.21096 43.0396 8.58603 43.4147C8.9611 43.7898 9.46981 44.0005 10.0002 44.0005H34.0002C34.5307 44.0005 35.0394 43.7898 35.4145 43.4147C35.7895 43.0396 36.0002 42.5309 36.0002 42.0005V12.0005L28.0002 4.00049H10.0002Z" fill="#FFD400"/>
<path d="M36 15.5V42C36.0001 42.2627 35.9484 42.5228 35.8479 42.7655C35.7474 43.0081 35.6001 43.2286 35.4144 43.4144C35.2286 43.6001 35.0081 43.7474 34.7654 43.8479C34.5228 43.9484 34.2626 44.0001 34 44H9.99999C9.67739 44.0003 9.35955 43.9222 9.07386 43.7724C8.78816 43.6226 8.54317 43.4055 8.35999 43.14L36 15.5Z" fill="#FFC20E"/>
<path d="M31.0002 16.0005C31.5525 16.0005 32.0002 15.5528 32.0002 15.0005C32.0002 14.4482 31.5525 14.0005 31.0002 14.0005L13.0002 14.0005C12.448 14.0005 12.0002 14.4482 12.0002 15.0005C12.0002 15.5528 12.448 16.0005 13.0002 16.0005H31.0002Z" fill="#00416B"/>
<path d="M31.0002 20.0005C31.5525 20.0005 32.0002 19.5528 32.0002 19.0005C32.0002 18.4482 31.5525 18.0005 31.0002 18.0005H13.0002C12.448 18.0005 12.0002 18.4482 12.0002 19.0005C12.0002 19.5528 12.448 20.0005 13.0002 20.0005H31.0002Z" fill="#00416B"/>
<path d="M36.0002 12.0005H30.0002C29.4698 12.0005 28.9611 11.7898 28.586 11.4147C28.211 11.0396 28.0002 10.5309 28.0002 10.0005V4.00049L36.0002 12.0005Z" fill="#CD992B"/>
<path d="M15.5454 29.1817C16.4024 29.1817 17 29.6613 17 30.0909H19C19 28.8082 18.0073 27.7183 16.6362 27.3331V27C16.6362 26.7348 16.5309 26.4804 16.3433 26.2929C16.1558 26.1054 15.9014 26 15.6362 26H15.4544C15.1892 26 14.9348 26.1054 14.7473 26.2929C14.5597 26.4804 14.4544 26.7348 14.4544 27V27.333C13.0835 27.718 12.0908 28.808 12.0908 30.0908C12.0908 31.695 13.6404 33 15.5454 33C16.4024 33 17 33.4796 17 33.9093C17 34.339 16.4024 34.818 15.5454 34.818C14.6885 34.818 14.0908 34.339 14.0908 33.9093H12.0908C12.0908 35.192 13.0835 36.2813 14.4544 36.6671V37C14.4544 37.2652 14.5597 37.5196 14.7473 37.7071C14.9348 37.8946 15.1892 38 15.4544 38H15.6362C15.9014 38 16.1558 37.8946 16.3433 37.7071C16.5309 37.5196 16.6362 37.2652 16.6362 37V36.667C18.0073 36.2814 19 35.192 19 33.9093C19 32.3058 17.4505 31 15.5454 31C14.6885 31 14.0908 30.521 14.0908 30.0908C14.0908 29.6606 14.6885 29.1817 15.5454 29.1817" fill="#004169"/>
<path d="M38.0214 23.5H28.4786C27.3859 23.5 26.5 24.3859 26.5 25.4787V38.0214C26.5 39.1141 27.3859 40 28.4786 40H38.0214C39.1141 40 40 39.1141 40 38.0214V25.4787C40 24.3859 39.1141 23.5 38.0214 23.5Z" fill="#00416B"/>
<path d="M29.5 34C30.0523 34 30.5 33.5523 30.5 33C30.5 32.4477 30.0523 32 29.5 32C28.9477 32 28.5 32.4477 28.5 33C28.5 33.5523 28.9477 34 29.5 34Z" fill="#FFD400"/>
<path d="M33.5 34C34.0523 34 34.5 33.5523 34.5 33C34.5 32.4477 34.0523 32 33.5 32C32.9477 32 32.5 32.4477 32.5 33C32.5 33.5523 32.9477 34 33.5 34Z" fill="#FFD400"/>
<path d="M29.5 38C30.0523 38 30.5 37.5523 30.5 37C30.5 36.4477 30.0523 36 29.5 36C28.9477 36 28.5 36.4477 28.5 37C28.5 37.5523 28.9477 38 29.5 38Z" fill="#FFD400"/>
<path d="M33.5 38C34.0523 38 34.5 37.5523 34.5 37C34.5 36.4477 34.0523 36 33.5 36C32.9477 36 32.5 36.4477 32.5 37C32.5 37.5523 32.9477 38 33.5 38Z" fill="#FFD400"/>
<path d="M38 33C38 32.4477 37.5523 32 37 32C36.4477 32 36 32.4477 36 33V37C36 37.5523 36.4477 38 37 38C37.5523 38 38 37.5523 38 37V33Z" fill="#FFD400"/>
<path d="M37 25.5H29.5C28.9477 25.5 28.5 25.9477 28.5 26.5V28.5C28.5 29.0523 28.9477 29.5 29.5 29.5H37C37.5523 29.5 38 29.0523 38 28.5V26.5C38 25.9477 37.5523 25.5 37 25.5Z" fill="#0083CA"/>
</g>
<defs>
<clipPath id="clip0_156_2317">
<rect width="48" height="48" fill="white"/>
</clipPath>
</defs>
</svg>
