<svg width="48" height="48" viewBox="0 0 48 48" fill="none" xmlns="http://www.w3.org/2000/svg">
<g clip-path="url(#clip0_157_2335)">
<path fill-rule="evenodd" clip-rule="evenodd" d="M21.6131 25.5293C21.9824 25.5505 22.3438 25.6452 22.676 25.8078C23.0082 25.9705 23.3046 26.1978 23.5478 26.4765L27.9565 32.1043C28.1547 32.3807 28.2614 32.7122 28.2614 33.0522C28.2614 33.3923 28.1547 33.7238 27.9565 34.0001L23.5478 39.6287C23.3046 39.9075 23.0082 40.1349 22.676 40.2975C22.3438 40.4602 21.9824 40.5549 21.6131 40.576H7.199C6.88147 40.5743 6.57744 40.4473 6.35294 40.2228C6.12844 39.9982 6.00162 39.6941 6 39.3766V26.7279C6.00168 26.4105 6.12856 26.1065 6.35306 25.8821C6.57757 25.6576 6.88156 25.5309 7.199 25.5293H21.6131Z" fill="#FFC20E"/>
<path fill-rule="evenodd" clip-rule="evenodd" d="M15.2021 22.5695H21.5278C22.335 22.5749 23.1327 22.7452 23.8717 23.0699C24.6428 23.4365 25.3186 23.9767 25.846 24.6481L25.8436 24.6497L29.8886 29.8062C30.1413 30.1276 30.5114 30.3354 30.9173 30.384C31.3233 30.4326 31.7319 30.3179 32.0533 30.0652C32.3747 29.8124 32.5826 29.4424 32.6311 29.0364C32.6797 28.6305 32.565 28.2218 32.3123 27.9004L28.2673 22.744L28.2649 22.7456L28.2493 22.7252C27.4214 21.6772 26.3603 20.837 25.1505 20.2714C24.0322 19.7727 22.8236 19.5081 21.5992 19.4941H15.2021C15.0001 19.4941 14.8002 19.5339 14.6136 19.6112C14.427 19.6885 14.2575 19.8017 14.1147 19.9445C13.9719 20.0873 13.8586 20.2569 13.7814 20.4434C13.7041 20.63 13.6643 20.83 13.6643 21.0319C13.6643 21.2338 13.7041 21.4338 13.7814 21.6204C13.8586 21.8069 13.9719 21.9765 14.1147 22.1192C14.2575 22.262 14.427 22.3753 14.6136 22.4526C14.8002 22.5299 15.0001 22.5696 15.2021 22.5696V22.5695Z" fill="#00416B"/>
<path fill-rule="evenodd" clip-rule="evenodd" d="M15.2021 10.5755C14.7942 10.5755 14.4031 10.4135 14.1147 10.1251C13.8263 9.83672 13.6643 9.44559 13.6643 9.03775C13.6643 8.62991 13.8263 8.23878 14.1147 7.9504C14.4031 7.66201 14.7942 7.5 15.2021 7.5L21.6497 7.5008C24.6073 7.53771 27.5261 8.17958 30.2263 9.3869C33.1438 10.7592 35.7009 12.7931 37.6946 15.327L41.6788 20.4907C41.8024 20.6506 41.8933 20.8333 41.9462 21.0283C41.9992 21.2234 42.0132 21.427 41.9875 21.6274C41.9618 21.8279 41.8969 22.0213 41.7964 22.1967C41.6959 22.3721 41.5619 22.5259 41.402 22.6495C41.2421 22.7731 41.0593 22.864 40.8643 22.9169C40.6693 22.9699 40.4657 22.9839 40.2652 22.9582C40.0647 22.9325 39.8713 22.8676 39.6959 22.7671C39.5206 22.6667 39.3667 22.5326 39.2431 22.3727L35.2905 17.2496C33.594 15.091 31.4182 13.357 28.9355 12.185C26.6181 11.1528 24.1142 10.6053 21.5775 10.5763L15.2021 10.5755Z" fill="#0083CA"/>
<path fill-rule="evenodd" clip-rule="evenodd" d="M15.202 16.5729H21.577C23.2429 16.5913 24.8875 16.9502 26.4095 17.6276C28.0428 18.3998 29.4733 19.5424 30.5874 20.9645L30.599 20.9785L34.5833 26.0832C34.8343 26.4047 35.2027 26.6133 35.6075 26.6631C36.0123 26.7129 36.4203 26.5998 36.7418 26.3488C37.0632 26.0978 37.2718 25.7294 37.3216 25.3246C37.3714 24.9198 37.2584 24.5118 37.0074 24.1903L33.025 19.0884C33.0086 19.0656 32.9925 19.0443 32.975 19.0227C31.5669 17.2336 29.7607 15.7978 27.7 14.8296C25.7953 13.977 23.736 13.5237 21.6493 13.4979L15.2017 13.4971C14.999 13.496 14.798 13.5349 14.6104 13.6117C14.4229 13.6885 14.2523 13.8016 14.1086 13.9446C13.9648 14.0875 13.8508 14.2575 13.773 14.4446C13.6952 14.6318 13.6551 14.8325 13.6552 15.0352C13.6552 15.2379 13.6953 15.4386 13.7731 15.6258C13.851 15.8129 13.9651 15.9828 14.1089 16.1258C14.2526 16.2687 14.4232 16.3817 14.6108 16.4585C14.7984 16.5352 14.9994 16.5741 15.2021 16.5729H15.202Z" fill="#0083CA"/>
</g>
<defs>
<clipPath id="clip0_157_2335">
<rect width="48" height="48" fill="white"/>
</clipPath>
</defs>
</svg>
