<svg width="48" height="48" viewBox="0 0 48 48" fill="none" xmlns="http://www.w3.org/2000/svg">
<g clip-path="url(#clip0_159_2379)">
<path d="M29.9561 5.99806C29.2899 5.95477 28.6208 5.99876 27.966 6.12891V6.19581C27.966 7.25667 27.5446 8.27409 26.7945 9.02424C26.0443 9.77438 25.0269 10.1958 23.966 10.1958C22.9052 10.1958 21.8878 9.77438 21.1376 9.02424C20.3875 8.27409 19.966 7.25667 19.966 6.19581V6.12891C19.3113 5.99875 18.6423 5.95476 17.976 5.99806H13.9688C13.4388 5.99962 12.931 6.21083 12.5563 6.58556C12.1815 6.9603 11.9703 7.4681 11.9688 7.99806V40C11.9703 40.53 12.1815 41.0378 12.5563 41.4125C12.931 41.7872 13.4388 41.9985 13.9688 42H33.9633C34.4933 41.9985 35.0011 41.7872 35.3758 41.4125C35.7506 41.0378 35.9618 40.53 35.9633 40V7.99806C35.9618 7.4681 35.7506 6.9603 35.3758 6.58556C35.0011 6.21083 34.4933 5.99962 33.9633 5.99806H29.9561Z" fill="#FFD400"/>
<path d="M35.9634 7.99854C35.9634 6.89854 35.6073 5.99854 35.1721 5.99854C34.7369 5.99854 34.3675 6.00354 34.3511 6.00974C34.3348 6.01594 33.8461 6.78549 33.2661 7.71974L13.0242 40.3016C12.4437 41.236 12.8688 42.0005 13.9688 42.0005H33.9634C34.4933 41.9989 35.0011 41.7877 35.3759 41.413C35.7506 41.0382 35.9618 40.5304 35.9634 40.0005V7.99854Z" fill="#FFC20E"/>
<path d="M29.9561 5.99854H27.9561C27.959 6.06444 27.9661 6.12938 27.9661 6.19628C27.9661 7.25715 27.5446 8.27457 26.7945 9.02471C26.0443 9.77486 25.0269 10.1963 23.9661 10.1963C22.9052 10.1963 21.8878 9.77486 21.1376 9.02471C20.3875 8.27457 19.9661 7.25715 19.9661 6.19628C19.9661 6.12938 19.9729 6.06444 19.9761 5.99854H17.9761C17.9741 6.06444 17.9661 6.12938 17.9661 6.19628C17.9661 7.78758 18.5982 9.31371 19.7234 10.4389C20.8486 11.5641 22.3748 12.1963 23.9661 12.1963C25.5574 12.1963 27.0835 11.5641 28.2087 10.4389C29.3339 9.31371 29.9661 7.78758 29.9661 6.19628C29.9658 6.12938 29.958 6.06444 29.9561 5.99854Z" fill="#00416B"/>
<path d="M32.1477 9.60755L35.1789 6.57633C35.554 6.20126 36.0627 5.99054 36.5931 5.99054C37.1236 5.99054 37.6323 6.20126 38.0073 6.57633L43.2733 11.8423C43.459 12.028 43.6063 12.2485 43.7069 12.4911C43.8074 12.7338 43.8591 12.9939 43.8591 13.2565C43.8591 13.5192 43.8074 13.7792 43.7069 14.0219C43.6063 14.2645 43.459 14.485 43.2733 14.6707L40.2424 17.7017C39.8673 18.0767 39.3586 18.2875 38.8282 18.2875C38.2977 18.2875 37.789 18.0767 37.4139 17.7017L32.148 12.4357C31.773 12.0607 31.5622 11.552 31.5622 11.0217C31.5621 10.4913 31.7727 9.98265 32.1477 9.60755Z" fill="#FFC20E"/>
<path d="M32.1477 9.60755L35.1789 6.57633C35.554 6.20126 36.0627 5.99054 36.5931 5.99054C37.1236 5.99054 37.6323 6.20126 38.0073 6.57633L43.2733 11.8423C43.459 12.028 43.6063 12.2485 43.7069 12.4911C43.8074 12.7338 43.8591 12.9939 43.8591 13.2565C43.8591 13.5192 43.8074 13.7792 43.7069 14.0219C43.6063 14.2645 43.459 14.485 43.2733 14.6707L40.2424 17.7017C39.8673 18.0767 39.3586 18.2875 38.8282 18.2875C38.2977 18.2875 37.789 18.0767 37.4139 17.7017L32.148 12.4357C31.773 12.0607 31.5622 11.552 31.5622 11.0217C31.5621 10.4913 31.7727 9.98265 32.1477 9.60755Z" fill="#00416B"/>
<path d="M4.72663 11.8422L9.99275 6.57608C10.1785 6.39036 10.3989 6.24304 10.6416 6.14254C10.8842 6.04203 11.1443 5.9903 11.407 5.9903C11.6696 5.9903 11.9297 6.04203 12.1723 6.14254C12.415 6.24305 12.6355 6.39037 12.8212 6.57609L15.8523 9.60721C16.2274 9.98228 16.4381 10.491 16.4381 11.0214C16.4381 11.5519 16.2274 12.0606 15.8523 12.4356L10.5864 17.7015C10.2113 18.0766 9.70263 18.2873 9.1722 18.2873C8.64177 18.2873 8.13306 18.0766 7.75799 17.7015L4.72659 14.6701C4.35152 14.295 4.1408 13.7863 4.14081 13.2559C4.14081 12.7254 4.35152 12.2167 4.72659 11.8416L4.72663 11.8422Z" fill="#FFD400"/>
<path d="M17.2666 5.99854H11.311V12.1391H17.2666V5.99854Z" fill="#FFD400"/>
<path d="M4.72663 11.8422L9.99275 6.57608C10.1785 6.39036 10.3989 6.24304 10.6416 6.14254C10.8842 6.04203 11.1443 5.9903 11.407 5.9903C11.6696 5.9903 11.9297 6.04203 12.1723 6.14254C12.415 6.24305 12.6355 6.39037 12.8212 6.57609L15.8523 9.60721C16.2274 9.98228 16.4381 10.491 16.4381 11.0214C16.4381 11.5519 16.2274 12.0606 15.8523 12.4356L10.5864 17.7015C10.2113 18.0766 9.70263 18.2873 9.1722 18.2873C8.64177 18.2873 8.13306 18.0766 7.75799 17.7015L4.72659 14.6701C4.35152 14.295 4.1408 13.7863 4.14081 13.2559C4.14081 12.7254 4.35152 12.2167 4.72659 11.8416L4.72663 11.8422Z" fill="#00416B"/>
<path d="M14.4649 17.4512C14.4416 17.213 14.5122 16.9752 14.6617 16.7884C14.8112 16.6016 15.0278 16.4806 15.2652 16.4512H21.6652C21.9027 16.4806 22.1192 16.6016 22.2687 16.7884C22.4181 16.9752 22.4887 17.2131 22.4652 17.4512C22.4889 17.6893 22.4184 17.9272 22.2689 18.1141C22.1194 18.3009 21.9028 18.4219 21.6652 18.4512H15.2649C15.0274 18.4219 14.8107 18.3009 14.6612 18.1141C14.5117 17.9272 14.4411 17.6893 14.4646 17.4512" fill="#0083CA"/>
<path d="M36.789 9.40185L32 9.5L34.3215 6.02085L36.789 6.00635V9.40185Z" fill="#FFC20E"/>
</g>
<defs>
<clipPath id="clip0_159_2379">
<rect width="48" height="48" fill="white"/>
</clipPath>
</defs>
</svg>
