<svg width="48" height="48" viewBox="0 0 48 48" fill="none" xmlns="http://www.w3.org/2000/svg">
<g clip-path="url(#clip0_159_2367)">
<path d="M30 7.80015V40.2001C29.9972 40.4395 29.9472 40.676 29.8529 40.896C29.7586 41.1161 29.6219 41.3154 29.4506 41.4825C29.2792 41.6497 29.0766 41.7815 28.8543 41.8703C28.632 41.9591 28.3944 42.0032 28.155 42.0001H7.845C7.60563 42.0032 7.36801 41.9591 7.1457 41.8703C6.9234 41.7815 6.72079 41.6497 6.54944 41.4825C6.37809 41.3154 6.24137 41.1161 6.14709 40.896C6.05281 40.676 6.00283 40.4395 6 40.2001V7.80015C6.00283 7.56078 6.05281 7.32432 6.14709 7.10427C6.24137 6.88423 6.37809 6.68493 6.54944 6.51776C6.72079 6.35059 6.9234 6.21883 7.1457 6.13002C7.36801 6.0412 7.60563 5.99707 7.845 6.00015H28.155C28.3978 5.99883 28.6385 6.04541 28.8633 6.13721C29.0881 6.22901 29.2925 6.36424 29.465 6.53515C29.635 6.69895 29.77 6.89548 29.862 7.11289C29.9539 7.33031 30.0009 7.56409 30 7.80015Z" fill="#CD992B"/>
<path d="M32 8V40C32.0001 40.2627 31.9484 40.5228 31.8479 40.7655C31.7474 41.0081 31.6001 41.2286 31.4144 41.4144C31.2286 41.6001 31.0081 41.7474 30.7655 41.8479C30.5228 41.9484 30.2627 42.0001 30 42H10C9.73726 42.0004 9.47702 41.9489 9.23421 41.8485C8.99139 41.7481 8.77077 41.6008 8.58498 41.415C8.39919 41.2292 8.25189 41.0086 8.15151 40.7658C8.05112 40.523 7.99964 40.2627 8 40V8C7.99993 7.73734 8.05161 7.47723 8.1521 7.23455C8.25258 6.99186 8.3999 6.77136 8.58563 6.58563C8.77136 6.39989 8.99187 6.25258 9.23455 6.15209C9.47723 6.05161 9.73734 5.99993 10 6H30C30.2627 5.99993 30.5228 6.05161 30.7655 6.15209C31.0081 6.25258 31.2286 6.39989 31.4144 6.58563C31.6001 6.77136 31.7474 6.99186 31.8479 7.23455C31.9484 7.47723 32.0001 7.73734 32 8Z" fill="#FFD400"/>
<path d="M32 18V40C32 40.2627 31.9483 40.5228 31.8479 40.7655C31.7474 41.0081 31.6001 41.2286 31.4143 41.4144C31.2286 41.6001 31.0081 41.7474 30.7654 41.8479C30.5227 41.9484 30.2626 42.0001 30 42H9.99996C9.46964 41.999 8.96114 41.7888 8.58496 41.415L32 18Z" fill="#FFC20E"/>
<path d="M12 26C13.1046 26 14 25.1046 14 24C14 22.8954 13.1046 22 12 22C10.8954 22 10 22.8954 10 24C10 25.1046 10.8954 26 12 26Z" fill="#0083CA"/>
<path fill-rule="evenodd" clip-rule="evenodd" d="M41.1445 22.8237L34 13V20H20C19.4696 20 18.9609 20.2107 18.5858 20.5858C18.2107 20.9609 18 21.4696 18 22V26C18 26.5304 18.2107 27.0391 18.5858 27.4142C18.9609 27.7893 19.4696 28 20 28H34V35L41.1445 25.1763C41.3931 24.8345 41.527 24.4227 41.527 24C41.527 23.5773 41.3931 23.1655 41.1445 22.8237Z" fill="#00416B"/>
</g>
<defs>
<clipPath id="clip0_159_2367">
<rect width="48" height="48" fill="white"/>
</clipPath>
</defs>
</svg>
