<svg width="48" height="48" viewBox="0 0 48 48" fill="none" xmlns="http://www.w3.org/2000/svg">
<g clip-path="url(#clip0_159_2398)">
<path d="M6 11C12 9.5 24 4 24 4V42C24 42 6 38 6 11Z" fill="#CD992B"/>
<path d="M42 11C36 9.5 24 4 24 4V42C24 42 42 38 42 11Z" fill="#A65718"/>
<path d="M6 13C12 11.5 24 6 24 6V44C24 44 6 40 6 13Z" fill="#FFD400"/>
<path d="M42 13C36 11.5 24 6 24 6V44C24 44 42 40 42 13Z" fill="#FFC20E"/>
<path fill-rule="evenodd" clip-rule="evenodd" d="M29.5 21.6751V19.8501C29.5 18.3914 28.9205 16.9925 27.8891 15.961C26.8576 14.9296 25.4587 14.3501 24 14.3501C22.5413 14.3501 21.1424 14.9296 20.1109 15.961C19.0795 16.9925 18.5 18.3914 18.5 19.8501V21.6751C17.9159 21.882 17.4101 22.2647 17.052 22.7704C16.6939 23.2762 16.5011 23.8804 16.5 24.5001V31.0001C16.5009 31.7955 16.8172 32.558 17.3796 33.1205C17.9421 33.6829 18.7046 33.9992 19.5 34.0001H28.5C29.2954 33.9992 30.0579 33.6829 30.6204 33.1205C31.1828 32.558 31.4991 31.7955 31.5 31.0001V24.5001C31.4989 23.8804 31.3061 23.2762 30.948 22.7704C30.5899 22.2647 30.0841 21.882 29.5 21.6751ZM24 16.3501C24.9279 16.3512 25.8175 16.7203 26.4736 17.3765C27.1298 18.0326 27.4989 18.9222 27.5 19.8501V21.5001H20.5V19.8501C20.5011 18.9222 20.8702 18.0326 21.5264 17.3765C22.1825 16.7203 23.0721 16.3512 24 16.3501ZM29.5 31.0001C29.4997 31.2652 29.3943 31.5194 29.2068 31.7069C29.0193 31.8944 28.7651 31.9998 28.5 32.0001H19.5C19.2348 31.9999 18.9806 31.8945 18.7931 31.707C18.6056 31.5195 18.5002 31.2653 18.5 31.0001V24.5001C18.5003 24.235 18.6057 23.9808 18.7932 23.7933C18.9807 23.6058 19.2349 23.5004 19.5 23.5001H28.5C28.7651 23.5005 29.0193 23.6059 29.2067 23.7934C29.3942 23.9808 29.4996 24.235 29.5 24.5001V31.0001Z" fill="#00416B"/>
<path fill-rule="evenodd" clip-rule="evenodd" d="M24 25.5703C23.716 25.5699 23.4382 25.6542 23.2023 25.8124C22.9664 25.9707 22.7831 26.1957 22.6757 26.4587C22.5684 26.7217 22.5419 27.0107 22.5997 27.2888C22.6574 27.5669 22.7968 27.8215 23 28.02V28.9937C23 29.2589 23.1054 29.5132 23.2929 29.7008C23.4805 29.8883 23.7348 29.9937 24 29.9937C24.2652 29.9937 24.5196 29.8883 24.7071 29.7008C24.8947 29.5132 25 29.2589 25 28.9937V28.02C25.2031 27.8215 25.3423 27.5669 25.4 27.2888C25.4576 27.0108 25.4311 26.7218 25.3238 26.4589C25.2164 26.196 25.0332 25.971 24.7974 25.8127C24.5616 25.6545 24.284 25.5701 24 25.5703Z" fill="#0083CA"/>
</g>
<defs>
<clipPath id="clip0_159_2398">
<rect width="48" height="48" fill="white"/>
</clipPath>
</defs>
</svg>
