<svg width="48" height="48" viewBox="0 0 48 48" fill="none" xmlns="http://www.w3.org/2000/svg">
<g clip-path="url(#clip0_156_2313)">
<path d="M28.7182 8.1154C24.41 7.59835 20.2988 8.84735 17.1029 11.2885L36.7648 36.5265C39.9477 33.9974 42.1751 30.2632 42.6977 25.908V25.9075C43.7506 17.134 37.4917 9.1682 28.7182 8.11545V8.1154Z" fill="#FFD400"/>
<path d="M21.5 39.8132C25.9183 39.8132 29.9183 38.0223 32.8137 35.1269L10.1863 12.4995C7.2909 15.395 5.5 19.395 5.5 23.8132C5.5 32.6498 12.6635 39.8132 21.5 39.8132Z" fill="#FFD400"/>
<path d="M32.8129 35.1258L21.6251 23.938L10.3101 35.2529C13.2995 38.1755 17.3139 39.8123 21.4946 39.813C25.9146 39.8137 29.9164 38.0224 32.813 35.1258L32.8129 35.1258Z" fill="#FFC20E"/>
<path d="M21.5 40.8128C26.1922 40.8075 30.4396 38.9037 33.5152 35.828L32.1066 34.4194C29.3921 37.1339 25.6421 38.8128 21.5 38.8128C13.2157 38.8128 6.5 32.097 6.5 23.8128C6.5 19.6706 8.1789 15.9207 10.8934 13.2062L9.4792 11.792C6.4028 14.8684 4.5 19.1184 4.5 23.8128C4.5 33.2016 12.1111 40.8128 21.5 40.8128Z" fill="#CD992B"/>
<path d="M15.5 19.813C15.5 23.103 18.6026 25.313 21.5 25.313C22.2611 25.313 23.091 25.5129 23.6852 25.9982L15.7793 18.0923C15.5988 18.6297 15.5 19.2063 15.5 19.813Z" fill="#00416B"/>
<path d="M20 33.0909V34.313C20 34.8653 20.4477 35.313 21 35.313H22C22.5523 35.313 23 34.8653 23 34.313V33.1468C25.0415 32.6986 26.6077 31.3456 27.2184 29.5313L23.9942 26.3071C24.304 26.6826 24.5 27.1752 24.5 27.8129C24.5 29.4545 22.99 30.3129 21.5 30.3129C19.9531 30.3129 18.5 28.7534 18.5 27.8129H15.5C15.5 30.1241 17.562 32.394 20 33.0908V33.0909Z" fill="#00416B"/>
<path d="M27.0414 24.0455L36.7637 36.5251C39.9462 33.9962 42.1737 30.2627 42.6972 25.908C43.2012 21.7549 42.0541 17.57 39.5029 14.2544L27.0414 24.0455Z" fill="#FFC20E"/>
<path d="M28.837 7.12259C24.2562 6.57289 19.885 7.90229 16.4884 10.4997L17.7175 12.0773C20.7124 9.79274 24.5634 8.62419 28.5988 9.10844C36.819 10.1046 42.6818 17.5665 41.7047 25.7891C41.2151 29.8686 39.13 33.3666 36.1503 35.7375L37.3747 37.3092C40.7597 34.6226 43.13 30.6551 43.6906 26.0269C44.8091 16.7049 38.1589 8.24114 28.837 7.12259Z" fill="#CD992B"/>
<path d="M29.3825 14.9588C29.406 14.8915 29.4238 14.8214 29.4325 14.7478L29.6113 13.2588L29.6114 13.2579C29.6769 12.7098 29.2858 12.2125 28.7377 12.1469L27.7446 12.0278L27.7437 12.0277C27.1957 11.9621 26.6983 12.3532 26.6327 12.9012L26.454 14.3905C26.4474 14.4457 26.4486 14.4998 26.4509 14.5536C24.439 14.7434 22.7633 15.8245 21.9061 17.4538L24.4874 20.7672C24.3344 20.4342 24.2619 20.0661 24.309 19.6721C24.5048 18.0426 26.1054 17.3704 27.5858 17.5476C29.1215 17.7322 30.3788 19.4534 30.2665 20.3869L33.245 20.7444C33.5212 18.4419 31.7314 15.9337 29.3825 14.9587L29.3825 14.9588Z" fill="#00416B"/>
<path d="M32.2919 28.688C32.6718 25.5235 30.4418 22.9263 26.9902 22.5122L26.9819 22.5807L26.9901 22.5124C26.4038 22.4419 25.7357 22.1467 25.2103 21.6953L31.8644 30.2366C32.0766 29.7589 32.2254 29.2418 32.2919 28.688H32.2919Z" fill="#00416B"/>
</g>
<defs>
<clipPath id="clip0_156_2313">
<rect width="48" height="48" fill="white"/>
</clipPath>
</defs>
</svg>
