<svg width="48" height="48" viewBox="0 0 48 48" fill="none" xmlns="http://www.w3.org/2000/svg">
<g clip-path="url(#clip0_159_2394)">
<path d="M24 10C25.1046 10 26 9.10457 26 8C26 6.89543 25.1046 6 24 6C22.8954 6 22 6.89543 22 8C22 9.10457 22.8954 10 24 10Z" fill="#0083CA"/>
<path d="M24 42C25.6569 42 27 40.6569 27 39C27 37.3431 25.6569 36 24 36C22.3431 36 21 37.3431 21 39C21 40.6569 22.3431 42 24 42Z" fill="#00416B"/>
<path d="M41.9778 35.6577C41.9198 35.2147 41.7615 34.7907 41.5151 34.418C41.2686 34.0453 40.9405 33.7337 40.5555 33.5068L40.5606 33.5023C37.826 31.834 36 26.4358 36 22.9998V19.9998C35.9999 16.9678 34.8522 14.0482 32.7875 11.8278C30.7227 9.6074 27.894 8.25088 24.87 8.03087C24.5774 8.00992 24.2878 8.00347 24 8.00342C23.7122 8.00337 23.4225 8.00992 23.13 8.03087C20.106 8.25088 17.2773 9.6074 15.2125 11.8278C13.1478 14.0482 12.0001 16.9678 12 19.9998V22.9998C12 26.4358 10.174 31.834 7.4397 33.5023L7.44445 33.5068C7.05952 33.7337 6.73137 34.0453 6.48492 34.418C6.23848 34.7907 6.08023 35.2147 6.0222 35.6577C5.97033 36.0796 6.00861 36.5077 6.13452 36.9136C6.26043 37.3196 6.47109 37.6942 6.75258 38.0127C7.03407 38.3312 7.37997 38.5863 7.76739 38.7611C8.15482 38.9359 8.57495 39.0265 9 39.0269H39C39.425 39.0265 39.8452 38.9359 40.2326 38.7611C40.62 38.5863 40.9659 38.3312 41.2474 38.0127C41.5289 37.6942 41.7396 37.3196 41.8655 36.9136C41.9914 36.5077 42.0297 36.0796 41.9778 35.6577Z" fill="#FFD400"/>
<path d="M39 39.0251H12.475L35.36 16.1401C35.7851 17.3826 36.0014 18.6869 36 20.0001V23.0001C36 26.4351 37.825 31.8301 40.555 33.5051C40.94 33.7332 41.2683 34.0456 41.5151 34.4189C41.762 34.7921 41.9209 35.2166 41.98 35.6601C42.0308 36.0818 41.9916 36.5094 41.8651 36.9148C41.7386 37.3203 41.5276 37.6943 41.2461 38.0122C40.9645 38.3302 40.6188 38.5848 40.2316 38.7594C39.8444 38.934 39.4247 39.0246 39 39.0251Z" fill="#FFC20E"/>
<path d="M39.88 33H8.12C9.27496 31.8779 10.1635 30.511 10.72 29H37.28C37.8365 30.511 38.725 31.8779 39.88 33Z" fill="#CD992B"/>
</g>
<defs>
<clipPath id="clip0_159_2394">
<rect width="48" height="48" fill="white"/>
</clipPath>
</defs>
</svg>
