<svg width="48" height="48" viewBox="0 0 48 48" fill="none" xmlns="http://www.w3.org/2000/svg">
<g clip-path="url(#clip0_155_2266)">
<path d="M24 44C35.0457 44 44 35.0457 44 24C44 12.9543 35.0457 4 24 4C12.9543 4 4 12.9543 4 24C4 35.0457 12.9543 44 24 44Z" fill="#FFD400"/>
<path d="M19 22C20.1046 22 21 20.6569 21 19C21 17.3431 20.1046 16 19 16C17.8954 16 17 17.3431 17 19C17 20.6569 17.8954 22 19 22Z" fill="#00416B"/>
<path d="M28.5 22C29.6046 22 30.5 20.6569 30.5 19C30.5 17.3431 29.6046 16 28.5 16C27.3954 16 26.5 17.3431 26.5 19C26.5 20.6569 27.3954 22 28.5 22Z" fill="#00416B"/>
<path d="M44 23.9998C44.0006 29.2564 41.9312 34.3018 38.2395 38.0439C34.5479 41.7861 29.5311 43.924 24.275 43.9948C28.84 41.8577 32.7011 38.4635 35.4057 34.21C38.1102 29.9566 39.5461 25.0203 39.545 19.9798C39.5516 16.1638 38.7293 12.3919 37.135 8.9248C39.2934 10.7983 41.0235 13.1142 42.208 15.7153C43.3925 18.3163 44.0037 21.1417 44 23.9998Z" fill="#FFC20E"/>
<path d="M14.7815 32.4999C14.9522 32.4977 15.1197 32.4529 15.2686 32.3694C15.4175 32.2859 15.5432 32.1664 15.634 32.0218C16.5435 30.6328 17.7845 29.4921 19.2451 28.7027C20.7057 27.9132 22.3398 27.4999 24.0001 27.4999C25.6603 27.4999 27.2945 27.9132 28.755 28.7027C30.2156 29.4921 31.4566 30.6328 32.3661 32.0218C32.4569 32.1664 32.5826 32.2859 32.7315 32.3694C32.8804 32.4529 33.0479 32.4977 33.2186 32.4999C33.3999 32.499 33.5777 32.449 33.7329 32.3552C33.8881 32.2614 34.015 32.1274 34.1001 31.9672C34.1852 31.8071 34.2254 31.6269 34.2163 31.4458C34.2073 31.2647 34.1493 31.0894 34.0486 30.9386C32.9576 29.2684 31.4674 27.8964 29.7129 26.9469C27.9584 25.9973 25.9949 25.5 23.9999 25.5C22.0049 25.5 20.0414 25.9973 18.2869 26.9469C16.5324 27.8964 15.0422 29.2684 13.9512 30.9386C13.8505 31.0894 13.7925 31.2647 13.7835 31.4459C13.7744 31.627 13.8146 31.8072 13.8998 31.9673C13.9849 32.1275 14.1119 32.2615 14.2671 32.3553C14.4223 32.4491 14.6001 32.499 14.7815 32.4999H14.7815Z" fill="#00416B"/>
</g>
<defs>
<clipPath id="clip0_155_2266">
<rect width="48" height="48" fill="white"/>
</clipPath>
</defs>
</svg>
