<svg width="48" height="48" viewBox="0 0 48 48" fill="none" xmlns="http://www.w3.org/2000/svg">
<g clip-path="url(#clip0_155_2263)">
<path d="M24 44C35.0457 44 44 35.0457 44 24C44 12.9543 35.0457 4 24 4C12.9543 4 4 12.9543 4 24C4 35.0457 12.9543 44 24 44Z" fill="#FFD400"/>
<path d="M19 22C20.1046 22 21 20.6569 21 19C21 17.3431 20.1046 16 19 16C17.8954 16 17 17.3431 17 19C17 20.6569 17.8954 22 19 22Z" fill="#00416B"/>
<path d="M28.5 22C29.6046 22 30.5 20.6569 30.5 19C30.5 17.3431 29.6046 16 28.5 16C27.3954 16 26.5 17.3431 26.5 19C26.5 20.6569 27.3954 22 28.5 22Z" fill="#00416B"/>
<path d="M44 23.9998C44.0006 29.2564 41.9312 34.3018 38.2395 38.0439C34.5479 41.7861 29.5311 43.924 24.275 43.9948C28.84 41.8577 32.7011 38.4635 35.4057 34.21C38.1102 29.9566 39.5461 25.0203 39.545 19.9798C39.5516 16.1638 38.7293 12.3919 37.135 8.9248C39.2934 10.7983 41.0235 13.1142 42.208 15.7153C43.3925 18.3163 44.0037 21.1417 44 23.9998Z" fill="#FFC20E"/>
<path fill-rule="evenodd" clip-rule="evenodd" d="M29.1579 29.5753C27.6028 29.6308 25.9027 30.1927 24.5421 31.0964C23.0792 32.0681 21.0402 32.8326 19.0639 32.976C17.099 33.1186 14.9616 32.6505 13.6744 30.8436C13.3539 30.3938 13.4588 29.7694 13.9086 29.449C14.3584 29.1285 14.9828 29.2334 15.3033 29.6832C16.0161 30.6836 17.299 31.0988 18.9191 30.9812C20.528 30.8645 22.239 30.2252 23.4356 29.4304L23.4356 29.4304C25.0861 28.3341 27.1415 27.646 29.0865 27.5765C31.0225 27.5074 33.01 28.0552 34.2714 29.6408C34.6152 30.073 34.5436 30.7021 34.1114 31.046C33.6792 31.3898 33.0501 31.3182 32.7063 30.886C31.9788 29.9716 30.7218 29.5194 29.1579 29.5753Z" fill="#00416B"/>
</g>
<defs>
<clipPath id="clip0_155_2263">
<rect width="48" height="48" fill="white"/>
</clipPath>
</defs>
</svg>
