<svg width="48" height="48" viewBox="0 0 48 48" fill="none" xmlns="http://www.w3.org/2000/svg">
<g clip-path="url(#clip0_155_2262)">
<path d="M24 44C35.0457 44 44 35.0457 44 24C44 12.9543 35.0457 4 24 4C12.9543 4 4 12.9543 4 24C4 35.0457 12.9543 44 24 44Z" fill="#FFD400"/>
<path d="M34.3891 26.0347C34.5695 26.0353 34.747 26.0797 34.9065 26.1641C35.0659 26.2485 35.2025 26.3702 35.3046 26.519C35.4067 26.6677 35.4711 26.839 35.4925 27.0181C35.5138 27.1973 35.4913 27.3789 35.4271 27.5475C34.5546 29.8735 32.9931 31.8779 30.9512 33.2928C28.9093 34.7078 26.4842 35.4659 24 35.4659C21.5157 35.4659 19.0906 34.7078 17.0487 33.2928C15.0068 31.8779 13.4453 29.8735 12.5729 27.5475C12.5086 27.3789 12.4861 27.1973 12.5075 27.0181C12.5288 26.839 12.5932 26.6677 12.6953 26.519C12.7974 26.3702 12.934 26.2485 13.0935 26.1641C13.2529 26.0797 13.4305 26.0353 13.6109 26.0347H34.3891Z" fill="#00416B"/>
<path d="M44 23.9998C44.0006 29.2564 41.9312 34.3018 38.2395 38.0439C34.5479 41.7861 29.5311 43.924 24.275 43.9948C28.84 41.8577 32.7011 38.4635 35.4057 34.21C38.1102 29.9566 39.5461 25.0203 39.545 19.9798C39.5516 16.1638 38.7293 12.3919 37.135 8.9248C39.2934 10.7983 41.0235 13.1142 42.208 15.7153C43.3925 18.3163 44.0037 21.1417 44 23.9998Z" fill="#FFC20E"/>
<path fill-rule="evenodd" clip-rule="evenodd" d="M14.818 17.318C15.6619 16.4741 16.8065 16 18 16C19.1935 16 20.3381 16.4741 21.182 17.318C22.0259 18.1619 22.5 19.3065 22.5 20.5C22.5 21.0523 22.0523 21.5 21.5 21.5C20.9477 21.5 20.5 21.0523 20.5 20.5C20.5 19.837 20.2366 19.2011 19.7678 18.7322C19.2989 18.2634 18.663 18 18 18C17.337 18 16.7011 18.2634 16.2322 18.7322C15.7634 19.2011 15.5 19.837 15.5 20.5C15.5 21.0523 15.0523 21.5 14.5 21.5C13.9477 21.5 13.5 21.0523 13.5 20.5C13.5 19.3065 13.9741 18.1619 14.818 17.318ZM26.818 17.318C27.6619 16.4741 28.8065 16 30 16C31.1935 16 32.3381 16.4741 33.182 17.318C34.0259 18.1619 34.5 19.3065 34.5 20.5C34.5 21.0523 34.0523 21.5 33.5 21.5C32.9477 21.5 32.5 21.0523 32.5 20.5C32.5 19.837 32.2366 19.2011 31.7678 18.7322C31.2989 18.2634 30.663 18 30 18C29.337 18 28.7011 18.2634 28.2322 18.7322C27.7634 19.2011 27.5 19.837 27.5 20.5C27.5 21.0523 27.0523 21.5 26.5 21.5C25.9477 21.5 25.5 21.0523 25.5 20.5C25.5 19.3065 25.9741 18.1619 26.818 17.318Z" fill="#00416B"/>
</g>
<defs>
<clipPath id="clip0_155_2262">
<rect width="48" height="48" fill="white"/>
</clipPath>
</defs>
</svg>
