<svg width="48" height="48" viewBox="0 0 48 48" fill="none" xmlns="http://www.w3.org/2000/svg">
<g clip-path="url(#clip0_155_2264)">
<path d="M24 44C35.0457 44 44 35.0457 44 24C44 12.9543 35.0457 4 24 4C12.9543 4 4 12.9543 4 24C4 35.0457 12.9543 44 24 44Z" fill="#FFD400"/>
<path d="M24.0001 36C21.289 36.0102 18.6552 35.0975 16.5315 33.4122C14.4079 31.7269 12.921 29.3692 12.3151 26.7267C12.2853 26.5987 12.281 26.4662 12.3025 26.3366C12.324 26.2071 12.3708 26.083 12.4402 25.9715C12.5096 25.86 12.6003 25.7633 12.7071 25.6868C12.8139 25.6104 12.9347 25.5557 13.0626 25.526C13.1906 25.4962 13.3231 25.492 13.4527 25.5135C13.5822 25.5349 13.7063 25.5817 13.8178 25.6511C13.9293 25.7205 14.026 25.8112 14.1025 25.918C14.1789 26.0248 14.2336 26.1456 14.2633 26.2736C14.7761 28.4713 16.0173 30.431 17.7851 31.8338C19.5529 33.2366 21.7433 34.0001 24.0001 34.0001C26.2569 34.0001 28.4473 33.2366 30.2151 31.8338C31.9829 30.431 33.2241 28.4713 33.7369 26.2736C33.7667 26.1456 33.8213 26.0248 33.8978 25.918C33.9742 25.8112 34.0709 25.7205 34.1824 25.6511C34.2939 25.5817 34.418 25.5349 34.5476 25.5135C34.6771 25.492 34.8097 25.4962 34.9376 25.526C35.0655 25.5557 35.1863 25.6104 35.2931 25.6868C35.3999 25.7633 35.4906 25.86 35.56 25.9715C35.6295 26.083 35.6762 26.2071 35.6977 26.3366C35.7192 26.4662 35.7149 26.5987 35.6852 26.7267C35.0793 29.3692 33.5923 31.7269 31.4686 33.4123C29.345 35.0976 26.7111 36.0102 24.0001 36Z" fill="#00416B"/>
<path d="M19 22C20.1046 22 21 20.6569 21 19C21 17.3431 20.1046 16 19 16C17.8954 16 17 17.3431 17 19C17 20.6569 17.8954 22 19 22Z" fill="#00416B"/>
<path d="M28.5 22C29.6046 22 30.5 20.6569 30.5 19C30.5 17.3431 29.6046 16 28.5 16C27.3954 16 26.5 17.3431 26.5 19C26.5 20.6569 27.3954 22 28.5 22Z" fill="#00416B"/>
<path d="M44 23.9998C44.0006 29.2564 41.9312 34.3018 38.2395 38.0439C34.5479 41.7861 29.5311 43.924 24.275 43.9948C28.84 41.8577 32.7011 38.4635 35.4057 34.21C38.1102 29.9566 39.5461 25.0203 39.545 19.9798C39.5516 16.1638 38.7293 12.3919 37.135 8.9248C39.2934 10.7983 41.0235 13.1142 42.208 15.7153C43.3925 18.3163 44.0037 21.1417 44 23.9998Z" fill="#FFC20E"/>
</g>
<defs>
<clipPath id="clip0_155_2264">
<rect width="48" height="48" fill="white"/>
</clipPath>
</defs>
</svg>
