<svg width="48" height="48" viewBox="0 0 48 48" fill="none" xmlns="http://www.w3.org/2000/svg">
<g clip-path="url(#clip0_155_2265)">
<path d="M24 44C35.0457 44 44 35.0457 44 24C44 12.9543 35.0457 4 24 4C12.9543 4 4 12.9543 4 24C4 35.0457 12.9543 44 24 44Z" fill="#FFD400"/>
<path d="M19 22C20.1046 22 21 20.6569 21 19C21 17.3431 20.1046 16 19 16C17.8954 16 17 17.3431 17 19C17 20.6569 17.8954 22 19 22Z" fill="#00416B"/>
<path d="M28.5 22C29.6046 22 30.5 20.6569 30.5 19C30.5 17.3431 29.6046 16 28.5 16C27.3954 16 26.5 17.3431 26.5 19C26.5 20.6569 27.3954 22 28.5 22Z" fill="#00416B"/>
<path d="M44 23.9998C44.0006 29.2564 41.9312 34.3018 38.2395 38.0439C34.5479 41.7861 29.5311 43.924 24.275 43.9948C28.84 41.8577 32.7011 38.4635 35.4057 34.21C38.1102 29.9566 39.5461 25.0203 39.545 19.9798C39.5516 16.1638 38.7293 12.3919 37.135 8.9248C39.2934 10.7983 41.0235 13.1142 42.208 15.7153C43.3925 18.3163 44.0037 21.1417 44 23.9998Z" fill="#FFC20E"/>
<path d="M31 30H17C16.4477 30 16 30.4477 16 31C16 31.5523 16.4477 32 17 32H31C31.5523 32 32 31.5523 32 31C32 30.4477 31.5523 30 31 30Z" fill="#00416B"/>
</g>
<defs>
<clipPath id="clip0_155_2265">
<rect width="48" height="48" fill="white"/>
</clipPath>
</defs>
</svg>
