<svg width="48" height="48" viewBox="0 0 48 48" fill="none" xmlns="http://www.w3.org/2000/svg">
<g clip-path="url(#clip0_3009_6527)">
<path d="M30.5001 6.2222V41.7778C30.5001 43.0056 29.6423 44 28.5834 44H9.41673C9.15727 43.9955 8.90183 43.935 8.66783 43.8229C8.43382 43.7107 8.22673 43.5494 8.06068 43.35C7.69391 42.9086 7.49531 42.3516 7.50008 41.7778V6.2222C7.50008 4.99445 8.35783 4 9.41673 4H28.5834C29.6423 4 30.5001 4.99445 30.5001 6.2222Z" fill="#FFD400"/>
<path d="M28.5001 44H9.50012C8.96969 44 8.46098 43.7893 8.08591 43.4142C7.71083 43.0391 7.50012 42.5304 7.50012 42V38H30.5001V42C30.5001 42.5304 30.2894 43.0391 29.9143 43.4142C29.5393 43.7893 29.0306 44 28.5001 44Z" fill="#00416B"/>
<path d="M19.0001 42C19.5524 42 20.0001 41.5523 20.0001 41C20.0001 40.4477 19.5524 40 19.0001 40C18.4478 40 18.0001 40.4477 18.0001 41C18.0001 41.5523 18.4478 42 19.0001 42Z" fill="#FFD400"/>
<path d="M30.5001 6H7.50012C7.50012 5.46957 7.71084 4.96086 8.08591 4.58579C8.46098 4.21071 8.96969 4 9.50012 4H28.5001C29.0306 4 29.5393 4.21071 29.9143 4.58579C30.2894 4.96086 30.5001 5.46957 30.5001 6Z" fill="#00416B"/>
<path d="M37.2002 12H14.8C14.0574 12 13.3452 12.2963 12.8201 12.8238C12.295 13.3512 12 14.0666 12 14.8125V27.4688C12 28.2147 12.295 28.93 12.8201 29.4575C13.3452 29.9849 14.0574 30.2812 14.8 30.2812H17.6V34.5L21.8 30.2812H37.2C37.9426 30.2812 38.6548 29.9849 39.1799 29.4575C39.705 28.93 40 28.2147 40 27.4688V14.8125C40 14.0666 39.705 13.3513 39.18 12.8238C38.6549 12.2964 37.9428 12 37.2002 12Z" fill="#CD992B"/>
<path d="M19.934 20.9936C19.5431 21.111 19.3969 21.588 19.6549 21.9043L19.7865 22.0656C19.9488 22.2646 19.9114 22.5589 19.7046 22.7109C19.4929 22.8665 19.1935 22.8079 19.0561 22.584L18.981 22.4615C18.7571 22.0964 18.2262 22.0978 18.0042 22.464L17.9376 22.5738C17.7989 22.8026 17.4936 22.8629 17.2784 22.7039C17.0701 22.55 17.0321 22.2535 17.1949 22.0521L17.3272 21.8884C17.584 21.5708 17.4389 21.0943 17.0487 20.9736L16.9226 20.9346C16.6888 20.8623 16.5574 20.6147 16.6284 20.3806C16.7057 20.1258 16.9879 19.9955 17.232 20.102L17.314 20.1378C17.6731 20.2945 18.071 20.0165 18.0473 19.6255L18.0383 19.4778C18.0227 19.2187 18.2285 19 18.4881 19C18.746 19 18.9512 19.216 18.9381 19.4735L18.9301 19.6314C18.9101 20.0235 19.3076 20.301 19.6688 20.1471L19.7499 20.1126C19.9914 20.0096 20.2694 20.1346 20.3527 20.3836C20.4333 20.6243 20.2988 20.884 20.0556 20.957L19.934 20.9936Z" fill="#00416B"/>
<path d="M24.934 20.9936C24.5431 21.111 24.3969 21.588 24.655 21.9043L24.7865 22.0656C24.9488 22.2646 24.9114 22.5589 24.7046 22.7109C24.4929 22.8665 24.1935 22.8079 24.0561 22.584L23.981 22.4615C23.7571 22.0964 23.2262 22.0978 23.0042 22.464L22.9376 22.5738C22.7989 22.8026 22.4936 22.8629 22.2784 22.7039C22.0701 22.55 22.0321 22.2535 22.1949 22.0521L22.3272 21.8884C22.584 21.5708 22.4389 21.0943 22.0487 20.9736L21.9226 20.9346C21.6888 20.8623 21.5574 20.6147 21.6284 20.3806C21.7057 20.1258 21.9879 19.9955 22.232 20.102L22.314 20.1378C22.6731 20.2945 23.071 20.0165 23.0473 19.6255L23.0383 19.4778C23.0227 19.2187 23.2285 19 23.4881 19C23.746 19 23.9512 19.216 23.9381 19.4735L23.9301 19.6314C23.9101 20.0235 24.3076 20.301 24.6688 20.1471L24.7499 20.1126C24.9914 20.0096 25.2694 20.1346 25.3527 20.3836C25.4333 20.6243 25.2988 20.884 25.0556 20.957L24.934 20.9936Z" fill="#00416B"/>
<path d="M29.934 20.9936C29.5431 21.111 29.3969 21.588 29.655 21.9043L29.7865 22.0656C29.9488 22.2646 29.9114 22.5589 29.7046 22.7109C29.4929 22.8665 29.1935 22.8079 29.0561 22.584L28.981 22.4615C28.7571 22.0964 28.2262 22.0978 28.0042 22.464L27.9376 22.5738C27.7989 22.8026 27.4936 22.8629 27.2784 22.7039C27.0701 22.55 27.0321 22.2535 27.1949 22.0521L27.3272 21.8884C27.584 21.5708 27.4389 21.0943 27.0487 20.9736L26.9226 20.9346C26.6888 20.8623 26.5574 20.6147 26.6284 20.3806C26.7057 20.1258 26.9879 19.9955 27.232 20.102L27.314 20.1378C27.6731 20.2945 28.071 20.0165 28.0473 19.6255L28.0383 19.4778C28.0227 19.2187 28.2285 19 28.4881 19C28.746 19 28.9512 19.216 28.9381 19.4735L28.9301 19.6314C28.9101 20.0235 29.3076 20.301 29.6688 20.1471L29.7499 20.1126C29.9914 20.0096 30.2694 20.1346 30.3527 20.3836C30.4333 20.6243 30.2988 20.884 30.0556 20.957L29.934 20.9936Z" fill="#00416B"/>
<path d="M34.934 20.9936C34.5431 21.111 34.3969 21.588 34.6549 21.9043L34.7865 22.0656C34.9488 22.2646 34.9114 22.5589 34.7046 22.7109C34.4929 22.8665 34.1935 22.8079 34.0561 22.584L33.981 22.4615C33.7571 22.0964 33.2262 22.0978 33.0042 22.464L32.9376 22.5738C32.7989 22.8026 32.4936 22.8629 32.2784 22.7039C32.0701 22.55 32.0321 22.2535 32.1949 22.0521L32.3272 21.8884C32.584 21.5708 32.4389 21.0943 32.0487 20.9736L31.9226 20.9346C31.6888 20.8623 31.5574 20.6147 31.6284 20.3806C31.7057 20.1258 31.9879 19.9955 32.232 20.102L32.314 20.1378C32.6731 20.2945 33.071 20.0165 33.0473 19.6255L33.0383 19.4778C33.0227 19.2187 33.2285 19 33.4881 19C33.746 19 33.9512 19.216 33.9381 19.4735L33.9301 19.6314C33.9101 20.0235 34.3076 20.301 34.6688 20.1471L34.7499 20.1126C34.9914 20.0096 35.2694 20.1346 35.3527 20.3836C35.4333 20.6243 35.2988 20.884 35.0556 20.957L34.934 20.9936Z" fill="#00416B"/>
</g>
<defs>
<clipPath id="clip0_3009_6527">
<rect width="48" height="48" fill="white"/>
</clipPath>
</defs>
</svg>
