<svg width="48" height="48" viewBox="0 0 48 48" fill="none" xmlns="http://www.w3.org/2000/svg">
<g clip-path="url(#clip0_155_2267)">
<path d="M30.337 34H15.8225C14.7179 34 13.8225 34.8954 13.8225 36V39.5C13.8225 40.6046 14.7179 41.5 15.8225 41.5H30.337C31.4416 41.5 32.337 40.6046 32.337 39.5V36C32.337 34.8954 31.4416 34 30.337 34Z" fill="#0083CA"/>
<path d="M31.6594 36.5H14.5C13.3954 36.5 12.5 37.3954 12.5 38.5V42C12.5 43.1046 13.3954 44 14.5 44H31.6594C32.764 44 33.6594 43.1046 33.6594 42V38.5C33.6594 37.3954 32.764 36.5 31.6594 36.5Z" fill="#00416B"/>
<path d="M30.6409 34L31.4359 21V10.1245C31.4359 8.48175 30.2837 7.04945 28.7891 7.00005C28.4056 7.00632 28.0272 7.08955 27.6765 7.24478C27.3257 7.40002 27.0097 7.62411 26.7472 7.90376C26.4846 8.18342 26.2809 8.51294 26.1481 8.87279C26.0153 9.23264 25.9562 9.6155 25.9741 9.99865V7.06185C25.9741 5.4192 24.8219 3.98685 23.3273 3.9375C22.9438 3.94381 22.5655 4.02705 22.2147 4.18231C21.864 4.33756 21.548 4.56165 21.2855 4.8413C21.023 5.12095 20.8193 5.45046 20.6866 5.8103C20.5538 6.17013 20.4946 6.55297 20.5126 6.9361V9.12445C20.5305 8.7413 20.4713 8.35844 20.3385 7.99859C20.2057 7.63874 20.002 7.30922 19.7395 7.02956C19.477 6.74991 19.1609 6.52582 18.8102 6.37058C18.4594 6.21535 18.0811 6.13212 17.6976 6.12585C16.203 6.1751 15.0508 7.60755 15.0508 9.2502V15.8925C15.0678 15.5603 15.0147 15.2283 14.895 14.9179C14.7752 14.6076 14.5915 14.3259 14.3558 14.0912C14.12 13.8565 13.8376 13.6741 13.5267 13.5557C13.2158 13.4374 12.8835 13.3858 12.5513 13.4043C11.3688 13.5284 10.5 14.6944 10.5 16V22.9258C10.5617 24.5142 10.9546 26.0722 11.6536 27.5C13.1851 30.9765 14.862 32.9758 16.6409 33.9993L30.6409 34Z" fill="#FFD400"/>
<path d="M30 34.0002C33.5 34.0002 34 24.0002 39.6593 22.5002C40.6593 20.0002 38.4093 18.7002 35.1593 20.0002C32.6593 21.0002 30.6593 24.0002 30.1593 25.0002C29.6593 26.0002 27 34.0002 30 34.0002Z" fill="#FFD400"/>
<path d="M14 13.7852C14.5165 14.1566 14.8723 14.7108 14.995 15.3352C15 15.3902 15 15.4452 15 15.5002V23.0002L14 13.7852Z" fill="#FFC20E"/>
<path d="M24.5 4.29004C24.9612 4.58811 25.3388 4.99896 25.5969 5.48368C25.855 5.9684 25.9851 6.51097 25.975 7.06004V10.875C25.9732 10.7479 25.9816 10.6208 26 10.495V19.5L24.5 4.29004Z" fill="#FFC20E"/>
<path d="M30 7.37451C30.4499 7.67653 30.8169 8.08645 31.0676 8.56683C31.3183 9.04721 31.4446 9.58275 31.435 10.1245V20.1245L31.2986 23.2467L30 7.37451Z" fill="#FFC20E"/>
<path d="M19 6.43945C19.426 6.68274 19.7857 7.02708 20.0472 7.44212C20.3088 7.85716 20.4643 8.33016 20.5 8.81945V20.1245L19 6.43945Z" fill="#FFC20E"/>
<path d="M39.685 22.4301C39.678 22.4539 39.6697 22.4773 39.66 22.5001C34.155 23.9601 33.53 33.4601 30.28 33.9751C29.705 33.3051 31.44 31.8351 33.93 27.4301C36.66 22.5901 38.89 22.3351 39.685 22.4301Z" fill="#FFC20E"/>
<path d="M32.5796 21.7886L30.9738 25.8416L31.2988 23.2466C31.5759 22.8632 31.8805 22.5004 32.2101 22.161L32.5796 21.7886Z" fill="#FFC20E"/>
</g>
<defs>
<clipPath id="clip0_155_2267">
<rect width="48" height="48" fill="white"/>
</clipPath>
</defs>
</svg>
