<svg width="48" height="48" viewBox="0 0 48 48" fill="none" xmlns="http://www.w3.org/2000/svg">
<g clip-path="url(#clip0_159_2358)">
<path d="M24 17C23.7348 16.9998 23.4806 16.8944 23.2931 16.7069C23.1056 16.5194 23.0002 16.2652 23 16V15C23 13.1089 22.293 12.9004 21.0088 12.5225C19.8106 12.1695 18 11.6367 18 9C18 8.73478 18.1054 8.48043 18.2929 8.29289C18.4804 8.10536 18.7348 8 19 8C19.2652 8 19.5196 8.10536 19.7071 8.29289C19.8946 8.48043 20 8.73478 20 9C20 10.0918 20.352 10.2442 21.5732 10.604C22.938 11.0054 25 11.6128 25 15V16C24.9998 16.2652 24.8944 16.5194 24.7069 16.7069C24.5194 16.8944 24.2652 16.9998 24 17Z" fill="#00416B"/>
<path d="M42 40H6C5.46957 40 4.96086 39.7893 4.58579 39.4142C4.21071 39.0391 4 38.5304 4 38V19C4 18.4696 4.21071 17.9609 4.58579 17.5858C4.96086 17.2107 5.46957 17 6 17H42C42.5304 17 43.0391 17.2107 43.4142 17.5858C43.7893 17.9609 44 18.4696 44 19V38C44 38.5304 43.7893 39.0391 43.4142 39.4142C43.0391 39.7893 42.5304 40 42 40Z" fill="#CD992B"/>
<path d="M42 38H6C5.46957 38 4.96086 37.7893 4.58579 37.4142C4.21071 37.0391 4 36.5304 4 36V18C4 17.4696 4.21071 16.9609 4.58579 16.5858C4.96086 16.2107 5.46957 16 6 16H42C42.5304 16 43.0391 16.2107 43.4142 16.5858C43.7893 16.9609 44 17.4696 44 18V36C44 36.5304 43.7893 37.0391 43.4142 37.4142C43.0391 37.7893 42.5304 38 42 38Z" fill="#FFD400"/>
<path d="M44 18V36C44.0001 36.2627 43.9484 36.5228 43.8479 36.7655C43.7474 37.0081 43.6001 37.2286 43.4144 37.4144C43.2286 37.6001 43.0081 37.7474 42.7655 37.8479C42.5228 37.9484 42.2627 38.0001 42 38H18L40 16H42C42.2627 15.9999 42.5228 16.0516 42.7655 16.1521C43.0081 16.2526 43.2286 16.3999 43.4144 16.5856C43.6001 16.7714 43.7474 16.9919 43.8479 17.2345C43.9484 17.4772 44.0001 17.7373 44 18Z" fill="#FFC20E"/>
<path d="M30 34H18C17.7348 34 17.4804 33.8946 17.2929 33.7071C17.1054 33.5196 17 33.2652 17 33C17 32.7348 17.1054 32.4804 17.2929 32.2929C17.4804 32.1054 17.7348 32 18 32H30C30.2652 32 30.5196 32.1054 30.7071 32.2929C30.8946 32.4804 31 32.7348 31 33C31 33.2652 30.8946 33.5196 30.7071 33.7071C30.5196 33.8946 30.2652 34 30 34Z" fill="#0083CA"/>
<path d="M10 22C9.80222 22 9.60888 21.9414 9.44443 21.8315C9.27998 21.7216 9.15181 21.5654 9.07612 21.3827C9.00043 21.2 8.98063 20.9989 9.01922 20.8049C9.0578 20.6109 9.15304 20.4327 9.29289 20.2929C9.43275 20.153 9.61093 20.0578 9.80491 20.0192C9.99889 19.9806 10.2 20.0004 10.3827 20.0761C10.5654 20.1518 10.7216 20.28 10.8315 20.4444C10.9414 20.6089 11 20.8022 11 21C11 21.2652 10.8946 21.5196 10.7071 21.7071C10.5196 21.8946 10.2652 22 10 22Z" fill="#00416B"/>
<path d="M18 22C17.8022 22 17.6089 21.9414 17.4444 21.8315C17.28 21.7216 17.1518 21.5654 17.0761 21.3827C17.0004 21.2 16.9806 20.9989 17.0192 20.8049C17.0578 20.6109 17.153 20.4327 17.2929 20.2929C17.4327 20.153 17.6109 20.0578 17.8049 20.0192C17.9989 19.9806 18.2 20.0004 18.3827 20.0761C18.5654 20.1518 18.7216 20.28 18.8315 20.4444C18.9414 20.6089 19 20.8022 19 21C19 21.2652 18.8946 21.5196 18.7071 21.7071C18.5196 21.8946 18.2652 22 18 22Z" fill="#00416B"/>
<path d="M22 22C21.8022 22 21.6089 21.9414 21.4444 21.8315C21.28 21.7216 21.1518 21.5654 21.0761 21.3827C21.0004 21.2 20.9806 20.9989 21.0192 20.8049C21.0578 20.6109 21.153 20.4327 21.2929 20.2929C21.4327 20.153 21.6109 20.0578 21.8049 20.0192C21.9989 19.9806 22.2 20.0004 22.3827 20.0761C22.5654 20.1518 22.7216 20.28 22.8315 20.4444C22.9414 20.6089 23 20.8022 23 21C23 21.2652 22.8946 21.5196 22.7071 21.7071C22.5196 21.8946 22.2652 22 22 22Z" fill="#00416B"/>
<path d="M26 22C25.8022 22 25.6089 21.9414 25.4444 21.8315C25.28 21.7216 25.1518 21.5654 25.0761 21.3827C25.0004 21.2 24.9806 20.9989 25.0192 20.8049C25.0578 20.6109 25.153 20.4327 25.2929 20.2929C25.4327 20.153 25.6109 20.0578 25.8049 20.0192C25.9989 19.9806 26.2 20.0004 26.3827 20.0761C26.5654 20.1518 26.7216 20.28 26.8315 20.4444C26.9414 20.6089 27 20.8022 27 21C27 21.2652 26.8946 21.5196 26.7071 21.7071C26.5196 21.8946 26.2652 22 26 22Z" fill="#00416B"/>
<path d="M30 22C29.8022 22 29.6089 21.9414 29.4444 21.8315C29.28 21.7216 29.1518 21.5654 29.0761 21.3827C29.0004 21.2 28.9806 20.9989 29.0192 20.8049C29.0578 20.6109 29.153 20.4327 29.2929 20.2929C29.4327 20.153 29.6109 20.0578 29.8049 20.0192C29.9989 19.9806 30.2 20.0004 30.3827 20.0761C30.5654 20.1518 30.7216 20.28 30.8315 20.4444C30.9414 20.6089 31 20.8022 31 21C31 21.2652 30.8946 21.5196 30.7071 21.7071C30.5196 21.8946 30.2652 22 30 22Z" fill="#00416B"/>
<path d="M34 22C33.8022 22 33.6089 21.9414 33.4444 21.8315C33.28 21.7216 33.1518 21.5654 33.0761 21.3827C33.0004 21.2 32.9806 20.9989 33.0192 20.8049C33.0578 20.6109 33.153 20.4327 33.2929 20.2929C33.4327 20.153 33.6109 20.0578 33.8049 20.0192C33.9989 19.9806 34.2 20.0004 34.3827 20.0761C34.5654 20.1518 34.7216 20.28 34.8315 20.4444C34.9414 20.6089 35 20.8022 35 21C35 21.2652 34.8946 21.5196 34.7071 21.7071C34.5196 21.8946 34.2652 22 34 22Z" fill="#00416B"/>
<path d="M38 22C37.8022 22 37.6089 21.9414 37.4444 21.8315C37.28 21.7216 37.1518 21.5654 37.0761 21.3827C37.0004 21.2 36.9806 20.9989 37.0192 20.8049C37.0578 20.6109 37.153 20.4327 37.2929 20.2929C37.4327 20.153 37.6109 20.0578 37.8049 20.0192C37.9989 19.9806 38.2 20.0004 38.3827 20.0761C38.5654 20.1518 38.7216 20.28 38.8315 20.4444C38.9414 20.6089 39 20.8022 39 21C39 21.2652 38.8946 21.5196 38.7071 21.7071C38.5196 21.8946 38.2652 22 38 22Z" fill="#00416B"/>
<path d="M10 26C9.80222 26 9.60888 25.9414 9.44443 25.8315C9.27998 25.7216 9.15181 25.5654 9.07612 25.3827C9.00043 25.2 8.98063 24.9989 9.01922 24.8049C9.0578 24.6109 9.15304 24.4327 9.29289 24.2929C9.43275 24.153 9.61093 24.0578 9.80491 24.0192C9.99889 23.9806 10.2 24.0004 10.3827 24.0761C10.5654 24.1518 10.7216 24.28 10.8315 24.4444C10.9414 24.6089 11 24.8022 11 25C11 25.2652 10.8946 25.5196 10.7071 25.7071C10.5196 25.8946 10.2652 26 10 26Z" fill="#00416B"/>
<path d="M14 26C13.8022 26 13.6089 25.9414 13.4444 25.8315C13.28 25.7216 13.1518 25.5654 13.0761 25.3827C13.0004 25.2 12.9806 24.9989 13.0192 24.8049C13.0578 24.6109 13.153 24.4327 13.2929 24.2929C13.4327 24.153 13.6109 24.0578 13.8049 24.0192C13.9989 23.9806 14.2 24.0004 14.3827 24.0761C14.5654 24.1518 14.7216 24.28 14.8315 24.4444C14.9414 24.6089 15 24.8022 15 25C15 25.2652 14.8946 25.5196 14.7071 25.7071C14.5196 25.8946 14.2652 26 14 26Z" fill="#00416B"/>
<path d="M18 26C17.8022 26 17.6089 25.9414 17.4444 25.8315C17.28 25.7216 17.1518 25.5654 17.0761 25.3827C17.0004 25.2 16.9806 24.9989 17.0192 24.8049C17.0578 24.6109 17.153 24.4327 17.2929 24.2929C17.4327 24.153 17.6109 24.0578 17.8049 24.0192C17.9989 23.9806 18.2 24.0004 18.3827 24.0761C18.5654 24.1518 18.7216 24.28 18.8315 24.4444C18.9414 24.6089 19 24.8022 19 25C19 25.2652 18.8946 25.5196 18.7071 25.7071C18.5196 25.8946 18.2652 26 18 26Z" fill="#00416B"/>
<path d="M22 26C21.8022 26 21.6089 25.9414 21.4444 25.8315C21.28 25.7216 21.1518 25.5654 21.0761 25.3827C21.0004 25.2 20.9806 24.9989 21.0192 24.8049C21.0578 24.6109 21.153 24.4327 21.2929 24.2929C21.4327 24.153 21.6109 24.0578 21.8049 24.0192C21.9989 23.9806 22.2 24.0004 22.3827 24.0761C22.5654 24.1518 22.7216 24.28 22.8315 24.4444C22.9414 24.6089 23 24.8022 23 25C23 25.2652 22.8946 25.5196 22.7071 25.7071C22.5196 25.8946 22.2652 26 22 26Z" fill="#00416B"/>
<path d="M26 26C25.8022 26 25.6089 25.9414 25.4444 25.8315C25.28 25.7216 25.1518 25.5654 25.0761 25.3827C25.0004 25.2 24.9806 24.9989 25.0192 24.8049C25.0578 24.6109 25.153 24.4327 25.2929 24.2929C25.4327 24.153 25.6109 24.0578 25.8049 24.0192C25.9989 23.9806 26.2 24.0004 26.3827 24.0761C26.5654 24.1518 26.7216 24.28 26.8315 24.4444C26.9414 24.6089 27 24.8022 27 25C27 25.2652 26.8946 25.5196 26.7071 25.7071C26.5196 25.8946 26.2652 26 26 26Z" fill="#00416B"/>
<path d="M30 26C29.8022 26 29.6089 25.9414 29.4444 25.8315C29.28 25.7216 29.1518 25.5654 29.0761 25.3827C29.0004 25.2 28.9806 24.9989 29.0192 24.8049C29.0578 24.6109 29.153 24.4327 29.2929 24.2929C29.4327 24.153 29.6109 24.0578 29.8049 24.0192C29.9989 23.9806 30.2 24.0004 30.3827 24.0761C30.5654 24.1518 30.7216 24.28 30.8315 24.4444C30.9414 24.6089 31 24.8022 31 25C31 25.2652 30.8946 25.5196 30.7071 25.7071C30.5196 25.8946 30.2652 26 30 26Z" fill="#00416B"/>
<path d="M38 26H34C33.7348 26 33.4804 25.8946 33.2929 25.7071C33.1054 25.5196 33 25.2652 33 25C33 24.7348 33.1054 24.4804 33.2929 24.2929C33.4804 24.1054 33.7348 24 34 24H38C38.2652 24 38.5196 24.1054 38.7071 24.2929C38.8946 24.4804 39 24.7348 39 25C39 25.2652 38.8946 25.5196 38.7071 25.7071C38.5196 25.8946 38.2652 26 38 26Z" fill="#00416B"/>
<path d="M38 26C37.8022 26 37.6089 25.9414 37.4444 25.8315C37.28 25.7216 37.1518 25.5654 37.0761 25.3827C37.0004 25.2 36.9806 24.9989 37.0192 24.8049C37.0578 24.6109 37.153 24.4327 37.2929 24.2929C37.4327 24.153 37.6109 24.0578 37.8049 24.0192C37.9989 23.9806 38.2 24.0004 38.3827 24.0761C38.5654 24.1518 38.7216 24.28 38.8315 24.4444C38.9414 24.6089 39 24.8022 39 25C39 25.2652 38.8946 25.5196 38.7071 25.7071C38.5196 25.8946 38.2652 26 38 26Z" fill="#00416B"/>
<path d="M10 30C9.80222 30 9.60888 29.9414 9.44443 29.8315C9.27998 29.7216 9.15181 29.5654 9.07612 29.3827C9.00043 29.2 8.98063 28.9989 9.01922 28.8049C9.0578 28.6109 9.15304 28.4327 9.29289 28.2929C9.43275 28.153 9.61093 28.0578 9.80491 28.0192C9.99889 27.9806 10.2 28.0004 10.3827 28.0761C10.5654 28.1518 10.7216 28.28 10.8315 28.4444C10.9414 28.6089 11 28.8022 11 29C11 29.2652 10.8946 29.5196 10.7071 29.7071C10.5196 29.8946 10.2652 30 10 30Z" fill="#00416B"/>
<path d="M14 30C13.8022 30 13.6089 29.9414 13.4444 29.8315C13.28 29.7216 13.1518 29.5654 13.0761 29.3827C13.0004 29.2 12.9806 28.9989 13.0192 28.8049C13.0578 28.6109 13.153 28.4327 13.2929 28.2929C13.4327 28.153 13.6109 28.0578 13.8049 28.0192C13.9989 27.9806 14.2 28.0004 14.3827 28.0761C14.5654 28.1518 14.7216 28.28 14.8315 28.4444C14.9414 28.6089 15 28.8022 15 29C15 29.2652 14.8946 29.5196 14.7071 29.7071C14.5196 29.8946 14.2652 30 14 30Z" fill="#00416B"/>
<path d="M18 30C17.8022 30 17.6089 29.9414 17.4444 29.8315C17.28 29.7216 17.1518 29.5654 17.0761 29.3827C17.0004 29.2 16.9806 28.9989 17.0192 28.8049C17.0578 28.6109 17.153 28.4327 17.2929 28.2929C17.4327 28.153 17.6109 28.0578 17.8049 28.0192C17.9989 27.9806 18.2 28.0004 18.3827 28.0761C18.5654 28.1518 18.7216 28.28 18.8315 28.4444C18.9414 28.6089 19 28.8022 19 29C19 29.2652 18.8946 29.5196 18.7071 29.7071C18.5196 29.8946 18.2652 30 18 30Z" fill="#00416B"/>
<path d="M22 30C21.8022 30 21.6089 29.9414 21.4444 29.8315C21.28 29.7216 21.1518 29.5654 21.0761 29.3827C21.0004 29.2 20.9806 28.9989 21.0192 28.8049C21.0578 28.6109 21.153 28.4327 21.2929 28.2929C21.4327 28.153 21.6109 28.0578 21.8049 28.0192C21.9989 27.9806 22.2 28.0004 22.3827 28.0761C22.5654 28.1518 22.7216 28.28 22.8315 28.4444C22.9414 28.6089 23 28.8022 23 29C23 29.2652 22.8946 29.5196 22.7071 29.7071C22.5196 29.8946 22.2652 30 22 30Z" fill="#00416B"/>
<path d="M26 30C25.8022 30 25.6089 29.9414 25.4444 29.8315C25.28 29.7216 25.1518 29.5654 25.0761 29.3827C25.0004 29.2 24.9806 28.9989 25.0192 28.8049C25.0578 28.6109 25.153 28.4327 25.2929 28.2929C25.4327 28.153 25.6109 28.0578 25.8049 28.0192C25.9989 27.9806 26.2 28.0004 26.3827 28.0761C26.5654 28.1518 26.7216 28.28 26.8315 28.4444C26.9414 28.6089 27 28.8022 27 29C27 29.2652 26.8946 29.5196 26.7071 29.7071C26.5196 29.8946 26.2652 30 26 30Z" fill="#00416B"/>
<path d="M30 30C29.8022 30 29.6089 29.9414 29.4444 29.8315C29.28 29.7216 29.1518 29.5654 29.0761 29.3827C29.0004 29.2 28.9806 28.9989 29.0192 28.8049C29.0578 28.6109 29.153 28.4327 29.2929 28.2929C29.4327 28.153 29.6109 28.0578 29.8049 28.0192C29.9989 27.9806 30.2 28.0004 30.3827 28.0761C30.5654 28.1518 30.7216 28.28 30.8315 28.4444C30.9414 28.6089 31 28.8022 31 29C31 29.2652 30.8946 29.5196 30.7071 29.7071C30.5196 29.8946 30.2652 30 30 30Z" fill="#00416B"/>
<path d="M34 30C33.8022 30 33.6089 29.9414 33.4444 29.8315C33.28 29.7216 33.1518 29.5654 33.0761 29.3827C33.0004 29.2 32.9806 28.9989 33.0192 28.8049C33.0578 28.6109 33.153 28.4327 33.2929 28.2929C33.4327 28.153 33.6109 28.0578 33.8049 28.0192C33.9989 27.9806 34.2 28.0004 34.3827 28.0761C34.5654 28.1518 34.7216 28.28 34.8315 28.4444C34.9414 28.6089 35 28.8022 35 29C35 29.2652 34.8946 29.5196 34.7071 29.7071C34.5196 29.8946 34.2652 30 34 30Z" fill="#00416B"/>
<path d="M38 30C37.8022 30 37.6089 29.9414 37.4444 29.8315C37.28 29.7216 37.1518 29.5654 37.0761 29.3827C37.0004 29.2 36.9806 28.9989 37.0192 28.8049C37.0578 28.6109 37.153 28.4327 37.2929 28.2929C37.4327 28.153 37.6109 28.0578 37.8049 28.0192C37.9989 27.9806 38.2 28.0004 38.3827 28.0761C38.5654 28.1518 38.7216 28.28 38.8315 28.4444C38.9414 28.6089 39 28.8022 39 29C39 29.2652 38.8946 29.5196 38.7071 29.7071C38.5196 29.8946 38.2652 30 38 30Z" fill="#00416B"/>
<path d="M24 14C23.4696 14 22.9609 14.2107 22.5858 14.5858C22.2107 14.9609 22 15.4696 22 16H26C26 15.4696 25.7893 14.9609 25.4142 14.5858C25.0391 14.2107 24.5304 14 24 14Z" fill="#00416B"/>
</g>
<defs>
<clipPath id="clip0_159_2358">
<rect width="48" height="48" fill="white"/>
</clipPath>
</defs>
</svg>
