<svg width="48" height="48" viewBox="0 0 48 48" fill="none" xmlns="http://www.w3.org/2000/svg">
<g clip-path="url(#clip0_155_2270)">
<path d="M42.3793 10.0267C42.7405 11.4582 42.7664 12.9538 42.4549 14.397C41.5118 19.1362 39.3762 23.3304 36.5658 27.2079C33.4619 31.512 29.5936 35.209 25.1535 38.1149C21.898 40.3259 18.2435 41.8823 14.3935 42.6975C12.7146 43.0793 10.9593 42.9416 9.36045 42.3025C8.51758 41.9734 7.79932 41.3879 7.307 40.6287C6.742 39.7287 6.177 38.8231 5.69995 37.8755C4.9985 36.4816 5.29825 35.3799 6.5695 34.4727C8.74206 32.9224 10.9225 31.3832 13.1107 29.8551C14.3503 28.9906 15.4557 28.9958 16.5543 30.0751C17.5869 31.14 18.552 32.2684 19.4439 33.4536C19.9131 34.0472 19.9585 34.1242 20.6011 33.6765C23.3191 31.7201 25.8402 29.5037 28.1288 27.0588C30.0524 25.105 31.8139 22.9979 33.3959 20.7585C34.0926 19.7529 34.0459 19.8181 33.093 19.1158C31.9713 18.3041 30.9117 17.4098 29.923 16.4403C28.8313 15.3498 28.8024 14.2896 29.6635 13.0053C31.1712 10.7565 32.6922 8.5165 34.2265 6.28533C34.9835 5.18333 35.9665 4.79893 37.1768 5.34253C38.435 5.91924 39.6416 6.60242 40.7834 7.38463C41.6786 7.98923 42.0993 8.99143 42.3793 10.0267Z" fill="#FFD400"/>
<path d="M17.225 30.7752L7.32997 40.6702C7.32232 40.6565 7.31397 40.6431 7.30497 40.6302C6.73997 39.7302 6.17497 38.8252 5.69997 37.8752C4.99997 36.4802 5.29997 35.3802 6.56997 34.4752C8.73997 32.9252 10.92 31.3852 13.11 29.8552C14.35 28.9902 15.455 28.9952 16.555 30.0752C16.785 30.3002 17.01 30.5352 17.225 30.7752Z" fill="#FFC20E"/>
<path d="M40.6849 7.31485L30.7649 17.2348C30.4749 16.9748 30.1949 16.7099 29.9249 16.4398C28.8299 15.3498 28.7999 14.2898 29.6649 13.0048C31.1699 10.7548 32.6899 8.51485 34.2249 6.28485C34.9849 5.18485 35.9649 4.79985 37.1749 5.34485C38.3977 5.90277 39.5718 6.56172 40.6849 7.31485Z" fill="#FFC20E"/>
<path d="M28.417 7.58299C25.5324 6.80752 22.4945 6.80564 19.6089 7.57754C16.7234 8.34944 14.0921 9.86788 11.98 11.98C9.86788 14.0921 8.34944 16.7234 7.57754 19.6089C6.80564 22.4945 6.80752 25.5324 7.58299 28.417" stroke="#00416B" stroke-width="4.25" stroke-miterlimit="10" stroke-linecap="round"/>
<path d="M25.07 13.3974C23.4539 12.963 21.7519 12.9619 20.1353 13.3944C18.5186 13.8269 17.0445 14.6776 15.8611 15.8609C14.6778 17.0442 13.8271 18.5184 13.3946 20.135C12.9622 21.7517 12.9632 23.4537 13.3976 25.0698" stroke="#0083CA" stroke-width="4" stroke-miterlimit="10" stroke-linecap="round"/>
</g>
<defs>
<clipPath id="clip0_155_2270">
<rect width="48" height="48" fill="white"/>
</clipPath>
</defs>
</svg>
