<svg width="48" height="48" viewBox="0 0 48 48" fill="none" xmlns="http://www.w3.org/2000/svg">
<g clip-path="url(#clip0_154_2213)">
<path d="M22.665 12H6C5.73734 11.9999 5.47723 12.0516 5.23455 12.1521C4.99186 12.2526 4.77136 12.3999 4.58563 12.5856C4.39989 12.7714 4.25258 12.9919 4.15209 13.2345C4.05161 13.4772 3.99993 13.7373 4 14V34C3.99993 34.2627 4.05161 34.5228 4.15209 34.7655C4.25258 35.0081 4.39989 35.2286 4.58563 35.4144C4.77136 35.6001 4.99186 35.7474 5.23455 35.8479C5.47723 35.9484 5.73734 36.0001 6 36H25.14L33.9 25.485L22.665 12ZM26 31H8C7.73502 30.9992 7.48111 30.8936 7.29374 30.7063C7.10637 30.5189 7.00077 30.265 7 30V26C7.00077 25.735 7.10637 25.4811 7.29374 25.2937C7.48111 25.1064 7.73502 25.0008 8 25H26C26.265 25.0008 26.5189 25.1064 26.7063 25.2937C26.8936 25.4811 26.9992 25.735 27 26V30C26.9992 30.265 26.8936 30.5189 26.7063 30.7063C26.5189 30.8936 26.265 30.9992 26 31Z" fill="#FFD400"/>
<path d="M42.59 35.9099C42.3992 35.9701 42.2001 36.0004 42 35.9999H25.14L33.9 25.4849L42.59 35.9099Z" fill="#FFC20E"/>
<path d="M44 14.0001V34.0001C44 34.4273 43.8631 34.8434 43.6094 35.1871C43.3556 35.5309 42.9983 35.7843 42.59 35.9101L33.9 25.4851L43.925 13.4551C43.9754 13.6323 44.0007 13.8158 44 14.0001Z" fill="#FFD400"/>
<path d="M43.925 13.455L33.9 25.485L22.665 12H42C42.4354 12.0005 42.8588 12.1427 43.2061 12.4052C43.5534 12.6678 43.8058 13.0363 43.925 13.455Z" fill="#FFE600"/>
<path d="M18.5 18H8.5C7.67157 18 7 18.6716 7 19.5C7 20.3284 7.67157 21 8.5 21H18.5C19.3284 21 20 20.3284 20 19.5C20 18.6716 19.3284 18 18.5 18Z" fill="#004169"/>
</g>
<defs>
<clipPath id="clip0_154_2213">
<rect width="48" height="48" fill="white"/>
</clipPath>
</defs>
</svg>
