<svg width="48" height="48" viewBox="0 0 48 48" fill="none" xmlns="http://www.w3.org/2000/svg">
<path d="M40 8L20 8C20 5.79086 21.7909 4 24 4L38 4C39.1046 4 40 4.89543 40 6V8Z" fill="#CD992B"/>
<path d="M12 6C12 4.89543 12.8954 4 14 4L38 4C36.8954 4 36 4.89543 36 6V42C36 43.1046 35.1046 44 34 44H12V6Z" fill="#FFC20E"/>
<path d="M14 15C14 14.4477 14.4477 14 15 14H31C31.5523 14 32 14.4477 32 15C32 15.5523 31.5523 16 31 16H15C14.4477 16 14 15.5523 14 15Z" fill="#004169"/>
<path d="M14 21C14 20.4477 14.4477 20 15 20H31C31.5523 20 32 20.4477 32 21C32 21.5523 31.5523 22 31 22H15C14.4477 22 14 21.5523 14 21Z" fill="#004169"/>
<path d="M14 27C14 26.4477 14.4477 26 15 26H31C31.5523 26 32 26.4477 32 27C32 27.5523 31.5523 28 31 28H15C14.4477 28 14 27.5523 14 27Z" fill="#004169"/>
<path d="M14 33C14 32.4477 14.4477 32 15 32H21C21.5523 32 22 32.4477 22 33C22 33.5523 21.5523 34 21 34H15C14.4477 34 14 33.5523 14 33Z" fill="#004169"/>
<path d="M18.5 9C18.5 8.44772 18.9477 8 19.5 8H28.5C29.0523 8 29.5 8.44772 29.5 9C29.5 9.55229 29.0523 10 28.5 10H19.5C18.9477 10 18.5 9.55229 18.5 9Z" fill="#004169"/>
<path d="M31.9787 32.9598C36.9387 32.9598 40.9596 28.939 40.9596 23.9789C40.9596 19.0189 36.9387 14.998 31.9787 14.998C27.0187 14.998 22.9978 19.0189 22.9978 23.9789C22.9978 28.939 27.0187 32.9598 31.9787 32.9598Z" fill="#FFD400"/>
<path d="M31.9787 21.1666C32.8337 21.1666 33.4302 21.6451 33.4302 22.0738H35.426C35.426 20.7938 34.4354 19.7063 33.0672 19.3219V18.9896C33.0672 18.7249 32.9621 18.4711 32.775 18.284C32.5878 18.0969 32.334 17.9917 32.0693 17.9917H31.8879C31.6233 17.9918 31.3695 18.0969 31.1823 18.284C30.9952 18.4712 30.89 18.725 30.89 18.9896V19.3219C29.5221 19.7063 28.5315 20.7938 28.5315 22.0738C28.5315 23.6744 30.0777 24.9768 31.9787 24.9768C32.8337 24.9768 33.4302 25.4553 33.4302 25.8841C33.4302 26.3129 32.8339 26.7908 31.9787 26.7908C31.1236 26.7908 30.5272 26.3128 30.5272 25.8841H28.5315C28.5315 27.1641 29.5221 28.2511 30.89 28.636V28.9683C30.89 29.233 30.9952 29.4868 31.1823 29.6739C31.3695 29.861 31.6233 29.9662 31.8879 29.9662H32.0693C32.334 29.9662 32.5878 29.8611 32.775 29.674C32.9621 29.4868 33.0672 29.233 33.0672 28.9683V28.636C34.4354 28.251 35.426 27.1641 35.426 25.8841C35.426 24.2841 33.8797 22.9811 31.9787 22.9811C31.1237 22.9811 30.5272 22.5031 30.5272 22.0738C30.5272 21.6446 31.1236 21.1666 31.9787 21.1666Z" fill="#004169"/>
<path d="M31.9788 14C30.0052 14 28.0759 14.5852 26.4349 15.6817C24.7939 16.7782 23.5149 18.3367 22.7596 20.1601C22.0043 21.9835 21.8067 23.9899 22.1917 25.9256C22.5768 27.8613 23.5272 29.6393 24.9227 31.0349C26.3183 32.4304 28.0963 33.3808 30.032 33.7659C31.9677 34.1509 33.9741 33.9533 35.7975 33.198C37.6209 32.4427 39.1794 31.1637 40.2759 29.5227C41.3724 27.8817 41.9576 25.9524 41.9576 23.9788C41.9546 21.3332 40.9024 18.7967 39.0316 16.926C37.1609 15.0553 34.6244 14.003 31.9788 14ZM31.9788 31.9618C30.3999 31.9618 28.8565 31.4936 27.5437 30.6164C26.2308 29.7392 25.2076 28.4924 24.6034 27.0337C23.9992 25.575 23.8411 23.9699 24.1491 22.4213C24.4572 20.8728 25.2175 19.4503 26.334 18.3339C27.4504 17.2174 28.8729 16.4571 30.4214 16.1491C31.97 15.8411 33.5751 15.9992 35.0338 16.6034C36.4925 17.2076 37.7393 18.2308 38.6165 19.5436C39.4937 20.8565 39.9619 22.3999 39.9619 23.9788C39.9594 26.0953 39.1176 28.1244 37.621 29.621C36.1244 31.1176 34.0953 31.9594 31.9788 31.9618Z" fill="#004169"/>
<path d="M8 40H32V42C32 43.1046 32.8954 44 34 44H12C9.79086 44 8 42.2091 8 40Z" fill="#FFD400"/>
</svg>
