<svg width="48" height="48" viewBox="0 0 48 48" fill="none" xmlns="http://www.w3.org/2000/svg">
<path d="M40 8L20 8C20 5.79086 21.7909 4 24 4L38 4C39.1046 4 40 4.89543 40 6V8Z" fill="#CD992B"/>
<path d="M12 6C12 4.89543 12.8954 4 14 4L38 4C36.8954 4 36 4.89543 36 6V42C36 43.1046 35.1046 44 34 44H12V6Z" fill="#FFC20E"/>
<path d="M8 40H32V42C32 43.1046 32.8954 44 34 44H10C8.89543 44 8 43.1046 8 42V40Z" fill="#FFD400"/>
<path d="M16 18C16 17.4477 16.4477 17 17 17H31C31.5523 17 32 17.4477 32 18C32 18.5523 31.5523 19 31 19H17C16.4477 19 16 18.5523 16 18Z" fill="#004169"/>
<path d="M16 24C16 23.4477 16.4477 23 17 23H31C31.5523 23 32 23.4477 32 24C32 24.5523 31.5523 25 31 25H17C16.4477 25 16 24.5523 16 24Z" fill="#004169"/>
<path d="M16 30C16 29.4477 16.4477 29 17 29H31C31.5523 29 32 29.4477 32 30C32 30.5523 31.5523 31 31 31H17C16.4477 31 16 30.5523 16 30Z" fill="#004169"/>
<path d="M16 36C16 35.4477 16.4477 35 17 35H31C31.5523 35 32 35.4477 32 36C32 36.5523 31.5523 37 31 37H17C16.4477 37 16 36.5523 16 36Z" fill="#004169"/>
<path d="M18.5 12C18.5 11.4477 18.9477 11 19.5 11H28.5C29.0523 11 29.5 11.4477 29.5 12C29.5 12.5523 29.0523 13 28.5 13H24H19.5C18.9477 13 18.5 12.5523 18.5 12Z" fill="#004169"/>
<circle cx="32.25" cy="24.25" r="8.75" fill="#FFD400"/>
<path d="M32 14C30.0222 14 28.0888 14.5865 26.4443 15.6853C24.7998 16.7841 23.5181 18.3459 22.7612 20.1732C22.0043 22.0004 21.8063 24.0111 22.1922 25.9509C22.578 27.8907 23.5304 29.6725 24.9289 31.0711C26.3275 32.4696 28.1093 33.422 30.0491 33.8079C31.9889 34.1937 33.9996 33.9957 35.8268 33.2388C37.6541 32.4819 39.2159 31.2002 40.3147 29.5557C41.4135 27.9112 42 25.9778 42 24C41.997 21.3488 40.9425 18.807 39.0678 16.9322C37.1931 15.0575 34.6513 14.003 32 14ZM28.1875 17.2945C28.3954 17.3327 28.5967 17.4004 28.7854 17.4956C28.4262 17.5094 28.0712 17.4152 27.7661 17.2251C27.8721 17.1584 27.9776 17.0916 28.0865 17.0301C28.4009 17.0626 28.0974 17.0487 28.1875 17.2945V17.2945ZM24 24C24.0025 23.3494 24.0848 22.7016 24.245 22.0711C24.3543 22.2543 24.5046 22.4098 24.684 22.5253C24.8634 22.6409 25.0671 22.7133 25.2792 22.7371C25.1947 22.331 25.5673 23.2141 25.8892 23.4566C26.3162 23.7786 26.7492 23.5601 27.2132 23.824C27.7613 24.135 28.7 24.531 28.7315 25.08C28.7383 25.206 28.1861 25.6144 28.2168 26.0253C28.2439 26.3844 28.5713 26.6974 28.824 26.996C29.356 27.6254 29.3875 27.8725 29.5 28.8195C29.6498 29.3942 29.831 29.9602 30.043 30.515C30.1409 30.9814 30.3006 31.4327 30.518 31.8568C28.6872 31.5098 27.0348 30.5354 25.8451 29.1014C24.6554 27.6673 24.0029 25.8633 24 24ZM32 32C31.7764 32 31.5569 31.9846 31.3379 31.9666C31.2058 31.7133 31.1595 31.4239 31.2061 31.1421C31.0493 31.0987 30.9385 31.0071 30.8203 30.9717C30.8739 30.7861 30.8818 30.5902 30.8433 30.4009C30.9195 30.2886 31.6914 29.9834 31.8894 29.7859C32.3086 29.3679 32.252 28.8513 32.5 28.5537C32.7429 28.2627 33.043 28.2537 33.2935 27.8543C33.271 27.8904 33.7785 26.3152 33.7876 26.3543C33.6426 25.7073 32.9195 26.0012 32.499 25.7202C32.3521 25.6223 32.1431 25.6157 31.989 25.5279C31.7571 25.3948 31.9754 25.0833 31.7617 24.8814C31.4324 24.5698 30.9221 24.4822 30.5193 24.0642C30.2703 24.2674 29.4072 24.1018 29.0543 24.1323C28.6415 24.1682 28.6343 24.4523 28.1368 24.1682C27.7694 23.9588 28.4608 23.3667 27.5878 23.4043C27.7003 23.1912 26.0123 22.9539 26.8278 22.1912C27.1416 21.9723 27.5073 21.8395 27.8884 21.8059C28.2695 21.7724 28.6528 21.8393 29 22C28.7456 21.0481 30.7835 19.7581 31.3521 19.5987C31.2421 19.565 31.7085 19.4556 32 19.3337C31.835 19.7326 32.5713 19.0112 33 19.0002C32.8916 18.9196 33 19.0002 32.1094 18.2712C31.9253 18.4152 31.6548 18.4057 31.4894 18.5002C31.55 18.0588 31.2878 17.9611 31.0002 18.0092C30.8193 18.042 30.6483 18.1155 30.5002 18.2242C30.4721 18.2452 30.3266 18.0062 30.2836 17.9686C30.4338 17.9309 30.5793 17.8766 30.7175 17.8067C30.7192 17.7042 31.4931 17.7052 31.2621 17.7621C32.0761 18.1117 32.1021 17.554 32.7341 17.3746C32.6559 17.3936 32.5781 17.4122 32.5002 17.4313C32.4692 16.7012 30.402 17.2386 30.7126 16.8331C30.2176 16.734 30.1535 16.7936 29.8986 17.0497C29.9711 17.0616 29.486 17.0675 29.8146 16.8517C29.4711 16.9747 29.1511 16.6776 28.9357 16.6127C30.3372 16.0285 31.8766 15.8574 33.3721 16.1198C34.8677 16.3821 36.257 17.0667 37.376 18.093C37.2653 18.1555 37.1695 18.2415 37.0955 18.345C37.2989 18.5147 37.5437 18.6273 37.805 18.6714C37.825 18.781 37.845 18.8907 37.8643 19C37.0454 19.2134 36.2105 19.6006 36.481 20.3255C35.651 20.1475 35.1656 20.9946 35.9663 21.1205C36.6338 21.2255 37.022 20.4301 37.5606 20.1595C37.75 20.3824 38.0689 20.5585 38.2725 20.7945C38.293 21.0106 38.4519 20.4891 37.8643 19.9995C38.134 20.0687 38.381 20.2072 38.5808 20.4013C38.7805 20.5953 38.9261 20.8383 39.003 21.106C39.1439 21.0796 39.2748 21.0149 39.3814 20.919C39.4842 21.1643 39.5743 21.4148 39.6514 21.6694C39.2784 21.5577 38.8857 21.5275 38.5 21.5811C38.5381 21.7771 38.5161 21.8999 38.58 22C38.1784 21.6531 37.2695 21.79 37.5 21.064C37.1238 21.1905 36.7542 21.3361 36.3926 21.5C36.0181 21.6026 35.9319 21.2696 35.554 21.5125C35.4043 21.6089 35.6016 21.8975 35.5 22.01C35.3418 22.1846 35.073 22.2591 34.9075 22.427C34.6958 22.6416 34.2425 22.8701 34.752 23C34.5731 23.3481 34.5377 23.7525 34.6534 24.1263C34.7692 24.5002 35.0268 24.8139 35.3711 25C36.449 25.481 36.3516 24.0572 37.2495 24.844C37.4351 25.0061 37.4971 25.0381 37.5161 25.041C37.5088 25.054 37.5135 25.1116 37.6079 25.3181C37.6333 25.3731 37.5821 25.6331 37.6035 25.7305C37.6635 26.0086 37.9859 26.2329 38.0401 26.512C38.1104 26.875 37.999 26.6341 37.992 27.0196C37.9449 27.3285 37.9476 27.643 38 27.9512C38.0137 28.2771 38.1428 28.5876 38.3643 28.8272C37.6208 29.8118 36.6592 30.6108 35.5549 31.1613C34.4507 31.7118 33.2339 31.9989 32 32Z" fill="#004169"/>
<path d="M36.1705 19.148L36.186 18.9645L36.0235 18.894L35.7945 18.949L35.6255 19.2175V19.3955H35.822L36.1705 19.148Z" fill="#004169"/>
</svg>
