<svg width="48" height="48" viewBox="0 0 48 48" fill="none" xmlns="http://www.w3.org/2000/svg">
<path d="M40 8L20 8C20 5.79086 21.7909 4 24 4L38 4C39.1046 4 40 4.89543 40 6V8Z" fill="#CD992B"/>
<path d="M12 6C12 4.89543 12.8954 4 14 4L38 4C36.8954 4 36 4.89543 36 6V42C36 43.1046 35.1046 44 34 44H12V6Z" fill="#FFC20E"/>
<path d="M8 40H32V42C32 43.1046 32.8954 44 34 44H10C8.89543 44 8 43.1046 8 42V40Z" fill="#FFD400"/>
<path d="M14 15C14 14.4477 14.4477 14 15 14H31C31.5523 14 32 14.4477 32 15C32 15.5523 31.5523 16 31 16H15C14.4477 16 14 15.5523 14 15Z" fill="#004169"/>
<path d="M14 21C14 20.4477 14.4477 20 15 20H31C31.5523 20 32 20.4477 32 21C32 21.5523 31.5523 22 31 22H15C14.4477 22 14 21.5523 14 21Z" fill="#004169"/>
<path d="M14 27C14 26.4477 14.4477 26 15 26H31C31.5523 26 32 26.4477 32 27C32 27.5523 31.5523 28 31 28H15C14.4477 28 14 27.5523 14 27Z" fill="#004169"/>
<path d="M14 33C14 32.4477 14.4477 32 15 32H21C21.5523 32 22 32.4477 22 33C22 33.5523 21.5523 34 21 34H15C14.4477 34 14 33.5523 14 33Z" fill="#004169"/>
<path d="M18.5 9C18.5 8.44772 18.9477 8 19.5 8H28.5C29.0523 8 29.5 8.44772 29.5 9C29.5 9.55229 29.0523 10 28.5 10H19.5C18.9477 10 18.5 9.55229 18.5 9Z" fill="#004169"/>
<path d="M22.5 34.6593L25.0882 25L30.8837 26.5529L28.2956 36.2122L25.9154 33.5039L22.5 34.6593Z" fill="#A65718"/>
<path d="M34.0882 36.2122L31.5 26.5529L37.2956 25L39.8837 34.6593L36.4683 33.5039L34.0882 36.2122Z" fill="#A65718"/>
<path d="M35.4862 26.3234L37.4711 26.5682L35.4862 26.3234C35.4661 26.4859 35.3126 26.5974 35.1518 26.5663C33.7037 26.2857 32.2132 26.77 31.2066 27.8481C31.0949 27.9678 30.9051 27.9678 30.7933 27.8481C29.7868 26.77 28.2962 26.2857 26.8481 26.5663C26.6874 26.5974 26.5339 26.4859 26.5138 26.3234C26.3332 24.8595 25.412 23.5915 24.0755 22.9674C23.9272 22.8981 23.8685 22.7176 23.9478 22.5743C24.6622 21.2838 24.6622 19.7166 23.9478 18.4261C23.8685 18.2828 23.9272 18.1023 24.0755 18.0331C25.412 17.4089 26.3332 16.141 26.5138 14.6771C26.5339 14.5145 26.6874 14.403 26.8481 14.4341C28.2962 14.7148 29.7868 14.2304 30.7933 13.1523C30.9051 13.0326 31.0949 13.0326 31.2066 13.1523L32.6685 11.7874L31.2066 13.1523C32.2132 14.2304 33.7038 14.7148 35.1518 14.4341C35.3126 14.403 35.4661 14.5145 35.4862 14.6771L37.4711 14.4322L35.4862 14.6771C35.6668 16.141 36.588 17.4089 37.9244 18.0331C38.0728 18.1023 38.1314 18.2828 38.0521 18.4261C37.3378 19.7166 37.3378 21.2838 38.0521 22.5743C38.1314 22.7176 38.0728 22.8981 37.9244 22.9674C36.588 23.5915 35.6668 24.8595 35.4862 26.3234Z" fill="#0083CA" stroke="#0083CA" stroke-width="4"/>
<path d="M37.5 20.5C37.5 24.0899 34.5899 27 31 27C27.4101 27 24.5 24.0899 24.5 20.5C24.5 16.9101 27.4101 14 31 14C34.5899 14 37.5 16.9101 37.5 20.5Z" fill="#FFD400"/>
<path d="M31 16.5L31.9443 19.5557H35L32.5279 21.4443L33.4721 24.5L31 22.6115L28.5279 24.5L29.4721 21.4443L27 19.5557H30.0557L31 16.5Z" fill="#004169"/>
</svg>
