<svg width="48" height="48" viewBox="0 0 48 48" fill="none" xmlns="http://www.w3.org/2000/svg">
<rect x="9" y="8" width="32" height="24" fill="#FFD400"/>
<path d="M41 8L17 32H41V10V8Z" fill="#FFC20E"/>
<path d="M24 6V5C24 4.44772 24.4477 4 25 4C25.5523 4 26 4.44772 26 5V6H42C42.5523 6 43 6.44772 43 7C43 7.55228 42.5523 8 42 8H8C7.44772 8 7 7.55228 7 7C7 6.44772 7.44772 6 8 6H24Z" fill="#00416B"/>
<path d="M25 44C24.4477 44 24 43.5523 24 43V38.435L18.6213 43.8137C18.2308 44.2042 17.5976 44.2042 17.2071 43.8137C16.8166 43.4232 16.8166 42.79 17.2071 42.3995L24 35.6066V32H9C8.44772 32 8 31.5523 8 31C8 30.4477 8.44771 30 9 30H41C41.5523 30 42 30.4477 42 31C42 31.5523 41.5523 32 41 32H26V35.5858L32.8137 42.3995C33.2042 42.79 33.2042 43.4232 32.8137 43.8137C32.4232 44.2042 31.79 44.2042 31.3995 43.8137L26 38.4142V43C26 43.5523 25.5523 44 25 44Z" fill="#00416B"/>
<path d="M17.8861 15.1581C18.0824 15.3544 18.0874 15.671 17.8975 15.8734L6.6012 27.9099C6.22534 28.3104 5.59264 28.3205 5.20427 27.9321C4.81803 27.5458 4.82552 26.9174 5.22085 26.5404L17.1679 15.1495C17.3699 14.9569 17.6887 14.9607 17.8861 15.1581Z" fill="#0083CA"/>
<path d="M21.5 12C20.9477 12 20.5 12.4477 20.5 13C20.5 13.5523 20.9477 14 21.5 14H36C36.5523 14 37 13.5523 37 13C37 12.4477 36.5523 12 36 12H21.5Z" fill="#CD992B"/>
<path d="M21.5 24C20.9477 24 20.5 24.4477 20.5 25C20.5 25.5523 20.9477 26 21.5 26H30C30.5523 26 31 25.5523 31 25C31 24.4477 30.5523 24 30 24H21.5Z" fill="#CD992B"/>
<path d="M24.5 21C24.5 20.4477 24.9477 20 25.5 20H36C36.5523 20 37 20.4477 37 21C37 21.5523 36.5523 22 36 22H25.5C24.9477 22 24.5 21.5523 24.5 21Z" fill="#CD992B"/>
<path d="M21.5 16C20.9477 16 20.5 16.4477 20.5 17C20.5 17.5523 20.9477 18 21.5 18H30C30.5523 18 31 17.5523 31 17C31 16.4477 30.5523 16 30 16H21.5Z" fill="#CD992B"/>
<path d="M33 17C33 16.4477 33.4477 16 34 16H36C36.5523 16 37 16.4477 37 17C37 17.5523 36.5523 18 36 18H34C33.4477 18 33 17.5523 33 17Z" fill="#CD992B"/>
<path d="M21.5 20C20.9477 20 20.5 20.4477 20.5 21C20.5 21.5523 20.9477 22 21.5 22C22.0523 22 22.5 21.5523 22.5 21C22.5 20.4477 22.0523 20 21.5 20Z" fill="#CD992B"/>
</svg>
