<svg width="48" height="48" viewBox="0 0 48 48" fill="none" xmlns="http://www.w3.org/2000/svg">
<g clip-path="url(#clip0_159_2361)">
<path d="M8 33H40V38C40 38.5304 39.7893 39.0391 39.4142 39.4142C39.0391 39.7893 38.5304 40 38 40H10C9.46957 40 8.96086 39.7893 8.58579 39.4142C8.21071 39.0391 8 38.5304 8 38V33Z" fill="#CD992B"/>
<path d="M41.0002 8.7002H7.00024C5.89567 8.7002 5.00024 9.59563 5.00024 10.7002V33.3002C5.00024 34.4048 5.89567 35.3002 7.00024 35.3002H41.0002C42.1048 35.3002 43.0002 34.4048 43.0002 33.3002V10.7002C43.0002 9.59563 42.1048 8.7002 41.0002 8.7002Z" fill="#FFD400"/>
<path d="M43 10.7002V33.3002C43 33.5629 42.9484 33.823 42.8479 34.0657C42.7474 34.3083 42.6001 34.5288 42.4144 34.7146C42.2286 34.9003 42.0081 35.0476 41.7654 35.1481C41.5227 35.2486 41.2626 35.3003 41 35.3002H12.6L39.2 8.7002H41C41.2626 8.70012 41.5227 8.75181 41.7654 8.85229C42.0081 8.95277 42.2286 9.10009 42.4144 9.28582C42.6001 9.47155 42.7474 9.69206 42.8479 9.93474C42.9484 10.1774 43 10.4375 43 10.7002Z" fill="#FFC20E"/>
<path fill-rule="evenodd" clip-rule="evenodd" d="M22.5002 29.805L28.568 22.7256C28.7412 22.5235 28.8364 22.2662 28.8364 22C28.8364 21.7339 28.7412 21.4765 28.568 21.2744L22.5002 14.1953V29.805Z" fill="#00416B"/>
<path d="M41.0002 36H7.00024C6.20486 35.9991 5.44231 35.6828 4.87989 35.1204C4.31747 34.5579 4.00112 33.7954 4.00024 33V11C4.00112 10.2046 4.31747 9.44206 4.87989 8.87964C5.44231 8.31722 6.20486 8.00087 7.00024 8H41.0002C41.7956 8.00087 42.5582 8.31722 43.1206 8.87964C43.683 9.44206 43.9994 10.2046 44.0002 11V33C43.9994 33.7954 43.683 34.5579 43.1206 35.1204C42.5582 35.6828 41.7956 35.9991 41.0002 36ZM7.00024 10C6.73512 10.0003 6.48094 10.1058 6.29347 10.2932C6.106 10.4807 6.00055 10.7349 6.00024 11V33C6.00055 33.2651 6.106 33.5193 6.29347 33.7068C6.48094 33.8942 6.73512 33.9997 7.00024 34H41.0002C41.2654 33.9997 41.5195 33.8942 41.707 33.7068C41.8945 33.5193 41.9999 33.2651 42.0002 33V11C41.9999 10.7349 41.8945 10.4807 41.707 10.2932C41.5195 10.1058 41.2654 10.0003 41.0002 10H7.00024Z" fill="#CD992B"/>
<path d="M35.0002 38C35.5525 38 36.0002 37.5523 36.0002 37C36.0002 36.4477 35.5525 36 35.0002 36C34.448 36 34.0002 36.4477 34.0002 37C34.0002 37.5523 34.448 38 35.0002 38Z" fill="#0083CA"/>
</g>
<defs>
<clipPath id="clip0_159_2361">
<rect width="48" height="48" fill="white"/>
</clipPath>
</defs>
</svg>
