<svg width="48" height="48" viewBox="0 0 48 48" fill="none" xmlns="http://www.w3.org/2000/svg">
<g clip-path="url(#clip0_155_2252)">
<path d="M30.6921 22.9007C32.4877 21.1356 33.539 18.7498 33.63 16.2335C33.6961 13.6122 32.7285 11.0701 30.9361 9.15619C29.1437 7.24229 26.6704 6.11023 24.0503 6.0045C22.0748 5.94483 20.1269 6.48001 18.4592 7.54064C16.7915 8.60127 15.4809 10.1384 14.6973 11.9529C13.9137 13.7673 13.6932 15.7753 14.0644 17.7165C14.4357 19.6577 15.3815 21.4427 16.7794 22.8399C17.0307 23.086 17.2196 23.3887 17.3303 23.7226C17.441 24.0565 17.4702 24.4121 17.4156 24.7596C17.361 25.1072 17.2241 25.4366 17.0163 25.7205C16.8086 26.0044 16.536 26.2345 16.2212 26.3917C14.0343 27.4432 12.1173 28.982 10.6176 30.8897C9.11797 32.7975 8.07541 35.0235 7.57003 37.3969C7.51035 37.7145 7.52145 38.0413 7.60252 38.3541C7.6836 38.6669 7.83267 38.9579 8.03909 39.2065C8.24552 39.455 8.50424 39.655 8.7968 39.7922C9.08936 39.9293 9.40857 40.0002 9.73168 39.9999H37.7956C38.1192 40.001 38.439 39.9306 38.7322 39.7938C39.0253 39.657 39.2847 39.4571 39.4917 39.2085C39.6987 38.9598 39.8482 38.6685 39.9295 38.3553C40.0108 38.0422 40.022 37.7149 39.9622 37.3969C39.4547 35.0257 38.4112 32.802 36.9117 30.8962C35.4122 28.9904 33.4964 27.4531 31.3111 26.4019C30.9968 26.2527 30.7228 26.0304 30.5119 25.7536C30.301 25.4769 30.1594 25.1537 30.0988 24.8111C30.0382 24.4684 30.0605 24.1163 30.1637 23.784C30.2669 23.4517 30.4481 23.149 30.6921 22.9009" fill="#FFD400"/>
<path d="M39.9995 37.8099C39.9988 38.0986 39.9411 38.3842 39.8298 38.6506C39.7186 38.9169 39.5559 39.1587 39.3511 39.3621C39.1463 39.5655 38.9034 39.7266 38.6363 39.836C38.3692 39.9454 38.0832 40.0011 37.7945 39.9999H13.9995L21.8445 25.6649C32.7545 22.9299 31.7395 11.5099 31.2845 9.55493C31.3845 9.66993 31.4795 9.78493 31.5695 9.90493C31.6345 9.98493 31.6945 10.0649 31.7495 10.1449C31.8445 10.2699 31.9295 10.3999 32.0145 10.5299C32.0995 10.6599 32.1845 10.7949 32.2645 10.9299C33.0737 12.3058 33.5401 13.856 33.6245 15.4499C33.6395 15.7264 33.6395 16.0035 33.6245 16.2799C33.6237 16.4219 33.6153 16.5638 33.5995 16.7049C33.5895 16.8599 33.5695 17.0149 33.5495 17.1699C33.5295 17.3199 33.5095 17.4699 33.4795 17.6199C33.4807 17.6208 33.4816 17.6219 33.4823 17.6232C33.4829 17.6245 33.4832 17.626 33.4832 17.6274C33.4832 17.6289 33.4829 17.6303 33.4823 17.6316C33.4816 17.6329 33.4807 17.6341 33.4795 17.6349C33.4495 17.7899 33.4195 17.9399 33.3845 18.0899C33.3495 18.2399 33.3095 18.3899 33.2695 18.5399C33.1458 18.9877 32.9887 19.4256 32.7995 19.8499C32.7395 19.9899 32.6745 20.1299 32.6045 20.2699C32.5345 20.4049 32.4645 20.5399 32.3945 20.6699C32.3933 20.6775 32.3898 20.6844 32.3845 20.6899C32.3095 20.8199 32.2295 20.9499 32.1495 21.0799C32.0795 21.1949 32.0045 21.3099 31.9295 21.4249C31.7428 21.6965 31.5425 21.9585 31.3295 22.2099C31.1295 22.4449 30.9145 22.6749 30.6895 22.8949C30.6495 22.9399 30.6045 22.9849 30.5695 23.0299C30.4517 23.1698 30.3525 23.3245 30.2745 23.4899C30.1395 23.7745 30.0674 24.0848 30.0631 24.3997C30.0588 24.7146 30.1224 25.0268 30.2495 25.3149C30.332 25.5005 30.4396 25.6738 30.5695 25.8299C30.6045 25.8699 30.6395 25.9099 30.6745 25.9449C30.8568 26.1339 31.072 26.2881 31.3095 26.3999C33.4953 27.451 35.4116 28.9882 36.9118 30.894C38.4119 32.7997 39.4562 35.0234 39.9645 37.3949C39.9886 37.5319 40.0003 37.6708 39.9995 37.8099Z" fill="#FFC20E"/>
</g>
<defs>
<clipPath id="clip0_155_2252">
<rect width="48" height="48" fill="white"/>
</clipPath>
</defs>
</svg>
