<svg width="48" height="48" viewBox="0 0 48 48" fill="none" xmlns="http://www.w3.org/2000/svg">
<g clip-path="url(#clip0_155_2260)">
<path d="M30.8233 21.1487C32.5958 19.4108 33.6324 17.0582 33.7187 14.5775C33.7823 11.9957 32.8281 9.49243 31.0622 7.60798C29.2962 5.72353 26.8602 4.609 24.2797 4.50491C22.3346 4.44786 20.4172 4.97594 18.7756 6.0208C17.134 7.06566 15.8438 8.5792 15.072 10.3655C14.3002 12.1518 14.0823 14.1287 14.4465 16.0402C14.8108 17.9517 15.7404 19.7099 17.115 21.0872C17.3659 21.3294 17.5548 21.6285 17.6656 21.9591C17.7764 22.2898 17.8059 22.6422 17.7516 22.9867C17.6974 23.3312 17.5609 23.6575 17.3539 23.9381C17.1468 24.2186 16.8751 24.4452 16.5619 24.5985C14.4089 25.6345 12.5215 27.1496 11.0443 29.0276C9.5672 30.9057 8.53953 33.0969 8.04005 35.4335C7.98111 35.7467 7.99201 36.069 8.07197 36.3775C8.15193 36.686 8.29899 36.973 8.50264 37.2182C8.70629 37.4633 8.96152 37.6604 9.25013 37.7956C9.53874 37.9307 9.85362 38.0005 10.1723 37.9999H37.8275C38.1462 38.0005 38.4611 37.9307 38.7497 37.7955C39.0384 37.6604 39.2936 37.4633 39.4973 37.2182C39.7009 36.973 39.848 36.686 39.928 36.3775C40.008 36.069 40.0189 35.7467 39.96 35.4335C39.4605 33.0968 38.4328 30.9055 36.9555 29.0274C35.4782 27.1493 33.5906 25.6343 31.4373 24.5985C31.127 24.452 30.8564 24.2334 30.648 23.9608C30.4396 23.6883 30.2994 23.3698 30.2394 23.032C30.1793 22.6942 30.201 22.347 30.3026 22.0193C30.4042 21.6916 30.5829 21.393 30.8236 21.1485" fill="#FFD400"/>
<path d="M37.8264 38H13.42L21.9931 24.0068C33.5477 19.806 31.8575 9.925 31.4089 8.00195C32.9999 9.85737 33.8246 12.249 33.7155 14.6907C33.6063 17.1324 32.5714 19.4409 30.8211 21.147C30.5811 21.3921 30.4032 21.691 30.302 22.0189C30.2009 22.3467 30.1795 22.6939 30.2397 23.0317C30.2999 23.3694 30.4399 23.6879 30.6481 23.9606C30.8563 24.2333 31.1266 24.4524 31.4365 24.5995C33.5903 25.6347 35.4783 27.1494 36.9558 29.0275C38.4333 30.9057 39.461 33.0972 39.96 35.4342C40.0191 35.7474 40.0082 36.0699 39.9282 36.3785C39.8481 36.687 39.701 36.9741 39.4971 37.2193C39.2933 37.4644 39.0379 37.6615 38.749 37.7964C38.4602 37.9314 38.1452 38.0009 37.8264 38Z" fill="#FFC20E"/>
<path fill-rule="evenodd" clip-rule="evenodd" d="M38.4995 35.0081C38.1713 34.2896 37.6383 33.684 36.9673 33.2671L37.214 32.6945C37.2717 32.5607 37.2747 32.4097 37.2225 32.2738C37.1702 32.1378 37.0668 32.0277 36.9344 31.967L36.195 31.628C36.0659 31.5688 35.919 31.5611 35.7844 31.6065C35.6498 31.6519 35.5376 31.747 35.4707 31.8724L35.1362 32.4995C34.7526 32.3232 34.3376 32.225 33.9156 32.2107C33.4936 32.1965 33.0729 32.2664 32.6782 32.4165L32.4836 31.9165C32.4571 31.8483 32.4173 31.7859 32.3666 31.7331C32.316 31.6802 32.2554 31.6378 32.1883 31.6083C32.1213 31.5789 32.0491 31.5629 31.9758 31.5614C31.9026 31.5599 31.8298 31.5728 31.7616 31.5994L31.4039 31.7388C31.2662 31.7925 31.1554 31.8987 31.096 32.034C31.0365 32.1693 31.0332 32.3227 31.0868 32.4604L31.2681 32.9263C29.9155 33.5843 29.9903 33.8839 29.5567 34.5259L29.0267 34.2829C28.9588 34.2517 28.8853 34.2345 28.8105 34.2323C28.7358 34.2301 28.6615 34.243 28.5918 34.2701C28.5222 34.2973 28.4587 34.3381 28.4052 34.3903C28.3516 34.4424 28.3091 34.5048 28.2802 34.5737L27.9691 35.3149C27.9151 35.4436 27.9113 35.588 27.9585 35.7194C28.0057 35.8508 28.1005 35.9596 28.2241 36.0245L28.833 36.3441C28.5978 37.1387 28.5914 37.9835 28.8145 38.7816L28.2066 39.0183C28.0688 39.0719 27.958 39.1781 27.8985 39.3135C27.839 39.4488 27.8357 39.6023 27.8893 39.7401L28.0287 40.0981C28.0553 40.1664 28.095 40.2287 28.1457 40.2816C28.1963 40.3344 28.2569 40.3768 28.3239 40.4063C28.391 40.4357 28.4631 40.4517 28.5364 40.4533C28.6096 40.4548 28.6824 40.4419 28.7506 40.4154L29.3356 40.1876C29.6253 40.9626 30.1888 41.6047 30.9196 41.9926L30.6485 42.7016C30.5983 42.8328 30.5995 42.9782 30.6519 43.1085C30.7043 43.2389 30.804 43.3447 30.931 43.4048L31.7028 43.7698C31.833 43.8313 31.982 43.8401 32.1185 43.7943C32.255 43.7484 32.3685 43.6516 32.4352 43.5239L32.7946 42.8361C33.5138 43.0292 33.7072 43.3156 35.1573 42.9081L35.4443 43.6448C35.4979 43.7825 35.6041 43.8933 35.7395 43.9528C35.8749 44.0123 36.0283 44.0156 36.1661 43.9619L36.524 43.8226C36.5922 43.796 36.6546 43.7563 36.7074 43.7056C36.7603 43.6549 36.8027 43.5944 36.8321 43.5273C36.8616 43.4603 36.8775 43.3881 36.8791 43.3149C36.8807 43.2417 36.8678 43.1689 36.8412 43.1007L36.5675 42.3981C37.9244 41.7511 37.8238 41.4881 38.2433 40.8781L38.8883 41.1653C38.9561 41.1954 39.0292 41.2118 39.1033 41.2133C39.1775 41.2149 39.2512 41.2017 39.3202 41.1744C39.3892 41.1471 39.452 41.1063 39.505 41.0544C39.558 41.0025 39.6002 40.9406 39.6289 40.8722L39.9563 40.0943C40.0081 39.9712 40.014 39.8336 39.973 39.7066C39.9319 39.5795 39.8466 39.4714 39.7326 39.4019L38.9699 38.9369L38.9684 38.9331C39.2828 38.1285 39.2893 37.2362 38.9868 36.4271L39.5851 36.1939C39.7229 36.1402 39.8337 36.034 39.8931 35.8986C39.9526 35.7633 39.9559 35.6098 39.9022 35.4721L39.7629 35.1143C39.7363 35.046 39.6966 34.9837 39.6459 34.9308C39.5952 34.8779 39.5346 34.8356 39.4676 34.8061C39.4005 34.7767 39.3284 34.7607 39.2551 34.7591C39.1819 34.7576 39.1091 34.7705 39.0409 34.7971L38.4995 35.0081ZM34.916 40.177C34.4202 40.3887 33.8726 40.4476 33.3431 40.3461C32.8137 40.2446 32.3266 39.9874 31.9443 39.6073C31.562 39.2272 31.3019 38.7417 31.1973 38.2128C31.0927 37.684 31.1484 37.136 31.3572 36.639C31.566 36.142 31.9185 35.7187 32.3694 35.4233C32.8203 35.1279 33.3492 34.9738 33.8882 34.9809C34.4272 34.9879 34.9519 35.1557 35.3949 35.4629C35.838 35.77 36.1792 36.2023 36.375 36.7046C36.6414 37.3586 36.6374 38.0916 36.3639 38.7427C36.0903 39.3937 35.5696 39.9096 34.916 40.177Z" fill="#00416B"/>
</g>
<defs>
<clipPath id="clip0_155_2260">
<rect width="48" height="48" fill="white"/>
</clipPath>
</defs>
</svg>
