<svg width="48" height="48" viewBox="0 0 48 48" fill="none" xmlns="http://www.w3.org/2000/svg">
<g clip-path="url(#clip0_3011_6522)">
<path d="M20.7619 23.6756C22.0637 22.4045 22.8251 20.6839 22.8888 18.8696C22.9353 16.9814 22.2344 15.1507 20.9373 13.7725C19.6402 12.3944 17.8509 11.5792 15.9556 11.5031C14.5269 11.4613 13.1185 11.8475 11.9128 12.6116C10.707 13.3757 9.75926 14.4826 9.19231 15.7891C8.62536 17.0955 8.46526 18.5413 8.73272 19.9393C9.00019 21.3373 9.68291 22.6233 10.6925 23.6306C10.8769 23.8077 11.0157 24.0264 11.0972 24.2682C11.1787 24.51 11.2005 24.7678 11.1607 25.0197C11.1209 25.2717 11.0207 25.5104 10.8686 25.7156C10.7166 25.9209 10.517 26.0866 10.287 26.1988C8.7055 26.9563 7.31913 28.0643 6.23412 29.4378C5.14912 30.8113 4.39427 32.4139 4.02742 34.1228C3.98415 34.3518 3.99217 34.5876 4.0509 34.8132C4.10964 35.0388 4.21764 35.2487 4.3672 35.428C4.51677 35.6073 4.70422 35.7515 4.91618 35.8504C5.12815 35.9493 5.35941 36.0003 5.59348 36H25.9065C26.1406 36.0003 26.3718 35.9493 26.5838 35.8504C26.7958 35.7515 26.9832 35.6073 27.1328 35.428C27.2824 35.2487 27.3904 35.0388 27.4491 34.8132C27.5078 34.5876 27.5158 34.3519 27.4726 34.1228C27.1057 32.4138 26.3508 30.8112 25.2658 29.4376C24.1807 28.0641 22.7943 26.9561 21.2127 26.1985C20.9848 26.0914 20.786 25.9315 20.633 25.7322C20.4799 25.5329 20.377 25.3 20.3329 25.053C20.2887 24.806 20.3046 24.552 20.3793 24.3124C20.4539 24.0727 20.5851 23.8544 20.7619 23.6756Z" fill="#CD992B"/>
<path d="M37.2619 23.6756C38.5637 22.4045 39.3251 20.6839 39.3888 18.8696C39.4353 16.9814 38.7344 15.1507 37.4373 13.7725C36.1402 12.3944 34.3509 11.5792 32.4556 11.5031C31.0269 11.4613 29.6185 11.8475 28.4128 12.6116C27.207 13.3757 26.2593 14.4826 25.6923 15.7891C25.1254 17.0955 24.9653 18.5413 25.2327 19.9393C25.5002 21.3373 26.1829 22.6233 27.1925 23.6306C27.3769 23.8077 27.5157 24.0264 27.5972 24.2682C27.6787 24.51 27.7005 24.7678 27.6607 25.0197C27.6209 25.2717 27.5207 25.5104 27.3686 25.7156C27.2166 25.9209 27.017 26.0866 26.787 26.1988C25.2055 26.9563 23.8191 28.0643 22.7341 29.4378C21.6491 30.8113 20.8943 32.4139 20.5274 34.1228C20.4842 34.3518 20.4922 34.5876 20.5509 34.8132C20.6096 35.0388 20.7176 35.2487 20.8672 35.428C21.0168 35.6073 21.2042 35.7515 21.4162 35.8504C21.6281 35.9493 21.8594 36.0003 22.0935 36H42.4065C42.6406 36.0003 42.8718 35.9493 43.0838 35.8504C43.2958 35.7515 43.4832 35.6073 43.6328 35.428C43.7824 35.2487 43.8904 35.0388 43.9491 34.8132C44.0078 34.5876 44.0158 34.3519 43.9726 34.1228C43.6057 32.4138 42.8508 30.8112 41.7658 29.4376C40.6807 28.0641 39.2943 26.9561 37.7127 26.1985C37.4848 26.0914 37.286 25.9315 37.133 25.7322C36.9799 25.5329 36.877 25.3 36.8329 25.053C36.7887 24.806 36.8046 24.552 36.8793 24.3124C36.9539 24.0727 37.0851 23.8544 37.2619 23.6756Z" fill="#A65718"/>
<path d="M30.7548 23.9029C32.4443 22.2427 33.4326 19.9955 33.5153 17.6257C33.5757 15.1595 32.666 12.7683 30.9825 10.9683C29.299 9.16818 26.9768 8.10352 24.5168 8.00401C22.6626 7.94942 20.8347 8.45378 19.2697 9.45181C17.7047 10.4498 16.4747 11.8956 15.7388 13.6019C15.003 15.3083 14.7951 17.1967 15.1423 19.0227C15.4894 20.8487 16.3755 22.5283 17.6859 23.844C17.9252 24.0753 18.1053 24.3609 18.2111 24.6768C18.3168 24.9926 18.3451 25.3293 18.2935 25.6584C18.2418 25.9875 18.1118 26.2992 17.9144 26.5673C17.7171 26.8353 17.4581 27.0518 17.1596 27.1983C15.107 28.1878 13.3077 29.635 11.8995 31.429C10.4913 33.223 9.51166 35.3162 9.03557 37.5482C8.97943 37.8474 8.98985 38.1553 9.06609 38.45C9.14233 38.7446 9.28252 39.0188 9.47665 39.253C9.67078 39.4872 9.91408 39.6755 10.1892 39.8046C10.4643 39.9338 10.7645 40.0005 11.0683 40H37.432C37.7357 40.0004 38.0359 39.9337 38.311 39.8046C38.586 39.6754 38.8293 39.4871 39.0234 39.2529C39.2175 39.0188 39.3577 38.7446 39.4339 38.4499C39.5102 38.1553 39.5206 37.8474 39.4644 37.5482C38.9883 35.3161 38.0086 33.2228 36.6003 31.4288C35.192 29.6348 33.3926 28.1876 31.3399 27.1982C31.0441 27.0582 30.7862 26.8494 30.5875 26.5891C30.3888 26.3288 30.2553 26.0246 30.198 25.7019C30.1407 25.3793 30.1614 25.0476 30.2582 24.7346C30.3551 24.4216 30.5253 24.1364 30.7548 23.9029Z" fill="#FFD400"/>
<path d="M37.4169 40H14L22.2257 26.7056C33.312 22.7147 31.6903 13.327 31.2596 11.5C32.7861 13.2628 33.5774 15.535 33.4727 17.8548C33.368 20.1746 32.3752 22.3679 30.696 23.9888C30.4656 24.2217 30.2948 24.5057 30.1977 24.8171C30.1007 25.1286 30.0801 25.4585 30.1379 25.7794C30.1956 26.1003 30.33 26.4029 30.5297 26.662C30.7294 26.9211 30.9888 27.1292 31.2862 27.269C33.3526 28.2524 35.1641 29.6914 36.5817 31.4757C37.9993 33.26 38.9853 35.3421 39.464 37.5623C39.5207 37.8599 39.5103 38.1662 39.4335 38.4594C39.3568 38.7526 39.2156 39.0254 39.02 39.2583C38.8244 39.4912 38.5793 39.6784 38.3022 39.8066C38.0251 39.9349 37.7228 40.0009 37.4169 40Z" fill="#FFC20E"/>
</g>
<defs>
<clipPath id="clip0_3011_6522">
<rect width="48" height="48" fill="white"/>
</clipPath>
</defs>
</svg>
