<svg width="48" height="48" viewBox="0 0 48 48" fill="none" xmlns="http://www.w3.org/2000/svg">
<g clip-path="url(#clip0_154_2217)">
<path fill-rule="evenodd" clip-rule="evenodd" d="M35.635 9.21986L28.2105 38.5205C28.133 38.8271 27.9824 39.1104 27.7715 39.3461C27.5607 39.5817 27.2959 39.7629 26.9998 39.8739C26.7037 39.9849 26.3851 40.0226 26.0713 39.9836C25.7575 39.9447 25.4577 39.8303 25.1978 39.6503L17.26 34.153L14.3059 32.1087L27.5032 15.8824L35.1261 8.10986C35.3038 8.23113 35.4451 8.39857 35.5347 8.59415C35.6244 8.78973 35.6591 9.00606 35.635 9.21986Z" fill="#FFC20E"/>
<path fill-rule="evenodd" clip-rule="evenodd" d="M35.1261 8.10993L27.5032 15.8825L11.0146 29.8299L4.84247 25.5599C4.56124 25.3652 4.336 25.1002 4.18922 24.7912C4.04244 24.4822 3.97926 24.1402 4.00598 23.7992C4.03269 23.4582 4.14837 23.1301 4.34148 22.8478C4.53458 22.5655 4.79835 22.3387 5.10647 22.1902L34.2604 8.09993C34.395 8.03256 34.5439 7.99832 34.6944 8.00006C34.845 8.0018 34.993 8.03947 35.1261 8.10993Z" fill="#FFD400"/>
<path fill-rule="evenodd" clip-rule="evenodd" d="M27.503 15.8823L14.306 32.1088L11.0145 29.8343V29.8298L27.503 15.8823Z" fill="#00416B"/>
<path fill-rule="evenodd" clip-rule="evenodd" d="M14.3061 32.1087L12.2861 39.5133C12.1147 39.4487 11.9658 39.3358 11.8573 39.1882C11.7489 39.0406 11.6855 38.8648 11.675 38.6819L11.015 29.8345L14.3061 32.1087Z" fill="#00416B"/>
<path fill-rule="evenodd" clip-rule="evenodd" d="M17.2599 34.1532L13.4256 39.2005C13.2978 39.3724 13.1162 39.4965 12.9097 39.5533C12.7032 39.61 12.4836 39.596 12.286 39.5135L14.306 32.1089L17.2599 34.1532Z" fill="#CD992B"/>
<path d="M34 39C38.9706 39 43 34.9706 43 30C43 25.0294 38.9706 21 34 21C29.0294 21 25 25.0294 25 30C25 34.9706 29.0294 39 34 39Z" fill="#FFD400"/>
<path d="M34 27.1817C34.857 27.1817 35.4546 27.6611 35.4546 28.0908H37.4546C37.4546 26.8081 36.4619 25.7183 35.0908 25.333V25C35.0908 24.7348 34.9854 24.4804 34.7979 24.2929C34.6104 24.1054 34.356 24 34.0908 24H33.909C33.6437 24 33.3894 24.1054 33.2019 24.2929C33.0143 24.4804 32.909 24.7348 32.909 25V25.333C31.5381 25.7183 30.5454 26.808 30.5454 28.0908C30.5454 29.695 32.095 31 34 31C34.857 31 35.4546 31.4795 35.4546 31.9092C35.4546 32.3389 34.857 32.8178 34 32.8178C33.1431 32.8178 32.5454 32.3389 32.5454 31.9092H30.5454C30.5454 33.1919 31.5381 34.2812 32.909 34.667V35C32.909 35.2652 33.0143 35.5196 33.2019 35.7071C33.3894 35.8946 33.6437 36 33.909 36H34.0908C34.356 36 34.6104 35.8946 34.7979 35.7071C34.9854 35.5196 35.0908 35.2652 35.0908 35V34.667C36.4619 34.2812 37.4546 33.192 37.4546 31.9092C37.4546 30.3057 35.905 29 34 29C33.1431 29 32.5454 28.521 32.5454 28.0908C32.5454 27.6606 33.1431 27.1817 34 27.1817Z" fill="#004169"/>
<path d="M34 20C32.0222 20 30.0888 20.5865 28.4443 21.6853C26.7998 22.7841 25.5181 24.3459 24.7612 26.1732C24.0043 28.0004 23.8063 30.0111 24.1922 31.9509C24.578 33.8907 25.5304 35.6725 26.9289 37.0711C28.3275 38.4696 30.1093 39.422 32.0491 39.8079C33.9889 40.1937 35.9996 39.9957 37.8268 39.2388C39.6541 38.4819 41.2159 37.2002 42.3147 35.5557C43.4135 33.9112 44 31.9778 44 30C43.9971 27.3487 42.9425 24.8069 41.0678 22.9322C39.1931 21.0575 36.6513 20.003 34 20ZM34 38C32.4178 38 30.871 37.5308 29.5554 36.6518C28.2399 35.7727 27.2145 34.5233 26.609 33.0615C26.0035 31.5997 25.845 29.9911 26.1537 28.4393C26.4624 26.8874 27.2243 25.462 28.3432 24.3431C29.462 23.2243 30.8874 22.4624 32.4393 22.1537C33.9911 21.845 35.5997 22.0035 37.0615 22.609C38.5233 23.2145 39.7727 24.2398 40.6518 25.5554C41.5308 26.871 42 28.4178 42 30C41.9976 32.121 41.1539 34.1544 39.6542 35.6542C38.1544 37.1539 36.121 37.9976 34 38Z" fill="#004169"/>
</g>
<defs>
<clipPath id="clip0_154_2217">
<rect width="48" height="48" fill="white"/>
</clipPath>
</defs>
</svg>
