<svg width="48" height="48" viewBox="0 0 48 48" fill="none" xmlns="http://www.w3.org/2000/svg">
<g clip-path="url(#clip0_154_2219)">
<path fill-rule="evenodd" clip-rule="evenodd" d="M36.635 9.21986L29.2105 38.5205C29.133 38.8271 28.9824 39.1104 28.7716 39.3461C28.5607 39.5817 28.2959 39.7629 27.9998 39.8739C27.7037 39.9849 27.3852 40.0226 27.0713 39.9836C26.7575 39.9447 26.4578 39.8303 26.1978 39.6503L18.26 34.153L15.3059 32.1087L28.5032 15.8824L36.1261 8.10986C36.3038 8.23114 36.4451 8.39858 36.5348 8.59416C36.6244 8.78974 36.6591 9.00607 36.635 9.21986Z" fill="#FFC20E"/>
<path fill-rule="evenodd" clip-rule="evenodd" d="M36.1262 8.10993L28.5033 15.8825L12.0147 29.8299L5.84259 25.5599C5.56137 25.3652 5.33612 25.1002 5.18934 24.7912C5.04257 24.4822 4.97938 24.1402 5.0061 23.7992C5.03281 23.4582 5.1485 23.1301 5.3416 22.8478C5.5347 22.5655 5.79847 22.3387 6.10659 22.1902L35.2605 8.09993C35.3952 8.03256 35.544 7.99832 35.6946 8.00006C35.8451 8.0018 35.9931 8.03947 36.1262 8.10993Z" fill="#FFD400"/>
<path fill-rule="evenodd" clip-rule="evenodd" d="M28.503 15.8823L15.306 32.1088L12.0145 29.8343V29.8298L28.503 15.8823Z" fill="#00416B"/>
<path fill-rule="evenodd" clip-rule="evenodd" d="M15.3061 32.1087L13.2861 39.5133C13.1147 39.4487 12.9658 39.3358 12.8573 39.1882C12.7489 39.0406 12.6855 38.8648 12.675 38.6819L12.015 29.8345L15.3061 32.1087Z" fill="#00416B"/>
<path fill-rule="evenodd" clip-rule="evenodd" d="M18.26 34.1532L14.4257 39.2005C14.298 39.3724 14.1164 39.4965 13.9098 39.5533C13.7033 39.61 13.4838 39.596 13.2861 39.5135L15.3061 32.1089L18.26 34.1532Z" fill="#CD992B"/>
<path d="M37 32L42 25H32L37 32Z" fill="#0083CA"/>
<path d="M37 33C36.8408 32.9999 36.684 32.9619 36.5424 32.8891C36.4008 32.8163 36.2787 32.7108 36.1861 32.5813L31.1861 25.5813C31.0792 25.4318 31.0157 25.2557 31.0024 25.0724C30.9891 24.8891 31.0265 24.7057 31.1106 24.5423C31.1947 24.3789 31.3222 24.2419 31.4791 24.1462C31.636 24.0505 31.8163 24 32 24H42C42.1838 24 42.364 24.0505 42.5209 24.1462C42.6778 24.2419 42.8053 24.3789 42.8894 24.5423C42.9735 24.7057 43.011 24.8891 42.9977 25.0724C42.9843 25.2557 42.9208 25.4318 42.814 25.5813L37.814 32.5813C37.7213 32.7108 37.5992 32.8163 37.4576 32.8891C37.3161 32.9619 37.1592 32.9999 37 33ZM33.9433 26L37 30.2796L40.0566 26H33.9433Z" fill="#00416B"/>
<path d="M42 40H32C31.8163 40.0001 31.636 39.9495 31.4791 39.8538C31.3222 39.7581 31.1947 39.6211 31.1106 39.4577C31.0265 39.2943 30.9891 39.1109 31.0024 38.9276C31.0157 38.7443 31.0792 38.5682 31.1861 38.4187L36.1861 31.4187C36.2786 31.2892 36.4008 31.1836 36.5424 31.1108C36.6839 31.038 36.8408 31 37 31C37.1592 31 37.3161 31.038 37.4577 31.1108C37.5992 31.1836 37.7214 31.2892 37.814 31.4187L42.814 38.4187C42.9208 38.5682 42.9843 38.7443 42.9977 38.9276C43.011 39.1109 42.9735 39.2943 42.8894 39.4577C42.8053 39.6211 42.6778 39.7581 42.5209 39.8538C42.364 39.9495 42.1838 40.0001 42 40ZM33.9433 38H40.0566L37 33.7205L33.9433 38Z" fill="#00416B"/>
</g>
<defs>
<clipPath id="clip0_154_2219">
<rect width="48" height="48" fill="white"/>
</clipPath>
</defs>
</svg>
