<svg width="48" height="48" viewBox="0 0 48 48" fill="none" xmlns="http://www.w3.org/2000/svg">
<path d="M25.8012 12.2139L24.2669 30.0832C24.2403 30.4298 24.1145 30.7614 23.9044 31.0384C23.6944 31.3153 23.409 31.5259 23.0825 31.645L4.15857 38.315L25.8012 12.2139Z" fill="#CD992B"/>
<path fill-rule="evenodd" clip-rule="evenodd" d="M5.21309 38.4261L36.1565 18.8919C36.4448 18.7055 36.6754 18.4424 36.8224 18.1322C36.9695 17.822 37.0272 17.477 36.989 17.1358C36.9509 16.7946 36.8184 16.4709 36.6065 16.2008C36.3945 15.9307 36.1115 15.7251 35.7892 15.6069L25.8011 12.214L21.832 17.0008V10.8657L13.075 7.89078C12.8429 7.81498 12.5976 7.78852 12.3547 7.81311C12.1118 7.83769 11.8767 7.91278 11.6646 8.03355C11.4524 8.15433 11.2678 8.31812 11.1227 8.51442C10.9775 8.71072 10.875 8.93519 10.8217 9.17343L3.90349 37.4256C3.85541 37.5965 3.85975 37.7779 3.91596 37.9464C3.97217 38.1148 4.07765 38.2625 4.21874 38.3703C4.35984 38.4781 4.53005 38.541 4.70733 38.551C4.88462 38.561 5.06081 38.5175 5.21309 38.4261Z" fill="#FFC20E"/>
<path fill-rule="evenodd" clip-rule="evenodd" d="M6.29846 35.7347L21.832 10.8657V17.0007L6.29846 35.7347Z" fill="#00416B"/>
<path fill-rule="evenodd" clip-rule="evenodd" d="M36.1545 18.8938L5.21122 38.4266C5.04862 38.5286 4.85648 38.573 4.66561 38.5528C4.47473 38.5326 4.29618 38.4488 4.15857 38.315L25.8012 12.2139L35.7897 15.6089C36.1119 15.7272 36.3948 15.9331 36.6065 16.2033C36.8183 16.4735 36.9505 16.7973 36.9884 17.1385C37.0263 17.4797 36.9683 17.8246 36.821 18.1347C36.6737 18.4448 36.4429 18.7076 36.1545 18.8938Z" fill="#FFD400"/>
<path d="M33.9787 39.0023C38.9387 39.0023 42.9596 34.9814 42.9596 30.0214C42.9596 25.0614 38.9387 21.0405 33.9787 21.0405C29.0187 21.0405 24.9978 25.0614 24.9978 30.0214C24.9978 34.9814 29.0187 39.0023 33.9787 39.0023Z" fill="#FFD400"/>
<path d="M33.9787 27.2091C34.8337 27.2091 35.4302 27.6876 35.4302 28.1163H37.426C37.426 26.8363 36.4354 25.7488 35.0672 25.3644V25.0321C35.0672 24.7674 34.9621 24.5136 34.775 24.3265C34.5878 24.1393 34.334 24.0342 34.0693 24.0342H33.8879C33.6233 24.0342 33.3695 24.1394 33.1823 24.3265C32.9952 24.5136 32.89 24.7674 32.89 25.0321V25.3644C31.5221 25.7488 30.5315 26.8363 30.5315 28.1163C30.5315 29.7169 32.0777 31.0193 33.9787 31.0193C34.8337 31.0193 35.4302 31.4978 35.4302 31.9266C35.4302 32.3554 34.8339 32.8333 33.9787 32.8333C33.1236 32.8333 32.5272 32.3553 32.5272 31.9266H30.5315C30.5315 33.2066 31.5221 34.2936 32.89 34.6785V35.0108C32.89 35.2755 32.9952 35.5293 33.1823 35.7164C33.3695 35.9035 33.6233 36.0087 33.8879 36.0087H34.0693C34.334 36.0087 34.5878 35.9036 34.775 35.7164C34.9621 35.5293 35.0672 35.2755 35.0672 35.0108V34.6785C36.4354 34.2935 37.426 33.2066 37.426 31.9266C37.426 30.3266 35.8797 29.0236 33.9787 29.0236C33.1237 29.0236 32.5272 28.5456 32.5272 28.1163C32.5272 27.6871 33.1236 27.2091 33.9787 27.2091Z" fill="#004169"/>
<path d="M33.9788 20.0425C32.0052 20.0425 30.0759 20.6277 28.4349 21.7242C26.7939 22.8207 25.5149 24.3792 24.7596 26.2026C24.0043 28.0259 23.8067 30.0323 24.1917 31.968C24.5768 33.9037 25.5272 35.6818 26.9227 37.0774C28.3183 38.4729 30.0963 39.4233 32.032 39.8083C33.9677 40.1934 35.9741 39.9958 37.7975 39.2405C39.6209 38.4852 41.1794 37.2062 42.2759 35.5652C43.3724 33.9242 43.9576 31.9949 43.9576 30.0213C43.9546 27.3756 42.9024 24.8392 41.0316 22.9685C39.1609 21.0977 36.6244 20.0454 33.9788 20.0425ZM33.9788 38.0043C32.3999 38.0043 30.8565 37.5361 29.5437 36.6589C28.2308 35.7817 27.2076 34.5349 26.6034 33.0762C25.9992 31.6175 25.8411 30.0124 26.1491 28.4638C26.4572 26.9152 27.2175 25.4928 28.334 24.3763C29.4504 23.2599 30.8729 22.4996 32.4214 22.1916C33.97 21.8835 35.5751 22.0416 37.0338 22.6459C38.4925 23.2501 39.7393 24.2733 40.6165 25.5861C41.4937 26.8989 41.9619 28.4424 41.9619 30.0213C41.9594 32.1378 41.1176 34.1669 39.621 35.6635C38.1244 37.16 36.0953 38.0019 33.9788 38.0043Z" fill="#004169"/>
</svg>
