<svg width="48" height="48" viewBox="0 0 48 48" fill="none" xmlns="http://www.w3.org/2000/svg">
<g clip-path="url(#clip0_159_2392)">
<path d="M24 42C20.4399 42 16.9598 40.9443 13.9997 38.9665C11.0397 36.9886 8.73255 34.1774 7.37018 30.8883C6.0078 27.5992 5.65134 23.98 6.34587 20.4884C7.04041 16.9967 8.75474 13.7894 11.2721 11.2721C13.7894 8.75474 16.9967 7.04041 20.4884 6.34587C23.98 5.65134 27.5992 6.0078 30.8883 7.37018C34.1774 8.73255 36.9886 11.0397 38.9665 13.9997C40.9443 16.9598 42 20.4399 42 24C42 28.7739 40.1036 33.3523 36.7279 36.7279C33.3523 40.1036 28.7739 42 24 42Z" fill="#FFD400"/>
<path d="M42 23.9999C42.0006 27.3972 41.0396 30.7253 39.2281 33.5994C37.4166 36.4735 34.8285 38.7761 31.7632 40.241C28.6979 41.7059 25.2806 42.2731 21.9064 41.8773C18.5321 41.4814 15.3389 40.1385 12.6959 38.0039L38.004 12.6958C40.5936 15.8937 42.0045 19.885 42 23.9999Z" fill="#FFC20E"/>
<path d="M20.875 31.0002C20.7436 31.0003 20.6135 30.9746 20.4922 30.9243C20.3708 30.874 20.2606 30.8002 20.1679 30.7072L14.4179 24.9572C14.2343 24.7689 14.1323 24.5158 14.1339 24.2528C14.1356 23.9898 14.2408 23.738 14.4268 23.552C14.6128 23.366 14.8646 23.2608 15.1276 23.2592C15.3906 23.2575 15.6437 23.3595 15.832 23.5431L20.875 28.5859L32.1679 17.2931C32.2603 17.1983 32.3706 17.1228 32.4925 17.071C32.6143 17.0192 32.7452 16.9921 32.8776 16.9912C33.01 16.9904 33.1412 17.0158 33.2637 17.0661C33.3861 17.1164 33.4974 17.1905 33.591 17.2841C33.6846 17.3777 33.7587 17.489 33.809 17.6115C33.8593 17.7339 33.8847 17.8652 33.8839 17.9975C33.8831 18.1299 33.8559 18.2608 33.8041 18.3827C33.7523 18.5045 33.6768 18.6148 33.582 18.7072L21.582 30.7072C21.4893 30.8002 21.3791 30.874 21.2577 30.9243C21.1364 30.9746 21.0063 31.0003 20.875 31.0002Z" fill="#00416B"/>
</g>
<defs>
<clipPath id="clip0_159_2392">
<rect width="48" height="48" fill="white"/>
</clipPath>
</defs>
</svg>
