<svg width="48" height="48" viewBox="0 0 48 48" fill="none" xmlns="http://www.w3.org/2000/svg">
<g clip-path="url(#clip0_3116_6933)">
<path d="M6 34L24 41.9965L42 33.968V14L24 6L6 14V34Z" fill="#FFD400"/>
<path d="M24 41.9965V22L42 14V33.968L24 41.9965Z" fill="#CD992B"/>
<path d="M24 41.9965V22L6 14V33.968L24 41.9965Z" fill="#FFC20E"/>
<path d="M35.5734 16.897L17.5734 8.89697L12.705 11.0075L30.705 19.0075V24.9763C30.7049 25.1437 30.747 25.3085 30.8272 25.4554C30.9074 25.6024 31.0232 25.7268 31.164 25.8174C31.3048 25.908 31.466 25.9617 31.633 25.9738C31.8 25.9858 31.9673 25.9557 32.1197 25.8863L34.9882 24.579C35.1628 24.4995 35.3108 24.3714 35.4146 24.21C35.5183 24.0487 35.5735 23.8609 35.5735 23.669L35.5734 16.897Z" fill="#A65718"/>
<path d="M32.957 42.0091C32.8257 42.0093 32.6956 41.9835 32.5742 41.9332C32.4529 41.883 32.3427 41.8092 32.25 41.7162L27.284 36.7502C27.1004 36.5618 26.9984 36.3087 27 36.0457C27.0017 35.7827 27.1069 35.5309 27.2929 35.345C27.4789 35.159 27.7306 35.0538 27.9937 35.0521C28.2567 35.0504 28.5098 35.1524 28.6981 35.3361L32.957 39.5948L42.0519 30.5002C42.1443 30.4054 42.2546 30.3299 42.3764 30.278C42.4983 30.2262 42.6292 30.1991 42.7615 30.1983C42.8939 30.1974 43.0252 30.2229 43.1476 30.2732C43.2701 30.3234 43.3814 30.3975 43.475 30.4911C43.5686 30.5847 43.6427 30.696 43.693 30.8185C43.7432 30.941 43.7687 31.0722 43.7679 31.2046C43.767 31.337 43.7399 31.4679 43.6881 31.5897C43.6363 31.7115 43.5608 31.8218 43.466 31.9143L33.6641 41.7162C33.5713 41.8092 33.4611 41.883 33.3398 41.9332C33.2184 41.9835 33.0884 42.0093 32.957 42.0091Z" fill="#00416B"/>
</g>
<defs>
<clipPath id="clip0_3116_6933">
<rect width="48" height="48" fill="white"/>
</clipPath>
</defs>
</svg>
