<svg width="48" height="48" viewBox="0 0 48 48" fill="none" xmlns="http://www.w3.org/2000/svg">
<g clip-path="url(#clip0_154_2230)">
<path d="M10.0005 30.8412L25.9895 37.9442L41.979 30.8122V13.0752L25.9895 5.96924L10.0005 13.0752V30.8412Z" fill="#FFD400"/>
<path d="M25.9895 37.9442V20.1817L41.979 13.0752V30.8122L25.9895 37.9442Z" fill="#CD992B"/>
<path d="M25.9895 37.9442V20.1817L10.0005 13.0752V30.8122L25.9895 37.9442Z" fill="#FFC20E"/>
<path d="M36.27 15.6489L20.2808 8.54248L15.9561 10.4175L31.9458 17.5234V22.8257C31.9458 22.9744 31.9831 23.1207 32.0543 23.2512C32.1255 23.3817 32.2284 23.4922 32.3534 23.5726C32.4785 23.6531 32.6217 23.7008 32.77 23.7115C32.9183 23.7222 33.0669 23.6955 33.2021 23.6338L35.75 22.4731C35.9051 22.4024 36.0365 22.2885 36.1287 22.1452C36.2209 22.0018 36.27 21.835 36.27 21.6645V15.6489Z" fill="#A65718"/>
<path fill-rule="evenodd" clip-rule="evenodd" d="M6.32503 31.6485L12.3984 23.2974V29.248H18.3119C19.4951 29.248 20.6601 28.9575 21.7048 28.402C22.7494 27.8466 23.6418 27.0432 24.3034 26.0623L25.887 23.7146C25.887 24.2178 25.8938 25.1446 25.904 26.2717C25.9153 27.5417 25.6762 28.8015 25.2002 29.979C24.7242 31.1565 24.0207 32.2287 23.13 33.1341C22.2393 34.0395 21.1789 34.7604 20.0093 35.2556C18.8397 35.7508 17.584 36.0105 16.314 36.02C14.106 36.0361 12.3984 36.0488 12.3984 36.0488V42L6.32503 33.6482C6.11386 33.3576 6.00012 33.0076 6.00012 32.6484C6.00012 32.2891 6.11386 31.9391 6.32503 31.6485Z" fill="#00416B"/>
</g>
<defs>
<clipPath id="clip0_154_2230">
<rect width="48" height="48" fill="white"/>
</clipPath>
</defs>
</svg>
