<svg width="48" height="48" viewBox="0 0 48 48" fill="none" xmlns="http://www.w3.org/2000/svg">
<g clip-path="url(#clip0_3063_6524)">
<path d="M6 28.7527C6 28.2675 6.17638 27.7989 6.49628 27.4341L10.664 22.6814C11.0438 22.2483 11.5918 22 12.1678 22H35.8322C36.4082 22 36.9562 22.2483 37.336 22.6814L41.5037 27.4341C41.8236 27.7989 42 28.2675 42 28.7527V40C42 41.1046 41.1046 42 40 42H8C6.89543 42 6 41.1046 6 40V28.7527Z" fill="#FFD400"/>
<path d="M35.8322 22H12.1677C11.5917 22 11.0437 22.2483 10.664 22.6814L6.4962 27.4341C6.34782 27.6033 6.23032 27.7948 6.14697 28H41.8529C41.7695 27.7948 41.652 27.6033 41.5036 27.4341L37.3359 22.6814C36.9561 22.2483 36.4081 22 35.8322 22Z" fill="#EFAF0F"/>
<path fill-rule="evenodd" clip-rule="evenodd" d="M33.5 31.0002C33.5 30.448 33.9477 30.0002 34.5 30.0002H37C37.5523 30.0002 38 30.448 38 31.0002C38 31.5525 37.5523 32.0002 37 32.0002H35.5V34.0002H37C37.5523 34.0002 38 34.448 38 35.0002C38 35.5525 37.5523 36.0002 37 36.0002H35.5V38.0002H37C37.5523 38.0002 38 38.448 38 39.0002C38 39.5525 37.5523 40.0002 37 40.0002H34.5C33.9477 40.0002 33.5 39.5525 33.5 39.0002V31.0002Z" fill="#00416B"/>
<path fill-rule="evenodd" clip-rule="evenodd" d="M14.7499 30.032C15.2846 30.17 15.6063 30.7154 15.4683 31.2501L13.4037 39.2501C13.2891 39.6944 12.8867 40.0037 12.4279 40.0002C11.969 39.9967 11.5714 39.6814 11.4635 39.2354L9.52803 31.2354C9.39816 30.6986 9.72804 30.1582 10.2648 30.0283C10.8016 29.8984 11.3421 30.2283 11.4719 30.7651L12.4668 34.877L13.5317 30.7504C13.6697 30.2156 14.2151 29.894 14.7499 30.032Z" fill="#00416B"/>
<path fill-rule="evenodd" clip-rule="evenodd" d="M21.5 32.0002H19.5V38.0002H21.5V32.0002ZM19.5 30.0002C18.3954 30.0002 17.5 30.8957 17.5 32.0002V38.0002C17.5 39.1048 18.3954 40.0002 19.5 40.0002H21.5C22.6046 40.0002 23.5 39.1048 23.5 38.0002V32.0002C23.5 30.8957 22.6046 30.0002 21.5 30.0002H19.5Z" fill="#00416B"/>
<path fill-rule="evenodd" clip-rule="evenodd" d="M25.5 31.0002C25.5 30.448 25.9477 30.0002 26.5 30.0002H30.5C31.0523 30.0002 31.5 30.448 31.5 31.0002C31.5 31.5525 31.0523 32.0002 30.5 32.0002H29.5V39.0002C29.5 39.5525 29.0523 40.0002 28.5 40.0002C27.9477 40.0002 27.5 39.5525 27.5 39.0002V32.0002H26.5C25.9477 32.0002 25.5 31.5525 25.5 31.0002Z" fill="#00416B"/>
<path d="M14 25C14 24.4477 14.4477 24 15 24H33C33.5523 24 34 24.4477 34 25C34 25.5523 33.5523 26 33 26H15C14.4477 26 14 25.5523 14 25Z" fill="#0083CA"/>
<path d="M16.5 17.5C16.5 16.3954 17.3954 15.5 18.5 15.5H29.5C30.6046 15.5 31.5 16.3954 31.5 17.5V25H16.5V17.5Z" fill="#FFE600"/>
<path d="M36.9504 12.9007L34.628 8.87818L23.3749 11.7363C21.937 12.1476 19.4436 14.3045 18.5638 15.5138C19.4991 15.5138 20.1227 15.5139 21.058 15.5138L23.864 15.5138C24.7994 15.5138 25.1111 15.5138 25.7215 15.3806L29.3543 14.8255L25.7102 15.9057C24.3815 16.439 23.2471 17.3649 22.4582 18.5597C22.2266 18.9105 22.1365 19.3361 22.2061 19.7507C22.2757 20.1653 22.4998 20.5382 22.8334 20.7941C22.9397 20.8226 23.0505 20.8299 23.1596 20.8155C23.2687 20.8012 23.3739 20.7654 23.4692 20.7104L25.7902 19.3704C26.933 18.7106 28.1979 18.2898 29.5082 18.1336L32.3088 17.7995C32.7941 17.7417 33.2609 17.5783 33.6764 17.321C34.092 17.0636 34.4462 16.7185 34.7143 16.3098L36.9504 12.9007Z" fill="#A65718"/>
<path d="M35.1768 7.68018L34.4511 8.09911C34.2587 8.21022 34.1183 8.39323 34.0608 8.60787C34.0032 8.82252 34.0333 9.05122 34.1445 9.24367L36.6581 13.5974C36.7692 13.7898 36.9522 13.9303 37.1668 13.9878C37.3815 14.0453 37.6102 14.0152 37.8026 13.9041L38.5282 13.4851L35.1768 7.68018Z" fill="#0083CA"/>
<path d="M35.4667 6.51852L37.6435 5.26171C38.0443 5.03034 38.5567 5.16764 38.7881 5.56839L42.1396 11.3733C42.3709 11.7741 42.2336 12.2865 41.8329 12.5179L39.656 13.7747C39.2553 14.0061 38.7428 13.8688 38.5115 13.468L35.16 7.66307C34.9286 7.26233 35.0659 6.74989 35.4667 6.51852Z" fill="#00416B"/>
</g>
<defs>
<clipPath id="clip0_3063_6524">
<rect width="48" height="48" fill="white"/>
</clipPath>
</defs>
</svg>
