<svg width="48" height="48" viewBox="0 0 48 48" fill="none" xmlns="http://www.w3.org/2000/svg">
<g clip-path="url(#clip0_159_2363)">
<path d="M24 30.0981C20.8873 30.0973 17.8665 31.1529 15.4318 33.0922C12.9972 35.0316 11.2928 37.7399 10.5977 40.7739H37.4033C36.7077 37.7399 35.0031 35.0317 32.5684 33.0924C30.1336 31.1531 27.1127 30.0975 24 30.0981Z" fill="#FFC20E"/>
<path d="M29.8525 8.53125L24 13.325L18.1474 8.5315C15.3205 9.86183 13.0312 12.1156 11.6567 14.9213C10.2823 17.727 9.90474 20.9173 10.5863 23.9664C11.2679 27.0154 12.9679 29.7413 15.4062 31.6947C17.8445 33.6481 20.8756 34.7125 23.9999 34.7125C27.1242 34.7125 30.1553 33.6481 32.5936 31.6947C35.0319 29.7413 36.7319 27.0154 37.4135 23.9664C38.0951 20.9173 37.7176 17.727 36.3431 14.9213C34.9687 12.1156 32.6793 9.86183 29.8524 8.5315L29.8525 8.53125Z" fill="#FFD400"/>
<path d="M18.1475 8.53119C17.9773 9.09693 17.8911 9.68457 17.8916 10.2753C17.8916 11.8953 18.5351 13.449 19.6806 14.5945C20.8261 15.74 22.3798 16.3835 23.9998 16.3835C25.6197 16.3835 27.1734 15.74 28.3189 14.5945C29.4644 13.449 30.1079 11.8953 30.1079 10.2753C30.1091 9.68456 30.023 9.09684 29.8526 8.53119C28.0213 7.67136 26.0231 7.22559 24.0001 7.22559C21.977 7.22559 19.9788 7.67136 18.1476 8.53119H18.1475Z" fill="#FFC20E"/>
<path d="M24 13.3247C25.5075 13.327 26.9806 13.7762 28.2329 14.6154C29.4853 15.4546 30.4608 16.6462 31.0361 18.0397C31.6115 19.4331 31.7609 20.9659 31.4654 22.4442C31.1699 23.9225 30.4429 25.28 29.3761 26.3453C28.3093 27.4105 26.9507 28.1356 25.472 28.429C23.9932 28.7223 22.4607 28.5707 21.0681 27.9934C19.6755 27.416 18.4853 26.4388 17.6479 25.1852C16.8104 23.9316 16.3634 22.458 16.3633 20.9504C16.3651 18.9266 17.1706 16.9864 18.6027 15.5564C20.0348 14.1264 21.9762 13.3236 24 13.3247Z" fill="#FFC20E"/>
<path d="M23.9999 25.5245C23.0956 25.5226 22.2121 25.2528 21.4611 24.749C20.7101 24.2453 20.1252 23.5302 19.7804 22.6942C19.4357 21.8582 19.3464 20.9387 19.524 20.052C19.7016 19.1653 20.138 18.3511 20.7781 17.7123C21.4183 17.0735 22.2334 16.6388 23.1205 16.4631C24.0076 16.2874 24.9269 16.3786 25.7622 16.7252C26.5974 17.0718 27.3113 17.6581 27.8134 18.4102C28.3156 19.1623 28.5835 20.0464 28.5834 20.9507C28.5805 22.1645 28.0964 23.3277 27.2372 24.1851C26.3779 25.0425 25.2138 25.5241 23.9999 25.5245Z" fill="#00416B"/>
<path d="M23.9999 8.30273C24.3902 8.30305 24.7716 8.41908 25.0959 8.63614C25.4202 8.85321 25.6729 9.16157 25.822 9.52223C25.9711 9.88289 26.0099 10.2797 25.9335 10.6624C25.8571 11.0451 25.669 11.3966 25.3929 11.6724C25.1168 11.9482 24.7651 12.1359 24.3822 12.2118C23.9994 12.2878 23.6027 12.2485 23.2422 12.0989C22.8817 11.9494 22.5737 11.6964 22.357 11.3718C22.1403 11.0472 22.0248 10.6657 22.0249 10.2754C22.0257 9.75203 22.2341 9.25037 22.6044 8.88053C22.9746 8.51068 23.4766 8.30288 23.9999 8.30273Z" fill="#0083CA"/>
</g>
<defs>
<clipPath id="clip0_159_2363">
<rect width="48" height="48" fill="white"/>
</clipPath>
</defs>
</svg>
