<svg width="48" height="48" viewBox="0 0 48 48" fill="none" xmlns="http://www.w3.org/2000/svg">
<circle cx="30.2865" cy="26.2865" r="6.2865" stroke="black"/>
<path d="M28.3352 22.5348C28.919 22.2306 29.5827 22.0586 30.2866 22.0586C32.2155 22.0586 33.8427 23.3503 34.3505 25.1159M34.2896 27.6515C34.0922 28.2306 33.7727 28.7532 33.3618 29.1885" stroke="black" stroke-linecap="round"/>
<path d="M35.0566 31.0396L36.1885 32.1432" stroke="black" stroke-linecap="round"/>
<rect x="34.9775" y="33.7891" width="4" height="8.94893" rx="2" transform="rotate(-45 34.9775 33.7891)" stroke="black"/>
<path d="M38 37H8C5.79086 37 4 35.2091 4 33V15C4 12.7909 5.79086 11 8 11H40C42.2091 11 44 12.7909 44 15V33C44 34.1623 43.5042 35.2089 42.7126 35.9397" stroke="black"/>
<circle cx="12" cy="18" r="2" stroke="black"/>
<path d="M12 20C10.3431 20 9 21.3431 9 23H15C15 21.3431 13.6569 20 12 20Z" stroke="black"/>
<rect x="7" y="14" width="10" height="11" rx="2" stroke="black"/>
<path d="M7 29H21" stroke="black" stroke-linecap="round" stroke-linejoin="round"/>
<path d="M21 16H40" stroke="black" stroke-linecap="round" stroke-linejoin="round"/>
<path d="M7 33H21" stroke="black" stroke-linecap="round" stroke-linejoin="round"/>
</svg>
