<svg width="48" height="48" viewBox="0 0 48 48" fill="none" xmlns="http://www.w3.org/2000/svg">
<path d="M26.5 22L13 8.5M23.5 8L10 22" stroke="black" stroke-linecap="round"/>
<path d="M24 27L24 40" stroke="black" stroke-linecap="round"/>
<path d="M9.44721 9.10557C9.786 8.428 10.4785 8 11.2361 8H36.7639C37.5215 8 38.214 8.428 38.5528 9.10557L44.2764 20.5527C44.6088 21.2176 44.1253 21.9999 43.382 21.9999H4.61804C3.87466 21.9999 3.39116 21.2176 3.72361 20.5527L9.44721 9.10557Z" stroke="black"/>
<path d="M40 32.5V22H8V38C8 39.1046 8.89543 40 10 40H29.5" stroke="black"/>
<path d="M37 33V37" stroke="black" stroke-linecap="round"/>
<path d="M37 39V39.5" stroke="black" stroke-linecap="round"/>
<path d="M29.5 40H16V29C16 27.8954 16.8954 27 18 27H30C31.1046 27 32 27.8954 32 29V35.5" stroke="black"/>
<path d="M21.5 34.5V33.5M26.5 34.5V33.5" stroke="black" stroke-linecap="round"/>
<path d="M37 28.5C37.2178 28.5 37.4324 28.5567 37.6221 28.6641C37.8116 28.7714 37.9705 28.9258 38.082 29.1133L44.3252 39.6162C44.4381 39.8061 44.4986 40.0231 44.5 40.2441C44.5013 40.465 44.4434 40.6819 44.333 40.873C44.2225 41.0643 44.0634 41.2232 43.8721 41.333C43.7285 41.4154 43.5703 41.4679 43.4072 41.4893L43.2432 41.5H30.7568C30.5364 41.5 30.3192 41.4428 30.1279 41.333C29.9366 41.2232 29.7775 41.0643 29.667 40.873C29.5566 40.6819 29.4987 40.465 29.5 40.2441C29.5014 40.0231 29.5619 39.8061 29.6748 39.6162L35.918 29.1133C36.0295 28.9258 36.1884 28.7714 36.3779 28.6641C36.5676 28.5567 36.7822 28.5 37 28.5Z" stroke="black"/>
</svg>
