<svg width="48" height="48" viewBox="0 0 48 48" fill="none" xmlns="http://www.w3.org/2000/svg">
<path d="M26.5 24L13 10.5M23.5 10L10 24" stroke="black" stroke-linecap="round"/>
<path d="M24 29L24 42" stroke="black" stroke-linecap="round"/>
<path d="M28.5 9.99993L11.2361 10C10.4785 10 9.786 10.428 9.44721 11.1056L3.72361 22.5527C3.39116 23.2176 3.87466 23.9999 4.61804 23.9999H43.4612C44.1849 23.9999 44.669 23.2551 44.375 22.5938L43 19.4999M30.5 9.99993H36.5M38.5 10.9999L42 17.4999" stroke="black"/>
<path d="M8 24H40V40C40 41.1046 39.1046 42 38 42H10C8.89543 42 8 41.1046 8 40V24Z" stroke="black"/>
<path d="M16 31C16 29.8954 16.8954 29 18 29H30C31.1046 29 32 29.8954 32 31V42H16V31Z" stroke="black"/>
<path d="M21.5 36.5V35.5M26.5 36.5V35.5" stroke="black" stroke-linecap="round"/>
<path d="M38.8496 7.5C38.8706 7.49926 38.8905 7.50777 38.9043 7.52148L40.4795 9.09277C40.4935 9.10687 40.5009 9.12596 40.5 9.14453C40.499 9.16364 40.4893 9.18135 40.4746 9.19336L40.4736 9.19434L31.6172 16.4834C31.5957 16.5009 31.567 16.5043 31.543 16.4941L31.5205 16.4795L31.5059 16.458C31.4955 16.4346 31.4994 16.4074 31.5156 16.3877V16.3867L38.7969 7.52637L38.7979 7.52539C38.8091 7.5118 38.8272 7.50155 38.8496 7.5Z" stroke="black"/>
<path d="M43.3936 17.501C43.4419 17.4968 43.48 17.5121 43.4971 17.5254L43.498 17.5264L43.5 17.5273V19.4717L43.498 19.4736C43.4807 19.4873 43.4428 19.5031 43.3936 19.499L31.5762 18.5254H31.5752C31.5627 18.5244 31.5525 18.5193 31.543 18.5166L31.5752 18.5098L43.3936 17.501Z" stroke="black"/>
<path d="M30.4717 4.5L30.4746 4.50293C30.4813 4.51146 30.4881 4.52533 30.4932 4.54297L30.499 4.60645L29.4902 16.4248V16.4258C29.4892 16.4382 29.4851 16.4486 29.4824 16.458C29.4796 16.4483 29.4757 16.4376 29.4746 16.4248V16.4238L28.501 4.60645C28.4969 4.55719 28.5127 4.51935 28.5264 4.50195L28.5283 4.5H30.4717Z" stroke="black"/>
</svg>
