<svg width="48" height="48" viewBox="0 0 48 48" fill="none" xmlns="http://www.w3.org/2000/svg">
<path d="M27.5 22L14 8.5M24.5 8L11 22" stroke="black" stroke-linecap="round"/>
<path d="M24 27L24 40" stroke="black" stroke-linecap="round"/>
<path d="M10.4472 9.10557C10.786 8.428 11.4785 8 12.2361 8H35.2639C36.0215 8 36.714 8.428 37.0528 9.10557L42.7764 20.5527C43.1088 21.2176 42.6253 21.9999 41.882 21.9999H5.61804C4.87466 21.9999 4.39116 21.2176 4.72361 20.5527L10.4472 9.10557Z" stroke="black"/>
<path d="M39 27.5V22H9V38C9 39.1046 9.89543 40 11 40H37C38.1046 40 39 39.1046 39 38V31.5" stroke="black"/>
<path d="M32 37V40H16V29C16 27.8954 16.8954 27 18 27L30 27C31.1046 27 32 27.8954 32 29V33" stroke="black"/>
<path d="M26.5 34.5V33.5M21.5 34.5V33.5" stroke="black" stroke-linecap="round"/>
<path d="M40.6719 25.7676C41.2577 25.1821 42.2073 25.1819 42.793 25.7676C43.3787 26.3533 43.3785 27.3029 42.793 27.8887L33.1611 37.5205C32.9659 37.7158 32.6494 37.7158 32.4541 37.5205L27.7676 32.835C27.1818 32.2492 27.1818 31.2987 27.7676 30.7129C28.3532 30.1273 29.3029 30.1275 29.8887 30.7129L32.8076 33.6318L40.6719 25.7676Z" stroke="black"/>
</svg>
