<svg width="48" height="48" viewBox="0 0 48 48" fill="none" xmlns="http://www.w3.org/2000/svg">
<path d="M14.5 10H10C7.79086 10 6 11.7909 6 14V38C6 40.2091 7.79086 42 10 42H38C40.2091 42 42 40.2091 42 38V14C42 11.7909 40.2091 10 38 10H33.5M16.5 10H31.5" stroke="black"/>
<path d="M6 18H42" stroke="black" stroke-linecap="round"/>
<path d="M24 24.5V28.5858C24 28.851 24.1054 29.1054 24.2929 29.2929L28 33" stroke="black" stroke-linecap="round"/>
<circle cx="24" cy="29" r="0.5" stroke="black"/>
<rect x="14.5" y="6.5" width="2" height="5" rx="1" stroke="black"/>
<rect x="31.5" y="6.5" width="2" height="5" rx="1" stroke="black"/>
<circle cx="24" cy="29" r="8.5" stroke="black"/>
</svg>
