<svg width="48" height="48" viewBox="0 0 48 48" fill="none" xmlns="http://www.w3.org/2000/svg">
<path d="M26.5 22L13 8.5M23.5 8L10 22" stroke="black" stroke-linecap="round"/>
<path d="M24 27L24 40" stroke="black" stroke-linecap="round"/>
<path d="M9.44721 9.10557C9.786 8.428 10.4785 8 11.2361 8H36.7639C37.5215 8 38.214 8.428 38.5528 9.10557L44.2764 20.5527C44.6088 21.2176 44.1253 21.9999 43.382 21.9999H4.61804C3.87466 21.9999 3.39116 21.2176 3.72361 20.5527L9.44721 9.10557Z" stroke="black"/>
<path d="M40 29V22H8V38C8 39.1046 8.89543 40 10 40H37M40 30V35" stroke="black"/>
<path d="M32 40H16V29C16 27.8954 16.8954 27 18 27H30.5C31.3284 27 32 27.6716 32 28.5" stroke="black"/>
<path d="M21.5 34.5V33.5M26.5 34.5V33.5" stroke="black" stroke-linecap="round"/>
<path d="M41.3398 28.8418L37.3994 31.4287L36.8857 31.7656L37.3203 32.2002L42.1465 37.0273C42.3726 37.2536 42.5 37.56 42.5 37.8799C42.5 38.1999 42.3727 38.5071 42.1465 38.7334L39.7334 41.1465C39.6214 41.2585 39.4882 41.3476 39.3418 41.4082C39.1954 41.4688 39.0383 41.5 38.8799 41.5C38.7215 41.5 38.5643 41.4688 38.418 41.4082C38.2718 41.3476 38.1393 41.2584 38.0273 41.1465L33.2002 36.3193L32.7598 35.8799L32.4248 36.4043L30.0791 40.084L29.502 29.4609C29.5471 29.2233 29.6606 29.0035 29.832 28.832C30.0042 28.6598 30.225 28.5457 30.4639 28.501L41.3398 28.8418Z" stroke="black"/>
</svg>
