<svg width="48" height="48" viewBox="0 0 48 48" fill="none" xmlns="http://www.w3.org/2000/svg">
<path d="M23.9998 7.44482C24.4351 7.44482 24.863 7.55877 25.241 7.7749C25.6189 7.99106 25.9343 8.30197 26.155 8.67725L42.658 36.7329C42.8812 37.1126 43 37.5444 43.0027 37.9849C43.0054 38.4254 42.8923 38.8593 42.6736 39.2417C42.4549 39.6241 42.1386 39.9416 41.7576 40.1626C41.3765 40.3837 40.9433 40.5005 40.5027 40.5005H7.49683C7.05639 40.5005 6.62393 40.3835 6.24292 40.1626C5.86193 39.9416 5.54563 39.624 5.3269 39.2417C5.10817 38.8593 4.99414 38.4254 4.99683 37.9849C4.99952 37.5445 5.11835 37.1125 5.34155 36.7329L21.8455 8.67725C22.0662 8.30212 22.3808 7.99103 22.7585 7.7749C23.1364 7.55879 23.5645 7.44487 23.9998 7.44482Z" stroke="black"/>
<path d="M23.1735 17.5H24.8268C25.7042 17.5002 26.3938 18.2506 26.3209 19.125L25.6549 27.125C25.5899 27.9022 24.9398 28.5 24.1598 28.5H23.8405C23.0605 28.5 22.4103 27.9022 22.3453 27.125L21.6783 19.125C21.6055 18.2505 22.296 17.5001 23.1735 17.5Z" stroke="black"/>
<circle cx="24" cy="34" r="2.5" stroke="black"/>
</svg>
