<svg width="48" height="48" viewBox="0 0 48 48" fill="none" xmlns="http://www.w3.org/2000/svg">
<path d="M17.4187 33.2814L20.6825 35.5401L29.4525 41.6136C29.7397 41.8125 30.0708 41.9388 30.4175 41.9819C30.7643 42.0249 31.1162 41.9833 31.4434 41.8606C31.7705 41.7379 32.0631 41.5378 32.296 41.2774C32.5289 41.017 32.6953 40.7041 32.781 40.3654L40.9835 7.9932C41.0102 7.75697 40.972 7.51794 40.8729 7.30181C40.7739 7.08568 40.6178 6.90064 40.4215 6.7666L31.9995 15.3542L17.4187 33.2814ZM17.4187 33.2814L15 41.8606" stroke="black" stroke-linejoin="round"/>
<path d="M20.5 35.5L16.1909 41.2454C15.6259 41.9987 14.4279 41.6248 14.3917 40.6838L14 30.5" stroke="black"/>
<path fill-rule="evenodd" clip-rule="evenodd" d="M40.4214 6.76684L31.9994 15.3544L13.7823 30.7636L6.96324 26.0464C6.65254 25.8313 6.40369 25.5384 6.24153 25.1971C6.07937 24.8557 6.00956 24.4778 6.03907 24.1011C6.06859 23.7243 6.19639 23.3619 6.40973 23.05C6.62307 22.738 6.91448 22.4875 7.25489 22.3234L39.4649 6.75604C39.6137 6.68157 39.7781 6.6437 39.9445 6.64557C40.1109 6.64745 40.2744 6.68903 40.4214 6.76684V6.76684Z" stroke="black" stroke-linejoin="round"/>
</svg>
