<svg width="48" height="48" viewBox="0 0 48 48" fill="none" xmlns="http://www.w3.org/2000/svg">
<path d="M33.5 18C34.5189 17.4117 35.0336 17.2751 36.0074 16.7394C38.4621 15.3888 40.6562 14.1815 42 13C43.2868 11.8685 44.1841 10.6009 43.4513 9.33172L43.4236 9.28366C43.1461 8.84107 42.7394 8.49433 42.2585 8.2903C41.7775 8.08626 41.2456 8.03477 40.7345 8.14277L38.1183 8.57849C36.1792 8.90552 34.3145 9.57775 32.6128 10.5633L16.3838 19.9331L6.17533 16.3998C5.92722 16.3139 5.6598 16.2837 5.39242 16.3113C5.12503 16.3389 4.86434 16.4236 4.62919 16.5593L3 17.5L9.60041 23.8494L8.71813 24.2283C8.41287 24.3801 8.17988 24.6462 8.06989 24.9689C7.9599 25.2915 7.98181 25.6446 8.13086 25.9512C8.22277 26.1042 8.34928 26.2335 8.50021 26.3288C8.65115 26.4241 8.82232 26.4827 9 26.5L15.0021 27.2225C16.3967 27.3757 17.8036 27.0752 19.0139 26.3657L26 22.5" stroke="black"/>
<path d="M19.4156 10.6772C19.8968 10.3994 20.4204 10.208 20.955 10.1131C21.4896 10.0183 22.0228 10.0224 22.524 10.1217L30.5937 11.72L25.8712 14.4465L17.3714 11.8573L19.4156 10.6772Z" stroke="black"/>
<path d="M4 40L32 40" stroke="black" stroke-linecap="round"/>
<path d="M34.6147 14.0262L31.2317 26.6519C31.0278 27.413 30.6759 28.1265 30.1962 28.7516C29.7166 29.3767 29.1185 29.9012 28.4361 30.2952L24.5263 32.5525L26.8205 18.5262L34.6147 14.0262Z" stroke="black"/>
<path d="M37 10.5L18.5 21" stroke="black" stroke-linecap="round" stroke-dasharray="1 3"/>
<path fill-rule="evenodd" clip-rule="evenodd" d="M37 28C40.866 28 44 31.134 44 35C44 38.866 40.866 42 37 42C33.134 42 30 38.866 30 35C30 31.134 33.134 28 37 28ZM33.2001 33.2072C32.9432 33.7508 32.8 34.3588 32.8 35C32.8 37.3196 34.6804 39.2 37 39.2C37.6411 39.2 38.2484 39.0558 38.7919 38.799L33.2001 33.2072ZM37 30.8C36.3444 30.8 35.7236 30.9496 35.1707 31.2174L40.7816 36.8284C41.0494 36.2756 41.2 35.6554 41.2 35C41.2 32.6804 39.3196 30.8 37 30.8Z" stroke="black"/>
</svg>
