<svg width="48" height="48" viewBox="0 0 48 48" fill="none" xmlns="http://www.w3.org/2000/svg">
<path d="M33.5 18.0002C34.5189 17.412 35.0336 17.2754 36.0074 16.7396C38.4621 15.389 40.6562 14.1818 42 13.0002C43.2868 11.8687 44.1841 10.6011 43.4513 9.33197L43.4236 9.2839C43.1461 8.84131 42.7394 8.49457 42.2585 8.29054C41.7775 8.08651 41.2456 8.03501 40.7345 8.14301L38.1183 8.57873C36.1792 8.90576 34.3145 9.578 32.6128 10.5635L16.3838 19.9333L6.17533 16.4C5.92722 16.3142 5.6598 16.2839 5.39242 16.3115C5.12503 16.3391 4.86434 16.4238 4.62919 16.5596L3 17.5002L9.60041 23.8497L8.71813 24.2286C8.41287 24.3803 8.17988 24.6465 8.06989 24.9691C7.9599 25.2918 7.98181 25.6448 8.13086 25.9514C8.22277 26.1044 8.34928 26.2338 8.50021 26.3291C8.65115 26.4244 8.82232 26.483 9 26.5002L15.0021 27.2227C16.3967 27.3759 17.8036 27.0754 19.0139 26.3659L26 22.5002" stroke="black"/>
<path d="M19.4155 10.6772C19.8967 10.3994 20.4203 10.208 20.955 10.1131C21.4896 10.0183 22.0227 10.0224 22.524 10.1217L30.5937 11.72L25.8711 14.4465L17.3714 11.8573L19.4155 10.6772Z" stroke="black"/>
<path d="M34.6147 14.0264L31.2317 26.6521C31.0277 27.4131 30.6759 28.1266 30.1962 28.7517C29.7166 29.3768 29.1185 29.9013 28.4361 30.2953L24.5262 32.5526L26.8205 18.5264L34.6147 14.0264Z" stroke="black"/>
<path d="M4 40L44 40" stroke="black" stroke-linecap="round"/>
<path d="M37 10.5L18.5 21" stroke="black" stroke-linecap="round" stroke-dasharray="1 3"/>
</svg>
