<svg width="48" height="48" viewBox="0 0 48 48" fill="none" xmlns="http://www.w3.org/2000/svg">
<path d="M8 8.5H40C40.4596 8.49988 40.9152 8.59076 41.3398 8.7666C41.7644 8.94244 42.1507 9.19949 42.4756 9.52441C42.8005 9.84934 43.0576 10.2356 43.2334 10.6602C43.4092 11.0848 43.5001 11.5404 43.5 12V30C43.5001 30.4596 43.4092 30.9152 43.2334 31.3398C43.0576 31.7644 42.8005 32.1507 42.4756 32.4756C42.1507 32.8005 41.7644 33.0576 41.3398 33.2334C40.9152 33.4092 40.4596 33.5001 40 33.5H17.793L12.5 38.793V33.5H8.00195C7.07422 33.4968 6.18531 33.1267 5.5293 32.4707C4.91432 31.8557 4.55059 31.0363 4.50488 30.1719L4.5 29.998V12L4.50391 11.8281C4.5235 11.4271 4.61269 11.0319 4.7666 10.6602C4.94244 10.2356 5.19949 9.84934 5.52441 9.52441C5.84934 9.19949 6.23562 8.94244 6.66016 8.7666C7.03187 8.61269 7.42714 8.5235 7.82812 8.50391L8 8.5Z" stroke="black"/>
<path d="M25.1931 24.4718H22.3629C22.3703 23.746 22.4221 23.121 22.5183 22.5968C22.6219 22.0645 22.7958 21.5847 23.04 21.1573C23.2915 20.7298 23.6245 20.3065 24.0388 19.8871C24.3866 19.5484 24.69 19.2258 24.9489 18.9194C25.2079 18.6129 25.4114 18.2984 25.5594 17.9758C25.7074 17.6452 25.7814 17.2782 25.7814 16.875C25.7814 16.4073 25.7148 16.0202 25.5816 15.7137C25.4558 15.3992 25.2634 15.1613 25.0044 15C24.7529 14.8387 24.4347 14.7581 24.0499 14.7581C23.7318 14.7581 23.4358 14.8347 23.162 14.9879C22.8883 15.1331 22.6626 15.3589 22.485 15.6653C22.3148 15.9718 22.226 16.375 22.2186 16.875H19C19.0222 15.7702 19.2553 14.8589 19.6992 14.1411C20.1506 13.4153 20.7536 12.879 21.5083 12.5323C22.263 12.1774 23.1102 12 24.0499 12C25.0858 12 25.9737 12.1855 26.7137 12.5565C27.4536 12.9194 28.0196 13.4556 28.4118 14.1653C28.8039 14.8669 29 15.7218 29 16.7298C29 17.4315 28.8742 18.0565 28.6226 18.6048C28.3711 19.1452 28.0418 19.6492 27.6349 20.1169C27.2279 20.5847 26.7802 21.0685 26.2919 21.5685C25.8701 21.9798 25.5816 22.4113 25.4262 22.8629C25.2782 23.3145 25.2005 23.8508 25.1931 24.4718ZM22.03 28.2097C22.03 27.6935 22.1927 27.2661 22.5183 26.9274C22.8439 26.5806 23.2804 26.4073 23.828 26.4073C24.3681 26.4073 24.801 26.5806 25.1265 26.9274C25.4595 27.2661 25.626 27.6935 25.626 28.2097C25.626 28.7097 25.4595 29.1331 25.1265 29.4798C24.801 29.8266 24.3681 30 23.828 30C23.2804 30 22.8439 29.8266 22.5183 29.4798C22.1927 29.1331 22.03 28.7097 22.03 28.2097Z" stroke="black"/>
</svg>
