<svg width="48" height="48" viewBox="0 0 48 48" fill="none" xmlns="http://www.w3.org/2000/svg">
<path d="M40 8.5H8C7.54036 8.49988 7.08483 8.59076 6.66016 8.7666C6.23562 8.94244 5.84934 9.19949 5.52441 9.52441C5.19949 9.84934 4.94244 10.2356 4.7666 10.6602C4.59076 11.0848 4.49988 11.5404 4.5 12V30C4.49988 30.4596 4.59076 30.9152 4.7666 31.3398C4.94244 31.7644 5.19949 32.1507 5.52441 32.4756C5.84934 32.8005 6.23562 33.0576 6.66016 33.2334C7.08483 33.4092 7.54036 33.5001 8 33.5H30.207L35.5 38.793V33.5H39.998C40.9258 33.4968 41.8147 33.1267 42.4707 32.4707C43.0857 31.8557 43.4494 31.0363 43.4951 30.1719L43.5 29.998V12L43.4961 11.8281C43.4765 11.4271 43.3873 11.0319 43.2334 10.6602C43.0576 10.2356 42.8005 9.84934 42.4756 9.52441C42.1507 9.19949 41.7644 8.94244 41.3398 8.7666C40.9681 8.61269 40.5729 8.5235 40.1719 8.50391L40 8.5Z" stroke="black"/>
<circle cx="18" cy="21" r="1.5" stroke="black"/>
<circle cx="24" cy="21" r="1.5" stroke="black"/>
<circle cx="30" cy="21" r="1.5" stroke="black"/>
</svg>
