<svg width="48" height="48" viewBox="0 0 48 48" fill="none" xmlns="http://www.w3.org/2000/svg">
<path d="M8 8.5H40C40.4596 8.49988 40.9152 8.59076 41.3398 8.7666C41.7644 8.94244 42.1507 9.19949 42.4756 9.52441C42.8005 9.84934 43.0576 10.2356 43.2334 10.6602C43.4092 11.0848 43.5001 11.5404 43.5 12V30C43.5001 30.4596 43.4092 30.9152 43.2334 31.3398C43.0576 31.7644 42.8005 32.1507 42.4756 32.4756C42.1507 32.8005 41.7644 33.0576 41.3398 33.2334C40.9152 33.4092 40.4596 33.5001 40 33.5H17.793L12.5 38.793V33.5H8.00195C7.07422 33.4968 6.18531 33.1267 5.5293 32.4707C4.91432 31.8557 4.55059 31.0363 4.50488 30.1719L4.5 29.998V12L4.50391 11.8281C4.5235 11.4271 4.61269 11.0319 4.7666 10.6602C4.94244 10.2356 5.19949 9.84934 5.52441 9.52441C5.84934 9.19949 6.23562 8.94244 6.66016 8.7666C7.03187 8.61269 7.42714 8.5235 7.82812 8.50391L8 8.5Z" stroke="black"/>
<path d="M24 16.5V20.5858C24 20.851 24.1054 21.1054 24.2929 21.2929L28 25" stroke="black" stroke-linecap="round"/>
<circle cx="24" cy="21" r="0.5" stroke="black"/>
<circle cx="24" cy="21" r="8.5" stroke="black"/>
</svg>
