<svg width="48" height="48" viewBox="0 0 48 48" fill="none" xmlns="http://www.w3.org/2000/svg">
<path d="M8 8.5H40C40.4596 8.49988 40.9152 8.59076 41.3398 8.7666C41.7644 8.94244 42.1507 9.19949 42.4756 9.52441C42.8005 9.84934 43.0576 10.2356 43.2334 10.6602C43.4092 11.0848 43.5001 11.5404 43.5 12V30C43.5001 30.4596 43.4092 30.9152 43.2334 31.3398C43.0576 31.7644 42.8005 32.1507 42.4756 32.4756C42.1507 32.8005 41.7644 33.0576 41.3398 33.2334C40.9152 33.4092 40.4596 33.5001 40 33.5H17.793L12.5 38.793V33.5H8.00195C7.07422 33.4968 6.18531 33.1267 5.5293 32.4707C4.91432 31.8557 4.55059 31.0363 4.50488 30.1719L4.5 29.998V12L4.50391 11.8281C4.5235 11.4271 4.61269 11.0319 4.7666 10.6602C4.94244 10.2356 5.19949 9.84934 5.52441 9.52441C5.84934 9.19949 6.23562 8.94244 6.66016 8.7666C7.03187 8.61269 7.42714 8.5235 7.82812 8.50391L8 8.5Z" stroke="black"/>
<path d="M23 15.5H25C25.2761 15.5 25.5 15.7239 25.5 16V19.5H29C29.2761 19.5 29.5 19.7239 29.5 20V22C29.5 22.2761 29.2761 22.5 29 22.5H25.5V26C25.5 26.2761 25.2761 26.5 25 26.5H23C22.7239 26.5 22.5 26.2761 22.5 26V22.5H19C18.7239 22.5 18.5 22.2761 18.5 22V20C18.5 19.7239 18.7239 19.5 19 19.5H22.5V16C22.5 15.7239 22.7239 15.5 23 15.5Z" stroke="black"/>
</svg>
