<svg width="48" height="48" viewBox="0 0 48 48" fill="none" xmlns="http://www.w3.org/2000/svg">
<rect x="4.5" y="6.5" width="3" height="35" rx="1.5" stroke="black"/>
<path d="M7.5 8.19238C9.09576 6.48402 11.5308 6.00853 14.5547 6.24805C17.6535 6.49356 21.2287 7.47772 24.8672 8.48145C28.4785 9.47768 32.1537 10.4935 35.3672 10.748C38.1183 10.9659 40.6354 10.6336 42.5 9.16113V33.8057C40.9043 35.5147 38.4697 35.9905 35.4453 35.751C32.3465 35.5055 28.7713 34.5213 25.1328 33.5176C21.5215 32.5214 17.8463 31.5055 14.6328 31.251C11.8819 31.0331 9.36459 31.3657 7.5 32.8379V8.19238Z" stroke="black"/>
<circle cx="25" cy="20.9998" r="5.5" transform="rotate(5.18695 25 20.9998)" stroke="black"/>
<path d="M38.0849 22.1879L24.1516 30.3465L11.9142 19.8122L25.8486 11.6528L38.0849 22.1879Z" stroke="black"/>
<path d="M29.4046 23.1845C29.5363 23.4272 29.8399 23.5171 30.0826 23.3853C30.3252 23.2536 30.4151 22.95 30.2834 22.7073L29.844 22.9459L29.4046 23.1845ZM19.6582 19.009L19.7728 19.4957C21.2713 19.1429 23.0821 18.9552 24.8111 19.4071C26.5196 19.8537 28.1816 20.9324 29.4046 23.1845L29.844 22.9459L30.2834 22.7073C28.9254 20.2067 27.0336 18.9545 25.064 18.4397C23.1148 17.9301 21.1232 18.1504 19.5436 18.5223L19.6582 19.009Z" fill="black"/>
</svg>
