<svg width="48" height="48" viewBox="0 0 48 48" fill="none" xmlns="http://www.w3.org/2000/svg">
<path d="M14 18V14C14 8.47715 18.4772 4 24 4C27.8315 4 31.1597 6.1548 32.8388 9.31865C33.9965 11.5 31 12.418 30.3264 11C29.2029 8.63505 26.7924 7 24 7C20.134 7 17 10.134 17 14V18M10 20.5H38M10 41.5H38M13 44H35C37.2091 44 39 42.2091 39 40V22C39 19.7909 37.2091 18 35 18H13C10.7909 18 9 19.7909 9 22V40C9 42.2091 10.7909 44 13 44ZM28 28C28 29.4806 27.1956 30.7733 26 31.4649V35.5C26 36.6046 25.1046 37.5 24 37.5C22.8954 37.5 22 36.6046 22 35.5V31.4649C20.8044 30.7733 20 29.4806 20 28C20 25.7909 21.7909 24 24 24C26.2091 24 28 25.7909 28 28Z" stroke="black" stroke-linecap="round"/>
</svg>
