<svg width="48" height="48" viewBox="0 0 48 48" fill="none" xmlns="http://www.w3.org/2000/svg">
<path d="M36.9783 25.5V13.4806C36.9783 12.7231 36.5503 12.0306 35.8727 11.6918L21.3836 4.44721C20.8205 4.16569 20.1578 4.16569 19.5947 4.44721L5.10559 11.6918C4.42803 12.0306 4.00002 12.7231 4.00002 13.4806V27.4976C4.00002 28.2552 4.42803 28.9477 5.1056 29.2865L19.6008 36.5341C20.1604 36.8139 20.8188 36.8157 21.3799 36.5389L24.5 35" stroke="black"/>
<path d="M20.4891 36.9783V20.5862M20.4891 20.5862L36.0083 12.2446M20.4891 20.5862L4.96995 12.2446" stroke="black"/>
<path d="M30.6736 8.84968L14.5202 17.2265V22.7414C14.5202 23.4871 13.7336 23.9704 13.0684 23.6335L10.916 22.5433C10.2435 22.2027 9.81969 21.513 9.81969 20.7592V14.8457L25.8238 6.4248" stroke="black"/>
<path d="M30 30.5C30.057 30.5 30.1696 30.5347 30.291 30.7168C30.41 30.8954 30.5 31.1708 30.5 31.5C30.5 31.8292 30.41 32.1046 30.291 32.2832C30.1696 32.4653 30.057 32.5 30 32.5C29.943 32.5 29.8304 32.4653 29.709 32.2832C29.59 32.1046 29.5 31.8292 29.5 31.5C29.5 31.1708 29.59 30.8954 29.709 30.7168C29.8304 30.5347 29.943 30.5 30 30.5Z" stroke="black"/>
<path d="M36 30.5C36.057 30.5 36.1696 30.5347 36.291 30.7168C36.41 30.8954 36.5 31.1708 36.5 31.5C36.5 31.8292 36.41 32.1046 36.291 32.2832C36.1696 32.4653 36.057 32.5 36 32.5C35.943 32.5 35.8304 32.4653 35.709 32.2832C35.59 32.1046 35.5 31.8292 35.5 31.5C35.5 31.1708 35.59 30.8954 35.709 30.7168C35.8304 30.5347 35.943 30.5 36 30.5Z" stroke="black"/>
<circle cx="33" cy="33" r="8.5" stroke="black"/>
<path d="M28 35C30 39 36 39 38 35" stroke="black" stroke-linecap="round" stroke-linejoin="round"/>
</svg>
