<svg width="48" height="48" viewBox="0 0 48 48" fill="none" xmlns="http://www.w3.org/2000/svg">
<path d="M37 33V37" stroke="black" stroke-linecap="round"/>
<path d="M37 39V39.5" stroke="black" stroke-linecap="round"/>
<path d="M37 28.5C37.2178 28.5 37.4324 28.5567 37.6221 28.6641C37.8116 28.7714 37.9705 28.9258 38.082 29.1133L44.3252 39.6162C44.4381 39.8061 44.4986 40.0231 44.5 40.2441C44.5013 40.465 44.4434 40.6819 44.333 40.873C44.2225 41.0643 44.0634 41.2232 43.8721 41.333C43.7285 41.4154 43.5703 41.4679 43.4072 41.4893L43.2432 41.5H30.7568C30.5364 41.5 30.3192 41.4428 30.1279 41.333C29.9366 41.2232 29.7775 41.0643 29.667 40.873C29.5566 40.6819 29.4987 40.465 29.5 40.2441C29.5014 40.0231 29.5619 39.8061 29.6748 39.6162L35.918 29.1133C36.0295 28.9258 36.1884 28.7714 36.3779 28.6641C36.5676 28.5567 36.7822 28.5 37 28.5Z" stroke="black"/>
<path d="M29.5 39.5L24.8686 41.6052C24.3192 41.8549 23.6864 41.8432 23.1466 41.5733L7.10557 33.5528C6.428 33.214 6 32.5215 6 31.7639V16.2361C6 15.4785 6.428 14.786 7.10557 14.4472L23.1056 6.44723C23.6686 6.1657 24.3314 6.1657 24.8944 6.44723L40.8944 14.4472C41.572 14.786 42 15.4785 42 16.2361V32.0661C42 32.6385 41.6766 33.1617 41.1647 33.4177" stroke="black" stroke-linecap="round"/>
<path d="M24 42V24.45M24 24.45L6 15M24 24.45L42 15" stroke="black"/>
<path d="M13 11.7273L30.6923 20.8182V27.3619C30.6923 28.1101 31.4839 28.5933 32.1493 28.2513L34.9141 26.8307C35.5808 26.4881 36 25.8014 36 25.0518V18.0909L18.3077 9" stroke="black"/>
<path d="M9 30.382V26.809C9 26.4373 9.39116 26.1956 9.72361 26.3618L13.4472 28.2236C13.786 28.393 14 28.7393 14 29.118V32.691C14 33.0627 13.6088 33.3044 13.2764 33.1382L9.55279 31.2764C9.214 31.107 9 30.7607 9 30.382Z" stroke="black" stroke-linecap="round"/>
</svg>
