<svg width="48" height="48" viewBox="0 0 48 48" fill="none" xmlns="http://www.w3.org/2000/svg">
<path d="M33 37.5L24.8944 41.5528C24.3314 41.8343 23.6686 41.8343 23.1056 41.5528L7.10557 33.5528C6.428 33.214 6 32.5215 6 31.7639V16.2361C6 15.4785 6.428 14.786 7.10557 14.4472L23.1056 6.44723C23.6686 6.1657 24.3314 6.1657 24.8944 6.44723L40.8944 14.4472C41.572 14.786 42 15.4785 42 16.2361V32.0661C42 32.6385 41.6766 33.1617 41.1647 33.4177" stroke="black" stroke-linecap="round"/>
<path d="M24 42V24.45M24 24.45L6 15M24 24.45L42 15" stroke="black"/>
<path d="M13 11.7273L30.6923 20.8182V27.3619C30.6923 28.1101 31.4839 28.5933 32.1493 28.2513L34.9141 26.8307C35.5808 26.4881 36 25.8014 36 25.0518V18.0909L18.3077 9" stroke="black"/>
<path d="M9 30.382V26.809C9 26.4373 9.39116 26.1956 9.72361 26.3618L13.4472 28.2236C13.786 28.393 14 28.7393 14 29.118V32.691C14 33.0627 13.6088 33.3044 13.2764 33.1382L9.55279 31.2764C9.214 31.107 9 30.7607 9 30.382Z" stroke="black" stroke-linecap="round"/>
<path d="M39.6673 31.8891L41.0815 33.3033C41.2767 33.4986 41.2767 33.8151 41.0815 34.0104L38.6066 36.4853L41.0815 38.9602C41.2767 39.1554 41.2767 39.472 41.0815 39.6673L39.6673 41.0815C39.472 41.2767 39.1554 41.2767 38.9602 41.0815L36.4853 38.6066L34.0104 41.0815C33.8152 41.2767 33.4986 41.2767 33.3033 41.0815L31.8891 39.6673C31.6938 39.472 31.6938 39.1554 31.8891 38.9602L34.364 36.4853L31.8891 34.0104C31.6938 33.8151 31.6938 33.4986 31.8891 33.3033L33.3033 31.8891C33.4986 31.6938 33.8152 31.6938 34.0104 31.8891L36.4853 34.364L38.9602 31.8891C39.1554 31.6938 39.472 31.6938 39.6673 31.8891Z" stroke="black"/>
</svg>
