<svg width="48" height="48" viewBox="0 0 48 48" fill="none" xmlns="http://www.w3.org/2000/svg">
<path d="M42 29.7854V16.2361C42 15.4785 41.572 14.786 40.8944 14.4472L24.8944 6.44721C24.3314 6.16569 23.6686 6.16569 23.1056 6.44721L7.10557 14.4472C6.428 14.786 6 15.4785 6 16.2361V31.7639C6 32.5215 6.428 33.214 7.10557 33.5528L23.1158 41.5579C23.6731 41.8365 24.3284 41.8395 24.8882 41.566L29.8528 39.1402" stroke="black"/>
<path d="M24 42V24.45M24 24.45L6 15M24 24.45L42 15" stroke="black"/>
<path d="M13 11.7273L30.6923 20.8182V27.3619C30.6923 28.1101 31.4839 28.5933 32.1493 28.2513L34.9141 26.8307C35.5808 26.4881 36 25.8014 36 25.0518V18.0909L18.3077 9" stroke="black"/>
<path d="M9 30.382V26.809C9 26.4373 9.39116 26.1956 9.72361 26.3618L13.4472 28.2236C13.786 28.393 14 28.7393 14 29.118V32.691C14 33.0627 13.6088 33.3044 13.2764 33.1382L9.55279 31.2764C9.214 31.107 9 30.7607 9 30.382Z" stroke="black" stroke-linecap="round"/>
<path d="M40.9355 30.0791C41.5213 29.4936 42.4709 29.4934 43.0566 30.0791C43.6423 30.6648 43.6422 31.6144 43.0566 32.2002L33.4248 41.832C33.2295 42.0273 32.913 42.0273 32.7178 41.832L28.0312 37.1465C27.4455 36.5607 27.4455 35.6102 28.0312 35.0244C28.6169 34.4389 29.5666 34.4391 30.1523 35.0244L33.0713 37.9434L40.9355 30.0791Z" stroke="black"/>
</svg>
