<svg width="48" height="48" viewBox="0 0 48 48" fill="none" xmlns="http://www.w3.org/2000/svg">
<path d="M38.9782 28V15.4806C38.9782 14.7231 38.5502 14.0306 37.8727 13.6918L23.3835 6.44721C22.8205 6.16569 22.1577 6.16569 21.5947 6.44721L7.10556 13.6918C6.428 14.0306 5.99999 14.7231 5.99999 15.4806V29.4976C5.99999 30.2552 6.428 30.9477 7.10557 31.2865L21.5588 38.5131C22.142 38.8047 22.8306 38.7937 23.4041 38.4837L28 36" stroke="black"/>
<path d="M22.4891 38.9783V22.5862M22.4891 22.5862L38.0083 14.2446M22.4891 22.5862L6.96995 14.2446" stroke="black"/>
<path d="M32.6736 10.8497L16.5202 19.2265V24.7414C16.5202 25.4871 15.7336 25.9704 15.0684 25.6335L12.916 24.5433C12.2435 24.2027 11.8197 23.513 11.8197 22.7592V16.8457L27.8238 8.4248" stroke="black"/>
<path fill-rule="evenodd" clip-rule="evenodd" d="M34 26C37.866 26 41 29.134 41 33C41 36.866 37.866 40 34 40C30.134 40 27 36.866 27 33C27 29.134 30.134 26 34 26ZM30.2001 31.2072C29.9432 31.7508 29.8 32.3588 29.8 33C29.8 35.3196 31.6804 37.2 34 37.2C34.6411 37.2 35.2484 37.0558 35.7919 36.799L30.2001 31.2072ZM34 28.8C33.3444 28.8 32.7236 28.9496 32.1707 29.2174L37.7816 34.8284C38.0494 34.2756 38.2 33.6554 38.2 33C38.2 30.6804 36.3196 28.8 34 28.8Z" stroke="black"/>
</svg>
