<svg width="48" height="48" viewBox="0 0 48 48" fill="none" xmlns="http://www.w3.org/2000/svg">
<path d="M38.9782 20.5V15.4806C38.9782 14.7231 38.5502 14.0306 37.8727 13.6918L23.3835 6.44721C22.8205 6.16569 22.1577 6.16569 21.5947 6.44721L7.10556 13.6918C6.428 14.0306 5.99999 14.7231 5.99999 15.4806V29.4976C5.99999 30.2552 6.428 30.9477 7.10557 31.2865L21.5483 38.5078C22.1373 38.8023 22.8335 38.788 23.4098 38.4696L31.5 34" stroke="black"/>
<path d="M22.4891 38.9783V22.5862M22.4891 22.5862L38.0083 14.2446M22.4891 22.5862L6.96995 14.2446" stroke="black"/>
<path d="M32.6736 10.8497L16.5202 19.2265V24.7414C16.5202 25.4871 15.7336 25.9704 15.0684 25.6335L12.916 24.5433C12.2435 24.2027 11.8197 23.513 11.8197 22.7592V16.8457L27.8238 8.4248" stroke="black"/>
<path d="M33.5 29.9092L33.25 29.7646C31.6049 28.8129 30.5 27.0351 30.5 25C30.5 21.9624 32.9624 19.5 36 19.5C39.0376 19.5 41.5 21.9624 41.5 25C41.5 27.0351 40.3951 28.8129 38.75 29.7646L38.5 29.9092V31C38.5 31.8284 37.8284 32.5 37 32.5H35C34.1716 32.5 33.5 31.8284 33.5 31V29.9092Z" stroke="black"/>
<circle cx="34" cy="27" r="0.5" stroke="black"/>
<circle cx="38" cy="27" r="0.5" stroke="black"/>
<path d="M33.232 34.866C33.5082 34.3877 33.3443 33.7761 32.866 33.5C32.3877 33.2238 31.7761 33.3877 31.5 33.866C31.2238 34.3443 31.3877 34.9559 31.866 35.232C31.3877 34.9559 30.7761 35.1198 30.5 35.5981C30.2238 36.0764 30.3877 36.6879 30.866 36.9641C31.3443 37.2402 31.9559 37.0764 32.232 36.5981L39.1602 40.5981C38.8841 41.0764 39.048 41.6879 39.5263 41.9641C40.0046 42.2402 40.6161 42.0764 40.8923 41.5981C41.1684 41.1198 41.0046 40.5082 40.5263 40.232C41.0046 40.5082 41.6161 40.3443 41.8923 39.866C42.1684 39.3877 42.0046 38.7761 41.5263 38.5C41.048 38.2238 40.4364 38.3877 40.1602 38.866L33.232 34.866Z" stroke="black" stroke-linejoin="round"/>
<path d="M38.2594 37.6955L40.1602 36.5981C40.4364 37.0764 41.048 37.2402 41.5263 36.9641C42.0046 36.6879 42.1684 36.0764 41.8923 35.5981C41.6161 35.1198 41.0046 34.9559 40.5263 35.232C41.0046 34.9559 41.1684 34.3443 40.8923 33.866C40.6161 33.3877 40.0046 33.2238 39.5263 33.5C39.048 33.7761 38.8841 34.3877 39.1602 34.866L36.1602 36.5981M34.1961 37.732L32.232 38.866C31.9559 38.3877 31.3443 38.2238 30.866 38.5C30.3877 38.7761 30.2238 39.3877 30.5 39.866C30.7761 40.3443 31.3877 40.5082 31.866 40.232C31.3877 40.5082 31.2238 41.1198 31.5 41.5981C31.7761 42.0764 32.3877 42.2402 32.866 41.9641C33.3443 41.6879 33.5082 41.0764 33.232 40.5981L36.0814 38.953" stroke="black" stroke-linecap="round" stroke-linejoin="round"/>
</svg>
