<svg width="48" height="48" viewBox="0 0 48 48" fill="none" xmlns="http://www.w3.org/2000/svg">
<path d="M36 19L36.8944 19.4472C37.572 19.786 38 20.4785 38 21.2361V34.7639C38 35.5215 37.572 36.214 36.8944 36.5528L22.8944 43.5528C22.3314 43.8343 21.6686 43.8343 21.1056 43.5528L7.10557 36.5528C6.428 36.214 6 35.5215 6 34.7639V21.2361C6 20.4785 6.428 19.786 7.10557 19.4472L21.1056 12.4472C21.6686 12.1657 22.3314 12.1657 22.8944 12.4472L34.0809 18.0405" stroke="black"/>
<path d="M22 44V28.0941M22 28.0941L7 20M22 28.0941L37 20" stroke="black"/>
<path d="M12.5 16.5L27.492 25V29.3815C27.492 30.125 28.2745 30.6085 28.9394 30.2758L30.8949 29.2974C31.5722 28.9585 32 28.2661 32 27.5088V22.5L17 14.5" stroke="black"/>
<path d="M36.8496 7.5C36.8706 7.49926 36.8905 7.50777 36.9043 7.52148L38.4795 9.09277C38.4935 9.10687 38.5009 9.12596 38.5 9.14453C38.499 9.16364 38.4893 9.18135 38.4746 9.19336L38.4736 9.19434L29.6172 16.4834C29.5957 16.5009 29.567 16.5043 29.543 16.4941L29.5205 16.4795L29.5059 16.458C29.4955 16.4346 29.4994 16.4074 29.5156 16.3877V16.3867L36.7969 7.52637L36.7979 7.52539C36.8091 7.5118 36.8272 7.50155 36.8496 7.5Z" stroke="black"/>
<path d="M41.3936 17.501C41.4419 17.4968 41.48 17.5121 41.4971 17.5254L41.498 17.5264L41.5 17.5273V19.4717L41.498 19.4736C41.4807 19.4873 41.4428 19.5031 41.3936 19.499L29.5762 18.5254H29.5752C29.5627 18.5244 29.5525 18.5193 29.543 18.5166L29.5752 18.5098L41.3936 17.501Z" stroke="black"/>
<path d="M28.4717 4.5L28.4746 4.50293C28.4813 4.51146 28.4881 4.52533 28.4932 4.54297L28.499 4.60645L27.4902 16.4248V16.4258C27.4892 16.4382 27.4851 16.4486 27.4824 16.458C27.4796 16.4483 27.4757 16.4376 27.4746 16.4248V16.4238L26.501 4.60645C26.4969 4.55719 26.5127 4.51935 26.5264 4.50195L26.5283 4.5H28.4717Z" stroke="black"/>
</svg>
