<svg width="48" height="48" viewBox="0 0 48 48" fill="none" xmlns="http://www.w3.org/2000/svg">
<path d="M9.10557 36.5528L23.1056 43.5528C23.6686 43.8343 24.3314 43.8343 24.8944 43.5528L38.8944 36.5528C39.572 36.214 40 35.5215 40 34.7639V21.2361C40 20.4785 39.572 19.786 38.8944 19.4472L24.8944 12.4472C24.3314 12.1657 23.6686 12.1657 23.1056 12.4472L9.10557 19.4472C8.428 19.786 8 20.4785 8 21.2361V34.7639C8 35.5215 8.428 36.214 9.10557 36.5528Z" stroke="black"/>
<path d="M24 44V28.0941M24 28.0941L9 20M24 28.0941L39 20" stroke="black"/>
<path d="M14.5 16.5L29.492 25V29.3815C29.492 30.125 30.2745 30.6085 30.9394 30.2758L32.8949 29.2974C33.5722 28.9585 34 28.2661 34 27.5088V22.5L19 14.5" stroke="black"/>
<path d="M34.8285 9.55653L38.364 6.021L39.7782 7.43521L37.6569 9.55653L39.7782 11.6779L33.4143 13.7992L36.2427 10.9707L34.8285 9.55653Z" stroke="black" stroke-linejoin="round"/>
<path d="M21 9.55556V4H23.4V7.33333H27L23.4 14V9.55556H21Z" stroke="black" stroke-linejoin="round"/>
<path d="M11.2531 12.0712L7.71753 8.53564L9.13174 7.12143L11.2531 9.24275L13.3744 7.12143L15.4957 13.4854L12.6673 10.657L11.2531 12.0712Z" stroke="black" stroke-linejoin="round"/>
<path d="M18.7765 10.8978L18 8" stroke="black" stroke-linecap="round" stroke-linejoin="round"/>
<path d="M29.9999 10.8978L30.7764 8" stroke="black" stroke-linecap="round" stroke-linejoin="round"/>
<path d="M38 16H40" stroke="black" stroke-linecap="round" stroke-linejoin="round"/>
<path d="M8 16H10" stroke="black" stroke-linecap="round" stroke-linejoin="round"/>
</svg>
