<svg width="48" height="48" viewBox="0 0 48 48" fill="none" xmlns="http://www.w3.org/2000/svg">
<path d="M20 25.4998V35.2638C20 36.0213 20.428 36.7138 21.1056 37.0526L30.1056 41.5526C30.6686 41.8341 31.3314 41.8341 31.8944 41.5526L40.8944 37.0526C41.572 36.7138 42 36.0213 42 35.2638V26.7359C42 25.9783 41.572 25.2858 40.8944 24.947L33.7611 21.3804" stroke="black"/>
<path d="M13.1056 22.0528L22.1056 26.5528C22.6686 26.8343 23.3314 26.8343 23.8944 26.5528L32.8944 22.0528C33.572 21.714 34 21.0215 34 20.2639V11.7361C34 10.9785 33.572 10.286 32.8944 9.94721L23.8944 5.44721C23.3314 5.16569 22.6686 5.16569 22.1056 5.44721L13.1056 9.94721C12.428 10.286 12 10.9785 12 11.7361V20.2639C12 21.0215 12.428 21.714 13.1056 22.0528Z" stroke="black" stroke-linecap="round" stroke-dasharray="1 3"/>
<path d="M20 33.5L17.8944 34.5528C17.3314 34.8343 16.6686 34.8343 16.1056 34.5528L7.10557 30.0528C6.428 29.714 6 29.0215 6 28.2639V19.7361C6 18.9785 6.428 18.286 7.10557 17.9472L12 15.5" stroke="black"/>
<path d="M31 41.5V30.95M31 30.95L23 26.5M31 30.95L41.5 25.5" stroke="black"/>
<path d="M23 26.5V15.95M23 15.95L12.5 10.5M23 15.95L33.5 10.5" stroke="black" stroke-dasharray="1 3"/>
<path d="M17 34.5V23.95L6.5 18.5" stroke="black"/>
<path d="M26.5 25L34.7692 29.0909V32.3726C34.7692 33.1182 35.5559 33.6016 36.2211 33.2647L36.9037 32.9189C37.5762 32.5783 38 31.8885 38 31.1347V27.4545L30 23.5" stroke="black"/>
<path d="M22 34.7449V32.8498C22 32.4685 22.4096 32.2275 22.7428 32.4127L24.4856 33.3809C24.8031 33.5573 25 33.8919 25 34.2551V36.1502C25 36.5315 24.5904 36.7725 24.2572 36.5873L22.5144 35.6191C22.1969 35.4427 22 35.1081 22 34.7449Z" stroke="black" stroke-linecap="round"/>
<path d="M8 27.7449V25.8498C8 25.4685 8.40956 25.2275 8.74282 25.4127L10.4856 26.3809C10.8031 26.5573 11 26.8919 11 27.2551V29.1502C11 29.5315 10.5904 29.7725 10.2572 29.5873L8.51436 28.6191C8.19689 28.4427 8 28.1081 8 27.7449Z" stroke="black" stroke-linecap="round"/>
</svg>
