<svg width="48" height="48" viewBox="0 0 48 48" fill="none" xmlns="http://www.w3.org/2000/svg">
<path d="M20 25.4998V35.2638C20 36.0213 20.428 36.7138 21.1056 37.0526L30.1056 41.5526C30.6686 41.8341 31.3314 41.8341 31.8944 41.5526L40.8944 37.0526C41.572 36.7138 42 36.0213 42 35.2638V26.7359C42 25.9783 41.572 25.2858 40.8944 24.947L33.7611 21.3804" stroke="black"/>
<path d="M13.1056 22.0528L22.1056 26.5528C22.6686 26.8343 23.3314 26.8343 23.8944 26.5528L32.8944 22.0528C33.572 21.714 34 21.0215 34 20.2639V11.7361C34 10.9785 33.572 10.286 32.8944 9.94721L23.8944 5.44721C23.3314 5.16569 22.6686 5.16569 22.1056 5.44721L13.1056 9.94721C12.428 10.286 12 10.9785 12 11.7361V20.2639C12 21.0215 12.428 21.714 13.1056 22.0528Z" stroke="black"/>
<path d="M20 33.5L17.8944 34.5528C17.3314 34.8343 16.6686 34.8343 16.1056 34.5528L14.5 33.75M12 15.5L7.10557 17.9472C6.428 18.286 6 18.9785 6 19.7361V28.2639C6 29.0215 6.428 29.714 7.10557 30.0528L10.1185 31.5593" stroke="black"/>
<path d="M31 41.5V30.95M31 30.95L23 26.5M31 30.95L41.5 25.5" stroke="black"/>
<path d="M23 26.5V15.95M23 15.95L12.5 10.5M23 15.95L33.5 10.5" stroke="black"/>
<path d="M17 34.5V23.95L6.5 18.5" stroke="black"/>
<path d="M26.5 25L34.7692 29.0909V32.3726C34.7692 33.1182 35.5559 33.6016 36.2211 33.2647L36.9037 32.9189C37.5762 32.5783 38 31.8885 38 31.1347V27.4545L30 23.5" stroke="black"/>
<path d="M16 8.63636L26.7692 14.0909V17.3726C26.7692 18.1182 27.5559 18.6016 28.2211 18.2647L28.9037 17.9189C29.5762 17.5783 30 16.8885 30 16.1347V12.4545L19.2308 7" stroke="black"/>
<path d="M22 34.7449V32.8498C22 32.4685 22.4096 32.2275 22.7428 32.4127L24.4856 33.3809C24.8031 33.5573 25 33.8919 25 34.2551V36.1502C25 36.5315 24.5904 36.7725 24.2572 36.5873L22.5144 35.6191C22.1969 35.4427 22 35.1081 22 34.7449Z" stroke="black" stroke-linecap="round"/>
<path d="M14 19.7449V17.8498C14 17.4685 14.4096 17.2275 14.7428 17.4127L16.4856 18.3809C16.8031 18.5573 17 18.8919 17 19.2551V21.1502C17 21.5315 16.5904 21.7725 16.2572 21.5873L14.5144 20.6191C14.1969 20.4427 14 20.1081 14 19.7449Z" stroke="black" stroke-linecap="round"/>
<path d="M11 27.5V27.2551C11 26.8919 10.8031 26.5573 10.4856 26.3809L8.74282 25.4127C8.40956 25.2275 8 25.4685 8 25.8498V27.7449C8 28.1081 8.19689 28.4427 8.51436 28.6191L10.1 29.5" stroke="black" stroke-linecap="round"/>
<path d="M11.0195 27.5H13.6943C13.9164 27.5 14.13 27.5881 14.2871 27.7451C14.4246 27.8826 14.5092 28.0631 14.5283 28.2549L14.5322 28.3379L14.5322 37.7012H18.1768L12.8496 41.5752C12.7065 41.679 12.5343 41.7354 12.3574 41.7354C12.1806 41.7354 12.0084 41.679 11.8652 41.5752L6.53711 37.7012H10.1816L10.1816 28.3379C10.1817 28.1158 10.2707 27.9022 10.4277 27.7451C10.5651 27.6079 10.745 27.523 10.9365 27.5039L11.0195 27.5Z" stroke="black"/>
</svg>
