<svg width="48" height="48" viewBox="0 0 48 48" fill="none" xmlns="http://www.w3.org/2000/svg">
<path d="M38.9782 25.5V15.4806C38.9782 14.7231 38.5502 14.0306 37.8727 13.6918L23.3836 6.44723C22.8205 6.1657 22.1578 6.1657 21.5947 6.44723L7.10557 13.6918C6.42801 14.0306 6 14.7231 6 15.4806V29.4976C6 30.2552 6.42801 30.9477 7.10557 31.2865L21.5987 38.5331C22.1595 38.8135 22.8193 38.8147 23.3811 38.5363L28.5 36" stroke="black" stroke-linecap="round"/>
<path d="M22.4891 38.9783V22.5862M22.4891 22.5862L38.0083 14.2446M22.4891 22.5862L6.96995 14.2446" stroke="black"/>
<path d="M32.6736 10.8497L16.5202 19.2265V24.7414C16.5202 25.4871 15.7336 25.9704 15.0684 25.6335L12.916 24.5433C12.2435 24.2027 11.8197 23.513 11.8197 22.7592V16.8457L27.8238 8.4248" stroke="black"/>
<rect x="28.5" y="30.5" width="13" height="11" rx="1.5" stroke="black"/>
<circle cx="35" cy="35" r="1" fill="black" stroke="black"/>
<path d="M35 36V38" stroke="black" stroke-linecap="round"/>
<path d="M40.0005 30.5V29C40.0005 26.2386 37.7619 24 35.0005 24C33.8747 24 32.8357 24.3721 32 25" stroke="black" stroke-linecap="round"/>
</svg>
