<svg width="48" height="48" viewBox="0 0 48 48" fill="none" xmlns="http://www.w3.org/2000/svg">
<path d="M38.9783 24.5V15.4806C38.9783 14.7231 38.5503 14.0306 37.8727 13.6918L23.3836 6.44721C22.8205 6.16569 22.1578 6.16569 21.5947 6.44721L7.10559 13.6918C6.42803 14.0306 6.00002 14.7231 6.00002 15.4806V29.4976C6.00002 30.2552 6.42803 30.9477 7.1056 31.2865L21.5255 38.4964C22.1271 38.7972 22.8395 38.7755 23.4216 38.4387L28.5 35.5" stroke="black"/>
<path d="M22.4891 38.9783V22.5862M22.4891 22.5862L38.0083 14.2446M22.4891 22.5862L6.96995 14.2446" stroke="black"/>
<path d="M32.6736 10.8497L16.5202 19.2265V24.7414C16.5202 25.4871 15.7336 25.9704 15.0684 25.6335L12.916 24.5433C12.2435 24.2027 11.8197 23.513 11.8197 22.7592V16.8457L27.8238 8.4248" stroke="black"/>
<path d="M29 22.5H36.8076L41.5 26.7227V41C41.5 41.1326 41.4473 41.2597 41.3535 41.3535C41.2597 41.4473 41.1326 41.5 41 41.5H29C28.8674 41.5 28.7403 41.4473 28.6465 41.3535C28.5527 41.2597 28.5 41.1326 28.5 41V23C28.5 22.8674 28.5527 22.7403 28.6465 22.6465C28.7403 22.5527 28.8674 22.5 29 22.5Z" stroke="black"/>
<path d="M37 23V25C37 26.1046 37.8954 27 39 27H41.5" stroke="black" stroke-linecap="round"/>
<path d="M31.5 31H38.5" stroke="black" stroke-linecap="round"/>
<path d="M31.5 34H38.5" stroke="black" stroke-linecap="round"/>
<path d="M31.5 37H38.5" stroke="black" stroke-linecap="round"/>
</svg>
