<svg width="48" height="48" viewBox="0 0 48 48" fill="none" xmlns="http://www.w3.org/2000/svg">
<path d="M27.3763 12.7407L38.9166 18.6912C39.5819 19.0342 40 19.7202 40 20.4688V34.5308C40 35.2794 39.5819 35.9654 38.9166 36.3084L24.9166 43.5272C24.3415 43.8237 23.6585 43.8237 23.0834 43.5272C18.4168 41.1209 13.7501 38.7147 9.08342 36.3084C8.41806 35.9654 8 35.2794 8 34.5308V20.4688C8 19.7202 8.41806 19.0342 9.08342 18.6912L20.6237 12.7407" stroke="black"/>
<path d="M24 44V27.4314M24 27.4314L9 19M24 27.4314L39 19" stroke="black"/>
<path d="M14.5 16L29.5 24.5L29.494 29.3362C29.4931 30.0905 30.2957 30.5742 30.9621 30.2211L32.9363 29.1753C33.5907 28.8286 34 28.1486 34 27.408V21.4472L25.2145 16.632M19.5 13.5L21.695 14.703" stroke="black"/>
<path d="M24 4.5C25.1974 4.5 26.329 4.91202 27.1631 5.7334C28.0005 6.5582 28.5 7.75822 28.5 9.25879C28.5 9.77383 28.3159 10.4169 28.0645 11.0732C27.8074 11.7442 27.457 12.4856 27.0781 13.2178C26.32 14.683 25.43 16.1453 24.8975 16.9941C24.803 17.1452 24.6733 17.2729 24.5166 17.3623C24.3596 17.4518 24.182 17.5 24 17.5C23.818 17.5 23.6404 17.4518 23.4834 17.3623C23.3267 17.2729 23.196 17.1461 23.1016 16.9951V16.9941C22.569 16.1453 21.6799 14.6827 20.9219 13.2178C20.543 12.4854 20.1916 11.7442 19.9346 11.0732C19.6831 10.4169 19.5 9.77382 19.5 9.25879C19.5 7.75821 19.9995 6.5582 20.8369 5.7334C21.671 4.91202 22.8026 4.5 24 4.5ZM23.7695 7.65332C23.5402 7.7019 23.3244 7.82278 23.1523 8.00586C22.98 8.1894 22.8597 8.42748 22.8105 8.69043C22.7614 8.9534 22.7862 9.22571 22.8818 9.47168C22.9775 9.71753 23.1383 9.9225 23.3379 10.0645C23.5369 10.206 23.7672 10.2793 24 10.2793C24.3116 10.2793 24.6172 10.1477 24.8477 9.90234C25.0791 9.6559 25.2139 9.31523 25.2139 8.9541C25.2138 8.68542 25.1393 8.4249 25.002 8.20605C24.8647 7.98744 24.6726 7.82193 24.4541 7.72559C24.2362 7.62956 23.9985 7.60492 23.7695 7.65332Z" stroke="black"/>
</svg>
