<svg width="48" height="48" viewBox="0 0 48 48" fill="none" xmlns="http://www.w3.org/2000/svg">
<path d="M36.9783 25.5V13.4806C36.9783 12.7231 36.5503 12.0306 35.8727 11.6918L21.3836 4.44721C20.8205 4.16569 20.1578 4.16569 19.5947 4.44721L5.10559 11.6918C4.42803 12.0306 4.00002 12.7231 4.00002 13.4806V27.4976C4.00002 28.2552 4.42803 28.9477 5.1056 29.2865L19.6008 36.5341C20.1604 36.8139 20.8188 36.8157 21.3799 36.5389L24.5 35" stroke="black"/>
<path d="M20.4891 36.9783V20.5862M20.4891 20.5862L36.0083 12.2446M20.4891 20.5862L4.96995 12.2446" stroke="black"/>
<path d="M30.6736 8.84968L14.5202 17.2265V22.7414C14.5202 23.4871 13.7336 23.9704 13.0684 23.6335L10.916 22.5433C10.2435 22.2027 9.81969 21.513 9.81969 20.7592V14.8457L25.8238 6.4248" stroke="black"/>
<path d="M33 28.5V32.5858C33 32.851 33.1054 33.1054 33.2929 33.2929L37 37" stroke="black" stroke-linecap="round"/>
<circle cx="33" cy="33" r="0.5" stroke="black"/>
<circle cx="33" cy="33" r="8.5" stroke="black"/>
</svg>
