<svg width="48" height="48" viewBox="0 0 48 48" fill="none" xmlns="http://www.w3.org/2000/svg">
<path d="M32.5 36H28H29C30.1046 36 31 35.1046 31 34V16H38.4146C38.8108 16 39.1991 16.1061 39.5362 16.3063C39.8732 16.5066 40.1457 16.7931 40.3229 17.1338L43.7745 23.7719C43.9228 24.0567 44.0001 24.3709 44 24.6894V28M39.5 36H41.8667C42.4325 36 42.9751 35.7839 43.3752 35.3992C43.7752 35.0145 44 34.4928 44 33.9487V32" stroke="black"/>
<path d="M15.5 36H29.0364C29.5572 36 30.0566 35.7855 30.4249 35.4036C30.7931 35.0217 31 34.5037 31 33.9636V10.0364C31 9.49629 30.7931 8.97833 30.4249 8.59644C30.0566 8.21455 29.5572 8 29.0364 8H5.96364C5.44285 8 4.94339 8.21455 4.57514 8.59644C4.20688 8.97833 4 9.49629 4 10.0364V28M8.5 36H5.96364C5.44285 36 4.94339 35.7855 4.57514 35.4036C4.20688 35.0217 4 34.5037 4 33.9636V32" stroke="black"/>
<path d="M34.5 18.5H38.3818C38.4745 18.5 38.5657 18.5255 38.6445 18.5742C38.7038 18.6109 38.7548 18.6598 38.7939 18.7168L38.8291 18.7764L40.8291 22.7764C40.8672 22.8524 40.8856 22.9375 40.8818 23.0225C40.878 23.1074 40.8522 23.1903 40.8076 23.2627C40.7628 23.3352 40.6994 23.3951 40.625 23.4365C40.5506 23.4779 40.4669 23.5 40.3818 23.5H34.5C34.3674 23.5 34.2403 23.4473 34.1465 23.3535C34.0527 23.2597 34 23.1326 34 23V19C34 18.8674 34.0527 18.7403 34.1465 18.6465C34.2403 18.5527 34.3674 18.5 34.5 18.5Z" stroke="black"/>
<circle cx="12" cy="36" r="4" stroke="black"/>
<circle cx="36" cy="36" r="4" stroke="black"/>
<path fill-rule="evenodd" clip-rule="evenodd" d="M37 36C37 35.8022 36.9414 35.6089 36.8315 35.4444C36.7216 35.28 36.5654 35.1518 36.3827 35.0761C36.2 35.0004 35.9989 34.9806 35.8049 35.0192C35.6109 35.0578 35.4327 35.153 35.2929 35.2929C35.153 35.4327 35.0578 35.6109 35.0192 35.8049C34.9806 35.9989 35.0004 36.2 35.0761 36.3827C35.1518 36.5654 35.28 36.7216 35.4444 36.8315C35.6089 36.9414 35.8022 37 36 37C36.2652 37 36.5196 36.8946 36.7071 36.7071C36.8946 36.5196 37 36.2652 37 36Z" stroke="black"/>
<path fill-rule="evenodd" clip-rule="evenodd" d="M13 36C13 35.8022 12.9414 35.6089 12.8315 35.4444C12.7216 35.28 12.5654 35.1518 12.3827 35.0761C12.2 35.0004 11.9989 34.9806 11.8049 35.0192C11.6109 35.0578 11.4327 35.153 11.2929 35.2929C11.153 35.4327 11.0578 35.6109 11.0192 35.8049C10.9806 35.9989 11.0004 36.2 11.0761 36.3827C11.1518 36.5654 11.28 36.7216 11.4444 36.8315C11.6089 36.9414 11.8022 37 12 37C12.2652 37 12.5196 36.8946 12.7071 36.7071C12.8946 36.5196 13 36.2652 13 36Z" stroke="black"/>
<path d="M6 32H4C3.44772 32 3 31.5523 3 31L3 29C3 28.4477 3.44772 28 4 28H6C6.55228 28 7 28.4477 7 29L7 31C7 31.5523 6.55228 32 6 32Z" stroke="black" stroke-linecap="round"/>
<path d="M44 32H42C41.4477 32 41 31.5523 41 31V29C41 28.4477 41.4477 28 42 28H44C44.5523 28 45 28.4477 45 29V31C45 31.5523 44.5523 32 44 32Z" stroke="black" stroke-linecap="round"/>
<path d="M18 16.5V20.5858C18 20.851 18.1054 21.1054 18.2929 21.2929L22 25" stroke="black" stroke-linecap="round"/>
<circle cx="18" cy="21" r="0.5" stroke="black"/>
<circle cx="18" cy="21" r="8.5" stroke="black"/>
</svg>
