<svg width="48" height="48" viewBox="0 0 48 48" fill="none" xmlns="http://www.w3.org/2000/svg">
<path d="M15.5 36H20H19C17.8954 36 17 35.1046 17 34V16H9.58544C9.18924 16 8.80087 16.1061 8.46381 16.3063C8.12676 16.5066 7.85434 16.7931 7.67707 17.1338L4.22554 23.7719C4.07716 24.0567 3.99994 24.3709 4 24.6894V28M8.5 36H6.13333C5.56754 36 5.02491 35.7839 4.62484 35.3992C4.22476 35.0145 4 34.4928 4 33.9487V32" stroke="black"/>
<path d="M32.5 36H18.9636C18.4428 36 17.9434 35.7855 17.5751 35.4036C17.2069 35.0217 17 34.5037 17 33.9636V10.0364C17 9.49629 17.2069 8.97833 17.5751 8.59644C17.9434 8.21455 18.4428 8 18.9636 8H42.0364C42.5572 8 43.0566 8.21455 43.4249 8.59644C43.7931 8.97833 44 9.49629 44 10.0364V28M39.5 36H42.0364C42.5572 36 43.0566 35.7855 43.4249 35.4036C43.7931 35.0217 44 34.5037 44 33.9636V32" stroke="black"/>
<path d="M13.5 18.5H9.61816C9.52548 18.5 9.43434 18.5255 9.35547 18.5742C9.29621 18.6109 9.24519 18.6598 9.20605 18.7168L9.1709 18.7764L7.1709 22.7764C7.13285 22.8524 7.1144 22.9375 7.11816 23.0225C7.12199 23.1074 7.14776 23.1903 7.19238 23.2627C7.23718 23.3352 7.30058 23.3951 7.375 23.4365C7.44937 23.4779 7.53306 23.5 7.61816 23.5H13.5C13.6326 23.5 13.7597 23.4473 13.8535 23.3535C13.9473 23.2597 14 23.1326 14 23V19C14 18.8674 13.9473 18.7403 13.8535 18.6465C13.7597 18.5527 13.6326 18.5 13.5 18.5Z" stroke="black"/>
<path fill-rule="evenodd" clip-rule="evenodd" d="M11 36C11 35.8022 11.0586 35.6089 11.1685 35.4444C11.2784 35.28 11.4346 35.1518 11.6173 35.0761C11.8 35.0004 12.0011 34.9806 12.1951 35.0192C12.3891 35.0578 12.5673 35.153 12.7071 35.2929C12.847 35.4327 12.9422 35.6109 12.9808 35.8049C13.0194 35.9989 12.9996 36.2 12.9239 36.3827C12.8482 36.5654 12.72 36.7216 12.5556 36.8315C12.3911 36.9414 12.1978 37 12 37C11.7348 37 11.4804 36.8946 11.2929 36.7071C11.1054 36.5196 11 36.2652 11 36Z" stroke="black"/>
<path fill-rule="evenodd" clip-rule="evenodd" d="M35 36C35 35.8022 35.0586 35.6089 35.1685 35.4444C35.2784 35.28 35.4346 35.1518 35.6173 35.0761C35.8 35.0004 36.0011 34.9806 36.1951 35.0192C36.3891 35.0578 36.5673 35.153 36.7071 35.2929C36.847 35.4327 36.9422 35.6109 36.9808 35.8049C37.0194 35.9989 36.9996 36.2 36.9239 36.3827C36.8482 36.5654 36.72 36.7216 36.5556 36.8315C36.3911 36.9414 36.1978 37 36 37C35.7348 37 35.4804 36.8946 35.2929 36.7071C35.1054 36.5196 35 36.2652 35 36Z" stroke="black"/>
<path d="M42 32H44C44.5523 32 45 31.5523 45 31V29C45 28.4477 44.5523 28 44 28H42C41.4477 28 41 28.4477 41 29V31C41 31.5523 41.4477 32 42 32Z" stroke="black" stroke-linecap="round"/>
<path d="M4 32H6C6.55228 32 7 31.5523 7 31L7 29C7 28.4477 6.55228 28 6 28H4C3.44772 28 3 28.4477 3 29L3 31C3 31.5523 3.44772 32 4 32Z" stroke="black" stroke-linecap="round"/>
<circle cx="12" cy="36" r="4" stroke="black"/>
<circle cx="36" cy="36" r="4" stroke="black"/>
<path d="M33.6672 15.8891L35.0814 17.3033C35.2767 17.4986 35.2767 17.8151 35.0814 18.0104L32.6065 20.4853L35.0814 22.9602C35.2767 23.1554 35.2767 23.472 35.0814 23.6673L33.6672 25.0815C33.4719 25.2767 33.1554 25.2767 32.9601 25.0815L30.4852 22.6066L28.0104 25.0815C27.8151 25.2767 27.4985 25.2767 27.3032 25.0815L25.889 23.6673C25.6938 23.472 25.6938 23.1554 25.889 22.9602L28.3639 20.4853L25.889 18.0104C25.6938 17.8151 25.6938 17.4986 25.889 17.3033L27.3032 15.8891C27.4985 15.6938 27.8151 15.6938 28.0104 15.8891L30.4852 18.364L32.9601 15.8891C33.1554 15.6938 33.4719 15.6938 33.6672 15.8891Z" stroke="black"/>
</svg>
