<svg width="48" height="48" viewBox="0 0 48 48" fill="none" xmlns="http://www.w3.org/2000/svg">
<path d="M13.2313 14.6289C13.2313 14.2813 12.95 14.0005 12.6031 14.0005L8 14.0009L10.9446 17.7693L13.1224 14.9819C13.1912 14.8814 13.2313 14.7603 13.2313 14.6289Z" fill="black"/>
<path d="M17.126 17.7299V17.7285L14.635 14.5512C14.4036 14.2301 14.0322 14.0181 13.6098 14.0033V14C13.6098 14 14.3035 14.4163 13.808 15.0427H13.8081L11.4948 18.0029L11.4925 17.9991L8.3678 21.9971L13.2611 22L13.6255 21.9872C14.0207 21.9698 14.3716 21.78 14.6032 21.4896L14.6077 21.4868L17.1149 18.2794V18.2765C17.1759 18.1991 17.2138 18.1028 17.2138 17.997C17.2138 17.8969 17.1808 17.8058 17.126 17.7299Z" fill="black"/>
<path d="M39.9581 10H7.95813C5.74899 10 3.95813 11.7909 3.95813 14V34C3.95813 36.2091 5.74899 38 7.95813 38H39.9581C42.1673 38 43.9581 36.2091 43.9581 34V14C43.9581 11.7909 42.1673 10 39.9581 10Z" stroke="black"/>
<path d="M24.9581 28C25.5104 28 25.9581 27.5523 25.9581 27C25.9581 26.4477 25.5104 26 24.9581 26H8.95813C8.40585 26 7.95813 26.4477 7.95813 27C7.95813 27.5523 8.40585 28 8.95813 28H24.9581Z" stroke="black"/>
<path d="M18.9581 32C19.5104 32 19.9581 31.5523 19.9581 31C19.9581 30.4477 19.5104 30 18.9581 30H8.95813C8.40584 30 7.95813 30.4477 7.95813 31C7.95813 31.5523 8.40584 32 8.95813 32H18.9581Z" stroke="black"/>
<path d="M35.5002 26.5H39.5002C39.7764 26.5 40.0002 26.7239 40.0002 27V31C40.0002 31.2761 39.7764 31.5 39.5002 31.5H35.5002C35.2241 31.5 35.0002 31.2761 35.0002 31V27C35.0002 26.7239 35.2241 26.5 35.5002 26.5Z" stroke="black"/>
</svg>
