<svg width="48" height="48" viewBox="0 0 48 48" fill="none" xmlns="http://www.w3.org/2000/svg">
<path d="M38.8496 7.5C38.8706 7.49926 38.8905 7.50777 38.9043 7.52148L40.4795 9.09277C40.4935 9.10687 40.5009 9.12596 40.5 9.14453C40.499 9.16364 40.4893 9.18135 40.4746 9.19336L40.4736 9.19434L31.6172 16.4834C31.5957 16.5009 31.567 16.5043 31.543 16.4941L31.5205 16.4795L31.5059 16.458C31.4955 16.4346 31.4994 16.4074 31.5156 16.3877V16.3867L38.7969 7.52637L38.7979 7.52539C38.8091 7.5118 38.8272 7.50155 38.8496 7.5Z" stroke="black"/>
<path d="M43.3936 17.501C43.4419 17.4968 43.48 17.5121 43.4971 17.5254L43.498 17.5264L43.5 17.5273V19.4717L43.498 19.4736C43.4807 19.4873 43.4428 19.5031 43.3936 19.499L31.5762 18.5254H31.5752C31.5627 18.5244 31.5525 18.5193 31.543 18.5166L31.5752 18.5098L43.3936 17.501Z" stroke="black"/>
<path d="M30.4717 4.5L30.4746 4.50293C30.4813 4.51146 30.4881 4.52533 30.4932 4.54297L30.499 4.60645L29.4902 16.4248V16.4258C29.4892 16.4382 29.4851 16.4486 29.4824 16.458C29.4796 16.4483 29.4757 16.4376 29.4746 16.4248V16.4238L28.501 4.60645C28.4969 4.55719 28.5127 4.51935 28.5264 4.50195L28.5283 4.5H30.4717Z" stroke="black"/>
<path d="M24 29.3215C15.8978 29.3215 9.02394 34.5807 6.60601 41.8716C6.21128 43.0619 7.16105 44.2078 8.41505 44.2078H39.5849C40.8389 44.2078 41.7887 43.0619 41.394 41.8716C38.9761 34.5807 32.1022 29.3215 24 29.3215Z" stroke="black"/>
<path d="M15.3991 17C15.037 17.9852 14.8392 19.0499 14.8392 20.1608C14.8392 25.2201 18.9406 29.3215 24 29.3215C29.0594 29.3215 33.1608 25.2201 33.1608 20.1608C33.1608 19.0499 32.963 17.9852 32.6009 17" stroke="black"/>
<path d="M20 36L18 30.5L20 30L24 33L20 36Z" stroke="black"/>
<path d="M28 36L30 30.5L28 30L24 33L28 36Z" stroke="black"/>
<path d="M13 44L11 35" stroke="black"/>
<path d="M35 44L37 35" stroke="black"/>
<path d="M32.1063 16.6266C26.2743 14.7164 21.8311 14.6968 15.8963 16.6278C15.3923 16.7917 15.1138 17.3284 15.2594 17.838L15.7166 19.4381C15.8716 19.9809 16.4463 20.286 16.9873 20.1246C22.3134 18.5357 25.6878 18.5542 31.0153 20.1287C31.5553 20.2883 32.1277 19.9831 32.2824 19.4416L32.7412 17.836C32.8865 17.3272 32.6092 16.7913 32.1063 16.6266Z" stroke="black"/>
<path d="M15.5 16.9301L15.9081 10.8086C15.9634 9.97893 16.5257 9.2655 17.3272 9.04419C21.6996 7.83686 24.7642 7.68191 28.718 8.55122M32.5 16.9301L32.0917 10.8056C32.0365 9.97742 31.4767 9.26501 30.6771 9.04257C30.6178 9.02608 30.5588 9.00979 30.5 8.9937" stroke="black"/>
</svg>
