<svg width="48" height="48" viewBox="0 0 48 48" fill="none" xmlns="http://www.w3.org/2000/svg">
<path d="M4 8.57573C12.3333 6.82994 17.3333 9.44863 24 11.1944C29.9825 12.7611 37.3072 12.2189 42.3608 9.56792C43.0768 9.19233 44 9.68523 44 10.4937V35.987C44 36.3138 43.8419 36.6217 43.5673 36.7988C38.5294 40.0473 30.4779 40.8235 24 39.1271C17.3333 37.3813 16.3333 35.6355 8 36.5084" stroke="black" stroke-linecap="round"/>
<path d="M7 8C11.75 10.4545 20.0417 20.4545 25.5833 27C30.3333 25.3636 41.4167 15.7273 43 10" stroke="black" stroke-linecap="round"/>
<path d="M4 32.9998C8.5 30.9998 14.5 31.4998 19 32.9998" stroke="black" stroke-linecap="round"/>
<path d="M6 27.9998C7.17647 27.2459 12 26.9998 15 27.9998" stroke="black" stroke-linecap="round"/>
<path d="M4 24.0002C5.5 23.2464 7 23.0002 9 23.2464" stroke="black" stroke-linecap="round"/>
<path d="M5 14.1087C5.5 13.4999 7.2 13.2089 8 13.4999" stroke="black" stroke-linecap="round"/>
<path d="M6 19C8.5 18 11 18 13 19" stroke="black" stroke-linecap="round"/>
</svg>
