<svg width="48" height="48" viewBox="0 0 48 48" fill="none" xmlns="http://www.w3.org/2000/svg">
<path d="M24 27.3215C15.8978 27.3215 9.02394 32.5807 6.60601 39.8716C6.21128 41.0619 7.16105 42.2078 8.41505 42.2078H39.5849C40.8389 42.2078 41.7887 41.0619 41.394 39.8716C38.9761 32.5807 32.1022 27.3215 24 27.3215Z" stroke="black"/>
<path d="M15.3991 15C15.037 15.9852 14.8392 17.0499 14.8392 18.1608C14.8392 23.2201 18.9406 27.3215 24 27.3215C29.0594 27.3215 33.1608 23.2201 33.1608 18.1608C33.1608 17.0499 32.963 15.9852 32.6009 15" stroke="black"/>
<path d="M20 34L18 28.5L20 28L24 31L20 34Z" stroke="black"/>
<path d="M28 34L30 28.5L28 28L24 31L28 34Z" stroke="black"/>
<path d="M13 42L11 33" stroke="black"/>
<path d="M35 42L37 33" stroke="black"/>
<path d="M32.1063 14.6266C26.2743 12.7164 21.8311 12.6968 15.8963 14.6278C15.3923 14.7917 15.1138 15.3284 15.2594 15.838L15.7166 17.4381C15.8716 17.9809 16.4463 18.286 16.9873 18.1246C22.3134 16.5357 25.6878 16.5542 31.0153 18.1287C31.5553 18.2883 32.1277 17.9831 32.2824 17.4416L32.7412 15.836C32.8865 15.3272 32.6092 14.7913 32.1063 14.6266Z" stroke="black"/>
<path d="M15.5 14.9301L15.9081 8.80857C15.9634 7.97893 16.5268 7.26518 17.3283 7.04389C22.3937 5.64536 25.7038 5.65933 30.6753 7.04208C31.475 7.26449 32.0365 7.97742 32.0917 8.80559L32.5 14.9301" stroke="black"/>
</svg>
