<svg width="48" height="48" viewBox="0 0 48 48" fill="none" xmlns="http://www.w3.org/2000/svg">
<path d="M12.5 11.5H8.5C7.43913 11.5 6.42172 11.9214 5.67157 12.6716C4.92143 13.4217 4.5 14.4391 4.5 15.5L4.5 29.5C4.5 30.5609 4.92143 31.5783 5.67157 32.3284C6.42172 33.0786 7.43913 33.5 8.5 33.5H10V39L15 33.5H27.0002C28.0611 33.5 29.0785 33.0786 29.8287 32.3284C30.3382 31.8189 30.6961 31.186 30.8732 30.5" stroke="black"/>
<path d="M40 8.5H16C15.5404 8.49988 15.0848 8.59076 14.6602 8.7666C14.2356 8.94244 13.8493 9.19949 13.5244 9.52441C13.1995 9.84934 12.9424 10.2356 12.7666 10.6602C12.5908 11.0848 12.4999 11.5404 12.5 12V27C12.4999 27.4596 12.5908 27.9152 12.7666 28.3398C12.9424 28.7644 13.1995 29.1507 13.5244 29.4756C13.8493 29.8005 14.2356 30.0576 14.6602 30.2334C15.0848 30.4092 15.5404 30.5001 16 30.5H32.207L37.5 35.793V30.5H39.998C40.9258 30.4968 41.8147 30.1267 42.4707 29.4707C43.0857 28.8557 43.4494 28.0363 43.4951 27.1719L43.5 26.998V12C43.5001 11.5404 43.4092 11.0848 43.2334 10.6602C43.0576 10.2356 42.8005 9.84934 42.4756 9.52441C42.1507 9.19949 41.7644 8.94244 41.3398 8.7666C40.9681 8.61269 40.5729 8.5235 40.1719 8.50391L40 8.5Z" stroke="black"/>
<path d="M17 17H39" stroke="black" stroke-linecap="round" stroke-linejoin="round"/>
<path d="M17 21H27" stroke="black" stroke-linecap="round" stroke-linejoin="round"/>
<path d="M30 21H34" stroke="black" stroke-linecap="round" stroke-linejoin="round"/>
</svg>
