<svg width="48" height="48" viewBox="0 0 48 48" fill="none" xmlns="http://www.w3.org/2000/svg">
<path d="M29.4558 25.7488L15.3137 25.7488" stroke="black" stroke-linecap="round"/>
<circle cx="22.3848" cy="29.9914" r="2" transform="rotate(-135 22.3848 29.9914)" stroke="black"/>
<circle cx="22.3848" cy="21.506" r="2" transform="rotate(-135 22.3848 21.506)" stroke="black"/>
<path d="M35.4663 12.6675L40.4663 7.66748" stroke="black" stroke-linecap="round"/>
<path d="M40.1393 23.5504L20.9706 42.7191C20.1896 43.5001 18.9232 43.5001 18.1422 42.7191L5.41426 29.9912C4.63321 29.2101 4.63321 27.9438 5.41426 27.1627L24.6175 7.9595C25.5246 7.05236 26.8118 6.63537 28.0786 6.83828L36.3952 8.17048C38.0732 8.43927 39.3982 9.73898 39.6993 11.4115L41.2476 20.0133C41.4797 21.3027 41.0657 22.624 40.1393 23.5504Z" stroke="black" stroke-linecap="round"/>
<path d="M36.5 8.10008C38.1512 8.10008 39.6175 9.15547 40.1418 10.7212L42.7118 18.3968C43.1277 19.6391 42.909 21.0064 42.1262 22.0569L26.9084 42.4788C26.2484 43.3645 24.9954 43.5475 24.1097 42.8875L22.2477 41.5" stroke="black" stroke-linecap="round"/>
<circle cx="35.1127" cy="13.0207" r="2" transform="rotate(-135 35.1127 13.0207)" stroke="black"/>
</svg>
