<svg width="48" height="48" viewBox="0 0 48 48" fill="none" xmlns="http://www.w3.org/2000/svg">
<path d="M44 23.9997C44.0001 27.9554 42.8271 31.8222 40.6295 35.1112C38.432 38.4002 35.3084 40.9637 31.6539 42.4775C27.9994 43.9913 23.9781 44.3874 20.0985 43.6157C16.2188 42.8441 12.6551 40.9393 9.85806 38.1423C7.06097 35.3453 5.15611 31.7817 4.38436 27.9021C3.6126 24.0225 4.00861 20.0011 5.52232 16.3466C7.03602 12.692 9.59943 9.56843 12.8884 7.37075C16.1773 5.17308 20.0441 4.00005 23.9997 4C26.6262 3.99997 29.2269 4.51725 31.6534 5.52231C34.08 6.52737 36.2848 8.00053 38.1419 9.85768C39.9991 11.7148 41.4724 13.9196 42.4775 16.3461C43.4826 18.7726 44 21.3733 44 23.9997Z" stroke="black"/>
<path d="M41 23.9998C41 27.3621 40.0031 30.6488 38.1351 33.4445C36.2672 36.2402 33.6122 38.4191 30.5058 39.7059C27.3995 40.9926 23.9814 41.3293 20.6837 40.6734C17.386 40.0175 14.3569 38.3984 11.9794 36.021C9.60183 33.6435 7.98269 30.6144 7.3267 27.3168C6.67071 24.0191 7.00732 20.6009 8.29397 17.4946C9.58062 14.3882 11.7595 11.7332 14.5551 9.86514C17.3507 7.99712 20.6375 7.00004 23.9998 7C26.2323 6.99997 28.4429 7.43966 30.5054 8.29396C32.568 9.14826 34.442 10.4004 36.0207 11.979C37.5993 13.5576 38.8515 15.4316 39.7059 17.4942C40.5602 19.5567 41 21.7673 41 23.9998Z" stroke="black"/>
<path d="M23.4468 11H24.5532C25.1642 11 25.6596 11.4953 25.6596 12.1064C25.6596 12.6988 25.6596 13.4829 25.6596 13.9979C28.368 14.76 30.6383 17.2857 30.6383 19.8511H27.3191C27.3191 18.8106 25.7115 17.0851 24 17.0851C22.3507 17.0851 20.6808 18.0351 20.6808 19.8511C20.6808 21.5647 22.6137 22.617 24 22.617C27.8464 22.617 30.6383 25.1761 30.6383 28.7021C30.6383 31.6422 28.5884 33.9695 25.6596 34.611V35.8936C25.6596 36.5047 25.1642 37 24.5532 37H23.4468C22.8358 37 22.3404 36.5047 22.3404 35.8936V34.5484C19.6426 33.778 17.3617 31.2598 17.3617 28.7021H20.6808C20.6808 29.7426 22.2885 31.4681 24 31.4681C25.6493 31.4681 27.3191 30.5181 27.3191 28.7021C27.3191 26.6608 25.531 25.9362 24 25.9362C20.7943 25.9362 17.3617 23.4911 17.3617 19.8511C17.3617 16.9065 19.4044 14.5765 22.3404 13.9393C22.3404 13.3536 22.3404 12.6959 22.3404 12.1064C22.3404 11.4953 22.8358 11 23.4468 11Z" stroke="black"/>
</svg>
