<svg width="48" height="48" viewBox="0 0 48 48" fill="none" xmlns="http://www.w3.org/2000/svg">
<path d="M40.6295 35.1112C42.8271 31.8222 44.0001 27.9554 44 23.9997C44 21.3733 43.4826 18.7726 42.4775 16.3461C41.4724 13.9196 39.9991 11.7148 38.1419 9.85768C36.2848 8.00053 34.08 6.52737 31.6534 5.52231C29.2269 4.51725 26.6262 3.99997 23.9997 4C20.0441 4.00005 16.1773 5.17308 12.8884 7.37075C9.59943 9.56843 7.03602 12.692 5.52232 16.3466C4.00861 20.0011 3.6126 24.0225 4.38436 27.9021C5.15611 31.7817 7.06097 35.3453 9.85806 38.1423M15.3572 42.0361C16.8575 42.7551 18.4494 43.2878 20.0985 43.6157C23.9781 44.3874 27.9994 43.9913 31.6539 42.4775C33.4444 41.7358 35.1075 40.7421 36.5966 39.5346" stroke="black"/>
<path d="M17.9003 39.868C18.7995 40.2137 19.7304 40.4838 20.6837 40.6734C23.9814 41.3293 27.3995 40.9926 30.5058 39.7059C31.8071 39.1669 33.0291 38.4713 34.1472 37.6394M9.86489 33.4445C8.63068 31.5973 7.76435 29.5168 7.3267 27.3168C6.67071 24.0191 7.00732 20.6009 8.29397 17.4946C9.58062 14.3882 11.7595 11.7332 14.5551 9.86514C17.3507 7.99712 20.6375 7.00004 23.9998 7C26.2322 6.99997 28.4429 7.43966 30.5054 8.29396C32.568 9.14826 34.442 10.4004 36.0207 11.979C37.5993 13.5576 38.8515 15.4316 39.7059 17.4942C40.5602 19.5567 41 21.7673 41 23.9998C41 25.9336 40.6702 27.8425 40.0346 29.6473" stroke="black"/>
<path d="M23.4468 11H24.5532C25.1642 11 25.6596 11.4953 25.6596 12.1064C25.6596 12.6988 25.6596 13.4829 25.6596 13.9979C28.368 14.76 30.6383 17.2857 30.6383 19.8511H27.3191C27.3191 18.8106 25.7115 17.0851 24 17.0851C22.3507 17.0851 20.6808 18.0351 20.6808 19.8511C20.6808 21.5647 22.6137 22.617 24 22.617C27.8464 22.617 30.6383 25.1761 30.6383 28.7021C30.6383 31.6422 28.5884 33.9695 25.6596 34.611V35.8936C25.6596 36.5047 25.1642 37 24.5532 37H23.4468C22.8358 37 22.3404 36.5047 22.3404 35.8936V34.5484C19.6426 33.778 17.3617 31.2598 17.3617 28.7021H20.6808C20.6808 29.7426 22.2885 31.4681 24 31.4681C25.6493 31.4681 27.3191 30.5181 27.3191 28.7021C27.3191 26.6608 25.531 25.9362 24 25.9362C20.7943 25.9362 17.3617 23.4911 17.3617 19.8511C17.3617 16.9065 19.4044 14.5765 22.3404 13.9393C22.3404 13.3536 22.3404 12.6959 22.3404 12.1064C22.3404 11.4953 22.8358 11 23.4468 11Z" stroke="black"/>
<path d="M31 35L36.2081 39.4069C36.9538 40.0378 38.0462 40.0378 38.7919 39.4069L44 35L40 35L40 26L35 26L35 35L31 35Z" stroke="black" stroke-linejoin="round"/>
<path d="M6 39L11.2081 43.4069C11.9538 44.0378 13.0462 44.0378 13.7919 43.4069L19 39L15 39L15 30L10 30L10 39L6 39Z" stroke="black" stroke-linejoin="round"/>
</svg>
