<svg width="48" height="48" viewBox="0 0 48 48" fill="none" xmlns="http://www.w3.org/2000/svg">
<path d="M35 29L39.4069 34.2081C40.0378 34.9538 40.0378 36.0462 39.4069 36.7919L35 42V38H26V33H35V29Z" stroke="black" stroke-linejoin="round"/>
<path d="M31.9739 33V10.9231L25.1242 4H9.71242C9.25826 4 8.8227 4.1945 8.50156 4.54073C8.18042 4.88695 8 5.35652 8 5.84615L8.02606 40.1538C8.02606 40.6435 8.20647 41.1131 8.52761 41.4593C8.84876 41.8055 9.28432 42 9.73848 42H30.2876C30.7417 42 31.1773 41.8055 31.4984 41.4593C31.8196 41.1131 32 40.6435 32 40.1538V38" stroke="black"/>
<path d="M25 4V9C25 10.1046 25.8954 11 27 11H32" stroke="black" stroke-linecap="round"/>
<rect x="11.5" y="14.5" width="17" height="2" rx="1" stroke="black"/>
<rect x="11.5" y="19.5" width="17" height="2" rx="1" stroke="black"/>
<rect x="11.5" y="24.5" width="17" height="2" rx="1" stroke="black"/>
<rect x="11.5" y="29.5" width="13" height="2" rx="1" stroke="black"/>
<rect x="11.5" y="34.5" width="10" height="2" rx="1" stroke="black"/>
</svg>
