<svg width="48" height="48" viewBox="0 0 48 48" fill="none" xmlns="http://www.w3.org/2000/svg">
<path d="M31.1871 42H9.73848C9.28432 42 8.84876 41.8055 8.52761 41.4593C8.20647 41.1131 8.02606 40.6435 8.02606 40.1538L8 5.84615C8 5.35652 8.18042 4.88695 8.50156 4.54073C8.8227 4.1945 9.25826 4 9.71242 4H25.1242L31.9739 10.9231V34" stroke="black"/>
<path d="M25 4V9C25 10.1046 25.8954 11 27 11H32" stroke="black" stroke-linecap="round"/>
<rect x="11.5" y="14.5" width="17" height="2" rx="1" stroke="black"/>
<rect x="11.5" y="19.5" width="17" height="2" rx="1" stroke="black"/>
<rect x="11.5" y="24.5" width="17" height="2" rx="1" stroke="black"/>
<rect x="11.5" y="29.5" width="17" height="2" rx="1" stroke="black"/>
<rect x="11.5" y="34.5" width="10" height="2" rx="1" stroke="black"/>
<path d="M38.6672 33.8891L40.0814 35.3033C40.2767 35.4986 40.2767 35.8151 40.0814 36.0104L37.6065 38.4853L40.0814 40.9602C40.2767 41.1554 40.2767 41.472 40.0814 41.6673L38.6672 43.0815C38.4719 43.2767 38.1554 43.2767 37.9601 43.0815L35.4852 40.6066L33.0104 43.0815C32.8151 43.2767 32.4985 43.2767 32.3032 43.0815L30.889 41.6673C30.6938 41.472 30.6938 41.1554 30.889 40.9602L33.3639 38.4853L30.889 36.0104C30.6938 35.8151 30.6938 35.4986 30.889 35.3033L32.3032 33.8891C32.4985 33.6938 32.8151 33.6938 33.0104 33.8891L35.4852 36.364L37.9601 33.8891C38.1554 33.6938 38.4719 33.6938 38.6672 33.8891Z" stroke="black"/>
</svg>
