<svg width="48" height="48" viewBox="0 0 48 48" fill="none" xmlns="http://www.w3.org/2000/svg">
<path d="M31.9739 22V10.9231L25.1242 4H9.71242C9.25826 4 8.8227 4.1945 8.50156 4.54073C8.18042 4.88695 8 5.35652 8 5.84615L8.02606 40.1538C8.02606 40.6435 8.20647 41.1131 8.52761 41.4593C8.84876 41.8055 9.28432 42 9.73848 42H30.2876C30.7417 42 31.1773 41.8055 31.4984 41.4593C31.8196 41.1131 32 40.6435 32 40.1538V36" stroke="black"/>
<path d="M25 4V9C25 10.1046 25.8954 11 27 11H32" stroke="black" stroke-linecap="round"/>
<rect x="11.5" y="13.5" width="17" height="2" rx="1" stroke="black"/>
<rect x="11.5" y="18.5" width="5" height="2" rx="1" stroke="black"/>
<rect x="11.5" y="23.5" width="3" height="2" rx="1" stroke="black"/>
<rect x="11.5" y="28.5" width="4" height="2" rx="1" stroke="black"/>
<rect x="11.5" y="33.5" width="6" height="2" rx="1" stroke="black"/>
<circle cx="25" cy="26" r="8" stroke="black"/>
<path d="M22 20.5343C22.7764 20.193 23.6591 20 24.5952 20C27.1606 20 29.3247 21.4493 30 23.4304M30.734 28.2754C30.4715 28.9252 30.0465 29.5115 29.5 30" stroke="black" stroke-linecap="round"/>
<path d="M31.0566 32.0396L32.1885 33.1432" stroke="black" stroke-linecap="round"/>
<rect x="30.839" y="34.6504" width="4" height="9.14503" rx="2" transform="rotate(-45 30.839 34.6504)" stroke="black"/>
</svg>
