<svg width="48" height="48" viewBox="0 0 48 48" fill="none" xmlns="http://www.w3.org/2000/svg">
<path d="M31.9739 36.5V10.9231L25.1242 4H9.71242C9.25826 4 8.8227 4.1945 8.50156 4.54073C8.18042 4.88695 8 5.35652 8 5.84615L8.02606 40.1538C8.02606 40.6435 8.20647 41.1131 8.52761 41.4593C8.84876 41.8055 9.28432 42 9.73848 42H30.2876C30.7417 42 31.1773 41.8055 31.4984 41.4593C31.8196 41.1131 32 40.6435 32 40.1538V39.5" stroke="black"/>
<path d="M25 4V9C25 10.1046 25.8954 11 27 11H32" stroke="black" stroke-linecap="round"/>
<rect x="11.5" y="14.5" width="17" height="2" rx="1" stroke="black"/>
<rect x="11.5" y="19.5" width="17" height="2" rx="1" stroke="black"/>
<rect x="11.5" y="24.5" width="17" height="2" rx="1" stroke="black"/>
<rect x="11.5" y="29.5" width="17" height="2" rx="1" stroke="black"/>
<rect x="11.5" y="34.5" width="10" height="2" rx="1" stroke="black"/>
<path d="M35 32.5H37C37.2761 32.5 37.5 32.7239 37.5 33V36.5H41C41.2761 36.5 41.5 36.7239 41.5 37V39C41.5 39.2761 41.2761 39.5 41 39.5H37.5V43C37.5 43.2761 37.2761 43.5 37 43.5H35C34.7239 43.5 34.5 43.2761 34.5 43V39.5H31C30.7239 39.5 30.5 39.2761 30.5 39V37C30.5 36.7239 30.7239 36.5 31 36.5H34.5V33C34.5 32.7239 34.7239 32.5 35 32.5Z" stroke="black"/>
</svg>
