<svg width="48" height="48" viewBox="0 0 48 48" fill="none" xmlns="http://www.w3.org/2000/svg">
<path d="M29 42H9.73848C9.28432 42 8.84876 41.8055 8.52761 41.4593C8.20647 41.1131 8.02606 40.6435 8.02606 40.1538L8 5.84615C8 5.35652 8.18042 4.88695 8.50156 4.54073C8.8227 4.1945 9.25826 4 9.71242 4H25.1242L31.9739 10.9231V38.5" stroke="black"/>
<path d="M25 4V9C25 10.1046 25.8954 11 27 11H32" stroke="black" stroke-linecap="round"/>
<rect x="11.5" y="14.5" width="17" height="2" rx="1" stroke="black"/>
<rect x="11.5" y="19.5" width="17" height="2" rx="1" stroke="black"/>
<rect x="11.5" y="24.5" width="17" height="2" rx="1" stroke="black"/>
<rect x="11.5" y="29.5" width="17" height="2" rx="1" stroke="black"/>
<rect x="11.5" y="34.5" width="10" height="2" rx="1" stroke="black"/>
<path d="M38.6719 31.7676C39.2577 31.1821 40.2073 31.1819 40.793 31.7676C41.3787 32.3533 41.3785 33.3029 40.793 33.8887L31.1611 43.5205C30.9659 43.7158 30.6494 43.7158 30.4541 43.5205L25.7676 38.835C25.1818 38.2492 25.1818 37.2987 25.7676 36.7129C26.3532 36.1273 27.3029 36.1275 27.8887 36.7129L30.8076 39.6318L38.6719 31.7676Z" stroke="black"/>
</svg>
