<svg width="48" height="48" viewBox="0 0 48 48" fill="none" xmlns="http://www.w3.org/2000/svg">
<path d="M40 34V12C40 9.79086 38.2091 8 36 8H8C5.79086 8 4 9.79086 4 12V36C4 38.2091 5.79086 40 8 40H28.5" stroke="black"/>
<path d="M9 22V36" stroke="black"/>
<path d="M19 22V36" stroke="black"/>
<path d="M31 22V36" stroke="black"/>
<path d="M12 22V36" stroke="black"/>
<path d="M22 22V36" stroke="black"/>
<path d="M34 22V30.5" stroke="black"/>
<path d="M15 22V36" stroke="black"/>
<path d="M25 22V36" stroke="black"/>
<path d="M28 22V36" stroke="black"/>
<path d="M16 22V36" stroke="black"/>
<path d="M35 22V29" stroke="black"/>
<path d="M27 22L27 36" stroke="black"/>
<path d="M13.2313 11.6289C13.2313 11.2813 12.95 11.0005 12.6031 11.0005L8 11.0009L10.9446 14.7693L13.1224 11.9819C13.1912 11.8814 13.2313 11.7603 13.2313 11.6289Z" fill="black"/>
<path d="M17.126 14.7299V14.7285L14.635 11.5512C14.4036 11.2301 14.0322 11.0181 13.6098 11.0033V11C13.6098 11 14.3035 11.4163 13.808 12.0427H13.8081L11.4948 15.0029L11.4925 14.9991L8.3678 18.9971L13.2611 19L13.6255 18.9872C14.0207 18.9698 14.3716 18.78 14.6032 18.4896L14.6077 18.4868L17.1149 15.2794V15.2765C17.1759 15.1991 17.2138 15.1028 17.2138 14.997C17.2138 14.8969 17.1808 14.8058 17.126 14.7299Z" fill="black"/>
<circle cx="32" cy="15" r="2.5" stroke="black"/>
<path d="M36 33V37" stroke="black" stroke-linecap="round"/>
<path d="M36 39V39.5" stroke="black" stroke-linecap="round"/>
<path d="M36 28.5C36.2178 28.5 36.4324 28.5567 36.6221 28.6641C36.8116 28.7714 36.9705 28.9258 37.082 29.1133L43.3252 39.6162C43.4381 39.8061 43.4986 40.0231 43.5 40.2441C43.5013 40.465 43.4434 40.6819 43.333 40.873C43.2225 41.0643 43.0634 41.2232 42.8721 41.333C42.7285 41.4154 42.5703 41.4679 42.4072 41.4893L42.2432 41.5H29.7568C29.5364 41.5 29.3192 41.4428 29.1279 41.333C28.9366 41.2232 28.7775 41.0643 28.667 40.873C28.5566 40.6819 28.4987 40.465 28.5 40.2441C28.5014 40.0231 28.5619 39.8061 28.6748 39.6162L34.918 29.1133C35.0295 28.9258 35.1884 28.7714 35.3779 28.6641C35.5676 28.5567 35.7822 28.5 36 28.5Z" stroke="black"/>
</svg>
