<svg width="48" height="48" viewBox="0 0 48 48" fill="none" xmlns="http://www.w3.org/2000/svg">
<path d="M23.6464 26.1722L24 26.5257L24.3536 26.1722L27.3131 23.2126C27.5084 23.0174 27.825 23.0174 28.0202 23.2126L30.2727 25.4651C30.4679 25.6603 30.4679 25.9769 30.2727 26.1722L27.3131 29.1317L26.9596 29.4853L27.3131 29.8389L30.2727 32.7984C30.4679 32.9937 30.4679 33.3103 30.2727 33.5055L28.0202 35.758C27.825 35.9532 27.5084 35.9532 27.3131 35.758L24.3536 32.7984L24 32.4449L23.6464 32.7984L20.6869 35.758C20.4916 35.9532 20.175 35.9532 19.9798 35.758L17.7273 33.5055C17.5321 33.3103 17.5321 32.9937 17.7273 32.7984L20.6869 29.8388L21.0404 29.4853L20.6869 29.1317L17.7273 26.1722C17.5321 25.9769 17.5321 25.6603 17.7273 25.4651L19.9798 23.2126C20.175 23.0174 20.4916 23.0174 20.6869 23.2126L23.6464 26.1722Z" stroke="black"/>
<path d="M6 18H42" stroke="black" stroke-linecap="round"/>
<rect x="31.5" y="6.5" width="2" height="5" rx="1" stroke="black"/>
<path d="M14.5 10H10C7.79086 10 6 11.7909 6 14V38C6 40.2091 7.79086 42 10 42H34.5H38C40.2091 42 42 40.2091 42 38V34V14C42 11.7909 40.2091 10 38 10H33.5M16.5 10H31.5" stroke="black"/>
<rect x="14.5" y="6.5" width="2" height="5" rx="1" stroke="black"/>
</svg>
