<svg width="48" height="48" viewBox="0 0 48 48" fill="none" xmlns="http://www.w3.org/2000/svg">
<path d="M24 15C21 15 15.5 15 11 18.5C6.5 22 2.5 30.5 5.5 37C7.5 38.2 10 39.1667 11 39.5L16 34H32L37 39.5C38 39.1667 40.5 38.2 42.5 37C45.5 30.5 41.5 22 37 18.5C32.5 15 27 15 24 15Z" stroke="black" stroke-linecap="round" stroke-linejoin="round"/>
<path d="M14 20.5H15C15.2761 20.5 15.5 20.7239 15.5 21V22.5H17C17.2761 22.5 17.5 22.7239 17.5 23V24C17.5 24.2761 17.2761 24.5 17 24.5H15.5V26C15.5 26.2761 15.2761 26.5 15 26.5H14C13.7239 26.5 13.5 26.2761 13.5 26V24.5H12C11.7239 24.5 11.5 24.2761 11.5 24V23C11.5 22.7239 11.7239 22.5 12 22.5H13.5V21C13.5 20.7239 13.7239 20.5 14 20.5Z" stroke="black"/>
<circle cx="33.5" cy="20.5" r="1" stroke="black"/>
<circle cx="33.5" cy="26.5" r="1" stroke="black"/>
<circle cx="36.5" cy="23.5" r="1" stroke="black"/>
<circle cx="30.5" cy="23.5" r="1" stroke="black"/>
<rect x="19.5" y="28.5" width="3" height="2" rx="1" stroke="black"/>
<path d="M25 15L25 14C25 13.4477 24.5523 13 24 13M23 15L23 14C23 13.4477 23.4477 13 24 13M24 13C24.3333 12.8333 24 10.5 22 10.5C20 10.5 20.5 8.5 20.5 8" stroke="black" stroke-linecap="round" stroke-linejoin="round"/>
<rect x="25.5" y="28.5" width="3" height="2" rx="1" stroke="black"/>
</svg>
