<svg width="48" height="48" viewBox="0 0 48 48" fill="none" xmlns="http://www.w3.org/2000/svg">
<circle cx="24" cy="15" r="2" stroke="black"/>
<path d="M24.6129 19.2261C25.2291 19.1087 25.8 19.5811 25.8 20.2085L25.8 31.3429H26C26.5523 31.3429 27 31.7906 27 32.3429V34C27 34.5523 26.5523 35 26 35H22C21.4477 35 21 34.5523 21 34V32.3429C21 31.7906 21.4477 31.3429 22 31.3429H22.2L22.2 23.4571C22.2 23.0153 21.8418 22.6571 21.4 22.6571C21.1791 22.6571 21 22.4781 21 22.2571V20.7418C21 20.2617 21.3412 19.8493 21.8129 19.7595L24.6129 19.2261Z" stroke="black"/>
<path d="M24 4.97559C34.5131 4.97583 43.0367 13.4986 43.0371 24.0117C43.0371 26.9467 42.3721 29.7261 41.1853 32.2085C40.1952 34.2794 39.6062 36.5842 40.09 38.8281L41 43.0488L34.6642 40.6907C34.095 40.4788 33.4633 40.5428 32.9271 40.8281C30.2645 42.2449 27.2263 43.0488 24 43.0488C13.4866 43.0486 4.96387 34.5252 4.96387 24.0117C4.96429 13.4986 13.4869 4.97583 24 4.97559Z" stroke="black"/>
</svg>
