<svg width="48" height="48" viewBox="0 0 48 48" fill="none" xmlns="http://www.w3.org/2000/svg">
<path d="M24 28H8C5.79086 28 4 26.2091 4 24V12C4 9.79086 5.79086 8 8 8H40C42.2091 8 44 9.79086 44 12V24C44 26.2091 42.2091 28 40 28H36.5" stroke="black"/>
<path d="M9 11V25" stroke="black"/>
<path d="M19 11V25" stroke="black"/>
<path d="M31 11V20" stroke="black"/>
<path d="M38 11V25" stroke="black"/>
<path d="M12 11V25" stroke="black"/>
<path d="M22 11V25" stroke="black"/>
<path d="M34 11V21" stroke="black"/>
<path d="M15 11V25" stroke="black"/>
<path d="M25 11V23" stroke="black"/>
<path d="M27 11V21" stroke="black"/>
<path d="M16 11V25" stroke="black"/>
<path d="M35 11V22" stroke="black"/>
<path d="M26 11V22" stroke="black"/>
<path d="M28 11V20" stroke="black"/>
<circle cx="30.2865" cy="26.2865" r="6.2865" stroke="black"/>
<path d="M28.3352 22.5348C28.919 22.2306 29.5827 22.0586 30.2866 22.0586C32.2155 22.0586 33.8427 23.3503 34.3505 25.1159M34.2896 27.6515C34.0922 28.2306 33.7727 28.7532 33.3618 29.1885" stroke="black" stroke-linecap="round"/>
<path d="M35.0566 31.0396L36.1885 32.1432" stroke="black" stroke-linecap="round"/>
<rect x="34.9775" y="33.7891" width="4" height="8.94893" rx="2" transform="rotate(-45 34.9775 33.7891)" stroke="black"/>
</svg>
