<svg width="48" height="48" viewBox="0 0 48 48" fill="none" xmlns="http://www.w3.org/2000/svg">
<rect x="7.94971" y="20.6777" width="18" height="12" rx="2" transform="rotate(-45 7.94971 20.6777)" stroke="black"/>
<path d="M19.9706 25.6274L25.6274 19.9706V19.9706C26.4085 20.7516 26.4085 22.018 25.6274 22.799L22.799 25.6274C22.018 26.4085 20.7516 26.4085 19.9706 25.6274V25.6274Z" stroke="black"/>
<rect x="36.9412" y="42.5981" width="8" height="2" rx="1" transform="rotate(-45 36.9412 42.5981)" stroke="black"/>
<path d="M22.799 25.6274L25.6274 22.799L41.1837 38.3554L38.3553 41.1838L22.799 25.6274Z" stroke="black"/>
<rect x="22.0919" y="9.36377" width="2" height="8" transform="rotate(-45 22.0919 9.36377)" stroke="black"/>
<rect x="7.94971" y="23.5059" width="2" height="8" transform="rotate(-45 7.94971 23.5059)" stroke="black"/>
<rect x="21.3848" y="5.82861" width="4" height="14" rx="2" transform="rotate(-45 21.3848 5.82861)" stroke="black"/>
<rect x="3" y="24.2134" width="4" height="14" rx="2" transform="rotate(-45 3 24.2134)" stroke="black"/>
<path d="M9 42C9 40.8954 9.89543 40 11 40H23C24.1046 40 25 40.8954 25 42V44H9V42Z" stroke="black"/>
<path d="M11 40C11 38.8954 11.8954 38 13 38H21C22.1046 38 23 38.8954 23 40V40H11V40Z" stroke="black"/>
<path d="M21.3848 18.5565C21.3848 18.5565 22.799 17.1423 21.3848 15.7281C19.9706 14.3138 18.5564 15.7281 18.5564 15.7281C18.5564 15.7281 17.1421 17.1423 18.5564 18.5565C19.9706 19.9707 18.5564 21.3849 18.5564 21.3849C18.5564 21.3849 17.1421 22.7991 15.7279 21.3849C14.3137 19.9707 15.7279 18.5565 15.7279 18.5565" stroke="black" stroke-linecap="round"/>
<path d="M22.0918 15.0207L21.3847 15.7278M15.7279 21.3847L15.0208 22.0918" stroke="black" stroke-linecap="round"/>
<path d="M24.9203 27.7485L26.3345 26.3343" stroke="black" stroke-linecap="round"/>
<path d="M28.4558 28.4561L29.87 27.0418" stroke="black" stroke-linecap="round"/>
<path d="M25 42H21" stroke="black" stroke-linecap="round"/>
<path d="M19 42L18 42" stroke="black" stroke-linecap="round"/>
</svg>
