<svg width="48" height="48" viewBox="0 0 48 48" fill="none" xmlns="http://www.w3.org/2000/svg">
<path d="M33.8293 10H34C35.1046 10 36 10.8954 36 12C36 13.1046 35.1046 14 34 14H10C8.89543 14 8 13.1046 8 12C8 10.8954 8.89543 10 10 10H10.1707C10.5825 8.83481 11.6938 8 13 8H31C32.3062 8 33.4175 8.83481 33.8293 10Z" stroke="black"/>
<path d="M34 36.8667V14H10V38C10 40.2091 11.7909 42 14 42H29" stroke="black"/>
<path d="M22 4C19.7909 4 18 5.79086 18 8H26C26 5.79086 24.2091 4 22 4Z" stroke="black"/>
<path d="M38.6719 31.7676C39.2577 31.1821 40.2073 31.1819 40.793 31.7676C41.3787 32.3533 41.3785 33.3029 40.793 33.8887L31.1611 43.5205C30.9659 43.7158 30.6494 43.7158 30.4541 43.5205L25.7676 38.835C25.1818 38.2492 25.1818 37.2987 25.7676 36.7129C26.3532 36.1273 27.3029 36.1275 27.8887 36.7129L30.8076 39.6318L38.6719 31.7676Z" stroke="black"/>
<path d="M16 39L16 17" stroke="black" stroke-linecap="round"/>
<path d="M28 36L28 34" stroke="black" stroke-linecap="round"/>
<path d="M28 32L28 17" stroke="black" stroke-linecap="round"/>
<path d="M22 35L22 27" stroke="black" stroke-linecap="round"/>
<path d="M22 39L22 37" stroke="black" stroke-linecap="round"/>
<path d="M22 25L22 17" stroke="black" stroke-linecap="round"/>
</svg>
