<svg width="48" height="48" viewBox="0 0 48 48" fill="none" xmlns="http://www.w3.org/2000/svg">
<rect x="4.5" y="8.5" width="39" height="29" rx="1.5" stroke="black"/>
<rect x="20.5" y="10.5" width="7" height="9" rx="0.5" stroke="black"/>
<rect x="6.5" y="10.5" width="10" height="5" rx="0.5" stroke="black"/>
<rect x="31.5" y="10.5" width="10" height="5" rx="0.5" stroke="black"/>
<rect x="6.5" y="18.5" width="10" height="5" rx="0.5" stroke="black"/>
<rect x="31.5" y="18.5" width="10" height="5" rx="0.5" stroke="black"/>
<rect x="6.5" y="26.5" width="10" height="9" rx="0.5" stroke="black"/>
<rect x="19.5" y="26.5" width="9" height="9" rx="0.5" stroke="black"/>
<rect x="31.5" y="26.5" width="10" height="9" rx="0.5" stroke="black"/>
<circle cx="24" cy="23" r="0.5" stroke="black"/>
<circle cx="34" cy="21" r="0.5" stroke="black"/>
<circle cx="34" cy="13" r="0.5" stroke="black"/>
<circle cx="34" cy="29" r="0.5" stroke="black"/>
<circle cx="22" cy="29" r="0.5" stroke="black"/>
<circle cx="9" cy="29" r="0.5" stroke="black"/>
<circle cx="9" cy="21" r="0.5" stroke="black"/>
<circle cx="9" cy="13" r="0.5" stroke="black"/>
<path d="M12 38C12 39.1046 11.1046 40 10 40C8.89543 40 8 39.1046 8 38" stroke="black"/>
<path d="M40 38C40 39.1046 39.1046 40 38 40C36.8954 40 36 39.1046 36 38" stroke="black"/>
</svg>
