<svg width="48" height="48" viewBox="0 0 48 48" fill="none" xmlns="http://www.w3.org/2000/svg">
<path d="M34.7717 35.6141L30.8298 37.5851L24.8944 40.5528C24.3314 40.8343 23.6686 40.8343 23.1056 40.5528L13.2283 35.6141M41 29.5V16.7361C41 15.9785 40.572 15.286 39.8944 14.9472L24.8944 7.44721C24.3314 7.16569 23.6686 7.16569 23.1056 7.44721L17.5 10.25L9 14.5L8.10557 14.9472C7.428 15.286 7 15.9785 7 16.7361V21.5V29.5" stroke="black"/>
<path d="M24 41V24.1M24 24.1L8 15.5M24 24.1L40 15.5" stroke="black"/>
<path d="M13.5 12L30.1538 20.6364V26.3726C30.1538 27.1182 30.9405 27.6016 31.6057 27.2647L33.9037 26.1007C34.5762 25.7601 35 25.0703 35 24.3165V18.1818L18.5 9.5" stroke="black"/>
<path d="M29.5 34.6948L29.5 32.02C29.5 31.7979 29.5881 31.5844 29.7451 31.4272C29.8826 31.2897 30.0631 31.2051 30.2549 31.186L30.3379 31.1821L39.7012 31.1821L39.7012 27.5376L43.5752 32.8647C43.679 33.0079 43.7354 33.1801 43.7354 33.3569C43.7354 33.5338 43.679 33.706 43.5752 33.8491L39.7012 39.1772L39.7012 35.5327L30.3379 35.5327C30.1158 35.5326 29.9022 35.4437 29.7451 35.2866C29.6079 35.1493 29.523 34.9693 29.5039 34.7778L29.5 34.6948Z" stroke="black"/>
<path d="M18.7351 32.0195L18.7351 34.6943C18.7351 34.9164 18.647 35.13 18.49 35.2871C18.3525 35.4246 18.172 35.5092 17.9802 35.5283L17.8972 35.5322L8.53394 35.5322L8.53393 39.1768L4.65991 33.8496C4.55606 33.7065 4.49976 33.5343 4.49976 33.3574C4.49976 33.1806 4.55606 33.0084 4.65991 32.8652L8.53394 27.5371L8.53394 31.1816L17.8972 31.1816C18.1193 31.1817 18.3329 31.2707 18.49 31.4277C18.6272 31.5651 18.7121 31.745 18.7312 31.9365L18.7351 32.0195Z" stroke="black"/>
</svg>
