<svg width="48" height="48" viewBox="0 0 48 48" fill="none" xmlns="http://www.w3.org/2000/svg">
<path d="M28 37H15.7644C14.6598 37 13.7644 36.1046 13.7644 35V30C13.7644 28.8954 14.6598 28 15.7644 28H28C29.1046 28 30 28.8954 30 30V33" stroke="black"/>
<path d="M36.2938 19L37.1173 33M35.9703 13.5C35.8547 11.5346 34.2271 10 32.2584 10H29.2644M7.55852 13.5C7.67413 11.5346 9.30168 10 11.2705 10H14.2644M7.23499 19L6.01352 39.7651C5.87837 42.0626 7.70512 44 10.0066 44H33.5222C35.8237 44 37.6504 42.0626 37.5153 39.7651L37.4115 38M26.7644 10H16.7644" stroke="black"/>
<path d="M27.7644 13H15.7644M30.2644 13H35.2644C36.369 13 37.2644 13.8954 37.2644 15V17C37.2644 18.1046 36.369 19 35.2644 19H30.7644M28.7644 19H14.7644M12.7644 19H8.2644C7.15983 19 6.2644 18.1046 6.2644 17V15C6.2644 13.8954 7.15983 13 8.2644 13H13.2644" stroke="black"/>
<path d="M12.2031 22.3162C11.9873 21.6687 12.4693 21 13.1518 21H14.377C15.0595 21 15.5415 21.6687 15.3257 22.3162L14.9923 23.3162C14.8562 23.7246 14.4741 24 14.0436 24H13.4852C13.0547 24 12.6726 23.7246 12.5365 23.3162L12.2031 22.3162Z" stroke="black"/>
<path d="M28.2031 22.3162C27.9873 21.6687 28.4693 21 29.1518 21H30.377C31.0595 21 31.5415 21.6687 31.3257 22.3162L30.9923 23.3162C30.8562 23.7246 30.4741 24 30.0436 24H29.4852C29.0547 24 28.6726 23.7246 28.5365 23.3162L28.2031 22.3162Z" stroke="black"/>
<path d="M14.7644 21C14.7644 21 14.7644 6 21.7644 6C28.7644 6 28.7644 21 28.7644 21" stroke="black"/>
<path d="M12.7644 21C12.7644 21 11.7643 4 21.7643 4C31.7644 4 30.7643 21 30.7643 21" stroke="black"/>
<path d="M6.2644 17H12.7644M37.2644 17H30.7644M28.2644 17H15.2644" stroke="black"/>
<path d="M6.2644 15H12.7644M37.2644 15H30.7644M28.2644 15H15.2644" stroke="black"/>
<path d="M39.5 29L43.9069 34.2081C44.5378 34.9538 44.5378 36.0462 43.9069 36.7919L39.5 42V38H32C27.5817 38 24 34.4183 24 30V28L25.2522 30.087C26.3365 31.8942 28.2896 33 30.3971 33H39.5V29Z" stroke="black" stroke-linejoin="round"/>
</svg>
