<svg width="48" height="48" viewBox="0 0 48 48" fill="none" xmlns="http://www.w3.org/2000/svg">
<rect x="16" y="28" width="16" height="9" rx="2" stroke="black"/>
<path d="M38.5294 19L39.7509 39.7651C39.886 42.0626 38.0593 44 35.7578 44H12.2422C9.94072 44 8.11396 42.0626 8.24911 39.7651L9.47059 19M38.2059 13.5C38.0903 11.5346 36.4627 10 34.494 10H31.5M9.79412 13.5C9.90973 11.5346 11.5373 10 13.5061 10H16.5M29 10H19" stroke="black"/>
<path d="M30 13H18M32.5 13H37.5C38.6046 13 39.5 13.8954 39.5 15V17C39.5 18.1046 38.6046 19 37.5 19H33M31 19H17M15 19H10.5C9.39543 19 8.5 18.1046 8.5 17V15C8.5 13.8954 9.39543 13 10.5 13H15.5" stroke="black"/>
<path d="M14.4387 22.3162C14.2229 21.6687 14.7049 21 15.3874 21H16.6126C17.2951 21 17.7771 21.6687 17.5613 22.3162L17.2279 23.3162C17.0918 23.7246 16.7097 24 16.2792 24H15.7208C15.2903 24 14.9082 23.7246 14.7721 23.3162L14.4387 22.3162Z" stroke="black"/>
<path d="M30.4387 22.3162C30.2229 21.6687 30.7049 21 31.3874 21H32.6126C33.2951 21 33.7771 21.6687 33.5613 22.3162L33.2279 23.3162C33.0918 23.7246 32.7097 24 32.2792 24H31.7208C31.2903 24 30.9082 23.7246 30.7721 23.3162L30.4387 22.3162Z" stroke="black"/>
<path d="M17 21C17 21 17 6 24 6C31 6 31 21 31 21" stroke="black"/>
<path d="M15 21C15 21 13.9998 4 23.9999 4C34 4 32.9999 21 32.9999 21" stroke="black"/>
<path d="M8.5 17H15M39.5 17H33M30.5 17H17.5" stroke="black"/>
<path d="M8.5 15H15M39.5 15H33M30.5 15H17.5" stroke="black"/>
</svg>
