<svg width="48" height="48" viewBox="0 0 48 48" fill="none" xmlns="http://www.w3.org/2000/svg">
<path d="M30 34.5V30C30 28.8954 29.1046 28 28 28H16C14.8954 28 14 28.8954 14 30V35C14 36.1046 14.8954 37 16 37H28" stroke="black"/>
<path d="M36.5294 19L37.3824 33.5M36.2059 13.5C36.0903 11.5346 34.4627 10 32.494 10H29.5M7.79412 13.5C7.90973 11.5346 9.53727 10 11.5061 10H14.5M7.47059 19L6.24911 39.7651C6.11396 42.0626 7.94072 44 10.2422 44H33.7578C36.0593 44 37.886 42.0626 37.7509 39.7651L37.6176 37.5M27 10H17" stroke="black"/>
<path d="M28 13H16M30.5 13H35.5C36.6046 13 37.5 13.8954 37.5 15V17C37.5 18.1046 36.6046 19 35.5 19H31M29 19H15M13 19H8.5C7.39543 19 6.5 18.1046 6.5 17V15C6.5 13.8954 7.39543 13 8.5 13H13.5" stroke="black"/>
<path d="M12.4387 22.3162C12.2229 21.6687 12.7049 21 13.3874 21H14.6126C15.2951 21 15.7771 21.6687 15.5613 22.3162L15.2279 23.3162C15.0918 23.7246 14.7097 24 14.2792 24H13.7208C13.2903 24 12.9082 23.7246 12.7721 23.3162L12.4387 22.3162Z" stroke="black"/>
<path d="M28.4387 22.3162C28.2229 21.6687 28.7049 21 29.3874 21H30.6126C31.2951 21 31.7771 21.6687 31.5613 22.3162L31.2279 23.3162C31.0918 23.7246 30.7097 24 30.2792 24H29.7208C29.2903 24 28.9082 23.7246 28.7721 23.3162L28.4387 22.3162Z" stroke="black"/>
<path d="M15 21C15 21 15 6 22 6C29 6 29 21 29 21" stroke="black"/>
<path d="M13 21C13 21 11.9998 4 21.9999 4C32 4 30.9999 21 30.9999 21" stroke="black"/>
<path d="M6.5 17H13M37.5 17H31M28.5 17H15.5" stroke="black"/>
<path d="M6.5 15H13M37.5 15H31M28.5 15H15.5" stroke="black"/>
<path d="M40.9355 29.7676C41.5213 29.1821 42.4709 29.1819 43.0566 29.7676C43.6423 30.3533 43.6422 31.3029 43.0566 31.8887L33.4248 41.5205C33.2295 41.7158 32.913 41.7158 32.7178 41.5205L28.0312 36.835C27.4455 36.2492 27.4455 35.2987 28.0312 34.7129C28.6169 34.1273 29.5666 34.1275 30.1523 34.7129L33.0713 37.6318L40.9355 29.7676Z" stroke="black"/>
</svg>
