<svg width="48" height="48" viewBox="0 0 48 48" fill="none" xmlns="http://www.w3.org/2000/svg">
<path d="M17.0002 35L6.71819 38.9547C6.41525 39.0712 6.08849 39.1122 5.76614 39.0743C5.44378 39.0363 5.13552 38.9204 4.86797 38.7366C4.60041 38.5529 4.3816 38.3067 4.23042 38.0195C4.07924 37.7323 4.00024 37.4126 4.00024 37.088V19.2797C4.00024 18.8977 4.10967 18.5236 4.31556 18.2018C4.52146 17.88 4.81522 17.6239 5.16209 17.4638L17.0002 12M17.0002 35V12M17.0002 35L30 40M17.0002 12L19.5 13.1729M30 40L42.6464 35.4705C43.0436 35.3282 43.3863 35.0716 43.6283 34.7354C43.8703 34.3991 44 33.9993 44 33.5896V15.0058C44 14.6716 43.9137 14.3427 43.7488 14.049C43.584 13.7553 43.3459 13.5061 43.0561 13.324C42.7664 13.1418 42.4341 13.0326 42.0897 13.0063C41.7452 12.9799 41.3993 13.0372 41.0835 13.1729L34.5 15.5M30 40V25" stroke="black"/>
<path d="M27 7.5C29.0008 7.5 30.8782 8.1459 32.2607 9.4248C33.6494 10.7095 34.5 12.5975 34.5 15C34.5 15.7903 34.1972 16.8044 33.7598 17.877C33.3159 18.9652 32.708 20.1727 32.0479 21.3711C30.7271 23.7685 29.1751 26.1645 28.2451 27.5566C28.1086 27.7617 27.9242 27.9305 27.707 28.0469C27.4897 28.1633 27.2465 28.2246 27 28.2246C26.7534 28.2246 26.5103 28.1633 26.293 28.0469C26.0759 27.9305 25.8904 27.7627 25.7539 27.5576V27.5566C24.8239 26.1644 23.2727 23.7683 21.9521 21.3711C21.292 20.1727 20.6841 18.9652 20.2402 17.877C19.8028 16.8044 19.5 15.7903 19.5 15C19.5 12.5975 20.3506 10.7095 21.7393 9.4248C23.1218 8.1459 24.9992 7.5 27 7.5ZM27.957 12.1904C27.5004 12.0013 26.9975 11.9515 26.5127 12.0479C26.0277 12.1443 25.5821 12.3828 25.2324 12.7324C24.8828 13.0821 24.6443 13.5277 24.5479 14.0127C24.4515 14.4975 24.5013 15.0004 24.6904 15.457C24.8797 15.9137 25.2003 16.3045 25.6113 16.5791C26.0224 16.8536 26.5057 17 27 17C27.663 17 28.2987 16.7364 28.7676 16.2676C29.2364 15.7987 29.5 15.163 29.5 14.5C29.5 14.0057 29.3536 13.5224 29.0791 13.1113C28.8045 12.7003 28.4137 12.3797 27.957 12.1904Z" stroke="black"/>
</svg>
