<svg width="48" height="48" viewBox="0 0 48 48" fill="none" xmlns="http://www.w3.org/2000/svg">
<path d="M6.12159 31.8879C4.95378 29.875 5.63889 27.2965 7.65183 26.1287V26.1287L11.8809 33.4182V33.4182C9.86791 34.586 7.2894 33.9009 6.12159 31.8879V31.8879Z" stroke="black"/>
<path d="M34.5508 15.3947C35.2514 16.6025 34.8404 18.1496 33.6326 18.8502V18.8502L31.0952 14.4765V14.4765C32.303 13.7759 33.8501 14.1869 34.5508 15.3947V15.3947Z" stroke="black"/>
<path d="M14.4017 19.2895L22.4223 7.08606C22.5929 6.8266 22.8215 6.6104 23.09 6.45459L23.8675 6.00354C24.8229 5.44925 26.0468 5.77443 26.6011 6.72986L38.1267 26.5964C38.681 27.5518 38.3558 28.7757 37.4004 29.33L36.6229 29.781C36.3543 29.9368 36.0532 30.028 35.7433 30.0472L21.1681 30.9528C21.1681 30.9528 19.8403 31.7231 16.0654 33.9131C14.4551 34.8473 12.3923 34.2992 11.458 32.6889L8.07482 26.8573C7.14057 25.2469 7.68866 23.1841 9.29902 22.2499C9.7168 22.0075 14.4257 19.331 14.4017 19.2895Z" stroke="black"/>
<path d="M36.2145 30.0181L22.8931 7.05615" stroke="black"/>
<path d="M20.6728 35.1372L18.9812 32.2214L15.3364 34.3359L19.4076 41.3534C19.9619 42.3088 21.1858 42.634 22.1412 42.0797L22.3261 41.9725C23.2815 41.4182 23.6067 40.1943 23.0524 39.2389L20.6728 35.1372ZM20.6728 35.1372L21.1297 34.8722C22.0851 34.3179 22.4103 33.094 21.856 32.1386L21.168 30.9527" stroke="black"/>
<path d="M37 13.3807L41.2866 10.9059" stroke="black" stroke-linecap="round"/>
<path d="M38 18.1331L42.908 18.7749" stroke="black" stroke-linecap="round"/>
<path d="M33.5657 10.6962L35.1303 6.00024" stroke="black" stroke-linecap="round"/>
<path d="M21 31L14 19.5" stroke="black" stroke-linecap="round"/>
</svg>
