<svg width="48" height="48" viewBox="0 0 48 48" fill="none" xmlns="http://www.w3.org/2000/svg">
<rect x="4.5" y="8.5" width="39" height="28" rx="3.5" stroke="black"/>
<rect x="6.5" y="10.5" width="35" height="23" rx="1.5" stroke="black"/>
<rect x="21.5" y="36.5" width="5" height="3" stroke="black"/>
<path d="M15 40L33 40" stroke="black" stroke-linecap="round" stroke-linejoin="round"/>
<path d="M23.5 35L24.5 35" stroke="black" stroke-linecap="round" stroke-linejoin="round"/>
<path d="M33.9 15H14.1C13.4925 15 13 15.4477 13 16V28C13 28.5523 13.4925 29 14.1 29H33.9C34.5075 29 35 28.5523 35 28V16C35 15.4477 34.5075 15 33.9 15Z" stroke="black"/>
<path d="M13 15L22.4907 22.4904C22.905 22.8185 23.4427 23 24.0001 23C24.5576 23 25.0953 22.8185 25.5096 22.4904L35 15" stroke="black"/>
<path d="M35 28L26.5385 22M13 28L21.4615 22" stroke="black"/>
</svg>
