<svg width="48" height="48" viewBox="0 0 48 48" fill="none" xmlns="http://www.w3.org/2000/svg">
<path d="M19 16H30.4115C31.1476 16 31.6315 16.7686 31.3132 17.4324L29.5512 21.107C28.9535 22.3533 27.7548 23.2028 26.3808 23.3536L20.4918 24" stroke="black" stroke-linecap="round"/>
<path d="M28 18L27.3226 20.76M24.3871 18V20.88M21 18L21.6774 21" stroke="black" stroke-linecap="round"/>
<circle cx="20" cy="29" r="1" stroke="black"/>
<circle cx="28" cy="29" r="1" stroke="black"/>
<path d="M16 13C17.0863 13 18.0199 13.7704 18.2262 14.8369L19.9567 23.7854C20.0079 24.0505 19.9498 24.325 19.7956 24.5466L19.2843 25.281C19.0535 25.6125 19.2907 26.0667 19.6946 26.0667H28.8628C29.3426 26.0667 29.6244 26.6062 29.3502 27" stroke="black" stroke-linecap="round"/>
<rect x="4" y="8" width="40" height="29" rx="4" stroke="black"/>
<rect x="21" y="37" width="6" height="3" stroke="black"/>
<path d="M15 40L33 40" stroke="black" stroke-linecap="round" stroke-linejoin="round"/>
<path d="M23.5 35L24.5 35" stroke="black" stroke-linecap="round" stroke-linejoin="round"/>
<rect x="6" y="10" width="36" height="23" rx="2" stroke="black"/>
</svg>
