<svg width="48" height="48" viewBox="0 0 48 48" fill="none" xmlns="http://www.w3.org/2000/svg">
<path d="M41.6041 33.5C43.1324 30.674 44 27.4383 44 24C44 12.9543 35.0457 4 24 4C12.9543 4 4 12.9543 4 24C4 35.0457 12.9543 44 24 44C28.5024 44 32.6574 42.5122 36 40.0015" stroke="black"/>
<path d="M37 9C36.3333 9.33333 34.7 10.6 35.5 11C36.5 11.5 37 12.5 36 13C35 13.5 33.5 15.5 34 15.5C34.5 15.5 31.5 16 32.5 16.5C33.5 17 35 17 35 17C35.1667 16.5 35.7 15.5 36.5 15.5C37.5 15.5 37.5 17 38 16.5C38.5 16 38 14.5 39 15.5C40 16.5 39.5 17 40.5 17C41.5 17 41 18.5 40.5 18.5C40 18.5 39.5 19.5 38.5 19C37.5 18.5 37.5 18 36 18C34.5 18 34 18.5 33 18.5C32 18.5 32.5 19 32 19.5C31.5 20 29.5 20 30 21C30.5 22 29.5 24 30.5 25C31.5 26 32.5 26 33.5 26C34.5 26 36.5 24.5 36.5 26.5C36.5 28.5 36.5 28 37.5 29C38.5 30 37 32.5 38 33.5C39 34.5 38 35 39 34.5" stroke="black" stroke-linejoin="round"/>
<path d="M32.5 12.4999C32.6667 12.1665 33.1 11.5999 33.5 11.9999" stroke="black" stroke-linecap="round" stroke-linejoin="round"/>
<path d="M15.5 9C15.5 9.5 17.1 9.1 17.5 9.5" stroke="black" stroke-linecap="round" stroke-linejoin="round"/>
<path d="M39.5 31L43.9069 36.2081C44.5378 36.9538 44.5378 38.0462 43.9069 38.7919L39.5 44V40H37C32.5817 40 29 36.4183 29 32V30L30.2522 32.087C31.3365 33.8942 33.2896 35 35.3971 35H39.5V31Z" stroke="black" stroke-linejoin="round"/>
<path d="M6 18C6.66667 19.5 8.2 22.4 9 22C10 21.5 9 22.5 11 23C13 23.5 16.5 24 16.5 26C16.5 28 14.5 28.5 16 30C17.5 31.5 18 32 18.5 34.5C19 37 20 42.5 21 43" stroke="black" stroke-linecap="round"/>
<path d="M23.5 43.5C23.3333 43.1667 23 42.4 23 42C23 41.5 22.5 42 22 41C21.5 40 20.5 40.5 22 39C23.5 37.5 25 36.5 25.5 35C26 33.5 27.2316 35.2816 27.6158 32.6408C28 30 29 28.9999 26.5 28.4999C24 27.9999 23.5 26.4999 23.5 25.9999C23.5 25.4999 22.5 24.9999 21 24.9999C19.5 24.9999 20.9105 24.5894 18.7053 24.7947C16.5 24.9999 15 24.0001 15.5 23.0001C16 22.0001 14 22.5001 13.5 22.0001C13 21.5001 11 20.0001 13.5 19.5001C16 19.0001 16.5 20.5001 17.5 18.0001C18.5 15.5001 19.0132 17.1395 19.7566 15.8198C20.5 14.5001 23.5 13 25.5 13C27.5 13 26 11.5 23 11C20 10.5 19.5 10.5 23.5 9.5C27.5 8.5 24 8 21.5 8C19.5 8 18.8035 6.33333 18.7053 5.5" stroke="black" stroke-linecap="round"/>
</svg>
