<svg width="48" height="48" viewBox="0 0 48 48" fill="none" xmlns="http://www.w3.org/2000/svg">
<path d="M19.5 19.5V25C19.5 25.5523 19.9477 26 20.5 26H22.5M28.5 19.5C28.5 21.3593 28.5 23.6964 28.5 25.0012C28.5 25.5534 28.0523 26 27.5 26L25.5 26M22.5 26V22C22.5 21.4477 22.9477 21 23.5 21H24.5C25.0523 21 25.5 21.4477 25.5 22V26M22.5 26H25.5" stroke="black"/>
<path d="M23.2929 15.7071L18.7071 20.2929C18.3166 20.6834 17.6834 20.6834 17.2929 20.2929L17.2071 20.2071C16.8166 19.8166 16.8166 19.1834 17.2071 18.7929L23.2929 12.7071C23.6834 12.3166 24.3166 12.3166 24.7071 12.7071L30.7929 18.7929C31.1834 19.1834 31.1834 19.8166 30.7929 20.2071L30.7071 20.2929C30.3166 20.6834 29.6834 20.6834 29.2929 20.2929L24.7071 15.7071C24.3166 15.3166 23.6834 15.3166 23.2929 15.7071Z" stroke="black"/>
<circle cx="24" cy="20" r="12.5" stroke="black"/>
<path d="M24 4.5C32.5673 4.5 39.5 11.3431 39.5 19.7686C39.4999 23.1176 38.3639 25.3656 36.4619 28.8535C35.5348 30.5536 33.3324 33.573 30.9785 36.4766C28.6212 39.3843 26.1688 42.105 24.7559 43.2334C24.3111 43.5884 23.6889 43.5884 23.2441 43.2334C21.8316 42.1053 19.3925 39.3851 17.041 36.4766C14.6944 33.5741 12.4896 30.5526 11.5342 28.8486C9.58444 25.371 8.5001 23.1193 8.5 19.7686C8.5 11.3431 15.4327 4.5 24 4.5Z" stroke="black"/>
</svg>
