<svg width="48" height="48" viewBox="0 0 48 48" fill="none" xmlns="http://www.w3.org/2000/svg">
<path d="M22.6347 33.5C21.9682 34.5583 21.3613 35.4967 20.8628 36.2566C20.7134 36.4852 20.5108 36.6727 20.273 36.8024C20.0352 36.9321 19.7697 37 19.5 37C19.2302 37 18.9647 36.9321 18.7269 36.8024C18.4892 36.6727 18.2865 36.4852 18.1371 36.2566C15.0917 31.6141 8 20.3096 8 15.7113C8 8.08966 13.2723 4 19.5 4C25.7277 4 31 8.08974 31 15.7113C31 17.0286 30.418 18.8963 29.5159 21M19.5 19.8939C18.5252 19.8939 17.5723 19.5995 16.7618 19.048C15.9513 18.4965 15.3196 17.7126 14.9466 16.7955C14.5736 15.8783 14.476 14.8692 14.6661 13.8956C14.8563 12.9219 15.3257 12.0276 16.015 11.3257C16.7042 10.6238 17.5824 10.1457 18.5385 9.95207C19.4945 9.75841 20.4855 9.8578 21.3861 10.2377C22.2867 10.6176 23.0564 11.2609 23.598 12.0863C24.1395 12.9117 24.4286 13.8821 24.4286 14.8747C24.4286 16.2059 23.9093 17.4825 22.985 18.4238C22.0607 19.3651 20.8071 19.8939 19.5 19.8939Z" stroke="black"/>
<path d="M36.0006 28.5005C36.0006 32.6426 32.6427 36.0005 28.5006 36.0005C24.3585 36.0005 21.0006 32.6426 21.0006 28.5005C21.0006 24.3584 24.3585 21.0005 28.5006 21.0005C32.6427 21.0005 36.0006 24.3584 36.0006 28.5005Z" stroke="black"/>
<path d="M26.0006 23.4814C26.7118 23.1742 27.5203 23.0005 28.3777 23.0005C30.7275 23.0005 32.7098 24.3049 33.3283 26.0878M34.0006 30.4484C33.7602 31.0332 33.3709 31.5609 32.8703 32.0005" stroke="black" stroke-linecap="round"/>
<path d="M34.0006 34.0005L35.0006 35.0005" stroke="black" stroke-linecap="round"/>
<rect x="33.6431" y="36.21" width="3.65393" height="8.35382" rx="1.82697" transform="rotate(-45 33.6431 36.21)" stroke="black"/>
<path d="M16.5 34H12.5352C12.2008 34 11.8886 34.1671 11.7031 34.4453L9.03647 38.4453C8.59343 39.1099 9.06982 40 9.86852 40H29.1958C29.9812 40 30.46 39.136 30.0438 38.47L28.5 36" stroke="black"/>
</svg>
