<svg width="48" height="48" viewBox="0 0 48 48" fill="none" xmlns="http://www.w3.org/2000/svg">
<path d="M16 16.154V23.4203C16 23.8005 16.2157 24.1479 16.5565 24.3165L23.5565 27.7805C23.836 27.9188 24.164 27.9188 24.4435 27.7805L31.4435 24.3165C31.7843 24.1479 32 23.8005 32 23.4203V16.154C32 15.7567 31.7648 15.3971 31.4008 15.2379L24.4008 12.1754C24.1453 12.0636 23.8547 12.0636 23.5992 12.1754L16.5992 15.2379C16.2352 15.3971 16 15.7567 16 16.154Z" stroke="black"/>
<path d="M24 28V19.5M24 19.5L16.5 16M24 19.5L31.5 16" stroke="black"/>
<path d="M28 21V17.5L20 14" stroke="black" stroke-linecap="round"/>
<circle cx="24" cy="20" r="12.5" stroke="black"/>
<path d="M24 4.5C32.5673 4.5 39.5 11.3431 39.5 19.7686C39.4999 23.1176 38.3639 25.3656 36.4619 28.8535C35.5348 30.5536 33.3324 33.573 30.9785 36.4766C28.6212 39.3843 26.1688 42.105 24.7559 43.2334C24.3111 43.5884 23.6889 43.5884 23.2441 43.2334C21.8316 42.1053 19.3925 39.3851 17.041 36.4766C14.6944 33.5741 12.4896 30.5526 11.5342 28.8486C9.58444 25.371 8.5001 23.1193 8.5 19.7686C8.5 11.3431 15.4327 4.5 24 4.5Z" stroke="black"/>
</svg>
