<svg width="48" height="48" viewBox="0 0 48 48" fill="none" xmlns="http://www.w3.org/2000/svg">
<path d="M28.1225 14.6125C28.1225 14.2738 27.8485 14 27.5107 14H23.0282L25.8959 17.6731L28.0163 14.9569C28.0832 14.8585 28.1225 14.7402 28.1225 14.6125Z" fill="black"/>
<path d="M31.9144 17.6356V17.6339L29.4887 14.537C29.2637 14.2242 28.9016 14.0176 28.4908 14.0032V14C28.4908 14 29.1663 14.4052 28.6835 15.0161H28.6839L26.4316 17.9009L26.4288 17.8973L23.3871 21.7946L28.1506 21.7965L28.5063 21.7845C28.8921 21.7678 29.2329 21.5828 29.4579 21.2995L29.4625 21.2974L31.9032 18.1712V18.1679C31.9627 18.0928 32 17.9986 32 17.8951C32 17.7977 31.9677 17.7088 31.9144 17.6356Z" fill="black"/>
<path d="M19.878 25.0917C19.878 25.4299 20.1518 25.7041 20.4899 25.7041L24.9715 25.7038L22.1046 22.031L19.9838 24.7469H19.984C19.9167 24.8456 19.878 24.9636 19.878 25.0917Z" fill="black"/>
<path d="M16.086 22.0684V22.0704L18.5114 25.1673C18.7364 25.4798 19.0983 25.6863 19.5096 25.701V25.7042C19.5096 25.7042 18.8335 25.2987 19.3167 24.6878L21.5688 21.803L21.5713 21.8066L24.6136 17.9097L19.8495 17.9077L19.4942 17.9198C19.1084 17.9362 18.7671 18.1215 18.5425 18.4045L18.538 18.4068L16.097 21.533V21.536C16.0374 21.6115 16 21.7053 16 21.8089C16 21.9063 16.0328 21.9952 16.086 22.0684Z" fill="black"/>
<circle cx="24" cy="20" r="12.5" stroke="black"/>
<path d="M24 4.5C32.5673 4.5 39.5 11.3431 39.5 19.7686C39.4999 23.1176 38.3639 25.3656 36.4619 28.8535C35.5348 30.5536 33.3324 33.573 30.9785 36.4766C28.6212 39.3843 26.1688 42.105 24.7559 43.2334C24.3111 43.5884 23.6889 43.5884 23.2441 43.2334C21.8316 42.1053 19.3925 39.3851 17.041 36.4766C14.6944 33.5741 12.4896 30.5526 11.5342 28.8486C9.58444 25.371 8.5001 23.1193 8.5 19.7686C8.5 11.3431 15.4327 4.5 24 4.5Z" stroke="black"/>
</svg>
