<svg width="48" height="48" viewBox="0 0 48 48" fill="none" xmlns="http://www.w3.org/2000/svg">
<path d="M44 32V16.7361C44 15.9785 43.572 15.286 42.8944 14.9472L27.8944 7.44721C27.3314 7.16569 26.6686 7.16569 26.1056 7.44721L11.1056 14.9472C10.428 15.286 10 15.9785 10 16.7361V31.2639C10 32.0215 10.428 32.714 11.1056 33.0528L26.0613 40.5307C26.6491 40.8245 27.3438 40.8109 27.9196 40.4942L37 35.5" stroke="black" stroke-linecap="round" stroke-linejoin="round"/>
<path d="M27 41V24.1M27 24.1L11 15.5M27 24.1L43 15.5" stroke="black"/>
<path d="M16.5 12L33.1538 20.6364V26.3726C33.1538 27.1182 33.9405 27.6016 34.6057 27.2647L36.9037 26.1007C37.5762 25.7601 38 25.0703 38 24.3165V18.1818L21.5 9.5" stroke="black"/>
<path d="M15 22L5 22" stroke="black" stroke-linecap="round"/>
<path d="M15 30L7 30" stroke="black" stroke-linecap="round"/>
<path d="M18 26L9 26" stroke="black" stroke-linecap="round"/>
<path d="M6 26H4" stroke="black" stroke-linecap="round"/>
<path d="M42.6673 30.8891L44.0815 32.3033C44.2768 32.4986 44.2768 32.8151 44.0815 33.0104L41.6067 35.4853L44.0815 37.9602C44.2768 38.1554 44.2768 38.472 44.0815 38.6673L42.6673 40.0815C42.4721 40.2767 42.1555 40.2767 41.9602 40.0815L39.4854 37.6066L37.0105 40.0815C36.8152 40.2767 36.4986 40.2767 36.3034 40.0815L34.8892 38.6673C34.6939 38.472 34.6939 38.1554 34.8892 37.9602L37.364 35.4853L34.8892 33.0104C34.6939 32.8151 34.6939 32.4986 34.8892 32.3033L36.3034 30.8891C36.4986 30.6938 36.8152 30.6938 37.0105 30.8891L39.4854 33.364L41.9602 30.8891C42.1555 30.6938 42.4721 30.6938 42.6673 30.8891Z" stroke="black"/>
</svg>
