<svg width="48" height="48" viewBox="0 0 48 48" fill="none" xmlns="http://www.w3.org/2000/svg">
<path d="M18.8 8H15C12.7909 8 11 9.79086 11 12V40C11 42.2091 12.7909 44 15 44H33C35.2091 44 37 42.2091 37 40V12C37 9.79086 35.2091 8 33 8H29.5" stroke="black"/>
<path d="M18.5 10H15C13.8954 10 13 10.8954 13 12V40C13 41.1046 13.8954 42 15 42H33C34.1046 42 35 41.1046 35 40V12C35 10.8954 34.1046 10 33 10H29.5" stroke="black"/>
<rect x="18.5" y="6.5" width="11" height="5" rx="1.5" stroke="black"/>
<path d="M24 4C22.5 4 21 5 21 6.5H27C27 5 25.5 4 24 4Z" stroke="black"/>
<path d="M29.6719 20.7676C30.2577 20.1821 31.2073 20.1819 31.793 20.7676C32.3787 21.3533 32.3785 22.3029 31.793 22.8887L22.1611 32.5205C21.9659 32.7158 21.6494 32.7158 21.4541 32.5205L16.7676 27.835C16.1818 27.2492 16.1818 26.2987 16.7676 25.7129C17.3532 25.1273 18.3029 25.1275 18.8887 25.7129L21.8076 28.6318L29.6719 20.7676Z" stroke="black"/>
</svg>
