<svg width="48" height="48" viewBox="0 0 48 48" fill="none" xmlns="http://www.w3.org/2000/svg">
<path d="M7.99999 8.5C7.99999 8.5 3.99998 40 24 44C44 40 40 8.5 40 8.5C35 8.5 32 8 24 4C16 8 13 8.5 7.99999 8.5Z" stroke="black" stroke-linecap="round"/>
<path d="M23.9999 6C24.4858 6.36438 24.9864 6.70664 25.4999 7.02676M23.9999 42C24.7 41.7941 25.3661 41.5518 25.9999 41.2763M27.9999 40.2372C40.5004 32.5872 37.9999 10.5 37.9999 10.5C36.3206 10.5 34.6413 10.3308 32.9999 9.99239M32.9999 9.99239C32.326 9.85345 31.6585 9.68599 30.9999 9.49M32.9999 9.99239L30.9999 9.49M30.9999 9.49C29.9748 9.18491 28.9715 8.8107 27.9999 8.36737" stroke="black" stroke-linecap="round"/>
<path d="M29.6719 17.7676C30.2577 17.1821 31.2073 17.1819 31.793 17.7676C32.3787 18.3533 32.3785 19.3029 31.793 19.8887L22.1611 29.5205C21.9659 29.7158 21.6494 29.7158 21.4541 29.5205L16.7676 24.835C16.1818 24.2492 16.1818 23.2987 16.7676 22.7129C17.3532 22.1273 18.3029 22.1275 18.8887 22.7129L21.8076 25.6318L29.6719 17.7676Z" stroke="black"/>
</svg>
