<svg width="48" height="48" viewBox="0 0 48 48" fill="none" xmlns="http://www.w3.org/2000/svg">
<path d="M7.99999 8.5C7.99999 8.5 3.99998 40 24 44C44 40 40 8.5 40 8.5C35 8.5 32 8 24 4C16 8 13 8.5 7.99999 8.5Z" stroke="black" stroke-linecap="round"/>
<rect x="17.5" y="20.5" width="13" height="11" rx="1.5" stroke="black"/>
<path d="M24 14.5C26.4853 14.5 28.5 16.5147 28.5 19V20.5H19.5V19C19.5 16.5147 21.5147 14.5 24 14.5Z" stroke="black"/>
<circle cx="24" cy="25" r="1" fill="black" stroke="black"/>
<path d="M24 26V28" stroke="black" stroke-linecap="round"/>
<path d="M23.9999 6C24.4858 6.36438 24.9864 6.70664 25.4999 7.02676M23.9999 42C24.7 41.7941 25.3661 41.5518 25.9999 41.2763M27.9999 40.2372C40.5004 32.5872 37.9999 10.5 37.9999 10.5C36.3206 10.5 34.6413 10.3308 32.9999 9.99239M32.9999 9.99239C32.326 9.85345 31.6585 9.68599 30.9999 9.49M32.9999 9.99239L30.9999 9.49M30.9999 9.49C29.9748 9.18491 28.9715 8.8107 27.9999 8.36737" stroke="black" stroke-linecap="round"/>
</svg>
