<svg width="48" height="48" viewBox="0 0 48 48" fill="none" xmlns="http://www.w3.org/2000/svg">
<path d="M26.2084 34.1186L21.3836 36.531C20.8205 36.8126 20.1578 36.8126 19.5947 36.531L5.1056 29.2865C4.42803 28.9477 4.00002 28.2552 4.00002 27.4976V13.4806C4.00002 12.7231 4.42803 12.0306 5.10559 11.6918L19.5947 4.44721C20.1578 4.16569 20.8205 4.16569 21.3836 4.44721L35.8727 11.6918C36.5503 12.0306 36.9783 12.7231 36.9783 13.4806V27.4976C36.9783 28.2552 36.5502 28.9477 35.8726 29.2865C35.3364 29.5546 34.8365 29.8046 34.3552 30.0452" stroke="black"/>
<path d="M20.4891 36.9783V20.5862M20.4891 20.5862L36.0083 12.2446M20.4891 20.5862L4.96995 12.2446" stroke="black"/>
<path d="M30.6736 8.84968L14.5202 17.2265V22.7414C14.5202 23.4871 13.7336 23.9704 13.0684 23.6335L10.916 22.5433C10.2435 22.2027 9.81969 21.513 9.81969 20.7592V14.8457L25.8238 6.4248" stroke="black"/>
<circle cx="28.1526" cy="28.2284" r="6.2865" stroke="black"/>
<path d="M26.2013 24.4762C26.7851 24.172 27.4488 24 28.1526 24C30.0816 24 31.7088 25.2917 32.2166 27.0573M32.1557 29.5929C31.9583 30.172 31.6388 30.6946 31.2279 31.1299" stroke="black" stroke-linecap="round"/>
<path d="M32.9227 32.981L34.0546 34.0846" stroke="black" stroke-linecap="round"/>
<rect x="32.8436" y="35.7305" width="4" height="8.94893" rx="2" transform="rotate(-45 32.8436 35.7305)" stroke="black"/>
</svg>
