<svg width="48" height="48" viewBox="0 0 48 48" fill="none" xmlns="http://www.w3.org/2000/svg">
<path d="M37 29.9999V35.9999L24.6632 39.761C22.9315 40.1939 21.1049 40.0353 19.4738 39.3104L5.12647 32.9338C4.97981 32.8686 4.84788 32.7744 4.73864 32.6568C4.62941 32.5392 4.54515 32.4007 4.49094 32.2497C4.43673 32.0986 4.4137 31.9381 4.42325 31.7779C4.44936 31.3397 4.7321 30.935 5.13468 30.7598C5.3901 30.6486 5.67648 30.6308 5.94372 30.7094L18.4001 34.373C20.5544 35.0066 22.7184 35.2212 24.9139 34.5939L29 32.9999L24.5888 34.0579C22.8903 34.3006 19.4185 34.1732 18.6725 32.1748C18.497 31.7047 18.5062 31.1856 18.6982 30.722C18.791 30.6291 18.9013 30.5555 19.0226 30.5052C19.144 30.4549 19.274 30.4291 19.4054 30.4291H22.604C24.1789 30.4291 25.7374 30.1092 27.185 29.4888L30.279 28.1628C30.8152 27.933 31.3951 27.8232 31.9782 27.8413C32.5613 27.8593 33.1333 28.0046 33.6543 28.2671L37 29.9999Z" stroke="black" stroke-linejoin="round"/>
<path d="M39 37H38C37.7348 37 37.4804 36.8946 37.2929 36.7071C37.1054 36.5196 37 36.2652 37 36V30C37 29.7348 37.1054 29.4804 37.2929 29.2929C37.4804 29.1054 37.7348 29 38 29H39V37Z" stroke="black"/>
<path d="M40 38H43C43.5523 38 44 37.5523 44 37V29C44 28.4477 43.5523 28 43 28H40C39.4477 28 39 28.4477 39 29V37C39 37.5523 39.4477 38 40 38Z" stroke="black"/>
<path d="M37 29.5V16.4861C37 15.7285 36.572 15.036 35.8944 14.6972L23.3944 8.44721C22.8314 8.16569 22.1686 8.16569 21.6056 8.44721L9.10557 14.6972C8.42801 15.036 8 15.7285 8 16.4861V31" stroke="black"/>
<path d="M22.5 30.5V23M22.5 23L36.5 15.5M22.5 23L8.5 15.5" stroke="black"/>
<path d="M31.5 12.5001L17.0572 20.1229V24.3482C17.0572 25.0997 16.2595 25.5826 15.5936 25.2343L14.0728 24.4385C13.4133 24.0935 13 23.4107 13 22.6664V18.0001L27.314 10.3379" stroke="black"/>
</svg>
