<svg width="48" height="48" viewBox="0 0 48 48" fill="none" xmlns="http://www.w3.org/2000/svg">
<path d="M9.5498 4.5C9.78142 5.64114 10.7905 6.5 12 6.5C13.2095 6.5 14.2186 5.64114 14.4502 4.5H15.5498C15.7814 5.64114 16.7905 6.5 18 6.5C19.2095 6.5 20.2186 5.64114 20.4502 4.5H21.5498C21.7814 5.64114 22.7905 6.5 24 6.5C25.2095 6.5 26.2186 5.64114 26.4502 4.5H27.5498C27.7814 5.64114 28.7905 6.5 30 6.5C31.2095 6.5 32.2186 5.64114 32.4502 4.5H33.5498C33.7814 5.64114 34.7905 6.5 36 6.5C37.2095 6.5 38.2186 5.64114 38.4502 4.5H39.5V6.5498C38.3589 6.78142 37.5 7.79051 37.5 9C37.5 10.2094 38.359 11.2175 39.5 11.4492V12.5498C38.3589 12.7814 37.5 13.7905 37.5 15C37.5 16.2094 38.359 17.2175 39.5 17.4492V18.5498C38.3589 18.7814 37.5 19.7905 37.5 21C37.5 22.2094 38.359 23.2175 39.5 23.4492V24.5498C38.3589 24.7814 37.5 25.7905 37.5 27C37.5 28.2094 38.359 29.2175 39.5 29.4492V30.5498C38.3589 30.7814 37.5 31.7905 37.5 33C37.5 34.2094 38.359 35.2175 39.5 35.4492V36.5498C38.3589 36.7814 37.5 37.7905 37.5 39C37.5 40.2094 38.359 41.2175 39.5 41.4492V43.5H38.4502C38.2186 42.3589 37.2095 41.5 36 41.5C34.7905 41.5 33.7814 42.3589 33.5498 43.5H32.4502C32.2186 42.3589 31.2095 41.5 30 41.5C28.7905 41.5 27.7814 42.3589 27.5498 43.5H26.4502C26.2186 42.3589 25.2095 41.5 24 41.5C22.7905 41.5 21.7814 42.3589 21.5498 43.5H20.4502C20.2186 42.3589 19.2095 41.5 18 41.5C16.7905 41.5 15.7814 42.3589 15.5498 43.5H14.4502C14.2186 42.3589 13.2095 41.5 12 41.5C10.7905 41.5 9.78142 42.3589 9.5498 43.5H8.5V41.4492C9.64105 41.2175 10.5 40.2094 10.5 39C10.5 37.7905 9.64114 36.7814 8.5 36.5498V35.4492C9.64105 35.2175 10.5 34.2094 10.5 33C10.5 31.7905 9.64114 30.7814 8.5 30.5498V29.4492C9.64104 29.2175 10.5 28.2094 10.5 27C10.5 25.7905 9.64114 24.7814 8.5 24.5498V23.4492C9.64104 23.2175 10.5 22.2094 10.5 21C10.5 19.7905 9.64114 18.7814 8.5 18.5498V17.4492C9.64105 17.2175 10.5 16.2094 10.5 15C10.5 13.7905 9.64114 12.7814 8.5 12.5498V11.4492C9.64105 11.2175 10.5 10.2094 10.5 9C10.5 7.79051 9.64114 6.78142 8.5 6.5498V4.5H9.5498Z" stroke="black"/>
<rect x="13.5" y="9.5" width="21" height="29" rx="1.5" stroke="black"/>
<path d="M21 12.5C21 12.5 24.2812 11.375 28.5 12.5C32.7188 13.625 36 12.5 36 12.5" stroke="black" stroke-linecap="round"/>
<path d="M21 15.5C21 15.5 24.2812 14.375 28.5 15.5C32.7188 16.625 36 15.5 36 15.5" stroke="black" stroke-linecap="round"/>
<path d="M9.9884 25.5C11.1024 25.1745 12.2808 25 13.5 25C20.4036 25 26 30.5964 26 37.5C26 38.8989 25.7702 40.2441 25.3463 41.5" stroke="black"/>
</svg>
