<svg width="48" height="48" viewBox="0 0 48 48" fill="none" xmlns="http://www.w3.org/2000/svg">
<rect x="34.5" y="4.5" width="39" height="21" rx="3.5" transform="rotate(90 34.5 4.5)" stroke="black"/>
<path d="M29.5 4.5V5C29.5 5.82843 28.8284 6.5 28 6.5H20C19.1716 6.5 18.5 5.82843 18.5 5V4.5H29.5Z" stroke="black"/>
<path d="M20 41H28" stroke="black" stroke-linecap="round" stroke-linejoin="round"/>
<path d="M17 18V33C17 34.1046 17.8954 35 19 35H29C30.1046 35 31 34.1046 31 33V20.7938C31 20.284 30.8053 19.7933 30.4556 19.4222L27.8229 16.6284C27.445 16.2274 26.9184 16 26.3673 16H19C17.8954 16 17 16.8954 17 18Z" stroke="black"/>
<rect x="20" y="22" width="8" height="10" rx="2" stroke="black"/>
<path d="M25.5 22.5V32M22.5 22.5V32" stroke="black"/>
<path d="M25.5 25H22.5" stroke="black"/>
<path d="M23 27H20" stroke="black"/>
<path d="M28 27H25" stroke="black"/>
<path d="M25.5 29H22.5" stroke="black"/>
</svg>
