<svg width="48" height="48" viewBox="0 0 48 48" fill="none" xmlns="http://www.w3.org/2000/svg">
<rect x="34.5" y="4.5" width="39" height="21" rx="3.5" transform="rotate(90 34.5 4.5)" stroke="black"/>
<path d="M29.5 4.5V5C29.5 5.82843 28.8284 6.5 28 6.5H20C19.1716 6.5 18.5 5.82843 18.5 5V4.5H29.5Z" stroke="black"/>
<path d="M20 41H28" stroke="black" stroke-linecap="round" stroke-linejoin="round"/>
<path d="M28.1224 18.188C28.1224 17.8496 27.8485 17.5762 27.5108 17.5762L23.0289 17.5766L25.896 21.2458L28.0164 18.5317C28.0834 18.4339 28.1224 18.3159 28.1224 18.188Z" fill="black"/>
<path d="M31.9145 21.2079V21.2064L29.4891 18.1129C29.2638 17.8002 28.9022 17.5938 28.4909 17.5793V17.5762C28.4909 17.5762 29.1664 17.9815 28.6839 18.5914H28.684L26.4317 21.4736L26.4293 21.4699L23.387 25.3626L28.1513 25.3655L28.5062 25.353C28.891 25.3361 29.2327 25.1513 29.4581 24.8686L29.4625 24.8658L31.9037 21.7428V21.74C31.963 21.6647 32 21.5709 32 21.4679C32 21.3704 31.9678 21.2817 31.9145 21.2079Z" fill="black"/>
<path d="M19.8774 28.6568C19.8774 28.9947 20.1518 29.2691 20.4896 29.2691L24.9714 29.2683L22.1044 25.5996L19.9839 28.3129C19.9171 28.4109 19.8774 28.5291 19.8774 28.6568Z" fill="black"/>
<path d="M16.0856 25.6366V25.6391L18.5114 28.7324C18.7367 29.0455 19.0984 29.2517 19.5094 29.2653V29.2693C19.5094 29.2693 18.8336 28.8638 19.3165 28.2537L19.3161 28.2532L21.5687 25.3716L21.5715 25.3751L24.6133 21.482L19.8491 21.48L19.4937 21.4922C19.1086 21.5088 18.7674 21.6939 18.542 21.9768L18.5385 21.9786L16.0968 25.1017V25.1046C16.0373 25.1801 16 25.2735 16 25.3775C16 25.4743 16.0327 25.5639 16.0856 25.6366Z" fill="black"/>
</svg>
