<svg width="48" height="48" viewBox="0 0 48 48" fill="none" xmlns="http://www.w3.org/2000/svg">
<path d="M13 26C16 38 32 38 35 26" stroke="black" stroke-linecap="round"/>
<circle cx="24" cy="24" r="18.5" stroke="black"/>
<path d="M19 16.5C19.3331 16.5 19.6957 16.7027 19.998 17.1562C20.298 17.6063 20.5 18.2566 20.5 19C20.5 19.7434 20.298 20.3937 19.998 20.8438C19.6957 21.2973 19.3331 21.5 19 21.5C18.6669 21.5 18.3043 21.2973 18.002 20.8438C17.702 20.3937 17.5 19.7434 17.5 19C17.5 18.2566 17.702 17.6063 18.002 17.1562C18.3043 16.7027 18.6669 16.5 19 16.5Z" stroke="black"/>
<path d="M29 16.5C29.3331 16.5 29.6957 16.7027 29.998 17.1562C30.298 17.6063 30.5 18.2566 30.5 19C30.5 19.7434 30.298 20.3937 29.998 20.8438C29.6957 21.2973 29.3331 21.5 29 21.5C28.6669 21.5 28.3043 21.2973 28.002 20.8438C27.702 20.3937 27.5 19.7434 27.5 19C27.5 18.2566 27.702 17.6063 28.002 17.1562C28.3043 16.7027 28.6669 16.5 29 16.5Z" stroke="black"/>
</svg>
