<svg width="48" height="48" viewBox="0 0 48 48" fill="none" xmlns="http://www.w3.org/2000/svg">
<path d="M21.0117 6.91309C20.9969 6.59686 21.0457 6.2804 21.1553 5.9834C21.2649 5.68636 21.4337 5.41444 21.6504 5.18359C21.867 4.95284 22.1276 4.76778 22.417 4.63965C22.7019 4.51354 23.0089 4.44462 23.3203 4.4375C24.4754 4.48168 25.4735 5.62156 25.4736 7.06152V16.6279C25.4738 16.9034 25.6972 17.1271 25.9727 17.1279C26.2481 17.1287 26.4719 16.9063 26.4736 16.6309C26.4805 15.3878 26.4993 12.9872 26.5283 10.8643C26.5428 9.80267 26.5602 8.81176 26.5801 8.07031C26.5901 7.6993 26.6003 7.39371 26.6113 7.17383C26.6169 7.06329 26.6227 6.97847 26.6279 6.91992C26.6292 6.90611 26.6299 6.89478 26.6309 6.88574C26.7405 6.60221 26.9031 6.34195 27.1113 6.12012C27.328 5.88927 27.5894 5.70432 27.8789 5.57617C28.1638 5.45007 28.4708 5.3811 28.7822 5.37402C29.9373 5.41833 30.9355 6.55893 30.9355 7.99902V20.9824L30.7998 23.2158C30.7864 23.4353 30.918 23.6379 31.124 23.7148C31.3299 23.7916 31.5616 23.7251 31.6953 23.5508C32.606 22.3612 33.9071 21.039 35.3447 20.4639C36.9045 19.8399 38.1034 19.8923 38.7578 20.2607C39.0717 20.4374 39.2679 20.6879 39.3516 21.001C39.4258 21.2788 39.4195 21.6417 39.2744 22.0918C37.7145 22.5822 36.548 23.6663 35.6211 24.9404C34.6481 26.278 33.9059 27.8714 33.2412 29.2959C32.7556 30.3365 32.3157 31.2779 31.8486 32.0205C31.3753 32.773 30.9265 33.233 30.4668 33.4121C30.4129 33.4331 30.3646 33.4634 30.3223 33.5H29.9902L16.7812 33.499C15.1693 32.5294 13.587 30.6485 12.1113 27.2988L12.1025 27.2803L11.8662 26.7627C11.4201 25.7166 11.1395 24.6072 11.0361 23.4746L11 22.9062V16C11 14.8874 11.7313 14.001 12.5918 13.9033C12.8497 13.8907 13.1073 13.9316 13.3486 14.0234C13.5939 14.1168 13.8169 14.2602 14.0029 14.4453C14.1823 14.6239 14.3224 14.8377 14.417 15.0723C14.4203 15.0958 14.4243 15.1311 14.4287 15.1797C14.438 15.2823 14.4473 15.4241 14.4561 15.5996C14.4736 15.9495 14.489 16.4149 14.502 16.9287C14.5279 17.9553 14.5444 19.1629 14.5508 19.998C14.5531 20.2733 14.7775 20.4952 15.0527 20.4941C15.328 20.493 15.5506 20.2694 15.5508 19.9941V9.5C15.5508 8.06287 16.5453 6.92456 17.6973 6.87598C18.011 6.88216 18.3204 6.95021 18.6074 7.07715C18.8969 7.20525 19.1583 7.39034 19.375 7.62109C19.5845 7.84426 19.7467 8.10704 19.8564 8.39258C19.8572 8.3986 19.8585 8.40568 19.8594 8.41406C19.8643 8.46232 19.8705 8.53287 19.876 8.62598C19.8869 8.81112 19.8973 9.06864 19.9072 9.38379C19.9271 10.0131 19.9445 10.8598 19.959 11.7939C19.988 13.662 20.0058 15.8714 20.0127 17.3711C20.014 17.6468 20.238 17.8698 20.5137 17.8691C20.7893 17.8685 21.0126 17.6448 21.0127 17.3691V6.93652C21.0127 6.92884 21.0121 6.92076 21.0117 6.91309Z" stroke="black" stroke-linejoin="round"/>
<rect x="12.5" y="36.5" width="21" height="7" rx="1.5" stroke="black"/>
<path d="M14 36V35C14 34.4477 14.4477 34 15 34H31C31.5523 34 32 34.4477 32 35V36" stroke="black" stroke-linecap="round"/>
</svg>
