<svg width="48" height="48" viewBox="0 0 48 48" fill="none" xmlns="http://www.w3.org/2000/svg">
<path d="M35 36H42C43.1046 36 44 35.1046 44 34V14C44 12.8954 43.1046 12 42 12H6C4.89543 12 4 12.8954 4 14V34C4 35.1046 4.89543 36 6 36H27" stroke="black"/>
<rect x="8.5" y="22.5" width="21" height="7" rx="1.5" stroke="black"/>
<rect x="8.5" y="16.5" width="11" height="3" rx="1.5" stroke="black"/>
<path d="M12 25H26" stroke="black" stroke-linecap="round"/>
<path d="M12 27H26" stroke="black" stroke-linecap="round"/>
<path d="M38.6719 27.7676C39.2577 27.1821 40.2073 27.1819 40.793 27.7676C41.3787 28.3533 41.3785 29.3029 40.793 29.8887L31.1611 39.5205C30.9659 39.7158 30.6494 39.7158 30.4541 39.5205L25.7676 34.835C25.1818 34.2492 25.1818 33.2987 25.7676 32.7129C26.3532 32.1273 27.3029 32.1275 27.8887 32.7129L30.8076 35.6318L38.6719 27.7676Z" stroke="black"/>
</svg>
