<svg width="48" height="48" viewBox="0 0 48 48" fill="none" xmlns="http://www.w3.org/2000/svg">
<path d="M27.4353 25.3215C27.4353 27.2188 25.8972 28.7568 24 28.7568C22.1027 28.7568 20.5647 27.2188 20.5647 25.3215" stroke="black"/>
<circle cx="24" cy="16.1608" r="9.16077" stroke="black"/>
<path d="M31 30.5H33C33.2761 30.5 33.5 30.7239 33.5 31V34.5H37C37.2761 34.5 37.5 34.7239 37.5 35V37C37.5 37.2761 37.2761 37.5 37 37.5H33.5V41C33.5 41.2761 33.2761 41.5 33 41.5H31C30.7239 41.5 30.5 41.2761 30.5 41V37.5H27C26.7239 37.5 26.5 37.2761 26.5 37V35C26.5 34.7239 26.7239 34.5 27 34.5H30.5V31C30.5 30.7239 30.7239 30.5 31 30.5Z" stroke="black"/>
<path d="M33.5 40.2078H39.5849C40.8389 40.2078 41.7887 39.0619 41.394 37.8716C38.9761 30.5807 32.1022 25.3215 24 25.3215C15.8978 25.3215 9.02394 30.5807 6.60601 37.8716C6.21128 39.0619 7.16105 40.2078 8.41505 40.2078H30.5" stroke="black"/>
</svg>
