<svg width="48" height="48" viewBox="0 0 48 48" fill="none" xmlns="http://www.w3.org/2000/svg">
<path d="M27.4353 25.3215C27.4353 27.2188 25.8972 28.7568 24 28.7568C22.1027 28.7568 20.5647 27.2188 20.5647 25.3215" stroke="black"/>
<circle cx="24" cy="16.1608" r="9.16077" stroke="black"/>
<path d="M35.182 32.8891L36.5962 34.3033C36.7915 34.4986 36.7915 34.8151 36.5962 35.0104L34.1213 37.4853L36.5962 39.9602C36.7915 40.1554 36.7915 40.472 36.5962 40.6673L35.182 42.0815C34.9867 42.2767 34.6701 42.2767 34.4749 42.0815L32 39.6066L29.5251 42.0815C29.3299 42.2767 29.0133 42.2767 28.818 42.0815L27.4038 40.6673C27.2085 40.472 27.2085 40.1554 27.4038 39.9602L29.8787 37.4853L27.4038 35.0104C27.2085 34.8151 27.2085 34.4986 27.4038 34.3033L28.818 32.8891C29.0133 32.6938 29.3299 32.6938 29.5251 32.8891L32 35.364L34.4749 32.8891C34.6701 32.6938 34.9867 32.6938 35.182 32.8891Z" stroke="black"/>
<path d="M37 40.2078H39.5849C40.8389 40.2078 41.7887 39.0619 41.394 37.8716C38.9761 30.5807 32.1022 25.3215 24 25.3215C15.8978 25.3215 9.02394 30.5807 6.60601 37.8716C6.21128 39.0619 7.16105 40.2078 8.41505 40.2078H27" stroke="black"/>
</svg>
