<svg width="48" height="48" viewBox="0 0 48 48" fill="none" xmlns="http://www.w3.org/2000/svg">
<path d="M38.5446 32.5C35.1957 28.1354 29.9265 25.3215 24 25.3215C15.8978 25.3215 9.02394 30.5807 6.60601 37.8716C6.21128 39.0619 7.16105 40.2078 8.41505 40.2078H31M40.2556 35.183C40.7033 36.0416 41.0851 36.9401 41.394 37.8718C41.7888 39.062 40.8389 40.2078 39.5849 40.2078H35.2417" stroke="black"/>
<path d="M27.4353 25.3215C27.4353 27.2188 25.8972 28.7568 24 28.7568C22.1027 28.7568 20.5647 27.2188 20.5647 25.3215" stroke="black"/>
<circle cx="24" cy="16.1608" r="9.16077" stroke="black"/>
<path d="M40.9355 30.0789C41.5213 29.4933 42.4709 29.4932 43.0566 30.0789C43.6423 30.6646 43.6422 31.6141 43.0566 32.2L33.4248 41.8318C33.2295 42.027 32.913 42.027 32.7178 41.8318L28.0312 37.1462C27.4455 36.5605 27.4455 35.61 28.0312 35.0242C28.6169 34.4386 29.5666 34.4388 30.1523 35.0242L33.0713 37.9431L40.9355 30.0789Z" stroke="black"/>
</svg>
