<svg width="48" height="48" viewBox="0 0 48 48" fill="none" xmlns="http://www.w3.org/2000/svg">
<path d="M41.0017 23.9995C41.0018 27.3621 40.0047 30.6493 38.1365 33.4452C36.2684 36.2411 33.6131 38.4203 30.5065 39.7072C27.3998 40.9941 23.9814 41.3308 20.6834 40.6748C17.3853 40.0188 14.3559 38.3996 11.9781 36.0219C9.60038 33.6442 7.98108 30.6148 7.32503 27.3168C6.66897 24.0188 7.00561 20.6004 8.29239 17.4937C9.57917 14.387 11.7583 11.7317 14.5542 9.86348C17.3501 7.99527 20.6372 6.99809 23.9998 6.99805C26.2325 6.99802 28.4433 7.43775 30.5061 8.29214C32.5688 9.14653 34.4431 10.3988 36.0219 11.9776C37.6006 13.5563 38.853 15.4305 39.7074 17.4933C40.5619 19.556 41.0017 21.7668 41.0017 23.9995Z" stroke="black"/>
<path d="M44 23.9997C44.0001 27.9554 42.8271 31.8222 40.6295 35.1112C38.432 38.4002 35.3084 40.9637 31.6539 42.4775C27.9994 43.9913 23.9781 44.3874 20.0985 43.6157C16.2188 42.8441 12.6551 40.9393 9.85806 38.1423C7.06097 35.3453 5.15611 31.7817 4.38436 27.9021C3.6126 24.0225 4.00861 20.0011 5.52232 16.3466C7.03602 12.692 9.59943 9.56843 12.8884 7.37075C16.1773 5.17308 20.0441 4.00005 23.9997 4C26.6262 3.99997 29.2269 4.51725 31.6534 5.52231C34.08 6.52737 36.2848 8.00053 38.1419 9.85768C39.9991 11.7148 41.4724 13.9196 42.4775 16.3461C43.4826 18.7726 44 21.3733 44 23.9997Z" stroke="black"/>
<path d="M32.1464 20.2426C32.9275 19.4616 32.9275 18.1953 32.1464 17.4142C31.3654 16.6332 30.0991 16.6332 29.318 17.4142L21.8076 24.9247L19.2426 22.3597C18.4616 21.5787 17.1953 21.5787 16.4142 22.3597C15.6332 23.1408 15.6332 24.4071 16.4142 25.1882L20.3934 29.1673C21.1744 29.9483 22.4407 29.9483 23.2218 29.1673L32.1464 20.2426Z" stroke="black"/>
</svg>
