<svg width="77" height="48" viewBox="0 0 77 48" fill="none" xmlns="http://www.w3.org/2000/svg">
<g clip-path="url(#clip0_2383_102)">
<rect width="77" height="48" rx="8" fill="white"/>
<path d="M6.11841 22.1818H10.8999C11.7546 17.6261 15.7136 13.9654 20.7611 13.9654C25.8086 13.9654 30.5256 18.0534 30.5256 24.2217C30.5256 30.3901 30.4611 25.407 30.3966 25.8747H14.9556C15.6813 28.6807 17.9874 30.3255 20.7611 30.3255C23.5348 30.3255 24.9136 29.3983 26.3328 27.7857L29.171 30.3901C27.2923 32.5349 24.4863 34.0185 20.7611 34.0185C17.0359 34.0185 11.7546 30.4223 10.8999 25.8666H6.11841V22.1737V22.1818ZM26.4376 22.1818C26.236 21.0287 25.7119 19.9724 24.954 19.2145C23.9622 18.2227 22.5108 17.5938 20.7611 17.5938C19.0114 17.5938 17.5923 18.1905 16.536 19.2468C15.8103 19.9724 15.2137 20.9642 14.9153 22.1818H26.4295H26.4376ZM33.4041 14.1025H37.5567V29.9385H45.0796V33.8975H37.6212C34.8797 33.8975 33.3961 32.4139 33.3961 29.6724V14.1025H33.4041ZM45.8698 23.996C45.8698 18.6178 50.2562 13.9654 56.0616 13.9654C61.8671 13.9654 65.2294 17.5938 66.0922 22.1818H70.8737V25.8747H66.0922C65.2053 30.4304 61.1737 34.0265 56.0616 34.0265C50.2239 34.0265 45.8698 29.4063 45.8698 23.996ZM56.0697 30.132C59.5369 30.132 62.109 27.4954 62.109 24.0282C62.109 20.5611 59.4723 17.8599 56.0697 17.8599C52.667 17.8599 50.0304 20.4966 50.0304 23.996C50.0304 27.3906 52.667 30.132 56.0697 30.132Z" fill="#003933"/>
</g>
<defs>
<clipPath id="clip0_2383_102">
<rect width="77" height="48" rx="8" fill="white"/>
</clipPath>
</defs>
</svg>
