<svg width="48" height="48" viewBox="0 0 48 48" fill="none" xmlns="http://www.w3.org/2000/svg">
<path d="M39.6391 17.6374C39.4063 17.8174 35.2953 20.1256 35.2953 25.2581C35.2953 31.1947 40.5264 33.2949 40.6829 33.3469C40.6588 33.4749 39.8519 36.2232 37.9249 39.0235C36.2066 41.4877 34.4121 43.948 31.6822 43.948C28.9522 43.948 28.2497 42.3678 25.0982 42.3678C22.027 42.3678 20.9351 44 18.438 44C15.9409 44 14.1986 41.7198 12.1953 38.9195C9.87482 35.6312 8 30.5227 8 25.6742C8 17.8974 13.0745 13.773 18.0686 13.773C20.7223 13.773 22.9343 15.5092 24.6004 15.5092C26.1862 15.5092 28.6592 13.669 31.6782 13.669C32.8223 13.669 36.9333 13.773 39.6391 17.6374ZM30.2449 10.3766C31.4935 8.90049 32.3767 6.85229 32.3767 4.80408C32.3767 4.52005 32.3526 4.23202 32.3004 4C30.269 4.07601 27.8522 5.34813 26.3949 7.0323C25.2508 8.32843 24.1829 10.3766 24.1829 12.4528C24.1829 12.7649 24.2351 13.0769 24.2592 13.1769C24.3876 13.2009 24.5964 13.2289 24.8052 13.2289C26.6278 13.2289 28.9201 12.0128 30.2449 10.3766Z" fill="black"/>
</svg>
