<svg width="48" height="48" viewBox="0 0 48 48" fill="none" xmlns="http://www.w3.org/2000/svg">
<g clip-path="url(#clip0_1337_131)">
<path d="M9.55276 16.9566C8.86356 16.9566 8.2788 17.197 7.79812 17.6777C7.31744 18.1583 7.07703 18.7351 7.07703 19.4084V29.7448C7.07703 30.4349 7.31737 31.0191 7.79812 31.4999C8.2788 31.9806 8.86356 32.221 9.55276 32.221C10.2415 32.221 10.8227 31.9806 11.2959 31.4999C11.7682 31.0192 12.005 30.4349 12.005 29.7448V19.4084C12.005 18.7351 11.7646 18.1583 11.2839 17.6777C10.8031 17.197 10.226 16.9566 9.55276 16.9566Z" fill="black"/>
<path d="M29.4568 7.6776L31.1636 4.52908C31.2756 4.32064 31.2358 4.1608 31.0437 4.0484C30.8351 3.95148 30.6749 4.00059 30.563 4.19226L28.8324 7.36594C27.3095 6.69266 25.6989 6.3554 24.0004 6.3554C22.3016 6.3554 20.6909 6.69273 19.1686 7.36594L17.4379 4.19226C17.3254 4.00059 17.1652 3.95192 16.9572 4.0484C16.7647 4.1613 16.7248 4.32064 16.8373 4.52908L18.5441 7.6776C16.8134 8.5602 15.435 9.78939 14.4094 11.3678C13.3839 12.9472 12.8708 14.673 12.8708 16.5484H35.1059C35.1059 14.6734 34.5928 12.9475 33.5673 11.3678C32.5416 9.78939 31.1712 8.5602 29.4568 7.6776ZM19.5891 12.2572C19.4045 12.4422 19.1841 12.5342 18.9278 12.5342C18.6711 12.5342 18.4551 12.4422 18.2789 12.2572C18.1027 12.073 18.0146 11.8534 18.0146 11.5963C18.0146 11.3401 18.1027 11.12 18.2789 10.9355C18.4551 10.7513 18.6716 10.6593 18.9278 10.6593C19.1841 10.6593 19.4045 10.7513 19.5891 10.9355C19.7733 11.1205 19.8658 11.3401 19.8658 11.5963C19.8653 11.853 19.7728 12.073 19.5891 12.2572ZM29.721 12.2572C29.5445 12.4422 29.328 12.5342 29.0722 12.5342C28.8154 12.5342 28.595 12.4422 28.4108 12.2572C28.2263 12.073 28.1342 11.8534 28.1342 11.5963C28.1342 11.3401 28.2263 11.12 28.4108 10.9355C28.595 10.7513 28.8154 10.6593 29.0722 10.6593C29.3284 10.6593 29.5444 10.7513 29.721 10.9355C29.8974 11.1205 29.9853 11.3401 29.9853 11.5963C29.9853 11.853 29.8973 12.073 29.721 12.2572Z" fill="black"/>
<path d="M12.9663 33.4227C12.9663 34.1606 13.2226 34.7852 13.7351 35.2978C14.2482 35.8104 14.8728 36.0666 15.6101 36.0666H17.3891L17.4134 41.5239C17.4134 42.2131 17.6538 42.7982 18.1345 43.279C18.6151 43.7598 19.1924 44.0001 19.8652 44.0001C20.5539 44.0001 21.1391 43.7598 21.6198 43.279C22.1006 42.7982 22.3409 42.2131 22.3409 41.5239V36.0671H25.6581V41.5239C25.6581 42.2131 25.8984 42.7982 26.3791 43.279C26.8599 43.7598 27.4445 44.0001 28.1337 44.0001C28.8225 44.0001 29.4076 43.7598 29.8884 43.279C30.3691 42.7982 30.6094 42.2131 30.6094 41.5239V36.0671H32.4124C33.1334 36.0671 33.75 35.8108 34.2635 35.2982C34.776 34.7856 35.0324 34.161 35.0324 33.4232V17.413H12.9663V33.4227Z" fill="black"/>
<path d="M38.4473 16.9566C37.774 16.9566 37.1973 17.1934 36.7165 17.6657C36.2358 18.1389 35.9955 18.7201 35.9955 19.4084V29.7448C35.9955 30.4349 36.2358 31.0191 36.7165 31.4999C37.1973 31.9806 37.7744 32.221 38.4473 32.221C39.136 32.221 39.7212 31.9806 40.2019 31.4999C40.6827 31.0191 40.9229 30.4349 40.9229 29.7448V19.4084C40.9229 18.72 40.6827 18.1389 40.2019 17.6657C39.7212 17.1934 39.136 16.9566 38.4473 16.9566Z" fill="black"/>
</g>
<defs>
<clipPath id="clip0_1337_131">
<rect width="40" height="40" fill="white" transform="translate(4 4)"/>
</clipPath>
</defs>
</svg>
