<svg width="48" height="48" viewBox="0 0 48 48" fill="none" xmlns="http://www.w3.org/2000/svg">
<g clip-path="url(#clip0_2249_80)">
<path d="M13.048 8.9907C17.4811 12.3816 22.2493 19.2568 24 22.9465C25.7508 19.2571 30.5188 12.3815 34.952 8.9907C38.1507 6.54399 43.3333 4.65087 43.3333 10.6749C43.3333 11.878 42.6563 20.7814 42.2593 22.2268C40.8791 27.2521 35.8497 28.5339 31.3759 27.7581C39.1959 29.1142 41.1853 33.6059 36.8891 38.0976C28.7297 46.6282 25.1617 35.9572 24.2471 33.2229C24.0795 32.7217 24.001 32.4872 23.9999 32.6866C23.9987 32.4872 23.9203 32.7217 23.7527 33.2229C22.8384 35.9572 19.2705 46.6285 11.1107 38.0976C6.81444 33.6059 8.80371 29.1139 16.6238 27.7581C12.15 28.5339 7.12051 27.2521 5.74051 22.2268C5.34343 20.7812 4.66644 11.8778 4.66644 10.6749C4.66644 4.65087 9.84924 6.54399 13.0478 8.9907H13.048Z" fill="black"/>
</g>
<defs>
<clipPath id="clip0_2249_80">
<rect width="40" height="36" fill="white" transform="translate(4 6)"/>
</clipPath>
</defs>
</svg>
