<svg width="48" height="48" viewBox="0 0 48 48" fill="none" xmlns="http://www.w3.org/2000/svg">
<g clip-path="url(#clip0_207_26)">
<path d="M24 9.47843C28.7296 9.47843 29.2898 9.4965 31.1578 9.58172C32.8848 9.66054 33.8227 9.94903 34.4469 10.1916C35.2163 10.4756 35.9122 10.9283 36.4836 11.5166C37.0719 12.088 37.5246 12.784 37.8086 13.5533C38.0512 14.1775 38.3397 15.1154 38.4185 16.8424C38.5037 18.7102 38.5218 19.2704 38.5218 24.0002C38.5218 28.73 38.5037 29.29 38.4185 31.158C38.3397 32.885 38.0511 33.8229 37.8086 34.4471C37.5139 35.211 37.0626 35.9048 36.4836 36.4838C35.9046 37.0628 35.2108 37.5141 34.4469 37.8088C33.8227 38.0514 32.8848 38.34 31.1578 38.4187C29.2903 38.5039 28.7301 38.522 24 38.522C19.2699 38.522 18.7099 38.5039 16.8422 38.4187C15.1152 38.3399 14.1773 38.0513 13.5531 37.8088C12.7837 37.5249 12.0878 37.0721 11.5164 36.4838C10.9281 35.9124 10.4754 35.2165 10.1914 34.4471C9.94882 33.8229 9.66026 32.885 9.58151 31.158C9.49629 29.2902 9.47822 28.73 9.47822 24.0002C9.47822 19.2704 9.49629 18.7104 9.58151 16.8424C9.66033 15.1154 9.94882 14.1776 10.1914 13.5533C10.4754 12.7839 10.9282 12.0879 11.5166 11.5166C12.0879 10.9283 12.7839 10.4755 13.5532 10.1915C14.1774 9.94896 15.1153 9.6604 16.8423 9.58165C18.7102 9.49643 19.2704 9.47836 24.0001 9.47836M24.0001 6.2868C19.1895 6.2868 18.5861 6.30719 16.6971 6.3934C14.8116 6.47946 13.5241 6.77885 12.3974 7.21676C11.2155 7.66153 10.1448 8.35876 9.26004 9.25983C8.35877 10.1445 7.66134 11.2152 7.21641 12.3972C6.77885 13.5239 6.47946 14.8115 6.39375 16.6969C6.30719 18.5859 6.2868 19.1894 6.2868 24C6.2868 28.8106 6.30719 29.4141 6.39375 31.3031C6.47981 33.1885 6.7792 34.4761 7.21711 35.6028C7.66188 36.7847 8.35911 37.8553 9.26018 38.7401C10.1449 39.6412 11.2156 40.3384 12.3975 40.7832C13.5243 41.2211 14.8118 41.5205 16.6972 41.6065C18.5865 41.6927 19.1897 41.7131 24.0003 41.7131C28.8109 41.7131 29.4143 41.6927 31.3034 41.6065C33.1888 41.5205 34.4764 41.2211 35.603 40.7832C36.7797 40.3281 37.8483 39.6322 38.7404 38.7401C39.6325 37.848 40.3284 36.7794 40.7835 35.6028C41.2214 34.476 41.5207 33.1884 41.6068 31.3031C41.693 29.4138 41.7134 28.8106 41.7134 24C41.7134 19.1894 41.693 18.5859 41.6068 16.6969C41.5207 14.8115 41.2214 13.5239 40.7835 12.3972C40.3387 11.2153 39.6415 10.1447 38.7404 9.2599C37.8556 8.35865 36.7849 7.66127 35.6028 7.21641C34.4761 6.77885 33.1885 6.47946 31.3031 6.39375C29.4141 6.30719 28.8106 6.2868 24 6.2868H24.0001Z" fill="black"/>
<path d="M24 14.904C22.201 14.904 20.4423 15.4375 18.9465 16.437C17.4507 17.4364 16.2848 18.857 15.5964 20.5191C14.9079 22.1812 14.7278 24.0101 15.0788 25.7745C15.4297 27.539 16.2961 29.1597 17.5681 30.4318C18.8402 31.7039 20.461 32.5702 22.2254 32.9212C23.9899 33.2722 25.8188 33.092 27.4809 32.4036C29.1429 31.7151 30.5635 30.5493 31.563 29.0535C32.5625 27.5576 33.0959 25.799 33.0959 24C33.0959 21.5876 32.1376 19.274 30.4318 17.5682C28.726 15.8623 26.4124 14.904 24 14.904ZM24 29.9043C22.8322 29.9043 21.6907 29.558 20.7197 28.9093C19.7488 28.2605 18.992 27.3383 18.5451 26.2594C18.0982 25.1806 17.9813 23.9934 18.2091 22.8481C18.437 21.7027 18.9993 20.6507 19.8251 19.825C20.6508 18.9992 21.7029 18.4369 22.8482 18.2091C23.9935 17.9813 25.1807 18.0982 26.2596 18.5451C27.3384 18.992 28.2606 19.7488 28.9093 20.7197C29.5581 21.6907 29.9044 22.8322 29.9044 24C29.9044 25.5659 29.2823 27.0677 28.175 28.175C27.0677 29.2823 25.5659 29.9043 24 29.9043Z" fill="black"/>
<path d="M33.4553 16.6702C34.6292 16.6702 35.5809 15.7186 35.5809 14.5446C35.5809 13.3707 34.6292 12.4191 33.4553 12.4191C32.2814 12.4191 31.3298 13.3707 31.3298 14.5446C31.3298 15.7186 32.2814 16.6702 33.4553 16.6702Z" fill="black"/>
</g>
<defs>
<clipPath id="clip0_207_26">
<rect width="36" height="36" fill="white" transform="translate(6 6)"/>
</clipPath>
</defs>
</svg>
