<svg width="48" height="48" viewBox="0 0 48 48" fill="none" xmlns="http://www.w3.org/2000/svg">
<path fill-rule="evenodd" clip-rule="evenodd" d="M39.34 6.00017H8.65997C8.31464 5.99621 7.97186 6.06032 7.65125 6.18883C7.33063 6.31734 7.03845 6.50777 6.79144 6.7492C6.54449 6.99065 6.34741 7.27837 6.21161 7.59597C6.07581 7.91356 6.00391 8.25478 6 8.60015V39.4002C6.00391 39.7455 6.07581 40.0868 6.21161 40.4043C6.34741 40.7219 6.54449 41.0097 6.79144 41.2511C7.03845 41.4925 7.33063 41.683 7.65125 41.8115C7.97186 41.94 8.31464 42.0041 8.65997 42.0002H39.34C39.6854 42.0041 40.0282 41.94 40.3488 41.8115C40.6694 41.683 40.9615 41.4925 41.2085 41.2511C41.4555 41.0097 41.6526 40.7219 41.7884 40.4043C41.9242 40.0868 41.9961 39.7455 42 39.4002V8.60015C41.9961 8.25478 41.9242 7.91356 41.7884 7.59597C41.6526 7.27837 41.4555 6.99065 41.2085 6.7492C40.9615 6.50777 40.6694 6.31734 40.3488 6.18883C40.0282 6.06032 39.6854 5.99621 39.34 6.00017ZM11.34 19.5002H16.68V36.6802H11.34V19.5002ZM14.02 11.0002C14.6331 11.0002 15.2325 11.182 15.7422 11.5226C16.252 11.8632 16.6494 12.3474 16.884 12.9139C17.1187 13.4803 17.1801 14.1036 17.0604 14.7049C16.9408 15.3063 16.6456 15.8587 16.212 16.2922C15.7784 16.7258 15.2261 17.021 14.6248 17.1406C14.0234 17.2602 13.4001 17.1988 12.8337 16.9642C12.2672 16.7296 11.7831 16.3322 11.4424 15.8224C11.1018 15.3126 10.92 14.7133 10.92 14.1002C10.92 13.278 11.2466 12.4895 11.8279 11.9081C12.4093 11.3268 13.1978 11.0002 14.02 11.0002ZM25.16 19.5002H20.04V36.6702H25.36V28.1702C25.36 25.9302 25.78 23.7602 28.56 23.7602C31.34 23.7602 31.34 26.3202 31.34 28.3202V36.6802H36.68V27.2602C36.68 22.6402 35.69 19.0802 30.28 19.0802C29.2664 19.0423 28.2616 19.2798 27.3724 19.7676C26.4831 20.2554 25.7427 20.9751 25.23 21.8502H25.16V19.5002Z" fill="black"/>
</svg>
