<svg width="48" height="48" viewBox="0 0 48 48" fill="none" xmlns="http://www.w3.org/2000/svg">
<g clip-path="url(#clip0_2488_223)">
<path d="M8 4.96495V41.1696C8 41.6207 8.32244 42.0115 8.77647 42.1109L17.3018 43.9763C17.6432 44.051 18 43.9465 18.2416 43.7011L25.4631 36.3656C26.0676 35.7515 25.6184 34.7347 24.7425 34.7347H19.4836C18.9336 34.7347 18.4878 34.3026 18.4878 33.7697V4.96495C18.4878 4.43201 18.042 4 17.492 4H8.99581C8.44582 4 8 4.43201 8 4.96495Z" fill="black"/>
<path d="M24.1868 4H34.6625C34.965 4 35.2511 4.13326 35.4401 4.36215L42.7818 13.2549C43.0716 13.606 43.0728 14.1046 42.7846 14.457L35.5672 23.2824C35.3783 23.5134 35.0909 23.648 34.7868 23.648H24.1868C23.351 23.648 22.8871 22.7107 23.4101 22.0791L29.7466 14.428C30.0388 14.0751 30.0388 13.5729 29.7466 13.2201L23.4102 5.56891C22.8871 4.93732 23.3511 4 24.1868 4Z" fill="black"/>
</g>
<defs>
<clipPath id="clip0_2488_223">
<rect width="35" height="40" fill="white" transform="translate(8 4)"/>
</clipPath>
</defs>
</svg>
