<svg width="48" height="48" viewBox="0 0 48 48" fill="none" xmlns="http://www.w3.org/2000/svg">
<g clip-path="url(#clip0_2488_225)">
<path d="M36.9565 6H11.0435C8.25804 6 6 8.25804 6 11.0435V21.2705L15.913 6.9855L42 19.5914V11.0435C42 8.25804 39.742 6 36.9565 6Z" fill="black"/>
<path d="M6.50699 38.3599C6.40368 38.3599 6.29946 38.3246 6.21431 38.2526C6.02273 38.0905 5.99879 37.804 6.16064 37.6126C13.6959 28.7023 20.8162 20.2843 41.2652 20.2843C41.318 20.2843 41.3681 20.2845 41.4209 20.2845C41.6718 20.285 41.8745 20.4887 41.8741 20.7395C41.8736 20.9901 41.6705 21.1927 41.4199 21.1927H41.419C41.3685 21.1927 41.317 21.1925 41.2669 21.1925C21.2352 21.1925 14.2498 29.4538 6.85419 38.1989C6.76419 38.3051 6.636 38.3599 6.50699 38.3599Z" fill="black"/>
<path d="M7.36133 40.3959C8.28153 41.3811 9.58886 42 11.0434 42H36.9565C39.7419 42 42 39.742 42 36.9566V27.7146C36.1958 27.0461 19.482 26.5406 7.36133 40.3959Z" fill="black"/>
<path d="M30.4073 22.0907C28.5626 18.9322 25.139 16.8085 21.2174 16.8085C15.3423 16.8085 10.5797 21.5712 10.5797 27.4462C10.5797 29.1102 10.9624 30.6846 11.6436 32.0872C15.7867 28.408 22.0314 24.199 30.4073 22.0907Z" fill="black"/>
</g>
<defs>
<clipPath id="clip0_2488_225">
<rect width="36" height="36" fill="white" transform="translate(6 6)"/>
</clipPath>
</defs>
</svg>
