<svg width="48" height="48" viewBox="0 0 48 48" fill="none" xmlns="http://www.w3.org/2000/svg">
<path d="M24.001 4C12.9857 4 4.00757 12.9782 4.00757 23.9934C4.00757 32.2171 8.91161 39.2337 16.0036 42.327C15.9282 40.8935 16.0036 39.2337 16.3808 37.7247C16.7581 36.0649 18.946 26.8604 18.946 26.8604C18.946 26.8604 18.3425 25.5778 18.3425 23.6916C18.3425 20.7492 20.0777 18.4858 22.1903 18.4858C24.001 18.4858 24.9063 19.8438 24.9063 21.5037C24.9063 23.3144 23.7746 26.0305 23.1711 28.5957C22.6429 30.7082 24.2273 32.4435 26.3398 32.4435C30.1122 32.4435 32.6774 27.6149 32.6774 21.8055C32.6774 17.4295 29.7349 14.1099 24.3782 14.1099C18.3425 14.1099 14.5701 18.6367 14.5701 23.6916C14.5701 25.4269 15.0983 26.634 15.8527 27.6149C16.23 28.0675 16.3054 28.2184 16.1545 28.7466C16.0791 29.1238 15.8527 30.0292 15.7773 30.3309C15.6264 30.8591 15.2491 31.01 14.7965 30.8591C12.0049 29.7274 10.7223 26.634 10.7223 23.2389C10.7223 17.5804 15.4755 10.7148 24.9818 10.7148C32.6019 10.7148 37.6569 16.2224 37.6569 22.1827C37.6569 30.0292 33.2809 35.914 26.868 35.914C24.68 35.914 22.6429 34.7823 21.9639 33.4243C21.9639 33.4243 20.8322 38.0265 20.5304 38.9319C20.0777 40.4408 19.2478 42.0252 18.4934 43.2323C20.3041 43.7605 22.1903 44.0623 24.1519 44.0623C35.0162 43.9868 43.9944 35.0086 43.9944 23.9934C43.9944 12.9782 35.0162 4 24.001 4Z" fill="black"/>
</svg>
