<svg width="48" height="48" viewBox="0 0 48 48" fill="none" xmlns="http://www.w3.org/2000/svg">
<g clip-path="url(#clip0_2488_222)">
<path d="M30.171 32.0115C30.3427 33.1425 30.6004 34.2735 30.7722 35.4045C30.2569 35.6655 29.8274 35.8395 29.312 35.9265C28.0236 36.2746 26.8211 36.4486 25.5327 36.4486C23.9007 36.5356 22.2687 36.2746 20.7226 35.4915C18.9188 34.6215 17.6304 33.1425 16.9432 31.2284C16.4278 29.8364 16.1702 28.4444 16.1702 26.9654C16.2561 24.7033 16.6855 22.4413 17.8881 20.5272C19.0906 18.5262 20.8944 17.3081 23.2135 16.8731C24.7596 16.6121 26.2198 16.7861 27.68 17.3951C29.1402 18.0912 30.0851 19.2222 30.6863 20.7012C31.2017 21.9192 31.4594 23.2243 31.6312 24.6163C31.7171 25.7473 31.7171 26.7913 31.6312 27.9224C31.6312 28.0094 31.6312 28.0964 31.5453 28.1834H20.7226C20.7226 28.6184 20.8085 29.0534 20.8944 29.4014C21.4097 31.1414 22.5264 32.1855 24.3301 32.5335C25.8762 32.8815 27.3364 32.6205 28.7966 32.2725C29.312 32.3595 29.7415 32.1855 30.171 32.0115ZM27.3364 24.7033C27.3364 24.0073 27.3364 23.3113 27.0788 22.6153C26.907 21.9192 26.5634 21.3102 25.9621 20.8752C25.5327 20.6142 25.1032 20.4402 24.6737 20.3532C23.8148 20.2662 23.0417 20.3532 22.4405 20.9622C21.4097 22.0062 20.9803 23.3113 20.8944 24.7033C20.9803 24.7903 21.0661 24.7903 21.0661 24.7903H27.1647C27.1647 24.7033 27.2505 24.7903 27.3364 24.7033Z" fill="black"/>
<path d="M14.71 21.7452C14.1087 21.3972 13.4215 21.1362 12.8203 20.9622C12.0472 20.7882 11.3601 20.6142 10.587 20.7882C9.72808 20.9622 9.21272 21.5712 9.04093 22.4413C8.95503 22.9633 9.12682 23.3113 9.4704 23.7463C9.89987 24.1813 10.3293 24.4423 10.9306 24.6163C12.0472 25.0513 13.2498 25.5733 14.1946 26.3563C15.483 27.4004 16.2561 28.7054 16.342 30.3584C16.4278 31.8375 16.1702 33.2295 15.2253 34.4475C14.4523 35.4915 13.4215 36.0135 12.3049 36.4486C11.0165 36.9706 9.64219 37.0576 8.35377 36.9706C7.06536 36.8836 5.86284 36.6226 4.66031 36.1006C4.48852 36.0135 4.14495 35.9265 4.05905 35.7525C3.88726 35.5785 4.14495 35.3175 4.14495 35.0565C4.40263 34.0995 4.66031 33.1425 4.918 32.1855C4.918 32.0985 5.00389 31.9245 5.00389 31.8375C5.43336 32.0115 5.86284 32.1855 6.29231 32.3595C7.06536 32.7075 7.9243 32.9685 8.78325 33.0555C9.38451 33.1425 9.89987 33.0555 10.4152 32.8815C11.6178 32.4465 12.0472 31.3154 11.3601 30.1844C10.9306 29.4884 10.2435 29.0534 9.55629 28.7054C8.95503 28.4444 8.26788 28.1834 7.66662 27.9224C6.72178 27.4004 5.94873 26.7913 5.34747 25.9213C4.8321 25.1383 4.48852 24.2683 4.40263 23.2243C4.23084 21.3972 5.00389 19.9182 6.29231 18.7002C7.15125 17.8301 8.26788 17.3951 9.38451 17.1341C11.446 16.6121 13.5074 16.8731 15.3971 17.8301C15.5689 17.9172 15.5689 18.0042 15.5689 18.1782C15.3112 19.2222 15.0535 20.3532 14.7959 21.3972C14.7386 21.5712 14.71 21.6872 14.71 21.7452Z" fill="black"/>
<path d="M37.7296 36.2746H32.9196V17.3082H37.7296V36.2746Z" fill="black"/>
<path d="M38.9323 28.9664V10H43.8282V28.9664H38.9323Z" fill="black"/>
<path d="M41.2513 30.5325C42.7974 30.5325 44 31.8375 44 33.4905C44 35.0566 42.7115 36.2746 41.2513 36.2746C39.7052 36.2746 38.5027 34.9696 38.5027 33.4035C38.4168 31.7505 39.7052 30.5325 41.2513 30.5325Z" fill="black"/>
<path d="M35.2387 15.7421C33.6926 15.7421 32.4901 14.4371 32.4901 12.8711C32.4901 11.305 33.7785 10 35.3246 10C36.8707 10 38.0732 11.305 38.0732 12.8711C38.0732 14.4371 36.8707 15.7421 35.2387 15.7421Z" fill="black"/>
</g>
<defs>
<clipPath id="clip0_2488_222">
<rect width="40" height="27" fill="white" transform="translate(4 10)"/>
</clipPath>
</defs>
</svg>
