<svg width="48" height="48" viewBox="0 0 48 48" fill="none" xmlns="http://www.w3.org/2000/svg">
<path d="M39.9049 15.9663C39.9293 16.3135 39.9293 16.6607 39.9293 17.0111C39.9293 27.6872 31.6742 40 16.5793 40V39.9936C12.1203 40 7.75381 38.7425 4 36.3714C4.64839 36.4482 5.30002 36.4866 5.95328 36.4882C9.64859 36.4914 13.2383 35.2707 16.1454 33.0228C12.6338 32.9572 9.55434 30.703 8.47857 27.412C9.70871 27.6456 10.9762 27.5976 12.1836 27.2728C8.35507 26.5113 5.60065 23.1995 5.60065 19.3533C5.60065 19.3181 5.60065 19.2845 5.60065 19.2509C6.74142 19.8765 8.01869 20.2236 9.32521 20.262C5.71928 17.8894 4.60776 13.1665 6.78529 9.47393C10.9519 14.5216 17.0993 17.5902 23.6986 17.915C23.0372 15.1088 23.9407 12.1682 26.0727 10.1955C29.378 7.13647 34.5765 7.29326 37.6835 10.5459C39.5214 10.1891 41.283 9.52512 42.895 8.58438C42.2823 10.4547 41.0002 12.0434 39.2874 13.0529C40.9141 12.8641 42.5034 12.4353 44 11.781C42.8982 13.4065 41.5105 14.8224 39.9049 15.9663Z" fill="black"/>
</svg>
