<svg width="48" height="48" viewBox="0 0 48 48" fill="none" xmlns="http://www.w3.org/2000/svg">
<path d="M33.2241 23.0027C33.0475 22.9181 32.8681 22.8366 32.6864 22.7586C32.3699 16.9274 29.1836 13.5891 23.8335 13.5549C23.8093 13.5548 23.7852 13.5548 23.761 13.5548C20.5609 13.5548 17.8995 14.9207 16.2614 17.4063L19.2038 19.4247C20.4275 17.5681 22.348 17.1723 23.7624 17.1723C23.7787 17.1723 23.7951 17.1723 23.8113 17.1724C25.5729 17.1837 26.9022 17.6958 27.7625 18.6947C28.3886 19.4218 28.8074 20.4267 29.0147 21.6949C27.4529 21.4294 25.7638 21.3478 23.9581 21.4513C18.8714 21.7443 15.6013 24.711 15.821 28.8332C15.9324 30.9242 16.9741 32.7231 18.7541 33.8982C20.259 34.8916 22.1972 35.3774 24.2116 35.2674C26.8718 35.1216 28.9588 34.1066 30.4147 32.2507C31.5204 30.8413 32.2198 29.0149 32.5286 26.7136C33.7964 27.4787 34.7359 28.4855 35.2548 29.6959C36.1372 31.7534 36.1887 35.1344 33.4299 37.8908C31.0128 40.3055 28.1074 41.3501 23.7164 41.3824C18.8457 41.3463 15.162 39.7842 12.767 36.7396C10.5243 33.8886 9.36521 29.7706 9.32196 24.5C9.36521 19.2293 10.5243 15.1113 12.767 12.2604C15.162 9.21573 18.8456 7.6537 23.7164 7.6175C28.6225 7.65398 32.3703 9.22353 34.857 12.2829C36.0763 13.7831 36.9956 15.6698 37.6017 17.8696L41.0497 16.9496C40.3151 14.2419 39.1592 11.9087 37.5863 9.97361C34.3983 6.05143 29.7359 4.04167 23.7284 4H23.7044C17.7091 4.04153 13.0989 6.05893 10.0017 9.9961C7.24563 13.4997 5.82398 18.3747 5.77621 24.4856L5.77606 24.5L5.77621 24.5144C5.82398 30.6252 7.24563 35.5004 10.0017 39.004C13.0989 42.941 17.7091 44.9586 23.7044 45H23.7284C29.0585 44.9631 32.8156 43.5676 35.9106 40.4753C39.96 36.4297 39.8381 31.3587 38.5035 28.2457C37.5459 26.0134 35.7204 24.2002 33.2241 23.0027ZM24.0212 31.6551C21.7918 31.7807 19.4757 30.78 19.3615 28.6367C19.2768 27.0476 20.4925 25.2743 24.158 25.0631C24.5778 25.0389 24.9897 25.027 25.3943 25.027C26.7258 25.027 27.9714 25.1564 29.1038 25.4039C28.6814 30.6788 26.2039 31.5353 24.0212 31.6551Z" fill="black"/>
</svg>
