<svg width="48" height="48" viewBox="0 0 48 48" fill="none" xmlns="http://www.w3.org/2000/svg">
<path d="M39.8531 13.3708C37.856 12.9436 36.0476 11.8897 34.6914 10.3627C33.3353 8.83568 32.5024 6.91544 32.3141 4.88188V4H25.425V31.3404C25.4207 32.5508 25.0373 33.7294 24.3286 34.7107C23.6199 35.692 22.6216 36.4265 21.474 36.8111C20.3263 37.1957 19.087 37.2111 17.9301 36.855C16.7733 36.4989 15.7571 35.7894 15.0243 34.826C14.2802 33.8465 13.8674 32.6554 13.8458 31.4254C13.8242 30.1955 14.195 28.9907 14.9043 27.9857C15.6136 26.9806 16.6246 26.2277 17.7907 25.836C18.9567 25.4443 20.2173 25.4342 21.3895 25.8071V18.8081C18.7755 18.4467 16.114 18.9114 13.7772 20.1372C11.4404 21.363 9.54511 23.2886 8.35654 25.6445C7.16798 28.0005 6.74554 30.6691 7.14831 33.277C7.55108 35.8849 8.75893 38.3016 10.6029 40.1893C12.3614 41.9885 14.6161 43.223 17.0794 43.735C19.5426 44.2471 22.1025 44.0135 24.4324 43.0642C26.7623 42.1148 28.7564 40.4927 30.1602 38.4049C31.5641 36.3171 32.3139 33.8583 32.3141 31.3424V17.3722C35.0982 19.3627 38.4364 20.4299 41.8588 20.4238V13.5787C41.1848 13.5796 40.5126 13.5099 39.8531 13.3708Z" fill="black"/>
</svg>
