<svg width="48" height="48" viewBox="0 0 48 48" fill="none" xmlns="http://www.w3.org/2000/svg">
<path fill-rule="evenodd" clip-rule="evenodd" d="M15.8519 5.4007C15.7191 5.42154 15.4543 5.58434 15.2635 5.76253C14.919 6.08443 14.9172 6.09163 14.9893 6.87389C15.0293 7.30698 15.1097 8.25052 15.1677 8.97076C15.6203 14.5851 15.6946 16.2663 15.4956 16.3893C15.1608 16.5962 14.9763 16.284 11.8545 10.2309C10.7845 8.15581 10.5805 7.93714 9.91879 8.15547C8.86926 8.50186 8.95186 9.02535 10.6286 12.6538C10.8437 13.1193 11.0196 13.5195 11.0196 13.5432C11.0196 13.5671 11.2084 13.9966 11.4395 14.4976C12.6914 17.2145 13.0175 18.3195 12.6135 18.4746C12.3272 18.5844 11.8172 18.3112 11.3979 17.8237C11.1846 17.5757 10.9222 17.2745 10.8149 17.1544C10.7074 17.0345 10.4026 16.6662 10.1375 16.3361C9.87241 16.006 9.63029 15.7115 9.59942 15.6814C9.56855 15.6514 9.0636 15.0546 8.47743 14.355C7.89113 13.6555 7.3355 13.054 7.24253 13.0183C6.70796 12.8133 6.00012 13.2179 6.00012 13.7286C6.00012 14.1743 7.07177 15.9677 9.30239 19.2545C10.7004 21.3142 11.0289 22.0557 11.3453 23.8652C12.0154 27.6987 12.9273 30.0488 14.107 30.9835C14.9102 31.6199 14.9328 31.6245 16.8238 31.5437L18.5556 31.4697L19.8715 29.7134C20.5952 28.7474 21.2442 27.8835 21.3139 27.7934C21.8186 27.1393 23.1316 24.8219 23.1316 24.5854C23.1316 24.5516 22.4492 24.5551 21.6154 24.593C20.5886 24.6398 19.8754 24.6184 19.4057 24.5272C18.5915 24.3687 17.5661 23.9021 17.0035 23.434C16.1157 22.6952 15.8548 21.384 16.4082 20.4398C16.8216 19.7344 17.3947 19.4318 18.5994 19.2824C19.5731 19.1619 20.6146 18.878 22.1223 18.3229L22.9133 18.0316V16.7574C22.9133 15.452 23.1624 10.8994 23.3515 8.75252C23.5 7.06441 23.5024 7.08274 23.088 6.66832C22.8017 6.3821 22.6261 6.29732 22.3193 6.29732C21.5464 6.29732 21.5042 6.40403 20.7387 10.2814C20.3598 12.2012 19.9813 14.1647 19.8976 14.6448C19.7148 15.6927 19.5714 16.0789 19.33 16.1715C19.0147 16.2927 18.7195 15.7988 18.5777 14.9134C18.5061 14.4656 18.3193 13.289 18.1627 12.2988C17.8726 10.4646 17.2927 7.02852 17.1687 6.40851C17.0943 6.03652 16.6058 5.48002 16.2903 5.40789C16.1821 5.38312 15.9848 5.37985 15.8519 5.4007ZM30.3879 16.6316C29.9024 16.7468 28.4915 17.2577 27.8481 17.5514C27.4717 17.7232 27.1349 17.8638 27.1 17.8638C27.0651 17.8638 26.1456 18.3041 25.0568 18.8425C22.7576 19.979 20.095 20.9189 19.1738 20.9192C18.5405 20.9194 17.859 21.1997 17.8064 21.4814C17.7479 21.7965 18.411 22.4201 19.0735 22.6724C19.6609 22.8961 19.8143 22.9054 21.9186 22.8432C23.7993 22.788 24.1982 22.804 24.5001 22.9473C25.0194 23.1936 25.1621 23.6135 24.9901 24.39C24.8148 25.1816 23.8387 27.1394 23.052 28.2771C22.5408 29.0165 19.4978 33.0661 17.7302 35.3594C17.0994 36.1779 17.0712 36.5948 17.6102 37.134C18.3083 37.832 18.2182 37.8942 21.9697 34.1233C25.4712 30.6041 25.7635 30.3733 25.9218 31.0046C26.0181 31.388 26.0402 31.332 24.4835 34.653C24.22 35.2148 24.0045 35.6901 24.0045 35.7089C24.0045 35.7278 23.8268 36.1272 23.6096 36.5967C21.826 40.4524 21.7533 40.7114 22.2695 41.3675C22.4541 41.6024 22.5811 41.6508 23.0031 41.648C23.2837 41.6461 23.5891 41.5847 23.6816 41.5115C23.774 41.4384 24.3099 40.5439 24.8727 39.5236C25.8584 37.7361 26.4371 36.7006 26.9274 35.8464C28.7384 32.6909 28.7296 32.7038 29.0575 32.7038C29.267 32.7038 29.2728 32.7547 29.208 34.0405C29.1489 35.2145 28.9998 36.6136 28.5889 39.851C28.4337 41.0733 28.4535 42.1006 28.637 42.3427C28.8529 42.6276 29.6029 42.7081 29.9463 42.4832C30.2988 42.2521 30.4632 41.6683 30.8718 39.1963C31.7373 33.9564 31.9543 32.9597 32.2971 32.6497C32.5084 32.4584 32.5234 32.4586 32.7441 32.6583C32.8696 32.772 33.0173 32.949 33.0722 33.0517C33.1272 33.1542 33.2924 34.3824 33.4396 35.7808C33.8535 39.7167 33.8891 39.9205 34.213 40.2056C34.571 40.5208 34.9364 40.5171 35.311 40.1951C35.5963 39.9497 35.6127 39.8779 35.7072 38.4765C35.7613 37.6721 35.7838 36.081 35.757 34.9406C35.7048 32.7201 35.8071 30.8608 36.0169 30.2126C36.0883 29.9923 36.4287 29.1493 36.7737 28.339C37.1187 27.5289 37.6085 26.2277 37.8621 25.4475C38.6437 23.0427 38.5847 21.1119 37.7025 20.225C37.5151 20.0367 36.951 19.6621 36.4489 19.3927C35.8075 19.0486 35.204 18.5909 34.4201 17.8538C33.5246 17.0121 33.206 16.78 32.8071 16.6795C32.3224 16.5576 30.8248 16.5278 30.3879 16.6316ZM38.901 19.8217C38.8585 19.9557 38.9379 20.3216 39.0978 20.7283C39.4515 21.6273 39.532 22.4188 39.3783 23.4833C39.1802 24.8551 39.1884 25.0056 39.4651 25.045C39.8388 25.0982 40.0293 24.6738 40.1682 23.4773C40.3196 22.1741 40.1867 21.1809 39.7383 20.2644C39.4158 19.6053 39.0338 19.4034 38.901 19.8217ZM40.8827 20.1983C40.8506 20.2819 40.9233 20.6625 41.0443 21.044C41.3294 21.9427 41.2746 23.3624 40.9131 24.4441C40.6868 25.1211 40.6801 25.202 40.8374 25.3592C41.2098 25.7318 41.5914 25.2173 41.851 23.9923C42.1262 22.6943 42.0102 21.0821 41.5844 20.2866C41.4395 20.0159 40.9751 19.9574 40.8827 20.1983ZM10.7171 29.558C10.4924 29.7828 10.5659 30.1032 11.0382 30.9579C11.8398 32.4085 13.7763 34.0694 14.2285 33.6943C14.5488 33.4285 14.4221 33.1834 13.7495 32.7683C12.9091 32.2496 12.1693 31.4072 11.6146 30.3374C11.1724 29.4847 10.9681 29.3072 10.7171 29.558ZM9.16589 30.2469C8.99322 30.455 9.1313 30.9697 9.63478 31.9945C10.3259 33.4013 11.821 34.8443 12.3692 34.6338C12.6594 34.5226 12.5846 34.0824 12.2412 33.8795C11.3304 33.3414 10.4455 32.1327 9.98238 30.7942C9.7415 30.0976 9.45129 29.903 9.16589 30.2469Z" fill="black"/>
</svg>
