<svg width="77" height="48" viewBox="0 0 77 48" fill="none" xmlns="http://www.w3.org/2000/svg">
<rect width="77" height="48" rx="8" fill="white"/>
<g clip-path="url(#clip0_2383_94)">
<path d="M45.4021 12.1843H31.5537V36.8157H45.4021V12.1843Z" fill="#FF5F00"/>
<path d="M32.433 24.5C32.433 19.713 34.6751 15.1435 38.456 12.1843C31.5977 6.83148 21.618 8.00648 16.2106 14.8389C10.847 21.6278 12.0341 31.463 18.9363 36.8157C24.6955 41.2982 32.7407 41.2982 38.4999 36.8157C34.6751 33.8565 32.433 29.287 32.433 24.5Z" fill="#EB001B"/>
<path d="M64.0866 24.5C64.0866 33.1602 57.0085 40.1667 48.2598 40.1667C44.6988 40.1667 41.2697 38.9917 38.5 36.8157C45.3583 31.463 46.5453 21.6278 41.1378 14.7954C40.3465 13.838 39.4672 12.9241 38.5 12.1843C45.3583 6.83148 55.3379 8.00648 60.7014 14.8389C62.8996 17.5806 64.0866 20.975 64.0866 24.5Z" fill="#F79E1B"/>
</g>
<defs>
<clipPath id="clip0_2383_94">
<rect width="67" height="47" fill="white" transform="translate(5 1)"/>
</clipPath>
</defs>
</svg>
