<svg width="77" height="48" viewBox="0 0 77 48" fill="none" xmlns="http://www.w3.org/2000/svg">
<rect width="77" height="48" rx="8" fill="white"/>
<g clip-path="url(#clip0_2383_105)">
<path d="M30.4389 13.3889L21.6672 34.6672H15.9443L11.6277 17.6861C11.3657 16.6402 11.1378 16.257 10.3408 15.8163C9.03952 15.0986 6.89065 14.4252 5 14.0073L5.12842 13.3889H14.3405C15.5148 13.3889 16.5704 14.1836 16.837 15.5584L19.1167 27.8711L24.7509 13.3885H30.4389V13.3889ZM52.8622 27.72C52.8852 22.104 45.2242 21.7946 45.2769 19.2859C45.2933 18.5224 46.0083 17.7106 47.5734 17.5034C48.3491 17.4001 50.4865 17.3214 52.9107 18.4557L53.8616 13.9434C52.5589 13.4626 50.8829 13 48.7975 13C43.4463 13 39.6803 15.8923 39.6486 20.0338C39.614 23.0971 42.3366 24.8064 44.3878 25.8243C46.4979 26.8667 47.2059 27.5366 47.1979 28.469C47.1829 29.8963 45.5149 30.5264 43.9561 30.5512C41.2349 30.5938 39.6559 29.8026 38.3972 29.2076L37.416 33.8693C38.6809 34.4593 41.0158 34.9741 43.4365 35C49.1242 35 52.8447 32.1436 52.8622 27.72ZM66.9928 34.6672H72L67.6293 13.3888H63.0077C61.9685 13.3888 61.092 14.0041 60.7039 14.9499L52.5799 34.6672H58.2647L59.3932 31.489H66.3392L66.9928 34.6672ZM60.952 27.1278L63.8016 19.1386L65.4417 27.1278H60.952ZM38.1742 13.3889L33.6975 34.6672H28.2838L32.7623 13.3889H38.1742Z" fill="#1434CB"/>
</g>
<defs>
<clipPath id="clip0_2383_105">
<rect width="67" height="22" fill="white" transform="translate(5 13)"/>
</clipPath>
</defs>
</svg>
