<svg width="48" height="48" viewBox="0 0 48 48" fill="none" xmlns="http://www.w3.org/2000/svg">
<path d="M26.5 22L13 8.5M23.5 8L10 22" stroke="black" stroke-linecap="round"/>
<path d="M24 27L24 40" stroke="black" stroke-linecap="round"/>
<path d="M9.44721 9.10569C9.786 8.42812 10.4785 8.00012 11.2361 8.00012H36.7639C37.5215 8.00012 38.214 8.42812 38.5528 9.10569L44.2764 20.5528C44.6088 21.2177 44.1253 22 43.382 22H4.61804C3.87466 22 3.39116 21.2177 3.72361 20.5528L9.44721 9.10569Z" stroke="black"/>
<path d="M40 28.5V22H8V38C8 39.1046 8.89543 40 10 40H32" stroke="black"/>
<path d="M32 40H16V29C16 27.8954 16.8954 27 18 27H30C31.1046 27 32 27.8954 32 29V30" stroke="black"/>
<path d="M21.5 34.5V33.5M26.5 34.5V33.5" stroke="black" stroke-linecap="round"/>
<path d="M39.74 39.1831L40.0144 39.6011L40.528 39.2639L40.0936 38.8295L39.74 39.1831ZM32.8169 32.26L33.1705 31.9064L32.7361 31.472L32.3989 31.9856L32.8169 32.26ZM34.2253 30.8399L33.9475 30.4242L33.441 30.7627L33.8717 31.1935L34.2253 30.8399ZM41.1601 37.7747L40.8065 38.1283L41.2373 38.559L41.5758 38.0525L41.1601 37.7747ZM37 42.5C41.1421 42.5 44.5 39.1421 44.5 35H43.5C43.5 38.5899 40.5899 41.5 37 41.5V42.5ZM29.5 35C29.5 39.1421 32.8579 42.5 37 42.5V41.5C33.4101 41.5 30.5 38.5899 30.5 35H29.5ZM37 27.5C32.8579 27.5 29.5 30.8579 29.5 35H30.5C30.5 31.4101 33.4101 28.5 37 28.5V27.5ZM44.5 35C44.5 30.8579 41.1421 27.5 37 27.5V28.5C40.5899 28.5 43.5 31.4101 43.5 35H44.5ZM37 40.5C38.1121 40.5 39.1484 40.1694 40.0144 39.6011L39.4657 38.7651C38.7577 39.2297 37.9112 39.5 37 39.5V40.5ZM31.5 35C31.5 38.0376 33.9624 40.5 37 40.5V39.5C34.5147 39.5 32.5 37.4853 32.5 35H31.5ZM32.3989 31.9856C31.8306 32.8516 31.5 33.8879 31.5 35H32.5C32.5 34.0888 32.7703 33.2423 33.2349 32.5343L32.3989 31.9856ZM40.0936 38.8295L33.1705 31.9064L32.4634 32.6135L39.3865 39.5366L40.0936 38.8295ZM33.8717 31.1935L40.8065 38.1283L41.5136 37.4212L34.5788 30.4864L33.8717 31.1935ZM37 29.5C35.8715 29.5 34.821 29.8404 33.9475 30.4242L34.5031 31.2556C35.2173 30.7783 36.0754 30.5 37 30.5V29.5ZM42.5 35C42.5 31.9624 40.0376 29.5 37 29.5V30.5C39.4853 30.5 41.5 32.5147 41.5 35H42.5ZM41.5758 38.0525C42.1596 37.179 42.5 36.1285 42.5 35H41.5C41.5 35.9246 41.2217 36.7827 40.7444 37.4969L41.5758 38.0525Z" fill="black"/>
</svg>
