<svg width="48" height="48" viewBox="0 0 48 48" fill="none" xmlns="http://www.w3.org/2000/svg">
<path d="M26.5 22L13 8.5M23.5 8L10 22" stroke="black" stroke-linecap="round"/>
<path d="M24 27L24 40" stroke="black" stroke-linecap="round"/>
<path d="M9.44721 9.10569C9.786 8.42812 10.4785 8.00012 11.2361 8.00012H36.7639C37.5215 8.00012 38.214 8.42812 38.5528 9.10569L44.2764 20.5528C44.6088 21.2177 44.1253 22 43.382 22H4.61804C3.87466 22 3.39116 21.2177 3.72361 20.5528L9.44721 9.10569Z" stroke="black"/>
<path d="M40 32.5V22H8V38C8 39.1046 8.89543 40 10 40H29.5" stroke="black"/>
<path d="M37 33V37" stroke="black" stroke-linecap="round"/>
<path d="M37 39V39.5" stroke="black" stroke-linecap="round"/>
<path d="M29.5 40H16V29C16 27.8954 16.8954 27 18 27H30C31.1046 27 32 27.8954 32 29V35.5" stroke="black"/>
<path d="M21.5 34.5V33.5M26.5 34.5V33.5" stroke="black" stroke-linecap="round"/>
<path d="M35.9181 29.1136L35.9181 29.1136L29.6747 39.6162C29.5618 39.8061 29.5014 40.0226 29.5 40.2437C29.4987 40.4647 29.5564 40.6819 29.6669 40.8732C29.7775 41.0645 29.9368 41.2228 30.1281 41.3326C30.3194 41.4424 30.5362 41.5 30.7566 41.5H43.2434C43.4638 41.5 43.6806 41.4424 43.8719 41.3326C44.0632 41.2228 44.2225 41.0645 44.333 40.8732C44.4436 40.6819 44.5013 40.4647 44.5 40.2437C44.4986 40.0226 44.4382 39.8061 44.3253 39.6162L38.0819 29.1136L38.0819 29.1136C37.9704 28.9259 37.8116 28.771 37.6219 28.6636C37.4322 28.5563 37.2178 28.5 37 28.5C36.7822 28.5 36.5678 28.5563 36.3781 28.6636C36.1884 28.771 36.0296 28.9259 35.9181 29.1136Z" stroke="black"/>
</svg>
