<svg width="48" height="48" viewBox="0 0 48 48" fill="none" xmlns="http://www.w3.org/2000/svg">
<path d="M27.5 22L14 8.5M24.5 8L11 22" stroke="black" stroke-linecap="round"/>
<path d="M24 27L24 40" stroke="black" stroke-linecap="round"/>
<path d="M10.4472 9.10569C10.786 8.42812 11.4785 8.00012 12.2361 8.00012H35.2639C36.0215 8.00012 36.714 8.42812 37.0528 9.10569L42.7764 20.5528C43.1088 21.2177 42.6253 22 41.882 22H5.61804C4.87466 22 4.39116 21.2177 4.72361 20.5528L10.4472 9.10569Z" stroke="black"/>
<path d="M39 28.5V22H9V38C9 39.1046 9.89543 40 11 40H37C38.1046 40 39 39.1046 39 38V33.5" stroke="black"/>
<path d="M32 28L31.5858 27.5858C31.2107 27.2107 30.702 27 30.1716 27H18C16.8954 27 16 27.8954 16 29V40H32V35" stroke="black"/>
<path d="M26.5 34.5V33.5M21.5 34.5V33.5" stroke="black" stroke-linecap="round"/>
<path d="M34.5 25L30.0931 30.2081C29.4622 30.9538 29.4622 32.0462 30.0931 32.7919L34.5 38V34H37C41.4183 34 45 30.4183 45 26V24L43.7478 26.087C42.6635 27.8942 40.7104 29 38.6029 29H34.5V25Z" stroke="black" stroke-linejoin="round"/>
</svg>
