<svg width="48" height="48" viewBox="0 0 48 48" fill="none" xmlns="http://www.w3.org/2000/svg">
<path d="M26.5 24L13 10.5M23.5 10L10 24" stroke="black" stroke-linecap="round"/>
<path d="M24 29L24 42" stroke="black" stroke-linecap="round"/>
<path d="M28.5 10.0001L11.2361 10.0001C10.4785 10.0001 9.786 10.4281 9.44721 11.1057L3.72361 22.5528C3.39116 23.2177 3.87466 24 4.61804 24H43.4612C44.1849 24 44.669 23.2552 44.375 22.5939L43 19.5M30.5 10.0001H36.5M38.5 11L42 17.5" stroke="black"/>
<path d="M8 24H40V40C40 41.1046 39.1046 42 38 42H10C8.89543 42 8 41.1046 8 40V24Z" stroke="black"/>
<path d="M16 31C16 29.8954 16.8954 29 18 29H30C31.1046 29 32 29.8954 32 31V42H16V31Z" stroke="black"/>
<path d="M21.5 36.5V35.5M26.5 36.5V35.5" stroke="black" stroke-linecap="round"/>
<path d="M31.5205 16.4791L31.5206 16.4792L31.5205 16.4791ZM31.5205 16.4791C31.4946 16.4533 31.4937 16.4134 31.5152 16.3874L31.516 16.3864M31.5205 16.4791L31.516 16.3864M31.516 16.3864L38.797 7.52659L38.7977 7.52576M31.516 16.3864L38.7977 7.52576M38.7977 7.52576C38.809 7.51197 38.8272 7.50155 38.8498 7.50004C38.8707 7.49937 38.8902 7.50736 38.9039 7.52102L40.4795 9.09231C40.4936 9.10643 40.5008 9.12564 40.4999 9.14431C40.499 9.1635 40.4898 9.18172 40.4751 9.19377L40.4741 9.19458M38.7977 7.52576L40.4741 9.19458M40.4741 9.19458L31.6179 16.4836M40.4741 9.19458L31.6179 16.4836M31.6179 16.4836C31.6178 16.4836 31.6177 16.4837 31.6177 16.4837M31.6179 16.4836L31.6177 16.4837M31.6177 16.4837C31.5889 16.5072 31.5465 16.5049 31.5207 16.4793L31.6177 16.4837Z" stroke="black"/>
<path d="M43.3933 17.5007L43.3939 17.5007C43.4423 17.4965 43.48 17.5121 43.4971 17.5255L43.4983 17.5264C43.4989 17.5269 43.4995 17.5274 43.5 17.5278V19.4723C43.4994 19.4729 43.4986 19.4734 43.4979 19.474C43.4805 19.4877 43.4427 19.5034 43.3935 19.4994C43.3934 19.4994 43.3934 19.4994 43.3934 19.4994L31.5759 18.5254L31.5753 18.5253C31.5598 18.5241 31.5467 18.5211 31.5357 18.5175C31.5467 18.5139 31.5598 18.5109 31.5752 18.5096C31.5752 18.5096 31.5752 18.5096 31.5753 18.5096L43.3933 17.5007Z" stroke="black"/>
<path d="M29.4747 16.4247L29.4746 16.4241L28.5006 4.60657C28.5006 4.60656 28.5006 4.60655 28.5006 4.60655C28.4966 4.55725 28.5123 4.51954 28.526 4.50214C28.5266 4.50136 28.5271 4.50065 28.5277 4.5H30.4722C30.4726 4.50053 30.4731 4.50109 30.4736 4.50171L30.4736 4.50171L30.4745 4.50294C30.4879 4.51997 30.5035 4.55773 30.4993 4.60612L30.4993 4.60668L29.4904 16.4251L29.4903 16.4258C29.4891 16.441 29.4862 16.454 29.4826 16.4647C29.4789 16.4537 29.4759 16.4404 29.4747 16.4247Z" stroke="black"/>
</svg>
