<svg width="48" height="48" viewBox="0 0 48 48" fill="none" xmlns="http://www.w3.org/2000/svg">
<path d="M26.1548 8.677L25.7252 8.92971L26.1548 8.67699C25.934 8.30172 25.6191 7.9906 25.2412 7.77445C24.8632 7.55829 24.4354 7.44458 24 7.44458C23.5646 7.44458 23.1368 7.55829 22.7588 7.77445C22.3809 7.9906 22.0659 8.30172 21.8452 8.67699L22.2508 8.9156L21.8452 8.677L5.34198 36.7323C5.1186 37.1121 4.99954 37.5441 4.99686 37.9847C4.99417 38.4252 5.10796 38.8587 5.32669 39.2411C5.54543 39.6235 5.86134 39.9414 6.24244 40.1624C6.62354 40.3835 7.05629 40.4999 7.49686 40.4999H40.5031C40.9437 40.4999 41.3764 40.3835 41.7575 40.1624C42.1386 39.9414 42.4546 39.6235 42.6733 39.2411C42.892 38.8587 43.0058 38.4252 43.0031 37.9847C43.0005 37.5441 42.8814 37.1121 42.658 36.7323L26.1548 8.677Z" stroke="black"/>
<path d="M23.1736 17.5H24.8264C25.704 17.5 26.3941 18.25 26.3212 19.1246L25.6546 27.1246C25.5898 27.902 24.9399 28.5 24.1597 28.5H23.8403C23.0601 28.5 22.4102 27.902 22.3454 27.1246L21.6788 19.1246C21.6059 18.25 22.296 17.5 23.1736 17.5Z" stroke="black"/>
<circle cx="24" cy="34" r="2.5" stroke="black"/>
</svg>
