<svg width="48" height="48" viewBox="0 0 48 48" fill="none" xmlns="http://www.w3.org/2000/svg">
<path d="M33.5 18C34.5189 17.4117 35.0336 17.2751 36.0074 16.7394C38.4621 15.3888 40.6562 14.1815 42 13C43.2868 11.8685 44.1841 10.6009 43.4513 9.33172L43.4236 9.28366C43.1461 8.84107 42.7394 8.49433 42.2585 8.2903C41.7775 8.08626 41.2456 8.03477 40.7345 8.14277L38.1183 8.57849C36.1792 8.90552 34.3145 9.57775 32.6128 10.5633L16.3838 19.9331L6.17533 16.3998C5.92722 16.3139 5.6598 16.2837 5.39242 16.3113C5.12503 16.3389 4.86434 16.4236 4.62919 16.5593L3 17.5L9.60041 23.8494L8.71813 24.2283C8.41287 24.3801 8.17988 24.6462 8.06989 24.9689C7.9599 25.2915 7.98181 25.6446 8.13086 25.9512C8.22277 26.1042 8.34928 26.2335 8.50021 26.3288C8.65115 26.4241 8.82232 26.4827 9 26.5L15.0021 27.2225C16.3967 27.3757 17.8036 27.0752 19.0139 26.3657L26 22.5" stroke="black"/>
<path d="M22.5243 10.1214L30.593 11.7203L25.8706 14.4468L17.3715 11.8573L19.4153 10.6773C19.8966 10.3994 20.4201 10.208 20.9548 10.1131C21.4896 10.0182 22.0229 10.022 22.5243 10.1214Z" stroke="black"/>
<path d="M4 40L32 40" stroke="black" stroke-linecap="round"/>
<path d="M34.6147 14.0262L31.2317 26.6519C31.0278 27.413 30.6759 28.1265 30.1962 28.7516C29.7166 29.3767 29.1185 29.9012 28.4361 30.2952L24.5263 32.5525L26.8205 18.5262L34.6147 14.0262Z" stroke="black"/>
<path d="M37 10.5L18.5 21" stroke="black" stroke-linecap="round" stroke-dasharray="1 3"/>
<path d="M39.74 39.1831L40.0144 39.6011L40.528 39.2639L40.0936 38.8295L39.74 39.1831ZM32.8169 32.26L33.1705 31.9064L32.7361 31.472L32.3989 31.9856L32.8169 32.26ZM34.2253 30.8399L33.9475 30.4242L33.441 30.7627L33.8717 31.1935L34.2253 30.8399ZM41.1601 37.7747L40.8065 38.1283L41.2373 38.559L41.5758 38.0525L41.1601 37.7747ZM37 42.5C41.1421 42.5 44.5 39.1421 44.5 35H43.5C43.5 38.5899 40.5899 41.5 37 41.5V42.5ZM29.5 35C29.5 39.1421 32.8579 42.5 37 42.5V41.5C33.4101 41.5 30.5 38.5899 30.5 35H29.5ZM37 27.5C32.8579 27.5 29.5 30.8579 29.5 35H30.5C30.5 31.4101 33.4101 28.5 37 28.5V27.5ZM44.5 35C44.5 30.8579 41.1421 27.5 37 27.5V28.5C40.5899 28.5 43.5 31.4101 43.5 35H44.5ZM37 40.5C38.1121 40.5 39.1484 40.1694 40.0144 39.6011L39.4657 38.7651C38.7577 39.2297 37.9112 39.5 37 39.5V40.5ZM31.5 35C31.5 38.0376 33.9624 40.5 37 40.5V39.5C34.5147 39.5 32.5 37.4853 32.5 35H31.5ZM32.3989 31.9856C31.8306 32.8516 31.5 33.8879 31.5 35H32.5C32.5 34.0888 32.7703 33.2423 33.2349 32.5343L32.3989 31.9856ZM40.0936 38.8295L33.1705 31.9064L32.4634 32.6135L39.3865 39.5366L40.0936 38.8295ZM33.8717 31.1935L40.8065 38.1283L41.5136 37.4212L34.5788 30.4864L33.8717 31.1935ZM37 29.5C35.8715 29.5 34.821 29.8404 33.9475 30.4242L34.5031 31.2556C35.2173 30.7783 36.0754 30.5 37 30.5V29.5ZM42.5 35C42.5 31.9624 40.0376 29.5 37 29.5V30.5C39.4853 30.5 41.5 32.5147 41.5 35H42.5ZM41.5758 38.0525C42.1596 37.179 42.5 36.1285 42.5 35H41.5C41.5 35.9246 41.2217 36.7827 40.7444 37.4969L41.5758 38.0525Z" fill="black"/>
</svg>
