<svg width="48" height="48" viewBox="0 0 48 48" fill="none" xmlns="http://www.w3.org/2000/svg">
<path d="M17.4187 33.2816L20.6825 35.5403L29.4525 41.6138C29.7397 41.8127 30.0708 41.9391 30.4175 41.9821C30.7643 42.0251 31.1162 41.9835 31.4434 41.8608C31.7705 41.7382 32.0631 41.5381 32.296 41.2777C32.5289 41.0173 32.6953 40.7043 32.781 40.3656L40.9835 7.99345C41.0102 7.75722 40.972 7.51818 40.8729 7.30205C40.7739 7.08593 40.6178 6.90089 40.4215 6.76685L31.9995 15.3544L17.4187 33.2816ZM17.4187 33.2816L15 41.8608" stroke="black" stroke-linejoin="round"/>
<path d="M20.5 35.5L16.1909 41.2454C15.6259 41.9987 14.4279 41.6248 14.3917 40.6838L14 30.5" stroke="black"/>
<path fill-rule="evenodd" clip-rule="evenodd" d="M40.4215 6.76684L31.9995 15.3544L13.7824 30.7636L6.9633 26.0464C6.6526 25.8313 6.40375 25.5384 6.24159 25.1971C6.07943 24.8557 6.00962 24.4778 6.03913 24.1011C6.06865 23.7243 6.19645 23.3619 6.40979 23.05C6.62313 22.738 6.91454 22.4875 7.25495 22.3234L39.465 6.75604C39.6138 6.68157 39.7782 6.6437 39.9446 6.64557C40.1109 6.64745 40.2744 6.68903 40.4215 6.76684V6.76684Z" stroke="black" stroke-linejoin="round"/>
</svg>
