<svg width="48" height="48" viewBox="0 0 48 48" fill="none" xmlns="http://www.w3.org/2000/svg">
<path d="M4.5 30V30.0001C4.49988 30.4598 4.59032 30.9149 4.76616 31.3396C4.94201 31.7643 5.1998 32.1502 5.52482 32.4752C5.84983 32.8002 6.23571 33.058 6.66039 33.2338C7.08506 33.4097 7.54023 33.5001 7.99987 33.5H8H30H30.2071L30.3536 33.6464L35.5 38.7929V34V33.5H36H39.9993C40.9267 33.4965 41.8151 33.1266 42.4709 32.4709C43.1267 31.815 43.4966 30.9265 43.5 29.9991L43.5 12L43.5 11.9999C43.5001 11.5402 43.4097 11.0851 43.2338 10.6604C43.058 10.2357 42.8002 9.84984 42.4752 9.52482C42.1502 9.1998 41.7643 8.94201 41.3396 8.76617C40.9149 8.59032 40.4598 8.49988 40.0001 8.5H40L8 8.5L7.99987 8.5C7.54023 8.49988 7.08506 8.59032 6.66039 8.76617C6.23571 8.94201 5.84983 9.1998 5.52482 9.52482C5.1998 9.84984 4.94201 10.2357 4.76616 10.6604C4.59032 11.0851 4.49988 11.5402 4.5 11.9999L4 12H4.5V30Z" stroke="black"/>
<circle cx="18" cy="21" r="1.5" stroke="black"/>
<circle cx="24" cy="21" r="1.5" stroke="black"/>
<circle cx="30" cy="21" r="1.5" stroke="black"/>
</svg>
