<svg width="48" height="48" viewBox="0 0 48 48" fill="none" xmlns="http://www.w3.org/2000/svg">
<path d="M43.5 30V30.0001C43.5001 30.4598 43.4097 30.9149 43.2338 31.3396C43.058 31.7643 42.8002 32.1502 42.4752 32.4752C42.1502 32.8002 41.7643 33.058 41.3396 33.2338C40.9149 33.4097 40.4598 33.5001 40.0001 33.5H40H18H17.7929L17.6464 33.6464L12.5 38.7929V34V33.5H12H8.00065C7.0733 33.4965 6.1849 33.1266 5.52914 32.4709C4.87333 31.815 4.5034 30.9265 4.5 29.9991L4.5 12L4.5 11.9999C4.49988 11.5402 4.59032 11.0851 4.76617 10.6604C4.94201 10.2357 5.1998 9.84984 5.52482 9.52482C5.84984 9.1998 6.23571 8.94201 6.66038 8.76617C7.08506 8.59032 7.54023 8.49988 7.99987 8.5H8L40 8.5L40.0001 8.5C40.4598 8.49988 40.9149 8.59032 41.3396 8.76617C41.7643 8.94201 42.1502 9.1998 42.4752 9.52482C42.8002 9.84984 43.058 10.2357 43.2338 10.6604C43.4097 11.0851 43.5001 11.5402 43.5 11.9999L44 12H43.5V30Z" stroke="black"/>
<path d="M22 19.5L22.5 19.5V19V16C22.5 15.7239 22.7239 15.5 23 15.5H25C25.2761 15.5 25.5 15.7239 25.5 16V19V19.5H26L29 19.5C29.2761 19.5 29.5 19.7239 29.5 20V22C29.5 22.2761 29.2761 22.5 29 22.5H26H25.5V23V26C25.5 26.2761 25.2761 26.5 25 26.5H23C22.7239 26.5 22.5 26.2761 22.5 26V23V22.5H22H19C18.7239 22.5 18.5 22.2761 18.5 22V20C18.5 19.7239 18.7239 19.5 19 19.5H22Z" stroke="black"/>
</svg>
