<svg width="48" height="48" viewBox="0 0 48 48" fill="none" xmlns="http://www.w3.org/2000/svg">
<path d="M43.5 30V30.0001C43.5001 30.4598 43.4097 30.9149 43.2338 31.3396C43.058 31.7643 42.8002 32.1502 42.4752 32.4752C42.1502 32.8002 41.7643 33.058 41.3396 33.2338C40.9149 33.4097 40.4598 33.5001 40.0001 33.5H40H18H17.7929L17.6464 33.6464L12.5 38.7929V34V33.5H12H8.00065C7.0733 33.4965 6.1849 33.1266 5.52914 32.4709C4.87333 31.815 4.5034 30.9265 4.5 29.9991L4.5 12L4.5 11.9999C4.49988 11.5402 4.59032 11.0851 4.76617 10.6604C4.94201 10.2357 5.1998 9.84984 5.52482 9.52482C5.84984 9.1998 6.23571 8.94201 6.66038 8.76617C7.08506 8.59032 7.54023 8.49988 7.99987 8.5H8L40 8.5L40.0001 8.5C40.4598 8.49988 40.9149 8.59032 41.3396 8.76617C41.7643 8.94201 42.1502 9.1998 42.4752 9.52482C42.8002 9.84984 43.058 10.2357 43.2338 10.6604C43.4097 11.0851 43.5001 11.5402 43.5 11.9999L44 12H43.5V30Z" stroke="black"/>
<path d="M23.6464 19.0104L24 19.364L24.3535 19.0104L26.4749 16.8891C26.6701 16.6938 26.9867 16.6938 27.182 16.8891L28.5962 18.3033C28.7914 18.4986 28.7914 18.8151 28.5962 19.0104L26.4749 21.1317L26.1213 21.4853L26.4749 21.8388L28.5962 23.9602C28.7914 24.1554 28.7914 24.472 28.5962 24.6673L27.182 26.0815C26.9867 26.2767 26.6701 26.2767 26.4749 26.0815L24.3535 23.9602L24 23.6066L23.6464 23.9602L21.5251 26.0815C21.3298 26.2767 21.0133 26.2767 20.818 26.0815L19.4038 24.6673C19.2085 24.472 19.2085 24.1554 19.4038 23.9602L21.5251 21.8388L21.8787 21.4853L21.5251 21.1317L19.4038 19.0104C19.2085 18.8151 19.2085 18.4986 19.4038 18.3033L20.818 16.8891C21.0133 16.6938 21.3298 16.6938 21.5251 16.8891L23.6464 19.0104Z" stroke="black"/>
</svg>
