<svg width="48" height="48" viewBox="0 0 48 48" fill="none" xmlns="http://www.w3.org/2000/svg">
<rect x="4.5" y="6.5" width="3" height="35" rx="1.5" stroke="black"/>
<path d="M7.5 32.8367V8.19249C9.09576 6.48419 11.5304 6.009 14.5543 6.24851C17.6532 6.49398 21.2284 7.47831 24.867 8.48207L24.8998 8.49111C28.5006 9.48444 32.1629 10.4947 35.3668 10.7485C38.1175 10.9664 40.6354 10.6353 42.5 9.16345V33.8077C40.9042 35.516 38.4696 35.9911 35.4457 35.7516C32.3468 35.5062 28.7716 34.5218 25.133 33.5181L25.1002 33.5091C21.4994 32.5157 17.8371 31.5054 14.6332 31.2516C11.8825 31.0337 9.36462 31.3649 7.5 32.8367Z" stroke="black"/>
<circle cx="25" cy="21" r="5.5" transform="rotate(5.18695 25 21)" stroke="black"/>
<path d="M11.914 19.8122L25.8485 11.653L38.086 22.188L24.1515 30.3472L11.914 19.8122Z" stroke="black"/>
<path d="M29.4045 23.1845C29.5363 23.4272 29.8398 23.5171 30.0825 23.3853C30.3252 23.2536 30.4151 22.95 30.2833 22.7073L29.4045 23.1845ZM19.7727 19.4957C21.2712 19.1429 23.0821 18.9552 24.811 19.4071C26.5195 19.8537 28.1815 20.9324 29.4045 23.1845L30.2833 22.7073C28.9254 20.2067 27.0336 18.9545 25.0639 18.4397C23.1148 17.9301 21.1232 18.1504 19.5435 18.5223L19.7727 19.4957Z" fill="black"/>
</svg>
