<svg width="48" height="48" viewBox="0 0 48 48" fill="none" xmlns="http://www.w3.org/2000/svg">
<path d="M33.2236 37.9472C33.4706 37.8237 33.5707 37.5234 33.4472 37.2764C33.3237 37.0294 33.0234 36.9293 32.7764 37.0528L33.2236 37.9472ZM40.8944 14.4472L40.6708 14.8944L40.8944 14.4472ZM23.1056 6.44721L22.882 6L23.1056 6.44721ZM7.10557 33.5528L6.88197 34L7.10557 33.5528ZM23.3292 41.1056L7.32918 33.1056L6.88197 34L22.882 42L23.3292 41.1056ZM6.5 31.7639V16.2361H5.5V31.7639H6.5ZM7.32918 14.8944L23.3292 6.89443L22.882 6L6.88197 14L7.32918 14.8944ZM24.6708 6.89443L40.6708 14.8944L41.118 14L25.118 6L24.6708 6.89443ZM41.5 16.2361V32.0661H42.5V16.2361H41.5ZM32.7764 37.0528L24.6708 41.1056L25.118 42L33.2236 37.9472L32.7764 37.0528ZM41.5 32.0661C41.5 32.4491 41.2836 32.7992 40.9411 32.9704L41.3883 33.8649C42.0696 33.5242 42.5 32.8278 42.5 32.0661H41.5ZM40.6708 14.8944C41.179 15.1485 41.5 15.6679 41.5 16.2361H42.5C42.5 15.2891 41.965 14.4235 41.118 14L40.6708 14.8944ZM23.3292 6.89443C23.7515 6.68328 24.2485 6.68328 24.6708 6.89443L25.118 6C24.4142 5.64809 23.5858 5.64809 22.882 6L23.3292 6.89443ZM6.5 16.2361C6.5 15.6679 6.821 15.1485 7.32918 14.8944L6.88197 14C6.03501 14.4235 5.5 15.2891 5.5 16.2361H6.5ZM7.32918 33.1056C6.821 32.8515 6.5 32.3321 6.5 31.7639H5.5C5.5 32.7109 6.03501 33.5765 6.88197 34L7.32918 33.1056ZM22.882 42C23.5858 42.3519 24.4142 42.3519 25.118 42L24.6708 41.1056C24.2485 41.3167 23.7515 41.3167 23.3292 41.1056L22.882 42Z" fill="black"/>
<path d="M24 42V24.45M24 24.45L6 15M24 24.45L42 15" stroke="black"/>
<path d="M13 11.7273L30.6923 20.8182V27.3619C30.6923 28.1101 31.4839 28.5933 32.1493 28.2513L34.9141 26.8307C35.5808 26.4881 36 25.8014 36 25.0518V18.0909L18.3077 9" stroke="black"/>
<path d="M9 30.382V26.809C9 26.4373 9.39116 26.1956 9.72361 26.3618L13.4472 28.2236C13.786 28.393 14 28.7393 14 29.118V32.691C14 33.0627 13.6088 33.3044 13.2764 33.1382L9.55279 31.2764C9.214 31.107 9 30.7607 9 30.382Z" stroke="black" stroke-linecap="round"/>
<path d="M36.1317 34.0104L36.4853 34.364L36.8388 34.0104L38.9602 31.8891C39.1554 31.6938 39.472 31.6938 39.6673 31.8891L41.0815 33.3033C41.2767 33.4986 41.2767 33.8151 41.0815 34.0104L38.9602 36.1317L38.6066 36.4853L38.9602 36.8388L41.0815 38.9602C41.2767 39.1554 41.2767 39.472 41.0815 39.6673L39.6673 41.0815C39.472 41.2767 39.1554 41.2767 38.9602 41.0815L36.8388 38.9602L36.4853 38.6066L36.1317 38.9602L34.0104 41.0815C33.8151 41.2767 33.4986 41.2767 33.3033 41.0815L31.8891 39.6673C31.6938 39.472 31.6938 39.1554 31.8891 38.9602L34.0104 36.8388L34.364 36.4853L34.0104 36.1317L31.8891 34.0104C31.6938 33.8151 31.6938 33.4986 31.8891 33.3033L33.3033 31.8891C33.4986 31.6938 33.8151 31.6938 34.0104 31.8891L36.1317 34.0104Z" stroke="black"/>
</svg>
