<svg width="48" height="48" viewBox="0 0 48 48" fill="none" xmlns="http://www.w3.org/2000/svg">
<path d="M9.5 27L5.09313 32.2081C4.46216 32.9538 4.46216 34.0462 5.09313 34.7919L9.5 40V36H12C16.4183 36 20 32.4183 20 28V26L18.7478 28.087C17.6635 29.8942 15.7104 31 13.6029 31H9.5V27Z" stroke="black" stroke-linejoin="round"/>
<path d="M13 36L24.1056 41.5528C24.6686 41.8343 25.3314 41.8343 25.8944 41.5528L41.8944 33.5528C42.572 33.214 43 32.5215 43 31.7639V16.2361C43 15.4785 42.572 14.786 41.8944 14.4472L25.8944 6.44721C25.3314 6.16569 24.6686 6.16569 24.1056 6.44721L8.10557 14.4472C7.428 14.786 7 15.4785 7 16.2361V30" stroke="black"/>
<path d="M25 42V24.45M25 24.45L7 15M25 24.45L43 15" stroke="black"/>
<path d="M14 11.7273L31.6923 20.8182V27.3619C31.6923 28.1101 32.4839 28.5933 33.1493 28.2513L35.9141 26.8307C36.5808 26.4881 37 25.8014 37 25.0518V18.0909L19.3077 9" stroke="black"/>
</svg>
