<svg width="48" height="48" viewBox="0 0 48 48" fill="none" xmlns="http://www.w3.org/2000/svg">
<path d="M38.9782 26.5V15.4806C38.9782 14.7231 38.5502 14.0306 37.8727 13.6918L23.3835 6.44721C22.8205 6.16569 22.1577 6.16569 21.5947 6.44721L7.10556 13.6918C6.428 14.0306 5.99999 14.7231 5.99999 15.4806V29.4976C5.99999 30.2552 6.428 30.9477 7.10557 31.2865L21.5352 38.5013C22.1314 38.7994 22.8369 38.7809 23.4167 38.4519L29.5 35" stroke="black"/>
<path d="M22.4891 38.9783V22.5862M22.4891 22.5862L38.0083 14.2446M22.4891 22.5862L6.96995 14.2446" stroke="black"/>
<path d="M32.6736 10.8497L16.5202 19.2265V24.7414C16.5202 25.4871 15.7336 25.9704 15.0684 25.6335L12.916 24.5433C12.2435 24.2027 11.8197 23.513 11.8197 22.7592V16.8457L27.8238 8.4248" stroke="black"/>
<rect x="28.5" y="26.5" width="13" height="3" rx="1.5" stroke="black"/>
<rect x="34.5" y="25.5" width="1" height="1" rx="0.5" stroke="black"/>
<path d="M33 39V32" stroke="black" stroke-linecap="round"/>
<path d="M37 39V32" stroke="black" stroke-linecap="round"/>
<path d="M29.5 29.5H40.5V40C40.5 40.8284 39.8284 41.5 39 41.5H31C30.1716 41.5 29.5 40.8284 29.5 40V29.5Z" stroke="black"/>
</svg>
