<svg width="48" height="48" viewBox="0 0 48 48" fill="none" xmlns="http://www.w3.org/2000/svg">
<path d="M37.74 39.1831L38.0144 39.6011L38.528 39.2639L38.0936 38.8295L37.74 39.1831ZM30.8169 32.26L31.1705 31.9064L30.7361 31.472L30.3989 31.9856L30.8169 32.26ZM32.2253 30.8399L31.9475 30.4242L31.441 30.7627L31.8717 31.1935L32.2253 30.8399ZM39.1601 37.7747L38.8065 38.1283L39.2373 38.559L39.5758 38.0525L39.1601 37.7747ZM35 42.5C39.1421 42.5 42.5 39.1421 42.5 35H41.5C41.5 38.5899 38.5899 41.5 35 41.5V42.5ZM27.5 35C27.5 39.1421 30.8579 42.5 35 42.5V41.5C31.4101 41.5 28.5 38.5899 28.5 35H27.5ZM35 27.5C30.8579 27.5 27.5 30.8579 27.5 35H28.5C28.5 31.4101 31.4101 28.5 35 28.5V27.5ZM42.5 35C42.5 30.8579 39.1421 27.5 35 27.5V28.5C38.5899 28.5 41.5 31.4101 41.5 35H42.5ZM35 40.5C36.1121 40.5 37.1484 40.1694 38.0144 39.6011L37.4657 38.7651C36.7577 39.2297 35.9112 39.5 35 39.5V40.5ZM29.5 35C29.5 38.0376 31.9624 40.5 35 40.5V39.5C32.5147 39.5 30.5 37.4853 30.5 35H29.5ZM30.3989 31.9856C29.8306 32.8516 29.5 33.8879 29.5 35H30.5C30.5 34.0888 30.7703 33.2423 31.2349 32.5343L30.3989 31.9856ZM38.0936 38.8295L31.1705 31.9064L30.4634 32.6135L37.3865 39.5366L38.0936 38.8295ZM31.8717 31.1935L38.8065 38.1283L39.5136 37.4212L32.5788 30.4864L31.8717 31.1935ZM35 29.5C33.8715 29.5 32.821 29.8404 31.9475 30.4242L32.5031 31.2556C33.2173 30.7783 34.0754 30.5 35 30.5V29.5ZM40.5 35C40.5 31.9624 38.0376 29.5 35 29.5V30.5C37.4853 30.5 39.5 32.5147 39.5 35H40.5ZM39.5758 38.0525C40.1596 37.179 40.5 36.1285 40.5 35H39.5C39.5 35.9246 39.2217 36.7827 38.7444 37.4969L39.5758 38.0525Z" fill="black"/>
<path d="M38.9782 29V15.4806C38.9782 14.7231 38.5502 14.0306 37.8727 13.6918L23.3835 6.44721C22.8205 6.16569 22.1577 6.16569 21.5947 6.44721L7.10556 13.6918C6.428 14.0306 5.99999 14.7231 5.99999 15.4806V29.4976C5.99999 30.2552 6.428 30.9477 7.10557 31.2865L21.5588 38.5131C22.142 38.8047 22.8306 38.7937 23.4041 38.4837L28 36" stroke="black"/>
<path d="M22.4891 38.9783V22.5862M22.4891 22.5862L38.0083 14.2446M22.4891 22.5862L6.96995 14.2446" stroke="black"/>
<path d="M32.6736 10.8497L16.5202 19.2265V24.7414C16.5202 25.4871 15.7336 25.9704 15.0684 25.6335L12.916 24.5433C12.2435 24.2027 11.8197 23.513 11.8197 22.7592V16.8457L27.8238 8.4248" stroke="black"/>
</svg>
