<svg width="48" height="48" viewBox="0 0 48 48" fill="none" xmlns="http://www.w3.org/2000/svg">
<path d="M36.9782 25.5V13.4806C36.9782 12.7231 36.5502 12.0306 35.8727 11.6918L21.3835 4.44721C20.8205 4.16569 20.1577 4.16569 19.5947 4.44721L5.10556 11.6918C4.428 12.0306 3.99999 12.7231 3.99999 13.4806V27.4976C3.99999 28.2552 4.428 28.9477 5.10557 29.2865L19.6008 36.5341C20.1604 36.8139 20.8187 36.8157 21.3799 36.5389L24.5 35" stroke="black"/>
<path d="M20.4891 36.9783V20.5862M20.4891 20.5862L36.0083 12.2446M20.4891 20.5862L4.96995 12.2446" stroke="black"/>
<path d="M30.6736 8.84968L14.5202 17.2265V22.7414C14.5202 23.4871 13.7336 23.9704 13.0684 23.6335L10.916 22.5433C10.2435 22.2027 9.81969 21.513 9.81969 20.7592V14.8457L25.8238 6.4248" stroke="black"/>
<path d="M30.5 31.5C30.5 31.8293 30.4101 32.1048 30.2911 32.2833C30.1697 32.4654 30.057 32.5 30 32.5C29.943 32.5 29.8303 32.4654 29.7089 32.2833C29.5899 32.1048 29.5 31.8293 29.5 31.5C29.5 31.1707 29.5899 30.8952 29.7089 30.7167C29.8303 30.5346 29.943 30.5 30 30.5C30.057 30.5 30.1697 30.5346 30.2911 30.7167C30.4101 30.8952 30.5 31.1707 30.5 31.5Z" stroke="black"/>
<path d="M36.5 31.5C36.5 31.8293 36.4101 32.1048 36.2911 32.2833C36.1697 32.4654 36.057 32.5 36 32.5C35.943 32.5 35.8303 32.4654 35.7089 32.2833C35.5899 32.1048 35.5 31.8293 35.5 31.5C35.5 31.1707 35.5899 30.8952 35.7089 30.7167C35.8303 30.5346 35.943 30.5 36 30.5C36.057 30.5 36.1697 30.5346 36.2911 30.7167C36.4101 30.8952 36.5 31.1707 36.5 31.5Z" stroke="black"/>
<circle cx="33" cy="33" r="8.5" stroke="black"/>
<path d="M28 35C30 39 36 39 38 35" stroke="black" stroke-linecap="round" stroke-linejoin="round"/>
</svg>
