<svg width="48" height="48" viewBox="0 0 48 48" fill="none" xmlns="http://www.w3.org/2000/svg">
<path d="M41 17V16.7361C41 15.9785 40.572 15.286 39.8944 14.9472L24.8944 7.44721C24.3313 7.16569 23.6686 7.16569 23.1055 7.44721L8.10554 14.9472C7.42797 15.286 6.99997 15.9785 6.99997 16.7361V17M41 25.5V31.2639C41 32.0215 40.572 32.714 39.8944 33.0528L24.8944 40.5528C24.3313 40.8343 23.6686 40.8343 23.1055 40.5528L8.10554 33.0528C7.42797 32.714 6.99997 32.0215 6.99997 31.2639V25.5" stroke="black"/>
<path d="M24 41V24.1M24 24.1L7.99997 15.5M24 24.1L40 15.5" stroke="black"/>
<path d="M7.5 15.5L4.68713 22.3313C4.29676 23.2793 4.68652 24.369 5.5896 24.8544L18.1334 31.5967C19.1464 32.1412 20.4087 31.7213 20.8937 30.6785L24 24" stroke="black"/>
<path d="M40.5 15.5L43.3129 22.3313C43.7032 23.2793 43.3135 24.369 42.4104 24.8544L29.8666 31.5967C28.8536 32.1412 27.5913 31.7213 27.1063 30.6785L24 24" stroke="black"/>
<path d="M24 23.5V7.5" stroke="black"/>
<path d="M10 27.5V30.382C10 30.7607 10.214 31.107 10.5528 31.2764L14.2764 33.1382C14.6088 33.3044 15 33.0627 15 32.691V30" stroke="black" stroke-linecap="round"/>
</svg>
