<svg width="48" height="48" viewBox="0 0 48 48" fill="none" xmlns="http://www.w3.org/2000/svg">
<path d="M29 36.5L34.2081 40.9069C34.9538 41.5378 36.0462 41.5378 36.7919 40.9069L42 36.5L38 36.5L38 34C38 29.5817 34.4183 26 30 26L28 26L30.087 27.2522C31.8942 28.3365 33 30.2896 33 32.3971L33 36.5L29 36.5Z" stroke="black" stroke-linejoin="round"/>
<path d="M24 42V24.45M24 24.45L42 15M24 24.45L6 15" stroke="black"/>
<path d="M35 11.7273L17.3077 20.8182V27.3619C17.3077 28.1101 16.5161 28.5933 15.8507 28.2513L13.0859 26.8307C12.4192 26.4881 12 25.8014 12 25.0518V18.0909L29.6923 9" stroke="black"/>
<path d="M31.2777 38.3612L24.8944 41.5528C24.3314 41.8343 23.6686 41.8343 23.1056 41.5528L7.10557 33.5528C6.428 33.214 6 32.5215 6 31.7639V16.2361C6 15.4785 6.428 14.786 7.10557 14.4472L23.1056 6.44721C23.6686 6.16569 24.3314 6.16569 24.8944 6.44721L40.8944 14.4472C41.572 14.786 42 15.4785 42 16.2361V31.7639C42 32.5215 41.572 33.214 40.8944 33.5528L38 35" stroke="black"/>
</svg>
