<svg width="48" height="48" viewBox="0 0 48 48" fill="none" xmlns="http://www.w3.org/2000/svg">
<path d="M39 27L38.9803 15.4783C38.9791 14.722 38.5512 14.0311 37.8748 13.6928L23.3835 6.44721C22.8205 6.16569 22.1577 6.16569 21.5947 6.44721L7.10556 13.6918C6.428 14.0306 5.99999 14.7231 5.99999 15.4806V29.4976C5.99999 30.2552 6.428 30.9477 7.10557 31.2865L21.5987 38.5331C22.1595 38.8134 22.8193 38.8146 23.3811 38.5363L28.5 36" stroke="black"/>
<path d="M22.4891 38.9783V22.5862M22.4891 22.5862L38.0083 14.2446M22.4891 22.5862L6.96995 14.2446" stroke="black"/>
<path d="M32.6736 10.8497L16.5202 19.2265V24.7414C16.5202 25.4871 15.7336 25.9704 15.0684 25.6335L12.916 24.5433C12.2435 24.2027 11.8197 23.513 11.8197 22.7592V16.8457L27.8238 8.4248" stroke="black"/>
<rect x="28.5" y="30.5" width="13" height="11" rx="1.5" stroke="black"/>
<path d="M39.5 29V30.5H30.5V29C30.5 26.5147 32.5147 24.5 35 24.5C37.4853 24.5 39.5 26.5147 39.5 29Z" stroke="black"/>
<circle cx="35" cy="35" r="1" fill="black" stroke="black"/>
<path d="M35 36V38" stroke="black" stroke-linecap="round"/>
</svg>
