<svg width="48" height="48" viewBox="0 0 48 48" fill="none" xmlns="http://www.w3.org/2000/svg">
<path d="M38.9782 20.5V15.4806C38.9782 14.7231 38.5502 14.0306 37.8727 13.6918L23.3836 6.44721C22.8205 6.16569 22.1578 6.16569 21.5947 6.44721L7.10557 13.6918C6.428 14.0306 6 14.7231 6 15.4806V29.4976C6 30.2552 6.428 30.9477 7.10557 31.2865L21.5483 38.5078C22.1373 38.8023 22.8335 38.788 23.4099 38.4696L31.5 34" stroke="black"/>
<path d="M22.4891 38.9783V22.5862M22.4891 22.5862L38.0083 14.2446M22.4891 22.5862L6.96996 14.2446" stroke="black"/>
<path d="M32.6736 10.8497L16.5202 19.2265V24.7414C16.5202 25.4871 15.7336 25.9704 15.0684 25.6335L12.916 24.5433C12.2435 24.2027 11.8197 23.513 11.8197 22.7592V16.8457L27.8238 8.4248" stroke="black"/>
<mask id="path-4-inside-1_1571_1382" fill="white">
<path fill-rule="evenodd" clip-rule="evenodd" d="M39 30.1973C40.7934 29.1599 42 27.2208 42 25C42 21.6863 39.3137 19 36 19C32.6863 19 30 21.6863 30 25C30 27.2208 31.2066 29.1599 33 30.1973V31C33 32.1046 33.8954 33 35 33H37C38.1046 33 39 32.1046 39 31V30.1973Z"/>
</mask>
<path d="M39 30.1973L38.4993 29.3317L38 29.6205V30.1973H39ZM33 30.1973H34V29.6205L33.5007 29.3317L33 30.1973ZM41 25C41 26.8494 39.9964 28.4657 38.4993 29.3317L39.5007 31.0629C41.5904 29.8541 43 27.5922 43 25H41ZM36 20C38.7614 20 41 22.2386 41 25H43C43 21.134 39.866 18 36 18V20ZM31 25C31 22.2386 33.2386 20 36 20V18C32.134 18 29 21.134 29 25H31ZM33.5007 29.3317C32.0036 28.4657 31 26.8494 31 25H29C29 27.5922 30.4096 29.8541 32.4993 31.0629L33.5007 29.3317ZM34 31V30.1973H32V31H34ZM35 32C34.4477 32 34 31.5523 34 31H32C32 32.6569 33.3431 34 35 34V32ZM37 32H35V34H37V32ZM38 31C38 31.5523 37.5523 32 37 32V34C38.6569 34 40 32.6569 40 31H38ZM38 30.1973V31H40V30.1973H38Z" fill="black" mask="url(#path-4-inside-1_1571_1382)"/>
<circle cx="34" cy="27" r="0.5" stroke="black"/>
<circle cx="38" cy="27" r="0.5" stroke="black"/>
<path d="M33.2321 34.866L32.799 34.616C32.661 34.8552 32.7429 35.161 32.9821 35.299L33.2321 34.866ZM31.616 35.6651C31.8552 35.8031 32.161 35.7212 32.299 35.4821C32.4371 35.2429 32.3552 34.9371 32.116 34.799L31.616 35.6651ZM32.2321 36.5981L32.4821 36.1651C32.2429 36.027 31.9371 36.1089 31.799 36.3481L32.2321 36.5981ZM39.1603 40.5981L39.5933 40.8481C39.6596 40.7332 39.6775 40.5968 39.6432 40.4687C39.6089 40.3406 39.5251 40.2314 39.4103 40.1651L39.1603 40.5981ZM40.7763 39.799C40.5371 39.661 40.2313 39.7429 40.0933 39.9821C39.9552 40.2212 40.0371 40.527 40.2763 40.6651L40.7763 39.799ZM40.1603 38.866L39.9103 39.299C40.0251 39.3653 40.1616 39.3833 40.2897 39.349C40.4178 39.3147 40.527 39.2309 40.5933 39.116L40.1603 38.866ZM32.616 33.933C32.8552 34.0711 32.9371 34.3769 32.799 34.616L33.6651 35.116C34.0793 34.3986 33.8335 33.4812 33.116 33.067L32.616 33.933ZM31.933 34.116C32.0711 33.8769 32.3769 33.7949 32.616 33.933L33.116 33.067C32.3986 32.6528 31.4812 32.8986 31.067 33.616L31.933 34.116ZM32.116 34.799C31.8769 34.661 31.7949 34.3552 31.933 34.116L31.067 33.616C30.6528 34.3335 30.8986 35.2508 31.616 35.6651L32.116 34.799ZM30.933 35.8481C31.0711 35.6089 31.3769 35.527 31.616 35.6651L32.116 34.799C31.3986 34.3848 30.4812 34.6306 30.067 35.3481L30.933 35.8481ZM31.116 36.5311C30.8769 36.393 30.7949 36.0872 30.933 35.8481L30.067 35.3481C29.6528 36.0655 29.8986 36.9829 30.616 37.3971L31.116 36.5311ZM31.799 36.3481C31.661 36.5872 31.3552 36.6692 31.116 36.5311L30.616 37.3971C31.3335 37.8113 32.2508 37.5655 32.6651 36.8481L31.799 36.3481ZM39.4103 40.1651L32.4821 36.1651L31.9821 37.0311L38.9103 41.0311L39.4103 40.1651ZM39.7763 41.5311C39.5371 41.393 39.4552 41.0872 39.5933 40.8481L38.7272 40.3481C38.313 41.0655 38.5588 41.9829 39.2763 42.3971L39.7763 41.5311ZM40.4593 41.3481C40.3212 41.5872 40.0154 41.6692 39.7763 41.5311L39.2763 42.3971C39.9937 42.8113 40.9111 42.5655 41.3253 41.8481L40.4593 41.3481ZM40.2763 40.6651C40.5154 40.8031 40.5974 41.1089 40.4593 41.3481L41.3253 41.8481C41.7395 41.1306 41.4937 40.2133 40.7763 39.799L40.2763 40.6651ZM41.4593 39.616C41.3212 39.8552 41.0154 39.9371 40.7763 39.799L40.2763 40.6651C40.9937 41.0793 41.9111 40.8335 42.3253 40.116L41.4593 39.616ZM41.2763 38.933C41.5154 39.0711 41.5974 39.3769 41.4593 39.616L42.3253 40.116C42.7395 39.3986 42.4937 38.4812 41.7763 38.067L41.2763 38.933ZM40.5933 39.116C40.7313 38.8769 41.0371 38.7949 41.2763 38.933L41.7763 38.067C41.0588 37.6528 40.1415 37.8986 39.7272 38.616L40.5933 39.116ZM32.9821 35.299L39.9103 39.299L40.4103 38.433L33.4821 34.433L32.9821 35.299Z" fill="black"/>
<path d="M38.2594 37.6955L40.1603 36.5981C40.4364 37.0764 41.048 37.2402 41.5263 36.9641C42.0046 36.6879 42.1684 36.0764 41.8923 35.5981C41.6162 35.1198 41.0046 34.9559 40.5263 35.232C41.0046 34.9559 41.1684 34.3443 40.8923 33.866C40.6162 33.3877 40.0046 33.2238 39.5263 33.5C39.048 33.7761 38.8841 34.3877 39.1603 34.866L36.1603 36.5981M34.1962 37.732L32.2321 38.866C31.9559 38.3877 31.3443 38.2238 30.866 38.5C30.3877 38.7761 30.2239 39.3877 30.5 39.866C30.7761 40.3443 31.3877 40.5082 31.866 40.232C31.3877 40.5082 31.2239 41.1198 31.5 41.5981C31.7761 42.0764 32.3877 42.2402 32.866 41.9641C33.3443 41.6879 33.5082 41.0764 33.2321 40.5981L36.0815 38.953" stroke="black" stroke-linejoin="round"/>
</svg>
