<svg width="48" height="48" viewBox="0 0 48 48" fill="none" xmlns="http://www.w3.org/2000/svg">
<path d="M39.4782 25.5C39.4782 25.7761 39.2544 26 38.9782 26C38.7021 26 38.4782 25.7761 38.4782 25.5H39.4782ZM23.3835 6.44721L23.6071 6L23.3835 6.44721ZM21.5947 6.44721L21.3711 6L21.5947 6.44721ZM21.5987 38.5331L21.8223 38.0858L21.5987 38.5331ZM23.3811 38.5363L23.6031 38.9843L23.3811 38.5363ZM38.4782 25.5V15.4806H39.4782V25.5H38.4782ZM37.6491 14.139L23.1599 6.89443L23.6071 6L38.0963 13.2446L37.6491 14.139ZM21.8183 6.89443L7.32917 14.139L6.88196 13.2446L21.3711 6L21.8183 6.89443ZM6.49999 15.4806V29.4976H5.49999V15.4806H6.49999ZM7.32917 30.8393L21.8223 38.0858L21.3751 38.9803L6.88196 31.7337L7.32917 30.8393ZM23.1591 38.0883L28.278 35.552L28.722 36.448L23.6031 38.9843L23.1591 38.0883ZM7.32917 14.139C6.821 14.3931 6.49999 14.9125 6.49999 15.4806H5.49999C5.49999 14.5337 6.035 13.668 6.88196 13.2446L7.32917 14.139ZM23.1599 6.89443C22.7376 6.68328 22.2406 6.68328 21.8183 6.89443L21.3711 6C22.0749 5.64809 22.9033 5.64809 23.6071 6L23.1599 6.89443ZM38.4782 15.4806C38.4782 14.9125 38.1572 14.3931 37.6491 14.139L38.0963 13.2446C38.9432 13.668 39.4782 14.5337 39.4782 15.4806H38.4782ZM6.49999 29.4976C6.49999 30.0658 6.821 30.5852 7.32917 30.8393L6.88196 31.7337C6.035 31.3102 5.49999 30.4445 5.49999 29.4976H6.49999ZM21.8223 38.0858C22.2429 38.2961 22.7378 38.297 23.1591 38.0883L23.6031 38.9843C22.9009 39.3323 22.0761 39.3308 21.3751 38.9803L21.8223 38.0858Z" fill="black"/>
<path d="M22.4891 38.9783V22.5862M22.4891 22.5862L38.0083 14.2446M22.4891 22.5862L6.96995 14.2446" stroke="black"/>
<path d="M32.6736 10.8497L16.5202 19.2265V24.7414C16.5202 25.4871 15.7336 25.9704 15.0684 25.6335L12.916 24.5433C12.2435 24.2027 11.8197 23.513 11.8197 22.7592V16.8457L27.8238 8.4248" stroke="black"/>
<rect x="28.5" y="30.5" width="13" height="11" rx="1.5" stroke="black"/>
<circle cx="35" cy="35" r="1" fill="black" stroke="black"/>
<path d="M35 36V38" stroke="black" stroke-linecap="round"/>
<path d="M40.0005 30.5V29C40.0005 26.2386 37.7619 24 35.0005 24C33.8747 24 32.8357 24.3721 32 25" stroke="black" stroke-linecap="round"/>
</svg>
