<svg width="48" height="48" viewBox="0 0 48 48" fill="none" xmlns="http://www.w3.org/2000/svg">
<path d="M27.3763 12.741L38.9166 18.6914C39.5819 19.0345 40 19.7204 40 20.469V34.5311C40 35.2797 39.5819 35.9656 38.9166 36.3087L24.9166 43.5274C24.3415 43.824 23.6585 43.824 23.0834 43.5274C18.4168 41.1212 13.7501 38.7149 9.08342 36.3087C8.41806 35.9656 8 35.2797 8 34.5311V20.469C8 19.7204 8.41806 19.0345 9.08342 18.6914L20.6237 12.741" stroke="black"/>
<path d="M24 44V27.4314M24 27.4314L9 19M24 27.4314L39 19" stroke="black"/>
<path d="M14.5 16L29.5 24.5L29.494 29.3362C29.4931 30.0905 30.2957 30.5742 30.9621 30.2211L32.9363 29.1753C33.5907 28.8286 34 28.1486 34 27.408V21.4472L25.2145 16.632M19.5 13.5L21.695 14.703" stroke="black"/>
<path d="M24 4.5C22.8025 4.5 21.671 4.91225 20.8368 5.73378L23.1024 16.9954C23.1968 17.1462 23.3269 17.2732 23.4834 17.3625C23.6404 17.452 23.818 17.5 24 17.5C24.182 17.5 24.3596 17.452 24.5166 17.3625C24.6731 17.2732 24.8031 17.1462 24.8976 16.9954C25.4301 16.1467 26.3199 14.6836 27.0783 13.2179C27.4573 12.4855 27.8079 11.7439 28.0649 11.0729C28.3164 10.4164 28.5 9.77371 28.5 9.25864C28.5 7.75808 28.0006 6.5586 27.1632 5.73379C26.3291 4.91226 25.1975 4.5 24 4.5ZM24 10.2796C23.7671 10.2796 23.5365 10.2062 23.3374 10.0646C23.1379 9.92261 22.9778 9.71746 22.8822 9.47161C22.7865 9.22558 22.761 8.95324 22.8101 8.69021C22.8593 8.42726 22.9799 8.18974 23.1523 8.0062C23.3243 7.82299 23.5397 7.70213 23.7691 7.65354C23.9983 7.60501 24.2362 7.62958 24.4543 7.72574C24.6728 7.82209 24.8646 7.98758 25.0019 8.20625C25.1393 8.42519 25.2143 8.68565 25.2143 8.95445C25.2143 9.31565 25.0792 9.65625 24.8477 9.9027C24.6172 10.1481 24.3116 10.2796 24 10.2796Z" stroke="black"/>
</svg>
