<svg width="48" height="48" viewBox="0 0 48 48" fill="none" xmlns="http://www.w3.org/2000/svg">
<path d="M37 33V37" stroke="black" stroke-linecap="round"/>
<path d="M37 39V39.5" stroke="black" stroke-linecap="round"/>
<path d="M35.9181 29.1136L35.9181 29.1136L29.6747 39.6162C29.5618 39.8061 29.5014 40.0226 29.5 40.2437C29.4987 40.4647 29.5564 40.6819 29.6669 40.8732C29.7775 41.0645 29.9368 41.2228 30.1281 41.3326C30.3194 41.4424 30.5362 41.5 30.7566 41.5H43.2434C43.4638 41.5 43.6806 41.4424 43.8719 41.3326C44.0632 41.2228 44.2225 41.0645 44.333 40.8732C44.4436 40.6819 44.5013 40.4647 44.5 40.2437C44.4986 40.0226 44.4382 39.8061 44.3253 39.6162L38.0819 29.1136L38.0819 29.1136C37.9704 28.9259 37.8116 28.771 37.6219 28.6636C37.4322 28.5563 37.2178 28.5 37 28.5C36.7822 28.5 36.5678 28.5563 36.3781 28.6636C36.1884 28.771 36.0296 28.9259 35.9181 29.1136Z" stroke="black"/>
<path d="M29.7069 39.9552C29.9583 39.8409 30.0695 39.5445 29.9552 39.2931C29.8409 39.0417 29.5445 38.9305 29.2931 39.0448L29.7069 39.9552ZM40.8944 14.4472L40.6708 14.8944L40.8944 14.4472ZM23.1056 6.44721L22.882 6L23.1056 6.44721ZM7.10557 33.5528L6.88197 34L7.10557 33.5528ZM23.1466 41.5733L22.923 42.0205L23.1466 41.5733ZM24.8686 41.6052L25.0755 42.0604L24.8686 41.6052ZM23.3702 41.1261L7.32918 33.1056L6.88197 34L22.923 42.0205L23.3702 41.1261ZM6.5 31.7639V16.2361H5.5V31.7639H6.5ZM7.32918 14.8944L23.3292 6.89443L22.882 6L6.88197 14L7.32918 14.8944ZM24.6708 6.89443L40.6708 14.8944L41.118 14L25.118 6L24.6708 6.89443ZM41.5 16.2361V32.0661H42.5V16.2361H41.5ZM29.2931 39.0448L24.6617 41.15L25.0755 42.0604L29.7069 39.9552L29.2931 39.0448ZM41.5 32.0661C41.5 32.4491 41.2836 32.7992 40.9411 32.9704L41.3883 33.8649C42.0696 33.5242 42.5 32.8278 42.5 32.0661H41.5ZM40.6708 14.8944C41.179 15.1485 41.5 15.6679 41.5 16.2361H42.5C42.5 15.2891 41.965 14.4235 41.118 14L40.6708 14.8944ZM23.3292 6.89443C23.7515 6.68328 24.2485 6.68328 24.6708 6.89443L25.118 6C24.4142 5.64809 23.5858 5.64809 22.882 6L23.3292 6.89443ZM6.5 16.2361C6.5 15.6679 6.821 15.1485 7.32918 14.8944L6.88197 14C6.03501 14.4235 5.5 15.2891 5.5 16.2361H6.5ZM7.32918 33.1056C6.821 32.8515 6.5 32.3321 6.5 31.7639H5.5C5.5 32.7109 6.03501 33.5765 6.88197 34L7.32918 33.1056ZM22.923 42.0205C23.5977 42.3579 24.3887 42.3725 25.0755 42.0604L24.6617 41.15C24.2497 41.3373 23.775 41.3285 23.3702 41.1261L22.923 42.0205Z" fill="black"/>
<path d="M24 42V24.45M24 24.45L6 15M24 24.45L42 15" stroke="black"/>
<path d="M13 11.7273L30.6923 20.8182V27.3619C30.6923 28.1101 31.4839 28.5933 32.1493 28.2513L34.9141 26.8307C35.5808 26.4881 36 25.8014 36 25.0518V18.0909L18.3077 9" stroke="black"/>
<path d="M9 30.382V26.809C9 26.4373 9.39116 26.1956 9.72361 26.3618L13.4472 28.2236C13.786 28.393 14 28.7393 14 29.118V32.691C14 33.0627 13.6088 33.3044 13.2764 33.1382L9.55279 31.2764C9.214 31.107 9 30.7607 9 30.382Z" stroke="black" stroke-linecap="round"/>
</svg>
