<svg width="48" height="48" viewBox="0 0 48 48" fill="none" xmlns="http://www.w3.org/2000/svg">
<path d="M36 19L36.8944 19.4472C37.572 19.786 38 20.4785 38 21.2361V34.7639C38 35.5215 37.572 36.214 36.8944 36.5528L22.8944 43.5528C22.3314 43.8343 21.6686 43.8343 21.1056 43.5528L7.10557 36.5528C6.428 36.214 6 35.5215 6 34.7639V21.2361C6 20.4785 6.428 19.786 7.10557 19.4472L21.1056 12.4472C21.6686 12.1657 22.3314 12.1657 22.8944 12.4472L34.0809 18.0405" stroke="black"/>
<path d="M22 44V28.0941M22 28.0941L7 20M22 28.0941L37 20" stroke="black"/>
<path d="M12.5 16.5L27.492 25V29.3815C27.492 30.125 28.2745 30.6085 28.9394 30.2758L30.8949 29.2974C31.5722 28.9585 32 28.2661 32 27.5088V22.5L17 14.5" stroke="black"/>
<path d="M29.5205 16.4791L29.5206 16.4792L29.5205 16.4791ZM29.5205 16.4791C29.4946 16.4533 29.4937 16.4134 29.5152 16.3874L29.516 16.3864M29.5205 16.4791L29.516 16.3864M29.516 16.3864L36.797 7.52659L36.7977 7.52576M29.516 16.3864L36.7977 7.52576M36.7977 7.52576C36.809 7.51197 36.8272 7.50155 36.8498 7.50004C36.8707 7.49937 36.8902 7.50736 36.9039 7.52102L38.4795 9.09231C38.4936 9.10643 38.5008 9.12564 38.4999 9.14431C38.499 9.1635 38.4898 9.18172 38.4751 9.19377L38.4741 9.19458M36.7977 7.52576L38.4741 9.19458M38.4741 9.19458L29.6179 16.4836M38.4741 9.19458L29.6179 16.4836M29.6179 16.4836C29.6178 16.4836 29.6177 16.4837 29.6177 16.4837M29.6179 16.4836L29.6177 16.4837M29.6177 16.4837C29.5889 16.5072 29.5465 16.5049 29.5207 16.4793L29.6177 16.4837Z" stroke="black"/>
<path d="M41.3933 17.5007L41.3939 17.5007C41.4423 17.4965 41.48 17.5121 41.4971 17.5255L41.4983 17.5264C41.4989 17.5269 41.4995 17.5274 41.5 17.5278V19.4723C41.4994 19.4729 41.4986 19.4734 41.4979 19.474C41.4805 19.4877 41.4427 19.5034 41.3935 19.4994C41.3934 19.4994 41.3934 19.4994 41.3934 19.4994L29.5759 18.5254L29.5753 18.5253C29.5598 18.5241 29.5467 18.5211 29.5357 18.5175C29.5467 18.5139 29.5598 18.5109 29.5752 18.5096C29.5752 18.5096 29.5752 18.5096 29.5753 18.5096L41.3933 17.5007Z" stroke="black"/>
<path d="M27.4747 16.4247L27.4746 16.4241L26.5006 4.60657C26.5006 4.60656 26.5006 4.60655 26.5006 4.60655C26.4966 4.55725 26.5123 4.51954 26.526 4.50214C26.5266 4.50136 26.5271 4.50065 26.5277 4.5H28.4722C28.4726 4.50053 28.4731 4.50109 28.4736 4.50171L28.4736 4.50171L28.4745 4.50294C28.4879 4.51997 28.5035 4.55773 28.4993 4.60612L28.4993 4.60668L27.4904 16.4251L27.4903 16.4258C27.4891 16.441 27.4862 16.454 27.4826 16.4647C27.4789 16.4537 27.4759 16.4404 27.4747 16.4247Z" stroke="black"/>
</svg>
