<svg width="48" height="48" viewBox="0 0 48 48" fill="none" xmlns="http://www.w3.org/2000/svg">
<path d="M39.5 27L43.9069 32.2081C44.5378 32.9538 44.5378 34.0462 43.9069 34.7919L39.5 40V36H37C32.5817 36 29 32.4183 29 28V26L30.2522 28.087C31.3365 29.8942 33.2896 31 35.3971 31H39.5V27Z" stroke="black" stroke-linejoin="round"/>
<path d="M36 36L24.8944 41.5528C24.3314 41.8343 23.6686 41.8343 23.1056 41.5528L7.10557 33.5528C6.428 33.214 6 32.5215 6 31.7639V16.2361C6 15.4785 6.428 14.786 7.10557 14.4472L23.1056 6.44721C23.6686 6.16569 24.3314 6.16569 24.8944 6.44721L40.8944 14.4472C41.572 14.786 42 15.4785 42 16.2361V30" stroke="black"/>
<path d="M24 42V24.45M24 24.45L42 15M24 24.45L6 15" stroke="black"/>
<path d="M35 11.7273L17.3077 20.8182V27.3619C17.3077 28.1101 16.5161 28.5933 15.8507 28.2513L13.0859 26.8307C12.4192 26.4881 12 25.8014 12 25.0518V18.0909L29.6923 9" stroke="black"/>
</svg>
