<svg width="48" height="48" viewBox="0 0 48 48" fill="none" xmlns="http://www.w3.org/2000/svg">
<path d="M28.5205 18.4791L28.5206 18.4792L28.5205 18.4791ZM28.5205 18.4791C28.4946 18.4533 28.4937 18.4134 28.5152 18.3874L28.516 18.3864M28.5205 18.4791L28.516 18.3864M28.516 18.3864L35.797 9.52659L35.7977 9.52576M28.516 18.3864L35.7977 9.52576M35.7977 9.52576C35.809 9.51197 35.8272 9.50155 35.8498 9.50004C35.8707 9.49937 35.8902 9.50736 35.9039 9.52102L37.4795 11.0923C37.4936 11.1064 37.5008 11.1256 37.4999 11.1443C37.499 11.1635 37.4898 11.1817 37.4751 11.1938L37.4741 11.1946M35.7977 9.52576L37.4741 11.1946M37.4741 11.1946L28.6179 18.4836M37.4741 11.1946L28.6179 18.4836M28.6179 18.4836C28.6178 18.4836 28.6177 18.4837 28.6177 18.4837M28.6179 18.4836L28.6177 18.4837M28.6177 18.4837C28.5889 18.5072 28.5465 18.5049 28.5207 18.4793L28.6177 18.4837Z" stroke="black"/>
<path d="M40.3933 19.5007L40.3939 19.5007C40.4423 19.4965 40.48 19.5121 40.4971 19.5255L40.4983 19.5264C40.4989 19.5269 40.4995 19.5274 40.5 19.5278V21.4723C40.4994 21.4729 40.4986 21.4734 40.4979 21.474C40.4805 21.4877 40.4427 21.5034 40.3935 21.4994C40.3934 21.4994 40.3934 21.4994 40.3934 21.4994L28.5759 20.5254L28.5753 20.5253C28.5598 20.5241 28.5467 20.5211 28.5357 20.5175C28.5467 20.5139 28.5598 20.5109 28.5752 20.5096C28.5752 20.5096 28.5752 20.5096 28.5753 20.5096L40.3933 19.5007Z" stroke="black"/>
<path d="M26.4747 18.4247L26.4746 18.4241L25.5006 6.60657C25.5006 6.60656 25.5006 6.60655 25.5006 6.60655C25.4966 6.55725 25.5123 6.51954 25.526 6.50214C25.5266 6.50136 25.5271 6.50065 25.5277 6.5H27.4722C27.4726 6.50053 27.4731 6.50109 27.4736 6.50171L27.4736 6.50171L27.4745 6.50294C27.4879 6.51997 27.5035 6.55773 27.4993 6.60612L27.4993 6.60668L26.4904 18.4251L26.4903 18.4258C26.4891 18.441 26.4862 18.454 26.4826 18.4647C26.4789 18.4537 26.4759 18.4404 26.4747 18.4247Z" stroke="black"/>
<path d="M15.5 36H20H19C17.8954 36 17 35.1046 17 34V16H9.58544C9.18924 16 8.80087 16.1061 8.46381 16.3063C8.12676 16.5066 7.85434 16.7931 7.67707 17.1338L4.22554 23.7719C4.07716 24.0567 3.99994 24.3709 4 24.6894V28M8.5 36H6.13333C5.56754 36 5.02491 35.7839 4.62484 35.3992C4.22476 35.0145 4 34.4928 4 33.9487V32" stroke="black"/>
<path d="M32.5 36H18.9636C18.4428 36 17.9434 35.7855 17.5751 35.4036C17.2069 35.0217 17 34.5037 17 33.9636V10.0364C17 9.49629 17.2069 8.97833 17.5751 8.59644C17.9434 8.21455 18.4428 8 18.9636 8H25.5M39.5 36H42.0364C42.5572 36 43.0566 35.7855 43.4249 35.4036C43.7931 35.0217 44 34.5037 44 33.9636V32M44 28V10.0364C44 9.49629 43.7931 8.97833 43.4249 8.59644C43.0566 8.21455 42.5572 8 42.0364 8H27.5" stroke="black"/>
<path d="M9.61815 18.5L9.61802 18.5C9.52519 18.5 9.43419 18.5258 9.35524 18.5747C9.27628 18.6235 9.21251 18.6934 9.17106 18.7764L9.17087 18.7768L7.17087 22.7768L7.17085 22.7769C7.13274 22.853 7.11475 22.9377 7.11858 23.0228C7.12241 23.1079 7.14794 23.1906 7.19274 23.2631C7.23754 23.3356 7.30012 23.3954 7.37454 23.4368C7.44896 23.4783 7.53275 23.5 7.61794 23.5H7.61815H13.5C13.6326 23.5 13.7598 23.4473 13.8536 23.3536C13.9473 23.2598 14 23.1326 14 23V19C14 18.8674 13.9473 18.7402 13.8536 18.6464C13.7598 18.5527 13.6326 18.5 13.5 18.5H9.61815Z" stroke="black"/>
<circle cx="4" cy="4" r="4" transform="matrix(-1 0 0 1 40 32)" stroke="black"/>
<circle cx="4" cy="4" r="4" transform="matrix(-1 0 0 1 16 32)" stroke="black"/>
<path fill-rule="evenodd" clip-rule="evenodd" d="M11 36C11 35.8022 11.0586 35.6089 11.1685 35.4444C11.2784 35.28 11.4346 35.1518 11.6173 35.0761C11.8 35.0004 12.0011 34.9806 12.1951 35.0192C12.3891 35.0578 12.5673 35.153 12.7071 35.2929C12.847 35.4327 12.9422 35.6109 12.9808 35.8049C13.0194 35.9989 12.9996 36.2 12.9239 36.3827C12.8482 36.5654 12.72 36.7216 12.5556 36.8315C12.3911 36.9414 12.1978 37 12 37C11.7348 37 11.4804 36.8946 11.2929 36.7071C11.1054 36.5196 11 36.2652 11 36Z" stroke="black"/>
<path fill-rule="evenodd" clip-rule="evenodd" d="M35 36C35 35.8022 35.0586 35.6089 35.1685 35.4444C35.2784 35.28 35.4346 35.1518 35.6173 35.0761C35.8 35.0004 36.0011 34.9806 36.1951 35.0192C36.3891 35.0578 36.5673 35.153 36.7071 35.2929C36.847 35.4327 36.9422 35.6109 36.9808 35.8049C37.0194 35.9989 36.9996 36.2 36.9239 36.3827C36.8482 36.5654 36.72 36.7216 36.5556 36.8315C36.3911 36.9414 36.1978 37 36 37C35.7348 37 35.4804 36.8946 35.2929 36.7071C35.1054 36.5196 35 36.2652 35 36Z" stroke="black"/>
<path d="M42 32H44C44.5523 32 45 31.5523 45 31V29C45 28.4477 44.5523 28 44 28H42C41.4477 28 41 28.4477 41 29V31C41 31.5523 41.4477 32 42 32Z" stroke="black" stroke-linecap="round"/>
<path d="M4 32H6C6.55228 32 7 31.5523 7 31L7 29C7 28.4477 6.55228 28 6 28H4C3.44772 28 3 28.4477 3 29L3 31C3 31.5523 3.44772 32 4 32Z" stroke="black" stroke-linecap="round"/>
</svg>
