<svg width="48" height="48" viewBox="0 0 48 48" fill="none" xmlns="http://www.w3.org/2000/svg">
<path d="M31 32.5V16H38.4146C38.8108 16 39.1991 16.1061 39.5362 16.3063C39.8732 16.5066 40.1457 16.7931 40.3229 17.1338L43.7745 23.7719C43.9228 24.0567 44.0001 24.3709 44 24.6894V28M39.5 36H41.8667C42.4325 36 42.9751 35.7839 43.3752 35.3992C43.7752 35.0145 44 34.4928 44 33.9487V32" stroke="black"/>
<path d="M27.5 36H15.5M31 32.5V10.0364C31 9.49629 30.7931 8.97833 30.4249 8.59644C30.0566 8.21455 29.5572 8 29.0364 8H5.96364C5.44285 8 4.94339 8.21455 4.57514 8.59644C4.20688 8.97833 4 9.49629 4 10.0364V28M8.5 36H5.96364C5.44285 36 4.94339 35.7855 4.57514 35.4036C4.20688 35.0217 4 34.5037 4 33.9636V32" stroke="black"/>
<path d="M38.3818 18.5L38.382 18.5C38.4748 18.5 38.5658 18.5258 38.6448 18.5747C38.7237 18.6235 38.7875 18.6934 38.8289 18.7764L38.8291 18.7768L40.8291 22.7768L40.8292 22.7769C40.8673 22.853 40.8853 22.9377 40.8814 23.0228C40.8776 23.1079 40.8521 23.1906 40.8073 23.2631C40.7625 23.3356 40.6999 23.3954 40.6255 23.4368C40.551 23.4783 40.4673 23.5 40.3821 23.5H40.3818H34.5C34.3674 23.5 34.2402 23.4473 34.1464 23.3536C34.0527 23.2598 34 23.1326 34 23V19C34 18.8674 34.0527 18.7402 34.1464 18.6464C34.2402 18.5527 34.3674 18.5 34.5 18.5H38.3818Z" stroke="black"/>
<path fill-rule="evenodd" clip-rule="evenodd" d="M37 36C37 35.8022 36.9414 35.6089 36.8315 35.4444C36.7216 35.28 36.5654 35.1518 36.3827 35.0761C36.2 35.0004 35.9989 34.9806 35.8049 35.0192C35.6109 35.0578 35.4327 35.153 35.2929 35.2929C35.153 35.4327 35.0578 35.6109 35.0192 35.8049C34.9806 35.9989 35.0004 36.2 35.0761 36.3827C35.1518 36.5654 35.28 36.7216 35.4444 36.8315C35.6089 36.9414 35.8022 37 36 37C36.2652 37 36.5196 36.8946 36.7071 36.7071C36.8946 36.5196 37 36.2652 37 36Z" stroke="black"/>
<path fill-rule="evenodd" clip-rule="evenodd" d="M13 36C13 35.8022 12.9414 35.6089 12.8315 35.4444C12.7216 35.28 12.5654 35.1518 12.3827 35.0761C12.2 35.0004 11.9989 34.9806 11.8049 35.0192C11.6109 35.0578 11.4327 35.153 11.2929 35.2929C11.153 35.4327 11.0578 35.6109 11.0192 35.8049C10.9806 35.9989 11.0004 36.2 11.0761 36.3827C11.1518 36.5654 11.28 36.7216 11.4444 36.8315C11.6089 36.9414 11.8022 37 12 37C12.2652 37 12.5196 36.8946 12.7071 36.7071C12.8946 36.5196 13 36.2652 13 36Z" stroke="black"/>
<path d="M6 32H4C3.44772 32 3 31.5523 3 31L3 29C3 28.4477 3.44772 28 4 28H6C6.55228 28 7 28.4477 7 29L7 31C7 31.5523 6.55228 32 6 32Z" stroke="black" stroke-linecap="round"/>
<path d="M44 32H42C41.4477 32 41 31.5523 41 31V29C41 28.4477 41.4477 28 42 28H44C44.5523 28 45 28.4477 45 29V31C45 31.5523 44.5523 32 44 32Z" stroke="black" stroke-linecap="round"/>
<circle cx="17.5" cy="21.5" r="8.5" stroke="black"/>
<path d="M23 28L25 30" stroke="black" stroke-linecap="round"/>
<rect x="23.2466" y="31.9016" width="5.19303" height="11.618" rx="2" transform="rotate(-45 23.2466 31.9016)" stroke="black"/>
<path d="M12.5 21.5L15.264 24.264C15.6657 24.6657 16.3207 24.6526 16.706 24.2352L22 18.5" stroke="black" stroke-linecap="round"/>
<circle cx="12" cy="36" r="4" stroke="black"/>
<path d="M32.5717 33.9381C33.2716 32.7767 34.5451 32 36 32C38.2091 32 40 33.7909 40 36C40 38.2091 38.2091 40 36 40C34.8053 40 33.7329 39.4762 33 38.6458" stroke="black"/>
</svg>
