<svg width="48" height="48" viewBox="0 0 48 48" fill="none" xmlns="http://www.w3.org/2000/svg">
<path d="M13.2313 14.6289C13.2313 14.2813 12.95 14.0005 12.6031 14.0005L8 14.0009L10.9446 17.7693L13.1224 14.9819C13.1912 14.8814 13.2313 14.7603 13.2313 14.6289Z" fill="black"/>
<path d="M17.126 17.7299V17.7285L14.635 14.5512C14.4036 14.2301 14.0322 14.0181 13.6097 14.0033V14C13.6097 14 14.3035 14.4163 13.808 15.0427H13.8081L11.4948 18.0029L11.4925 17.9991L8.36778 21.9971L13.261 22L13.6255 21.9872C14.0207 21.9698 14.3716 21.78 14.6032 21.4896L14.6076 21.4868L17.1149 18.2794V18.2765C17.1759 18.1991 17.2138 18.1028 17.2138 17.997C17.2138 17.8969 17.1808 17.8058 17.126 17.7299Z" fill="black"/>
<path d="M39.9581 10.0001H7.9581C5.74896 10.0001 3.9581 11.7909 3.9581 14.0001V34.0001C3.9581 36.2092 5.74896 38.0001 7.9581 38.0001H39.9581C42.1672 38.0001 43.9581 36.2092 43.9581 34.0001V14.0001C43.9581 11.7909 42.1672 10.0001 39.9581 10.0001Z" stroke="black"/>
<path d="M24.9581 28.0001C25.5104 28.0001 25.9581 27.5523 25.9581 27.0001C25.9581 26.4478 25.5104 26.0001 24.9581 26.0001H8.9581C8.40582 26.0001 7.9581 26.4478 7.9581 27.0001C7.9581 27.5523 8.40582 28.0001 8.9581 28.0001H24.9581Z" stroke="black"/>
<path d="M18.9581 32.0001C19.5104 32.0001 19.9581 31.5523 19.9581 31.0001C19.9581 30.4478 19.5104 30.0001 18.9581 30.0001H8.9581C8.40581 30.0001 7.9581 30.4478 7.9581 31.0001C7.9581 31.5523 8.40581 32.0001 8.9581 32.0001H18.9581Z" stroke="black"/>
<path d="M35.5002 26.5001H39.5002C39.7764 26.5001 40.0002 26.7239 40.0002 27.0001V31.0001C40.0002 31.2762 39.7764 31.5001 39.5002 31.5001H35.5002C35.2241 31.5001 35.0002 31.2762 35.0002 31.0001V27.0001C35.0002 26.7239 35.2241 26.5001 35.5002 26.5001Z" stroke="black"/>
</svg>
