<svg width="48" height="48" viewBox="0 0 48 48" fill="none" xmlns="http://www.w3.org/2000/svg">
<path d="M31.5205 16.4791L31.5206 16.4792L31.5205 16.4791ZM31.5205 16.4791C31.4946 16.4533 31.4937 16.4134 31.5152 16.3874L31.516 16.3864M31.5205 16.4791L31.516 16.3864M31.516 16.3864L38.797 7.52659L38.7977 7.52576M31.516 16.3864L38.7977 7.52576M38.7977 7.52576C38.809 7.51197 38.8272 7.50155 38.8498 7.50004C38.8707 7.49937 38.8902 7.50736 38.9039 7.52102L40.4795 9.09231C40.4936 9.10643 40.5008 9.12564 40.4999 9.14431C40.499 9.1635 40.4898 9.18172 40.4751 9.19377L40.4741 9.19458M38.7977 7.52576L40.4741 9.19458M40.4741 9.19458L31.6179 16.4836M40.4741 9.19458L31.6179 16.4836M31.6179 16.4836C31.6178 16.4836 31.6177 16.4837 31.6177 16.4837M31.6179 16.4836L31.6177 16.4837M31.6177 16.4837C31.5889 16.5072 31.5465 16.5049 31.5207 16.4793L31.6177 16.4837Z" stroke="black"/>
<path d="M43.3933 17.5007L43.3939 17.5007C43.4423 17.4965 43.48 17.5121 43.4971 17.5255L43.4983 17.5264C43.4989 17.5269 43.4995 17.5274 43.5 17.5278V19.4723C43.4994 19.4729 43.4986 19.4734 43.4979 19.474C43.4805 19.4877 43.4427 19.5034 43.3935 19.4994C43.3934 19.4994 43.3934 19.4994 43.3934 19.4994L31.5759 18.5254L31.5753 18.5253C31.5598 18.5241 31.5467 18.5211 31.5357 18.5175C31.5467 18.5139 31.5598 18.5109 31.5752 18.5096C31.5752 18.5096 31.5752 18.5096 31.5753 18.5096L43.3933 17.5007Z" stroke="black"/>
<path d="M29.4747 16.4247L29.4746 16.4241L28.5006 4.60657C28.5006 4.60656 28.5006 4.60655 28.5006 4.60655C28.4966 4.55725 28.5123 4.51954 28.526 4.50214C28.5266 4.50136 28.5271 4.50065 28.5277 4.5H30.4722C30.4726 4.50053 30.4731 4.50109 30.4736 4.50171L30.4736 4.50171L30.4745 4.50294C30.4879 4.51997 30.5035 4.55773 30.4993 4.60612L30.4993 4.60668L29.4904 16.4251L29.4903 16.4258C29.4891 16.441 29.4862 16.454 29.4826 16.4647C29.4789 16.4537 29.4759 16.4404 29.4747 16.4247Z" stroke="black"/>
<path d="M24 29.3215C15.8978 29.3215 9.02394 34.5807 6.60601 41.8716C6.21128 43.0619 7.16105 44.2078 8.41505 44.2078H39.5849C40.8389 44.2078 41.7887 43.0619 41.394 41.8716C38.9761 34.5807 32.1022 29.3215 24 29.3215Z" stroke="black"/>
<path d="M15.3991 17C15.037 17.9852 14.8392 19.0499 14.8392 20.1608C14.8392 25.2201 18.9406 29.3215 24 29.3215C29.0594 29.3215 33.1608 25.2201 33.1608 20.1608C33.1608 19.0499 32.963 17.9852 32.6009 17" stroke="black"/>
<path d="M20 36L18 30.5L20 30L24 33L20 36Z" stroke="black"/>
<path d="M28 36L30 30.5L28 30L24 33L28 36Z" stroke="black"/>
<path d="M13 44L11 35" stroke="black"/>
<path d="M35 44L37 35" stroke="black"/>
<path d="M32.1063 16.6265C26.2743 14.7164 21.8311 14.6968 15.8963 16.6277C15.3923 16.7917 15.1138 17.3283 15.2594 17.8379L15.7166 19.438C15.8716 19.9808 16.4463 20.2859 16.9873 20.1246C22.3134 18.5356 25.6878 18.5541 31.0153 20.1286C31.5553 20.2883 32.1277 19.983 32.2824 19.4415L32.7412 17.836C32.8865 17.3272 32.6092 16.7912 32.1063 16.6265Z" stroke="black"/>
<path d="M15.5 16.9301L15.9081 10.8086C15.9634 9.97893 16.5257 9.2655 17.3272 9.04419C21.6996 7.83686 24.7642 7.68191 28.718 8.55122M32.5 16.9301L32.0917 10.8056C32.0365 9.97742 31.4767 9.26501 30.6771 9.04257C30.6178 9.02608 30.5588 9.00979 30.5 8.9937" stroke="black"/>
</svg>
