<svg width="48" height="48" viewBox="0 0 48 48" fill="none" xmlns="http://www.w3.org/2000/svg">
<rect x="26.5" y="6.5" width="15" height="15" rx="3.5" stroke="black"/>
<rect x="6.5" y="6.5" width="15" height="15" rx="3.5" stroke="black"/>
<rect x="6.5" y="26.5" width="15" height="15" rx="3.5" stroke="black"/>
<path d="M35.7552 27.223L41.6518 39.3438C42.1365 40.3401 41.4109 41.5 40.3029 41.5H27.8546C26.7185 41.5 25.9948 40.2861 26.535 39.2867L33.0868 27.166C33.6677 26.0913 35.2208 26.1246 35.7552 27.223Z" stroke="black"/>
<path fill-rule="evenodd" clip-rule="evenodd" d="M15 8.5C15 8.22386 15.2239 8 15.5 8H17.5C18.8807 8 20 9.11929 20 10.5V12.5C20 12.7761 19.7761 13 19.5 13C19.2239 13 19 12.7761 19 12.5V10.5C19 9.67157 18.3284 9 17.5 9H15.5C15.2239 9 15 8.77614 15 8.5Z" fill="black"/>
<path fill-rule="evenodd" clip-rule="evenodd" d="M35 8.5C35 8.22386 35.2239 8 35.5 8H37.5C38.8807 8 40 9.11929 40 10.5V12.5C40 12.7761 39.7761 13 39.5 13C39.2239 13 39 12.7761 39 12.5V10.5C39 9.67157 38.3284 9 37.5 9H35.5C35.2239 9 35 8.77614 35 8.5Z" fill="black"/>
<path fill-rule="evenodd" clip-rule="evenodd" d="M15 28.5C15 28.2239 15.2239 28 15.5 28H17.5C18.8807 28 20 29.1193 20 30.5V32.5C20 32.7761 19.7761 33 19.5 33C19.2239 33 19 32.7761 19 32.5V30.5C19 29.6716 18.3284 29 17.5 29H15.5C15.2239 29 15 28.7761 15 28.5Z" fill="black"/>
<path d="M34.5 29.5L36 33" stroke="black" stroke-linecap="round"/>
</svg>
