<svg width="48" height="48" viewBox="0 0 48 48" fill="none" xmlns="http://www.w3.org/2000/svg">
<path d="M24 25.3215C15.8978 25.3215 9.02394 30.5807 6.60601 37.8716C6.21128 39.0619 7.16105 40.2078 8.41505 40.2078H39.5849C40.8389 40.2078 41.7887 39.0619 41.394 37.8716C38.9761 30.5807 32.1022 25.3215 24 25.3215Z" stroke="black"/>
<circle cx="24" cy="16.1608" r="9.16077" stroke="black"/>
<path d="M27 25.5L25.4961 28.1318C25.1893 28.6687 24.6184 29 24 29V29C23.3816 29 22.8107 28.6687 22.5039 28.1318L21 25.5" stroke="black"/>
<path d="M23 29L20.689 37.4738C20.342 38.746 21.2998 40 22.6185 40H24.6036C25.8514 40 26.7945 38.8699 26.5713 37.6422L25 29" stroke="black"/>
</svg>
