<svg width="48" height="48" viewBox="0 0 48 48" fill="none" xmlns="http://www.w3.org/2000/svg">
<path d="M12.5 11.5H8.5C7.43913 11.5 6.42172 11.9214 5.67157 12.6716C4.92143 13.4217 4.5 14.4391 4.5 15.5L4.5 29.5C4.5 30.5609 4.92143 31.5783 5.67157 32.3284C6.42172 33.0786 7.43913 33.5 8.5 33.5H10V39L15 33.5H27.0002C28.0611 33.5 29.0785 33.0786 29.8287 32.3284C30.3382 31.8189 30.6961 31.186 30.8732 30.5" stroke="black"/>
<path d="M12.5 11.9999V12V27V27.0001C12.4999 27.4598 12.5903 27.9149 12.7662 28.3396C12.942 28.7643 13.1998 29.1502 13.5248 29.4752C13.8498 29.8002 14.2357 30.058 14.6604 30.2338C15.0851 30.4097 15.5402 30.5001 15.9999 30.5H16H32H32.2071L32.3536 30.6464L37.5 35.7929V31V30.5H38H39.9993C40.9267 30.4965 41.8151 30.1266 42.4709 29.4709C43.1267 28.815 43.4966 27.9265 43.5 26.9991L43.5 12L43.5 11.9999C43.5001 11.5402 43.4097 11.0851 43.2338 10.6604C43.058 10.2357 42.8002 9.84984 42.4752 9.52482C42.1502 9.1998 41.7643 8.94201 41.3396 8.76617C40.9149 8.59032 40.4598 8.49988 40.0001 8.5H40L16 8.5L15.9999 8.5C15.5402 8.49988 15.0851 8.59032 14.6604 8.76617C14.2357 8.94201 13.8498 9.1998 13.5248 9.52482C13.1998 9.84984 12.942 10.2357 12.7662 10.6604C12.5903 11.0851 12.4999 11.5402 12.5 11.9999Z" stroke="black"/>
<path d="M17 17H39" stroke="black" stroke-linecap="round" stroke-linejoin="round"/>
<path d="M17 21H27" stroke="black" stroke-linecap="round" stroke-linejoin="round"/>
<path d="M30 21H34" stroke="black" stroke-linecap="round" stroke-linejoin="round"/>
</svg>
