<svg width="48" height="48" viewBox="0 0 48 48" fill="none" xmlns="http://www.w3.org/2000/svg">
<path d="M26 4V9C26 10.1046 26.8954 11 28 11H33" stroke="black" stroke-linecap="round"/>
<circle cx="21" cy="23" r="9" stroke="black"/>
<path d="M27 30L29 32" stroke="black" stroke-linecap="round"/>
<rect x="27.9454" y="33.7738" width="4" height="13.1843" rx="2" transform="rotate(-45 27.9454 33.7738)" stroke="black"/>
<path d="M17 22.8L19.4156 25.2693C19.8078 25.6702 20.453 25.6702 20.8453 25.2693L26 20" stroke="black" stroke-linecap="round"/>
<path d="M32.9739 33V10.9231L26.1242 4H10.7124C10.2583 4 9.8227 4.1945 9.50156 4.54073C9.18042 4.88695 9 5.35652 9 5.84615L9.02606 40.1538C9.02606 40.6435 9.20647 41.1131 9.52761 41.4593C9.84876 41.8055 10.2843 42 10.7385 42H31.2876C31.7417 42 32.1773 41.8055 32.4984 41.4593C32.8196 41.1131 33 40.6435 33 40.1538V39" stroke="black"/>
</svg>
