<svg width="48" height="48" viewBox="0 0 48 48" fill="none" xmlns="http://www.w3.org/2000/svg">
<path d="M31.1871 42H9.7385C9.28433 42 8.84877 41.8055 8.52763 41.4593C8.20649 41.1131 8.02607 40.6435 8.02607 40.1538L8.00002 5.84615C8.00002 5.35652 8.18043 4.88695 8.50157 4.54073C8.82271 4.1945 9.25828 4 9.71244 4H25.1243L31.974 10.9231V34" stroke="black"/>
<path d="M25 4V9C25 10.1046 25.8954 11 27 11H32" stroke="black" stroke-linecap="round"/>
<rect x="11.5" y="14.5" width="17" height="2" rx="1" stroke="black"/>
<rect x="11.5" y="19.5" width="17" height="2" rx="1" stroke="black"/>
<rect x="11.5" y="24.5" width="17" height="2" rx="1" stroke="black"/>
<rect x="11.5" y="29.5" width="17" height="2" rx="1" stroke="black"/>
<rect x="11.5" y="34.5" width="10" height="2" rx="1" stroke="black"/>
<path d="M35.1317 36.0104L35.4853 36.364L35.8388 36.0104L37.9602 33.8891C38.1554 33.6938 38.472 33.6938 38.6673 33.8891L40.0815 35.3033C40.2767 35.4986 40.2767 35.8151 40.0815 36.0104L37.9602 38.1317L37.6066 38.4853L37.9602 38.8388L40.0815 40.9602C40.2767 41.1554 40.2767 41.472 40.0815 41.6673L38.6673 43.0815C38.472 43.2767 38.1554 43.2767 37.9602 43.0815L35.8388 40.9602L35.4853 40.6066L35.1317 40.9602L33.0104 43.0815C32.8151 43.2767 32.4986 43.2767 32.3033 43.0815L30.8891 41.6673C30.6938 41.472 30.6938 41.1554 30.8891 40.9602L33.0104 38.8388L33.364 38.4853L33.0104 38.1317L30.8891 36.0104C30.6938 35.8151 30.6938 35.4986 30.8891 35.3033L32.3033 33.8891C32.4986 33.6938 32.8151 33.6938 33.0104 33.8891L35.1317 36.0104Z" stroke="black"/>
</svg>
