<svg width="48" height="48" viewBox="0 0 48 48" fill="none" xmlns="http://www.w3.org/2000/svg">
<path d="M31.974 36.5V10.9231L25.1243 4H9.71244C9.25828 4 8.82271 4.1945 8.50157 4.54073C8.18043 4.88695 8.00002 5.35652 8.00002 5.84615L8.02607 40.1538C8.02607 40.6435 8.20649 41.1131 8.52763 41.4593C8.84877 41.8055 9.28433 42 9.7385 42H30.2876C30.7418 42 31.1773 41.8055 31.4985 41.4593C31.8196 41.1131 32 40.6435 32 40.1538V39.5" stroke="black"/>
<path d="M25 4V9C25 10.1046 25.8954 11 27 11H32" stroke="black" stroke-linecap="round"/>
<rect x="11.5" y="14.5" width="17" height="2" rx="1" stroke="black"/>
<rect x="11.5" y="19.5" width="17" height="2" rx="1" stroke="black"/>
<rect x="11.5" y="24.5" width="17" height="2" rx="1" stroke="black"/>
<rect x="11.5" y="29.5" width="17" height="2" rx="1" stroke="black"/>
<rect x="11.5" y="34.5" width="10" height="2" rx="1" stroke="black"/>
<path d="M34 36.5L34.5 36.5V36V33C34.5 32.7239 34.7239 32.5 35 32.5H37C37.2761 32.5 37.5 32.7239 37.5 33V36V36.5H38L41 36.5C41.2761 36.5 41.5 36.7239 41.5 37V39C41.5 39.2761 41.2761 39.5 41 39.5H38H37.5V40V43C37.5 43.2761 37.2761 43.5 37 43.5H35C34.7239 43.5 34.5 43.2761 34.5 43V40V39.5H34H31C30.7239 39.5 30.5 39.2761 30.5 39V37C30.5 36.7239 30.7239 36.5 31 36.5H34Z" stroke="black"/>
</svg>
