<svg width="48" height="48" viewBox="0 0 48 48" fill="none" xmlns="http://www.w3.org/2000/svg">
<path d="M29 42H9.73849C9.28433 42 8.84877 41.8055 8.52763 41.4593C8.20649 41.1131 8.02607 40.6435 8.02607 40.1538L8.00001 5.84615C8.00001 5.35652 8.18043 4.88695 8.50157 4.54073C8.82271 4.1945 9.25827 4 9.71244 4H25.1243L31.974 10.9231V38.5" stroke="black"/>
<path d="M25 4V9C25 10.1046 25.8954 11 27 11H32" stroke="black" stroke-linecap="round"/>
<rect x="11.5" y="14.5" width="17" height="2" rx="1" stroke="black"/>
<rect x="11.5" y="19.5" width="17" height="2" rx="1" stroke="black"/>
<rect x="11.5" y="24.5" width="17" height="2" rx="1" stroke="black"/>
<rect x="11.5" y="29.5" width="17" height="2" rx="1" stroke="black"/>
<rect x="11.5" y="34.5" width="10" height="2" rx="1" stroke="black"/>
<path d="M30.454 39.2782L30.8076 39.6318L31.1611 39.2782L38.6716 31.7678C39.2573 31.182 40.2071 31.182 40.7929 31.7678C41.3787 32.3536 41.3787 33.3033 40.7929 33.8891L31.1611 43.5208C30.9659 43.7161 30.6493 43.7161 30.454 43.5208L25.7678 38.8346C25.182 38.2488 25.182 37.2991 25.7678 36.7133C26.3536 36.1275 27.3033 36.1275 27.8891 36.7133L30.454 39.2782Z" stroke="black"/>
</svg>
