<svg width="48" height="48" viewBox="0 0 48 48" fill="none" xmlns="http://www.w3.org/2000/svg">
<path d="M13.5 29L9.09313 34.2081C8.46216 34.9538 8.46216 36.0462 9.09313 36.7919L13.5 42V38H22.5V33H13.5V29Z" stroke="black" stroke-linejoin="round"/>
<path d="M16.0206 33L16 5.84615C16 5.35652 16.1804 4.88695 16.5016 4.54073C16.8227 4.1945 17.2583 4 17.7124 4H33.1242L39.9739 10.9231L40 39.5V40.1538C40 40.6435 39.8196 41.1131 39.4984 41.4593C39.1773 41.8055 38.7417 42 38.2876 42H17.7385C17.2843 42 16.8488 41.8055 16.5276 41.4593C16.2065 41.1131 16.0261 40.6435 16.0261 40.1538L16.0244 38" stroke="black"/>
<path d="M33 4V9C33 10.1046 33.8954 11 35 11H40" stroke="black" stroke-linecap="round"/>
<path d="M27.8321 12H28.7107C29.1959 12 29.5892 12.3933 29.5892 12.8786C29.5892 13.349 29.5892 13.9716 29.5892 14.3806C31.7399 14.9858 33.5428 16.9914 33.5428 19.0285H30.9071C30.9071 18.2023 29.6304 16.8321 28.2714 16.8321C26.9617 16.8321 25.6357 17.5865 25.6357 19.0285C25.6357 20.3893 27.1706 21.2249 28.2714 21.2249C31.3257 21.2249 33.5428 23.257 33.5428 26.057C33.5428 28.3916 31.9149 30.2398 29.5892 30.7491V31.7677C29.5892 32.2529 29.1959 32.6462 28.7107 32.6462H27.8321C27.3469 32.6462 26.9535 32.2529 26.9535 31.7677V30.6995C24.8113 30.0877 23 28.088 23 26.057H25.6357C25.6357 26.8833 26.9123 28.2534 28.2714 28.2534C29.5811 28.2534 30.9071 27.499 30.9071 26.057C30.9071 24.4361 29.4871 23.8606 28.2714 23.8606C25.7258 23.8606 23 21.919 23 19.0285C23 16.6903 24.6221 14.8401 26.9535 14.334C26.9535 13.8689 26.9535 13.3467 26.9535 12.8786C26.9535 12.3933 27.3469 12 27.8321 12Z" stroke="black"/>
</svg>
