<svg width="48" height="48" viewBox="0 0 48 48" fill="none" xmlns="http://www.w3.org/2000/svg">
<path d="M28.5 42H9.73848C9.28432 42 8.84876 41.8055 8.52761 41.4593C8.20647 41.1131 8.02606 40.6435 8.02606 40.1538L8 5.84615C8 5.35652 8.18042 4.88695 8.50156 4.54073C8.8227 4.1945 9.25826 4 9.71242 4H25.1242L31.9739 10.9231V28.5" stroke="black"/>
<path d="M25 4V9C25 10.1046 25.8954 11 27 11H32" stroke="black" stroke-linecap="round"/>
<path d="M19.8321 12H20.7107C21.1959 12 21.5892 12.3933 21.5892 12.8786C21.5892 13.349 21.5892 13.9716 21.5892 14.3806C23.7399 14.9858 25.5428 16.9914 25.5428 19.0285H22.9071C22.9071 18.2023 21.6304 16.8321 20.2714 16.8321C18.9617 16.8321 17.6357 17.5865 17.6357 19.0285C17.6357 20.3893 19.1706 21.2249 20.2714 21.2249C23.3257 21.2249 25.5428 23.257 25.5428 26.057C25.5428 28.3916 23.9149 30.2398 21.5892 30.7491V31.7677C21.5892 32.2529 21.1959 32.6462 20.7107 32.6462H19.8321C19.3469 32.6462 18.9535 32.2529 18.9535 31.7677V30.6995C16.8113 30.0877 15 28.088 15 26.057H17.6357C17.6357 26.8833 18.9123 28.2534 20.2714 28.2534C21.5811 28.2534 22.9071 27.499 22.9071 26.057C22.9071 24.4361 21.4871 23.8606 20.2714 23.8606C17.7258 23.8606 15 21.919 15 19.0285C15 16.6903 16.6221 14.8401 18.9535 14.334C18.9535 13.8689 18.9535 13.3467 18.9535 12.8786C18.9535 12.3933 19.3469 12 19.8321 12Z" stroke="black"/>
<rect x="28.5" y="28.5" width="11" height="15" rx="1.5" stroke="black"/>
<rect x="30.5" y="30.5" width="7" height="3" rx="0.5" stroke="black"/>
<rect x="30.5" y="36.5" width="1" height="1" rx="0.5" stroke="black"/>
<rect x="33.5" y="36.5" width="1" height="1" rx="0.5" stroke="black"/>
<rect x="30.5" y="39.5" width="1" height="1" rx="0.5" stroke="black"/>
<rect x="33.5" y="39.5" width="1" height="1" rx="0.5" stroke="black"/>
<rect x="36.5" y="36.5" width="1" height="4" rx="0.5" stroke="black"/>
</svg>
