<svg width="48" height="48" viewBox="0 0 48 48" fill="none" xmlns="http://www.w3.org/2000/svg">
<path d="M10.9396 4.93934C11.2209 4.65804 11.6024 4.5 12.0002 4.5H29.7931L37.5002 12.2071V42C37.5002 42.3978 37.3422 42.7794 37.0609 43.0607C36.7796 43.342 36.3981 43.5 36.0002 43.5H12.0002C11.6024 43.5 11.2209 43.342 10.9396 43.0607C10.6583 42.7794 10.5002 42.3978 10.5002 42V6C10.5002 5.60218 10.6583 5.22064 10.9396 4.93934Z" stroke="black"/>
<path d="M30 5V10C30 11.1046 30.8954 12 32 12H37" stroke="black" stroke-linecap="round"/>
<path d="M23.8321 12H24.7107C25.1959 12 25.5892 12.3933 25.5892 12.8786C25.5892 13.349 25.5892 13.9716 25.5892 14.3806C27.7399 14.9858 29.5428 16.9914 29.5428 19.0285H26.9071C26.9071 18.2023 25.6304 16.8321 24.2714 16.8321C22.9617 16.8321 21.6357 17.5865 21.6357 19.0285C21.6357 20.3893 23.1706 21.2249 24.2714 21.2249C27.3257 21.2249 29.5428 23.257 29.5428 26.057C29.5428 28.3916 27.9149 30.2398 25.5892 30.7491V31.7677C25.5892 32.2529 25.1959 32.6462 24.7107 32.6462H23.8321C23.3469 32.6462 22.9535 32.2529 22.9535 31.7677V30.6995C20.8113 30.0877 19 28.088 19 26.057H21.6357C21.6357 26.8833 22.9123 28.2534 24.2714 28.2534C25.5811 28.2534 26.9071 27.499 26.9071 26.057C26.9071 24.4361 25.4871 23.8606 24.2714 23.8606C21.7258 23.8606 19 21.919 19 19.0285C19 16.6903 20.6221 14.8401 22.9535 14.334C22.9535 13.8689 22.9535 13.3467 22.9535 12.8786C22.9535 12.3933 23.3469 12 23.8321 12Z" stroke="black"/>
<rect x="15.5" y="36.5" width="17" height="2" rx="1" stroke="black"/>
</svg>
