<svg width="48" height="48" viewBox="0 0 48 48" fill="none" xmlns="http://www.w3.org/2000/svg">
<path d="M31 42H12.7385C12.2843 42 11.8488 41.8055 11.5276 41.4593C11.2065 41.1131 11.0261 40.6435 11.0261 40.1538L11 5.84615C11 5.35652 11.1804 4.88695 11.5016 4.54073C11.8227 4.1945 12.2583 4 12.7124 4H28.1242L34.9739 10.9231V36" stroke="black"/>
<path d="M28 4V9C28 10.1046 28.8954 11 30 11H35" stroke="black" stroke-linecap="round"/>
<path d="M22.8321 12H23.7107C24.1959 12 24.5892 12.3933 24.5892 12.8786C24.5892 13.349 24.5892 13.9716 24.5892 14.3806C26.7399 14.9858 28.5428 16.9914 28.5428 19.0285H25.9071C25.9071 18.2023 24.6304 16.8321 23.2714 16.8321C21.9617 16.8321 20.6357 17.5865 20.6357 19.0285C20.6357 20.3893 22.1706 21.2249 23.2714 21.2249C26.3257 21.2249 28.5428 23.257 28.5428 26.057C28.5428 28.3916 26.9149 30.2398 24.5892 30.7491V31.7677C24.5892 32.2529 24.1959 32.6462 23.7107 32.6462H22.8321C22.3469 32.6462 21.9535 32.2529 21.9535 31.7677V30.6995C19.8113 30.0877 18 28.088 18 26.057H20.6357C20.6357 26.8833 21.9123 28.2534 23.2714 28.2534C24.5811 28.2534 25.9071 27.499 25.9071 26.057C25.9071 24.4361 24.4871 23.8606 23.2714 23.8606C20.7258 23.8606 18 21.919 18 19.0285C18 16.6903 19.6221 14.8401 21.9535 14.334C21.9535 13.8689 21.9535 13.3467 21.9535 12.8786C21.9535 12.3933 22.3469 12 22.8321 12Z" stroke="black"/>
<path d="M35.1317 36.0104L35.4853 36.364L35.8388 36.0104L37.9602 33.8891C38.1554 33.6938 38.472 33.6938 38.6673 33.8891L40.0815 35.3033C40.2767 35.4986 40.2767 35.8151 40.0815 36.0104L37.9602 38.1317L37.6066 38.4853L37.9602 38.8388L40.0815 40.9602C40.2767 41.1554 40.2767 41.472 40.0815 41.6673L38.6673 43.0815C38.472 43.2767 38.1554 43.2767 37.9602 43.0815L35.8388 40.9602L35.4853 40.6066L35.1317 40.9602L33.0104 43.0815C32.8152 43.2767 32.4986 43.2767 32.3033 43.0815L30.8891 41.6673C30.6938 41.472 30.6938 41.1554 30.8891 40.9602L33.0104 38.8388L33.364 38.4853L33.0104 38.1317L30.8891 36.0104C30.6938 35.8151 30.6938 35.4986 30.8891 35.3033L32.3033 33.8891C32.4986 33.6938 32.8152 33.6938 33.0104 33.8891L35.1317 36.0104Z" stroke="black"/>
</svg>
