<svg width="48" height="48" viewBox="0 0 48 48" fill="none" xmlns="http://www.w3.org/2000/svg">
<path d="M11 18.5L10.693 18.1053L10.693 18.1053L11 18.5ZM5.5 37L5.04602 37.2095C5.0881 37.3007 5.15665 37.3771 5.24275 37.4287L5.5 37ZM11 39.5L10.8419 39.9743C11.0297 40.037 11.2368 39.9828 11.37 39.8363L11 39.5ZM16 34V33.5C15.8591 33.5 15.7248 33.5594 15.63 33.6637L16 34ZM32 34L32.37 33.6637C32.2752 33.5594 32.1409 33.5 32 33.5V34ZM37 39.5L36.63 39.8363C36.7632 39.9828 36.9703 40.037 37.1581 39.9743L37 39.5ZM42.5 37L42.7572 37.4287C42.8433 37.3771 42.9119 37.3007 42.954 37.2095L42.5 37ZM37 18.5L37.307 18.1053L37.307 18.1053L37 18.5ZM11.307 18.8947C15.6563 15.5119 20.9892 15.5 24 15.5V14.5C21.0108 14.5 15.3437 14.4881 10.693 18.1053L11.307 18.8947ZM5.95398 36.7905C4.52531 33.695 4.74936 30.0872 5.90916 26.791C7.06944 23.4933 9.14294 20.5778 11.307 18.8947L10.693 18.1053C8.35707 19.9222 6.18056 23.0067 4.96585 26.459C3.75064 29.9128 3.47469 33.805 5.04602 37.2095L5.95398 36.7905ZM11.1581 39.0257C10.1772 38.6987 7.7145 37.7456 5.75725 36.5713L5.24275 37.4287C7.2855 38.6544 9.82281 39.6346 10.8419 39.9743L11.1581 39.0257ZM15.63 33.6637L10.63 39.1637L11.37 39.8363L16.37 34.3363L15.63 33.6637ZM24 33.5H16V34.5H24V33.5ZM24 34.5H32V33.5H24V34.5ZM31.63 34.3363L36.63 39.8363L37.37 39.1637L32.37 33.6637L31.63 34.3363ZM37.1581 39.9743C38.1772 39.6346 40.7145 38.6544 42.7572 37.4287L42.2428 36.5713C40.2855 37.7456 37.8228 38.6987 36.8419 39.0257L37.1581 39.9743ZM42.954 37.2095C44.5253 33.805 44.2494 29.9128 43.0342 26.459C41.8194 23.0067 39.6429 19.9222 37.307 18.1053L36.693 18.8947C38.8571 20.5778 40.9306 23.4933 42.0908 26.791C43.2506 30.0872 43.4747 33.695 42.046 36.7905L42.954 37.2095ZM37.307 18.1053C32.6563 14.4881 26.9892 14.5 24 14.5V15.5C27.0108 15.5 32.3437 15.5119 36.693 18.8947L37.307 18.1053Z" fill="black"/>
<path d="M13 22.5H13.5V22V21C13.5 20.7239 13.7239 20.5 14 20.5H15C15.2761 20.5 15.5 20.7239 15.5 21V22V22.5H16H17C17.2761 22.5 17.5 22.7239 17.5 23V24C17.5 24.2761 17.2761 24.5 17 24.5H16H15.5V25V26C15.5 26.2761 15.2761 26.5 15 26.5H14C13.7239 26.5 13.5 26.2761 13.5 26V25V24.5H13H12C11.7239 24.5 11.5 24.2761 11.5 24V23C11.5 22.7239 11.7239 22.5 12 22.5H13Z" stroke="black"/>
<circle cx="33.5" cy="20.5" r="1" stroke="black"/>
<circle cx="33.5" cy="26.5" r="1" stroke="black"/>
<circle cx="36.5" cy="23.5" r="1" stroke="black"/>
<circle cx="30.5" cy="23.5" r="1" stroke="black"/>
<rect x="19.5" y="28.5" width="3" height="2" rx="1" stroke="black"/>
<path d="M25 15L25 14C25 13.4477 24.5523 13 24 13V13M23 15L23 14C23 13.4477 23.4477 13 24 13V13M24 13C24.3333 12.8333 24 10.5 22 10.5C20 10.5 20.5 8.5 20.5 8" stroke="black" stroke-linecap="round" stroke-linejoin="round"/>
<rect x="25.5" y="28.5" width="3" height="2" rx="1" stroke="black"/>
</svg>
