<svg width="48" height="48" viewBox="0 0 48 48" fill="none" xmlns="http://www.w3.org/2000/svg">
<rect x="4.5" y="8.5" width="39" height="31" rx="3.5" stroke="black"/>
<path d="M9 22V36" stroke="black"/>
<path d="M19 22V36" stroke="black"/>
<path d="M31 22V36" stroke="black"/>
<path d="M38 22V36" stroke="black"/>
<path d="M12 22V36" stroke="black"/>
<path d="M22 22V36" stroke="black"/>
<path d="M34 22V36" stroke="black"/>
<path d="M15 22V36" stroke="black"/>
<path d="M25 22V36" stroke="black"/>
<path d="M27 22V36" stroke="black"/>
<path d="M16 22V36" stroke="black"/>
<path d="M35 22V36" stroke="black"/>
<path d="M26 22V36" stroke="black"/>
<path d="M28 22V36" stroke="black"/>
<path d="M13.2313 11.6289C13.2313 11.2813 12.95 11.0005 12.6031 11.0005L8 11.0009L10.9446 14.7693L13.1224 11.9819C13.1912 11.8814 13.2313 11.7603 13.2313 11.6289Z" fill="black"/>
<path d="M17.126 14.7299V14.7285L14.635 11.5512C14.4036 11.2301 14.0322 11.0181 13.6098 11.0033V11C13.6098 11 14.3035 11.4163 13.808 12.0427H13.8081L11.4948 15.0029L11.4925 14.9991L8.3678 18.9971L13.2611 19L13.6255 18.9872C14.0207 18.9698 14.3716 18.78 14.6032 18.4896L14.6077 18.4868L17.1149 15.2794V15.2765C17.1759 15.1991 17.2138 15.1028 17.2138 14.997C17.2138 14.8969 17.1808 14.8058 17.126 14.7299Z" fill="black"/>
<circle cx="35" cy="15" r="2.5" stroke="black"/>
</svg>
