<svg width="48" height="48" viewBox="0 0 48 48" fill="none" xmlns="http://www.w3.org/2000/svg">
<path d="M24 28H8C5.79086 28 4 26.2091 4 24V12C4 9.79086 5.79086 8 8 8H40C42.2091 8 44 9.79086 44 12V24C44 26.2091 42.2091 28 40 28H36.5" stroke="black"/>
<path d="M9 11V25" stroke="black"/>
<path d="M19 11V25" stroke="black"/>
<path d="M31 11V20" stroke="black"/>
<path d="M38 11V25" stroke="black"/>
<path d="M12 11V25" stroke="black"/>
<path d="M22 11V25" stroke="black"/>
<path d="M34 11V21" stroke="black"/>
<path d="M15 11V25" stroke="black"/>
<path d="M25 11V23" stroke="black"/>
<path d="M27 11V21" stroke="black"/>
<path d="M16 11V25" stroke="black"/>
<path d="M35 11V22" stroke="black"/>
<path d="M26 11V22" stroke="black"/>
<path d="M28 11V20" stroke="black"/>
<circle cx="30.2865" cy="26.2865" r="6.2865" stroke="black"/>
<path d="M28.3351 22.5346C28.9189 22.2303 29.5826 22.0583 30.2865 22.0583C32.2154 22.0583 33.8427 23.3501 34.3504 25.1157M34.2895 27.6513C34.0922 28.2304 33.7727 28.753 33.3617 29.1883" stroke="black" stroke-linecap="round"/>
<path d="M35.0566 31.0396L36.1885 32.1432" stroke="black" stroke-linecap="round"/>
<rect x="34.9776" y="33.7889" width="4" height="8.94893" rx="2" transform="rotate(-45 34.9776 33.7889)" stroke="black"/>
</svg>
