<svg width="48" height="48" viewBox="0 0 48 48" fill="none" xmlns="http://www.w3.org/2000/svg">
<path d="M15.8 8H12C9.79086 8 8 9.79086 8 12V40C8 42.2091 9.79086 44 12 44H31.5C32.8807 44 34 42.8807 34 41.5V41.5M26.5 8H30C32.2091 8 34 9.79086 34 12V24.5" stroke="black"/>
<rect x="15.5" y="6.5" width="11" height="5" rx="1.5" stroke="black"/>
<path d="M21 4C19.5 4 18 5 18 6.5H24C24 5 22.5 4 21 4Z" stroke="black"/>
<path d="M11 17.3333L13.0907 19.3369C13.4775 19.7076 14.0877 19.7076 14.4745 19.3369L19 15" stroke="black" stroke-linecap="round"/>
<rect x="21.5" y="16.5" width="9" height="2" rx="1" stroke="black"/>
<rect x="21.5" y="23.5" width="7" height="2" rx="1" stroke="black"/>
<rect x="21.5" y="29.5" width="3" height="2" rx="1" stroke="black"/>
<rect x="21.5" y="36.5" width="4" height="2" rx="1" stroke="black"/>
<path d="M33 28.5V32.5858C33 32.851 33.1054 33.1054 33.2929 33.2929L37 37" stroke="black" stroke-linecap="round"/>
<circle cx="33" cy="33" r="0.5" stroke="black"/>
<circle cx="33" cy="33" r="8.5" stroke="black"/>
</svg>
