<svg width="48" height="48" viewBox="0 0 48 48" fill="none" xmlns="http://www.w3.org/2000/svg">
<mask id="path-1-inside-1_1571_527" fill="white">
<path fill-rule="evenodd" clip-rule="evenodd" d="M35.8293 9H36C37.1046 9 38 9.89543 38 11C38 12.1046 37.1046 13 36 13H12C10.8954 13 10 12.1046 10 11C10 9.89543 10.8954 9 12 9H12.1707C12.5825 7.83481 13.6938 7 15 7H33C34.3062 7 35.4175 7.83481 35.8293 9Z"/>
</mask>
<path d="M35.8293 9L34.8865 9.33325L35.1221 10H35.8293V9ZM12.1707 9V10H12.8779L13.1135 9.33325L12.1707 9ZM35.8293 10H36V8H35.8293V10ZM36 10C36.5523 10 37 10.4477 37 11H39C39 9.34315 37.6569 8 36 8V10ZM37 11C37 11.5523 36.5523 12 36 12V14C37.6569 14 39 12.6569 39 11H37ZM36 12H12V14H36V12ZM12 12C11.4477 12 11 11.5523 11 11H9C9 12.6569 10.3431 14 12 14V12ZM11 11C11 10.4477 11.4477 10 12 10V8C10.3431 8 9 9.34315 9 11H11ZM12 10H12.1707V8H12V10ZM13.1135 9.33325C13.3886 8.5551 14.1307 8 15 8V6C13.2568 6 11.7765 7.11451 11.2279 8.66675L13.1135 9.33325ZM15 8H33V6H15V8ZM33 8C33.8693 8 34.6114 8.5551 34.8865 9.33325L36.7721 8.66675C36.2235 7.11451 34.7432 6 33 6V8Z" fill="black" mask="url(#path-1-inside-1_1571_527)"/>
<path d="M18 41L18 15" stroke="black" stroke-linecap="round"/>
<path d="M30 41L30 35" stroke="black" stroke-linecap="round"/>
<path d="M30 33L30 15" stroke="black" stroke-linecap="round"/>
<path d="M24 37L24 28" stroke="black" stroke-linecap="round"/>
<path d="M24 41L24 39" stroke="black" stroke-linecap="round"/>
<path d="M24 26L24 15" stroke="black" stroke-linecap="round"/>
<path d="M12.5 12.5H35.5V40C35.5 41.933 33.933 43.5 32 43.5H16C14.067 43.5 12.5 41.933 12.5 40V12.5Z" stroke="black"/>
<path d="M20.5354 7.5C20.7781 5.80385 22.2368 4.5 24 4.5C25.7632 4.5 27.2219 5.80385 27.4646 7.5H20.5354Z" stroke="black"/>
</svg>
