<svg width="48" height="48" viewBox="0 0 48 48" fill="none" xmlns="http://www.w3.org/2000/svg">
<path d="M34.7717 35.6141L30.8298 37.5851L24.8944 40.5528C24.3314 40.8343 23.6686 40.8343 23.1056 40.5528L13.2283 35.6141M41 29.5V16.7361C41 15.9785 40.572 15.286 39.8944 14.9472L24.8944 7.44721C24.3314 7.16569 23.6686 7.16569 23.1056 7.44721L17.5 10.25L9 14.5L8.10557 14.9472C7.428 15.286 7 15.9785 7 16.7361V21.5V29.5" stroke="black"/>
<path d="M24 41V24.1M24 24.1L8 15.5M24 24.1L40 15.5" stroke="black"/>
<path d="M13.5 12L30.1538 20.6364V26.3726C30.1538 27.1182 30.9405 27.6016 31.6057 27.2647L33.9037 26.1007C34.5762 25.7601 35 25.0703 35 24.3165V18.1818L18.5 9.5" stroke="black"/>
<path d="M39.2012 31.1817L39.7012 31.1817L39.7012 30.6817L39.7012 27.5376L43.575 32.8642C43.6791 33.0074 43.7351 33.1799 43.7351 33.3569C43.7351 33.534 43.6791 33.7064 43.575 33.8497L39.7012 39.1767L39.7012 36.0325L39.7012 35.5325L39.2012 35.5325L30.3376 35.5325C30.3375 35.5325 30.3375 35.5325 30.3374 35.5325C30.1153 35.5323 29.9024 35.4441 29.7454 35.287C29.5884 35.13 29.5001 34.9171 29.5 34.695C29.5 34.695 29.5 34.6949 29.5 34.6949L29.5 32.0196C29.5 31.7974 29.5882 31.5843 29.7453 31.4272C29.9023 31.2701 30.1153 31.1818 30.3374 31.1817C30.3375 31.1817 30.3375 31.1817 30.3376 31.1817L39.2012 31.1817Z" stroke="black"/>
<path d="M9.03396 35.5327L8.53396 35.5327L8.53396 36.0327L8.53395 39.1767L4.66011 33.8501C4.55605 33.7069 4.50001 33.5344 4.50001 33.3574C4.50001 33.1804 4.55605 33.0079 4.66011 32.8647L8.53396 27.5377L8.53396 30.6819L8.53396 31.1819L9.03396 31.1819L17.8975 31.1819C17.8976 31.1819 17.8977 31.1819 17.8977 31.1819C18.1198 31.182 18.3327 31.2703 18.4897 31.4273C18.6467 31.5843 18.735 31.7973 18.7351 32.0194C18.7351 32.0194 18.7351 32.0194 18.7351 32.0195L18.7351 34.6948C18.7351 34.917 18.6469 35.13 18.4898 35.2872C18.3328 35.4443 18.1198 35.5326 17.8977 35.5327C17.8976 35.5327 17.8976 35.5327 17.8975 35.5327L9.03396 35.5327Z" stroke="black"/>
</svg>
