<svg width="48" height="48" viewBox="0 0 48 48" fill="none" xmlns="http://www.w3.org/2000/svg">
<path d="M17.0002 35L6.71819 38.9547C6.41525 39.0712 6.08849 39.1122 5.76614 39.0743C5.44378 39.0363 5.13552 38.9204 4.86797 38.7366C4.60041 38.5529 4.3816 38.3067 4.23042 38.0195C4.07924 37.7323 4.00024 37.4126 4.00024 37.088V19.2797C4.00024 18.8977 4.10967 18.5236 4.31556 18.2018C4.52146 17.88 4.81522 17.6239 5.16209 17.4638L17.0002 12M17.0002 35V12M17.0002 35L30 40M17.0002 12L28.5 18M30 40L42.6464 35.4705C43.0436 35.3282 43.3863 35.0716 43.6283 34.7354C43.8703 34.3991 44 33.9993 44 33.5896V15.0058C44 14.6716 43.9137 14.3427 43.7488 14.049C43.584 13.7553 43.3459 13.5061 43.0561 13.324C42.7664 13.1418 42.4341 13.0326 42.0897 13.0063C41.7452 12.9799 41.3993 13.0372 41.0835 13.1729L36 15.5M30 40V30M30 25V23" stroke="black"/>
<path d="M31.6704 22.629H27.7081C27.7185 21.6613 27.791 20.828 27.9256 20.129C28.0707 19.4194 28.3141 18.7796 28.6559 18.2097C29.0081 17.6398 29.4743 17.0753 30.0544 16.5161C30.5413 16.0645 30.966 15.6344 31.3285 15.2258C31.6911 14.8172 31.976 14.3978 32.1831 13.9677C32.3903 13.5269 32.4939 13.0376 32.4939 12.5C32.4939 11.8763 32.4007 11.3602 32.2142 10.9516C32.0381 10.5323 31.7688 10.2151 31.4062 10C31.054 9.78495 30.6086 9.67742 30.0699 9.67742C29.6245 9.67742 29.2101 9.77957 28.8269 9.98387C28.4436 10.1774 28.1276 10.4785 27.879 10.8871C27.6408 11.2957 27.5165 11.8333 27.5061 12.5H23C23.0311 11.0269 23.3574 9.81183 23.9789 8.85484C24.6108 7.8871 25.455 7.17204 26.5117 6.70968C27.5683 6.23656 28.7543 6 30.0699 6C31.5202 6 32.7632 6.24731 33.7991 6.74194C34.835 7.22581 35.6275 7.94086 36.1765 8.8871C36.7255 9.82258 37 10.9624 37 12.3065C37 13.2419 36.8239 14.0753 36.4717 14.8065C36.1195 15.5269 35.6585 16.1989 35.0888 16.8226C34.5191 17.4462 33.8923 18.0914 33.2087 18.7581C32.6182 19.3065 32.2142 19.8817 31.9967 20.4839C31.7895 21.086 31.6807 21.8011 31.6704 22.629ZM27.242 27.6129C27.242 26.9247 27.4698 26.3548 27.9256 25.9032C28.3814 25.4409 28.9926 25.2097 29.7592 25.2097C30.5154 25.2097 31.1213 25.4409 31.5771 25.9032C32.0433 26.3548 32.2764 26.9247 32.2764 27.6129C32.2764 28.2796 32.0433 28.8441 31.5771 29.3065C31.1213 29.7688 30.5154 30 29.7592 30C28.9926 30 28.3814 29.7688 27.9256 29.3065C27.4698 28.8441 27.242 28.2796 27.242 27.6129Z" stroke="black"/>
</svg>
