<svg width="48" height="48" viewBox="0 0 48 48" fill="none" xmlns="http://www.w3.org/2000/svg">
<path d="M17.0002 35L6.71819 38.9547C6.41525 39.0712 6.08849 39.1122 5.76614 39.0743C5.44378 39.0363 5.13552 38.9204 4.86797 38.7366C4.60041 38.5529 4.3816 38.3067 4.23042 38.0195C4.07924 37.7323 4.00024 37.4126 4.00024 37.088V19.2797C4.00024 18.8977 4.10967 18.5236 4.31556 18.2018C4.52146 17.88 4.81522 17.6239 5.16209 17.4638L17.0002 12M17.0002 35V12M17.0002 35L30 40M17.0002 12L19.5 13.1729M30 40L42.6464 35.4705C43.0436 35.3282 43.3863 35.0716 43.6283 34.7354C43.8703 34.3991 44 33.9993 44 33.5896V15.0058C44 14.6716 43.9137 14.3427 43.7488 14.049C43.584 13.7553 43.3459 13.5061 43.0561 13.324C42.7664 13.1418 42.4341 13.0326 42.0897 13.0063C41.7452 12.9799 41.3993 13.0372 41.0835 13.1729L34.5 15.5M30 40V25" stroke="black"/>
<path d="M34.5 15C34.5 12.5975 33.6498 10.7093 32.2611 9.42466C30.8786 8.14568 29.0009 7.5 27 7.5C24.9991 7.5 23.1214 8.14567 21.7389 9.42464C20.3502 10.7093 19.5 12.5975 19.5 15C19.5 15.7903 19.803 16.8043 20.2405 17.8769C20.6843 18.9652 21.2919 20.173 21.9521 21.3715C23.273 23.7692 24.8245 26.1656 25.7544 27.5576C25.891 27.7627 26.0761 27.9309 26.2933 28.0473C26.5107 28.1637 26.7534 28.2246 27 28.2246C27.2465 28.2246 27.4893 28.1637 27.7066 28.0473C27.9237 27.931 28.1087 27.7629 28.2453 27.558C29.1752 26.166 30.7269 23.7695 32.0479 21.3715C32.7081 20.1731 33.3157 18.9653 33.7595 17.8769C34.197 16.8044 34.5 15.7903 34.5 15ZM28.7678 16.2678C28.2989 16.7366 27.663 17 27 17C26.5055 17 26.0222 16.8534 25.6111 16.5787C25.2 16.304 24.8795 15.9135 24.6903 15.4567C24.5011 14.9999 24.4516 14.4972 24.548 14.0123C24.6445 13.5273 24.8826 13.0819 25.2322 12.7322C25.5819 12.3826 26.0273 12.1445 26.5123 12.048C26.9972 11.9516 27.4999 12.0011 27.9567 12.1903C28.4135 12.3795 28.804 12.7 29.0787 13.1111C29.3534 13.5222 29.5 14.0055 29.5 14.5C29.5 15.163 29.2366 15.7989 28.7678 16.2678Z" stroke="black"/>
</svg>
