<svg width="48" height="48" viewBox="0 0 48 48" fill="none" xmlns="http://www.w3.org/2000/svg">
<circle cx="24" cy="24" r="19.5" stroke="black"/>
<path d="M20 10V9.5C19.7978 9.5 19.6155 9.62182 19.5381 9.80866C19.4607 9.99549 19.5035 10.2106 19.6465 10.3536L20 10ZM18.5 7.5L18.1465 7.85355L18.5 7.5ZM23.4472 43.2764C23.2979 42.9778 23 42.1912 23 41.5H22C22 42.4088 22.3687 43.3555 22.5528 43.7236L23.4472 43.2764ZM23 41.5C23 41.0342 22.7449 40.7336 22.4553 40.5573C22.2044 40.4046 21.8919 40.3241 21.6999 40.2692C21.5891 40.2376 21.5066 40.2126 21.4406 40.1862C21.3718 40.1586 21.3575 40.1434 21.3646 40.1501C21.3838 40.168 21.4146 40.2129 21.4193 40.27C21.4225 40.31 21.4078 40.3025 21.4472 40.2236L20.5528 39.7764C20.4672 39.9475 20.4056 40.1432 20.4225 40.3511C20.4409 40.5761 20.5459 40.7539 20.6823 40.8812C20.8066 40.9972 20.9524 41.0679 21.0692 41.1146C21.1887 41.1624 21.3171 41.1999 21.4251 41.2308C21.6706 41.3009 21.8269 41.3454 21.9353 41.4115C22.0051 41.4539 22 41.4658 22 41.5H23ZM21.4472 40.2236C21.5973 39.9235 21.6501 39.7029 21.663 39.5098C21.6676 39.4401 21.6668 39.3388 21.6669 39.3339C21.6674 39.3112 21.6688 39.3247 21.6618 39.3456C21.6506 39.3792 21.6465 39.3421 21.8307 39.1727C22.006 39.0114 22.3008 38.7744 22.8 38.4L22.2 37.6C21.6991 37.9756 21.369 38.2386 21.1537 38.4367C20.9472 38.6266 20.7869 38.8083 20.7132 39.0294C20.6749 39.144 20.6686 39.2435 20.6671 39.3126C20.6653 39.3995 20.6683 39.3958 20.6652 39.4433C20.6624 39.4846 20.6527 39.5765 20.5528 39.7764L21.4472 40.2236ZM22.8 38.4C23.8341 37.6245 24.2859 37.0606 24.5221 36.5095C24.6343 36.2476 24.6912 36.0004 24.7418 35.8052C24.7939 35.6045 24.846 35.4261 24.9472 35.2236L24.0528 34.7764C23.9041 35.0739 23.8312 35.333 23.7738 35.5542C23.7151 35.7809 23.6782 35.9399 23.6029 36.1155C23.4641 36.4394 23.1659 36.8755 22.2 37.6L22.8 38.4ZM24.9472 35.2236C25.0195 35.079 25.0857 35.0407 25.1425 35.0175C25.2457 34.9752 25.3386 34.9713 25.5822 34.9307C25.7937 34.8954 26.0812 34.832 26.3526 34.6222C26.6259 34.411 26.8286 34.0955 26.9744 33.6581L26.0257 33.3419C25.9215 33.6545 25.8117 33.7764 25.7412 33.8309C25.6689 33.8868 25.5813 33.9171 25.4178 33.9443C25.2864 33.9662 25.0043 33.9935 24.7638 34.0919C24.4769 34.2093 24.2305 34.421 24.0528 34.7764L24.9472 35.2236ZM26.9744 33.6581C27.2344 32.8781 27.3652 32.224 27.4881 31.671C27.6124 31.1118 27.7269 30.6642 27.9472 30.2236L27.0528 29.7764C26.7731 30.3358 26.6377 30.8882 26.5119 31.454C26.3848 32.026 26.2657 32.6219 26.0257 33.3419L26.9744 33.6581ZM27.9472 30.2236C28.1308 29.8564 28.1477 29.4857 28.0084 29.1514C27.8784 28.8393 27.6354 28.6143 27.4024 28.459C27.1652 28.3008 26.8997 28.1888 26.6627 28.1159C26.4306 28.0445 26.1913 28 26 28V29C26.0588 29 26.1944 29.018 26.3686 29.0716C26.5379 29.1237 26.7099 29.1992 26.8477 29.291C26.9896 29.3857 27.0592 29.4732 27.0854 29.5361C27.1023 29.5768 27.1192 29.6436 27.0528 29.7764L27.9472 30.2236ZM26 28C25.8382 28 25.2833 27.8982 24.7656 27.6681C24.5124 27.5555 24.3041 27.4276 24.1666 27.2956C24.0312 27.1656 24 27.0686 24 27H23C23 27.4314 23.2188 27.7719 23.4741 28.0169C23.7271 28.2599 24.0502 28.4444 24.3594 28.5819C24.9668 28.8518 25.6618 29 26 29V28ZM24 27C24 26.3374 23.6737 25.7166 23.2286 25.2714C22.7834 24.8263 22.1626 24.5 21.5 24.5V25.5C21.8374 25.5 22.2166 25.6737 22.5215 25.9786C22.8263 26.2834 23 26.6626 23 27H24ZM21.5 24.5C21.3303 24.5 21.1407 24.4572 20.9126 24.3787C20.6618 24.2925 20.469 24.2044 20.1756 24.0943C19.661 23.9014 18.9795 23.7012 18.2764 24.0528L18.7236 24.9472C19.0205 24.7988 19.339 24.8486 19.8245 25.0307C20.031 25.1081 20.3382 25.2387 20.5875 25.3244C20.8593 25.4178 21.1697 25.5 21.5 25.5V24.5ZM18.2764 24.0528C17.8569 24.2625 17.3108 24.375 16.8125 24.375C16.5657 24.375 16.3462 24.3473 16.172 24.2993C15.9919 24.2496 15.895 24.1879 15.8536 24.1464L15.1465 24.8536C15.355 25.0621 15.6332 25.1879 15.9061 25.2632C16.1851 25.3402 16.4969 25.375 16.8125 25.375C17.4392 25.375 18.1431 25.2375 18.7236 24.9472L18.2764 24.0528ZM15.8536 24.1464C15.8408 24.1337 15.8002 24.0748 15.7651 23.8855C15.749 23.7987 15.737 23.7025 15.7244 23.5913C15.7124 23.4857 15.6995 23.3607 15.6825 23.2418C15.6502 23.0161 15.5924 22.7112 15.4205 22.4598C15.2186 22.1648 14.902 22 14.5 22V23C14.598 23 14.5939 23.0227 14.5952 23.0245C14.6263 23.0701 14.6623 23.1714 14.6925 23.3832C14.7068 23.483 14.7173 23.5846 14.7307 23.7036C14.7435 23.817 14.7588 23.9435 14.7818 24.0676C14.8249 24.3002 14.9092 24.6163 15.1465 24.8536L15.8536 24.1464ZM14.5 22C14.3591 22 14.0018 21.9121 13.5426 21.7131C13.1025 21.5224 12.6476 21.2638 12.3201 20.9909C12.1562 20.8543 12.0411 20.728 11.9728 20.6206C11.9045 20.5129 11.9023 20.4559 11.904 20.438C11.9043 20.4351 11.9314 20.2166 12.6581 19.9743L12.3419 19.0257C11.5686 19.2834 10.9707 19.6899 10.9085 20.3432C10.879 20.6535 10.9862 20.9324 11.1288 21.1568C11.2714 21.3813 11.4688 21.5832 11.6799 21.7591C12.1024 22.1112 12.6476 22.4151 13.145 22.6307C13.6233 22.8379 14.1409 23 14.5 23V22ZM12.6581 19.9743C13.3599 19.7404 13.8593 19.6907 14.2233 19.7102C14.5843 19.7296 14.8401 19.8178 15.0744 19.9057C15.1846 19.947 15.3264 20.0029 15.4603 20.0377C15.604 20.075 15.781 20.1006 15.977 20.0598C16.3724 19.9774 16.6562 19.6671 16.916 19.2773L16.084 18.7226C15.8438 19.0829 15.7526 19.0851 15.773 19.0808C15.7815 19.0791 15.771 19.0852 15.7116 19.0698C15.6424 19.0518 15.5654 19.0218 15.4256 18.9693C15.1599 18.8697 14.7908 18.7392 14.2768 18.7117C13.7658 18.6843 13.1401 18.7596 12.3419 19.0257L12.6581 19.9743ZM16.916 19.2773C17.1999 18.8516 17.3269 18.5 17.3703 18.1855C17.3915 18.0317 17.3909 17.8996 17.3863 17.792C17.3807 17.6623 17.375 17.6301 17.375 17.5625C17.375 17.5183 17.3795 17.5073 17.3801 17.5058C17.3801 17.5058 17.3857 17.4872 17.4246 17.4464C17.5171 17.3492 17.7311 17.1935 18.2236 16.9472L17.7764 16.0528C17.269 16.3065 16.9204 16.5258 16.7004 16.7567C16.583 16.88 16.495 17.0137 16.4403 17.1641C16.3861 17.313 16.375 17.4505 16.375 17.5625C16.375 17.6512 16.385 17.783 16.3872 17.835C16.3904 17.909 16.3897 17.9761 16.3797 18.0489C16.3606 18.1875 16.3002 18.3984 16.084 18.7226L16.916 19.2773ZM18.2236 16.9472C19.2774 16.4203 20.3481 15.4889 21.3 14.775C22.3099 14.0176 23.1864 13.5 24 13.5V12.5C22.8136 12.5 21.6901 13.2324 20.7 13.975C19.6519 14.7611 18.7226 15.5797 17.7764 16.0528L18.2236 16.9472ZM24 13.5C24.5183 13.5 24.9552 13.4678 25.3049 13.4066C25.638 13.3483 25.953 13.254 26.175 13.0875C26.2921 12.9997 26.4169 12.8663 26.4723 12.6758C26.531 12.4742 26.4905 12.283 26.4099 12.1319C26.2698 11.8691 25.9898 11.6859 25.7236 11.5528L25.2764 12.4472C25.5102 12.5641 25.5427 12.6309 25.5276 12.6025C25.5095 12.5686 25.4847 12.4907 25.5121 12.3965C25.5363 12.3134 25.5829 12.2816 25.575 12.2875C25.547 12.3085 25.4245 12.3705 25.1326 12.4215C24.8574 12.4697 24.4817 12.5 24 12.5V13.5ZM25.7236 11.5528C25.1674 11.2747 24.6154 11.1385 24.1213 11.0149C23.6154 10.8885 23.1674 10.7747 22.7236 10.5528L22.2764 11.4472C22.8326 11.7253 23.3846 11.8615 23.8787 11.9851C24.3846 12.1115 24.8326 12.2253 25.2764 12.4472L25.7236 11.5528ZM22.7236 10.5528C22.1719 10.2769 21.6172 10.1385 21.1999 10.0192C20.7448 9.88921 20.4983 9.79114 20.3536 9.64645L19.6465 10.3536C20.0018 10.7089 20.5053 10.8608 20.9251 10.9808C21.3829 11.1115 21.8281 11.2231 22.2764 11.4472L22.7236 10.5528ZM20 10.5C20.2978 10.5 21.4608 10.3676 22.5244 10.1799C23.0618 10.0851 23.6012 9.97151 24.0136 9.84529C24.2161 9.78328 24.4141 9.71054 24.5706 9.62324C24.648 9.58013 24.7399 9.52009 24.8184 9.43707C24.8959 9.35504 25 9.20688 25 9H24C24 8.85562 24.0729 8.76996 24.0916 8.75019C24.1112 8.72943 24.1167 8.73139 24.0837 8.74981C24.0196 8.78555 23.9011 8.8339 23.7208 8.88909C23.3676 8.99723 22.8758 9.10244 22.3506 9.19511C21.2893 9.38241 20.2022 9.5 20 9.5V10.5ZM25 9C25 8.76403 24.8822 8.58591 24.78 8.47482C24.6758 8.36163 24.5462 8.27154 24.4218 8.19972C24.1708 8.05491 23.848 7.93238 23.5187 7.83359C22.8604 7.63611 22.0609 7.5 21.5 7.5V8.5C21.9391 8.5 22.6396 8.61389 23.2313 8.79141C23.527 8.88012 23.7668 8.97634 23.922 9.06591C24.0007 9.11128 24.0352 9.14227 24.0443 9.15213C24.0553 9.16409 24 9.11097 24 9H25ZM21.5 7.5C21.2136 7.5 20.9326 7.53578 20.688 7.56636C20.4326 7.59828 20.2136 7.625 20 7.625C19.6071 7.625 19.2432 7.53608 18.8536 7.14645L18.1465 7.85355C18.7568 8.46392 19.3929 8.625 20 8.625C20.2864 8.625 20.5674 8.58922 20.812 8.55864C21.0674 8.52672 21.2864 8.5 21.5 8.5V7.5ZM18.8536 7.14645C18.0951 6.38798 17.5922 5.56634 17.4472 5.27639L16.5528 5.72361C16.7412 6.10032 17.3049 7.01202 18.1465 7.85355L18.8536 7.14645ZM5.0431 18.2031C5.3825 18.9667 5.94505 20.0935 6.53213 20.987C6.82282 21.4295 7.1385 21.8444 7.45375 22.127C7.61071 22.2677 7.79338 22.3994 7.99656 22.4739C8.21011 22.5522 8.47013 22.574 8.72361 22.4472L8.2764 21.5528C8.32988 21.526 8.36699 21.5446 8.34096 21.5351C8.30455 21.5217 8.23097 21.4807 8.12127 21.3824C7.90318 21.1869 7.64386 20.858 7.36789 20.438C6.82164 19.6065 6.28418 18.5333 5.95691 17.7969L5.0431 18.2031ZM8.72361 22.4472C8.83998 22.389 8.89814 22.3679 8.92148 22.3616C8.94704 22.3547 8.87319 22.3815 8.76744 22.3392C8.71415 22.3179 8.67429 22.2873 8.64774 22.2603C8.63538 22.2478 8.6269 22.237 8.62187 22.2302C8.61931 22.2267 8.61746 22.2239 8.61629 22.2221C8.61513 22.2203 8.61452 22.2193 8.61447 22.2192C8.61442 22.2191 8.6148 22.2198 8.61564 22.2213C8.61649 22.2229 8.61768 22.2251 8.61926 22.2282C8.62256 22.2346 8.62666 22.2429 8.63233 22.2546C8.64176 22.2742 8.66009 22.3132 8.67779 22.3486C8.76168 22.5164 8.89784 22.7421 9.17953 22.9588C9.45209 23.1685 9.83329 23.3487 10.3787 23.4851L10.6213 22.5149C10.1667 22.4013 9.92292 22.269 9.78924 22.1662C9.66468 22.0704 9.61334 21.9836 9.57222 21.9014C9.56107 21.8791 9.51163 21.7718 9.47539 21.7105C9.42792 21.6301 9.32887 21.4868 9.13883 21.4108C8.95495 21.3372 8.77954 21.3641 8.66057 21.3962C8.53937 21.429 8.41004 21.486 8.2764 21.5528L8.72361 22.4472ZM10.3787 23.4851C11.4275 23.7473 12.7328 23.9812 13.8188 24.4035C14.3553 24.6121 14.788 24.8497 15.0804 25.1231C15.3613 25.3856 15.5 25.6667 15.5 26H16.5C16.5 25.3333 16.2012 24.8019 15.7633 24.3925C15.337 23.994 14.7697 23.7004 14.1812 23.4715C13.0172 23.0188 11.5725 22.7527 10.6213 22.5149L10.3787 23.4851ZM15.5 26C15.5 26.8341 15.1041 27.308 14.7504 27.9447C14.5837 28.2447 14.411 28.6205 14.447 29.0638C14.4837 29.5164 14.7266 29.9336 15.1465 30.3536L15.8536 29.6464C15.5235 29.3164 15.4539 29.1085 15.4437 28.983C15.4328 28.8483 15.4788 28.6928 15.6246 28.4303C15.8959 27.942 16.5 27.1659 16.5 26H15.5ZM15.1465 30.3536C15.908 31.1151 16.3591 31.5704 16.6963 32.1322C17.0276 32.6845 17.2638 33.3687 17.5097 34.5981L18.4903 34.4019C18.2362 33.1313 17.9724 32.3155 17.5538 31.6178C17.1409 30.9296 16.592 30.3849 15.8536 29.6464L15.1465 30.3536ZM17.5097 34.5981C17.7579 35.8389 18.1362 37.8562 18.5774 39.6213C18.7979 40.503 19.0382 41.3391 19.2916 41.9932C19.418 42.3194 19.5535 42.6155 19.6992 42.8543C19.8355 43.0775 20.0214 43.3197 20.2764 43.4472L20.7236 42.5528C20.7286 42.5553 20.6645 42.5163 20.5527 42.3332C20.4505 42.1657 20.3398 41.9306 20.224 41.6318C19.9931 41.0359 19.7647 40.247 19.5476 39.3787C19.1138 37.6438 18.7421 35.6611 18.4903 34.4019L17.5097 34.5981Z" fill="black"/>
<path d="M36.5 9.5C35.8333 9.83333 34.7 10.6 35.5 11C36.5 11.5 37 12.5 36 13C35 13.5 33.5 15.5 34 15.5C34.5 15.5 31.5 16 32.5 16.5C33.5 17 35 17 35 17C35.1667 16.5 35.7 15.5 36.5 15.5C37.5 15.5 37.5 17 38 16.5C38.5 16 38 14.5 39 15.5C40 16.5 39.5 17 40.5 17C41.5 17 41 18.5 40.5 18.5C40 18.5 39.5 19.5 38.5 19C37.5 18.5 37.5 18 36 18C34.5 18 34 18.5 33 18.5C32 18.5 32.5 19 32 19.5C31.5 20 29.5 20 30 21C30.5 22 29.5 24 30.5 25C31.5 26 32.5 26 33.5 26C34.5 26 36.5 24.5 36.5 26.5C36.5 28.5 36.5 28 37.5 29C38.5 30 37 32.5 38 33.5C39 34.5 38.5 35.5 39.5 35" stroke="black" stroke-linejoin="round"/>
<path d="M32.5 12.4999C32.6667 12.1665 33.1 11.5999 33.5 11.9999" stroke="black" stroke-linecap="round" stroke-linejoin="round"/>
<path d="M15.5 9C15.5 9.5 17.1 9.1 17.5 9.5" stroke="black" stroke-linecap="round" stroke-linejoin="round"/>
</svg>
