<svg width="48" height="48" viewBox="0 0 48 48" fill="none" xmlns="http://www.w3.org/2000/svg">
<mask id="path-1-inside-1_1554_2995" fill="white">
<path fill-rule="evenodd" clip-rule="evenodd" d="M38.6444 13.7843C39.4407 15.7075 39.8503 17.7686 39.85 19.8501L39.875 19.8551C39.875 20.1101 39.865 20.3601 39.85 20.6201C39.275 29.3501 29.12 39.8601 25.375 43.4651C25.007 43.8193 24.5205 44.0243 24.01 44.0401H23.985C23.4665 44.0454 22.9656 43.8522 22.585 43.5001C18.7 39.9451 8.14999 29.4251 8.14999 19.8501V19.8451C8.15066 15.6414 9.8212 11.6101 12.7941 8.63815C14.2662 7.16657 16.0136 5.99934 17.9368 5.20311C19.8599 4.40688 21.921 3.99723 24.0025 3.99756C28.2062 3.99822 32.2374 5.66876 35.2094 8.64168C36.681 10.1137 37.8482 11.8612 38.6444 13.7843ZM24 31.0001C30.0751 31.0001 35 26.0752 35 20.0001C35 13.9249 30.0751 9.00006 24 9.00006C17.9249 9.00006 13 13.9249 13 20.0001C13 26.0752 17.9249 31.0001 24 31.0001Z"/>
</mask>
<path d="M39.85 19.8501L38.85 19.8499L38.8499 20.6699L39.6539 20.8306L39.85 19.8501ZM39.875 19.8551H40.875V19.0352L40.0711 18.8745L39.875 19.8551ZM39.85 20.6201L40.8479 20.6858L40.8483 20.6777L39.85 20.6201ZM25.375 43.4651L24.6815 42.7446L24.6814 42.7447L25.375 43.4651ZM24.01 44.0401V45.0401H24.0255L24.0409 45.0396L24.01 44.0401ZM23.985 44.0401L23.985 43.04L23.9748 43.0401L23.985 44.0401ZM22.585 43.5001L23.2641 42.766L23.2601 42.7623L22.585 43.5001ZM8.14999 19.8451L7.14999 19.8449V19.8451H8.14999ZM12.7941 8.63815L12.0871 7.93093L12.7941 8.63815ZM17.9368 5.20311L18.3193 6.12705L18.3193 6.12705L17.9368 5.20311ZM24.0025 3.99756L24.0027 2.99756L24.0027 2.99756L24.0025 3.99756ZM35.2094 8.64168L34.5022 9.34868L34.5022 9.34868L35.2094 8.64168ZM40.85 19.8502C40.8503 17.6374 40.4149 15.4463 39.5684 13.4018L37.7205 14.1669C38.4665 15.9687 38.8503 17.8998 38.85 19.8499L40.85 19.8502ZM40.0711 18.8745L40.0461 18.8695L39.6539 20.8306L39.6789 20.8356L40.0711 18.8745ZM40.8483 20.6777C40.864 20.4068 40.875 20.1361 40.875 19.8551H38.875C38.875 20.084 38.866 20.3134 38.8517 20.5625L40.8483 20.6777ZM26.0685 44.1855C27.96 42.3647 31.4796 38.7919 34.6057 34.5585C37.7045 30.3618 40.5403 25.3541 40.8478 20.6858L38.8522 20.5543C38.5846 24.616 36.0554 29.2283 32.9968 33.3704C29.9654 37.4757 26.535 40.9604 24.6815 42.7446L26.0685 44.1855ZM24.0409 45.0396C24.7993 45.0161 25.522 44.7117 26.0686 44.1854L24.6814 42.7447C24.4921 42.927 24.2418 43.0324 23.9791 43.0405L24.0409 45.0396ZM23.985 45.0401H24.01V43.0401H23.985V45.0401ZM21.9059 44.2341C22.474 44.7596 23.2215 45.0479 23.9952 45.04L23.9748 43.0401C23.7116 43.0428 23.4573 42.9447 23.2641 42.766L21.9059 44.2341ZM7.14999 19.8501C7.14999 24.9668 9.94866 30.2083 13.1034 34.5228C16.2818 38.8696 19.9442 42.4391 21.9099 44.2378L23.2601 42.7623C21.3408 41.006 17.7857 37.538 14.7178 33.3423C11.6263 29.1143 9.14999 24.3083 9.14999 19.8501H7.14999ZM7.14999 19.8451V19.8501H9.14999V19.8451H7.14999ZM12.0871 7.93093C8.92664 11.0904 7.1507 15.376 7.14999 19.8449L9.14999 19.8452C9.15062 15.9067 10.7158 12.1298 13.5011 9.34537L12.0871 7.93093ZM17.5542 4.27917C15.5098 5.12564 13.652 6.36651 12.0871 7.93093L13.5011 9.34537C14.8803 7.96663 16.5175 6.87305 18.3193 6.12705L17.5542 4.27917ZM24.0027 2.99756C21.7899 2.99721 19.5987 3.4327 17.5542 4.27917L18.3193 6.12705C20.1211 5.38105 22.0522 4.99725 24.0023 4.99756L24.0027 2.99756ZM35.9166 7.93469C32.7571 4.7742 28.4716 2.99826 24.0027 2.99756L24.0023 4.99756C27.9408 4.99818 31.7177 6.56332 34.5022 9.34868L35.9166 7.93469ZM39.5684 13.4018C38.7219 11.3573 37.481 9.4996 35.9166 7.93469L34.5022 9.34868C35.8809 10.7278 36.9745 12.3651 37.7205 14.1669L39.5684 13.4018ZM34 20.0001C34 25.5229 29.5228 30.0001 24 30.0001V32.0001C30.6274 32.0001 36 26.6275 36 20.0001H34ZM24 10.0001C29.5228 10.0001 34 14.4772 34 20.0001H36C36 13.3726 30.6274 8.00006 24 8.00006V10.0001ZM14 20.0001C14 14.4772 18.4772 10.0001 24 10.0001V8.00006C17.3726 8.00006 12 13.3726 12 20.0001H14ZM24 30.0001C18.4772 30.0001 14 25.5229 14 20.0001H12C12 26.6275 17.3726 32.0001 24 32.0001V30.0001Z" fill="black" mask="url(#path-1-inside-1_1554_2995)"/>
<path d="M16 16.154V23.4203C16 23.8005 16.2157 24.1479 16.5565 24.3165L23.5565 27.7805C23.836 27.9188 24.164 27.9188 24.4435 27.7805L31.4435 24.3165C31.7843 24.1479 32 23.8005 32 23.4203V16.154C32 15.7567 31.7648 15.3971 31.4008 15.2379L24.4008 12.1754C24.1453 12.0636 23.8547 12.0636 23.5992 12.1754L16.5992 15.2379C16.2352 15.3971 16 15.7567 16 16.154Z" stroke="black"/>
<path d="M24 28V19.5M24 19.5L16.5 16M24 19.5L31.5 16" stroke="black"/>
<path d="M28 21V17.5L20 14" stroke="black" stroke-linecap="round"/>
</svg>
