<svg width="48" height="48" viewBox="0 0 48 48" fill="none" xmlns="http://www.w3.org/2000/svg">
<path d="M11.1056 33.0528L26.1056 40.5528C26.6686 40.8343 27.3314 40.8343 27.8944 40.5528L42.8944 33.0528C43.572 32.714 44 32.0215 44 31.2639V16.7361C44 15.9785 43.572 15.286 42.8944 14.9472L27.8944 7.44721C27.3314 7.16569 26.6686 7.16569 26.1056 7.44721L11.1056 14.9472C10.428 15.286 10 15.9785 10 16.7361V31.2639C10 32.0215 10.428 32.714 11.1056 33.0528Z" stroke="black"/>
<path d="M27 41V24.1M27 24.1L11 15.5M27 24.1L43 15.5" stroke="black"/>
<path d="M16.5 12L33.1538 20.6364V26.3726C33.1538 27.1182 33.9405 27.6016 34.6057 27.2647L36.9037 26.1007C37.5762 25.7601 38 25.0703 38 24.3165V18.1818L21.5 9.5" stroke="black"/>
<path d="M15 22L5 22" stroke="black" stroke-linecap="round"/>
<path d="M15 30L7 30" stroke="black" stroke-linecap="round"/>
<path d="M18 26L9 26" stroke="black" stroke-linecap="round"/>
<path d="M6 26H4" stroke="black" stroke-linecap="round"/>
</svg>
