<svg width="48" height="48" viewBox="0 0 48 48" fill="none" xmlns="http://www.w3.org/2000/svg">
<path d="M18.8 8H15C12.7909 8 11 9.79086 11 12V40C11 42.2091 12.7909 44 15 44H33C35.2091 44 37 42.2091 37 40V12C37 9.79086 35.2091 8 33 8H29.5" stroke="black"/>
<path d="M18.5 10H15C13.8954 10 13 10.8954 13 12V40C13 41.1046 13.8954 42 15 42H33C34.1046 42 35 41.1046 35 40V12C35 10.8954 34.1046 10 33 10H29.5" stroke="black"/>
<rect x="18.5" y="6.5" width="11" height="5" rx="1.5" stroke="black"/>
<path d="M24 4C22.5 4 21 5 21 6.5H27C27 5 25.5 4 24 4Z" stroke="black"/>
<path d="M21.454 28.2782L21.8076 28.6318L22.1611 28.2782L29.6716 20.7678C30.2573 20.182 31.2071 20.182 31.7929 20.7678C32.3787 21.3536 32.3787 22.3033 31.7929 22.8891L22.1611 32.5208C21.9659 32.7161 21.6493 32.7161 21.454 32.5208L16.7678 27.8346C16.182 27.2488 16.182 26.2991 16.7678 25.7133C17.3536 25.1275 18.3033 25.1275 18.8891 25.7133L21.454 28.2782Z" stroke="black"/>
</svg>
