<svg width="48" height="48" viewBox="0 0 48 48" fill="none" xmlns="http://www.w3.org/2000/svg">
<path d="M22 6L22.5 6L22.5 5.5H22V6ZM22 8L21.5 8L21.5 8.5H22V8ZM26 8V8.5H26.5V8H26ZM26 6V5.5H25.5V6H26ZM20.5 5C20.5 4.72386 20.7239 4.5 21 4.5V3.5C20.1716 3.5 19.5 4.17157 19.5 5H20.5ZM21 5.5C20.7239 5.5 20.5 5.27614 20.5 5H19.5C19.5 5.82843 20.1716 6.5 21 6.5V5.5ZM22 5.5H21V6.5H22V5.5ZM22.5 8L22.5 6L21.5 6L21.5 8L22.5 8ZM26 7.5H22V8.5H26V7.5ZM25.5 6V8H26.5V6H25.5ZM27 5.5H26V6.5H27V5.5ZM27.5 5C27.5 5.27614 27.2761 5.5 27 5.5V6.5C27.8284 6.5 28.5 5.82843 28.5 5H27.5ZM27 4.5C27.2761 4.5 27.5 4.72386 27.5 5H28.5C28.5 4.17157 27.8284 3.5 27 3.5V4.5ZM21 4.5H27V3.5H21V4.5Z" fill="black"/>
<path d="M36.9362 13.6465L38.2913 12.1756C39.0398 11.3633 38.988 10.098 38.1756 9.34956V9.34956C37.3633 8.60112 36.098 8.65292 35.3496 9.46527L33.9944 10.9362" stroke="black"/>
<path d="M39 25.9998C39 28.9665 38.1203 31.8666 36.4722 34.3334C34.824 36.8001 32.4813 38.7228 29.7404 39.8581C26.9996 40.9935 23.9836 41.2905 21.0738 40.7118C18.1641 40.1331 15.4914 38.7045 13.3935 36.6067C11.2957 34.509 9.86708 31.8363 9.28827 28.9265C8.70945 26.0168 9.00646 23.0008 10.1417 20.2599C11.277 17.519 13.1996 15.1763 15.6663 13.5281C18.133 11.8798 21.0331 11 23.9998 11C25.9696 11 27.9202 11.3879 29.7401 12.1417C31.56 12.8955 33.2136 14.0004 34.6065 15.3933C35.9994 16.7861 37.1043 18.4397 37.8581 20.2596C38.612 22.0794 39 24.03 39 25.9998Z" stroke="black"/>
<path d="M42 25.9998C42 29.5598 40.9444 33.0399 38.9666 36.0001C36.9888 38.9602 34.1776 41.2673 30.8885 42.6297C27.5995 43.9922 23.9803 44.3487 20.4886 43.6542C16.9969 42.9597 13.7896 41.2454 11.2723 38.7281C8.75488 36.2108 7.0405 33.0035 6.34592 29.5119C5.65134 26.0202 6.00775 22.401 7.37008 19.1119C8.73242 15.8228 11.0395 13.0116 13.9995 11.0337C16.9596 9.05577 20.4397 8.00005 23.9998 8C26.3636 7.99997 28.7042 8.46552 30.8881 9.37008C33.072 10.2746 35.0563 11.6005 36.7278 13.2719C38.3992 14.9433 39.7251 16.9276 40.6297 19.1115C41.5344 21.2953 42 23.636 42 25.9998Z" stroke="black"/>
<path d="M23.5607 15.6769H24.4393C24.9245 15.6769 25.3179 16.0702 25.3179 16.5554C25.3179 17.0259 25.3179 17.6485 25.3179 18.0574C27.4686 18.6627 29.2714 20.6683 29.2714 22.7054H26.6357C26.6357 21.8791 25.3591 20.509 24 20.509C22.6903 20.509 21.3643 21.2634 21.3643 22.7054C21.3643 24.0661 22.8992 24.9018 24 24.9018C27.0544 24.9018 29.2714 26.9339 29.2714 29.7339C29.2714 32.0685 27.6436 33.9166 25.3179 34.426V35.4445C25.3179 35.9298 24.9245 36.3231 24.4393 36.3231H23.5607C23.0755 36.3231 22.6822 35.9298 22.6822 35.4445V34.3763C20.5399 33.7646 18.7286 31.7649 18.7286 29.7339H21.3643C21.3643 30.5601 22.641 31.9303 24 31.9303C25.3097 31.9303 26.6357 31.1759 26.6357 29.7339C26.6357 28.1129 25.2158 27.5375 24 27.5375C21.4544 27.5375 18.7286 25.5959 18.7286 22.7054C18.7286 20.3672 20.3507 18.517 22.6822 18.0109C22.6822 17.5458 22.6822 17.0236 22.6822 16.5554C22.6822 16.0702 23.0755 15.6769 23.5607 15.6769Z" stroke="black"/>
</svg>
