<svg width="48" height="48" viewBox="0 0 48 48" fill="none" xmlns="http://www.w3.org/2000/svg">
<path d="M7.99999 8.5C7.99999 8.5 3.99998 40 24 44C44 40 40 8.5 40 8.5C35 8.5 32 8 24 4C16 8 13 8.5 7.99999 8.5Z" stroke="black" stroke-linecap="round"/>
<path d="M24 6C24.4858 6.36438 24.9864 6.70664 25.5 7.02676M24 42C24.7 41.7941 25.3662 41.5518 26 41.2763M28 40.2372C40.5004 32.5872 38 10.5 38 10.5C36.3207 10.5 34.6414 10.3308 33 9.99239M33 9.99239C32.3261 9.85345 31.6585 9.68599 31 9.49M33 9.99239L31 9.49M31 9.49C29.9749 9.18491 28.9716 8.8107 28 8.36737" stroke="black" stroke-linecap="round"/>
<path d="M21.454 25.2782L21.8076 25.6318L22.1611 25.2782L29.6716 17.7678C30.2573 17.182 31.2071 17.182 31.7929 17.7678C32.3787 18.3536 32.3787 19.3033 31.7929 19.8891L22.1611 29.5208C21.9659 29.7161 21.6493 29.7161 21.454 29.5208L16.7678 24.8346C16.182 24.2488 16.182 23.2991 16.7678 22.7133C17.3536 22.1275 18.3033 22.1275 18.8891 22.7133L21.454 25.2782Z" stroke="black"/>
</svg>
