<svg width="48" height="48" viewBox="0 0 48 48" fill="none" xmlns="http://www.w3.org/2000/svg">
<path d="M26.2083 34.1186L21.3835 36.531C20.8205 36.8126 20.1577 36.8126 19.5947 36.531L5.10557 29.2865C4.428 28.9477 3.99999 28.2552 3.99999 27.4976V13.4806C3.99999 12.7231 4.428 12.0306 5.10556 11.6918L19.5947 4.44721C20.1577 4.16569 20.8205 4.16569 21.3835 4.44721L35.8727 11.6918C36.5502 12.0306 36.9782 12.7231 36.9782 13.4806V27.4976C36.9782 28.2552 36.5502 28.9477 35.8726 29.2865C35.3364 29.5546 34.8364 29.8046 34.3552 30.0452" stroke="black"/>
<path d="M20.4891 36.9782V20.5861M20.4891 20.5861L36.0083 12.2445M20.4891 20.5861L4.96995 12.2445" stroke="black"/>
<path d="M30.6736 8.8498L14.5202 17.2266V22.7415C14.5202 23.4872 13.7336 23.9705 13.0684 23.6336L10.916 22.5435C10.2435 22.2029 9.81969 21.5131 9.81969 20.7593V14.8458L25.8238 6.42493" stroke="black"/>
<circle cx="28.1526" cy="28.2281" r="6.2865" stroke="black"/>
<path d="M26.2012 24.4762C26.785 24.172 27.4487 24 28.1526 24C30.0815 24 31.7088 25.2917 32.2165 27.0573M32.1557 29.5929C31.9583 30.172 31.6388 30.6946 31.2278 31.1299" stroke="black" stroke-linecap="round"/>
<path d="M32.9227 32.9812L34.0546 34.0848" stroke="black" stroke-linecap="round"/>
<rect x="32.8437" y="35.7306" width="4" height="8.94893" rx="2" transform="rotate(-45 32.8437 35.7306)" stroke="black"/>
</svg>
