<svg width="48" height="48" viewBox="0 0 48 48" fill="none" xmlns="http://www.w3.org/2000/svg">
<path d="M37 30V36L24.6632 39.7611C22.9316 40.1941 21.1049 40.0354 19.4738 39.3105L5.12651 32.9339C4.97984 32.8687 4.84791 32.7745 4.73867 32.6569C4.62944 32.5394 4.54518 32.4009 4.49097 32.2498C4.43676 32.0987 4.41373 31.9383 4.42328 31.7781C4.44939 31.3398 4.73213 30.9351 5.13471 30.7599C5.39013 30.6487 5.67651 30.6309 5.94376 30.7095L18.4001 34.3731C20.5544 35.0068 22.7184 35.2213 24.9139 34.594L29 33L24.5889 34.058C22.8903 34.3007 19.4185 34.1733 18.6725 32.1749C18.4971 31.7048 18.5062 31.1857 18.6982 30.7221C18.7911 30.6293 18.9013 30.5556 19.0227 30.5053C19.144 30.4551 19.2741 30.4292 19.4054 30.4292H22.6041C24.179 30.4292 25.7374 30.1093 27.185 29.4889L30.279 28.1629C30.8152 27.9331 31.3951 27.8234 31.9782 27.8414C32.5613 27.8594 33.1334 28.0047 33.6544 28.2672L37 30Z" stroke="black" stroke-linejoin="round"/>
<path d="M39 37H38C37.7348 37 37.4804 36.8946 37.2929 36.7071C37.1054 36.5196 37 36.2652 37 36V30C37 29.7348 37.1054 29.4804 37.2929 29.2929C37.4804 29.1054 37.7348 29 38 29H39V37Z" stroke="black"/>
<path d="M40 38H43C43.5523 38 44 37.5523 44 37V29C44 28.4477 43.5523 28 43 28H40C39.4477 28 39 28.4477 39 29V37C39 37.5523 39.4477 38 40 38Z" stroke="black"/>
<path d="M37 29.5V16.4861C37 15.7285 36.572 15.036 35.8944 14.6972L23.3944 8.44721C22.8314 8.16569 22.1686 8.16569 21.6056 8.44721L9.10557 14.6972C8.42801 15.036 8 15.7285 8 16.4861V31" stroke="black"/>
<path d="M22.5 30.5V23M22.5 23L36.5 15.5M22.5 23L8.5 15.5" stroke="black"/>
<path d="M31.5 12.5001L17.0572 20.1229V24.3482C17.0572 25.0997 16.2595 25.5826 15.5936 25.2343L14.0728 24.4385C13.4133 24.0935 13 23.4107 13 22.6664V18.0001L27.314 10.3379" stroke="black"/>
</svg>
