<svg width="48" height="48" viewBox="0 0 48 48" fill="none" xmlns="http://www.w3.org/2000/svg">
<mask id="path-1-inside-1_1555_3087" fill="white">
<path fill-rule="evenodd" clip-rule="evenodd" d="M36 6C37.1046 6 38 5.10457 38 4H40V7C38.8954 7 38 7.89543 38 9C38 10.1046 38.8954 11 40 11V13C38.8954 13 38 13.8954 38 15C38 16.1046 38.8954 17 40 17V19C38.8954 19 38 19.8954 38 21C38 22.1046 38.8954 23 40 23V25C38.8954 25 38 25.8954 38 27C38 28.1046 38.8954 29 40 29V31C38.8954 31 38 31.8954 38 33C38 34.1046 38.8954 35 40 35V37C38.8954 37 38 37.8954 38 39C38 40.1046 38.8954 41 40 41V44H38C38 42.8954 37.1046 42 36 42C34.8954 42 34 42.8954 34 44H32C32 42.8954 31.1046 42 30 42C28.8954 42 28 42.8954 28 44H26C26 42.8954 25.1046 42 24 42C22.8954 42 22 42.8954 22 44H20C20 42.8954 19.1046 42 18 42C16.8954 42 16 42.8954 16 44H14C14 42.8954 13.1046 42 12 42C10.8954 42 10 42.8954 10 44H8V41C9.10457 41 10 40.1046 10 39C10 37.8954 9.10457 37 8 37V35C9.10457 35 10 34.1046 10 33C10 31.8954 9.10457 31 8 31V29C9.10457 29 10 28.1046 10 27C10 25.8954 9.10457 25 8 25V23C9.10457 23 10 22.1046 10 21C10 19.8954 9.10457 19 8 19V17C9.10457 17 10 16.1046 10 15C10 13.8954 9.10457 13 8 13V11C9.10457 11 10 10.1046 10 9C10 7.89543 9.10457 7 8 7V4H10C10 5.10457 10.8954 6 12 6C13.1046 6 14 5.10457 14 4H16C16 5.10457 16.8954 6 18 6C19.1046 6 20 5.10457 20 4H22C22 5.10457 22.8954 6 24 6C25.1046 6 26 5.10457 26 4H28C28 5.10457 28.8954 6 30 6C31.1046 6 32 5.10457 32 4H34C34 5.10457 34.8954 6 36 6Z"/>
</mask>
<path d="M38 4V3H37V4H38ZM40 4H41V3H40V4ZM40 7V8H41V7H40ZM40 11H41V10H40V11ZM40 13V14H41V13H40ZM40 17H41V16H40V17ZM40 19V20H41V19H40ZM40 23H41V22H40V23ZM40 25V26H41V25H40ZM40 29H41V28H40V29ZM40 31V32H41V31H40ZM40 35H41V34H40V35ZM40 37V38H41V37H40ZM40 41H41V40H40V41ZM40 44V45H41V44H40ZM38 44H37V45H38V44ZM34 44V45H35V44H34ZM32 44H31V45H32V44ZM28 44V45H29V44H28ZM26 44H25V45H26V44ZM22 44V45H23V44H22ZM20 44H19V45H20V44ZM16 44V45H17V44H16ZM14 44H13V45H14V44ZM10 44V45H11V44H10ZM8 44H7V45H8V44ZM8 41V40H7V41H8ZM8 37H7V38H8V37ZM8 35V34H7V35H8ZM8 31H7V32H8V31ZM8 29V28H7V29H8ZM8 25H7V26H8V25ZM8 23V22H7V23H8ZM8 19H7V20H8V19ZM8 17V16H7V17H8ZM8 13H7V14H8V13ZM8 11V10H7V11H8ZM8 7H7V8H8V7ZM8 4V3H7V4H8ZM10 4H11V3H10V4ZM14 4V3H13V4H14ZM16 4H17V3H16V4ZM20 4V3H19V4H20ZM22 4H23V3H22V4ZM26 4V3H25V4H26ZM28 4H29V3H28V4ZM32 4V3H31V4H32ZM34 4H35V3H34V4ZM37 4C37 4.55228 36.5523 5 36 5V7C37.6569 7 39 5.65685 39 4H37ZM38 5H40V3H38V5ZM39 4V7H41V4H39ZM39 9C39 8.44772 39.4477 8 40 8V6C38.3431 6 37 7.34315 37 9H39ZM40 10C39.4477 10 39 9.55228 39 9H37C37 10.6569 38.3431 12 40 12V10ZM39 11V13H41V11H39ZM40 12C38.3431 12 37 13.3431 37 15H39C39 14.4477 39.4477 14 40 14V12ZM37 15C37 16.6569 38.3431 18 40 18V16C39.4477 16 39 15.5523 39 15H37ZM39 17V19H41V17H39ZM39 21C39 20.4477 39.4477 20 40 20V18C38.3431 18 37 19.3431 37 21H39ZM40 22C39.4477 22 39 21.5523 39 21H37C37 22.6569 38.3431 24 40 24V22ZM39 23V25H41V23H39ZM40 24C38.3431 24 37 25.3431 37 27H39C39 26.4477 39.4477 26 40 26V24ZM37 27C37 28.6569 38.3431 30 40 30V28C39.4477 28 39 27.5523 39 27H37ZM39 29V31H41V29H39ZM40 30C38.3431 30 37 31.3431 37 33H39C39 32.4477 39.4477 32 40 32V30ZM37 33C37 34.6569 38.3431 36 40 36V34C39.4477 34 39 33.5523 39 33H37ZM39 35V37H41V35H39ZM40 36C38.3431 36 37 37.3431 37 39H39C39 38.4477 39.4477 38 40 38V36ZM37 39C37 40.6569 38.3431 42 40 42V40C39.4477 40 39 39.5523 39 39H37ZM39 41V44H41V41H39ZM40 43H38V45H40V43ZM39 44C39 42.3431 37.6569 41 36 41V43C36.5523 43 37 43.4477 37 44H39ZM36 41C34.3431 41 33 42.3431 33 44H35C35 43.4477 35.4477 43 36 43V41ZM34 43H32V45H34V43ZM33 44C33 42.3431 31.6569 41 30 41V43C30.5523 43 31 43.4477 31 44H33ZM30 41C28.3431 41 27 42.3431 27 44H29C29 43.4477 29.4477 43 30 43V41ZM28 43H26V45H28V43ZM27 44C27 42.3431 25.6569 41 24 41V43C24.5523 43 25 43.4477 25 44H27ZM24 41C22.3431 41 21 42.3431 21 44H23C23 43.4477 23.4477 43 24 43V41ZM22 43H20V45H22V43ZM21 44C21 42.3431 19.6569 41 18 41V43C18.5523 43 19 43.4477 19 44H21ZM18 41C16.3431 41 15 42.3431 15 44H17C17 43.4477 17.4477 43 18 43V41ZM16 43H14V45H16V43ZM15 44C15 42.3431 13.6569 41 12 41V43C12.5523 43 13 43.4477 13 44H15ZM12 41C10.3431 41 9 42.3431 9 44H11C11 43.4477 11.4477 43 12 43V41ZM10 43H8V45H10V43ZM9 44V41H7V44H9ZM8 42C9.65685 42 11 40.6569 11 39H9C9 39.5523 8.55228 40 8 40V42ZM11 39C11 37.3431 9.65685 36 8 36V38C8.55228 38 9 38.4477 9 39H11ZM9 37V35H7V37H9ZM8 36C9.65685 36 11 34.6569 11 33H9C9 33.5523 8.55228 34 8 34V36ZM11 33C11 31.3431 9.65685 30 8 30V32C8.55228 32 9 32.4477 9 33H11ZM9 31V29H7V31H9ZM8 30C9.65685 30 11 28.6569 11 27H9C9 27.5523 8.55228 28 8 28V30ZM11 27C11 25.3431 9.65685 24 8 24V26C8.55228 26 9 26.4477 9 27H11ZM9 25V23H7V25H9ZM8 24C9.65685 24 11 22.6569 11 21H9C9 21.5523 8.55228 22 8 22V24ZM11 21C11 19.3431 9.65685 18 8 18V20C8.55228 20 9 20.4477 9 21H11ZM9 19V17H7V19H9ZM8 18C9.65685 18 11 16.6569 11 15H9C9 15.5523 8.55228 16 8 16V18ZM11 15C11 13.3431 9.65685 12 8 12V14C8.55228 14 9 14.4477 9 15H11ZM9 13V11H7V13H9ZM9 9C9 9.55228 8.55228 10 8 10V12C9.65685 12 11 10.6569 11 9H9ZM8 8C8.55228 8 9 8.44772 9 9H11C11 7.34315 9.65685 6 8 6V8ZM9 7V4H7V7H9ZM8 5H10V3H8V5ZM9 4C9 5.65685 10.3431 7 12 7V5C11.4477 5 11 4.55228 11 4H9ZM12 7C13.6569 7 15 5.65685 15 4H13C13 4.55228 12.5523 5 12 5V7ZM14 5H16V3H14V5ZM15 4C15 5.65685 16.3431 7 18 7V5C17.4477 5 17 4.55228 17 4H15ZM18 7C19.6569 7 21 5.65685 21 4H19C19 4.55228 18.5523 5 18 5V7ZM20 5H22V3H20V5ZM21 4C21 5.65685 22.3431 7 24 7V5C23.4477 5 23 4.55228 23 4H21ZM24 7C25.6569 7 27 5.65685 27 4H25C25 4.55228 24.5523 5 24 5V7ZM26 5H28V3H26V5ZM27 4C27 5.65685 28.3431 7 30 7V5C29.4477 5 29 4.55228 29 4H27ZM30 7C31.6569 7 33 5.65685 33 4H31C31 4.55228 30.5523 5 30 5V7ZM32 5H34V3H32V5ZM36 5C35.4477 5 35 4.55228 35 4H33C33 5.65685 34.3431 7 36 7V5Z" fill="black" mask="url(#path-1-inside-1_1555_3087)"/>
<rect x="13.5" y="9.5" width="21" height="29" rx="1.5" stroke="black"/>
<path d="M21 12.5C21 12.5 24.2812 11.375 28.5 12.5C32.7188 13.625 36 12.5 36 12.5" stroke="black" stroke-linecap="round"/>
<path d="M21 15.5C21 15.5 24.2812 14.375 28.5 15.5C32.7188 16.625 36 15.5 36 15.5" stroke="black" stroke-linecap="round"/>
<path d="M9.9884 25.5C11.1024 25.1745 12.2808 25 13.5 25C20.4036 25 26 30.5964 26 37.5C26 38.8989 25.7702 40.2441 25.3463 41.5" stroke="black"/>
</svg>
