<svg width="48" height="48" viewBox="0 0 48 48" fill="none" xmlns="http://www.w3.org/2000/svg">
<path d="M13 26C16 38 32 38 35 26" stroke="black" stroke-linecap="round"/>
<circle cx="24" cy="24" r="18.5" stroke="black"/>
<path d="M20.5 19C20.5 19.7435 20.2982 20.394 19.9982 20.844C19.6959 21.2975 19.3331 21.5 19 21.5C18.6669 21.5 18.3041 21.2975 18.0018 20.844C17.7018 20.394 17.5 19.7435 17.5 19C17.5 18.2565 17.7018 17.606 18.0018 17.156C18.3041 16.7025 18.6669 16.5 19 16.5C19.3331 16.5 19.6959 16.7025 19.9982 17.156C20.2982 17.606 20.5 18.2565 20.5 19Z" stroke="black"/>
<path d="M30.5 19C30.5 19.7435 30.2982 20.394 29.9982 20.844C29.6959 21.2975 29.3331 21.5 29 21.5C28.6669 21.5 28.3041 21.2975 28.0018 20.844C27.7018 20.394 27.5 19.7435 27.5 19C27.5 18.2565 27.7018 17.606 28.0018 17.156C28.3041 16.7025 28.6669 16.5 29 16.5C29.3331 16.5 29.6959 16.7025 29.9982 17.156C30.2982 17.606 30.5 18.2565 30.5 19Z" stroke="black"/>
</svg>
