<svg width="48" height="48" viewBox="0 0 48 48" fill="none" xmlns="http://www.w3.org/2000/svg">
<path d="M15.5508 9.50001C15.5508 8.06097 16.5479 6.92158 17.7019 6.87583C18.0142 6.88259 18.3221 6.95116 18.6078 7.07762C18.8974 7.20576 19.1582 7.39074 19.3749 7.62159C19.5835 7.84372 19.747 8.10397 19.8568 8.38796C19.8576 8.3949 19.8586 8.40363 19.8597 8.41437C19.8647 8.46263 19.87 8.53283 19.8755 8.62594C19.8865 8.81109 19.897 9.06831 19.907 9.38354C19.9269 10.013 19.9441 10.8598 19.9586 11.7942C19.9877 13.6624 20.0057 15.8717 20.0126 17.3713C20.0138 17.647 20.238 17.8697 20.5137 17.8691C20.7894 17.8684 21.0126 17.6448 21.0126 17.3691V6.93616C21.0126 6.92836 21.0124 6.92057 21.012 6.91278C20.9972 6.59651 21.046 6.28049 21.1557 5.98345C21.2653 5.68641 21.4334 5.41441 21.6501 5.18356C21.8668 4.95272 22.1276 4.76773 22.4171 4.63958C22.7028 4.51311 23.0107 4.44452 23.323 4.43773C24.477 4.48359 25.4741 5.62291 25.4741 7.06191V16.6277C25.4741 16.9033 25.6971 17.127 25.9727 17.1277C26.2483 17.1285 26.4726 16.9061 26.4741 16.6305C26.4809 15.3874 26.499 12.9877 26.528 10.8648C26.5426 9.803 26.5598 8.81238 26.5797 8.07083C26.5897 7.69959 26.6003 7.39384 26.6114 7.17386C26.6169 7.06332 26.6224 6.97883 26.6276 6.92028C26.629 6.90485 26.6302 6.89254 26.6313 6.883C26.741 6.60039 26.904 6.34139 27.1117 6.12018C27.3284 5.88933 27.5893 5.70435 27.8788 5.57621C28.1646 5.44975 28.4725 5.38118 28.7848 5.37442C29.9388 5.42031 30.9359 6.55962 30.9359 7.99865V20.9847L30.7994 23.2161C30.786 23.4356 30.9176 23.6381 31.1237 23.715C31.3297 23.7919 31.5618 23.7252 31.6955 23.5505C32.6062 22.3609 33.9073 21.0393 35.345 20.4643C36.9048 19.8403 38.1034 19.8923 38.7578 20.2607C39.0717 20.4374 39.2684 20.6879 39.352 21.001C39.4262 21.2784 39.4206 21.6412 39.276 22.0906C37.7151 22.5807 36.548 23.6656 35.6207 24.9403C34.6527 26.271 33.9135 27.8552 33.2514 29.2742L33.2412 29.296C32.7555 30.3367 32.3154 31.2781 31.8482 32.0207C31.3748 32.7732 30.9265 33.2327 30.4668 33.4118C30.4125 33.433 30.3633 33.4631 30.3207 33.5L30.0104 33.5L30.0076 33.5L30 33.5L29.9931 33.5H29.99L16.7771 33.4994C15.1661 32.5292 13.586 30.6464 12.1112 27.2984C12.1085 27.2923 12.1056 27.2862 12.1027 27.2802C11.4358 25.9179 11.0602 24.4315 11 22.916V16C11 14.8875 11.7312 14.0007 12.5916 13.9029C12.8495 13.8903 13.1074 13.9312 13.3488 14.0231C13.5941 14.1164 13.817 14.2604 14.003 14.4456C14.1816 14.6234 14.3224 14.8354 14.4169 15.0687C14.4204 15.0922 14.4245 15.1286 14.4292 15.1797C14.4384 15.2822 14.4475 15.4241 14.4563 15.5996C14.4739 15.9495 14.4892 16.4148 14.5022 16.9286C14.5281 17.9552 14.5444 19.1625 14.5508 19.9977C14.5529 20.2731 14.7773 20.4949 15.0527 20.4939C15.3281 20.4928 15.5508 20.2693 15.5508 19.9939V9.50001ZM26.6349 6.85619C26.6349 6.85635 26.6346 6.85844 26.6339 6.86212C26.6345 6.85788 26.6349 6.85603 26.6349 6.85619ZM14.4137 15.0494C14.4137 15.0493 14.4139 15.0504 14.4144 15.0528C14.4139 15.0507 14.4137 15.0495 14.4137 15.0494Z" stroke="black" stroke-linejoin="round"/>
<rect x="12.5" y="36.5" width="21" height="7" rx="1.5" stroke="black"/>
<path d="M14 36V35C14 34.4477 14.4477 34 15 34H31C31.5523 34 32 34.4477 32 35V36" stroke="black" stroke-linecap="round"/>
</svg>
