<svg width="48" height="48" viewBox="0 0 48 48" fill="none" xmlns="http://www.w3.org/2000/svg">
<path d="M41 36H42C43.1046 36 44 35.1046 44 34V14C44 12.8954 43.1046 12 42 12H6C4.89543 12 4 12.8954 4 14V34C4 35.1046 4.89543 36 6 36H25" stroke="black"/>
<rect x="8.5" y="22.5" width="15" height="7" rx="1.5" stroke="black"/>
<rect x="8.5" y="16.5" width="11" height="3" rx="1.5" stroke="black"/>
<path d="M11 25H21" stroke="black" stroke-linecap="round"/>
<path d="M11 27H21" stroke="black" stroke-linecap="round"/>
<path d="M33 28.5V32.5858C33 32.851 33.1054 33.1054 33.2929 33.2929L37 37" stroke="black" stroke-linecap="round"/>
<circle cx="33" cy="33" r="0.5" stroke="black"/>
<circle cx="33" cy="33" r="8.5" stroke="black"/>
</svg>
