<svg width="48" height="48" viewBox="0 0 48 48" fill="none" xmlns="http://www.w3.org/2000/svg">
<path d="M35 36H42C43.1046 36 44 35.1046 44 34V14C44 12.8954 43.1046 12 42 12H6C4.89543 12 4 12.8954 4 14V34C4 35.1046 4.89543 36 6 36H27" stroke="black"/>
<rect x="8.5" y="22.5" width="21" height="7" rx="1.5" stroke="black"/>
<rect x="8.5" y="16.5" width="11" height="3" rx="1.5" stroke="black"/>
<path d="M12 25H26" stroke="black" stroke-linecap="round"/>
<path d="M12 27H26" stroke="black" stroke-linecap="round"/>
<path d="M30.454 35.2782L30.8076 35.6318L31.1611 35.2782L38.6716 27.7678C39.2573 27.182 40.2071 27.182 40.7929 27.7678C41.3787 28.3536 41.3787 29.3033 40.7929 29.8891L31.1611 39.5208C30.9659 39.7161 30.6493 39.7161 30.454 39.5208L25.7678 34.8346C25.182 34.2488 25.182 33.2991 25.7678 32.7133C26.3536 32.1275 27.3033 32.1275 27.8891 32.7133L30.454 35.2782Z" stroke="black"/>
</svg>
