<svg width="48" height="48" viewBox="0 0 48 48" fill="none" xmlns="http://www.w3.org/2000/svg">
<mask id="path-1-inside-1_1589_1482" fill="white">
<path fill-rule="evenodd" clip-rule="evenodd" d="M4 19.5964C4 18.4919 4.89543 17.5964 6 17.5964H42C43.1046 17.5964 44 18.4919 44 19.5964V23.5964C42.3431 23.5964 41 24.9396 41 26.5964C41 28.2533 42.3431 29.5964 44 29.5964V33.5964C44 34.701 43.1046 35.5964 42 35.5964H6C4.89543 35.5964 4 34.701 4 33.5964V29.5964C5.65685 29.5964 7 28.2533 7 26.5964C7 24.9396 5.65685 23.5964 4 23.5964V19.5964Z"/>
</mask>
<path d="M44 23.5964V24.5964H45V23.5964H44ZM44 29.5964H45V28.5964H44V29.5964ZM4 29.5964V28.5964H3V29.5964H4ZM4 23.5964H3V24.5964H4V23.5964ZM6 16.5964C4.34315 16.5964 3 17.9396 3 19.5964H5C5 19.0442 5.44772 18.5964 6 18.5964V16.5964ZM42 16.5964H6V18.5964H42V16.5964ZM45 19.5964C45 17.9396 43.6569 16.5964 42 16.5964V18.5964C42.5523 18.5964 43 19.0442 43 19.5964H45ZM45 23.5964V19.5964H43V23.5964H45ZM42 26.5964C42 25.4919 42.8954 24.5964 44 24.5964V22.5964C41.7909 22.5964 40 24.3873 40 26.5964H42ZM44 28.5964C42.8954 28.5964 42 27.701 42 26.5964H40C40 28.8056 41.7909 30.5964 44 30.5964V28.5964ZM45 33.5964V29.5964H43V33.5964H45ZM42 36.5964C43.6569 36.5964 45 35.2533 45 33.5964H43C43 34.1487 42.5523 34.5964 42 34.5964V36.5964ZM6 36.5964H42V34.5964H6V36.5964ZM3 33.5964C3 35.2533 4.34315 36.5964 6 36.5964V34.5964C5.44772 34.5964 5 34.1487 5 33.5964H3ZM3 29.5964V33.5964H5V29.5964H3ZM6 26.5964C6 27.701 5.10457 28.5964 4 28.5964V30.5964C6.20914 30.5964 8 28.8056 8 26.5964H6ZM4 24.5964C5.10457 24.5964 6 25.4919 6 26.5964H8C8 24.3873 6.20914 22.5964 4 22.5964V24.5964ZM3 19.5964V23.5964H5V19.5964H3Z" fill="black" mask="url(#path-1-inside-1_1589_1482)"/>
<path d="M35 34.5964V18.5964" stroke="black" stroke-linecap="round" stroke-dasharray="1 2"/>
<path d="M33 18L32 15" stroke="black" stroke-linecap="round" stroke-dasharray="2 2"/>
<rect x="10.5" y="21.5" width="20" height="3" rx="1.5" stroke="black"/>
<path d="M11 29H25" stroke="black" stroke-linecap="round"/>
<path d="M11 32H20" stroke="black" stroke-linecap="round"/>
<path d="M6 18L37.617 13.281C38.6716 13.1236 39.6643 13.8213 39.8734 14.8669L40.5 18" stroke="black" stroke-linecap="round"/>
</svg>
