<svg width="48" height="48" viewBox="0 0 48 48" fill="none" xmlns="http://www.w3.org/2000/svg">
<path d="M37 35L39 37" stroke="black" stroke-linecap="round" stroke-linejoin="round"/>
<path d="M11 35L9 37" stroke="black" stroke-linecap="round" stroke-linejoin="round"/>
<path d="M10.364 18.6569L14 15" stroke="black" stroke-linecap="round" stroke-linejoin="round"/>
<path d="M37 30.6569L40.636 27" stroke="black" stroke-linecap="round" stroke-linejoin="round"/>
<path d="M8 18L10 16" stroke="black" stroke-linecap="round" stroke-linejoin="round"/>
<path d="M8 20.7782L8.70711 20.0711" stroke="black" stroke-linecap="round" stroke-linejoin="round"/>
<path d="M27.5 34.5H6.5C5.39543 34.5 4.5 33.6046 4.5 32.5V13.5C4.5 12.3954 5.39543 11.5 6.5 11.5H41.5C42.6046 11.5 43.5 12.3954 43.5 13.5V32.5C43.5 33.6046 42.6046 34.5 41.5 34.5H34.5" stroke="black" stroke-linecap="round" stroke-linejoin="round"/>
<circle cx="31" cy="36" r="1" stroke="black"/>
<rect x="27.5" y="21.5" width="7" height="18" rx="1.5" stroke="black"/>
<path d="M29.5 25L30 25" stroke="black" stroke-linecap="round" stroke-linejoin="round"/>
<path d="M29.5 27L30 27" stroke="black" stroke-linecap="round" stroke-linejoin="round"/>
<path d="M32 25H32.5" stroke="black" stroke-linecap="round" stroke-linejoin="round"/>
<path d="M32 27H32.5" stroke="black" stroke-linecap="round" stroke-linejoin="round"/>
</svg>
