<svg width="48" height="48" viewBox="0 0 48 48" fill="none" xmlns="http://www.w3.org/2000/svg">
<path d="M38.5446 32.5C35.1957 28.1354 29.9265 25.3215 24 25.3215C15.8978 25.3215 9.02394 30.5807 6.60601 37.8716C6.21128 39.0619 7.16105 40.2078 8.41505 40.2078H31M40.2556 35.183C40.7033 36.0416 41.0851 36.9401 41.394 37.8718C41.7888 39.062 40.8389 40.2078 39.5849 40.2078H35.2417" stroke="black"/>
<path d="M27.4353 25.3215C27.4353 27.2188 25.8972 28.7568 24 28.7568C22.1027 28.7568 20.5647 27.2188 20.5647 25.3215" stroke="black"/>
<circle cx="24" cy="16.1608" r="9.16077" stroke="black"/>
<path d="M32.7177 37.5895L33.0712 37.943L33.4248 37.5895L40.9352 30.079C41.521 29.4933 42.4707 29.4933 43.0565 30.079C43.6423 30.6648 43.6423 31.6146 43.0565 32.2004L33.4248 41.8321C33.2295 42.0274 32.9129 42.0274 32.7177 41.8321L28.0314 37.1459C27.4456 36.5601 27.4456 35.6104 28.0314 35.0246C28.6172 34.4388 29.5669 34.4388 30.1527 35.0246L32.7177 37.5895Z" stroke="black"/>
</svg>
